<?xml version="1.0" encoding="UTF-8"?>
<svg xmlns="http://www.w3.org/2000/svg" viewBox="169.06 191.06 35.88 48.88" aria-hidden="true">
  <style>
    path,
    circle {
      fill: none;
      stroke: #007AFF;
      stroke-width: 1.55;
      stroke-linecap: round;
      stroke-linejoin: round;
      vector-effect: non-scaling-stroke;
    }
  </style>
  <g transform="scale(1 -1)">
    <path d="M 199.146 -211.3 L 199.146 -210.82" />
    <path d="M 193.886 -211.27 L 193.886 -210.82" />
    <path d="M 193.336 -211.3 L 193.336 -210.275" />
    <path d="M 199.541 -196.38 L 198.796 -196.38" />
    <path d="M 197.606 -196.38 L 196.956 -196.38" />
    <path d="M 195.766 -196.38 L 195.006 -196.38" />
    <path d="M 193.816 -196.38 L 193.236 -196.38" />
    <path d="M 193.886 -210.82 L 198.051 -210.82" />
    <path d="M 198.981 -210.82 L 199.146 -210.82" />
    <path d="M 198.981 -210.82 L 198.981 -210.54" />
    <path d="M 198.051 -210.82 L 198.051 -210.54" />
    <path d="M 194.43 -210.54 L 195.696 -210.54" />
    <path d="M 194.466 -206.1 L 195.306 -206.1" />
    <path d="M 198.996 -206.05 L 199.126 -206.05" />
    <path d="M 198.981 -210.54 L 198.996 -210.54" />
    <path d="M 198.996 -210.54 L 198.996 -206.05" />
    <path d="M 195.416 -207.57 L 195.416 -206.1" />
    <path d="M 195.716 -207.57 L 195.716 -207.27" />
    <path d="M 199.126 -206.05 L 199.126 -203.5" />
    <path d="M 199.126 -204.1 L 199.126 -202.56" />
    <path d="M 192.996 -203.11 L 192.996 -202.56" />
    <path d="M 194.43 -210.54 L 194.43 -209.64" />
    <path d="M 194.43 -208.53 L 194.43 -207.64" />
    <path d="M 195.696 -210.54 L 195.696 -210.27" />
    <path d="M 197.866 -210.54 L 197.866 -209.08" />
    <path d="M 197.866 -209.08 L 197.796 -209.08" />
    <path d="M 197.866 -208.16 L 197.796 -208.16" />
    <path d="M 197.796 -210.27 L 197.796 -209.08" />
    <path d="M 197.796 -210.27 L 195.696 -210.27" />
    <path d="M 197.866 -210.54 L 198.051 -210.54" />
    <path d="M 194.43 -209.635 L 193.889 -209.635" />
    <path d="M 194.43 -208.525 L 193.889 -208.525" />
    <path d="M 194.466 -209.635 L 194.466 -208.525" />
    <path d="M 197.796 -207.64 L 195.176 -207.64" />
    <path d="M 194.556 -207.64 L 194.43 -207.64" />
    <path d="M 195.176 -207.64 L 195.176 -207.57" />
    <path d="M 194.556 -207.65 L 194.556 -207.57" />
    <path d="M 194.466 -207.57 L 194.556 -207.57" />
    <path d="M 195.176 -207.57 L 195.306 -207.57" />
    <path d="M 195.306 -207.57 L 195.306 -206.1" />
    <path d="M 194.466 -207.57 L 194.466 -207.505" />
    <path d="M 194.466 -206.775 L 194.466 -206.1" />
    <path d="M 194.466 -206.775 L 194.026 -206.775" />
    <path d="M 194.466 -207.505 L 193.889 -207.505" />
    <path d="M 197.866 -208.16 L 197.866 -207.03" />
    <path d="M 197.866 -206.31 L 197.796 -206.31" />
    <path d="M 197.866 -207.03 L 197.796 -207.03" />
    <path d="M 197.796 -208.16 L 197.796 -207.64" />
    <path d="M 197.796 -207.57 L 197.796 -207.03" />
    <path d="M 197.796 -206.1 L 195.416 -206.1" />
    <path d="M 197.796 -207.57 L 195.416 -207.57" />
    <path d="M 195.716 -207.27 L 195.416 -207.27" />
    <path d="M 197.866 -206.31 L 197.866 -204.75" />
    <path d="M 197.866 -203.84 L 197.866 -203.5" />
    <path d="M 197.866 -203.84 L 197.866 -202.56" />
    <path d="M 197.866 -203.83 L 197.796 -203.83" />
    <path d="M 197.866 -203.83 L 197.796 -203.83" />
    <path d="M 197.866 -204.75 L 197.796 -204.75" />
    <path d="M 197.796 -206.31 L 197.796 -206.1" />
    <path d="M 197.796 -206.03 L 197.796 -204.75" />
    <path d="M 197.796 -203.84 L 197.796 -203.5" />
    <path d="M 197.796 -203.84 L 197.796 -202.56" />
    <path d="M 197.796 -206.03 L 193.875 -206.03" />
    <path d="M 192.996 -203.11 L 192.9 -203.11" />
    <path d="M 193.875 -206.03 L 193.875 -206.41" />
    <path d="M 192.515 -206.03 L 193.875 -206.03" />
    <path d="M 193.875 -206.41 L 193.775 -206.41" />
    <path d="M 193.775 -206.41 L 193.775 -206.542" />
    <path d="M 197.796 -202.56 L 194.366 -202.56" />
    <path d="M 193.446 -202.56 L 192.996 -202.56" />
    <path d="M 193.446 -202.56 L 193.446 -202.19" />
    <path d="M 194.366 -202.56 L 194.366 -202.19" />
    <path d="M 192.9 -202.19 L 193.446 -202.19" />
    <path d="M 197.866 -202.56 L 198.016 -202.56" />
    <path d="M 198.936 -202.56 L 199.126 -202.56" />
    <path d="M 198.016 -202.56 L 198.016 -202.19" />
    <path d="M 199.126 -196.92 L 199.126 -202.19" />
    <path d="M 198.936 -202.56 L 198.936 -202.19" />
    <path d="M 194.366 -202.19 L 195.386 -202.19" />
    <path d="M 195.456 -202.19 L 198.016 -202.19" />
    <path d="M 195.456 -196.92 L 195.766 -196.92" />
    <path d="M 196.956 -196.92 L 197.606 -196.92" />
    <path d="M 198.796 -196.92 L 199.126 -196.92" />
    <path d="M 198.936 -202.19 L 199.126 -202.19" />
    <path d="M 198.796 -196.92 L 198.796 -196.38" />
    <path d="M 197.606 -196.92 L 197.606 -196.38" />
    <path d="M 197.711 -196.38 L 198.691 -196.38" />
    <path d="M 195.766 -196.92 L 195.766 -196.38" />
    <path d="M 195.456 -196.92 L 195.456 -200.74" />
    <path d="M 195.456 -201.66 L 195.456 -202.19" />
    <path d="M 195.456 -200.74 L 195.386 -200.74" />
    <path d="M 195.456 -201.66 L 195.386 -201.66" />
    <path d="M 195.386 -196.92 L 195.386 -200.74" />
    <path d="M 195.386 -201.66 L 195.386 -202.19" />
    <path d="M 195.386 -196.92 L 195.006 -196.92" />
    <path d="M 193.816 -196.92 L 193.236 -196.92" />
    <path d="M 196.956 -196.92 L 196.956 -196.38" />
    <path d="M 193.816 -196.92 L 193.816 -196.38" />
    <path d="M 195.006 -196.92 L 195.006 -196.38" />
    <path d="M 193.236 -196.92 L 193.236 -196.38" />
    <path d="M 194.026 -206.775 L 194.026 -206.87" />
    <path d="M 194.026 -206.871 L 193.887 -206.871" />
    <path d="M 193.887 -206.542 L 193.887 -206.871" />
    <path d="M 193.889 -207.505 L 193.889 -208.525" />
    <path d="M 193.889 -209.635 L 193.889 -210.275" />
    <path d="M 193.775 -206.542 L 193.885 -206.542" />
    <path d="M 193.889 -210.275 L 193.336 -210.275" />
    <path d="M 193.627 -209.59 L 193.627 -209.64" />
    <path d="M 193.767 -209.599 L 193.635 -209.6" />
    <path d="M 193.767 -209.589 L 193.627 -209.59" />
    <path d="M 193.627 -209.64 L 193.625 -209.64" />
    <path d="M 193.58 -208.731 L 193.584 -209.443" />
    <path d="M 193.625 -209.64 L 193.627 -210.043" />
    <path d="M 193.635 -209.64 L 193.637 -210.053" />
    <path d="M 193.627 -210.043 L 193.056 -210.042" />
    <path d="M 193.637 -210.053 L 193.066 -210.052" />
    <path d="M 193.056 -210.042 L 193.06 -211.3" />
    <path d="M 193.07 -211.3 L 193.066 -210.052" />
    <path d="M 193.79 -209.204 L 193.791 -209.442" />
    <path d="M 193.838 -209.203 L 193.839 -209.442" />
    <path d="M 193.624 -207.538 L 193.623 -207.433" />
    <path d="M 193.614 -207.538 L 193.614 -207.473" />
    <path d="M 193.616 -207.473 L 193.615 -207.423" />
    <path d="M 193.623 -207.433 L 193.756 -207.432" />
    <path d="M 193.615 -207.423 L 193.756 -207.422" />
    <path d="M 193.614 -207.473 L 193.616 -207.473" />
    <path d="M 193.751 -207.432 L 193.751 -207.422" />
    <path d="M 193.629 -208.574 L 193.629 -208.397" />
    <path d="M 193.619 -208.534 L 193.619 -208.397" />
    <path d="M 193.622 -208.584 L 193.621 -208.534" />
    <path d="M 193.761 -208.573 L 193.629 -208.574" />
    <path d="M 193.761 -208.583 L 193.622 -208.584" />
    <path d="M 193.621 -208.534 L 193.619 -208.534" />
    <path d="M 193.614 -207.538 L 193.619 -208.397" />
    <path d="M 193.624 -207.538 L 193.629 -208.397" />
    <path d="M 193.616 -207.447 L 193.572 -207.447" />
    <path d="M 193.572 -207.447 L 193.571 -207.423" />
    <path d="M 193.571 -207.423 L 193.615 -207.423" />
    <path d="M 193.758 -208.573 L 193.759 -208.583" />
    <path d="M 193.833 -207.484 L 193.757 -207.484" />
    <path d="M 193.757 -207.484 L 193.757 -207.464" />
    <path d="M 193.757 -207.464 L 193.833 -207.464" />
    <path d="M 193.62 -206.771 L 193.621 -206.886" />
    <path d="M 193.61 -206.781 L 193.61 -206.846" />
    <path d="M 193.612 -206.846 L 193.613 -206.896" />
    <path d="M 193.621 -206.886 L 193.753 -206.886" />
    <path d="M 193.613 -206.896 L 193.753 -206.896" />
    <path d="M 193.61 -206.846 L 193.612 -206.846" />
    <path d="M 193.748 -206.886 L 193.748 -206.896" />
    <path d="M 193.613 -206.872 L 193.569 -206.873" />
    <path d="M 193.569 -206.873 L 193.569 -206.897" />
    <path d="M 193.569 -206.897 L 193.613 -206.896" />
    <path d="M 193.573 -207.423 L 193.571 -206.897" />
    <path d="M 193.778 -207.004 L 193.78 -207.313" />
    <path d="M 193.826 -207.004 L 193.828 -207.313" />
    <path d="M 193.789 -208.969 L 193.787 -208.73" />
    <path d="M 192.473 -206.783 L 192.523 -206.783" />
    <path d="M 192.499 -206.784 L 192.499 -206.828" />
    <path d="M 192.499 -206.828 L 192.523 -206.828" />
    <path d="M 192.523 -206.828 L 192.523 -206.784" />
    <path d="M 192.514 -206.711 L 192.523 -206.715" />
    <path d="M 192.514 -206.696 L 192.523 -206.692" />
    <path d="M 192.522 -206.642 L 192.523 -206.783" />
    <path d="M 192.512 -206.642 L 192.513 -206.775" />
    <path d="M 192.522 -206.647 L 192.512 -206.647" />
    <path d="M 192.4 -206.775 L 192.513 -206.775" />
    <path d="M 193.547 -206.779 L 193.497 -206.78" />
    <path d="M 193.521 -206.824 L 193.497 -206.824" />
    <path d="M 193.497 -206.824 L 193.497 -206.78" />
    <path d="M 193.505 -206.708 L 193.497 -206.712" />
    <path d="M 193.505 -206.693 L 193.496 -206.689" />
    <path d="M 193.496 -206.639 L 193.497 -206.78" />
    <path d="M 193.506 -206.639 L 193.507 -206.771" />
    <path d="M 193.496 -206.644 L 193.506 -206.644" />
    <path d="M 193.507 -206.771 L 193.62 -206.771" />
    <path d="M 193.547 -206.781 L 193.61 -206.781" />
    <path d="M 192.523 -206.826 L 193.497 -206.822" />
    <path d="M 193.558 -206.563 L 193.558 -206.639" />
    <path d="M 193.558 -206.639 L 193.538 -206.639" />
    <path d="M 193.538 -206.639 L 193.538 -206.563" />
    <path d="M 193.128 -206.616 L 193.388 -206.615" />
    <path d="M 192.631 -206.617 L 192.893 -206.616" />
    <path d="M 193.858 -196.371 L 193.858 -196.15" />
    <path d="M 193.868 -196.376 L 193.868 -196.142" />
    <path d="M 193.856 -196.09 L 193.856 -196.142" />
    <path d="M 193.868 -196.142 L 193.868 -196.09" />
    <path d="M 193.868 -196.142 L 193.818 -196.142" />
    <path d="M 193.818 -196.142 L 193.818 -196.14" />
    <path d="M 193.835 -196.38 L 193.815 -196.38" />
    <path d="M 193.834 -196.456 L 193.816 -196.456" />
    <path d="M 193.834 -196.38 L 193.816 -196.38" />
    <path d="M 193.834 -196.456 L 193.834 -196.38" />
    <path d="M 195.808 -196.371 L 195.808 -196.15" />
    <path d="M 195.818 -196.376 L 195.818 -196.142" />
    <path d="M 195.806 -196.09 L 195.806 -196.142" />
    <path d="M 195.818 -196.142 L 195.818 -196.09" />
    <path d="M 195.818 -196.142 L 195.768 -196.142" />
    <path d="M 195.768 -196.142 L 195.768 -196.14" />
    <path d="M 195.785 -196.38 L 195.765 -196.38" />
    <path d="M 195.784 -196.456 L 195.766 -196.456" />
    <path d="M 195.784 -196.38 L 195.766 -196.38" />
    <path d="M 195.784 -196.456 L 195.784 -196.38" />
    <path d="M 197.648 -196.371 L 197.648 -196.15" />
    <path d="M 197.658 -196.376 L 197.658 -196.142" />
    <path d="M 197.658 -196.142 L 197.608 -196.142" />
    <path d="M 197.608 -196.142 L 197.608 -196.14" />
    <path d="M 197.625 -196.38 L 197.605 -196.38" />
    <path d="M 197.624 -196.456 L 197.606 -196.456" />
    <path d="M 197.624 -196.38 L 197.606 -196.38" />
    <path d="M 197.624 -196.456 L 197.624 -196.38" />
    <path d="M 193.196 -196.37 L 193.196 -196.15" />
    <path d="M 193.186 -196.376 L 193.186 -196.142" />
    <path d="M 193.198 -196.09 L 193.198 -196.142" />
    <path d="M 193.186 -196.142 L 193.186 -196.09" />
    <path d="M 193.186 -196.142 L 193.236 -196.142" />
    <path d="M 193.236 -196.142 L 193.236 -196.14" />
    <path d="M 193.216 -196.38 L 193.236 -196.38" />
    <path d="M 193.219 -196.456 L 193.236 -196.456" />
    <path d="M 193.219 -196.38 L 193.236 -196.38" />
    <path d="M 193.219 -196.456 L 193.219 -196.38" />
    <path d="M 194.966 -196.37 L 194.966 -196.15" />
    <path d="M 194.956 -196.376 L 194.956 -196.142" />
    <path d="M 194.968 -196.09 L 194.968 -196.142" />
    <path d="M 194.956 -196.142 L 194.956 -196.09" />
    <path d="M 194.956 -196.142 L 195.006 -196.142" />
    <path d="M 195.006 -196.142 L 195.006 -196.14" />
    <path d="M 194.986 -196.38 L 195.006 -196.38" />
    <path d="M 194.989 -196.456 L 195.006 -196.456" />
    <path d="M 194.989 -196.38 L 195.006 -196.38" />
    <path d="M 194.989 -196.456 L 194.989 -196.38" />
    <path d="M 196.916 -196.37 L 196.916 -196.15" />
    <path d="M 196.906 -196.376 L 196.906 -196.142" />
    <path d="M 196.918 -196.09 L 196.918 -196.142" />
    <path d="M 196.906 -196.142 L 196.906 -196.09" />
    <path d="M 196.906 -196.142 L 196.956 -196.142" />
    <path d="M 196.956 -196.142 L 196.956 -196.14" />
    <path d="M 196.936 -196.38 L 196.956 -196.38" />
    <path d="M 196.939 -196.456 L 196.956 -196.456" />
    <path d="M 196.939 -196.38 L 196.956 -196.38" />
    <path d="M 196.939 -196.456 L 196.939 -196.38" />
    <path d="M 198.756 -196.37 L 198.756 -196.15" />
    <path d="M 198.746 -196.376 L 198.746 -196.142" />
    <path d="M 198.746 -196.142 L 198.796 -196.142" />
    <path d="M 198.796 -196.142 L 198.796 -196.14" />
    <path d="M 198.776 -196.38 L 198.796 -196.38" />
    <path d="M 198.779 -196.456 L 198.796 -196.456" />
    <path d="M 198.779 -196.38 L 198.796 -196.38" />
    <path d="M 198.779 -196.456 L 198.779 -196.38" />
    <path d="M 192.9 -196.09 L 193.198 -196.09" />
    <path d="M 193.856 -196.09 L 194.968 -196.09" />
    <path d="M 195.806 -196.09 L 196.918 -196.09" />
    <path d="M 192.9 -196.404 L 193.069 -196.404" />
    <path d="M 192.9 -196.408 L 193.069 -196.408" />
    <path d="M 192.9 -196.426 L 193.069 -196.426" />
    <path d="M 192.9 -196.43 L 193.069 -196.43" />
    <path d="M 192.9 -196.448 L 193.069 -196.448" />
    <path d="M 192.9 -196.452 L 193.069 -196.452" />
    <path d="M 193.985 -196.404 L 194.295 -196.404" />
    <path d="M 194.53 -196.404 L 194.839 -196.404" />
    <path d="M 193.985 -196.408 L 194.295 -196.408" />
    <path d="M 194.53 -196.408 L 194.839 -196.408" />
    <path d="M 193.985 -196.426 L 194.295 -196.426" />
    <path d="M 194.53 -196.426 L 194.839 -196.426" />
    <path d="M 193.985 -196.43 L 194.295 -196.43" />
    <path d="M 194.53 -196.43 L 194.839 -196.43" />
    <path d="M 193.985 -196.448 L 194.295 -196.448" />
    <path d="M 194.53 -196.448 L 194.839 -196.448" />
    <path d="M 193.985 -196.452 L 194.295 -196.452" />
    <path d="M 194.53 -196.452 L 194.839 -196.452" />
    <path d="M 195.935 -196.404 L 196.245 -196.404" />
    <path d="M 196.48 -196.404 L 196.789 -196.404" />
    <path d="M 195.935 -196.408 L 196.245 -196.408" />
    <path d="M 196.48 -196.408 L 196.789 -196.408" />
    <path d="M 195.935 -196.426 L 196.245 -196.426" />
    <path d="M 196.48 -196.426 L 196.789 -196.426" />
    <path d="M 195.935 -196.43 L 196.245 -196.43" />
    <path d="M 196.48 -196.43 L 196.789 -196.43" />
    <path d="M 195.935 -196.448 L 196.245 -196.448" />
    <path d="M 196.48 -196.448 L 196.789 -196.448" />
    <path d="M 195.935 -196.452 L 196.245 -196.452" />
    <path d="M 196.48 -196.452 L 196.789 -196.452" />
    <path d="M 197.775 -196.404 L 198.085 -196.404" />
    <path d="M 198.32 -196.404 L 198.629 -196.404" />
    <path d="M 197.775 -196.408 L 198.085 -196.408" />
    <path d="M 198.32 -196.408 L 198.629 -196.408" />
    <path d="M 197.775 -196.426 L 198.085 -196.426" />
    <path d="M 198.32 -196.426 L 198.629 -196.426" />
    <path d="M 197.775 -196.43 L 198.085 -196.43" />
    <path d="M 198.32 -196.43 L 198.629 -196.43" />
    <path d="M 197.775 -196.448 L 198.085 -196.448" />
    <path d="M 198.32 -196.448 L 198.629 -196.448" />
    <path d="M 197.775 -196.452 L 198.085 -196.452" />
    <path d="M 198.32 -196.452 L 198.629 -196.452" />
    <path d="M 199.541 -196.38 L 199.541 -195.7" />
    <path d="M 193.506 -194.835 L 193.506 -195.935" />
    <path d="M 193.541 -195.935 L 193.541 -194.835" />
    <path d="M 193.541 -195.935 L 193.506 -195.935" />
    <path d="M 193.53 -195.973 L 193.527 -195.97" />
    <path d="M 193.5 -195.941 L 193.5 -195.957" />
    <path d="M 193.492 -195.976 L 193.499 -195.976" />
    <path d="M 193.499 -195.959 L 193.492 -195.959" />
    <path d="M 193.492 -195.964 L 193.492 -195.97" />
    <path d="M 193.531 -195.973 L 193.531 -195.961" />
    <path d="M 193.527 -195.97 L 193.527 -195.967" />
    <path d="M 193.5 -195.98 L 193.5 -196.01" />
    <path d="M 193.531 -195.973 L 193.53 -195.973" />
    <path d="M 193.525 -195.97 L 193.515 -195.97" />
    <path d="M 193.516 -195.935 L 193.516 -195.994" />
    <path d="M 193.516 -195.994 L 193.531 -195.994" />
    <path d="M 193.531 -195.994 L 193.531 -195.935" />
    <path d="M 193.515 -195.957 L 193.515 -195.941" />
    <path d="M 193.515 -195.964 L 193.525 -195.964" />
    <path d="M 193.527 -195.964 L 193.53 -195.961" />
    <path d="M 193.53 -195.961 L 193.531 -195.961" />
    <path d="M 193.499 -195.976 L 193.499 -195.97" />
    <path d="M 193.499 -195.97 L 193.492 -195.97" />
    <path d="M 193.492 -195.97 L 193.492 -195.976" />
    <path d="M 193.492 -195.964 L 193.499 -195.964" />
    <path d="M 193.492 -195.959 L 193.492 -195.964" />
    <path d="M 193.499 -195.964 L 193.499 -195.959" />
    <path d="M 193.515 -195.982 L 193.5 -195.982" />
    <path d="M 193.5 -195.952 L 193.515 -195.952" />
    <path d="M 193.5 -195.982 L 193.5 -195.952" />
    <path d="M 193.515 -195.952 L 193.515 -195.982" />
    <path d="M 193.53 -195.961 L 193.53 -195.973" />
    <path d="M 193.531 -195.961 L 193.53 -195.961" />
    <path d="M 193.53 -195.973 L 193.531 -195.973" />
    <path d="M 193.53 -195.973 L 193.527 -195.97" />
    <path d="M 193.519 -195.97 L 193.495 -195.97" />
    <path d="M 193.494 -195.97 L 193.493 -195.969" />
    <path d="M 193.493 -195.969 L 193.493 -195.967" />
    <path d="M 193.525 -195.97 L 193.525 -195.967" />
    <path d="M 193.494 -195.97 L 193.494 -195.967" />
    <path d="M 193.494 -195.969 L 193.525 -195.969" />
    <path d="M 193.525 -195.969 L 193.527 -195.97" />
    <path d="M 193.53 -195.961 L 193.527 -195.964" />
    <path d="M 193.519 -195.964 L 193.495 -195.964" />
    <path d="M 193.494 -195.964 L 193.493 -195.965" />
    <path d="M 193.493 -195.965 L 193.493 -195.967" />
    <path d="M 193.494 -195.964 L 193.494 -195.967" />
    <path d="M 193.494 -195.965 L 193.525 -195.965" />
    <path d="M 193.525 -195.965 L 193.527 -195.964" />
    <path d="M 193.525 -195.964 L 193.525 -195.967" />
    <path d="M 193.527 -195.964 L 193.527 -195.967" />
    <path d="M 193.531 -195.973 L 193.531 -195.961" />
    <path d="M 193.499 -195.964 L 193.499 -195.97" />
    <path d="M 193.515 -195.98 L 193.515 -196.01" />
    <path d="M 193.5 -195.941 L 193.515 -195.941" />
    <path d="M 199.23 -196.15 L 199.23 -195.7" />
    <path d="M 199.22 -196.14 L 199.22 -195.7" />
    <path d="M 199.36 -196.38 L 199.36 -195.7" />
    <path d="M 197.001 -196.07 L 197.001 -195.28" />
    <path d="M 197.036 -195.315 L 197.036 -196.07" />
    <path d="M 197.043 -196.096 L 197.05 -196.096" />
    <path d="M 197.042 -196.072 L 197.042 -196.09" />
    <path d="M 197.011 -196.111 L 197.011 -196.099" />
    <path d="M 197.015 -196.108 L 197.015 -196.105" />
    <path d="M 197.05 -196.102 L 197.05 -196.108" />
    <path d="M 197.042 -196.12 L 197.042 -196.15" />
    <path d="M 197.006 -196.045 L 197.031 -196.045" />
    <path d="M 197.031 -196.06 L 197.006 -196.06" />
    <path d="M 197.011 -196.111 L 197.012 -196.111" />
    <path d="M 197.012 -196.111 L 197.015 -196.108" />
    <path d="M 197.018 -196.108 L 197.028 -196.108" />
    <path d="M 197.026 -196.108 L 197.026 -196.126" />
    <path d="M 197.026 -196.126 L 197.011 -196.126" />
    <path d="M 197.011 -196.126 L 197.011 -196.111" />
    <path d="M 197.039 -196.09 L 197.029 -196.09" />
    <path d="M 197.027 -196.09 L 197.027 -196.072" />
    <path d="M 197.026 -196.07 L 197.026 -196.102" />
    <path d="M 197.028 -196.102 L 197.018 -196.102" />
    <path d="M 197.015 -196.102 L 197.012 -196.099" />
    <path d="M 197.012 -196.099 L 197.011 -196.099" />
    <path d="M 197.011 -196.099 L 197.011 -196.07" />
    <path d="M 197.043 -196.114 L 197.043 -196.108" />
    <path d="M 197.043 -196.108 L 197.05 -196.108" />
    <path d="M 197.05 -196.108 L 197.05 -196.114" />
    <path d="M 197.05 -196.114 L 197.043 -196.114" />
    <path d="M 197.05 -196.096 L 197.05 -196.102" />
    <path d="M 197.05 -196.102 L 197.043 -196.102" />
    <path d="M 197.043 -196.102 L 197.043 -196.096" />
    <path d="M 197.027 -196.12 L 197.042 -196.12" />
    <path d="M 197.042 -196.09 L 197.027 -196.09" />
    <path d="M 197.042 -196.12 L 197.042 -196.09" />
    <path d="M 197.027 -196.09 L 197.027 -196.12" />
    <path d="M 197.026 -196.111 L 197.026 -196.099" />
    <path d="M 197.012 -196.099 L 197.012 -196.111" />
    <path d="M 197.011 -196.099 L 197.012 -196.099" />
    <path d="M 197.012 -196.111 L 197.011 -196.111" />
    <path d="M 197.012 -196.111 L 197.015 -196.108" />
    <path d="M 197.024 -196.108 L 197.048 -196.108" />
    <path d="M 197.049 -196.108 L 197.05 -196.107" />
    <path d="M 197.05 -196.107 L 197.05 -196.105" />
    <path d="M 197.018 -196.108 L 197.018 -196.105" />
    <path d="M 197.049 -196.108 L 197.049 -196.105" />
    <path d="M 197.049 -196.107 L 197.018 -196.107" />
    <path d="M 197.018 -196.107 L 197.015 -196.108" />
    <path d="M 197.012 -196.099 L 197.015 -196.102" />
    <path d="M 197.024 -196.102 L 197.048 -196.102" />
    <path d="M 197.049 -196.102 L 197.05 -196.103" />
    <path d="M 197.05 -196.103 L 197.05 -196.105" />
    <path d="M 197.049 -196.102 L 197.049 -196.105" />
    <path d="M 197.049 -196.103 L 197.018 -196.103" />
    <path d="M 197.018 -196.103 L 197.015 -196.102" />
    <path d="M 197.018 -196.102 L 197.018 -196.105" />
    <path d="M 197.015 -196.102 L 197.015 -196.105" />
    <path d="M 197.011 -196.111 L 197.011 -196.099" />
    <path d="M 197.043 -196.102 L 197.043 -196.108" />
    <path d="M 197.013 -196.07 L 197.013 -196.06" />
    <path d="M 197.025 -196.07 L 197.025 -196.06" />
    <path d="M 197.027 -196.12 L 197.027 -196.15" />
    <path d="M 197.042 -196.072 L 197.027 -196.072" />
    <path d="M 197.001 -196.07 L 197.036 -196.07" />
    <path d="M 193.236 -196.14 L 193.818 -196.14" />
    <path d="M 193.196 -196.15 L 193.858 -196.15" />
    <path d="M 195.006 -196.14 L 195.768 -196.14" />
    <path d="M 194.966 -196.15 L 195.806 -196.15" />
    <path d="M 196.956 -196.14 L 197.608 -196.14" />
    <path d="M 196.916 -196.15 L 197.648 -196.15" />
    <path d="M 198.746 -196.142 L 198.796 -196.142" />
    <path d="M 198.796 -196.142 L 198.796 -196.14" />
    <path d="M 199.23 -196.15 L 198.756 -196.15" />
    <path d="M 198.746 -196.142 L 198.796 -196.142" />
    <path d="M 199.22 -196.14 L 198.796 -196.14" />
    <path d="M 198.796 -196.142 L 198.796 -196.14" />
    <path d="M 193.547 -206.781 L 193.547 -206.779" />
    <path d="M 193.521 -206.824 L 193.521 -206.779" />
    <path d="M 193.811 -206.653 L 193.858 -206.654" />
    <path d="M 193.829 -206.834 L 193.753 -206.834" />
    <path d="M 193.753 -206.834 L 193.753 -206.853" />
    <path d="M 193.753 -206.853 L 193.829 -206.853" />
    <path d="M 193.837 -208.968 L 193.835 -208.73" />
    <path d="M 193.128 -206.568 L 193.388 -206.567" />
    <path d="M 192.631 -206.569 L 192.893 -206.568" />
    <path d="M 193.563 -206.543 L 193.775 -206.542" />
    <path d="M 193.562 -206.411 L 193.775 -206.41" />
    <path d="M 193.563 -206.543 L 193.562 -206.411" />
  </g>
</svg>
