<?xml version="1.0" encoding="UTF-8"?>
<svg xmlns="http://www.w3.org/2000/svg" viewBox="169.06 191.06 35.88 48.88" aria-hidden="true">
  <style>
    path,
    circle {
      fill: none;
      stroke: #007AFF;
      stroke-width: 1.55;
      stroke-linecap: round;
      stroke-linejoin: round;
      vector-effect: non-scaling-stroke;
    }
  </style>
  <g transform="scale(1 -1)">
    <path d="M 174.416 -211.3 L 174.416 -210.82" />
    <path d="M 179.3 -206.589 L 179.086 -206.589" />
    <path d="M 179.583 -206.589 L 179.086 -206.589" />
    <path d="M 179.587 -210.302 L 180.187 -210.302" />
    <path d="M 179.666 -211.279 L 179.666 -210.82" />
    <path d="M 179.3 -210.82 L 175.491 -210.82" />
    <path d="M 179.666 -210.82 L 178.7 -210.82" />
    <path d="M 174.571 -210.82 L 174.416 -210.82" />
    <path d="M 178.586 -196.38 L 177.826 -196.38" />
    <path d="M 176.656 -196.38 L 175.996 -196.38" />
    <path d="M 174.826 -196.38 L 174.041 -196.38" />
    <path d="M 179.681 -206.589 L 179.681 -206.439" />
    <path d="M 179.583 -206.84 L 179.453 -206.84" />
    <path d="M 179.086 -209.596 L 179.3 -209.596" />
    <path d="M 179.086 -209.596 L 179.586 -209.596" />
    <path d="M 179.086 -208.426 L 179.3 -208.426" />
    <path d="M 179.086 -208.426 L 179.585 -208.426" />
    <path d="M 179.086 -206.735 L 179.3 -206.735" />
    <path d="M 179.086 -206.735 L 179.453 -206.735" />
    <path d="M 179.086 -207.405 L 179.3 -207.405" />
    <path d="M 179.086 -207.405 L 179.584 -207.405" />
    <path d="M 179.453 -206.84 L 179.453 -206.735" />
    <path d="M 180.976 -205.99 L 180.976 -206.582" />
    <path d="M 179.576 -205.99 L 179.576 -206.439" />
    <path d="M 179.681 -206.439 L 179.576 -206.439" />
    <path d="M 178.036 -202.14 L 178.036 -196.91" />
    <path d="M 174.296 -202.14 L 174.296 -196.91" />
    <path d="M 177.826 -196.91 L 177.826 -196.38" />
    <path d="M 176.656 -196.91 L 176.656 -196.38" />
    <path d="M 174.571 -210.54 L 174.546 -210.54" />
    <path d="M 175.996 -196.91 L 175.996 -196.38" />
    <path d="M 174.826 -196.91 L 174.826 -196.38" />
    <path d="M 179.086 -210.54 L 177.886 -210.54" />
    <path d="M 179.086 -210.54 L 178.7 -210.54" />
    <path d="M 179.086 -209.63 L 177.886 -209.63" />
    <path d="M 179.086 -209.63 L 178.7 -209.63" />
    <path d="M 175.666 -210.54 L 175.491 -210.54" />
    <path d="M 175.491 -210.82 L 175.491 -210.54" />
    <path d="M 174.571 -210.82 L 174.571 -210.54" />
    <path d="M 179.086 -210.54 L 179.086 -209.596" />
    <path d="M 179.086 -210.54 L 179.086 -209.596" />
    <path d="M 179.086 -208.426 L 179.086 -207.405" />
    <path d="M 179.086 -208.426 L 179.086 -207.405" />
    <path d="M 177.886 -210.54 L 177.886 -210.28" />
    <path d="M 174.546 -210.54 L 174.546 -205.95" />
    <path d="M 177.886 -210.28 L 175.666 -210.28" />
    <path d="M 179.086 -206.735 L 179.086 -205.99" />
    <path d="M 179.086 -206.735 L 179.086 -205.99" />
    <path d="M 174.436 -205.95 L 174.436 -202.56" />
    <path d="M 175.506 -202.56 L 179.3 -202.56" />
    <path d="M 174.596 -202.56 L 174.436 -202.56" />
    <path d="M 174.546 -205.95 L 174.436 -205.95" />
    <path d="M 174.596 -202.56 L 174.596 -202.14" />
    <path d="M 175.506 -202.56 L 175.506 -202.14" />
    <path d="M 178.206 -202.14 L 175.506 -202.14" />
    <path d="M 176.656 -196.91 L 175.996 -196.91" />
    <path d="M 174.826 -196.91 L 174.296 -196.91" />
    <path d="M 174.596 -202.14 L 174.296 -202.14" />
    <path d="M 178.206 -202.17 L 178.206 -196.91" />
    <path d="M 178.206 -202.17 L 179.3 -202.17" />
    <path d="M 177.826 -196.91 L 178.586 -196.91" />
    <path d="M 178.586 -196.91 L 178.586 -196.38" />
    <path d="M 180.976 -205.99 L 181.3 -205.99" />
    <path d="M 174.166 -196.51 L 174.166 -196.38" />
    <path d="M 174.166 -196.51 L 174.041 -196.51" />
    <path d="M 176.04 -202.26 L 176.29 -202.26" />
    <path d="M 176.29 -202.26 L 176.29 -202.39" />
    <path d="M 176.29 -202.39 L 176.04 -202.39" />
    <path d="M 176.04 -202.39 L 176.04 -202.26" />
    <path d="M 176.348 -202.26 L 176.598 -202.26" />
    <path d="M 176.598 -202.26 L 176.598 -202.39" />
    <path d="M 176.598 -202.39 L 176.348 -202.39" />
    <path d="M 176.348 -202.39 L 176.348 -202.26" />
    <path d="M 177.971 -202.286 L 178.221 -202.286" />
    <path d="M 178.221 -202.286 L 178.221 -202.416" />
    <path d="M 178.221 -202.416 L 177.971 -202.416" />
    <path d="M 177.971 -202.416 L 177.971 -202.286" />
    <path d="M 178.331 -202.293 L 178.581 -202.293" />
    <path d="M 178.581 -202.293 L 178.581 -202.423" />
    <path d="M 178.581 -202.423 L 178.331 -202.423" />
    <path d="M 178.331 -202.423 L 178.331 -202.293" />
    <path d="M 179.583 -206.589 L 179.583 -206.84" />
    <path d="M 179.584 -207.405 L 179.585 -208.426" />
    <path d="M 179.586 -209.596 L 179.587 -210.302" />
    <path d="M 180.187 -210.302 L 180.196 -211.3" />
    <path d="M 179.681 -206.589 L 179.583 -206.589" />
    <path d="M 179.583 -206.84 L 179.583 -206.735" />
    <path d="M 179.873 -206.438 L 179.873 -206.588" />
    <path d="M 179.936 -206.866 L 179.936 -206.822" />
    <path d="M 180.946 -206.819 L 180.946 -206.863" />
    <path d="M 179.886 -206.822 L 179.936 -206.822" />
    <path d="M 179.886 -206.822 L 179.886 -206.824" />
    <path d="M 179.912 -206.822 L 179.912 -206.866" />
    <path d="M 179.912 -206.866 L 179.936 -206.866" />
    <path d="M 179.909 -206.761 L 179.925 -206.761" />
    <path d="M 179.909 -206.761 L 179.909 -206.751" />
    <path d="M 179.909 -206.726 L 179.925 -206.726" />
    <path d="M 179.909 -206.726 L 179.909 -206.736" />
    <path d="M 179.927 -206.751 L 179.935 -206.754" />
    <path d="M 179.927 -206.736 L 179.935 -206.732" />
    <path d="M 179.935 -206.682 L 179.936 -206.822" />
    <path d="M 179.925 -206.682 L 179.926 -206.814" />
    <path d="M 179.935 -206.687 L 179.925 -206.687" />
    <path d="M 180.972 -206.819 L 180.922 -206.819" />
    <path d="M 180.972 -206.819 L 180.972 -206.821" />
    <path d="M 180.946 -206.863 L 180.922 -206.863" />
    <path d="M 180.922 -206.863 L 180.922 -206.819" />
    <path d="M 180.948 -206.757 L 180.932 -206.758" />
    <path d="M 180.948 -206.757 L 180.948 -206.747" />
    <path d="M 180.948 -206.722 L 180.931 -206.723" />
    <path d="M 180.948 -206.722 L 180.948 -206.732" />
    <path d="M 180.93 -206.748 L 180.922 -206.751" />
    <path d="M 180.93 -206.733 L 180.921 -206.729" />
    <path d="M 180.921 -206.679 L 180.922 -206.819" />
    <path d="M 180.931 -206.679 L 180.932 -206.811" />
    <path d="M 180.921 -206.684 L 180.931 -206.684" />
    <path d="M 179.821 -206.889 L 179.821 -206.825" />
    <path d="M 179.811 -206.929 L 179.811 -206.815" />
    <path d="M 179.679 -207.326 L 179.82 -207.326" />
    <path d="M 179.679 -207.336 L 179.812 -207.336" />
    <path d="M 179.592 -207.541 L 179.812 -207.541" />
    <path d="M 179.82 -207.376 L 179.822 -207.376" />
    <path d="M 179.82 -207.326 L 179.82 -207.376" />
    <path d="M 179.682 -207.336 L 179.679 -207.336" />
    <path d="M 179.683 -207.336 L 179.683 -207.326" />
    <path d="M 179.82 -207.355 L 179.864 -207.355" />
    <path d="M 179.864 -207.355 L 179.864 -207.331" />
    <path d="M 179.864 -207.331 L 179.82 -207.331" />
    <path d="M 179.583 -206.878 L 179.453 -206.878" />
    <path d="M 179.862 -207.331 L 179.861 -206.934" />
    <path d="M 179.678 -206.939 L 179.819 -206.939" />
    <path d="M 179.678 -206.929 L 179.811 -206.929" />
    <path d="M 179.819 -206.889 L 179.821 -206.889" />
    <path d="M 179.819 -206.939 L 179.819 -206.889" />
    <path d="M 179.681 -206.929 L 179.678 -206.929" />
    <path d="M 179.682 -206.929 L 179.682 -206.939" />
    <path d="M 179.819 -206.91 L 179.863 -206.91" />
    <path d="M 179.863 -206.91 L 179.863 -206.934" />
    <path d="M 179.863 -206.934 L 179.819 -206.934" />
    <path d="M 179.886 -206.824 L 179.821 -206.825" />
    <path d="M 179.926 -206.814 L 179.811 -206.815" />
    <path d="M 180.043 -206.609 L 180.311 -206.608" />
    <path d="M 180.044 -206.657 L 180.311 -206.656" />
    <path d="M 180.546 -206.655 L 180.813 -206.654" />
    <path d="M 179.606 -207.048 L 179.606 -207.217" />
    <path d="M 179.654 -207.048 L 179.654 -207.217" />
    <path d="M 179.822 -207.376 L 179.823 -208.09" />
    <path d="M 179.812 -207.336 L 179.813 -208.09" />
    <path d="M 181.3 -206.82 L 180.972 -206.821" />
    <path d="M 180.932 -206.811 L 181.3 -206.81" />
    <path d="M 179.936 -206.864 L 180.922 -206.861" />
    <path d="M 179.874 -206.605 L 179.874 -206.681" />
    <path d="M 179.874 -206.681 L 179.893 -206.681" />
    <path d="M 179.893 -206.681 L 179.893 -206.605" />
    <path d="M 180.983 -206.602 L 180.983 -206.678" />
    <path d="M 180.983 -206.678 L 180.963 -206.678" />
    <path d="M 180.963 -206.678 L 180.963 -206.602" />
    <path d="M 179.603 -206.878 L 179.679 -206.878" />
    <path d="M 179.679 -206.878 L 179.679 -206.897" />
    <path d="M 179.679 -206.897 L 179.603 -206.897" />
    <path d="M 179.603 -207.387 L 179.678 -207.387" />
    <path d="M 179.678 -207.387 L 179.678 -207.368" />
    <path d="M 179.678 -207.368 L 179.603 -207.368" />
    <path d="M 179.681 -208.474 L 179.821 -208.474" />
    <path d="M 179.821 -208.424 L 179.823 -208.424" />
    <path d="M 179.821 -208.474 L 179.821 -208.424" />
    <path d="M 179.684 -208.464 L 179.681 -208.464" />
    <path d="M 179.684 -208.464 L 179.684 -208.474" />
    <path d="M 179.824 -209.58 L 179.825 -210.039" />
    <path d="M 180.423 -210.04 L 179.825 -210.039" />
    <path d="M 180.413 -210.05 L 179.815 -210.049" />
    <path d="M 180.413 -210.05 L 180.424 -211.3" />
    <path d="M 180.423 -210.04 L 180.434 -211.3" />
    <path d="M 179.609 -209.383 L 179.609 -209.119" />
    <path d="M 179.657 -209.383 L 179.657 -209.119" />
    <path d="M 179.864 -209.383 L 179.863 -208.621" />
    <path d="M 179.608 -208.884 L 179.608 -208.621" />
    <path d="M 179.656 -208.884 L 179.656 -208.621" />
    <path d="M 179.823 -208.09 L 179.823 -208.424" />
    <path d="M 174.868 -196.371 L 174.868 -196.15" />
    <path d="M 174.878 -196.376 L 174.878 -196.142" />
    <path d="M 174.866 -196.09 L 174.866 -196.142" />
    <path d="M 174.878 -196.142 L 174.878 -196.09" />
    <path d="M 174.878 -196.142 L 174.828 -196.142" />
    <path d="M 174.828 -196.142 L 174.828 -196.14" />
    <path d="M 174.845 -196.38 L 174.825 -196.38" />
    <path d="M 174.844 -196.456 L 174.826 -196.456" />
    <path d="M 174.844 -196.38 L 174.826 -196.38" />
    <path d="M 174.844 -196.456 L 174.844 -196.38" />
    <path d="M 174.828 -196.14 L 174.031 -196.14" />
    <path d="M 174.868 -196.15 L 174.041 -196.15" />
    <path d="M 176.698 -196.371 L 176.698 -196.15" />
    <path d="M 176.708 -196.376 L 176.708 -196.142" />
    <path d="M 176.696 -196.09 L 176.696 -196.142" />
    <path d="M 176.708 -196.142 L 176.708 -196.09" />
    <path d="M 176.708 -196.142 L 176.658 -196.142" />
    <path d="M 176.658 -196.142 L 176.658 -196.14" />
    <path d="M 176.675 -196.38 L 176.655 -196.38" />
    <path d="M 176.674 -196.456 L 176.656 -196.456" />
    <path d="M 176.674 -196.38 L 176.656 -196.38" />
    <path d="M 176.674 -196.456 L 176.674 -196.38" />
    <path d="M 178.628 -196.371 L 178.628 -196.15" />
    <path d="M 178.638 -196.376 L 178.638 -196.142" />
    <path d="M 178.626 -196.09 L 178.626 -196.142" />
    <path d="M 178.638 -196.142 L 178.638 -196.09" />
    <path d="M 178.638 -196.142 L 178.588 -196.142" />
    <path d="M 178.588 -196.142 L 178.588 -196.14" />
    <path d="M 178.605 -196.38 L 178.585 -196.38" />
    <path d="M 178.604 -196.456 L 178.586 -196.456" />
    <path d="M 178.604 -196.38 L 178.586 -196.38" />
    <path d="M 178.604 -196.456 L 178.604 -196.38" />
    <path d="M 175.956 -196.37 L 175.956 -196.15" />
    <path d="M 175.946 -196.376 L 175.946 -196.142" />
    <path d="M 175.958 -196.09 L 175.958 -196.142" />
    <path d="M 175.946 -196.142 L 175.946 -196.09" />
    <path d="M 175.946 -196.142 L 175.996 -196.142" />
    <path d="M 175.996 -196.142 L 175.996 -196.14" />
    <path d="M 175.976 -196.38 L 175.996 -196.38" />
    <path d="M 175.979 -196.456 L 175.996 -196.456" />
    <path d="M 175.979 -196.38 L 175.996 -196.38" />
    <path d="M 175.979 -196.456 L 175.979 -196.38" />
    <path d="M 177.786 -196.37 L 177.786 -196.15" />
    <path d="M 177.776 -196.376 L 177.776 -196.142" />
    <path d="M 177.788 -196.09 L 177.788 -196.142" />
    <path d="M 177.776 -196.142 L 177.776 -196.09" />
    <path d="M 177.776 -196.142 L 177.826 -196.142" />
    <path d="M 177.826 -196.142 L 177.826 -196.14" />
    <path d="M 177.806 -196.38 L 177.826 -196.38" />
    <path d="M 177.809 -196.456 L 177.826 -196.456" />
    <path d="M 177.809 -196.38 L 177.826 -196.38" />
    <path d="M 177.809 -196.456 L 177.809 -196.38" />
    <path d="M 174.866 -196.09 L 175.958 -196.09" />
    <path d="M 176.696 -196.09 L 177.788 -196.09" />
    <path d="M 178.626 -196.09 L 179.3 -196.09" />
    <path d="M 174.995 -196.404 L 175.295 -196.404" />
    <path d="M 175.53 -196.404 L 175.829 -196.404" />
    <path d="M 174.995 -196.408 L 175.295 -196.408" />
    <path d="M 175.53 -196.408 L 175.829 -196.408" />
    <path d="M 174.995 -196.426 L 175.295 -196.426" />
    <path d="M 175.53 -196.426 L 175.829 -196.426" />
    <path d="M 174.995 -196.43 L 175.295 -196.43" />
    <path d="M 175.53 -196.43 L 175.829 -196.43" />
    <path d="M 174.995 -196.448 L 175.295 -196.448" />
    <path d="M 175.53 -196.448 L 175.829 -196.448" />
    <path d="M 174.995 -196.452 L 175.295 -196.452" />
    <path d="M 175.53 -196.452 L 175.829 -196.452" />
    <path d="M 176.825 -196.404 L 177.125 -196.404" />
    <path d="M 177.36 -196.404 L 177.659 -196.404" />
    <path d="M 176.825 -196.408 L 177.125 -196.408" />
    <path d="M 177.36 -196.408 L 177.659 -196.408" />
    <path d="M 176.825 -196.426 L 177.125 -196.426" />
    <path d="M 177.36 -196.426 L 177.659 -196.426" />
    <path d="M 176.825 -196.43 L 177.125 -196.43" />
    <path d="M 177.36 -196.43 L 177.659 -196.43" />
    <path d="M 176.825 -196.448 L 177.125 -196.448" />
    <path d="M 177.36 -196.448 L 177.659 -196.448" />
    <path d="M 176.825 -196.452 L 177.125 -196.452" />
    <path d="M 177.36 -196.452 L 177.659 -196.452" />
    <path d="M 178.755 -196.404 L 179.055 -196.404" />
    <path d="M 178.755 -196.408 L 179.055 -196.408" />
    <path d="M 178.755 -196.426 L 179.055 -196.426" />
    <path d="M 178.755 -196.43 L 179.055 -196.43" />
    <path d="M 178.755 -196.448 L 179.055 -196.448" />
    <path d="M 178.755 -196.452 L 179.055 -196.452" />
    <path d="M 174.041 -196.51 L 174.041 -196.15" />
    <path d="M 174.031 -196.14 L 174.031 -196.95" />
    <path d="M 174.031 -196.95 L 174.041 -196.95" />
    <path d="M 175.996 -196.14 L 176.658 -196.14" />
    <path d="M 175.956 -196.15 L 176.698 -196.15" />
    <path d="M 177.826 -196.14 L 178.588 -196.14" />
    <path d="M 178.628 -196.15 L 177.786 -196.15" />
    <path d="M 180.976 -206.582 L 181.3 -206.58" />
    <path d="M 179.681 -206.589 L 179.893 -206.588" />
    <path d="M 179.681 -206.439 L 179.893 -206.438" />
    <path d="M 179.683 -209.53 L 179.822 -209.53" />
    <path d="M 179.822 -209.58 L 179.824 -209.58" />
    <path d="M 179.822 -209.53 L 179.822 -209.58" />
    <path d="M 179.685 -209.54 L 179.683 -209.54" />
    <path d="M 179.685 -209.54 L 179.685 -209.53" />
    <path d="M 178.316 -196.91 L 178.316 -202.17" />
    <path d="M 178.291 -196.91 L 178.291 -202.17" />
    <path d="M 178.206 -196.91 L 178.206 -202.17" />
    <path d="M 181.131 -205.99 L 181.131 -203.5" />
    <path d="M 181.106 -205.99 L 181.106 -203.5" />
    <path d="M 180.976 -205.99 L 180.976 -203.5" />
    <path d="M 181.001 -205.99 L 181.001 -203.5" />
    <path d="M 175.666 -210.28 L 175.666 -210.54" />
    <path d="M 176.551 -208.806 L 176.676 -208.806" />
    <path d="M 176.551 -209.566 L 176.676 -209.566" />
    <path d="M 176.676 -208.035 L 176.676 -208.806" />
    <path d="M 176.651 -208.01 L 176.651 -208.806" />
    <path d="M 176.676 -209.566 L 176.676 -210.28" />
    <path d="M 176.651 -209.566 L 176.651 -210.28" />
    <path d="M 176.551 -207.91 L 176.551 -208.806" />
    <path d="M 176.576 -207.91 L 176.576 -208.806" />
    <path d="M 176.551 -209.566 L 176.551 -210.28" />
    <path d="M 176.576 -209.566 L 176.576 -210.28" />
    <path d="M 177.886 -209.63 L 177.886 -210.28" />
    <path d="M 177.861 -209.655 L 177.861 -210.28" />
    <path d="M 177.736 -209.63 L 177.736 -210.28" />
    <path d="M 177.761 -209.655 L 177.761 -210.28" />
    <path d="M 177.886 -209.63 L 177.736 -209.63" />
    <path d="M 177.886 -209.655 L 177.736 -209.655" />
    <path d="M 179.086 -207.885 L 175.766 -207.885" />
    <path d="M 179.086 -207.885 L 178.7 -207.885" />
    <path d="M 176.551 -208.08 L 175.766 -208.08" />
    <path d="M 175.766 -208.68 L 175.641 -208.68" />
    <path d="M 175.766 -208.655 L 175.641 -208.655" />
    <path d="M 177.886 -208.035 L 176.676 -208.035" />
    <path d="M 179.086 -207.91 L 175.766 -207.91" />
    <path d="M 179.086 -207.91 L 178.7 -207.91" />
    <path d="M 177.911 -208.01 L 176.651 -208.01" />
    <path d="M 175.766 -207.235 L 175.641 -207.235" />
    <path d="M 175.766 -207.26 L 175.641 -207.26" />
    <path d="M 175.641 -207.235 L 175.641 -208.68" />
    <path d="M 175.666 -207.26 L 175.666 -208.655" />
    <path d="M 175.766 -207.235 L 175.766 -208.68" />
    <path d="M 175.741 -207.26 L 175.741 -208.655" />
    <path d="M 179.086 -205.99 L 179.3 -205.99" />
    <path d="M 179.086 -205.99 L 179.576 -205.99" />
    <path d="M 178.206 -202.14 L 178.206 -202.17" />
    <path d="M 179.893 -206.438 L 179.893 -206.588" />
    <path d="M 177.886 -208.26 L 177.886 -208.035" />
    <path d="M 177.911 -208.235 L 177.911 -208.01" />
    <path d="M 179.086 -208.26 L 178.436 -208.26" />
    <path d="M 179.086 -208.26 L 178.7 -208.26" />
    <path d="M 177.986 -208.26 L 177.886 -208.26" />
    <path d="M 177.961 -208.235 L 177.911 -208.235" />
    <path d="M 180.546 -206.607 L 180.813 -206.606" />
    <path d="M 178.436 -208.035 L 177.986 -208.035" />
    <path d="M 178.461 -208.01 L 177.961 -208.01" />
    <path d="M 177.986 -208.26 L 177.986 -208.035" />
    <path d="M 177.961 -208.235 L 177.961 -208.01" />
    <path d="M 178.436 -208.26 L 178.436 -208.035" />
    <path d="M 178.461 -208.235 L 178.461 -208.01" />
    <path d="M 178.461 -208.235 L 179.086 -208.235" />
    <path d="M 178.7 -208.235 L 179.086 -208.235" />
    <path d="M 179.086 -209.63 L 177.886 -209.63" />
    <path d="M 179.086 -209.63 L 178.7 -209.63" />
    <path d="M 179.453 -206.878 L 179.453 -206.84" />
    <path d="M 179.583 -206.84 L 179.583 -206.878" />
  </g>
</svg>
