<?xml version="1.0" encoding="UTF-8"?>
<svg xmlns="http://www.w3.org/2000/svg" viewBox="169.06 191.06 35.88 48.88" aria-hidden="true">
  <style>
    path,
    circle {
      fill: none;
      stroke: #007AFF;
      stroke-width: 1.55;
      stroke-linecap: round;
      stroke-linejoin: round;
      vector-effect: non-scaling-stroke;
    }
  </style>
  <g transform="scale(1 -1)">
    <path d="M 174.386 -225.39 L 174.386 -225.99" />
    <path d="M 174.416 -213.11 L 174.416 -210.82" />
    <path d="M 179.666 -211.279 L 179.666 -210.82" />
    <path d="M 178.526 -225.99 L 178.526 -225.39" />
    <path d="M 179.666 -211.23 L 179.666 -212.61" />
    <path d="M 174.516 -218.29 L 174.516 -217.06" />
    <path d="M 174.516 -216.43 L 174.516 -213.39" />
    <path d="M 180.227 -212.344 L 180.221 -211.602" />
    <path d="M 180.269 -211.602 L 180.275 -212.344" />
    <path d="M 179.461 -220.709 L 180.159 -220.709" />
    <path d="M 180.799 -220.709 L 181.528 -220.709" />
    <path d="M 179.666 -213.11 L 179.666 -212.658" />
    <path d="M 179.666 -213.11 L 179.376 -213.11" />
    <path d="M 178.686 -213.11 L 175.486 -213.11" />
    <path d="M 180.066 -212.658 L 179.666 -212.658" />
    <path d="M 174.566 -213.11 L 174.416 -213.11" />
    <path d="M 175.646 -213.39 L 175.486 -213.39" />
    <path d="M 174.566 -213.39 L 174.516 -213.39" />
    <path d="M 175.646 -213.64 L 177.876 -213.64" />
    <path d="M 174.386 -225.39 L 174.386 -218.69" />
    <path d="M 180.046 -227.01 L 178.896 -227.01" />
    <path d="M 178.806 -229.08 L 178.806 -227.4" />
    <path d="M 178.716 -229.08 L 178.716 -227.4" />
    <path d="M 180.046 -227.4 L 178.806 -227.4" />
    <path d="M 180.159 -221.25 L 179.746 -221.25" />
    <path d="M 181.528 -221.25 L 181.528 -220.709" />
    <path d="M 178.896 -227.01 L 178.896 -225.39" />
    <path d="M 178.796 -221.74 L 178.796 -220.69" />
    <path d="M 178.526 -225.79 L 177.471 -225.79" />
    <path d="M 175.571 -225.79 L 174.386 -225.79" />
    <path d="M 178.896 -225.39 L 177.471 -225.39" />
    <path d="M 175.571 -225.39 L 174.386 -225.39" />
    <path d="M 175.571 -225.79 L 175.571 -225.39" />
    <path d="M 177.471 -225.79 L 177.471 -225.39" />
    <path d="M 174.386 -225.79 L 174.386 -232.84" />
    <path d="M 178.526 -225.99 L 178.526 -229.08" />
    <path d="M 178.616 -227.4 L 178.616 -229.08" />
    <path d="M 179.186 -218.759 L 179.448 -218.759" />
    <path d="M 179.186 -220.643 L 179.186 -220.69" />
    <path d="M 179.186 -218.69 L 175.466 -218.69" />
    <path d="M 179.186 -220.69 L 178.796 -220.69" />
    <path d="M 174.566 -218.69 L 174.386 -218.69" />
    <path d="M 174.566 -218.69 L 174.566 -218.29" />
    <path d="M 175.466 -218.69 L 175.466 -218.29" />
    <path d="M 178.856 -218.29 L 175.466 -218.29" />
    <path d="M 178.856 -217.66 L 180.01 -217.66" />
    <path d="M 174.566 -218.29 L 174.516 -218.29" />
    <path d="M 174.246 -217.06 L 174.246 -216.43" />
    <path d="M 178.856 -218.29 L 178.856 -217.66" />
    <path d="M 179.416 -216.528 L 179.993 -216.528" />
    <path d="M 174.516 -216.43 L 174.246 -216.43" />
    <path d="M 174.516 -217.06 L 174.246 -217.06" />
    <path d="M 174.516 -217.06 L 174.516 -216.43" />
    <path d="M 177.876 -213.64 L 177.876 -213.39" />
    <path d="M 175.646 -213.64 L 175.646 -213.39" />
    <path d="M 179.416 -216.528 L 179.416 -215.813" />
    <path d="M 179.416 -214.643 L 179.416 -214.134" />
    <path d="M 179.416 -213.764 L 179.416 -213.39" />
    <path d="M 177.876 -213.39 L 179.416 -213.39" />
    <path d="M 179.416 -215.813 L 179.982 -215.813" />
    <path d="M 179.416 -214.643 L 179.963 -214.643" />
    <path d="M 175.486 -213.39 L 175.486 -213.11" />
    <path d="M 174.566 -213.39 L 174.566 -213.11" />
    <path d="M 179.596 -221.74 L 178.796 -221.74" />
    <path d="M 179.746 -221.61 L 179.746 -221.25" />
    <path d="M 180.159 -221.25 L 180.159 -220.709" />
    <path d="M 180.799 -221.25 L 180.799 -220.709" />
    <path d="M 180.799 -221.25 L 181.528 -221.25" />
    <path d="M 179.596 -221.74 L 179.746 -221.74" />
    <path d="M 179.596 -221.74 L 179.746 -221.61" />
    <path d="M 180.066 -212.557 L 180.206 -212.557" />
    <path d="M 180.066 -212.557 L 180.066 -212.658" />
    <path d="M 179.794 -214.134 L 179.416 -214.134" />
    <path d="M 179.791 -213.764 L 179.416 -213.764" />
    <path d="M 179.671 -214.134 L 179.671 -213.764" />
    <path d="M 179.794 -214.059 L 179.954 -214.059" />
    <path d="M 179.791 -213.839 L 179.951 -213.839" />
    <path d="M 179.794 -214.059 L 179.794 -214.134" />
    <path d="M 179.791 -213.839 L 179.791 -213.764" />
    <path d="M 179.133 -221.139 L 179.495 -221.139 L 179.495 -221.543 L 179.133 -221.543" />
    <path d="M 180.206 -212.557 L 180.215 -213.619" />
    <path d="M 179.948 -213.619 L 179.951 -213.839" />
    <path d="M 179.954 -214.059 L 179.963 -214.643" />
    <path d="M 179.982 -215.813 L 179.993 -216.528" />
    <path d="M 180.01 -217.628 L 180.019 -218.213" />
    <path d="M 180.215 -213.619 L 179.948 -213.619" />
    <path d="M 180.019 -218.213 L 179.444 -218.213" />
    <path d="M 179.46 -220.643 L 179.186 -220.643" />
    <path d="M 179.186 -218.759 L 179.186 -218.69" />
    <path d="M 179.741 -220.365 L 179.731 -218.815" />
    <path d="M 179.743 -220.389 L 179.743 -220.365" />
    <path d="M 179.642 -220.393 L 179.642 -220.376" />
    <path d="M 179.642 -220.393 L 179.632 -220.393" />
    <path d="M 179.607 -220.393 L 179.607 -220.376" />
    <path d="M 179.607 -220.393 L 179.617 -220.393" />
    <path d="M 179.632 -220.374 L 179.636 -220.366" />
    <path d="M 179.617 -220.374 L 179.613 -220.366" />
    <path d="M 179.489 -220.397 L 179.561 -220.396" />
    <path d="M 179.694 -220.477 L 179.693 -220.376" />
    <path d="M 179.563 -220.376 L 179.693 -220.376" />
    <path d="M 179.701 -220.415 L 179.703 -220.415" />
    <path d="M 179.563 -220.366 L 179.701 -220.365" />
    <path d="M 179.701 -220.365 L 179.701 -220.415" />
    <path d="M 179.701 -220.365 L 179.743 -220.365" />
    <path d="M 179.701 -220.389 L 179.743 -220.389" />
    <path d="M 179.568 -220.376 L 179.568 -220.366" />
    <path d="M 179.704 -220.467 L 179.703 -220.415" />
    <path d="M 179.487 -220.416 L 179.563 -220.416 L 179.563 -220.396 L 179.487 -220.396" />
    <path d="M 180.72 -220.609 L 180.72 -220.478" />
    <path d="M 180.71 -220.609 L 180.71 -220.47" />
    <path d="M 180.76 -220.47 L 180.76 -220.468" />
    <path d="M 180.72 -220.607 L 180.71 -220.607" />
    <path d="M 180.76 -220.47 L 180.71 -220.47" />
    <path d="M 181.572 -220.61 L 181.572 -220.478" />
    <path d="M 181.582 -220.61 L 181.582 -220.47" />
    <path d="M 181.532 -220.47 L 181.532 -220.468" />
    <path d="M 181.572 -220.607 L 181.582 -220.607" />
    <path d="M 181.532 -220.47 L 181.582 -220.47" />
    <path d="M 180.224 -220.609 L 180.224 -220.478" />
    <path d="M 180.234 -220.609 L 180.234 -220.47" />
    <path d="M 180.184 -220.47 L 180.184 -220.468" />
    <path d="M 180.224 -220.607 L 180.234 -220.607" />
    <path d="M 180.184 -220.47 L 180.234 -220.47" />
    <path d="M 181.532 -220.468 L 180.76 -220.468" />
    <path d="M 180.72 -220.478 L 181.572 -220.478" />
    <path d="M 180.184 -220.468 L 179.704 -220.467" />
    <path d="M 180.184 -220.478 L 179.694 -220.477" />
    <path d="M 180.563 -220.683 L 180.381 -220.683" />
    <path d="M 180.563 -220.635 L 180.381 -220.635" />
    <path d="M 182.491 -220.428 L 181.729 -220.428" />
    <path d="M 182.491 -220.684 L 182.228 -220.684" />
    <path d="M 182.491 -220.636 L 182.228 -220.636" />
    <path d="M 181.993 -220.684 L 181.729 -220.683" />
    <path d="M 181.729 -220.635 L 181.993 -220.636" />
    <path d="M 180.563 -220.428 L 180.381 -220.428" />
    <path d="M 180.455 -213.872 L 180.192 -213.877" />
    <path d="M 180.445 -213.862 L 180.182 -213.867" />
    <path d="M 180.219 -215.933 L 180.216 -215.756" />
    <path d="M 180.229 -215.932 L 180.226 -215.796" />
    <path d="M 180.257 -217.613 L 180.256 -217.563" />
    <path d="M 180.248 -217.573 L 180.116 -217.575" />
    <path d="M 180.256 -217.563 L 180.116 -217.565" />
    <path d="M 180.259 -217.613 L 180.257 -217.613" />
    <path d="M 180.445 -213.862 L 180.433 -212.499" />
    <path d="M 180.455 -213.872 L 180.444 -212.539" />
    <path d="M 180.193 -214.503 L 180.196 -214.679" />
    <path d="M 180.192 -213.877 L 180.206 -214.639" />
    <path d="M 180.204 -214.639 L 180.205 -214.689" />
    <path d="M 180.196 -214.679 L 180.067 -214.682" />
    <path d="M 180.205 -214.689 L 180.068 -214.692" />
    <path d="M 180.206 -214.639 L 180.204 -214.639" />
    <path d="M 180.264 -218.476 L 180.248 -217.573" />
    <path d="M 180.274 -218.486 L 180.259 -217.613" />
    <path d="M 180.227 -216.42 L 180.231 -216.597" />
    <path d="M 180.237 -216.42 L 180.24 -216.557" />
    <path d="M 180.238 -216.557 L 180.239 -216.607" />
    <path d="M 180.231 -216.597 L 180.102 -216.599" />
    <path d="M 180.239 -216.607 L 180.102 -216.609" />
    <path d="M 180.24 -216.557 L 180.238 -216.557" />
    <path d="M 179.741 -220.365 L 179.731 -218.815" />
    <path d="M 179.632 -218.789 L 179.632 -218.806" />
    <path d="M 179.632 -218.789 L 179.622 -218.789" />
    <path d="M 179.597 -218.789 L 179.597 -218.806" />
    <path d="M 179.597 -218.789 L 179.607 -218.789" />
    <path d="M 179.622 -218.808 L 179.626 -218.816" />
    <path d="M 179.607 -218.808 L 179.603 -218.816" />
    <path d="M 179.553 -218.806 L 179.683 -218.806" />
    <path d="M 179.553 -218.816 L 179.691 -218.815" />
    <path d="M 179.691 -218.815 L 179.69 -218.765" />
    <path d="M 179.69 -218.765 L 179.692 -218.765" />
    <path d="M 179.681 -218.478 L 179.683 -218.806" />
    <path d="M 179.691 -218.488 L 179.692 -218.765" />
    <path d="M 180.274 -218.486 L 179.691 -218.488" />
    <path d="M 180.264 -218.476 L 179.681 -218.478" />
    <path d="M 179.733 -218.791 L 179.733 -218.815" />
    <path d="M 179.691 -218.815 L 179.733 -218.815" />
    <path d="M 179.691 -218.791 L 179.733 -218.791" />
    <path d="M 179.558 -218.816 L 179.558 -218.806" />
    <path d="M 179.538 -220.246 L 179.534 -219.699" />
    <path d="M 180.237 -216.42 L 180.229 -215.932" />
    <path d="M 180.227 -216.42 L 180.219 -215.933" />
    <path d="M 180.088 -217.414 L 180.084 -217.18" />
    <path d="M 180.04 -217.415 L 180.036 -217.181" />
    <path d="M 180.295 -217.41 L 180.283 -216.753" />
    <path d="M 180.08 -216.945 L 180.076 -216.757" />
    <path d="M 180.032 -216.946 L 180.028 -216.758" />
    <path d="M 180.263 -215.598 L 180.249 -214.836" />
    <path d="M 180.056 -215.601 L 180.051 -215.338" />
    <path d="M 180.003 -215.338 L 180.008 -215.602" />
    <path d="M 179.994 -214.84 L 179.999 -215.104" />
    <path d="M 180.042 -214.839 L 180.047 -215.103" />
    <path d="M 179.533 -219.474 L 179.529 -218.937" />
    <path d="M 179.49 -220.246 L 179.486 -219.699" />
    <path d="M 180.193 -214.506 L 180.182 -213.867" />
    <path d="M 179.476 -218.767 L 179.552 -218.767 L 179.552 -218.786 L 179.476 -218.786" />
    <path d="M 179.376 -213.11 L 179.376 -213.39" />
    <path d="M 178.686 -213.11 L 178.686 -213.39" />
    <path d="M 179.376 -213.11 L 178.686 -213.11" />
    <path d="M 179.376 -213.39 L 178.686 -213.39" />
    <path d="M 178.921 -225.245 L 180.046 -225.245" />
    <path d="M 178.921 -225.27 L 180.021 -225.27" />
    <path d="M 178.921 -225.37 L 180.046 -225.37" />
    <path d="M 178.921 -225.345 L 180.021 -225.345" />
    <path d="M 178.806 -229.08 L 178.716 -229.08" />
    <path d="M 178.616 -229.08 L 178.526 -229.08" />
    <path d="M 178.806 -231.08 L 178.716 -231.08" />
    <path d="M 178.616 -231.08 L 178.526 -231.08" />
    <path d="M 179.459 -220.404 L 179.46 -220.643" />
    <path d="M 179.46 -220.643 L 179.461 -220.709" />
    <path d="M 179.459 -220.417 L 179.186 -220.417" />
    <path d="M 179.448 -218.759 L 179.444 -218.213" />
    <path d="M 179.186 -220.417 L 179.186 -220.643" />
    <path d="M 178.496 -225.79 L 178.496 -232.84" />
    <path d="M 178.571 -229.08 L 178.571 -231.08" />
    <path d="M 178.836 -227.4 L 178.836 -232.97" />
    <path d="M 178.761 -229.08 L 178.761 -231.08" />
    <path d="M 178.766 -220.66 L 178.766 -225.39" />
    <path d="M 178.791 -220.66 L 178.791 -225.39" />
    <path d="M 178.921 -221.74 L 178.921 -225.39" />
    <path d="M 178.896 -221.74 L 178.896 -225.39" />
    <path d="M 179.176 -220.66 L 178.766 -220.66" />
    <path d="M 178.896 -225.39 L 178.921 -225.39" />
    <path d="M 179.186 -220.404 L 179.487 -220.404" />
    <path d="M 179.186 -220.417 L 179.186 -220.404" />
    <path d="M 174.566 -218.29 L 174.566 -218.69" />
    <path d="M 179.485 -219.474 L 179.481 -218.937" />
    <path d="M 178.716 -227.4 L 178.616 -227.4" />
    <path d="M 178.496 -229.08 L 178.571 -229.08" />
    <path d="M 178.761 -229.08 L 178.836 -229.08" />
    <path d="M 179.416 -214.134 L 179.416 -213.764" />
    <path d="M 180.056 -211.279 L 179.666 -211.279" />
    <path d="M 180.056 -211.379 L 180.196 -211.379" />
    <path d="M 180.056 -211.379 L 180.056 -211.279" />
    <path d="M 177.756 -216.415 L 177.756 -217.1" />
    <path d="M 177.731 -216.39 L 177.731 -217.075" />
    <path d="M 177.656 -216.19 L 177.656 -217.1" />
    <path d="M 177.681 -216.165 L 177.681 -217.075" />
    <path d="M 176.746 -216.19 L 176.746 -217.1" />
    <path d="M 176.721 -216.165 L 176.721 -217.075" />
    <path d="M 176.646 -216.19 L 176.646 -217.1" />
    <path d="M 176.671 -216.165 L 176.671 -217.075" />
    <path d="M 176.746 -216.19 L 177.656 -216.19" />
    <path d="M 176.721 -216.165 L 177.681 -216.165" />
    <path d="M 175.851 -218.288 L 175.851 -218.09" />
    <path d="M 175.826 -218.288 L 175.826 -218.09" />
    <path d="M 175.726 -218.288 L 175.726 -218.09" />
    <path d="M 175.751 -218.288 L 175.751 -218.09" />
    <path d="M 175.726 -216.19 L 175.726 -215.91" />
    <path d="M 175.751 -217.33 L 175.751 -217.025" />
    <path d="M 175.751 -216.165 L 175.751 -215.91" />
    <path d="M 175.726 -215.025 L 175.726 -213.64" />
    <path d="M 175.946 -217.1 L 175.946 -216.19" />
    <path d="M 175.921 -217.075 L 175.921 -216.19" />
    <path d="M 175.726 -217.33 L 175.726 -217" />
    <path d="M 175.751 -215.025 L 175.751 -213.64" />
    <path d="M 175.726 -218.09 L 175.851 -218.09" />
    <path d="M 175.726 -217.33 L 175.851 -217.33" />
    <path d="M 177.756 -216.415 L 177.961 -216.415" />
    <path d="M 177.731 -216.39 L 177.936 -216.39" />
    <path d="M 175.851 -213.64 L 175.851 -215.025" />
    <path d="M 175.826 -213.64 L 175.826 -215.025" />
    <path d="M 175.851 -215.91 L 175.851 -216.04" />
    <path d="M 175.826 -215.91 L 175.826 -216.065" />
    <path d="M 175.851 -217.1 L 175.851 -217.33" />
    <path d="M 175.826 -217.075 L 175.826 -217.33" />
    <path d="M 177.961 -216.19 L 178.411 -216.19" />
    <path d="M 177.936 -216.165 L 178.436 -216.165" />
    <path d="M 175.851 -216.04 L 179.321 -216.04" />
    <path d="M 175.726 -216.19 L 176.646 -216.19" />
    <path d="M 175.751 -216.165 L 176.671 -216.165" />
    <path d="M 177.756 -217.1 L 177.656 -217.1" />
    <path d="M 177.756 -217.075 L 177.656 -217.075" />
    <path d="M 176.646 -217.1 L 176.746 -217.1" />
    <path d="M 176.646 -217.075 L 176.746 -217.075" />
    <path d="M 175.726 -215.91 L 175.851 -215.91" />
    <path d="M 175.726 -215.025 L 175.851 -215.025" />
    <path d="M 179.416 -216.04 L 175.851 -216.04" />
    <path d="M 179.416 -216.065 L 175.826 -216.065" />
    <path d="M 178.411 -216.415 L 178.411 -216.19" />
    <path d="M 178.436 -216.39 L 178.436 -216.165" />
    <path d="M 177.961 -216.415 L 177.961 -216.19" />
    <path d="M 177.936 -216.39 L 177.936 -216.165" />
    <path d="M 175.946 -217.1 L 175.896 -217.1" />
    <path d="M 175.896 -217.1 L 175.851 -217.1" />
    <path d="M 175.921 -217.075 L 175.826 -217.075" />
    <path d="M 175.921 -217.025 L 175.751 -217.025" />
    <path d="M 175.921 -217 L 175.726 -217" />
    <path d="M 178.411 -216.39 L 179.416 -216.39" />
    <path d="M 178.411 -216.415 L 179.416 -216.415" />
  </g>
</svg>
