<?xml version="1.0" encoding="UTF-8"?>
<svg xmlns="http://www.w3.org/2000/svg" viewBox="169.06 191.06 35.88 48.88" aria-hidden="true">
  <style>
    path,
    circle {
      fill: none;
      stroke: #007AFF;
      stroke-width: 1.55;
      stroke-linecap: round;
      stroke-linejoin: round;
      vector-effect: non-scaling-stroke;
    }
  </style>
  <g transform="scale(1 -1)">
    <path d="M 194.526 -218.254 L 198.005 -218.254 L 198.005 -218.7 L 194.526 -218.7" />
    <path d="M 199.146 -213.11 L 199.146 -210.82" />
    <path d="M 193.886 -211.27 L 193.886 -210.82" />
    <path d="M 194.526 -218.32 L 194.526 -218.7" />
    <path d="M 193.886 -212.65 L 193.886 -211.27" />
    <path d="M 199.001 -218.254 L 199.001 -213.39" />
    <path d="M 193.02 -211.489 L 193.023 -212.431" />
    <path d="M 193.227 -211.489 L 193.23 -212.431" />
    <path d="M 193.278 -212.431 L 193.275 -211.489" />
    <path d="M 195.026 -226.06 L 195.026 -226.97" />
    <path d="M 193.886 -213.11 L 197.985 -213.11" />
    <path d="M 198.915 -213.11 L 199.146 -213.11" />
    <path d="M 193.886 -213.11 L 193.886 -212.65" />
    <path d="M 193.596 -218.214 L 193.596 -217.574" />
    <path d="M 193.596 -216.494 L 193.596 -215.826" />
    <path d="M 193.596 -214.626 L 193.596 -214.095" />
    <path d="M 192.14 -220.709 L 192.897 -220.709" />
    <path d="M 193.562 -220.709 L 194.037 -220.709" />
    <path d="M 193.336 -213.617 L 193.336 -212.555" />
    <path d="M 199.136 -232.83 L 199.136 -225.74" />
    <path d="M 193.562 -221.25 L 194.596 -221.25" />
    <path d="M 192.14 -221.25 L 192.897 -221.25" />
    <path d="M 192.14 -221.25 L 192.14 -220.709" />
    <path d="M 190.96 -221.25 L 190.96 -220.709" />
    <path d="M 192.897 -221.25 L 192.897 -220.709" />
    <path d="M 193.562 -221.25 L 193.562 -220.709" />
    <path d="M 194.646 -226.06 L 195.026 -226.06" />
    <path d="M 194.646 -226.97 L 195.026 -226.97" />
    <path d="M 195.026 -227.4 L 195.026 -226.97" />
    <path d="M 195.026 -226.06 L 195.026 -225.74" />
    <path d="M 195.026 -225.36 L 196.051 -225.36" />
    <path d="M 197.913 -225.36 L 199.136 -225.36" />
    <path d="M 194.926 -227.4 L 195.026 -227.4" />
    <path d="M 194.896 -231.107 L 194.986 -231.106" />
    <path d="M 194.865 -229.187 L 194.955 -229.186" />
    <path d="M 194.955 -229.186 L 194.926 -227.4" />
    <path d="M 194.865 -229.187 L 194.836 -227.401" />
    <path d="M 193.886 -212.65 L 193.476 -212.65" />
    <path d="M 193.476 -212.65 L 193.476 -212.555" />
    <path d="M 193.476 -212.555 L 193.336 -212.555" />
    <path d="M 197.906 -213.39 L 197.906 -213.65" />
    <path d="M 195.696 -213.65 L 197.906 -213.65" />
    <path d="M 194.876 -213.38 L 195.696 -213.38" />
    <path d="M 195.696 -213.65 L 195.696 -213.38" />
    <path d="M 194.201 -214.17 L 194.201 -214.626" />
    <path d="M 194.201 -215.826 L 194.201 -216.494" />
    <path d="M 199.401 -216.82 L 199.401 -217.4" />
    <path d="M 194.201 -217.574 L 194.201 -217.704" />
    <path d="M 199.246 -218.7 L 199.246 -225.36" />
    <path d="M 194.201 -217.574 L 193.596 -217.574" />
    <path d="M 194.201 -216.494 L 193.596 -216.494" />
    <path d="M 194.646 -225.36 L 196.051 -225.36" />
    <path d="M 194.516 -218.74 L 194.037 -218.74" />
    <path d="M 194.596 -220.71 L 194.177 -220.71" />
    <path d="M 194.626 -220.68 L 194.177 -220.68" />
    <path d="M 194.177 -220.71 L 194.177 -220.617" />
    <path d="M 194.177 -220.617 L 194.037 -220.617" />
    <path d="M 197.985 -213.11 L 197.985 -213.39" />
    <path d="M 198.915 -213.11 L 198.915 -213.39" />
    <path d="M 198.915 -213.39 L 199.001 -213.39" />
    <path d="M 197.985 -213.39 L 197.906 -213.39" />
    <path d="M 194.526 -218.254 L 198.005 -218.254" />
    <path d="M 199.001 -216.82 L 199.401 -216.82" />
    <path d="M 199.001 -217.4 L 199.401 -217.4" />
    <path d="M 199.001 -216.82 L 199.001 -217.4" />
    <path d="M 194.526 -217.704 L 194.201 -217.704" />
    <path d="M 194.526 -217.704 L 194.526 -218.254" />
    <path d="M 194.516 -218.7 L 198.005 -218.7" />
    <path d="M 198.915 -218.7 L 199.246 -218.7" />
    <path d="M 194.201 -214.626 L 193.596 -214.626" />
    <path d="M 194.201 -215.826 L 193.596 -215.826" />
    <path d="M 194.516 -218.7 L 194.516 -218.74" />
    <path d="M 194.186 -213.11 L 194.186 -213.38" />
    <path d="M 194.876 -213.11 L 194.876 -213.38" />
    <path d="M 194.201 -213.38 L 194.241 -213.38" />
    <path d="M 193.756 -214.17 L 194.201 -214.17" />
    <path d="M 193.756 -213.8 L 194.201 -213.8" />
    <path d="M 194.186 -213.11 L 194.876 -213.11" />
    <path d="M 194.186 -213.38 L 194.876 -213.38" />
    <path d="M 194.201 -213.8 L 194.201 -213.38" />
    <path d="M 193.876 -214.17 L 193.876 -213.8" />
    <path d="M 193.756 -214.095 L 193.596 -214.095" />
    <path d="M 193.756 -213.875 L 193.596 -213.875" />
    <path d="M 193.756 -214.095 L 193.756 -214.17" />
    <path d="M 193.756 -213.875 L 193.756 -213.8" />
    <path d="M 197.913 -225.74 L 197.913 -225.36" />
    <path d="M 193.596 -213.617 L 193.336 -213.617" />
    <path d="M 194.037 -218.214 L 193.596 -218.214" />
    <path d="M 193.596 -213.875 L 193.596 -213.617" />
    <path d="M 194.037 -220.709 L 194.037 -220.617" />
    <path d="M 194.037 -218.74 L 194.037 -218.214" />
    <path d="M 194.035 -220.393 L 194.037 -220.617" />
    <path d="M 194.177 -220.393 L 194.035 -220.393" />
    <path d="M 193.948 -220.35 L 193.815 -220.351" />
    <path d="M 193.947 -220.34 L 193.807 -220.341" />
    <path d="M 193.807 -220.391 L 193.805 -220.391" />
    <path d="M 193.869 -220.367 L 193.869 -220.351" />
    <path d="M 193.869 -220.367 L 193.879 -220.367" />
    <path d="M 193.904 -220.367 L 193.904 -220.35" />
    <path d="M 193.904 -220.367 L 193.894 -220.367" />
    <path d="M 193.879 -220.349 L 193.875 -220.341" />
    <path d="M 193.894 -220.349 L 193.897 -220.34" />
    <path d="M 193.806 -220.471 L 193.805 -220.391" />
    <path d="M 193.807 -220.391 L 193.807 -220.341" />
    <path d="M 193.816 -220.481 L 193.815 -220.351" />
    <path d="M 193.943 -220.35 L 193.942 -220.34" />
    <path d="M 194.024 -220.389 L 193.948 -220.389 L 193.948 -220.37 L 194.024 -220.37" />
    <path d="M 194.016 -220.57 L 194.036 -220.57" />
    <path d="M 193.488 -220.613 L 193.488 -220.481" />
    <path d="M 193.478 -220.613 L 193.478 -220.473" />
    <path d="M 193.528 -220.473 L 193.528 -220.471" />
    <path d="M 193.488 -220.61 L 193.478 -220.61" />
    <path d="M 193.806 -220.471 L 193.528 -220.471" />
    <path d="M 193.528 -220.473 L 193.478 -220.473" />
    <path d="M 193.778 -220.481 L 193.488 -220.481" />
    <path d="M 192.942 -220.613 L 192.942 -220.481" />
    <path d="M 192.952 -220.613 L 192.952 -220.473" />
    <path d="M 192.902 -220.473 L 192.902 -220.471" />
    <path d="M 192.942 -220.61 L 192.952 -220.61" />
    <path d="M 192.902 -220.473 L 192.952 -220.473" />
    <path d="M 193.331 -220.431 L 193.099 -220.431" />
    <path d="M 192.071 -220.613 L 192.071 -220.481" />
    <path d="M 192.061 -220.613 L 192.062 -220.473" />
    <path d="M 192.112 -220.473 L 192.112 -220.471" />
    <path d="M 192.071 -220.61 L 192.061 -220.61" />
    <path d="M 192.112 -220.473 L 192.062 -220.473" />
    <path d="M 192.902 -220.471 L 192.112 -220.471" />
    <path d="M 192.902 -220.481 L 192.072 -220.481" />
    <path d="M 190.996 -220.613 L 190.996 -220.481" />
    <path d="M 191.006 -220.613 L 191.006 -220.473" />
    <path d="M 190.956 -220.473 L 190.956 -220.471" />
    <path d="M 190.956 -220.473 L 191.006 -220.473" />
    <path d="M 193.331 -220.686 L 193.099 -220.686" />
    <path d="M 193.331 -220.638 L 193.099 -220.638" />
    <path d="M 191.914 -220.686 L 191.651 -220.686" />
    <path d="M 191.914 -220.638 L 191.651 -220.638" />
    <path d="M 191.416 -220.686 L 191.153 -220.686" />
    <path d="M 191.416 -220.638 L 191.153 -220.638" />
    <path d="M 193.368 -218.471 L 193.789 -218.476" />
    <path d="M 193.378 -218.461 L 193.799 -218.466" />
    <path d="M 193.934 -218.78 L 193.802 -218.781" />
    <path d="M 193.935 -218.79 L 193.794 -218.791" />
    <path d="M 193.793 -218.741 L 193.791 -218.741" />
    <path d="M 193.855 -218.764 L 193.856 -218.78" />
    <path d="M 193.855 -218.764 L 193.865 -218.763" />
    <path d="M 193.89 -218.763 L 193.891 -218.78" />
    <path d="M 193.89 -218.763 L 193.88 -218.763" />
    <path d="M 193.866 -218.782 L 193.862 -218.79" />
    <path d="M 193.881 -218.782 L 193.884 -218.79" />
    <path d="M 193.789 -218.476 L 193.791 -218.741" />
    <path d="M 193.793 -218.741 L 193.794 -218.791" />
    <path d="M 193.799 -218.466 L 193.802 -218.781" />
    <path d="M 193.929 -218.78 L 193.93 -218.79" />
    <path d="M 194.008 -218.909 L 194.013 -219.447" />
    <path d="M 193.96 -218.909 L 193.965 -219.447" />
    <path d="M 194.015 -219.682 L 194.019 -220.219" />
    <path d="M 193.971 -220.219 L 193.967 -219.682" />
    <path d="M 194.011 -218.74 L 193.935 -218.74 L 193.935 -218.76 L 194.011 -218.76" />
    <path d="M 194.018 -218.619 L 194.037 -218.619" />
    <path d="M 194.024 -220.389 L 193.948 -220.389 L 193.948 -220.37 L 194.024 -220.37" />
    <path d="M 193.204 -212.49 L 193.073 -212.49" />
    <path d="M 193.204 -212.48 L 193.065 -212.48" />
    <path d="M 193.065 -212.53 L 193.063 -212.53" />
    <path d="M 193.066 -213.863 L 193.063 -212.53" />
    <path d="M 193.065 -212.53 L 193.065 -212.48" />
    <path d="M 193.073 -212.49 L 193.076 -213.853" />
    <path d="M 193.202 -212.49 L 193.202 -212.48" />
    <path d="M 193.066 -213.863 L 193.328 -213.865" />
    <path d="M 193.076 -213.853 L 193.338 -213.855" />
    <path d="M 193.335 -214.66 L 193.337 -214.66" />
    <path d="M 193.335 -214.66 L 193.328 -213.865" />
    <path d="M 193.338 -214.71 L 193.337 -214.66" />
    <path d="M 193.346 -214.7 L 193.338 -213.855" />
    <path d="M 193.355 -215.776 L 193.487 -215.775" />
    <path d="M 193.347 -215.766 L 193.487 -215.765" />
    <path d="M 193.345 -215.816 L 193.347 -215.816" />
    <path d="M 193.484 -215.775 L 193.484 -215.765" />
    <path d="M 193.347 -215.766 L 193.347 -215.816" />
    <path d="M 193.297 -214.857 L 193.304 -215.619" />
    <path d="M 193.362 -216.554 L 193.493 -216.553" />
    <path d="M 193.354 -216.564 L 193.493 -216.563" />
    <path d="M 193.351 -216.514 L 193.353 -216.514" />
    <path d="M 193.491 -216.553 L 193.491 -216.563" />
    <path d="M 193.354 -216.564 L 193.353 -216.514" />
    <path d="M 193.355 -215.776 L 193.362 -216.554" />
    <path d="M 193.351 -216.514 L 193.345 -215.816" />
    <path d="M 193.37 -217.53 L 193.502 -217.529" />
    <path d="M 193.362 -217.521 L 193.502 -217.519" />
    <path d="M 193.36 -217.571 L 193.362 -217.571" />
    <path d="M 193.499 -217.529 L 193.499 -217.519" />
    <path d="M 193.362 -217.521 L 193.362 -217.571" />
    <path d="M 193.313 -216.712 L 193.319 -217.374" />
    <path d="M 193.36 -217.571 L 193.368 -218.471" />
    <path d="M 193.37 -217.57 L 193.378 -218.461" />
    <path d="M 193.552 -214.855 L 193.554 -215.119" />
    <path d="M 193.504 -214.856 L 193.506 -215.119" />
    <path d="M 193.556 -215.354 L 193.559 -215.617" />
    <path d="M 193.511 -215.617 L 193.508 -215.354" />
    <path d="M 193.568 -216.71 L 193.57 -216.923" />
    <path d="M 193.52 -216.71 L 193.522 -216.924" />
    <path d="M 193.572 -217.158 L 193.574 -217.372" />
    <path d="M 193.526 -217.372 L 193.524 -217.159" />
    <path d="M 194.177 -220.393 L 194.177 -220.617" />
    <path d="M 195.026 -225.74 L 196.051 -225.74" />
    <path d="M 194.956 -227.4 L 195.044 -232.83" />
    <path d="M 194.931 -227.4 L 195.019 -232.83" />
    <path d="M 197.913 -225.74 L 199.136 -225.74" />
    <path d="M 197.951 -225.36 L 199.246 -225.36" />
    <path d="M 196.051 -225.74 L 196.051 -225.36" />
    <path d="M 194.596 -221.25 L 194.596 -220.71" />
    <path d="M 194.177 -220.38 L 194.024 -220.38" />
    <path d="M 193.948 -220.37 L 193.876 -220.37" />
    <path d="M 194.177 -220.393 L 194.177 -220.38" />
    <path d="M 194.88 -229.187 L 194.955 -229.186" />
    <path d="M 194.865 -229.187 L 194.955 -229.186" />
    <path d="M 194.201 -214.17 L 194.201 -213.8" />
    <path d="M 193.946 -214.17 L 193.946 -213.8" />
    <path d="M 194.096 -221.25 L 194.096 -221.834" />
    <path d="M 194.171 -221.25 L 194.171 -221.759" />
    <path d="M 194.171 -221.759 L 194.471 -221.759" />
    <path d="M 191.153 -220.431 L 191.914 -220.431" />
    <path d="M 195.746 -216.494 L 195.746 -217.179" />
    <path d="M 195.771 -216.469 L 195.771 -217.154" />
    <path d="M 195.846 -216.269 L 195.846 -217.179" />
    <path d="M 195.821 -216.244 L 195.821 -217.154" />
    <path d="M 196.756 -216.269 L 196.756 -217.179" />
    <path d="M 196.781 -216.244 L 196.781 -217.154" />
    <path d="M 196.856 -216.269 L 196.856 -217.179" />
    <path d="M 196.831 -216.244 L 196.831 -217.154" />
    <path d="M 196.756 -216.269 L 195.846 -216.269" />
    <path d="M 196.781 -216.244 L 195.821 -216.244" />
    <path d="M 197.651 -218.254 L 197.651 -218.1" />
    <path d="M 197.676 -218.254 L 197.676 -218.1" />
    <path d="M 197.776 -218.254 L 197.776 -218.1" />
    <path d="M 197.751 -218.254 L 197.751 -218.1" />
    <path d="M 197.776 -216.269 L 197.776 -215.989" />
    <path d="M 197.751 -217.34 L 197.751 -217.104" />
    <path d="M 197.751 -216.244 L 197.751 -215.989" />
    <path d="M 197.776 -215.104 L 197.776 -213.65" />
    <path d="M 197.556 -217.179 L 197.556 -216.269" />
    <path d="M 197.581 -217.154 L 197.581 -216.269" />
    <path d="M 197.776 -217.34 L 197.776 -217.079" />
    <path d="M 197.751 -215.104 L 197.751 -213.65" />
    <path d="M 197.776 -218.1 L 197.651 -218.1" />
    <path d="M 197.776 -217.34 L 197.651 -217.34" />
    <path d="M 195.786 -216.494 L 195.771 -216.494" />
    <path d="M 195.746 -216.494 L 195.541 -216.494" />
    <path d="M 195.091 -216.494 L 194.201 -216.494" />
    <path d="M 195.771 -216.469 L 195.566 -216.469" />
    <path d="M 195.066 -216.469 L 194.201 -216.469" />
    <path d="M 197.651 -213.65 L 197.651 -215.104" />
    <path d="M 197.676 -213.65 L 197.676 -215.104" />
    <path d="M 197.651 -215.989 L 197.651 -216.119" />
    <path d="M 197.676 -215.989 L 197.676 -216.144" />
    <path d="M 197.651 -217.179 L 197.651 -217.34" />
    <path d="M 197.676 -217.154 L 197.676 -217.34" />
    <path d="M 195.541 -216.269 L 195.091 -216.269" />
    <path d="M 195.566 -216.244 L 195.066 -216.244" />
    <path d="M 197.606 -216.119 L 194.201 -216.119" />
    <path d="M 198.915 -218.254 L 198.915 -218.7" />
    <path d="M 198.915 -218.254 L 199.001 -218.254" />
    <path d="M 197.776 -216.269 L 196.856 -216.269" />
    <path d="M 197.751 -216.244 L 196.831 -216.244" />
    <path d="M 195.746 -217.179 L 195.846 -217.179" />
    <path d="M 195.746 -217.154 L 195.846 -217.154" />
    <path d="M 196.856 -217.179 L 196.756 -217.179" />
    <path d="M 196.856 -217.154 L 196.756 -217.154" />
    <path d="M 198.005 -218.32 L 198.005 -218.7" />
    <path d="M 197.776 -215.989 L 197.651 -215.989" />
    <path d="M 197.776 -215.104 L 197.651 -215.104" />
    <path d="M 194.201 -216.119 L 197.651 -216.119" />
    <path d="M 194.201 -216.144 L 197.676 -216.144" />
    <path d="M 195.091 -216.494 L 195.091 -216.269" />
    <path d="M 195.066 -216.469 L 195.066 -216.244" />
    <path d="M 195.541 -216.494 L 195.541 -216.269" />
    <path d="M 195.566 -216.469 L 195.566 -216.244" />
    <path d="M 197.556 -217.179 L 197.606 -217.179" />
    <path d="M 197.606 -217.179 L 197.651 -217.179" />
    <path d="M 197.581 -217.154 L 197.676 -217.154" />
    <path d="M 197.581 -217.104 L 197.751 -217.104" />
    <path d="M 197.581 -217.079 L 197.776 -217.079" />
    <path d="M 193.886 -211.27 L 193.476 -211.27" />
    <path d="M 193.476 -211.27 L 193.476 -211.365" />
    <path d="M 193.476 -211.365 L 193.336 -211.365" />
    <path d="M 193.202 -211.434 L 193.07 -211.434" />
    <path d="M 193.202 -211.444 L 193.062 -211.444" />
    <path d="M 193.062 -211.394 L 193.06 -211.394" />
    <path d="M 193.062 -211.394 L 193.062 -211.444" />
  </g>
</svg>
