<?xml version="1.0" encoding="UTF-8"?>
<svg xmlns="http://www.w3.org/2000/svg" viewBox="169.06 191.06 35.88 48.88" aria-hidden="true">
  <style>
    path,
    circle {
      fill: none;
      stroke: #007AFF;
      stroke-width: 1.55;
      stroke-linecap: round;
      stroke-linejoin: round;
      vector-effect: non-scaling-stroke;
    }
  </style>
  <g transform="scale(1 -1)">
    <path d="M 194.526 -218.254 L 195.6 -218.254" />
    <path d="M 195.6 -218.7 L 194.526 -218.7" />
    <path d="M 194.526 -218.32 L 194.526 -218.7" />
    <path d="M 194.646 -226.06 L 194.646 -226.97" />
    <path d="M 195.026 -226.06 L 195.026 -226.97" />
    <path d="M 187.654 -221.37 L 187.654 -220.839" />
    <path d="M 194.864 -233.53 L 195.338 -233.53" />
    <path d="M 193.596 -218.214 L 193.596 -217.574" />
    <path d="M 187.654 -220.709 L 189.049 -220.709" />
    <path d="M 190.229 -220.709 L 190.96 -220.709" />
    <path d="M 192.14 -220.709 L 192.897 -220.709" />
    <path d="M 193.562 -220.709 L 194.037 -220.709" />
    <path d="M 187.591 -221.37 L 188.066 -221.37" />
    <path d="M 188.066 -226.91 L 188.066 -226.65" />
    <path d="M 188.066 -225.49 L 188.066 -221.37" />
    <path d="M 188.066 -226.65 L 188.496 -226.65" />
    <path d="M 188.066 -225.49 L 188.496 -225.49" />
    <path d="M 188.066 -225.64 L 188.496 -225.64" />
    <path d="M 188.496 -227.01 L 188.496 -226.65" />
    <path d="M 186.906 -232.97 L 186.906 -228.59" />
    <path d="M 188.206 -228.59 L 188.206 -227.4" />
    <path d="M 188.496 -225.49 L 188.496 -224.6" />
    <path d="M 188.496 -223.79 L 188.496 -221.25" />
    <path d="M 188.646 -224.6 L 188.646 -223.79" />
    <path d="M 190.229 -221.25 L 190.229 -220.709" />
    <path d="M 189.049 -221.25 L 189.049 -220.709" />
    <path d="M 193.562 -221.25 L 194.596 -221.25" />
    <path d="M 188.496 -221.25 L 189.049 -221.25" />
    <path d="M 190.229 -221.25 L 190.96 -221.25" />
    <path d="M 192.14 -221.25 L 192.897 -221.25" />
    <path d="M 190.666 -232.97 L 190.835 -232.97" />
    <path d="M 188.496 -224.6 L 188.646 -224.6" />
    <path d="M 188.496 -223.79 L 188.646 -223.79" />
    <path d="M 192.14 -221.25 L 192.14 -220.709" />
    <path d="M 190.96 -221.25 L 190.96 -220.709" />
    <path d="M 192.897 -221.25 L 192.897 -220.709" />
    <path d="M 193.562 -221.25 L 193.562 -220.709" />
    <path d="M 194.646 -227.01 L 194.646 -226.97" />
    <path d="M 194.646 -226.06 L 194.646 -225.36" />
    <path d="M 194.646 -226.06 L 195.026 -226.06" />
    <path d="M 194.646 -226.97 L 195.026 -226.97" />
    <path d="M 195.026 -227.4 L 195.026 -226.97" />
    <path d="M 195.026 -226.06 L 195.026 -225.74" />
    <path d="M 195.026 -225.36 L 195.6 -225.36" />
    <path d="M 194.926 -227.4 L 195.026 -227.4" />
    <path d="M 195.014 -232.83 L 195.338 -232.83" />
    <path d="M 193.546 -227.01 L 194.646 -227.01" />
    <path d="M 192.296 -227.01 L 192.296 -227.4" />
    <path d="M 190.835 -233.54 L 190.835 -232.97" />
    <path d="M 190.556 -227.4 L 192.296 -227.4" />
    <path d="M 193.546 -227.4 L 194.646 -227.4" />
    <path d="M 194.585 -232.97 L 194.736 -232.97" />
    <path d="M 190.666 -232.97 L 190.621 -230.679" />
    <path d="M 190.603 -229.759 L 190.556 -227.4" />
    <path d="M 190.603 -229.759 L 190.513 -229.761" />
    <path d="M 190.621 -230.679 L 190.531 -230.681" />
    <path d="M 190.576 -232.97 L 190.531 -230.681" />
    <path d="M 190.513 -229.761 L 190.466 -227.4" />
    <path d="M 190.576 -232.97 L 189.858 -232.97" />
    <path d="M 188.206 -228.59 L 186.906 -228.59" />
    <path d="M 188.496 -227.01 L 188.866 -227.01" />
    <path d="M 189.786 -227.01 L 192.296 -227.01" />
    <path d="M 188.866 -227.01 L 188.866 -227.4" />
    <path d="M 189.786 -227.01 L 189.786 -227.4" />
    <path d="M 188.206 -227.4 L 188.866 -227.4" />
    <path d="M 189.786 -227.4 L 190.466 -227.4" />
    <path d="M 186.4 -233.53 L 187.478 -233.53" />
    <path d="M 189.858 -233.53 L 190.588 -233.53" />
    <path d="M 187.478 -232.97 L 187.478 -233.53" />
    <path d="M 189.858 -232.97 L 189.858 -233.53" />
    <path d="M 187.478 -232.97 L 189.858 -232.97" />
    <path d="M 194.736 -232.97 L 194.706 -231.11" />
    <path d="M 194.824 -232.833 L 194.796 -231.109" />
    <path d="M 194.675 -229.19 L 194.646 -227.4" />
    <path d="M 194.765 -229.189 L 194.736 -227.398" />
    <path d="M 194.706 -231.11 L 194.796 -231.109" />
    <path d="M 194.896 -231.107 L 194.986 -231.106" />
    <path d="M 194.675 -229.19 L 194.765 -229.189" />
    <path d="M 194.865 -229.187 L 194.955 -229.186" />
    <path d="M 195.014 -232.83 L 194.986 -231.106" />
    <path d="M 194.924 -232.831 L 194.896 -231.107" />
    <path d="M 194.955 -229.186 L 194.926 -227.4" />
    <path d="M 194.865 -229.187 L 194.836 -227.401" />
    <path d="M 190.588 -234.866 L 190.588 -234.466" />
    <path d="M 190.588 -234.866 L 191.206 -234.866" />
    <path d="M 192.386 -234.866 L 193.053 -234.866" />
    <path d="M 194.233 -234.866 L 194.865 -234.866" />
    <path d="M 190.865 -234.586 L 191.206 -234.586" />
    <path d="M 192.386 -234.586 L 193.053 -234.586" />
    <path d="M 194.233 -234.586 L 194.585 -234.586" />
    <path d="M 194.585 -234.2 L 194.585 -234.586" />
    <path d="M 191.206 -234.866 L 191.206 -234.586" />
    <path d="M 192.386 -234.586 L 192.386 -234.866" />
    <path d="M 193.053 -234.866 L 193.053 -234.586" />
    <path d="M 194.233 -234.586 L 194.233 -234.866" />
    <path d="M 194.585 -234.2 L 194.865 -234.2" />
    <path d="M 194.715 -233.55 L 194.715 -233.65" />
    <path d="M 194.715 -233.65 L 194.865 -233.65" />
    <path d="M 194.585 -233.55 L 194.715 -233.55" />
    <path d="M 194.865 -233.65 L 194.865 -233.53" />
    <path d="M 194.865 -234.2 L 194.865 -234.866" />
    <path d="M 186.4 -234.826 L 190.588 -234.826" />
    <path d="M 194.585 -233.55 L 194.585 -232.97" />
    <path d="M 190.588 -234.35 L 190.588 -233.63" />
    <path d="M 190.728 -233.54 L 190.728 -233.63" />
    <path d="M 190.728 -233.63 L 190.588 -233.63" />
    <path d="M 190.835 -233.54 L 190.728 -233.54" />
    <path d="M 190.865 -234.466 L 190.588 -234.466" />
    <path d="M 190.588 -233.63 L 190.588 -233.53" />
    <path d="M 190.865 -234.466 L 190.865 -234.586" />
    <path d="M 195.338 -232.83 L 195.338 -233.53" />
    <path d="M 187.478 -232.97 L 186.906 -232.97" />
    <path d="M 186.596 -232.97 L 186.4 -232.97" />
    <path d="M 186.596 -228.59 L 186.596 -232.97" />
    <path d="M 186.596 -228.59 L 186.4 -228.59" />
    <path d="M 187.656 -226.91 L 188.066 -226.91" />
    <path d="M 187.561 -220.839 L 187.561 -220.709" />
    <path d="M 187.564 -220.839 L 187.654 -220.839" />
    <path d="M 187.656 -228.12 L 186.4 -228.12" />
    <path d="M 187.656 -226.91 L 187.656 -228.12" />
    <path d="M 194.201 -217.574 L 194.201 -217.704" />
    <path d="M 194.201 -217.574 L 193.596 -217.574" />
    <path d="M 194.646 -225.36 L 195.6 -225.36" />
    <path d="M 194.516 -218.74 L 194.037 -218.74" />
    <path d="M 194.596 -220.71 L 194.177 -220.71" />
    <path d="M 194.626 -220.68 L 194.177 -220.68" />
    <path d="M 194.177 -220.71 L 194.177 -220.617" />
    <path d="M 194.177 -220.617 L 194.037 -220.617" />
    <path d="M 194.526 -218.254 L 195.6 -218.254" />
    <path d="M 194.526 -217.704 L 194.201 -217.704" />
    <path d="M 194.526 -217.704 L 194.526 -218.254" />
    <path d="M 194.516 -218.7 L 195.6 -218.7" />
    <path d="M 194.516 -218.7 L 194.516 -218.74" />
    <path d="M 190.584 -227.156 L 190.834 -227.156" />
    <path d="M 190.834 -227.156 L 190.834 -227.286" />
    <path d="M 190.834 -227.286 L 190.584 -227.286" />
    <path d="M 190.584 -227.286 L 190.584 -227.156" />
    <path d="M 191.251 -227.156 L 191.501 -227.156" />
    <path d="M 191.501 -227.156 L 191.501 -227.286" />
    <path d="M 191.501 -227.286 L 191.251 -227.286" />
    <path d="M 191.251 -227.286 L 191.251 -227.156" />
    <path d="M 187.654 -220.709 L 187.561 -220.709" />
    <path d="M 194.037 -218.214 L 193.596 -218.214" />
    <path d="M 194.037 -220.709 L 194.037 -220.617" />
    <path d="M 194.037 -218.74 L 194.037 -218.214" />
    <path d="M 194.035 -220.393 L 194.037 -220.617" />
    <path d="M 194.177 -220.393 L 194.035 -220.393" />
    <path d="M 193.948 -220.35 L 193.815 -220.351" />
    <path d="M 193.947 -220.34 L 193.807 -220.341" />
    <path d="M 193.807 -220.391 L 193.805 -220.391" />
    <path d="M 193.869 -220.367 L 193.869 -220.351" />
    <path d="M 193.869 -220.367 L 193.879 -220.367" />
    <path d="M 193.904 -220.367 L 193.904 -220.35" />
    <path d="M 193.904 -220.367 L 193.894 -220.367" />
    <path d="M 193.879 -220.349 L 193.875 -220.341" />
    <path d="M 193.894 -220.349 L 193.897 -220.34" />
    <path d="M 193.806 -220.471 L 193.805 -220.391" />
    <path d="M 193.807 -220.391 L 193.807 -220.341" />
    <path d="M 193.816 -220.481 L 193.815 -220.351" />
    <path d="M 193.943 -220.35 L 193.942 -220.34" />
    <path d="M 194.024 -220.389 L 193.948 -220.389" />
    <path d="M 193.948 -220.389 L 193.948 -220.37" />
    <path d="M 193.948 -220.37 L 194.024 -220.37" />
    <path d="M 194.016 -220.57 L 194.036 -220.57" />
    <path d="M 193.488 -220.613 L 193.488 -220.481" />
    <path d="M 193.478 -220.613 L 193.478 -220.473" />
    <path d="M 193.528 -220.473 L 193.528 -220.471" />
    <path d="M 193.488 -220.61 L 193.478 -220.61" />
    <path d="M 193.806 -220.471 L 193.528 -220.471" />
    <path d="M 193.528 -220.473 L 193.478 -220.473" />
    <path d="M 193.778 -220.481 L 193.488 -220.481" />
    <path d="M 192.942 -220.613 L 192.942 -220.481" />
    <path d="M 192.952 -220.613 L 192.952 -220.473" />
    <path d="M 192.902 -220.473 L 192.902 -220.471" />
    <path d="M 192.942 -220.61 L 192.952 -220.61" />
    <path d="M 192.902 -220.473 L 192.952 -220.473" />
    <path d="M 193.331 -220.431 L 193.099 -220.431" />
    <path d="M 192.071 -220.613 L 192.071 -220.481" />
    <path d="M 192.061 -220.613 L 192.062 -220.473" />
    <path d="M 192.112 -220.473 L 192.112 -220.471" />
    <path d="M 192.071 -220.61 L 192.061 -220.61" />
    <path d="M 192.112 -220.473 L 192.062 -220.473" />
    <path d="M 192.902 -220.471 L 192.112 -220.471" />
    <path d="M 192.902 -220.481 L 192.072 -220.481" />
    <path d="M 190.996 -220.613 L 190.996 -220.481" />
    <path d="M 191.006 -220.613 L 191.006 -220.473" />
    <path d="M 190.956 -220.473 L 190.956 -220.471" />
    <path d="M 190.956 -220.473 L 191.006 -220.473" />
    <path d="M 190.146 -220.612 L 190.146 -220.481" />
    <path d="M 190.136 -220.612 L 190.136 -220.473" />
    <path d="M 190.186 -220.473 L 190.186 -220.471" />
    <path d="M 190.146 -220.61 L 190.136 -220.61" />
    <path d="M 190.186 -220.473 L 190.136 -220.473" />
    <path d="M 189.07 -220.612 L 189.07 -220.48" />
    <path d="M 189.08 -220.612 L 189.08 -220.472" />
    <path d="M 189.03 -220.472 L 189.03 -220.47" />
    <path d="M 189.07 -220.609 L 189.08 -220.609" />
    <path d="M 189.03 -220.472 L 189.08 -220.472" />
    <path d="M 190.956 -220.471 L 190.186 -220.471" />
    <path d="M 190.146 -220.481 L 190.996 -220.481" />
    <path d="M 189.989 -220.431 L 189.227 -220.43" />
    <path d="M 187.52 -220.47 L 189.03 -220.47" />
    <path d="M 189.07 -220.48 L 187.48 -220.48" />
    <path d="M 193.331 -220.686 L 193.099 -220.686" />
    <path d="M 193.331 -220.638 L 193.099 -220.638" />
    <path d="M 191.914 -220.686 L 191.651 -220.686" />
    <path d="M 191.914 -220.638 L 191.651 -220.638" />
    <path d="M 191.416 -220.686 L 191.153 -220.686" />
    <path d="M 191.416 -220.638 L 191.153 -220.638" />
    <path d="M 189.989 -220.686 L 189.725 -220.686" />
    <path d="M 189.989 -220.638 L 189.725 -220.638" />
    <path d="M 189.49 -220.686 L 189.227 -220.686" />
    <path d="M 189.49 -220.638 L 189.227 -220.638" />
    <path d="M 187.322 -220.685 L 186.4 -220.685" />
    <path d="M 186.4 -220.637 L 187.322 -220.637" />
    <path d="M 187.323 -220.43 L 186.4 -220.429" />
    <path d="M 193.368 -218.471 L 193.789 -218.476" />
    <path d="M 193.378 -218.461 L 193.799 -218.466" />
    <path d="M 193.934 -218.78 L 193.802 -218.781" />
    <path d="M 193.935 -218.79 L 193.794 -218.791" />
    <path d="M 193.793 -218.741 L 193.791 -218.741" />
    <path d="M 193.855 -218.764 L 193.856 -218.78" />
    <path d="M 193.855 -218.764 L 193.865 -218.763" />
    <path d="M 193.89 -218.763 L 193.891 -218.78" />
    <path d="M 193.89 -218.763 L 193.88 -218.763" />
    <path d="M 193.866 -218.782 L 193.862 -218.79" />
    <path d="M 193.881 -218.782 L 193.884 -218.79" />
    <path d="M 193.789 -218.476 L 193.791 -218.741" />
    <path d="M 193.793 -218.741 L 193.794 -218.791" />
    <path d="M 193.799 -218.466 L 193.802 -218.781" />
    <path d="M 193.929 -218.78 L 193.93 -218.79" />
    <path d="M 194.008 -218.909 L 194.013 -219.447" />
    <path d="M 193.96 -218.909 L 193.965 -219.447" />
    <path d="M 194.015 -219.682 L 194.019 -220.219" />
    <path d="M 193.971 -220.219 L 193.967 -219.682" />
    <path d="M 194.011 -218.74 L 193.935 -218.74" />
    <path d="M 193.935 -218.74 L 193.935 -218.76" />
    <path d="M 193.935 -218.76 L 194.011 -218.76" />
    <path d="M 194.018 -218.619 L 194.037 -218.619" />
    <path d="M 194.024 -220.389 L 193.948 -220.389" />
    <path d="M 193.948 -220.389 L 193.948 -220.37" />
    <path d="M 193.948 -220.37 L 194.024 -220.37" />
    <path d="M 193.37 -217.53 L 193.502 -217.529" />
    <path d="M 193.362 -217.521 L 193.502 -217.519" />
    <path d="M 193.36 -217.571 L 193.362 -217.571" />
    <path d="M 193.499 -217.529 L 193.499 -217.519" />
    <path d="M 193.362 -217.521 L 193.362 -217.571" />
    <path d="M 193.36 -217.571 L 193.368 -218.471" />
    <path d="M 193.37 -217.57 L 193.378 -218.461" />
    <path d="M 188.784 -224.385 L 188.784 -224.26" />
    <path d="M 188.496 -224.6 L 188.646 -224.6" />
    <path d="M 189.544 -224.26 L 189.544 -224.385" />
    <path d="M 190.769 -221.25 L 190.769 -225.245" />
    <path d="M 190.744 -221.25 L 190.744 -225.245" />
    <path d="M 192.296 -225.245 L 192.296 -225.37" />
    <path d="M 192.271 -225.245 L 192.271 -225.37" />
    <path d="M 190.619 -224.26 L 189.544 -224.26" />
    <path d="M 190.619 -224.285 L 189.544 -224.285" />
    <path d="M 190.644 -224.385 L 189.544 -224.385" />
    <path d="M 190.619 -224.36 L 189.544 -224.36" />
    <path d="M 188.784 -224.26 L 188.646 -224.26" />
    <path d="M 188.784 -224.285 L 188.646 -224.285" />
    <path d="M 190.769 -225.245 L 189.784 -225.245" />
    <path d="M 192.271 -225.27 L 189.809 -225.27" />
    <path d="M 188.784 -224.385 L 188.646 -224.385" />
    <path d="M 188.784 -224.36 L 188.646 -224.36" />
    <path d="M 188.784 -225.245 L 188.784 -225.37" />
    <path d="M 188.759 -225.245 L 188.759 -225.37" />
    <path d="M 188.784 -225.37 L 188.496 -225.37" />
    <path d="M 188.759 -225.345 L 188.496 -225.345" />
    <path d="M 188.784 -225.245 L 188.496 -225.245" />
    <path d="M 188.759 -225.27 L 188.496 -225.27" />
    <path d="M 192.296 -225.245 L 190.769 -225.245" />
    <path d="M 189.784 -225.245 L 189.784 -225.37" />
    <path d="M 189.809 -225.245 L 189.809 -225.37" />
    <path d="M 189.784 -225.37 L 192.296 -225.37" />
    <path d="M 189.809 -225.345 L 192.271 -225.345" />
    <path d="M 193.546 -225.245 L 193.546 -225.37" />
    <path d="M 193.571 -225.245 L 193.571 -225.37" />
    <path d="M 193.546 -225.37 L 194.471 -225.37" />
    <path d="M 193.571 -225.345 L 194.471 -225.345" />
    <path d="M 193.546 -225.245 L 194.471 -225.245" />
    <path d="M 193.571 -225.27 L 194.471 -225.27" />
    <path d="M 188.496 -225.49 L 188.496 -225.64" />
    <path d="M 188.066 -225.49 L 188.066 -225.64" />
    <path d="M 194.177 -220.393 L 194.177 -220.617" />
    <path d="M 194.616 -227.4 L 194.706 -232.97" />
    <path d="M 194.641 -227.399 L 194.731 -232.969" />
    <path d="M 195.026 -225.74 L 195.6 -225.74" />
    <path d="M 194.956 -227.4 L 195.044 -232.83" />
    <path d="M 194.931 -227.4 L 195.019 -232.83" />
    <path d="M 192.336 -235.094 L 192.336 -234.962" />
    <path d="M 192.326 -234.962 L 192.326 -235.104" />
    <path d="M 192.326 -234.967 L 192.336 -234.967" />
    <path d="M 192.326 -235.104 L 193.12 -235.104" />
    <path d="M 191.27 -235.104 L 191.27 -234.962" />
    <path d="M 191.27 -234.967 L 191.26 -234.967" />
    <path d="M 191.26 -235.094 L 191.26 -234.962" />
    <path d="M 195.392 -233.758 L 195.352 -233.758" />
    <path d="M 190.35 -235.104 L 191.27 -235.104" />
    <path d="M 191.417 -234.937 L 191.681 -234.937" />
    <path d="M 191.915 -234.889 L 192.179 -234.889" />
    <path d="M 191.915 -234.937 L 192.179 -234.937" />
    <path d="M 191.417 -235.184 L 192.179 -235.184" />
    <path d="M 194.186 -235.094 L 194.186 -234.962" />
    <path d="M 194.176 -234.967 L 194.186 -234.967" />
    <path d="M 194.176 -234.962 L 194.176 -235.104" />
    <path d="M 194.176 -235.104 L 195.103 -235.104" />
    <path d="M 194.176 -235.094 L 195.093 -235.094" />
    <path d="M 193.12 -235.104 L 193.12 -234.962" />
    <path d="M 193.11 -235.094 L 193.11 -234.962" />
    <path d="M 193.12 -234.967 L 193.11 -234.967" />
    <path d="M 193.267 -234.889 L 193.531 -234.889" />
    <path d="M 193.267 -234.937 L 193.531 -234.937" />
    <path d="M 193.765 -234.889 L 194.029 -234.889" />
    <path d="M 193.765 -234.937 L 194.029 -234.937" />
    <path d="M 193.267 -235.184 L 194.029 -235.184" />
    <path d="M 195.402 -233.768 L 195.402 -233.626" />
    <path d="M 195.392 -233.758 L 195.392 -233.626" />
    <path d="M 195.402 -233.631 L 195.392 -233.631" />
    <path d="M 190.36 -235.094 L 191.26 -235.094" />
    <path d="M 195.103 -235.104 L 195.103 -234.154" />
    <path d="M 195.183 -235.184 L 195.183 -233.848" />
    <path d="M 195.103 -233.823 L 195.103 -233.768" />
    <path d="M 195.093 -235.094 L 195.093 -234.164" />
    <path d="M 195.093 -233.813 L 195.093 -233.758" />
    <path d="M 190.35 -235.104 L 190.35 -234.416" />
    <path d="M 190.35 -233.72 L 190.35 -233.65" />
    <path d="M 190.36 -235.094 L 190.36 -234.426" />
    <path d="M 190.36 -233.71 L 190.36 -233.64" />
    <path d="M 195.192 -233.768 L 195.103 -233.768" />
    <path d="M 192.536 -235.184 L 192.91 -235.184" />
    <path d="M 186.4 -235.184 L 191.06 -235.184" />
    <path d="M 189.8 -233.536 L 189.81 -233.536" />
    <path d="M 189.842 -233.454 L 189.861 -233.454" />
    <path d="M 189.842 -233.53 L 189.861 -233.53" />
    <path d="M 189.842 -233.53 L 189.842 -233.454" />
    <path d="M 189.8 -233.53 L 189.8 -233.65" />
    <path d="M 189.81 -233.53 L 189.81 -233.64" />
    <path d="M 187.549 -233.64 L 187.549 -233.53" />
    <path d="M 187.559 -233.53 L 187.559 -233.65" />
    <path d="M 188.076 -233.457 L 187.672 -233.457" />
    <path d="M 188.076 -233.505 L 187.672 -233.505" />
    <path d="M 189.692 -233.457 L 189.288 -233.457" />
    <path d="M 189.692 -233.505 L 189.288 -233.505" />
    <path d="M 189.079 -233.457 L 188.28 -233.457" />
    <path d="M 189.079 -233.505 L 188.28 -233.505" />
    <path d="M 186.4 -233.64 L 187.549 -233.64" />
    <path d="M 186.4 -233.65 L 187.559 -233.65" />
    <path d="M 189.8 -233.65 L 190.35 -233.65" />
    <path d="M 189.81 -233.64 L 190.36 -233.64" />
    <path d="M 190.486 -233.72 L 190.486 -233.71" />
    <path d="M 190.568 -233.678 L 190.568 -233.658" />
    <path d="M 190.492 -233.678 L 190.492 -233.658" />
    <path d="M 190.568 -233.658 L 190.492 -233.658" />
    <path d="M 190.492 -233.678 L 190.568 -233.678" />
    <path d="M 190.492 -233.72 L 190.35 -233.72" />
    <path d="M 190.486 -234.416 L 190.486 -234.426" />
    <path d="M 190.568 -234.458 L 190.568 -234.477" />
    <path d="M 190.492 -234.458 L 190.492 -234.477" />
    <path d="M 190.568 -234.477 L 190.492 -234.477" />
    <path d="M 190.492 -234.458 L 190.568 -234.458" />
    <path d="M 190.492 -234.416 L 190.35 -234.416" />
    <path d="M 190.492 -234.426 L 190.36 -234.426" />
    <path d="M 190.492 -233.71 L 190.36 -233.71" />
    <path d="M 190.579 -234.627 L 190.588 -234.627" />
    <path d="M 190.579 -234.477 L 190.588 -234.477" />
    <path d="M 190.579 -233.657 L 190.588 -233.657" />
    <path d="M 190.517 -233.818 L 190.517 -234.308" />
    <path d="M 190.565 -233.818 L 190.565 -234.308" />
    <path d="M 195.392 -233.758 L 195.093 -233.758" />
    <path d="M 194.865 -233.65 L 194.865 -233.761" />
    <path d="M 194.957 -233.823 L 194.957 -233.813" />
    <path d="M 194.957 -234.154 L 194.957 -234.164" />
    <path d="M 194.875 -233.781 L 194.875 -233.761" />
    <path d="M 194.951 -233.781 L 194.951 -233.761" />
    <path d="M 194.875 -233.761 L 194.951 -233.761" />
    <path d="M 194.951 -233.781 L 194.875 -233.781" />
    <path d="M 194.875 -234.191 L 194.875 -234.211" />
    <path d="M 194.951 -234.191 L 194.951 -234.211" />
    <path d="M 194.875 -234.211 L 194.951 -234.211" />
    <path d="M 194.951 -234.191 L 194.875 -234.191" />
    <path d="M 194.927 -233.882 L 194.927 -234.041" />
    <path d="M 194.879 -233.882 L 194.879 -234.041" />
    <path d="M 194.951 -233.823 L 195.103 -233.823" />
    <path d="M 194.951 -233.813 L 195.093 -233.813" />
    <path d="M 195.093 -234.164 L 194.951 -234.164" />
    <path d="M 194.951 -234.154 L 195.103 -234.154" />
    <path d="M 194.386 -235.184 L 195.183 -235.184" />
    <path d="M 195.192 -233.848 L 195.183 -233.848" />
    <path d="M 194.596 -221.25 L 194.596 -220.71" />
    <path d="M 194.626 -220.68 L 194.626 -225.36" />
    <path d="M 194.601 -220.68 L 194.601 -225.385" />
    <path d="M 194.471 -221.25 L 194.471 -225.515" />
    <path d="M 194.496 -221.25 L 194.496 -225.49" />
    <path d="M 194.646 -225.36 L 194.626 -225.36" />
    <path d="M 194.646 -225.385 L 194.601 -225.385" />
    <path d="M 194.646 -225.515 L 194.471 -225.515" />
    <path d="M 194.646 -225.49 L 194.496 -225.49" />
    <path d="M 187.756 -226.82 L 187.756 -226.91" />
    <path d="M 194.177 -220.38 L 194.024 -220.38" />
    <path d="M 193.948 -220.37 L 193.876 -220.37" />
    <path d="M 194.177 -220.393 L 194.177 -220.38" />
    <path d="M 190.619 -221.25 L 190.619 -224.385" />
    <path d="M 190.644 -221.25 L 190.644 -224.385" />
    <path d="M 190.619 -223.35 L 189.709 -223.35" />
    <path d="M 190.619 -223.325 L 189.734 -223.325" />
    <path d="M 190.619 -223.25 L 189.709 -223.25" />
    <path d="M 190.619 -223.275 L 189.734 -223.275" />
    <path d="M 189.709 -223.35 L 189.709 -223.25" />
    <path d="M 189.734 -223.35 L 189.734 -223.25" />
    <path d="M 190.696 -232.97 L 190.586 -227.4" />
    <path d="M 190.666 -232.97 L 190.556 -227.4" />
    <path d="M 194.675 -229.19 L 194.75 -229.189" />
    <path d="M 194.88 -229.187 L 194.955 -229.186" />
    <path d="M 194.836 -227.401 L 194.736 -227.403" />
    <path d="M 194.675 -229.19 L 194.765 -229.189" />
    <path d="M 194.865 -229.187 L 194.955 -229.186" />
    <path d="M 190.436 -227.4 L 190.546 -232.97" />
    <path d="M 190.466 -227.399 L 190.576 -232.969" />
    <path d="M 194.924 -232.831 L 194.824 -232.833" />
    <path d="M 191.417 -234.889 L 191.681 -234.889" />
    <path d="M 194.096 -221.25 L 194.096 -221.834" />
    <path d="M 194.171 -221.25 L 194.171 -221.759" />
    <path d="M 194.171 -221.759 L 194.471 -221.759" />
    <path d="M 194.096 -221.834 L 194.471 -221.834" />
    <path d="M 191.153 -220.431 L 191.914 -220.431" />
    <path d="M 193.546 -227.01 L 193.546 -227.4" />
    <path d="M 190.574 -224.385 L 190.574 -225.245" />
    <path d="M 194.865 -233.65 L 194.865 -233.761" />
    <path d="M 194.865 -233.761 L 194.715 -233.761" />
    <path d="M 194.715 -233.761 L 194.715 -233.65" />
    <path d="M 190.588 -233.63 L 190.588 -233.657" />
    <path d="M 190.588 -233.657 L 190.728 -233.657" />
    <path d="M 190.728 -233.657 L 190.728 -233.63" />
  </g>
</svg>
