<?xml version="1.0" encoding="UTF-8"?>
<svg xmlns="http://www.w3.org/2000/svg" viewBox="169.06 191.06 35.88 48.88" aria-hidden="true">
  <style>
    path,
    circle {
      fill: none;
      stroke: #007AFF;
      stroke-width: 1.55;
      stroke-linecap: round;
      stroke-linejoin: round;
      vector-effect: non-scaling-stroke;
    }
  </style>
  <g transform="scale(1 -1)">
    <path d="M 188.513 -206.56 L 188.81 -206.56" />
    <path d="M 187.796 -206.75 L 188.513 -206.75" />
    <path d="M 186.15 -200.88 L 187.966 -200.88" />
    <path d="M 187.966 -204.1 L 187.966 -202.04" />
    <path d="M 187.966 -206.23 L 187.966 -203.5" />
    <path d="M 187.966 -201.11 L 187.966 -200.88" />
    <path d="M 187.966 -201.11 L 188.386 -201.11" />
    <path d="M 187.966 -202.04 L 188.386 -202.04" />
    <path d="M 188.386 -202.19 L 188.386 -202.04" />
    <path d="M 188.386 -201.11 L 188.386 -200.49" />
    <path d="M 186.736 -196.92 L 187.316 -196.92" />
    <path d="M 188.506 -196.92 L 189.626 -196.92" />
    <path d="M 186.276 -196.38 L 187.316 -196.38" />
    <path d="M 188.506 -196.38 L 189.626 -196.38" />
    <path d="M 190.816 -196.38 L 192.046 -196.38" />
    <path d="M 187.931 -200.88 L 187.966 -200.88" />
    <path d="M 189.46 -206.03 L 190.425 -206.03" />
    <path d="M 191.595 -206.03 L 192 -206.03" />
    <path d="M 191.386 -202.19 L 191.386 -196.92" />
    <path d="M 187.316 -196.92 L 187.316 -196.38" />
    <path d="M 188.506 -196.92 L 188.506 -196.38" />
    <path d="M 189.626 -196.92 L 189.626 -196.38" />
    <path d="M 190.816 -196.92 L 190.816 -196.38" />
    <path d="M 191.206 -202.19 L 191.386 -202.19" />
    <path d="M 190.276 -202.19 L 190.276 -202.59" />
    <path d="M 191.206 -202.19 L 191.206 -202.59" />
    <path d="M 190.321 -202.19 L 190.321 -202.59" />
    <path d="M 189.296 -202.59 L 190.276 -202.59" />
    <path d="M 191.206 -202.59 L 191.606 -202.59" />
    <path d="M 191.606 -203.11 L 192.1 -203.11" />
    <path d="M 191.606 -202.59 L 191.606 -203.11" />
    <path d="M 191.595 -206.03 L 191.595 -206.551" />
    <path d="M 190.425 -206.03 L 190.425 -206.556" />
    <path d="M 191.686 -202.19 L 192.1 -202.19" />
    <path d="M 191.686 -196.92 L 191.686 -201.1" />
    <path d="M 191.686 -202.03 L 191.686 -202.19" />
    <path d="M 190.816 -196.92 L 191.386 -196.92" />
    <path d="M 192.046 -196.92 L 191.686 -196.92" />
    <path d="M 192.046 -196.92 L 192.046 -196.38" />
    <path d="M 191.686 -201.1 L 191.686 -202.03" />
    <path d="M 188.81 -206.03 L 188.246 -206.03" />
    <path d="M 188.81 -206.03 L 188.81 -206.56" />
    <path d="M 189.46 -206.03 L 189.46 -206.56" />
    <path d="M 188.386 -202.19 L 188.516 -202.19" />
    <path d="M 189.296 -202.19 L 190.276 -202.19" />
    <path d="M 188.516 -202.19 L 188.516 -202.59" />
    <path d="M 189.296 -202.19 L 189.296 -202.59" />
    <path d="M 188.516 -202.59 L 188.246 -202.59" />
    <path d="M 188.246 -202.59 L 188.246 -204.1" />
    <path d="M 188.246 -203.5 L 188.246 -206.03" />
    <path d="M 186.15 -206.23 L 187.476 -206.23" />
    <path d="M 186.15 -200.49 L 188.386 -200.49" />
    <path d="M 186.736 -196.91 L 186.276 -196.91" />
    <path d="M 186.276 -196.91 L 186.276 -196.38" />
    <path d="M 187.796 -206.23 L 187.966 -206.23" />
    <path d="M 186.15 -206.23 L 186.916 -206.23" />
    <path d="M 186.186 -206.75 L 186.916 -206.75" />
    <path d="M 188.513 -206.56 L 188.513 -206.75" />
    <path d="M 189.46 -206.56 L 190.425 -206.556" />
    <path d="M 191.595 -206.551 L 192 -206.55" />
    <path d="M 188.733 -206.979 L 187.756 -206.981" />
    <path d="M 188.858 -206.654 L 188.858 -206.794" />
    <path d="M 188.848 -206.786 L 188.733 -206.787" />
    <path d="M 188.808 -206.796 L 188.743 -206.797" />
    <path d="M 188.858 -206.794 L 188.808 -206.794" />
    <path d="M 188.848 -206.654 L 188.848 -206.786" />
    <path d="M 188.808 -206.794 L 188.808 -206.796" />
    <path d="M 188.743 -206.99 L 188.743 -206.797" />
    <path d="M 188.733 -206.979 L 188.733 -206.787" />
    <path d="M 189.384 -206.653 L 189.384 -206.792" />
    <path d="M 190.477 -206.789 L 190.427 -206.789" />
    <path d="M 189.394 -206.655 L 189.384 -206.655" />
    <path d="M 188.848 -206.657 L 188.858 -206.657" />
    <path d="M 189.394 -206.653 L 189.394 -206.784" />
    <path d="M 190.477 -206.649 L 190.477 -206.789" />
    <path d="M 189.434 -206.792 L 189.434 -206.794" />
    <path d="M 189.384 -206.792 L 189.434 -206.792" />
    <path d="M 189.394 -206.784 L 190.467 -206.781" />
    <path d="M 190.427 -206.789 L 190.427 -206.791" />
    <path d="M 191.543 -206.646 L 191.543 -206.778" />
    <path d="M 190.467 -206.649 L 190.467 -206.781" />
    <path d="M 191.533 -206.646 L 191.533 -206.786" />
    <path d="M 190.467 -206.652 L 190.477 -206.652" />
    <path d="M 191.533 -206.786 L 191.583 -206.786" />
    <path d="M 191.583 -206.786 L 191.583 -206.788" />
    <path d="M 191.543 -206.649 L 191.533 -206.649" />
    <path d="M 191.583 -206.788 L 192 -206.786" />
    <path d="M 191.583 -206.778 L 192 -206.776" />
    <path d="M 190.427 -206.791 L 189.434 -206.794" />
    <path d="M 190.624 -206.623 L 190.888 -206.623" />
    <path d="M 191.123 -206.622 L 191.386 -206.621" />
    <path d="M 190.625 -206.831 L 191.386 -206.828" />
    <path d="M 189.006 -206.836 L 189.237 -206.835" />
    <path d="M 189.005 -206.628 L 189.237 -206.628" />
    <path d="M 187.358 -196.371 L 187.358 -196.15" />
    <path d="M 187.368 -196.376 L 187.368 -196.142" />
    <path d="M 187.356 -196.09 L 187.356 -196.142" />
    <path d="M 187.368 -196.142 L 187.368 -196.09" />
    <path d="M 187.368 -196.142 L 187.318 -196.142" />
    <path d="M 187.318 -196.142 L 187.318 -196.14" />
    <path d="M 187.335 -196.38 L 187.315 -196.38" />
    <path d="M 187.334 -196.456 L 187.316 -196.456" />
    <path d="M 187.334 -196.38 L 187.316 -196.38" />
    <path d="M 187.334 -196.456 L 187.334 -196.38" />
    <path d="M 189.668 -196.371 L 189.668 -196.15" />
    <path d="M 189.678 -196.376 L 189.678 -196.142" />
    <path d="M 189.666 -196.09 L 189.666 -196.142" />
    <path d="M 189.678 -196.142 L 189.678 -196.09" />
    <path d="M 189.678 -196.142 L 189.628 -196.142" />
    <path d="M 189.628 -196.142 L 189.628 -196.14" />
    <path d="M 189.645 -196.38 L 189.625 -196.38" />
    <path d="M 189.644 -196.456 L 189.626 -196.456" />
    <path d="M 189.644 -196.38 L 189.626 -196.38" />
    <path d="M 189.644 -196.456 L 189.644 -196.38" />
    <path d="M 192.088 -196.371 L 192.088 -196.15" />
    <path d="M 192.098 -196.376 L 192.098 -196.142" />
    <path d="M 192.086 -196.09 L 192.086 -196.142" />
    <path d="M 192.098 -196.142 L 192.098 -196.09" />
    <path d="M 192.098 -196.142 L 192.048 -196.142" />
    <path d="M 192.048 -196.142 L 192.048 -196.14" />
    <path d="M 192.065 -196.38 L 192.045 -196.38" />
    <path d="M 192.064 -196.456 L 192.046 -196.456" />
    <path d="M 192.064 -196.38 L 192.046 -196.38" />
    <path d="M 192.064 -196.456 L 192.064 -196.38" />
    <path d="M 186.236 -196.37 L 186.236 -196.15" />
    <path d="M 186.238 -196.09 L 186.238 -196.142" />
    <path d="M 186.226 -196.142 L 186.276 -196.142" />
    <path d="M 186.276 -196.142 L 186.276 -196.14" />
    <path d="M 186.256 -196.38 L 186.276 -196.38" />
    <path d="M 186.259 -196.456 L 186.276 -196.456" />
    <path d="M 186.259 -196.38 L 186.276 -196.38" />
    <path d="M 186.259 -196.456 L 186.259 -196.38" />
    <path d="M 188.466 -196.37 L 188.466 -196.15" />
    <path d="M 188.456 -196.376 L 188.456 -196.142" />
    <path d="M 188.468 -196.09 L 188.468 -196.142" />
    <path d="M 188.456 -196.142 L 188.456 -196.09" />
    <path d="M 188.456 -196.142 L 188.506 -196.142" />
    <path d="M 188.506 -196.142 L 188.506 -196.14" />
    <path d="M 188.486 -196.38 L 188.506 -196.38" />
    <path d="M 188.489 -196.456 L 188.506 -196.456" />
    <path d="M 188.489 -196.38 L 188.506 -196.38" />
    <path d="M 188.489 -196.456 L 188.489 -196.38" />
    <path d="M 190.776 -196.37 L 190.776 -196.15" />
    <path d="M 190.766 -196.376 L 190.766 -196.142" />
    <path d="M 190.778 -196.09 L 190.778 -196.142" />
    <path d="M 190.766 -196.142 L 190.766 -196.09" />
    <path d="M 190.766 -196.142 L 190.816 -196.142" />
    <path d="M 190.816 -196.142 L 190.816 -196.14" />
    <path d="M 190.796 -196.38 L 190.816 -196.38" />
    <path d="M 190.799 -196.456 L 190.816 -196.456" />
    <path d="M 190.799 -196.38 L 190.816 -196.38" />
    <path d="M 190.799 -196.456 L 190.799 -196.38" />
    <path d="M 186.15 -196.09 L 186.238 -196.09" />
    <path d="M 187.356 -196.09 L 188.468 -196.09" />
    <path d="M 189.666 -196.09 L 190.778 -196.09" />
    <path d="M 192.086 -196.09 L 192.1 -196.09" />
    <path d="M 187.485 -196.404 L 187.795 -196.404" />
    <path d="M 188.03 -196.404 L 188.339 -196.404" />
    <path d="M 187.485 -196.408 L 187.795 -196.408" />
    <path d="M 188.03 -196.408 L 188.339 -196.408" />
    <path d="M 187.485 -196.426 L 187.795 -196.426" />
    <path d="M 188.03 -196.426 L 188.339 -196.426" />
    <path d="M 187.485 -196.43 L 187.795 -196.43" />
    <path d="M 188.03 -196.43 L 188.339 -196.43" />
    <path d="M 187.485 -196.448 L 187.795 -196.448" />
    <path d="M 188.03 -196.448 L 188.339 -196.448" />
    <path d="M 187.485 -196.452 L 187.795 -196.452" />
    <path d="M 188.03 -196.452 L 188.339 -196.452" />
    <path d="M 189.795 -196.404 L 190.105 -196.404" />
    <path d="M 190.34 -196.404 L 190.649 -196.404" />
    <path d="M 189.795 -196.408 L 190.105 -196.408" />
    <path d="M 190.34 -196.408 L 190.649 -196.408" />
    <path d="M 189.795 -196.426 L 190.105 -196.426" />
    <path d="M 190.34 -196.426 L 190.649 -196.426" />
    <path d="M 189.795 -196.43 L 190.105 -196.43" />
    <path d="M 190.34 -196.43 L 190.649 -196.43" />
    <path d="M 189.795 -196.448 L 190.105 -196.448" />
    <path d="M 190.34 -196.448 L 190.649 -196.448" />
    <path d="M 189.795 -196.452 L 190.105 -196.452" />
    <path d="M 190.34 -196.452 L 190.649 -196.452" />
    <path d="M 192.18 -194.695 L 189.466 -194.695" />
    <path d="M 189.466 -194.66 L 192.18 -194.66" />
    <path d="M 189.466 -194.66 L 189.466 -194.695" />
    <path d="M 189.326 -194.835 L 189.326 -195.935" />
    <path d="M 189.291 -194.835 L 189.326 -194.835" />
    <path d="M 189.291 -195.935 L 189.291 -194.835" />
    <path d="M 189.291 -195.935 L 189.326 -195.935" />
    <path d="M 189.34 -194.811 L 189.34 -194.805" />
    <path d="M 189.302 -194.808 L 189.301 -194.808" />
    <path d="M 189.34 -194.8 L 189.34 -194.802" />
    <path d="M 189.291 -194.835 L 189.326 -194.835" />
    <path d="M 189.333 -194.811 L 189.34 -194.811" />
    <path d="M 189.332 -194.829 L 189.332 -194.812" />
    <path d="M 189.301 -194.796 L 189.301 -194.808" />
    <path d="M 189.305 -194.799 L 189.305 -194.802" />
    <path d="M 189.34 -194.805 L 189.34 -194.799" />
    <path d="M 189.332 -194.79 L 189.332 -194.76" />
    <path d="M 189.301 -194.796 L 189.302 -194.796" />
    <path d="M 189.302 -194.796 L 189.305 -194.799" />
    <path d="M 189.308 -194.799 L 189.318 -194.799" />
    <path d="M 189.316 -194.835 L 189.316 -194.776" />
    <path d="M 189.316 -194.776 L 189.301 -194.776" />
    <path d="M 189.301 -194.776 L 189.301 -194.835" />
    <path d="M 189.317 -194.812 L 189.317 -194.829" />
    <path d="M 189.318 -194.805 L 189.308 -194.805" />
    <path d="M 189.305 -194.805 L 189.302 -194.808" />
    <path d="M 189.333 -194.794 L 189.333 -194.799" />
    <path d="M 189.333 -194.799 L 189.34 -194.799" />
    <path d="M 189.34 -194.799 L 189.34 -194.794" />
    <path d="M 189.34 -194.794 L 189.333 -194.794" />
    <path d="M 189.333 -194.805 L 189.333 -194.811" />
    <path d="M 189.34 -194.805 L 189.333 -194.805" />
    <path d="M 189.317 -194.787 L 189.332 -194.787" />
    <path d="M 189.332 -194.817 L 189.317 -194.817" />
    <path d="M 189.332 -194.787 L 189.332 -194.817" />
    <path d="M 189.317 -194.817 L 189.317 -194.787" />
    <path d="M 189.302 -194.796 L 189.301 -194.796" />
    <path d="M 189.302 -194.808 L 189.302 -194.796" />
    <path d="M 189.301 -194.808 L 189.302 -194.808" />
    <path d="M 189.302 -194.796 L 189.305 -194.799" />
    <path d="M 189.314 -194.799 L 189.338 -194.799" />
    <path d="M 189.339 -194.799 L 189.34 -194.8" />
    <path d="M 189.308 -194.799 L 189.308 -194.802" />
    <path d="M 189.339 -194.799 L 189.339 -194.802" />
    <path d="M 189.339 -194.8 L 189.308 -194.8" />
    <path d="M 189.339 -194.805 L 189.34 -194.804" />
    <path d="M 189.308 -194.8 L 189.305 -194.799" />
    <path d="M 189.302 -194.808 L 189.305 -194.805" />
    <path d="M 189.314 -194.805 L 189.338 -194.805" />
    <path d="M 189.34 -194.804 L 189.34 -194.802" />
    <path d="M 189.332 -195.952 L 189.317 -195.952" />
    <path d="M 189.339 -194.805 L 189.339 -194.802" />
    <path d="M 189.308 -194.804 L 189.305 -194.805" />
    <path d="M 189.339 -194.804 L 189.308 -194.804" />
    <path d="M 189.333 -194.805 L 189.333 -194.799" />
    <path d="M 189.308 -194.805 L 189.308 -194.802" />
    <path d="M 189.305 -194.805 L 189.305 -194.802" />
    <path d="M 189.301 -194.796 L 189.301 -194.808" />
    <path d="M 189.317 -194.79 L 189.317 -194.76" />
    <path d="M 189.333 -195.959 L 189.34 -195.959" />
    <path d="M 189.332 -194.829 L 189.317 -194.829" />
    <path d="M 189.301 -195.973 L 189.301 -195.961" />
    <path d="M 189.332 -195.941 L 189.332 -195.957" />
    <path d="M 189.305 -195.97 L 189.305 -195.967" />
    <path d="M 189.302 -195.961 L 189.305 -195.964" />
    <path d="M 189.34 -195.964 L 189.34 -195.97" />
    <path d="M 189.332 -195.98 L 189.332 -196.01" />
    <path d="M 189.301 -195.973 L 189.302 -195.973" />
    <path d="M 189.302 -195.973 L 189.305 -195.97" />
    <path d="M 189.308 -195.97 L 189.318 -195.97" />
    <path d="M 189.316 -195.935 L 189.316 -195.994" />
    <path d="M 189.316 -195.994 L 189.301 -195.994" />
    <path d="M 189.301 -195.994 L 189.301 -195.935" />
    <path d="M 189.317 -195.957 L 189.317 -195.941" />
    <path d="M 189.318 -195.964 L 189.308 -195.964" />
    <path d="M 189.305 -195.964 L 189.302 -195.961" />
    <path d="M 189.302 -195.961 L 189.301 -195.961" />
    <path d="M 189.333 -195.976 L 189.333 -195.97" />
    <path d="M 189.333 -195.97 L 189.34 -195.97" />
    <path d="M 189.34 -195.97 L 189.34 -195.976" />
    <path d="M 189.34 -195.976 L 189.333 -195.976" />
    <path d="M 189.34 -195.959 L 189.34 -195.964" />
    <path d="M 189.34 -195.964 L 189.333 -195.964" />
    <path d="M 189.333 -195.964 L 189.333 -195.959" />
    <path d="M 189.317 -195.982 L 189.332 -195.982" />
    <path d="M 189.317 -195.952 L 189.317 -195.982" />
    <path d="M 189.332 -195.982 L 189.332 -195.952" />
    <path d="M 189.302 -195.961 L 189.302 -195.973" />
    <path d="M 189.421 -194.701 L 189.391 -194.701" />
    <path d="M 189.301 -195.961 L 189.302 -195.961" />
    <path d="M 189.302 -195.973 L 189.301 -195.973" />
    <path d="M 189.302 -195.973 L 189.305 -195.97" />
    <path d="M 189.314 -195.97 L 189.338 -195.97" />
    <path d="M 189.339 -195.97 L 189.34 -195.969" />
    <path d="M 189.34 -195.969 L 189.34 -195.967" />
    <path d="M 189.308 -195.97 L 189.308 -195.967" />
    <path d="M 189.339 -195.97 L 189.339 -195.967" />
    <path d="M 189.339 -195.969 L 189.308 -195.969" />
    <path d="M 189.308 -195.969 L 189.305 -195.97" />
    <path d="M 189.339 -195.964 L 189.34 -195.965" />
    <path d="M 189.314 -195.964 L 189.338 -195.964" />
    <path d="M 189.34 -195.965 L 189.34 -195.967" />
    <path d="M 189.425 -194.709 L 189.425 -194.702" />
    <path d="M 189.339 -195.964 L 189.339 -195.967" />
    <path d="M 189.339 -195.965 L 189.308 -195.965" />
    <path d="M 189.308 -195.965 L 189.305 -195.964" />
    <path d="M 189.308 -195.964 L 189.308 -195.967" />
    <path d="M 189.305 -195.964 L 189.305 -195.967" />
    <path d="M 189.301 -195.973 L 189.301 -195.961" />
    <path d="M 189.333 -195.964 L 189.333 -195.97" />
    <path d="M 189.317 -195.98 L 189.317 -196.01" />
    <path d="M 189.332 -195.941 L 189.317 -195.941" />
    <path d="M 189.443 -194.702 L 189.443 -194.709" />
    <path d="M 189.46 -194.701 L 189.444 -194.701" />
    <path d="M 189.428 -194.67 L 189.44 -194.67" />
    <path d="M 189.431 -194.674 L 189.434 -194.674" />
    <path d="M 189.437 -194.709 L 189.431 -194.709" />
    <path d="M 189.428 -194.67 L 189.428 -194.671" />
    <path d="M 189.428 -194.671 L 189.431 -194.674" />
    <path d="M 189.431 -194.676 L 189.431 -194.686" />
    <path d="M 189.466 -194.685 L 189.407 -194.685" />
    <path d="M 189.407 -194.685 L 189.407 -194.67" />
    <path d="M 189.407 -194.67 L 189.466 -194.67" />
    <path d="M 189.444 -194.686 L 189.46 -194.686" />
    <path d="M 189.437 -194.686 L 189.437 -194.676" />
    <path d="M 189.437 -194.674 L 189.44 -194.671" />
    <path d="M 189.44 -194.671 L 189.44 -194.67" />
    <path d="M 189.425 -194.702 L 189.431 -194.702" />
    <path d="M 189.431 -194.702 L 189.431 -194.709" />
    <path d="M 189.431 -194.709 L 189.425 -194.709" />
    <path d="M 189.443 -194.709 L 189.437 -194.709" />
    <path d="M 189.437 -194.709 L 189.437 -194.702" />
    <path d="M 189.431 -194.707 L 189.434 -194.707" />
    <path d="M 189.437 -194.702 L 189.443 -194.702" />
    <path d="M 189.419 -194.686 L 189.419 -194.701" />
    <path d="M 189.419 -194.701 L 189.449 -194.701" />
    <path d="M 189.449 -194.701 L 189.449 -194.686" />
    <path d="M 189.449 -194.686 L 189.419 -194.686" />
    <path d="M 189.44 -194.671 L 189.428 -194.671" />
    <path d="M 189.44 -194.67 L 189.44 -194.671" />
    <path d="M 189.428 -194.671 L 189.428 -194.67" />
    <path d="M 189.428 -194.671 L 189.431 -194.674" />
    <path d="M 189.431 -194.682 L 189.431 -194.706" />
    <path d="M 189.431 -194.707 L 189.432 -194.708" />
    <path d="M 189.432 -194.708 L 189.434 -194.708" />
    <path d="M 189.437 -194.702 L 189.431 -194.702" />
    <path d="M 189.431 -194.676 L 189.434 -194.676" />
    <path d="M 189.432 -194.707 L 189.432 -194.676" />
    <path d="M 189.421 -194.686 L 189.391 -194.686" />
    <path d="M 189.432 -194.676 L 189.431 -194.674" />
    <path d="M 189.44 -194.671 L 189.437 -194.674" />
    <path d="M 189.437 -194.682 L 189.437 -194.706" />
    <path d="M 189.437 -194.707 L 189.436 -194.708" />
    <path d="M 189.436 -194.708 L 189.434 -194.708" />
    <path d="M 189.437 -194.707 L 189.434 -194.707" />
    <path d="M 189.436 -194.707 L 189.436 -194.676" />
    <path d="M 189.436 -194.676 L 189.437 -194.674" />
    <path d="M 189.437 -194.676 L 189.434 -194.676" />
    <path d="M 189.437 -194.674 L 189.434 -194.674" />
    <path d="M 189.428 -194.67 L 189.44 -194.67" />
    <path d="M 189.46 -194.701 L 189.46 -194.686" />
    <path d="M 186.276 -196.14 L 187.318 -196.14" />
    <path d="M 186.236 -196.15 L 187.358 -196.15" />
    <path d="M 188.506 -196.14 L 189.628 -196.14" />
    <path d="M 188.466 -196.15 L 189.668 -196.15" />
    <path d="M 190.816 -196.14 L 192.048 -196.14" />
    <path d="M 192.088 -196.15 L 190.776 -196.15" />
    <path d="M 186.851 -200.49 L 186.851 -196.92" />
    <path d="M 186.826 -200.49 L 186.826 -196.92" />
    <path d="M 186.696 -200.49 L 186.696 -196.91" />
    <path d="M 186.721 -200.49 L 186.721 -196.91" />
    <path d="M 186.736 -196.92 L 186.736 -196.91" />
    <path d="M 191.436 -194.73 L 191.436 -196.1" />
    <path d="M 191.396 -194.73 L 191.396 -196.1" />
    <path d="M 186.696 -200.46 L 186.15 -200.46" />
    <path d="M 186.696 -200.485 L 186.15 -200.485" />
    <path d="M 190.319 -200.46 L 190.319 -200.585" />
    <path d="M 189.434 -200.46 L 189.434 -200.585" />
    <path d="M 186.846 -200.46 L 189.434 -200.46" />
    <path d="M 186.846 -200.485 L 189.434 -200.485" />
    <path d="M 190.319 -200.46 L 191.386 -200.46" />
    <path d="M 190.319 -200.485 L 191.386 -200.485" />
    <path d="M 188.386 -200.585 L 189.434 -200.585" />
    <path d="M 188.386 -200.56 L 189.434 -200.56" />
    <path d="M 190.319 -200.585 L 191.386 -200.585" />
    <path d="M 190.319 -200.56 L 191.386 -200.56" />
    <path d="M 190.276 -202.19 L 190.321 -202.19" />
    <path d="M 190.276 -202.59 L 190.321 -202.59" />
    <path d="M 190.251 -202.59 L 190.251 -204.1" />
    <path d="M 190.251 -203.5 L 190.251 -205.99" />
    <path d="M 190.251 -202.59 L 190.251 -204.1" />
    <path d="M 190.251 -203.5 L 190.251 -206.03" />
    <path d="M 190.226 -202.59 L 190.226 -204.1" />
    <path d="M 190.226 -203.5 L 190.226 -206.03" />
    <path d="M 190.056 -202.59 L 190.056 -203.33" />
    <path d="M 189.136 -203.455 L 189.136 -203.33" />
    <path d="M 190.101 -203.455 L 189.136 -203.455" />
    <path d="M 190.126 -203.43 L 189.136 -203.43" />
    <path d="M 190.226 -203.33 L 189.136 -203.33" />
    <path d="M 190.226 -203.355 L 189.136 -203.355" />
    <path d="M 188.376 -203.33 L 188.376 -203.455" />
    <path d="M 188.376 -203.33 L 188.246 -203.33" />
    <path d="M 188.376 -203.355 L 188.246 -203.355" />
    <path d="M 188.376 -203.455 L 188.246 -203.455" />
    <path d="M 188.376 -203.43 L 188.246 -203.43" />
    <path d="M 190.101 -203.455 L 190.101 -204.1" />
    <path d="M 190.101 -203.5 L 190.101 -204.365" />
    <path d="M 190.126 -203.43 L 190.126 -204.1" />
    <path d="M 190.126 -203.5 L 190.126 -204.39" />
    <path d="M 189.876 -204.465 L 189.191 -204.465" />
    <path d="M 189.901 -204.44 L 189.216 -204.44" />
    <path d="M 190.101 -204.365 L 189.191 -204.365" />
    <path d="M 190.126 -204.39 L 189.216 -204.39" />
    <path d="M 189.876 -204.465 L 189.876 -204.67" />
    <path d="M 189.901 -204.44 L 189.901 -204.645" />
    <path d="M 189.901 -205.145 L 189.901 -206.03" />
    <path d="M 189.191 -204.465 L 189.191 -204.365" />
    <path d="M 189.216 -204.465 L 189.216 -204.365" />
    <path d="M 190.101 -204.67 L 190.101 -205.12" />
    <path d="M 190.126 -204.645 L 190.126 -205.145" />
    <path d="M 189.876 -205.12 L 190.101 -205.12" />
    <path d="M 189.901 -205.145 L 190.126 -205.145" />
    <path d="M 189.876 -204.67 L 190.101 -204.67" />
    <path d="M 189.901 -204.645 L 190.126 -204.645" />
    <path d="M 189.876 -205.12 L 189.876 -206.03" />
    <path d="M 190.624 -206.575 L 190.887 -206.575" />
    <path d="M 191.122 -206.574 L 191.386 -206.573" />
    <path d="M 189.005 -206.58 L 189.237 -206.58" />
    <path d="M 186.15 -206.99 L 186.916 -206.99" />
    <path d="M 186.15 -206.98 L 186.956 -206.98" />
    <path d="M 186.916 -206.23 L 186.916 -206.75" />
    <path d="M 187.796 -206.75 L 187.796 -206.23" />
    <path d="M 187.966 -206.23 L 187.966 -206.75" />
    <path d="M 186.966 -206.837 L 186.966 -206.988" />
    <path d="M 186.916 -206.988 L 186.916 -206.99" />
    <path d="M 186.956 -206.837 L 186.956 -206.98" />
    <path d="M 187.746 -206.988 L 187.746 -206.835" />
    <path d="M 187.796 -206.99 L 187.796 -206.988" />
    <path d="M 187.756 -206.981 L 187.756 -206.835" />
    <path d="M 186.917 -206.761 L 186.917 -206.837" />
    <path d="M 186.917 -206.837 L 186.937 -206.837" />
    <path d="M 186.937 -206.837 L 186.937 -206.761" />
    <path d="M 187.087 -206.786 L 187.623 -206.785" />
    <path d="M 187.087 -206.79 L 187.623 -206.789" />
    <path d="M 187.087 -206.808 L 187.623 -206.807" />
    <path d="M 187.087 -206.812 L 187.623 -206.811" />
    <path d="M 186.916 -206.988 L 186.966 -206.988" />
    <path d="M 186.954 -207.028 L 186.954 -206.988" />
    <path d="M 186.954 -207.028 L 187.758 -207.028" />
    <path d="M 186.966 -206.988 L 186.966 -207.028" />
    <path d="M 187.746 -206.988 L 187.746 -207.028" />
    <path d="M 187.758 -206.988 L 187.758 -207.028" />
    <path d="M 186.956 -206.841 L 186.966 -206.841" />
    <path d="M 187.796 -206.761 L 187.796 -206.837" />
    <path d="M 187.796 -206.837 L 187.776 -206.837" />
    <path d="M 187.776 -206.837 L 187.776 -206.761" />
    <path d="M 187.746 -206.988 L 187.796 -206.988" />
    <path d="M 187.087 -206.764 L 187.623 -206.763" />
    <path d="M 187.087 -206.768 L 187.623 -206.767" />
    <path d="M 187.796 -206.99 L 188.743 -206.99" />
  </g>
</svg>
