<?xml version="1.0" encoding="UTF-8"?>
<svg xmlns="http://www.w3.org/2000/svg" viewBox="169.06 191.06 35.88 48.88" aria-hidden="true">
  <style>
    path,
    circle {
      fill: none;
      stroke: #007AFF;
      stroke-width: 1.55;
      stroke-linecap: round;
      stroke-linejoin: round;
      vector-effect: non-scaling-stroke;
    }
  </style>
  <g transform="scale(1 -1)">
    <path d="M 179.583 -206.589 L 179.086 -206.589" />
    <path d="M 184.982 -206.75 L 186.186 -206.75" />
    <path d="M 185.606 -200.88 L 187.966 -200.88" />
    <path d="M 185.606 -206.23 L 186.086 -206.23" />
    <path d="M 184.982 -206.75 L 184.982 -206.56" />
    <path d="M 186.736 -196.92 L 187.316 -196.92" />
    <path d="M 186.276 -196.38 L 187.316 -196.38" />
    <path d="M 186.086 -206.23 L 186.086 -206.61" />
    <path d="M 186.086 -206.23 L 187.476 -206.23" />
    <path d="M 186.086 -206.61 L 186.186 -206.61" />
    <path d="M 186.186 -206.61 L 186.186 -206.75" />
    <path d="M 182.726 -196.38 L 181.536 -196.38" />
    <path d="M 180.366 -196.38 L 179.756 -196.38" />
    <path d="M 178.586 -196.38 L 177.826 -196.38" />
    <path d="M 179.681 -206.589 L 179.681 -206.439" />
    <path d="M 179.583 -206.84 L 179.453 -206.84" />
    <path d="M 179.086 -208.426 L 179.585 -208.426" />
    <path d="M 179.086 -206.735 L 179.453 -206.735" />
    <path d="M 179.086 -207.405 L 179.584 -207.405" />
    <path d="M 179.453 -206.84 L 179.453 -206.735" />
    <path d="M 180.976 -205.99 L 180.976 -206.582" />
    <path d="M 179.576 -205.99 L 179.576 -206.439" />
    <path d="M 179.681 -206.439 L 179.576 -206.439" />
    <path d="M 178.036 -202.14 L 178.036 -196.91" />
    <path d="M 180.776 -202.97 L 180.776 -202.56" />
    <path d="M 179.086 -208.426 L 179.086 -207.405" />
    <path d="M 179.086 -206.735 L 179.086 -205.99" />
    <path d="M 175.506 -202.56 L 180.776 -202.56" />
    <path d="M 180.776 -202.97 L 181.156 -202.97" />
    <path d="M 178.206 -202.14 L 175.506 -202.14" />
    <path d="M 185.606 -206.23 L 185.606 -202.02" />
    <path d="M 185.606 -201.1 L 185.606 -200.88" />
    <path d="M 185.606 -201.1 L 185.186 -201.1" />
    <path d="M 185.606 -202.02 L 185.186 -202.02" />
    <path d="M 185.186 -201.1 L 185.186 -200.49" />
    <path d="M 185.186 -202.02 L 185.186 -202.22" />
    <path d="M 185.186 -200.49 L 188.386 -200.49" />
    <path d="M 182.156 -201.18 L 182.156 -196.91" />
    <path d="M 182.156 -196.91 L 182.726 -196.91" />
    <path d="M 186.736 -196.91 L 186.276 -196.91" />
    <path d="M 183.896 -196.38 L 185.106 -196.38" />
    <path d="M 183.896 -196.91 L 185.106 -196.91" />
    <path d="M 182.156 -202.11 L 182.156 -202.22" />
    <path d="M 182.156 -202.11 L 181.856 -202.11" />
    <path d="M 182.156 -201.18 L 181.856 -201.18" />
    <path d="M 181.856 -196.91 L 181.856 -201.18" />
    <path d="M 181.856 -202.11 L 181.856 -202.17" />
    <path d="M 178.206 -202.17 L 178.206 -196.91" />
    <path d="M 178.206 -202.17 L 181.856 -202.17" />
    <path d="M 183.896 -196.91 L 183.896 -196.38" />
    <path d="M 182.726 -196.91 L 182.726 -196.38" />
    <path d="M 186.276 -196.91 L 186.276 -196.38" />
    <path d="M 185.106 -196.91 L 185.106 -196.38" />
    <path d="M 177.826 -196.91 L 178.586 -196.91" />
    <path d="M 181.856 -196.91 L 181.536 -196.91" />
    <path d="M 181.536 -196.91 L 181.536 -196.38" />
    <path d="M 180.366 -196.91 L 180.366 -196.38" />
    <path d="M 179.756 -196.91 L 179.756 -196.38" />
    <path d="M 178.586 -196.91 L 178.586 -196.38" />
    <path d="M 179.756 -196.91 L 180.366 -196.91" />
    <path d="M 185.186 -202.22 L 185.054 -202.22" />
    <path d="M 184.274 -202.22 L 183.246 -202.22" />
    <path d="M 182.316 -202.22 L 182.156 -202.22" />
    <path d="M 182.316 -202.22 L 182.316 -202.59" />
    <path d="M 183.201 -202.22 L 183.201 -202.59" />
    <path d="M 183.246 -202.22 L 183.246 -202.59" />
    <path d="M 184.274 -202.59 L 183.246 -202.59" />
    <path d="M 182.316 -202.59 L 181.966 -202.59" />
    <path d="M 181.966 -202.59 L 181.966 -203.14" />
    <path d="M 181.966 -203.14 L 181.156 -203.14" />
    <path d="M 182.997 -205.99 L 182.997 -206.571" />
    <path d="M 181.827 -205.99 L 181.827 -206.577" />
    <path d="M 180.976 -205.99 L 181.827 -205.99" />
    <path d="M 182.997 -205.99 L 183.958 -205.99" />
    <path d="M 184.608 -205.99 L 185.316 -205.99" />
    <path d="M 183.958 -205.99 L 183.958 -206.566" />
    <path d="M 184.608 -205.99 L 184.608 -206.562" />
    <path d="M 184.274 -202.22 L 184.274 -202.59" />
    <path d="M 185.054 -202.22 L 185.054 -202.59" />
    <path d="M 185.054 -202.59 L 185.316 -202.59" />
    <path d="M 185.316 -202.59 L 185.316 -205.99" />
    <path d="M 185.606 -206.23 L 186.086 -206.23" />
    <path d="M 186.086 -206.23 L 186.916 -206.23" />
    <path d="M 186.186 -206.75 L 186.916 -206.75" />
    <path d="M 177.971 -202.286 L 178.221 -202.286 L 178.221 -202.416 L 177.971 -202.416 L 177.971 -202.286 Z" />
    <path d="M 178.331 -202.293 L 178.581 -202.293 L 178.581 -202.423 L 178.331 -202.423 L 178.331 -202.293 Z" />
    <path d="M 179.583 -206.589 L 179.583 -206.84" />
    <path d="M 179.584 -207.405 L 179.585 -208.426" />
    <path d="M 179.681 -206.589 L 179.583 -206.589" />
    <path d="M 179.583 -206.84 L 179.583 -206.735" />
    <path d="M 179.873 -206.438 L 179.873 -206.588" />
    <path d="M 182.922 -206.676 L 182.912 -206.676" />
    <path d="M 179.936 -206.866 L 179.936 -206.822" />
    <path d="M 181.896 -206.676 L 181.896 -206.808" />
    <path d="M 181.906 -206.676 L 181.906 -206.816" />
    <path d="M 181.856 -206.816 L 181.856 -206.818" />
    <path d="M 181.906 -206.816 L 181.856 -206.816" />
    <path d="M 181.896 -206.679 L 181.906 -206.679" />
    <path d="M 182.922 -206.673 L 182.922 -206.805" />
    <path d="M 182.912 -206.673 L 182.912 -206.813" />
    <path d="M 182.962 -206.813 L 182.962 -206.815" />
    <path d="M 182.912 -206.813 L 182.962 -206.813" />
    <path d="M 180.946 -206.819 L 180.946 -206.863" />
    <path d="M 179.886 -206.822 L 179.936 -206.822" />
    <path d="M 179.886 -206.822 L 179.886 -206.824" />
    <path d="M 179.912 -206.822 L 179.912 -206.866" />
    <path d="M 179.912 -206.866 L 179.936 -206.866" />
    <path d="M 179.909 -206.761 L 179.925 -206.761" />
    <path d="M 179.909 -206.761 L 179.909 -206.751" />
    <path d="M 179.909 -206.726 L 179.925 -206.726" />
    <path d="M 179.909 -206.726 L 179.909 -206.736" />
    <path d="M 179.927 -206.751 L 179.935 -206.754" />
    <path d="M 179.927 -206.736 L 179.935 -206.732" />
    <path d="M 179.935 -206.682 L 179.936 -206.822" />
    <path d="M 179.925 -206.682 L 179.926 -206.814" />
    <path d="M 179.935 -206.687 L 179.925 -206.687" />
    <path d="M 180.972 -206.819 L 180.922 -206.819" />
    <path d="M 180.972 -206.819 L 180.972 -206.821" />
    <path d="M 180.946 -206.863 L 180.922 -206.863" />
    <path d="M 180.922 -206.863 L 180.922 -206.819" />
    <path d="M 180.948 -206.757 L 180.932 -206.758" />
    <path d="M 180.948 -206.757 L 180.948 -206.747" />
    <path d="M 180.948 -206.722 L 180.931 -206.723" />
    <path d="M 180.948 -206.722 L 180.948 -206.732" />
    <path d="M 180.93 -206.748 L 180.922 -206.751" />
    <path d="M 180.93 -206.733 L 180.921 -206.729" />
    <path d="M 180.921 -206.679 L 180.922 -206.819" />
    <path d="M 180.931 -206.679 L 180.932 -206.811" />
    <path d="M 180.921 -206.684 L 180.931 -206.684" />
    <path d="M 183.988 -206.81 L 183.988 -206.812" />
    <path d="M 184.614 -206.808 L 184.614 -206.81" />
    <path d="M 184.574 -206.668 L 184.574 -206.8" />
    <path d="M 184.564 -206.808 L 184.614 -206.808" />
    <path d="M 179.821 -206.889 L 179.821 -206.825" />
    <path d="M 179.811 -206.929 L 179.811 -206.815" />
    <path d="M 179.679 -207.326 L 179.82 -207.326" />
    <path d="M 179.679 -207.336 L 179.812 -207.336" />
    <path d="M 179.592 -207.541 L 179.812 -207.541" />
    <path d="M 179.82 -207.376 L 179.822 -207.376" />
    <path d="M 179.82 -207.326 L 179.82 -207.376" />
    <path d="M 179.682 -207.336 L 179.679 -207.336" />
    <path d="M 179.683 -207.336 L 179.683 -207.326" />
    <path d="M 179.82 -207.355 L 179.864 -207.355" />
    <path d="M 179.864 -207.355 L 179.864 -207.331" />
    <path d="M 179.864 -207.331 L 179.82 -207.331" />
    <path d="M 179.583 -206.878 L 179.453 -206.878" />
    <path d="M 179.862 -207.331 L 179.861 -206.934" />
    <path d="M 179.678 -206.939 L 179.819 -206.939" />
    <path d="M 179.678 -206.929 L 179.811 -206.929" />
    <path d="M 179.819 -206.889 L 179.821 -206.889" />
    <path d="M 179.819 -206.939 L 179.819 -206.889" />
    <path d="M 179.681 -206.929 L 179.678 -206.929" />
    <path d="M 179.682 -206.929 L 179.682 -206.939" />
    <path d="M 179.819 -206.91 L 179.863 -206.91" />
    <path d="M 179.863 -206.91 L 179.863 -206.934" />
    <path d="M 179.863 -206.934 L 179.819 -206.934" />
    <path d="M 179.886 -206.824 L 179.821 -206.825" />
    <path d="M 179.926 -206.814 L 179.811 -206.815" />
    <path d="M 184.028 -206.67 L 184.028 -206.801" />
    <path d="M 184.038 -206.67 L 184.038 -206.809" />
    <path d="M 184.038 -206.809 L 183.988 -206.81" />
    <path d="M 184.574 -206.8 L 184.712 -206.799" />
    <path d="M 184.564 -206.668 L 184.564 -206.808" />
    <path d="M 184.028 -206.672 L 184.038 -206.672" />
    <path d="M 184.614 -206.81 L 184.702 -206.809" />
    <path d="M 184.574 -206.671 L 184.564 -206.671" />
    <path d="M 184.712 -206.799 L 184.712 -206.98" />
    <path d="M 184.702 -206.809 L 184.702 -206.99" />
    <path d="M 180.043 -206.609 L 180.311 -206.608" />
    <path d="M 180.044 -206.657 L 180.311 -206.656" />
    <path d="M 180.546 -206.655 L 180.813 -206.654" />
    <path d="M 179.606 -207.048 L 179.606 -207.217" />
    <path d="M 179.654 -207.048 L 179.654 -207.217" />
    <path d="M 182.053 -206.858 L 182.765 -206.855" />
    <path d="M 182.052 -206.602 L 182.291 -206.602" />
    <path d="M 179.822 -207.376 L 179.823 -208.09" />
    <path d="M 179.812 -207.336 L 179.813 -208.09" />
    <path d="M 181.856 -206.818 L 180.972 -206.821" />
    <path d="M 180.932 -206.811 L 181.896 -206.808" />
    <path d="M 179.936 -206.864 L 180.922 -206.861" />
    <path d="M 182.053 -206.65 L 182.291 -206.65" />
    <path d="M 182.526 -206.601 L 182.764 -206.6" />
    <path d="M 182.526 -206.649 L 182.764 -206.648" />
    <path d="M 183.988 -206.812 L 182.962 -206.815" />
    <path d="M 182.922 -206.805 L 184.028 -206.801" />
    <path d="M 184.185 -206.851 L 184.417 -206.85" />
    <path d="M 184.185 -206.596 L 184.416 -206.595" />
    <path d="M 184.185 -206.644 L 184.416 -206.643" />
    <path d="M 179.874 -206.605 L 179.874 -206.681 L 179.893 -206.681 L 179.893 -206.605" />
    <path d="M 180.983 -206.602 L 180.983 -206.678 L 180.963 -206.678 L 180.963 -206.602" />
    <path d="M 179.603 -206.878 L 179.679 -206.878 L 179.679 -206.897 L 179.603 -206.897" />
    <path d="M 179.603 -207.387 L 179.678 -207.387 L 179.678 -207.368 L 179.603 -207.368" />
    <path d="M 179.681 -208.474 L 179.821 -208.474" />
    <path d="M 179.821 -208.424 L 179.823 -208.424" />
    <path d="M 179.821 -208.474 L 179.821 -208.424" />
    <path d="M 179.684 -208.464 L 179.681 -208.464" />
    <path d="M 179.684 -208.464 L 179.684 -208.474" />
    <path d="M 179.609 -209.383 L 179.609 -209.119" />
    <path d="M 179.657 -209.383 L 179.657 -209.119" />
    <path d="M 179.864 -209.383 L 179.863 -208.621" />
    <path d="M 179.608 -208.884 L 179.608 -208.621" />
    <path d="M 179.656 -208.884 L 179.656 -208.621" />
    <path d="M 179.823 -208.09 L 179.823 -208.424" />
    <path d="M 178.628 -196.371 L 178.628 -196.15" />
    <path d="M 178.638 -196.376 L 178.638 -196.142" />
    <path d="M 178.626 -196.09 L 178.626 -196.142" />
    <path d="M 178.638 -196.142 L 178.638 -196.09" />
    <path d="M 178.638 -196.142 L 178.588 -196.142" />
    <path d="M 178.588 -196.142 L 178.588 -196.14" />
    <path d="M 178.605 -196.38 L 178.585 -196.38" />
    <path d="M 178.604 -196.456 L 178.586 -196.456" />
    <path d="M 178.604 -196.38 L 178.586 -196.38" />
    <path d="M 178.604 -196.456 L 178.604 -196.38" />
    <path d="M 180.408 -196.371 L 180.408 -196.15" />
    <path d="M 180.418 -196.376 L 180.418 -196.142" />
    <path d="M 180.406 -196.09 L 180.406 -196.142" />
    <path d="M 180.418 -196.142 L 180.418 -196.09" />
    <path d="M 180.418 -196.142 L 180.368 -196.142" />
    <path d="M 180.368 -196.142 L 180.368 -196.14" />
    <path d="M 180.385 -196.38 L 180.365 -196.38" />
    <path d="M 180.384 -196.456 L 180.366 -196.456" />
    <path d="M 180.384 -196.38 L 180.366 -196.38" />
    <path d="M 180.384 -196.456 L 180.384 -196.38" />
    <path d="M 182.768 -196.371 L 182.768 -196.15" />
    <path d="M 182.778 -196.376 L 182.778 -196.142" />
    <path d="M 182.766 -196.09 L 182.766 -196.142" />
    <path d="M 182.778 -196.142 L 182.778 -196.09" />
    <path d="M 182.778 -196.142 L 182.728 -196.142" />
    <path d="M 182.728 -196.142 L 182.728 -196.14" />
    <path d="M 182.745 -196.38 L 182.725 -196.38" />
    <path d="M 182.744 -196.456 L 182.726 -196.456" />
    <path d="M 182.744 -196.38 L 182.726 -196.38" />
    <path d="M 182.744 -196.456 L 182.744 -196.38" />
    <path d="M 185.148 -196.371 L 185.148 -196.15" />
    <path d="M 185.158 -196.376 L 185.158 -196.142" />
    <path d="M 185.146 -196.09 L 185.146 -196.142" />
    <path d="M 185.158 -196.142 L 185.158 -196.09" />
    <path d="M 185.158 -196.142 L 185.108 -196.142" />
    <path d="M 185.108 -196.142 L 185.108 -196.14" />
    <path d="M 185.125 -196.38 L 185.105 -196.38" />
    <path d="M 185.124 -196.456 L 185.106 -196.456" />
    <path d="M 185.124 -196.38 L 185.106 -196.38" />
    <path d="M 185.124 -196.456 L 185.124 -196.38" />
    <path d="M 179.716 -196.37 L 179.716 -196.15" />
    <path d="M 179.706 -196.376 L 179.706 -196.142" />
    <path d="M 179.718 -196.09 L 179.718 -196.142" />
    <path d="M 179.706 -196.142 L 179.706 -196.09" />
    <path d="M 179.706 -196.142 L 179.756 -196.142" />
    <path d="M 179.756 -196.142 L 179.756 -196.14" />
    <path d="M 179.736 -196.38 L 179.756 -196.38" />
    <path d="M 179.739 -196.456 L 179.756 -196.456" />
    <path d="M 179.739 -196.38 L 179.756 -196.38" />
    <path d="M 179.739 -196.456 L 179.739 -196.38" />
    <path d="M 181.496 -196.37 L 181.496 -196.15" />
    <path d="M 181.486 -196.376 L 181.486 -196.142" />
    <path d="M 181.498 -196.09 L 181.498 -196.142" />
    <path d="M 181.486 -196.142 L 181.486 -196.09" />
    <path d="M 181.486 -196.142 L 181.536 -196.142" />
    <path d="M 181.536 -196.142 L 181.536 -196.14" />
    <path d="M 181.516 -196.38 L 181.536 -196.38" />
    <path d="M 181.519 -196.456 L 181.536 -196.456" />
    <path d="M 181.519 -196.38 L 181.536 -196.38" />
    <path d="M 181.519 -196.456 L 181.519 -196.38" />
    <path d="M 183.856 -196.37 L 183.856 -196.15" />
    <path d="M 183.846 -196.376 L 183.846 -196.142" />
    <path d="M 183.858 -196.09 L 183.858 -196.142" />
    <path d="M 183.846 -196.142 L 183.846 -196.09" />
    <path d="M 183.846 -196.142 L 183.896 -196.142" />
    <path d="M 183.896 -196.142 L 183.896 -196.14" />
    <path d="M 183.876 -196.38 L 183.896 -196.38" />
    <path d="M 183.879 -196.456 L 183.896 -196.456" />
    <path d="M 183.879 -196.38 L 183.896 -196.38" />
    <path d="M 183.879 -196.456 L 183.879 -196.38" />
    <path d="M 186.236 -196.37 L 186.236 -196.15" />
    <path d="M 186.226 -196.376 L 186.226 -196.142" />
    <path d="M 186.238 -196.09 L 186.238 -196.142" />
    <path d="M 186.226 -196.142 L 186.226 -196.09" />
    <path d="M 186.226 -196.142 L 186.276 -196.142" />
    <path d="M 186.276 -196.142 L 186.276 -196.14" />
    <path d="M 186.256 -196.38 L 186.276 -196.38" />
    <path d="M 186.259 -196.456 L 186.276 -196.456" />
    <path d="M 186.259 -196.38 L 186.276 -196.38" />
    <path d="M 186.259 -196.456 L 186.259 -196.38" />
    <path d="M 178.626 -196.09 L 179.718 -196.09" />
    <path d="M 180.406 -196.09 L 181.498 -196.09" />
    <path d="M 182.766 -196.09 L 183.858 -196.09" />
    <path d="M 185.146 -196.09 L 186.238 -196.09" />
    <path d="M 178.755 -196.404 L 179.055 -196.404" />
    <path d="M 179.29 -196.404 L 179.589 -196.404" />
    <path d="M 178.755 -196.408 L 179.055 -196.408" />
    <path d="M 179.29 -196.408 L 179.589 -196.408" />
    <path d="M 178.755 -196.426 L 179.055 -196.426" />
    <path d="M 179.29 -196.426 L 179.589 -196.426" />
    <path d="M 178.755 -196.43 L 179.055 -196.43" />
    <path d="M 179.29 -196.43 L 179.589 -196.43" />
    <path d="M 178.755 -196.448 L 179.055 -196.448" />
    <path d="M 179.29 -196.448 L 179.589 -196.448" />
    <path d="M 178.755 -196.452 L 179.055 -196.452" />
    <path d="M 179.29 -196.452 L 179.589 -196.452" />
    <path d="M 180.535 -196.404 L 180.835 -196.404" />
    <path d="M 181.07 -196.404 L 181.369 -196.404" />
    <path d="M 180.535 -196.408 L 180.835 -196.408" />
    <path d="M 181.07 -196.408 L 181.369 -196.408" />
    <path d="M 180.535 -196.426 L 180.835 -196.426" />
    <path d="M 181.07 -196.426 L 181.369 -196.426" />
    <path d="M 180.535 -196.43 L 180.835 -196.43" />
    <path d="M 181.07 -196.43 L 181.369 -196.43" />
    <path d="M 180.535 -196.448 L 180.835 -196.448" />
    <path d="M 181.07 -196.448 L 181.369 -196.448" />
    <path d="M 180.535 -196.452 L 180.835 -196.452" />
    <path d="M 181.07 -196.452 L 181.369 -196.452" />
    <path d="M 182.895 -196.404 L 183.195 -196.404" />
    <path d="M 183.43 -196.404 L 183.729 -196.404" />
    <path d="M 182.895 -196.408 L 183.195 -196.408" />
    <path d="M 183.43 -196.408 L 183.729 -196.408" />
    <path d="M 182.895 -196.426 L 183.195 -196.426" />
    <path d="M 183.43 -196.426 L 183.729 -196.426" />
    <path d="M 182.895 -196.43 L 183.195 -196.43" />
    <path d="M 183.43 -196.43 L 183.729 -196.43" />
    <path d="M 182.895 -196.448 L 183.195 -196.448" />
    <path d="M 183.43 -196.448 L 183.729 -196.448" />
    <path d="M 182.895 -196.452 L 183.195 -196.452" />
    <path d="M 183.43 -196.452 L 183.729 -196.452" />
    <path d="M 185.275 -196.404 L 185.575 -196.404" />
    <path d="M 185.81 -196.404 L 186.109 -196.404" />
    <path d="M 185.275 -196.408 L 185.575 -196.408" />
    <path d="M 185.81 -196.408 L 186.109 -196.408" />
    <path d="M 185.275 -196.426 L 185.575 -196.426" />
    <path d="M 185.81 -196.426 L 186.109 -196.426" />
    <path d="M 185.275 -196.43 L 185.575 -196.43" />
    <path d="M 185.81 -196.43 L 186.109 -196.43" />
    <path d="M 185.275 -196.448 L 185.575 -196.448" />
    <path d="M 185.81 -196.448 L 186.109 -196.448" />
    <path d="M 185.275 -196.452 L 185.575 -196.452" />
    <path d="M 185.81 -196.452 L 186.109 -196.452" />
    <path d="M 177.826 -196.14 L 178.588 -196.14" />
    <path d="M 178.628 -196.15 L 177.786 -196.15" />
    <path d="M 179.756 -196.14 L 180.368 -196.14" />
    <path d="M 180.408 -196.15 L 179.716 -196.15" />
    <path d="M 181.536 -196.14 L 182.728 -196.14" />
    <path d="M 182.768 -196.15 L 181.496 -196.15" />
    <path d="M 183.896 -196.14 L 185.108 -196.14" />
    <path d="M 183.856 -196.15 L 185.148 -196.15" />
    <path d="M 186.276 -196.14 L 187.318 -196.14" />
    <path d="M 186.236 -196.15 L 187.358 -196.15" />
    <path d="M 180.976 -206.582 L 181.827 -206.577" />
    <path d="M 182.997 -206.571 L 183.958 -206.566" />
    <path d="M 184.608 -206.562 L 184.982 -206.56" />
    <path d="M 179.681 -206.589 L 179.893 -206.588" />
    <path d="M 179.681 -206.439 L 179.893 -206.438" />
    <path d="M 186.851 -200.49 L 186.851 -196.92" />
    <path d="M 186.826 -200.49 L 186.826 -196.92" />
    <path d="M 186.696 -200.49 L 186.696 -196.91" />
    <path d="M 186.721 -200.49 L 186.721 -196.91" />
    <path d="M 186.736 -196.92 L 186.736 -196.91" />
    <path d="M 178.316 -196.91 L 178.316 -202.17" />
    <path d="M 178.291 -196.91 L 178.291 -202.17" />
    <path d="M 183.229 -200.46 L 183.229 -200.585" />
    <path d="M 184.114 -200.46 L 184.114 -200.585" />
    <path d="M 178.206 -196.91 L 178.206 -202.17" />
    <path d="M 186.696 -200.46 L 184.114 -200.46" />
    <path d="M 186.696 -200.485 L 184.114 -200.485" />
    <path d="M 183.229 -200.46 L 182.156 -200.46" />
    <path d="M 183.229 -200.485 L 182.156 -200.485" />
    <path d="M 183.229 -200.585 L 182.156 -200.585" />
    <path d="M 183.229 -200.56 L 182.156 -200.56" />
    <path d="M 181.131 -205.99 L 181.131 -202.97" />
    <path d="M 181.106 -205.99 L 181.106 -202.97" />
    <path d="M 180.976 -205.99 L 180.976 -202.97" />
    <path d="M 181.001 -205.99 L 181.001 -202.97" />
    <path d="M 181.156 -202.97 L 181.156 -203.14" />
    <path d="M 179.086 -207.885 L 175.766 -207.885" />
    <path d="M 179.086 -207.91 L 175.766 -207.91" />
    <path d="M 177.911 -208.01 L 176.651 -208.01" />
    <path d="M 179.086 -205.99 L 179.576 -205.99" />
    <path d="M 186.846 -200.46 L 189.434 -200.46" />
    <path d="M 186.846 -200.485 L 189.434 -200.485" />
    <path d="M 178.206 -202.14 L 178.206 -202.17" />
    <path d="M 179.893 -206.438 L 179.893 -206.588" />
    <path d="M 182.156 -202.11 L 181.856 -202.11" />
    <path d="M 177.911 -208.235 L 177.911 -208.01" />
    <path d="M 179.086 -208.26 L 178.436 -208.26" />
    <path d="M 177.986 -208.26 L 177.886 -208.26" />
    <path d="M 177.961 -208.235 L 177.911 -208.235" />
    <path d="M 180.546 -206.607 L 180.813 -206.606" />
    <path d="M 183.321 -202.59 L 183.321 -205.99" />
    <path d="M 183.516 -202.59 L 183.516 -203.33" />
    <path d="M 183.346 -202.59 L 183.346 -205.99" />
    <path d="M 183.446 -203.43 L 183.446 -204.39" />
    <path d="M 184.426 -203.455 L 184.426 -203.33" />
    <path d="M 183.471 -203.455 L 184.426 -203.455" />
    <path d="M 183.446 -203.43 L 184.426 -203.43" />
    <path d="M 183.346 -203.33 L 184.426 -203.33" />
    <path d="M 183.346 -203.355 L 184.426 -203.355" />
    <path d="M 185.186 -203.33 L 185.186 -203.455" />
    <path d="M 185.186 -203.33 L 185.316 -203.33" />
    <path d="M 185.186 -203.355 L 185.316 -203.355" />
    <path d="M 185.186 -203.455 L 185.316 -203.455" />
    <path d="M 185.186 -203.429 L 185.316 -203.429" />
    <path d="M 183.471 -203.455 L 183.471 -204.365" />
    <path d="M 183.696 -204.465 L 184.381 -204.465" />
    <path d="M 183.671 -204.44 L 184.356 -204.44" />
    <path d="M 183.471 -204.365 L 184.381 -204.365" />
    <path d="M 183.446 -204.39 L 184.356 -204.39" />
    <path d="M 183.696 -204.465 L 183.696 -204.67" />
    <path d="M 183.696 -205.12 L 183.696 -205.99" />
    <path d="M 183.671 -204.44 L 183.671 -204.645" />
    <path d="M 183.671 -205.145 L 183.671 -205.99" />
    <path d="M 184.381 -204.365 L 184.381 -203.455" />
    <path d="M 184.373 -204.365 L 184.373 -203.455" />
    <path d="M 184.381 -204.465 L 184.381 -204.365" />
    <path d="M 184.356 -204.465 L 184.356 -204.365" />
    <path d="M 183.246 -202.22 L 183.201 -202.22" />
    <path d="M 183.246 -202.59 L 183.201 -202.59" />
    <path d="M 184.114 -200.585 L 185.186 -200.585" />
    <path d="M 184.114 -200.56 L 185.186 -200.56" />
    <path d="M 178.436 -208.035 L 177.986 -208.035" />
    <path d="M 178.461 -208.01 L 177.961 -208.01" />
    <path d="M 177.986 -208.26 L 177.986 -208.035" />
    <path d="M 177.961 -208.235 L 177.961 -208.01" />
    <path d="M 178.436 -208.26 L 178.436 -208.035" />
    <path d="M 178.461 -208.235 L 178.461 -208.01" />
    <path d="M 178.461 -208.235 L 179.086 -208.235" />
    <path d="M 183.471 -204.67 L 183.471 -205.12" />
    <path d="M 183.446 -204.645 L 183.446 -205.145" />
    <path d="M 183.696 -205.12 L 183.471 -205.12" />
    <path d="M 183.671 -205.145 L 183.446 -205.145" />
    <path d="M 183.696 -204.67 L 183.471 -204.67" />
    <path d="M 183.671 -204.645 L 183.446 -204.645" />
    <path d="M 181.156 -203.14 L 181.131 -203.14" />
    <path d="M 179.453 -206.878 L 179.453 -206.84" />
    <path d="M 179.583 -206.84 L 179.583 -206.878" />
    <path d="M 184.702 -206.99 L 186.916 -206.99" />
    <path d="M 184.712 -206.98 L 186.956 -206.98" />
    <path d="M 186.916 -206.23 L 186.916 -206.75" />
    <path d="M 186.966 -206.837 L 186.966 -206.988" />
    <path d="M 186.916 -206.988 L 186.916 -206.99" />
    <path d="M 186.956 -206.837 L 186.956 -206.98" />
    <path d="M 186.917 -206.761 L 186.917 -206.837 L 186.937 -206.837 L 186.937 -206.761" />
    <path d="M 187.087 -206.786 L 187.623 -206.785" />
    <path d="M 187.087 -206.79 L 187.623 -206.789" />
    <path d="M 187.087 -206.808 L 187.623 -206.807" />
    <path d="M 187.087 -206.812 L 187.623 -206.811" />
    <path d="M 186.916 -206.988 L 186.966 -206.988" />
    <path d="M 186.954 -207.028 L 186.954 -206.988" />
    <path d="M 186.954 -207.028 L 187.758 -207.028" />
    <path d="M 186.966 -206.988 L 186.966 -207.028" />
    <path d="M 186.956 -206.841 L 186.966 -206.841" />
    <path d="M 187.087 -206.764 L 187.623 -206.763" />
    <path d="M 187.087 -206.768 L 187.623 -206.767" />
  </g>
</svg>
