<?xml version="1.0" encoding="UTF-8"?>
<svg xmlns="http://www.w3.org/2000/svg" viewBox="169.06 191.06 35.88 48.88" aria-hidden="true">
  <style>
    path,
    circle {
      fill: none;
      stroke: #007AFF;
      stroke-width: 1.55;
      stroke-linecap: round;
      stroke-linejoin: round;
      vector-effect: non-scaling-stroke;
    }
  </style>
  <g transform="scale(1 -1)">
    <path d="M 174.386 -225.39 L 174.386 -225.99" />
    <path d="M 174.416 -213.11 L 174.416 -210.82" />
    <path d="M 179.666 -211.279 L 179.666 -210.82" />
    <path d="M 179.666 -210.82 L 175.491 -210.82" />
    <path d="M 174.571 -210.82 L 174.416 -210.82" />
    <path d="M 175.491 -210.82 L 175.491 -210.7" />
    <path d="M 174.571 -210.82 L 174.571 -210.7" />
    <path d="M 180.191 -210.7 L 180.196 -211.379" />
    <path d="M 180.419 -210.7 L 180.425 -211.443" />
    <path d="M 180.429 -210.7 L 180.434 -211.403" />
    <path d="M 178.526 -225.99 L 178.526 -225.39" />
    <path d="M 179.666 -211.23 L 179.666 -212.61" />
    <path d="M 174.516 -218.29 L 174.516 -217.06" />
    <path d="M 174.516 -216.43 L 174.516 -213.39" />
    <path d="M 180.227 -212.344 L 180.221 -211.602" />
    <path d="M 180.269 -211.602 L 180.275 -212.344" />
    <path d="M 179.666 -213.11 L 179.666 -212.658" />
    <path d="M 179.666 -213.11 L 179.376 -213.11" />
    <path d="M 178.686 -213.11 L 175.486 -213.11" />
    <path d="M 180.066 -212.658 L 179.666 -212.658" />
    <path d="M 174.566 -213.11 L 174.416 -213.11" />
    <path d="M 175.646 -213.39 L 175.486 -213.39" />
    <path d="M 174.566 -213.39 L 174.516 -213.39" />
    <path d="M 175.646 -213.64 L 177.876 -213.64" />
    <path d="M 174.386 -225.39 L 174.386 -220.8" />
    <path d="M 174.386 -221.9 L 174.386 -218.69" />
    <path d="M 180 -227.01 L 178.896 -227.01" />
    <path d="M 178.806 -231.8 L 178.806 -231.08" />
    <path d="M 178.716 -231.8 L 178.716 -231.08" />
    <path d="M 178.806 -229.08 L 178.806 -227.4" />
    <path d="M 178.716 -229.08 L 178.716 -227.4" />
    <path d="M 180 -227.4 L 178.806 -227.4" />
    <path d="M 178.896 -227.01 L 178.896 -225.39" />
    <path d="M 178.796 -221.74 L 178.796 -220.8" />
    <path d="M 178.796 -221.74 L 178.796 -220.69" />
    <path d="M 178.526 -225.79 L 177.471 -225.79" />
    <path d="M 175.571 -225.79 L 174.386 -225.79" />
    <path d="M 178.896 -225.39 L 177.471 -225.39" />
    <path d="M 175.571 -225.39 L 174.386 -225.39" />
    <path d="M 175.571 -225.79 L 175.571 -225.39" />
    <path d="M 177.471 -225.79 L 177.471 -225.39" />
    <path d="M 174.386 -225.79 L 174.386 -231.8" />
    <path d="M 178.526 -225.99 L 178.526 -229.08" />
    <path d="M 178.616 -227.4 L 178.616 -229.08" />
    <path d="M 178.526 -231.08 L 178.526 -231.8" />
    <path d="M 178.616 -231.08 L 178.616 -231.8" />
    <path d="M 178.9 -218.69 L 175.466 -218.69" />
    <path d="M 178.9 -220.69 L 178.796 -220.69" />
    <path d="M 174.566 -218.69 L 174.386 -218.69" />
    <path d="M 174.566 -218.69 L 174.566 -218.29" />
    <path d="M 175.466 -218.69 L 175.466 -218.29" />
    <path d="M 178.856 -218.29 L 175.466 -218.29" />
    <path d="M 178.856 -217.66 L 178.9 -217.66" />
    <path d="M 174.566 -218.29 L 174.516 -218.29" />
    <path d="M 174.246 -217.06 L 174.246 -216.43" />
    <path d="M 178.856 -218.29 L 178.856 -217.66" />
    <path d="M 179.416 -216.528 L 179.993 -216.528" />
    <path d="M 174.516 -216.43 L 174.246 -216.43" />
    <path d="M 174.516 -217.06 L 174.246 -217.06" />
    <path d="M 174.516 -217.06 L 174.516 -216.43" />
    <path d="M 177.876 -213.64 L 177.876 -213.39" />
    <path d="M 175.646 -213.64 L 175.646 -213.39" />
    <path d="M 179.416 -216.528 L 179.416 -215.813" />
    <path d="M 179.416 -214.643 L 179.416 -214.134" />
    <path d="M 179.416 -213.764 L 179.416 -213.39" />
    <path d="M 177.876 -213.39 L 179.416 -213.39" />
    <path d="M 179.416 -215.813 L 179.982 -215.813" />
    <path d="M 179.416 -214.643 L 179.963 -214.643" />
    <path d="M 175.486 -213.39 L 175.486 -213.11" />
    <path d="M 174.566 -213.39 L 174.566 -213.11" />
    <path d="M 179.596 -221.74 L 178.796 -221.74" />
    <path d="M 179.596 -221.74 L 178.796 -221.74" />
    <path d="M 179.746 -221.61 L 179.746 -221.6" />
    <path d="M 179.746 -221.61 L 179.746 -221.6" />
    <path d="M 179.596 -221.74 L 179.746 -221.74" />
    <path d="M 179.596 -221.74 L 179.746 -221.74" />
    <path d="M 179.746 -221.74 L 179.746 -221.61" />
    <path d="M 179.746 -221.74 L 179.746 -221.61" />
    <path d="M 179.596 -221.74 L 179.746 -221.61" />
    <path d="M 179.596 -221.74 L 179.746 -221.61" />
    <path d="M 180.066 -212.557 L 180.206 -212.557" />
    <path d="M 180.066 -212.557 L 180.066 -212.658" />
    <path d="M 179.794 -214.134 L 179.416 -214.134" />
    <path d="M 179.791 -213.764 L 179.416 -213.764" />
    <path d="M 179.671 -214.134 L 179.671 -213.764" />
    <path d="M 179.794 -214.059 L 179.954 -214.059" />
    <path d="M 179.791 -213.839 L 179.951 -213.839" />
    <path d="M 179.794 -214.059 L 179.794 -214.134" />
    <path d="M 179.791 -213.839 L 179.791 -213.764" />
    <path d="M 180.206 -212.557 L 180.215 -213.619" />
    <path d="M 179.948 -213.619 L 179.951 -213.839" />
    <path d="M 179.954 -214.059 L 179.963 -214.643" />
    <path d="M 179.982 -215.813 L 179.993 -216.528" />
    <path d="M 180.215 -213.619 L 179.948 -213.619" />
    <path d="M 180.455 -213.872 L 180.192 -213.877" />
    <path d="M 180.445 -213.862 L 180.182 -213.867" />
    <path d="M 180.219 -215.933 L 180.216 -215.756" />
    <path d="M 180.229 -215.932 L 180.226 -215.796" />
    <path d="M 180.445 -213.862 L 180.433 -212.499" />
    <path d="M 180.455 -213.872 L 180.444 -212.539" />
    <path d="M 180.193 -214.503 L 180.196 -214.679" />
    <path d="M 180.192 -213.877 L 180.206 -214.639" />
    <path d="M 180.204 -214.639 L 180.205 -214.689" />
    <path d="M 180.196 -214.679 L 180.067 -214.682" />
    <path d="M 180.205 -214.689 L 180.068 -214.692" />
    <path d="M 180.206 -214.639 L 180.204 -214.639" />
    <path d="M 180.227 -216.42 L 180.231 -216.597" />
    <path d="M 180.237 -216.42 L 180.24 -216.557" />
    <path d="M 180.238 -216.557 L 180.239 -216.607" />
    <path d="M 180.231 -216.597 L 180.102 -216.599" />
    <path d="M 180.239 -216.607 L 180.102 -216.609" />
    <path d="M 180.24 -216.557 L 180.238 -216.557" />
    <path d="M 180.237 -216.42 L 180.229 -215.932" />
    <path d="M 180.227 -216.42 L 180.219 -215.933" />
    <path d="M 180.084 -217.2 L 180.084 -217.18" />
    <path d="M 180.036 -217.2 L 180.036 -217.181" />
    <path d="M 180.291 -217.2 L 180.283 -216.753" />
    <path d="M 180.08 -216.945 L 180.076 -216.757" />
    <path d="M 180.032 -216.946 L 180.028 -216.758" />
    <path d="M 180.263 -215.598 L 180.249 -214.836" />
    <path d="M 180.056 -215.601 L 180.051 -215.338" />
    <path d="M 180.003 -215.338 L 180.008 -215.602" />
    <path d="M 179.994 -214.84 L 179.999 -215.104" />
    <path d="M 180.042 -214.839 L 180.047 -215.103" />
    <path d="M 180.193 -214.506 L 180.182 -213.867" />
    <path d="M 179.376 -213.11 L 179.376 -213.39" />
    <path d="M 178.686 -213.11 L 178.686 -213.39" />
    <path d="M 179.376 -213.11 L 178.686 -213.11" />
    <path d="M 179.376 -213.39 L 178.686 -213.39" />
    <path d="M 178.921 -225.245 L 180 -225.245" />
    <path d="M 178.921 -225.27 L 180 -225.27" />
    <path d="M 178.921 -225.37 L 180 -225.37" />
    <path d="M 178.921 -225.345 L 180 -225.345" />
    <path d="M 178.806 -229.08 L 178.716 -229.08" />
    <path d="M 178.616 -229.08 L 178.526 -229.08" />
    <path d="M 178.806 -231.08 L 178.716 -231.08" />
    <path d="M 178.616 -231.08 L 178.526 -231.08" />
    <path d="M 178.496 -225.79 L 178.496 -231.8" />
    <path d="M 178.571 -229.08 L 178.571 -231.08" />
    <path d="M 178.836 -227.4 L 178.836 -231.8" />
    <path d="M 178.761 -229.08 L 178.761 -231.08" />
    <path d="M 178.766 -220.8 L 178.766 -225.39" />
    <path d="M 178.766 -220.66 L 178.766 -221.9" />
    <path d="M 178.791 -220.8 L 178.791 -225.39" />
    <path d="M 178.791 -220.66 L 178.791 -221.9" />
    <path d="M 178.921 -221.74 L 178.921 -225.39" />
    <path d="M 178.921 -221.74 L 178.921 -221.9" />
    <path d="M 178.896 -221.74 L 178.896 -225.39" />
    <path d="M 178.896 -221.74 L 178.896 -221.9" />
    <path d="M 178.9 -220.66 L 178.766 -220.66" />
    <path d="M 178.896 -225.39 L 178.921 -225.39" />
    <path d="M 174.566 -218.29 L 174.566 -218.69" />
    <path d="M 178.716 -227.4 L 178.616 -227.4" />
    <path d="M 178.496 -229.08 L 178.571 -229.08" />
    <path d="M 178.761 -229.08 L 178.836 -229.08" />
    <path d="M 179.416 -214.134 L 179.416 -213.764" />
    <path d="M 180.056 -211.279 L 179.666 -211.279" />
    <path d="M 180.056 -211.379 L 180.196 -211.379" />
    <path d="M 180.056 -211.379 L 180.056 -211.279" />
    <path d="M 177.756 -216.415 L 177.756 -217.1" />
    <path d="M 177.731 -216.39 L 177.731 -217.075" />
    <path d="M 177.656 -216.19 L 177.656 -217.1" />
    <path d="M 177.681 -216.165 L 177.681 -217.075" />
    <path d="M 176.746 -216.19 L 176.746 -217.1" />
    <path d="M 176.721 -216.165 L 176.721 -217.075" />
    <path d="M 176.646 -216.19 L 176.646 -217.1" />
    <path d="M 176.671 -216.165 L 176.671 -217.075" />
    <path d="M 176.746 -216.19 L 177.656 -216.19" />
    <path d="M 176.721 -216.165 L 177.681 -216.165" />
    <path d="M 175.851 -218.288 L 175.851 -218.09" />
    <path d="M 175.826 -218.288 L 175.826 -218.09" />
    <path d="M 175.726 -218.288 L 175.726 -218.09" />
    <path d="M 175.751 -218.288 L 175.751 -218.09" />
    <path d="M 175.726 -216.19 L 175.726 -215.91" />
    <path d="M 175.751 -217.33 L 175.751 -217.025" />
    <path d="M 175.751 -216.165 L 175.751 -215.91" />
    <path d="M 175.726 -215.025 L 175.726 -213.64" />
    <path d="M 175.946 -217.1 L 175.946 -216.19" />
    <path d="M 175.921 -217.075 L 175.921 -216.19" />
    <path d="M 175.726 -217.33 L 175.726 -217" />
    <path d="M 175.751 -215.025 L 175.751 -213.64" />
    <path d="M 175.726 -218.09 L 175.851 -218.09" />
    <path d="M 175.726 -217.33 L 175.851 -217.33" />
    <path d="M 177.756 -216.415 L 177.961 -216.415" />
    <path d="M 177.731 -216.39 L 177.936 -216.39" />
    <path d="M 175.851 -213.64 L 175.851 -215.025" />
    <path d="M 175.826 -213.64 L 175.826 -215.025" />
    <path d="M 175.851 -215.91 L 175.851 -216.04" />
    <path d="M 175.826 -215.91 L 175.826 -216.065" />
    <path d="M 175.851 -217.1 L 175.851 -217.33" />
    <path d="M 175.826 -217.075 L 175.826 -217.33" />
    <path d="M 177.961 -216.19 L 178.411 -216.19" />
    <path d="M 177.936 -216.165 L 178.436 -216.165" />
    <path d="M 175.851 -216.04 L 179.321 -216.04" />
    <path d="M 175.726 -216.19 L 176.646 -216.19" />
    <path d="M 175.751 -216.165 L 176.671 -216.165" />
    <path d="M 177.756 -217.1 L 177.656 -217.1" />
    <path d="M 177.756 -217.075 L 177.656 -217.075" />
    <path d="M 176.646 -217.1 L 176.746 -217.1" />
    <path d="M 176.646 -217.075 L 176.746 -217.075" />
    <path d="M 175.726 -215.91 L 175.851 -215.91" />
    <path d="M 175.726 -215.025 L 175.851 -215.025" />
    <path d="M 179.416 -216.04 L 175.851 -216.04" />
    <path d="M 179.416 -216.065 L 175.826 -216.065" />
    <path d="M 178.411 -216.415 L 178.411 -216.19" />
    <path d="M 178.436 -216.39 L 178.436 -216.165" />
    <path d="M 177.961 -216.415 L 177.961 -216.19" />
    <path d="M 177.936 -216.39 L 177.936 -216.165" />
    <path d="M 175.946 -217.1 L 175.896 -217.1" />
    <path d="M 175.896 -217.1 L 175.851 -217.1" />
    <path d="M 175.921 -217.075 L 175.826 -217.075" />
    <path d="M 175.921 -217.025 L 175.751 -217.025" />
    <path d="M 175.921 -217 L 175.726 -217" />
    <path d="M 178.411 -216.39 L 179.416 -216.39" />
    <path d="M 178.411 -216.415 L 179.416 -216.415" />
  </g>
</svg>
