<?xml version="1.0" encoding="UTF-8"?>
<svg xmlns="http://www.w3.org/2000/svg" viewBox="169.06 191.06 35.88 48.88" aria-hidden="true">
  <style>
    path,
    circle {
      fill: none;
      stroke: #007AFF;
      stroke-width: 1.55;
      stroke-linecap: round;
      stroke-linejoin: round;
      vector-effect: non-scaling-stroke;
    }
  </style>
  <g transform="scale(1 -1)">
    <path d="M 188.513 -206.56 L 188.81 -206.56" />
    <path d="M 184.982 -206.75 L 186.186 -206.75" />
    <path d="M 187.796 -206.75 L 188.513 -206.75" />
    <path d="M 185.606 -200.88 L 187.966 -200.88" />
    <path d="M 185.606 -206.23 L 186.086 -206.23" />
    <path d="M 187.966 -206.23 L 187.966 -202.04" />
    <path d="M 187.966 -201.11 L 187.966 -200.88" />
    <path d="M 187.966 -201.11 L 188.386 -201.11" />
    <path d="M 187.966 -202.04 L 188.386 -202.04" />
    <path d="M 188.386 -202.19 L 188.386 -202.04" />
    <path d="M 188.386 -201.11 L 188.386 -200.49" />
    <path d="M 186.736 -196.92 L 187.316 -196.92" />
    <path d="M 188.506 -196.92 L 189.626 -196.92" />
    <path d="M 186.276 -196.38 L 187.316 -196.38" />
    <path d="M 188.506 -196.38 L 189.626 -196.38" />
    <path d="M 190.816 -196.38 L 192.046 -196.38" />
    <path d="M 187.931 -200.88 L 187.966 -200.88" />
    <path d="M 189.46 -206.03 L 190.425 -206.03" />
    <path d="M 191.595 -206.03 L 192.316 -206.03" />
    <path d="M 191.386 -202.19 L 191.386 -196.92" />
    <path d="M 187.316 -196.92 L 187.316 -196.38" />
    <path d="M 188.506 -196.92 L 188.506 -196.38" />
    <path d="M 189.626 -196.92 L 189.626 -196.38" />
    <path d="M 190.816 -196.92 L 190.816 -196.38" />
    <path d="M 191.206 -202.19 L 191.386 -202.19" />
    <path d="M 190.276 -202.19 L 190.276 -202.59" />
    <path d="M 191.206 -202.19 L 191.206 -202.59" />
    <path d="M 190.321 -202.19 L 190.321 -202.59" />
    <path d="M 189.296 -202.59 L 190.276 -202.59" />
    <path d="M 191.206 -202.59 L 191.606 -202.59" />
    <path d="M 191.606 -203.11 L 192.316 -203.11" />
    <path d="M 191.606 -202.59 L 191.606 -203.11" />
    <path d="M 192.316 -203.11 L 192.316 -206.03" />
    <path d="M 192.206 -203.11 L 192.206 -206.03" />
    <path d="M 192.231 -203.11 L 192.231 -206.03" />
    <path d="M 191.595 -206.03 L 191.595 -206.551" />
    <path d="M 190.425 -206.03 L 190.425 -206.556" />
    <path d="M 192.456 -206.03 L 192.456 -203.11" />
    <path d="M 192.47 -206.03 L 192.456 -206.03" />
    <path d="M 192.996 -203.11 L 192.456 -203.11" />
    <path d="M 192.47 -206.03 L 192.47 -206.548" />
    <path d="M 192.515 -206.03 L 193.875 -206.03" />
    <path d="M 191.686 -202.19 L 193.446 -202.19" />
    <path d="M 191.686 -196.92 L 191.686 -201.1" />
    <path d="M 191.686 -202.03 L 191.686 -202.19" />
    <path d="M 190.816 -196.92 L 191.386 -196.92" />
    <path d="M 192.046 -196.92 L 191.686 -196.92" />
    <path d="M 192.046 -196.92 L 192.046 -196.38" />
    <path d="M 191.686 -201.1 L 191.686 -202.03" />
    <path d="M 188.81 -206.03 L 188.246 -206.03" />
    <path d="M 188.81 -206.03 L 188.81 -206.56" />
    <path d="M 189.46 -206.03 L 189.46 -206.56" />
    <path d="M 188.386 -202.19 L 188.516 -202.19" />
    <path d="M 189.296 -202.19 L 190.276 -202.19" />
    <path d="M 188.516 -202.19 L 188.516 -202.59" />
    <path d="M 189.296 -202.19 L 189.296 -202.59" />
    <path d="M 188.516 -202.59 L 188.246 -202.59" />
    <path d="M 188.246 -202.59 L 188.246 -206.03" />
    <path d="M 186.086 -206.23 L 186.086 -206.61" />
    <path d="M 186.086 -206.23 L 187.476 -206.23" />
    <path d="M 186.086 -206.61 L 186.186 -206.61" />
    <path d="M 186.186 -206.61 L 186.186 -206.75" />
    <path d="M 185.606 -206.23 L 185.606 -202.02" />
    <path d="M 185.606 -201.1 L 185.606 -200.88" />
    <path d="M 185.606 -201.1 L 185.186 -201.1" />
    <path d="M 185.606 -202.02 L 185.186 -202.02" />
    <path d="M 185.186 -200.49 L 188.386 -200.49" />
    <path d="M 186.736 -196.91 L 186.276 -196.91" />
    <path d="M 186.276 -196.91 L 186.276 -196.38" />
    <path d="M 184.608 -205.99 L 185.316 -205.99" />
    <path d="M 185.054 -202.59 L 185.316 -202.59" />
    <path d="M 185.316 -202.59 L 185.316 -205.99" />
    <path d="M 185.606 -206.23 L 186.086 -206.23" />
    <path d="M 187.796 -206.23 L 187.966 -206.23" />
    <path d="M 186.086 -206.23 L 186.916 -206.23" />
    <path d="M 186.186 -206.75 L 186.916 -206.75" />
    <path d="M 188.513 -206.56 L 188.513 -206.75" />
    <path d="M 189.46 -206.56 L 190.425 -206.556" />
    <path d="M 191.595 -206.551 L 192.47 -206.548" />
    <path d="M 188.733 -206.979 L 187.756 -206.981" />
    <path d="M 188.858 -206.654 L 188.858 -206.794" />
    <path d="M 188.848 -206.786 L 188.733 -206.787" />
    <path d="M 188.808 -206.796 L 188.743 -206.797" />
    <path d="M 188.858 -206.794 L 188.808 -206.794" />
    <path d="M 188.848 -206.654 L 188.848 -206.786" />
    <path d="M 188.808 -206.794 L 188.808 -206.796" />
    <path d="M 188.743 -206.99 L 188.743 -206.797" />
    <path d="M 188.733 -206.979 L 188.733 -206.787" />
    <path d="M 189.384 -206.653 L 189.384 -206.792" />
    <path d="M 190.477 -206.789 L 190.427 -206.789" />
    <path d="M 189.394 -206.655 L 189.384 -206.655" />
    <path d="M 188.848 -206.657 L 188.858 -206.657" />
    <path d="M 189.394 -206.653 L 189.394 -206.784" />
    <path d="M 190.477 -206.649 L 190.477 -206.789" />
    <path d="M 189.434 -206.792 L 189.434 -206.794" />
    <path d="M 189.384 -206.792 L 189.434 -206.792" />
    <path d="M 189.394 -206.784 L 190.467 -206.781" />
    <path d="M 190.427 -206.789 L 190.427 -206.791" />
    <path d="M 191.543 -206.646 L 191.543 -206.778" />
    <path d="M 190.467 -206.649 L 190.467 -206.781" />
    <path d="M 191.533 -206.646 L 191.533 -206.786" />
    <path d="M 190.467 -206.652 L 190.477 -206.652" />
    <path d="M 191.533 -206.786 L 191.583 -206.786" />
    <path d="M 191.583 -206.786 L 191.583 -206.788" />
    <path d="M 191.543 -206.649 L 191.533 -206.649" />
    <path d="M 192.473 -206.783 L 192.523 -206.783" />
    <path d="M 192.473 -206.783 L 192.473 -206.785" />
    <path d="M 192.499 -206.784 L 192.499 -206.828" />
    <path d="M 192.499 -206.828 L 192.523 -206.828" />
    <path d="M 192.523 -206.828 L 192.523 -206.784" />
    <path d="M 192.514 -206.711 L 192.523 -206.715" />
    <path d="M 192.514 -206.696 L 192.523 -206.692" />
    <path d="M 192.522 -206.642 L 192.523 -206.783" />
    <path d="M 192.512 -206.642 L 192.513 -206.775" />
    <path d="M 192.522 -206.647 L 192.512 -206.647" />
    <path d="M 191.583 -206.788 L 192.473 -206.785" />
    <path d="M 191.583 -206.778 L 192.513 -206.775" />
    <path d="M 190.427 -206.791 L 189.434 -206.794" />
    <path d="M 192.523 -206.826 L 193.497 -206.822" />
    <path d="M 190.624 -206.623 L 190.888 -206.623" />
    <path d="M 191.123 -206.622 L 191.386 -206.621" />
    <path d="M 190.625 -206.831 L 191.386 -206.828" />
    <path d="M 189.006 -206.836 L 189.237 -206.835" />
    <path d="M 189.005 -206.628 L 189.237 -206.628" />
    <path d="M 192.46 -206.567 L 192.46 -206.642 L 192.48 -206.642 L 192.48 -206.567" />
    <path d="M 192.631 -206.617 L 192.893 -206.616" />
    <path d="M 187.358 -196.371 L 187.358 -196.15" />
    <path d="M 187.368 -196.376 L 187.368 -196.142" />
    <path d="M 187.356 -196.09 L 187.356 -196.142" />
    <path d="M 187.368 -196.142 L 187.368 -196.09" />
    <path d="M 187.368 -196.142 L 187.318 -196.142" />
    <path d="M 187.318 -196.142 L 187.318 -196.14" />
    <path d="M 187.335 -196.38 L 187.315 -196.38" />
    <path d="M 187.334 -196.456 L 187.316 -196.456" />
    <path d="M 187.334 -196.38 L 187.316 -196.38" />
    <path d="M 187.334 -196.456 L 187.334 -196.38" />
    <path d="M 189.668 -196.371 L 189.668 -196.15" />
    <path d="M 189.678 -196.376 L 189.678 -196.142" />
    <path d="M 189.666 -196.09 L 189.666 -196.142" />
    <path d="M 189.678 -196.142 L 189.678 -196.09" />
    <path d="M 189.678 -196.142 L 189.628 -196.142" />
    <path d="M 189.628 -196.142 L 189.628 -196.14" />
    <path d="M 189.645 -196.38 L 189.625 -196.38" />
    <path d="M 189.644 -196.456 L 189.626 -196.456" />
    <path d="M 189.644 -196.38 L 189.626 -196.38" />
    <path d="M 189.644 -196.456 L 189.644 -196.38" />
    <path d="M 192.088 -196.371 L 192.088 -196.15" />
    <path d="M 192.098 -196.376 L 192.098 -196.142" />
    <path d="M 192.086 -196.09 L 192.086 -196.142" />
    <path d="M 192.098 -196.142 L 192.098 -196.09" />
    <path d="M 192.098 -196.142 L 192.048 -196.142" />
    <path d="M 192.048 -196.142 L 192.048 -196.14" />
    <path d="M 192.065 -196.38 L 192.045 -196.38" />
    <path d="M 192.064 -196.456 L 192.046 -196.456" />
    <path d="M 192.064 -196.38 L 192.046 -196.38" />
    <path d="M 192.064 -196.456 L 192.064 -196.38" />
    <path d="M 186.236 -196.37 L 186.236 -196.15" />
    <path d="M 186.226 -196.376 L 186.226 -196.142" />
    <path d="M 186.238 -196.09 L 186.238 -196.142" />
    <path d="M 186.226 -196.142 L 186.226 -196.09" />
    <path d="M 186.226 -196.142 L 186.276 -196.142" />
    <path d="M 186.276 -196.142 L 186.276 -196.14" />
    <path d="M 186.256 -196.38 L 186.276 -196.38" />
    <path d="M 186.259 -196.456 L 186.276 -196.456" />
    <path d="M 186.259 -196.38 L 186.276 -196.38" />
    <path d="M 186.259 -196.456 L 186.259 -196.38" />
    <path d="M 188.466 -196.37 L 188.466 -196.15" />
    <path d="M 188.456 -196.376 L 188.456 -196.142" />
    <path d="M 188.468 -196.09 L 188.468 -196.142" />
    <path d="M 188.456 -196.142 L 188.456 -196.09" />
    <path d="M 188.456 -196.142 L 188.506 -196.142" />
    <path d="M 188.506 -196.142 L 188.506 -196.14" />
    <path d="M 188.486 -196.38 L 188.506 -196.38" />
    <path d="M 188.489 -196.456 L 188.506 -196.456" />
    <path d="M 188.489 -196.38 L 188.506 -196.38" />
    <path d="M 188.489 -196.456 L 188.489 -196.38" />
    <path d="M 190.776 -196.37 L 190.776 -196.15" />
    <path d="M 190.766 -196.376 L 190.766 -196.142" />
    <path d="M 190.778 -196.09 L 190.778 -196.142" />
    <path d="M 190.766 -196.142 L 190.766 -196.09" />
    <path d="M 190.766 -196.142 L 190.816 -196.142" />
    <path d="M 190.816 -196.142 L 190.816 -196.14" />
    <path d="M 190.796 -196.38 L 190.816 -196.38" />
    <path d="M 190.799 -196.456 L 190.816 -196.456" />
    <path d="M 190.799 -196.38 L 190.816 -196.38" />
    <path d="M 190.799 -196.456 L 190.799 -196.38" />
    <path d="M 185.146 -196.09 L 186.238 -196.09" />
    <path d="M 187.356 -196.09 L 188.468 -196.09" />
    <path d="M 189.666 -196.09 L 190.778 -196.09" />
    <path d="M 192.086 -196.09 L 193.198 -196.09" />
    <path d="M 185.275 -196.404 L 185.575 -196.404" />
    <path d="M 185.81 -196.404 L 186.109 -196.404" />
    <path d="M 185.275 -196.408 L 185.575 -196.408" />
    <path d="M 185.81 -196.408 L 186.109 -196.408" />
    <path d="M 185.275 -196.426 L 185.575 -196.426" />
    <path d="M 185.81 -196.426 L 186.109 -196.426" />
    <path d="M 185.275 -196.43 L 185.575 -196.43" />
    <path d="M 185.81 -196.43 L 186.109 -196.43" />
    <path d="M 185.275 -196.448 L 185.575 -196.448" />
    <path d="M 185.81 -196.448 L 186.109 -196.448" />
    <path d="M 185.275 -196.452 L 185.575 -196.452" />
    <path d="M 185.81 -196.452 L 186.109 -196.452" />
    <path d="M 187.485 -196.404 L 187.795 -196.404" />
    <path d="M 188.03 -196.404 L 188.339 -196.404" />
    <path d="M 187.485 -196.408 L 187.795 -196.408" />
    <path d="M 188.03 -196.408 L 188.339 -196.408" />
    <path d="M 187.485 -196.426 L 187.795 -196.426" />
    <path d="M 188.03 -196.426 L 188.339 -196.426" />
    <path d="M 187.485 -196.43 L 187.795 -196.43" />
    <path d="M 188.03 -196.43 L 188.339 -196.43" />
    <path d="M 187.485 -196.448 L 187.795 -196.448" />
    <path d="M 188.03 -196.448 L 188.339 -196.448" />
    <path d="M 187.485 -196.452 L 187.795 -196.452" />
    <path d="M 188.03 -196.452 L 188.339 -196.452" />
    <path d="M 189.795 -196.404 L 190.105 -196.404" />
    <path d="M 190.34 -196.404 L 190.649 -196.404" />
    <path d="M 189.795 -196.408 L 190.105 -196.408" />
    <path d="M 190.34 -196.408 L 190.649 -196.408" />
    <path d="M 189.795 -196.426 L 190.105 -196.426" />
    <path d="M 190.34 -196.426 L 190.649 -196.426" />
    <path d="M 189.795 -196.43 L 190.105 -196.43" />
    <path d="M 190.34 -196.43 L 190.649 -196.43" />
    <path d="M 189.795 -196.448 L 190.105 -196.448" />
    <path d="M 190.34 -196.448 L 190.649 -196.448" />
    <path d="M 189.795 -196.452 L 190.105 -196.452" />
    <path d="M 190.34 -196.452 L 190.649 -196.452" />
    <path d="M 192.215 -196.404 L 192.525 -196.404" />
    <path d="M 192.76 -196.404 L 193.069 -196.404" />
    <path d="M 192.215 -196.408 L 192.525 -196.408" />
    <path d="M 192.76 -196.408 L 193.069 -196.408" />
    <path d="M 192.215 -196.426 L 192.525 -196.426" />
    <path d="M 192.76 -196.426 L 193.069 -196.426" />
    <path d="M 192.215 -196.43 L 192.525 -196.43" />
    <path d="M 192.76 -196.43 L 193.069 -196.43" />
    <path d="M 192.215 -196.448 L 192.525 -196.448" />
    <path d="M 192.76 -196.448 L 193.069 -196.448" />
    <path d="M 192.215 -196.452 L 192.525 -196.452" />
    <path d="M 192.76 -196.452 L 193.069 -196.452" />
    <path d="M 186.276 -196.14 L 187.318 -196.14" />
    <path d="M 186.236 -196.15 L 187.358 -196.15" />
    <path d="M 188.506 -196.14 L 189.628 -196.14" />
    <path d="M 188.466 -196.15 L 189.668 -196.15" />
    <path d="M 190.816 -196.14 L 192.048 -196.14" />
    <path d="M 192.088 -196.15 L 190.776 -196.15" />
    <path d="M 186.851 -200.49 L 186.851 -196.92" />
    <path d="M 186.826 -200.49 L 186.826 -196.92" />
    <path d="M 186.696 -200.49 L 186.696 -196.91" />
    <path d="M 186.721 -200.49 L 186.721 -196.91" />
    <path d="M 186.736 -196.92 L 186.736 -196.91" />
    <path d="M 186.696 -200.46 L 184.114 -200.46" />
    <path d="M 186.696 -200.485 L 184.114 -200.485" />
    <path d="M 190.319 -200.46 L 190.319 -200.585" />
    <path d="M 189.434 -200.46 L 189.434 -200.585" />
    <path d="M 186.846 -200.46 L 189.434 -200.46" />
    <path d="M 186.846 -200.485 L 189.434 -200.485" />
    <path d="M 190.319 -200.46 L 191.386 -200.46" />
    <path d="M 190.319 -200.485 L 191.386 -200.485" />
    <path d="M 188.386 -200.585 L 189.434 -200.585" />
    <path d="M 188.386 -200.56 L 189.434 -200.56" />
    <path d="M 190.319 -200.585 L 191.386 -200.585" />
    <path d="M 190.319 -200.56 L 191.386 -200.56" />
    <path d="M 190.276 -202.19 L 190.321 -202.19" />
    <path d="M 190.276 -202.59 L 190.321 -202.59" />
    <path d="M 185.186 -203.33 L 185.316 -203.33" />
    <path d="M 185.186 -203.355 L 185.316 -203.355" />
    <path d="M 185.186 -203.455 L 185.316 -203.455" />
    <path d="M 185.186 -203.429 L 185.316 -203.429" />
    <path d="M 190.251 -202.59 L 190.251 -205.99" />
    <path d="M 190.251 -202.59 L 190.251 -206.03" />
    <path d="M 190.226 -202.59 L 190.226 -206.03" />
    <path d="M 190.056 -202.59 L 190.056 -203.33" />
    <path d="M 189.136 -203.455 L 189.136 -203.33" />
    <path d="M 190.101 -203.455 L 189.136 -203.455" />
    <path d="M 190.126 -203.43 L 189.136 -203.43" />
    <path d="M 190.226 -203.33 L 189.136 -203.33" />
    <path d="M 190.226 -203.355 L 189.136 -203.355" />
    <path d="M 188.376 -203.33 L 188.376 -203.455" />
    <path d="M 188.376 -203.33 L 188.246 -203.33" />
    <path d="M 188.376 -203.355 L 188.246 -203.355" />
    <path d="M 188.376 -203.455 L 188.246 -203.455" />
    <path d="M 188.376 -203.43 L 188.246 -203.43" />
    <path d="M 190.101 -203.455 L 190.101 -204.365" />
    <path d="M 190.126 -203.43 L 190.126 -204.39" />
    <path d="M 189.876 -204.465 L 189.191 -204.465" />
    <path d="M 189.901 -204.44 L 189.216 -204.44" />
    <path d="M 190.101 -204.365 L 189.191 -204.365" />
    <path d="M 190.126 -204.39 L 189.216 -204.39" />
    <path d="M 189.876 -204.465 L 189.876 -204.67" />
    <path d="M 189.901 -204.44 L 189.901 -204.645" />
    <path d="M 189.901 -205.145 L 189.901 -206.03" />
    <path d="M 189.191 -204.365 L 189.191 -203.455" />
    <path d="M 189.199 -204.365 L 189.199 -203.455" />
    <path d="M 189.191 -204.465 L 189.191 -204.365" />
    <path d="M 189.216 -204.465 L 189.216 -204.365" />
    <path d="M 190.101 -204.67 L 190.101 -205.12" />
    <path d="M 190.126 -204.645 L 190.126 -205.145" />
    <path d="M 189.876 -205.12 L 190.101 -205.12" />
    <path d="M 189.901 -205.145 L 190.126 -205.145" />
    <path d="M 189.876 -204.67 L 190.101 -204.67" />
    <path d="M 189.901 -204.645 L 190.126 -204.645" />
    <path d="M 189.876 -205.12 L 189.876 -206.03" />
    <path d="M 190.624 -206.575 L 190.887 -206.575" />
    <path d="M 191.122 -206.574 L 191.386 -206.573" />
    <path d="M 189.005 -206.58 L 189.237 -206.58" />
    <path d="M 192.631 -206.569 L 192.893 -206.568" />
    <path d="M 184.702 -206.99 L 186.916 -206.99" />
    <path d="M 184.712 -206.98 L 186.956 -206.98" />
    <path d="M 186.916 -206.23 L 186.916 -206.75" />
    <path d="M 187.796 -206.75 L 187.796 -206.23" />
    <path d="M 187.966 -206.23 L 187.966 -206.75" />
    <path d="M 186.966 -206.837 L 186.966 -206.988" />
    <path d="M 186.916 -206.988 L 186.916 -206.99" />
    <path d="M 186.956 -206.837 L 186.956 -206.98" />
    <path d="M 187.746 -206.988 L 187.746 -206.835" />
    <path d="M 187.796 -206.99 L 187.796 -206.988" />
    <path d="M 187.756 -206.981 L 187.756 -206.835" />
    <path d="M 186.917 -206.761 L 186.917 -206.837 L 186.937 -206.837 L 186.937 -206.761" />
    <path d="M 187.087 -206.786 L 187.623 -206.785" />
    <path d="M 187.087 -206.79 L 187.623 -206.789" />
    <path d="M 187.087 -206.808 L 187.623 -206.807" />
    <path d="M 187.087 -206.812 L 187.623 -206.811" />
    <path d="M 186.916 -206.988 L 186.966 -206.988" />
    <path d="M 186.954 -207.028 L 186.954 -206.988" />
    <path d="M 186.954 -207.028 L 187.758 -207.028" />
    <path d="M 186.966 -206.988 L 186.966 -207.028" />
    <path d="M 187.746 -206.988 L 187.746 -207.028" />
    <path d="M 187.758 -206.988 L 187.758 -207.028" />
    <path d="M 186.956 -206.841 L 186.966 -206.841" />
    <path d="M 187.796 -206.761 L 187.796 -206.837 L 187.776 -206.837 L 187.776 -206.761" />
    <path d="M 187.746 -206.988 L 187.796 -206.988" />
    <path d="M 187.087 -206.764 L 187.623 -206.763" />
    <path d="M 187.087 -206.768 L 187.623 -206.767" />
    <path d="M 187.796 -206.99 L 188.743 -206.99" />
  </g>
</svg>
