<?xml version="1.0" encoding="UTF-8"?>
<svg xmlns="http://www.w3.org/2000/svg" viewBox="169.06 191.06 35.88 48.88" aria-hidden="true">
  <style>
    path,
    circle {
      fill: none;
      stroke: #007AFF;
      stroke-width: 1.55;
      stroke-linecap: round;
      stroke-linejoin: round;
      vector-effect: non-scaling-stroke;
    }
  </style>
  <g transform="scale(1 -1)">
    <path d="M 174.416 -213.11 L 174.416 -210.82" />
    <path d="M 179.583 -206.589 L 179.086 -206.589" />
    <path d="M 179.587 -210.302 L 180.187 -210.302" />
    <path d="M 179.666 -211.279 L 179.666 -210.82" />
    <path d="M 179.666 -210.82 L 175.491 -210.82" />
    <path d="M 174.571 -210.82 L 174.416 -210.82" />
    <path d="M 179.681 -206.589 L 179.681 -206.439" />
    <path d="M 179.583 -206.84 L 179.453 -206.84" />
    <path d="M 179.086 -209.596 L 179.586 -209.596" />
    <path d="M 179.086 -208.426 L 179.585 -208.426" />
    <path d="M 179.086 -206.735 L 179.453 -206.735" />
    <path d="M 179.086 -207.405 L 179.584 -207.405" />
    <path d="M 179.453 -206.84 L 179.453 -206.735" />
    <path d="M 180.976 -205.99 L 180.976 -206.582" />
    <path d="M 179.576 -205.99 L 179.576 -206.439" />
    <path d="M 179.681 -206.439 L 179.576 -206.439" />
    <path d="M 178.036 -202.14 L 178.036 -196.91" />
    <path d="M 174.296 -202.14 L 174.296 -196.91" />
    <path d="M 174.571 -210.54 L 174.546 -210.54" />
    <path d="M 179.086 -210.54 L 177.886 -210.54" />
    <path d="M 179.086 -209.63 L 177.886 -209.63" />
    <path d="M 175.666 -210.54 L 175.491 -210.54" />
    <path d="M 175.491 -210.82 L 175.491 -210.54" />
    <path d="M 174.571 -210.82 L 174.571 -210.54" />
    <path d="M 180.776 -202.97 L 180.776 -202.56" />
    <path d="M 179.086 -210.54 L 179.086 -209.596" />
    <path d="M 178.321 -209.638 L 178.321 -209.63" />
    <path d="M 179.086 -208.426 L 179.086 -207.405" />
    <path d="M 177.886 -210.54 L 177.886 -210.28" />
    <path d="M 174.546 -210.54 L 174.546 -205.95" />
    <path d="M 177.886 -210.28 L 175.666 -210.28" />
    <path d="M 179.086 -206.735 L 179.086 -205.99" />
    <path d="M 174.436 -205.95 L 174.436 -202.56" />
    <path d="M 175.506 -202.56 L 180.776 -202.56" />
    <path d="M 180.776 -202.97 L 181.156 -202.97" />
    <path d="M 174.596 -202.56 L 174.436 -202.56" />
    <path d="M 174.546 -205.95 L 174.436 -205.95" />
    <path d="M 174.596 -202.56 L 174.596 -202.14" />
    <path d="M 175.506 -202.56 L 175.506 -202.14" />
    <path d="M 178.206 -202.14 L 175.506 -202.14" />
    <path d="M 174.596 -202.14 L 174.296 -202.14" />
    <path d="M 182.156 -201.18 L 182.156 -196.91" />
    <path d="M 182.156 -202.11 L 182.156 -202.22" />
    <path d="M 182.156 -202.11 L 181.856 -202.11" />
    <path d="M 182.156 -201.18 L 181.856 -201.18" />
    <path d="M 181.856 -196.91 L 181.856 -201.18" />
    <path d="M 181.856 -202.11 L 181.856 -202.17" />
    <path d="M 178.206 -202.17 L 178.206 -196.91" />
    <path d="M 178.206 -202.17 L 181.856 -202.17" />
    <path d="M 182.316 -202.22 L 182.156 -202.22" />
    <path d="M 182.316 -202.22 L 182.316 -202.59" />
    <path d="M 182.316 -202.59 L 181.966 -202.59" />
    <path d="M 181.966 -202.59 L 181.966 -203.14" />
    <path d="M 181.966 -203.14 L 181.156 -203.14" />
    <path d="M 181.827 -205.99 L 181.827 -206.577" />
    <path d="M 180.976 -205.99 L 181.827 -205.99" />
    <path d="M 176.04 -202.26 L 176.29 -202.26 L 176.29 -202.39 L 176.04 -202.39 L 176.04 -202.26 Z" />
    <path d="M 176.348 -202.26 L 176.598 -202.26 L 176.598 -202.39 L 176.348 -202.39 L 176.348 -202.26 Z" />
    <path d="M 177.971 -202.286 L 178.221 -202.286 L 178.221 -202.416 L 177.971 -202.416 L 177.971 -202.286 Z" />
    <path d="M 178.331 -202.293 L 178.581 -202.293 L 178.581 -202.423 L 178.331 -202.423 L 178.331 -202.293 Z" />
    <path d="M 179.583 -206.589 L 179.583 -206.84" />
    <path d="M 179.584 -207.405 L 179.585 -208.426" />
    <path d="M 179.586 -209.596 L 179.587 -210.302" />
    <path d="M 180.187 -210.302 L 180.196 -211.379" />
    <path d="M 179.681 -206.589 L 179.583 -206.589" />
    <path d="M 179.583 -206.84 L 179.583 -206.735" />
    <path d="M 179.873 -206.438 L 179.873 -206.588" />
    <path d="M 179.936 -206.866 L 179.936 -206.822" />
    <path d="M 181.896 -206.676 L 181.896 -206.808" />
    <path d="M 181.906 -206.676 L 181.906 -206.816" />
    <path d="M 181.856 -206.816 L 181.856 -206.818" />
    <path d="M 181.906 -206.816 L 181.856 -206.816" />
    <path d="M 181.896 -206.679 L 181.906 -206.679" />
    <path d="M 180.946 -206.819 L 180.946 -206.863" />
    <path d="M 179.886 -206.822 L 179.936 -206.822" />
    <path d="M 179.886 -206.822 L 179.886 -206.824" />
    <path d="M 179.912 -206.822 L 179.912 -206.866" />
    <path d="M 179.912 -206.866 L 179.936 -206.866" />
    <path d="M 179.909 -206.761 L 179.925 -206.761" />
    <path d="M 179.909 -206.761 L 179.909 -206.751" />
    <path d="M 179.909 -206.726 L 179.925 -206.726" />
    <path d="M 179.909 -206.726 L 179.909 -206.736" />
    <path d="M 179.927 -206.751 L 179.935 -206.754" />
    <path d="M 179.927 -206.736 L 179.935 -206.732" />
    <path d="M 179.935 -206.682 L 179.936 -206.822" />
    <path d="M 179.925 -206.682 L 179.926 -206.814" />
    <path d="M 179.935 -206.687 L 179.925 -206.687" />
    <path d="M 180.972 -206.819 L 180.922 -206.819" />
    <path d="M 180.972 -206.819 L 180.972 -206.821" />
    <path d="M 180.946 -206.863 L 180.922 -206.863" />
    <path d="M 180.922 -206.863 L 180.922 -206.819" />
    <path d="M 180.948 -206.757 L 180.932 -206.758" />
    <path d="M 180.948 -206.757 L 180.948 -206.747" />
    <path d="M 180.948 -206.722 L 180.931 -206.723" />
    <path d="M 180.948 -206.722 L 180.948 -206.732" />
    <path d="M 180.93 -206.748 L 180.922 -206.751" />
    <path d="M 180.93 -206.733 L 180.921 -206.729" />
    <path d="M 180.921 -206.679 L 180.922 -206.819" />
    <path d="M 180.931 -206.679 L 180.932 -206.811" />
    <path d="M 180.921 -206.684 L 180.931 -206.684" />
    <path d="M 179.821 -206.889 L 179.821 -206.825" />
    <path d="M 179.811 -206.929 L 179.811 -206.815" />
    <path d="M 179.679 -207.326 L 179.82 -207.326" />
    <path d="M 179.679 -207.336 L 179.812 -207.336" />
    <path d="M 179.592 -207.541 L 179.812 -207.541" />
    <path d="M 179.82 -207.376 L 179.822 -207.376" />
    <path d="M 179.82 -207.326 L 179.82 -207.376" />
    <path d="M 179.682 -207.336 L 179.679 -207.336" />
    <path d="M 179.683 -207.336 L 179.683 -207.326" />
    <path d="M 179.82 -207.355 L 179.864 -207.355" />
    <path d="M 179.864 -207.355 L 179.864 -207.331" />
    <path d="M 179.864 -207.331 L 179.82 -207.331" />
    <path d="M 179.583 -206.878 L 179.453 -206.878" />
    <path d="M 179.862 -207.331 L 179.861 -206.934" />
    <path d="M 179.678 -206.939 L 179.819 -206.939" />
    <path d="M 179.678 -206.929 L 179.811 -206.929" />
    <path d="M 179.819 -206.889 L 179.821 -206.889" />
    <path d="M 179.819 -206.939 L 179.819 -206.889" />
    <path d="M 179.681 -206.929 L 179.678 -206.929" />
    <path d="M 179.682 -206.929 L 179.682 -206.939" />
    <path d="M 179.819 -206.91 L 179.863 -206.91" />
    <path d="M 179.863 -206.91 L 179.863 -206.934" />
    <path d="M 179.863 -206.934 L 179.819 -206.934" />
    <path d="M 179.886 -206.824 L 179.821 -206.825" />
    <path d="M 179.926 -206.814 L 179.811 -206.815" />
    <path d="M 180.043 -206.609 L 180.311 -206.608" />
    <path d="M 180.044 -206.657 L 180.311 -206.656" />
    <path d="M 180.546 -206.655 L 180.813 -206.654" />
    <path d="M 179.606 -207.048 L 179.606 -207.217" />
    <path d="M 179.654 -207.048 L 179.654 -207.217" />
    <path d="M 182.053 -206.858 L 182.765 -206.855" />
    <path d="M 182.052 -206.602 L 182.291 -206.602" />
    <path d="M 179.822 -207.376 L 179.823 -208.09" />
    <path d="M 179.812 -207.336 L 179.813 -208.09" />
    <path d="M 181.856 -206.818 L 180.972 -206.821" />
    <path d="M 180.932 -206.811 L 181.896 -206.808" />
    <path d="M 179.936 -206.864 L 180.922 -206.861" />
    <path d="M 182.053 -206.65 L 182.291 -206.65" />
    <path d="M 179.874 -206.605 L 179.874 -206.681 L 179.893 -206.681 L 179.893 -206.605" />
    <path d="M 180.983 -206.602 L 180.983 -206.678 L 180.963 -206.678 L 180.963 -206.602" />
    <path d="M 179.603 -206.878 L 179.679 -206.878 L 179.679 -206.897 L 179.603 -206.897" />
    <path d="M 179.603 -207.387 L 179.678 -207.387 L 179.678 -207.368 L 179.603 -207.368" />
    <path d="M 179.681 -208.474 L 179.821 -208.474" />
    <path d="M 179.821 -208.424 L 179.823 -208.424" />
    <path d="M 179.821 -208.474 L 179.821 -208.424" />
    <path d="M 179.684 -208.464 L 179.681 -208.464" />
    <path d="M 179.684 -208.464 L 179.684 -208.474" />
    <path d="M 179.824 -209.58 L 179.825 -210.039" />
    <path d="M 180.423 -210.04 L 179.825 -210.039" />
    <path d="M 180.413 -210.05 L 179.815 -210.049" />
    <path d="M 180.413 -210.05 L 180.425 -211.443" />
    <path d="M 180.423 -210.04 L 180.434 -211.403" />
    <path d="M 179.609 -209.383 L 179.609 -209.119" />
    <path d="M 179.657 -209.383 L 179.657 -209.119" />
    <path d="M 179.864 -209.383 L 179.863 -208.621" />
    <path d="M 179.608 -208.884 L 179.608 -208.621" />
    <path d="M 179.656 -208.884 L 179.656 -208.621" />
    <path d="M 179.823 -208.09 L 179.823 -208.424" />
    <path d="M 180.976 -206.582 L 181.827 -206.577" />
    <path d="M 179.681 -206.589 L 179.893 -206.588" />
    <path d="M 179.681 -206.439 L 179.893 -206.438" />
    <path d="M 179.683 -209.53 L 179.822 -209.53" />
    <path d="M 179.822 -209.58 L 179.824 -209.58" />
    <path d="M 179.822 -209.53 L 179.822 -209.58" />
    <path d="M 179.685 -209.54 L 179.683 -209.54" />
    <path d="M 179.685 -209.54 L 179.685 -209.53" />
    <path d="M 178.316 -196.91 L 178.316 -202.17" />
    <path d="M 178.291 -196.91 L 178.291 -202.17" />
    <path d="M 178.206 -196.91 L 178.206 -202.17" />
    <path d="M 183.229 -200.46 L 182.156 -200.46" />
    <path d="M 183.229 -200.485 L 182.156 -200.485" />
    <path d="M 183.229 -200.585 L 182.156 -200.585" />
    <path d="M 183.229 -200.56 L 182.156 -200.56" />
    <path d="M 181.131 -205.99 L 181.131 -202.97" />
    <path d="M 181.106 -205.99 L 181.106 -202.97" />
    <path d="M 180.976 -205.99 L 180.976 -202.97" />
    <path d="M 181.001 -205.99 L 181.001 -202.97" />
    <path d="M 181.156 -202.97 L 181.156 -203.14" />
    <path d="M 175.666 -210.28 L 175.666 -210.54" />
    <path d="M 176.551 -208.806 L 176.676 -208.806" />
    <path d="M 176.551 -209.566 L 176.676 -209.566" />
    <path d="M 176.676 -208.035 L 176.676 -208.806" />
    <path d="M 176.651 -208.01 L 176.651 -208.806" />
    <path d="M 179.086 -209.63 L 177.886 -209.63" />
    <path d="M 179.086 -209.638 L 177.886 -209.638" />
    <path d="M 176.676 -209.566 L 176.676 -210.28" />
    <path d="M 176.651 -209.566 L 176.651 -210.28" />
    <path d="M 176.551 -207.91 L 176.551 -208.806" />
    <path d="M 176.576 -207.91 L 176.576 -208.806" />
    <path d="M 176.551 -209.566 L 176.551 -210.28" />
    <path d="M 176.576 -209.566 L 176.576 -210.28" />
    <path d="M 177.886 -209.63 L 177.886 -210.28" />
    <path d="M 177.861 -209.655 L 177.861 -210.28" />
    <path d="M 177.736 -209.63 L 177.736 -210.28" />
    <path d="M 177.761 -209.655 L 177.761 -210.28" />
    <path d="M 177.886 -209.63 L 177.736 -209.63" />
    <path d="M 177.886 -209.655 L 177.736 -209.655" />
    <path d="M 179.086 -207.885 L 175.766 -207.885" />
    <path d="M 176.551 -208.08 L 175.766 -208.08" />
    <path d="M 175.766 -208.68 L 175.641 -208.68" />
    <path d="M 175.766 -208.655 L 175.641 -208.655" />
    <path d="M 177.886 -208.035 L 176.676 -208.035" />
    <path d="M 179.086 -207.91 L 175.766 -207.91" />
    <path d="M 177.911 -208.01 L 176.651 -208.01" />
    <path d="M 175.766 -207.235 L 175.641 -207.235" />
    <path d="M 175.766 -207.26 L 175.641 -207.26" />
    <path d="M 175.641 -207.235 L 175.641 -208.68" />
    <path d="M 175.666 -207.26 L 175.666 -208.655" />
    <path d="M 175.766 -207.235 L 175.766 -208.68" />
    <path d="M 175.741 -207.26 L 175.741 -208.655" />
    <path d="M 179.086 -205.99 L 179.576 -205.99" />
    <path d="M 178.206 -202.14 L 178.206 -202.17" />
    <path d="M 179.893 -206.438 L 179.893 -206.588" />
    <path d="M 182.156 -202.11 L 181.856 -202.11" />
    <path d="M 178.326 -209.638 L 178.326 -209.63" />
    <path d="M 177.886 -208.26 L 177.886 -208.035" />
    <path d="M 177.911 -208.235 L 177.911 -208.01" />
    <path d="M 179.086 -208.26 L 178.436 -208.26" />
    <path d="M 177.986 -208.26 L 177.886 -208.26" />
    <path d="M 177.961 -208.235 L 177.911 -208.235" />
    <path d="M 180.546 -206.607 L 180.813 -206.606" />
    <path d="M 178.436 -208.035 L 177.986 -208.035" />
    <path d="M 178.461 -208.01 L 177.961 -208.01" />
    <path d="M 177.986 -208.26 L 177.986 -208.035" />
    <path d="M 177.961 -208.235 L 177.961 -208.01" />
    <path d="M 178.436 -208.26 L 178.436 -208.035" />
    <path d="M 178.461 -208.235 L 178.461 -208.01" />
    <path d="M 178.461 -208.235 L 179.086 -208.235" />
    <path d="M 181.156 -203.14 L 181.131 -203.14" />
    <path d="M 179.086 -209.63 L 177.886 -209.63" />
    <path d="M 179.453 -206.878 L 179.453 -206.84" />
    <path d="M 179.583 -206.84 L 179.583 -206.878" />
    <path d="M 179.666 -211.23 L 179.666 -212.61" />
    <path d="M 180.227 -212.344 L 180.221 -211.602" />
    <path d="M 180.269 -211.602 L 180.275 -212.344" />
    <path d="M 179.666 -213.11 L 179.666 -212.658" />
    <path d="M 180.066 -212.658 L 179.666 -212.658" />
    <path d="M 180.066 -212.557 L 180.206 -212.557" />
    <path d="M 180.066 -212.557 L 180.066 -212.658" />
    <path d="M 180.206 -212.557 L 180.215 -213.619" />
    <path d="M 180.445 -213.862 L 180.433 -212.499" />
    <path d="M 180.455 -213.872 L 180.444 -212.539" />
    <path d="M 180.056 -211.279 L 179.666 -211.279" />
    <path d="M 180.056 -211.379 L 180.196 -211.379" />
    <path d="M 180.056 -211.379 L 180.056 -211.279" />
  </g>
</svg>
