<?xml version="1.0" encoding="UTF-8"?>
<svg xmlns="http://www.w3.org/2000/svg" viewBox="169.06 191.06 35.88 48.88" aria-hidden="true">
  <style>
    path,
    circle {
      fill: none;
      stroke: #007AFF;
      stroke-width: 1.55;
      stroke-linecap: round;
      stroke-linejoin: round;
      vector-effect: non-scaling-stroke;
    }
  </style>
  <g transform="scale(1 -1)">
    <path d="M 178.526 -225.99 L 178.526 -225.39" />
    <path d="M 185.476 -226.91 L 185.476 -226.65" />
    <path d="M 185.476 -225.49 L 185.476 -221.37" />
    <path d="M 186.014 -221.37 L 186.014 -220.839" />
    <path d="M 185.046 -223.39 L 185.046 -221.25" />
    <path d="M 178.694 -233.65 L 178.694 -233.53" />
    <path d="M 178.193 -233.53 L 178.694 -233.53" />
    <path d="M 179.461 -220.709 L 180.159 -220.709" />
    <path d="M 180.799 -220.709 L 181.528 -220.709" />
    <path d="M 182.708 -220.709 L 183.434 -220.709" />
    <path d="M 184.614 -220.709 L 186.014 -220.709" />
    <path d="M 185.476 -221.37 L 185.951 -221.37" />
    <path d="M 186.906 -232.97 L 186.906 -228.59" />
    <path d="M 183.003 -233.53 L 183.661 -233.53" />
    <path d="M 186.061 -233.53 L 187.478 -233.53" />
    <path d="M 183.003 -234.826 L 190.588 -234.826" />
    <path d="M 178.694 -234.866 L 178.694 -234.215" />
    <path d="M 183.003 -234.866 L 183.003 -234.466" />
    <path d="M 181.146 -234.586 L 180.509 -234.586" />
    <path d="M 179.329 -234.586 L 178.947 -234.586" />
    <path d="M 178.947 -234.586 L 178.947 -234.215" />
    <path d="M 178.947 -233.535 L 178.947 -232.97" />
    <path d="M 182.713 -233.54 L 182.713 -232.97" />
    <path d="M 181.146 -234.866 L 181.146 -234.586" />
    <path d="M 178.947 -234.215 L 178.694 -234.215" />
    <path d="M 178.694 -234.866 L 179.329 -234.866" />
    <path d="M 180.509 -234.866 L 181.146 -234.866" />
    <path d="M 178.844 -233.535 L 178.844 -233.65" />
    <path d="M 178.844 -233.65 L 178.694 -233.65" />
    <path d="M 178.947 -233.535 L 178.844 -233.535" />
    <path d="M 182.326 -234.586 L 182.326 -234.866" />
    <path d="M 179.329 -234.866 L 179.329 -234.586" />
    <path d="M 180.509 -234.586 L 180.509 -234.866" />
    <path d="M 182.713 -233.54 L 182.863 -233.54" />
    <path d="M 182.713 -234.466 L 183.003 -234.466" />
    <path d="M 185.476 -226.65 L 185.046 -226.65" />
    <path d="M 185.476 -225.49 L 185.046 -225.49" />
    <path d="M 185.476 -225.64 L 185.046 -225.64" />
    <path d="M 185.046 -225.49 L 185.046 -225.34" />
    <path d="M 185.046 -226.65 L 185.046 -227.01" />
    <path d="M 186.061 -232.97 L 186.061 -233.53" />
    <path d="M 183.661 -232.97 L 183.661 -233.53" />
    <path d="M 186.596 -232.97 L 186.061 -232.97" />
    <path d="M 183.661 -232.97 L 182.926 -232.97" />
    <path d="M 178.947 -232.97 L 178.806 -232.97" />
    <path d="M 185.046 -227.01 L 184.706 -227.01" />
    <path d="M 184.706 -227.01 L 184.706 -227.4" />
    <path d="M 183.786 -227.01 L 183.786 -227.4" />
    <path d="M 185.306 -227.4 L 184.706 -227.4" />
    <path d="M 185.306 -227.4 L 185.306 -228.59" />
    <path d="M 186.596 -228.59 L 186.596 -232.97" />
    <path d="M 186.596 -228.59 L 185.306 -228.59" />
    <path d="M 183.786 -227.01 L 181.296 -227.01" />
    <path d="M 180.046 -227.01 L 178.896 -227.01" />
    <path d="M 180.046 -227.01 L 180.046 -227.4" />
    <path d="M 181.296 -227.01 L 181.296 -227.4" />
    <path d="M 178.806 -232.97 L 178.806 -231.08" />
    <path d="M 178.716 -232.84 L 178.716 -231.08" />
    <path d="M 178.806 -229.08 L 178.806 -227.4" />
    <path d="M 178.716 -229.08 L 178.716 -227.4" />
    <path d="M 183.786 -227.4 L 182.926 -227.4" />
    <path d="M 182.856 -227.4 L 181.296 -227.4" />
    <path d="M 180.046 -227.4 L 178.806 -227.4" />
    <path d="M 182.713 -232.97 L 182.856 -232.97" />
    <path d="M 182.326 -234.866 L 183.003 -234.866" />
    <path d="M 182.326 -234.586 L 182.713 -234.586" />
    <path d="M 182.713 -234.466 L 182.713 -234.586" />
    <path d="M 182.856 -232.97 L 182.856 -231.04" />
    <path d="M 182.856 -229.31 L 182.856 -227.4" />
    <path d="M 182.856 -229.31 L 182.926 -229.31" />
    <path d="M 182.856 -231.04 L 182.926 -231.04" />
    <path d="M 182.926 -227.4 L 182.926 -229.31" />
    <path d="M 182.926 -231.04 L 182.926 -232.97" />
    <path d="M 185.046 -221.25 L 184.614 -221.25" />
    <path d="M 183.434 -221.25 L 182.708 -221.25" />
    <path d="M 180.159 -221.25 L 179.746 -221.25" />
    <path d="M 181.528 -221.25 L 181.528 -220.709" />
    <path d="M 182.708 -221.25 L 182.708 -220.709" />
    <path d="M 184.614 -221.25 L 184.614 -220.709" />
    <path d="M 185.046 -225.34 L 184.926 -225.34" />
    <path d="M 185.046 -223.39 L 184.926 -223.39" />
    <path d="M 184.926 -225.34 L 184.926 -223.39" />
    <path d="M 178.896 -227.01 L 178.896 -225.39" />
    <path d="M 178.796 -221.74 L 178.796 -220.69" />
    <path d="M 178.526 -225.79 L 177.471 -225.79" />
    <path d="M 178.896 -225.39 L 177.471 -225.39" />
    <path d="M 178.526 -232.84 L 178.193 -232.84" />
    <path d="M 178.526 -225.99 L 178.526 -229.08" />
    <path d="M 178.616 -227.4 L 178.616 -229.08" />
    <path d="M 178.526 -231.08 L 178.526 -232.84" />
    <path d="M 178.616 -231.08 L 178.616 -232.84" />
    <path d="M 178.193 -232.84 L 178.193 -233.53" />
    <path d="M 179.186 -218.759 L 179.448 -218.759" />
    <path d="M 179.186 -220.643 L 179.186 -220.69" />
    <path d="M 179.186 -220.69 L 178.796 -220.69" />
    <path d="M 178.856 -217.66 L 180.01 -217.66" />
    <path d="M 178.856 -218.29 L 178.856 -217.66" />
    <path d="M 185.476 -226.91 L 185.916 -226.91" />
    <path d="M 186.106 -220.839 L 186.106 -220.709" />
    <path d="M 186.104 -220.839 L 186.014 -220.839" />
    <path d="M 179.596 -221.74 L 178.796 -221.74" />
    <path d="M 179.746 -221.61 L 179.746 -221.25" />
    <path d="M 180.159 -221.25 L 180.159 -220.709" />
    <path d="M 180.799 -221.25 L 180.799 -220.709" />
    <path d="M 180.799 -221.25 L 181.528 -221.25" />
    <path d="M 179.596 -221.74 L 179.746 -221.74" />
    <path d="M 179.746 -221.74 L 179.746 -221.61" />
    <path d="M 179.596 -221.74 L 179.746 -221.61" />
    <path d="M 187.656 -228.12 L 185.916 -228.12" />
    <path d="M 185.916 -226.91 L 185.916 -228.12" />
    <path d="M 183.234 -227.135 L 183.484 -227.135 L 183.484 -227.265 L 183.234 -227.265 L 183.234 -227.135 Z" />
    <path d="M 182.412 -227.119 L 182.662 -227.119 L 182.662 -227.249 L 182.412 -227.249 L 182.412 -227.119 Z" />
    <path d="M 182.012 -227.119 L 182.262 -227.119 L 182.262 -227.249 L 182.012 -227.249 L 182.012 -227.119 Z" />
    <path d="M 179.133 -221.139 L 179.495 -221.139 L 179.495 -221.543 L 179.133 -221.543" />
    <path d="M 186.014 -220.709 L 186.106 -220.709" />
    <path d="M 180.01 -217.628 L 180.019 -218.213" />
    <path d="M 180.019 -218.213 L 179.444 -218.213" />
    <path d="M 179.46 -220.643 L 179.186 -220.643" />
    <path d="M 179.186 -218.759 L 179.186 -218.69" />
    <path d="M 179.741 -220.365 L 179.731 -218.815" />
    <path d="M 179.743 -220.389 L 179.743 -220.365" />
    <path d="M 179.642 -220.393 L 179.642 -220.376" />
    <path d="M 179.642 -220.393 L 179.632 -220.393" />
    <path d="M 179.607 -220.393 L 179.607 -220.376" />
    <path d="M 179.607 -220.393 L 179.617 -220.393" />
    <path d="M 179.632 -220.374 L 179.636 -220.366" />
    <path d="M 179.617 -220.374 L 179.613 -220.366" />
    <path d="M 179.489 -220.397 L 179.561 -220.396" />
    <path d="M 179.694 -220.477 L 179.693 -220.376" />
    <path d="M 179.563 -220.376 L 179.693 -220.376" />
    <path d="M 179.701 -220.415 L 179.703 -220.415" />
    <path d="M 179.563 -220.366 L 179.701 -220.365" />
    <path d="M 179.701 -220.365 L 179.701 -220.415" />
    <path d="M 179.701 -220.365 L 179.743 -220.365" />
    <path d="M 179.701 -220.389 L 179.743 -220.389" />
    <path d="M 179.568 -220.376 L 179.568 -220.366" />
    <path d="M 179.704 -220.467 L 179.703 -220.415" />
    <path d="M 179.487 -220.416 L 179.563 -220.416 L 179.563 -220.396 L 179.487 -220.396" />
    <path d="M 184.55 -220.611 L 184.55 -220.479" />
    <path d="M 184.54 -220.611 L 184.54 -220.471" />
    <path d="M 184.59 -220.471 L 184.59 -220.469" />
    <path d="M 184.59 -220.471 L 184.54 -220.471" />
    <path d="M 180.72 -220.609 L 180.72 -220.478" />
    <path d="M 180.71 -220.609 L 180.71 -220.47" />
    <path d="M 180.76 -220.47 L 180.76 -220.468" />
    <path d="M 180.72 -220.607 L 180.71 -220.607" />
    <path d="M 180.76 -220.47 L 180.71 -220.47" />
    <path d="M 183.474 -220.61 L 183.474 -220.478" />
    <path d="M 183.484 -220.61 L 183.484 -220.47" />
    <path d="M 183.434 -220.47 L 183.434 -220.468" />
    <path d="M 183.434 -220.47 L 183.484 -220.47" />
    <path d="M 181.572 -220.61 L 181.572 -220.478" />
    <path d="M 181.582 -220.61 L 181.582 -220.47" />
    <path d="M 181.532 -220.47 L 181.532 -220.468" />
    <path d="M 181.572 -220.607 L 181.582 -220.607" />
    <path d="M 181.532 -220.47 L 181.582 -220.47" />
    <path d="M 180.224 -220.609 L 180.224 -220.478" />
    <path d="M 180.234 -220.609 L 180.234 -220.47" />
    <path d="M 180.184 -220.47 L 180.184 -220.468" />
    <path d="M 180.224 -220.607 L 180.234 -220.607" />
    <path d="M 180.184 -220.47 L 180.234 -220.47" />
    <path d="M 183.434 -220.468 L 182.688 -220.468" />
    <path d="M 182.648 -220.478 L 183.474 -220.478" />
    <path d="M 181.532 -220.468 L 180.76 -220.468" />
    <path d="M 180.72 -220.478 L 181.572 -220.478" />
    <path d="M 186.094 -220.469 L 184.59 -220.469" />
    <path d="M 184.55 -220.479 L 186.134 -220.479" />
    <path d="M 180.184 -220.468 L 179.704 -220.467" />
    <path d="M 180.184 -220.478 L 179.694 -220.477" />
    <path d="M 180.563 -220.683 L 180.381 -220.683" />
    <path d="M 180.563 -220.635 L 180.381 -220.635" />
    <path d="M 182.491 -220.428 L 181.729 -220.428" />
    <path d="M 187.322 -220.685 L 186.291 -220.685" />
    <path d="M 186.291 -220.637 L 187.322 -220.637" />
    <path d="M 187.323 -220.43 L 186.291 -220.429" />
    <path d="M 184.393 -220.684 L 184.13 -220.684" />
    <path d="M 184.393 -220.636 L 184.13 -220.636" />
    <path d="M 184.393 -220.429 L 183.631 -220.429" />
    <path d="M 183.894 -220.684 L 183.631 -220.684" />
    <path d="M 183.894 -220.636 L 183.631 -220.636" />
    <path d="M 182.491 -220.684 L 182.228 -220.684" />
    <path d="M 182.491 -220.636 L 182.228 -220.636" />
    <path d="M 181.993 -220.684 L 181.729 -220.683" />
    <path d="M 181.729 -220.635 L 181.993 -220.636" />
    <path d="M 180.563 -220.428 L 180.381 -220.428" />
    <path d="M 180.257 -217.613 L 180.256 -217.563" />
    <path d="M 180.248 -217.573 L 180.116 -217.575" />
    <path d="M 180.256 -217.563 L 180.116 -217.565" />
    <path d="M 180.259 -217.613 L 180.257 -217.613" />
    <path d="M 180.264 -218.476 L 180.248 -217.573" />
    <path d="M 180.274 -218.486 L 180.259 -217.613" />
    <path d="M 179.741 -220.365 L 179.731 -218.815" />
    <path d="M 179.632 -218.789 L 179.632 -218.806" />
    <path d="M 179.632 -218.789 L 179.622 -218.789" />
    <path d="M 179.597 -218.789 L 179.597 -218.806" />
    <path d="M 179.597 -218.789 L 179.607 -218.789" />
    <path d="M 179.622 -218.808 L 179.626 -218.816" />
    <path d="M 179.607 -218.808 L 179.603 -218.816" />
    <path d="M 179.553 -218.806 L 179.683 -218.806" />
    <path d="M 179.553 -218.816 L 179.691 -218.815" />
    <path d="M 179.691 -218.815 L 179.69 -218.765" />
    <path d="M 179.69 -218.765 L 179.692 -218.765" />
    <path d="M 179.681 -218.478 L 179.683 -218.806" />
    <path d="M 179.691 -218.488 L 179.692 -218.765" />
    <path d="M 180.274 -218.486 L 179.691 -218.488" />
    <path d="M 180.264 -218.476 L 179.681 -218.478" />
    <path d="M 179.733 -218.791 L 179.733 -218.815" />
    <path d="M 179.691 -218.815 L 179.733 -218.815" />
    <path d="M 179.691 -218.791 L 179.733 -218.791" />
    <path d="M 179.558 -218.816 L 179.558 -218.806" />
    <path d="M 179.538 -220.246 L 179.534 -219.699" />
    <path d="M 179.533 -219.474 L 179.529 -218.937" />
    <path d="M 179.49 -220.246 L 179.486 -219.699" />
    <path d="M 179.476 -218.767 L 179.552 -218.767 L 179.552 -218.786 L 179.476 -218.786" />
    <path d="M 185.046 -225.64 L 185.046 -225.49" />
    <path d="M 185.476 -225.64 L 185.476 -225.49" />
    <path d="M 180.046 -225.37 L 180.046 -225.245" />
    <path d="M 180.021 -225.37 L 180.021 -225.245" />
    <path d="M 178.921 -225.245 L 180.046 -225.245" />
    <path d="M 178.921 -225.27 L 180.021 -225.27" />
    <path d="M 178.921 -225.37 L 180.046 -225.37" />
    <path d="M 178.921 -225.345 L 180.021 -225.345" />
    <path d="M 178.806 -229.08 L 178.716 -229.08" />
    <path d="M 178.616 -229.08 L 178.526 -229.08" />
    <path d="M 178.806 -231.08 L 178.716 -231.08" />
    <path d="M 178.616 -231.08 L 178.526 -231.08" />
    <path d="M 179.459 -220.404 L 179.46 -220.643" />
    <path d="M 179.46 -220.643 L 179.461 -220.709" />
    <path d="M 179.459 -220.417 L 179.186 -220.417" />
    <path d="M 179.448 -218.759 L 179.444 -218.213" />
    <path d="M 179.186 -220.417 L 179.186 -220.643" />
    <path d="M 178.496 -225.79 L 178.496 -232.84" />
    <path d="M 178.571 -229.08 L 178.571 -231.08" />
    <path d="M 178.836 -227.4 L 178.836 -232.97" />
    <path d="M 178.761 -229.08 L 178.761 -231.08" />
    <path d="M 178.766 -220.66 L 178.766 -225.39" />
    <path d="M 178.791 -220.66 L 178.791 -225.39" />
    <path d="M 178.921 -221.74 L 178.921 -225.39" />
    <path d="M 178.896 -221.74 L 178.896 -225.39" />
    <path d="M 179.176 -220.66 L 178.766 -220.66" />
    <path d="M 184.786 -224.385 L 184.786 -224.26" />
    <path d="M 184.026 -224.26 L 184.026 -224.385" />
    <path d="M 182.831 -221.25 L 182.831 -225.245" />
    <path d="M 182.856 -221.25 L 182.856 -225.245" />
    <path d="M 183.026 -224.385 L 183.026 -225.245" />
    <path d="M 182.981 -223.35 L 182.981 -224.26" />
    <path d="M 182.956 -223.325 L 182.956 -224.285" />
    <path d="M 182.981 -224.26 L 184.026 -224.26" />
    <path d="M 182.956 -224.285 L 184.026 -224.285" />
    <path d="M 182.981 -223.35 L 183.891 -223.35" />
    <path d="M 182.956 -223.325 L 183.866 -223.325" />
    <path d="M 183.206 -223.25 L 183.891 -223.25" />
    <path d="M 183.181 -223.275 L 183.866 -223.275" />
    <path d="M 182.956 -224.385 L 184.026 -224.385" />
    <path d="M 182.956 -224.36 L 184.026 -224.36" />
    <path d="M 184.786 -224.26 L 184.926 -224.26" />
    <path d="M 184.786 -224.285 L 184.926 -224.285" />
    <path d="M 184.786 -224.385 L 184.926 -224.385" />
    <path d="M 184.786 -224.36 L 184.926 -224.36" />
    <path d="M 183.786 -225.245 L 183.786 -225.37" />
    <path d="M 184.786 -225.245 L 184.786 -225.37" />
    <path d="M 183.434 -221.25 L 183.434 -220.709" />
    <path d="M 184.786 -225.245 L 184.786 -225.37" />
    <path d="M 184.811 -225.245 L 184.811 -225.37" />
    <path d="M 183.786 -225.245 L 183.786 -225.37" />
    <path d="M 183.761 -225.245 L 183.761 -225.37" />
    <path d="M 184.786 -225.245 L 184.926 -225.245" />
    <path d="M 184.811 -225.27 L 184.926 -225.27" />
    <path d="M 184.786 -225.37 L 185.046 -225.37" />
    <path d="M 184.811 -225.345 L 185.046 -225.345" />
    <path d="M 183.786 -225.245 L 182.831 -225.245" />
    <path d="M 183.761 -225.27 L 182.856 -225.27" />
    <path d="M 183.786 -225.37 L 181.296 -225.37" />
    <path d="M 183.761 -225.345 L 181.321 -225.345" />
    <path d="M 178.896 -225.39 L 178.921 -225.39" />
    <path d="M 182.831 -225.245 L 181.296 -225.245" />
    <path d="M 182.856 -225.27 L 181.321 -225.27" />
    <path d="M 182.279 -235.094 L 183.231 -235.094" />
    <path d="M 178.133 -233.768 L 178.444 -233.768" />
    <path d="M 178.143 -233.758 L 178.143 -233.626" />
    <path d="M 178.133 -233.631 L 178.143 -233.631" />
    <path d="M 178.133 -233.626 L 178.133 -233.768" />
    <path d="M 180.457 -235.094 L 180.457 -234.962" />
    <path d="M 180.447 -234.967 L 180.457 -234.967" />
    <path d="M 180.447 -234.962 L 180.447 -235.104" />
    <path d="M 180.447 -235.104 L 181.213 -235.104" />
    <path d="M 181.213 -235.104 L 181.213 -234.962" />
    <path d="M 181.203 -235.094 L 181.203 -234.962" />
    <path d="M 181.213 -234.967 L 181.203 -234.967" />
    <path d="M 182.279 -235.094 L 182.279 -234.962" />
    <path d="M 182.269 -234.967 L 182.279 -234.967" />
    <path d="M 182.269 -234.962 L 182.269 -235.104" />
    <path d="M 182.269 -235.104 L 183.241 -235.104" />
    <path d="M 179.538 -234.889 L 179.802 -234.889" />
    <path d="M 179.538 -234.937 L 179.802 -234.937" />
    <path d="M 180.037 -234.937 L 180.3 -234.937" />
    <path d="M 180.037 -234.889 L 180.3 -234.889" />
    <path d="M 181.36 -234.889 L 181.623 -234.889" />
    <path d="M 181.36 -235.184 L 182.122 -235.184" />
    <path d="M 181.858 -234.889 L 182.122 -234.889" />
    <path d="M 181.36 -234.937 L 181.623 -234.937" />
    <path d="M 181.858 -234.937 L 182.122 -234.937" />
    <path d="M 178.444 -235.104 L 178.444 -234.154" />
    <path d="M 178.364 -235.184 L 178.364 -233.848" />
    <path d="M 178.444 -233.823 L 178.444 -233.768" />
    <path d="M 178.454 -235.094 L 178.454 -234.164" />
    <path d="M 178.454 -233.813 L 178.454 -233.758" />
    <path d="M 179.391 -235.104 L 179.391 -234.962" />
    <path d="M 179.381 -235.094 L 179.381 -234.962" />
    <path d="M 179.391 -234.967 L 179.381 -234.967" />
    <path d="M 179.391 -235.104 L 178.444 -235.104" />
    <path d="M 179.391 -235.094 L 178.454 -235.094" />
    <path d="M 178.143 -233.758 L 178.454 -233.758" />
    <path d="M 178.844 -233.761 L 178.694 -233.761" />
    <path d="M 178.694 -233.65 L 178.694 -233.761" />
    <path d="M 178.601 -233.823 L 178.601 -233.813" />
    <path d="M 178.454 -234.164 L 178.608 -234.164" />
    <path d="M 178.601 -234.154 L 178.601 -234.164" />
    <path d="M 178.608 -234.154 L 178.444 -234.154" />
    <path d="M 178.683 -233.781 L 178.683 -233.761" />
    <path d="M 178.607 -233.781 L 178.607 -233.761" />
    <path d="M 178.683 -233.761 L 178.607 -233.761" />
    <path d="M 178.607 -233.781 L 178.683 -233.781" />
    <path d="M 178.844 -233.761 L 178.844 -233.65" />
    <path d="M 178.683 -234.191 L 178.683 -234.211" />
    <path d="M 178.607 -234.191 L 178.607 -234.211" />
    <path d="M 178.683 -234.211 L 178.607 -234.211" />
    <path d="M 178.607 -234.191 L 178.683 -234.191" />
    <path d="M 178.632 -233.882 L 178.632 -234.041" />
    <path d="M 178.68 -233.882 L 178.68 -234.041" />
    <path d="M 178.608 -233.823 L 178.444 -233.823" />
    <path d="M 178.608 -233.813 L 178.454 -233.813" />
    <path d="M 179.181 -235.184 L 178.364 -235.184" />
    <path d="M 178.343 -233.848 L 178.364 -233.848" />
    <path d="M 179.538 -235.184 L 180.3 -235.184" />
    <path d="M 180.657 -235.184 L 181.003 -235.184" />
    <path d="M 183.241 -235.104 L 183.241 -234.416" />
    <path d="M 183.241 -233.72 L 183.241 -233.65" />
    <path d="M 183.231 -235.094 L 183.231 -234.426" />
    <path d="M 183.231 -233.71 L 183.231 -233.64" />
    <path d="M 183.003 -233.63 L 183.003 -233.53" />
    <path d="M 182.863 -233.54 L 182.863 -233.658" />
    <path d="M 182.863 -233.658 L 183.003 -233.658" />
    <path d="M 183.003 -233.55 L 183.003 -233.53" />
    <path d="M 183.003 -233.53 L 183.003 -233.658" />
    <path d="M 183.105 -233.72 L 183.105 -233.71" />
    <path d="M 183.023 -233.678 L 183.023 -233.658" />
    <path d="M 183.099 -233.678 L 183.099 -233.658" />
    <path d="M 183.023 -233.658 L 183.099 -233.658" />
    <path d="M 183.099 -233.678 L 183.023 -233.678" />
    <path d="M 183.099 -233.72 L 183.241 -233.72" />
    <path d="M 183.105 -234.416 L 183.105 -234.426" />
    <path d="M 183.023 -234.458 L 183.023 -234.477" />
    <path d="M 183.099 -234.458 L 183.099 -234.477" />
    <path d="M 183.023 -234.477 L 183.099 -234.477" />
    <path d="M 183.099 -234.458 L 183.023 -234.458" />
    <path d="M 183.099 -234.416 L 183.241 -234.416" />
    <path d="M 183.099 -234.426 L 183.231 -234.426" />
    <path d="M 183.099 -233.71 L 183.231 -233.71" />
    <path d="M 183.012 -234.627 L 183.003 -234.627" />
    <path d="M 183.012 -234.477 L 183.003 -234.477" />
    <path d="M 183.012 -233.657 L 183.003 -233.657" />
    <path d="M 183.074 -233.818 L 183.074 -234.308" />
    <path d="M 183.026 -233.818 L 183.026 -234.308" />
    <path d="M 182.479 -235.184 L 191.06 -235.184" />
    <path d="M 183.722 -233.536 L 183.712 -233.536" />
    <path d="M 183.68 -233.454 L 183.66 -233.454" />
    <path d="M 183.68 -233.53 L 183.66 -233.53" />
    <path d="M 183.68 -233.53 L 183.68 -233.454" />
    <path d="M 183.722 -233.53 L 183.722 -233.65" />
    <path d="M 183.712 -233.53 L 183.712 -233.64" />
    <path d="M 185.973 -233.64 L 185.973 -233.53" />
    <path d="M 185.963 -233.536 L 185.973 -233.536" />
    <path d="M 185.963 -233.53 L 185.963 -233.65" />
    <path d="M 186 -233.454 L 186.02 -233.454" />
    <path d="M 186 -233.53 L 186.02 -233.53" />
    <path d="M 186 -233.53 L 186 -233.454" />
    <path d="M 185.446 -233.457 L 185.85 -233.457" />
    <path d="M 185.446 -233.505 L 185.85 -233.505" />
    <path d="M 183.83 -233.457 L 184.234 -233.457" />
    <path d="M 183.83 -233.505 L 184.234 -233.505" />
    <path d="M 184.443 -233.457 L 185.242 -233.457" />
    <path d="M 184.443 -233.505 L 185.242 -233.505" />
    <path d="M 183.231 -233.64 L 183.712 -233.64" />
    <path d="M 183.241 -233.65 L 183.722 -233.65" />
    <path d="M 185.973 -233.64 L 187.549 -233.64" />
    <path d="M 185.963 -233.65 L 187.559 -233.65" />
    <path d="M 179.186 -220.404 L 179.487 -220.404" />
    <path d="M 179.186 -220.417 L 179.186 -220.404" />
    <path d="M 179.485 -219.474 L 179.481 -218.937" />
    <path d="M 181.296 -225.37 L 181.296 -225.245" />
    <path d="M 181.321 -225.37 L 181.321 -225.245" />
    <path d="M 178.616 -232.84 L 178.716 -232.84" />
    <path d="M 178.716 -227.4 L 178.616 -227.4" />
    <path d="M 183.891 -223.35 L 183.891 -223.25" />
    <path d="M 183.866 -223.35 L 183.866 -223.25" />
    <path d="M 183.206 -221.25 L 183.206 -222.54" />
    <path d="M 183.181 -221.25 L 183.181 -222.515" />
    <path d="M 182.856 -229.31 L 182.856 -231.04" />
    <path d="M 182.826 -227.4 L 182.826 -232.97" />
    <path d="M 182.926 -229.31 L 182.926 -231.04" />
    <path d="M 182.956 -227.4 L 182.956 -232.97" />
    <path d="M 178.496 -229.08 L 178.571 -229.08" />
    <path d="M 178.761 -229.08 L 178.836 -229.08" />
    <path d="M 182.981 -222.54 L 182.981 -222.99" />
    <path d="M 182.956 -222.515 L 182.956 -223.015" />
    <path d="M 183.206 -222.99 L 182.981 -222.99" />
    <path d="M 183.181 -223.015 L 182.956 -223.015" />
    <path d="M 183.206 -222.54 L 182.981 -222.54" />
    <path d="M 183.181 -222.515 L 182.956 -222.515" />
    <path d="M 183.206 -222.99 L 183.206 -223.25" />
    <path d="M 183.181 -223.015 L 183.181 -223.275" />
    <path d="M 182.956 -224.385 L 182.956 -224.285" />
  </g>
</svg>
