<?xml version="1.0" encoding="UTF-8"?>
<svg xmlns="http://www.w3.org/2000/svg" viewBox="231.06 191.06 35.88 48.88" aria-hidden="true">
  <style>
    path,
    circle {
      fill: none;
      stroke: #007AFF;
      stroke-width: 1.55;
      stroke-linecap: round;
      stroke-linejoin: round;
      vector-effect: non-scaling-stroke;
    }
  </style>
  <g transform="scale(1 -1)">
    <path d="M 253.454 -196.93 L 253.754 -196.93" />
    <path d="M 247.704 -200.88 L 250.064 -200.88" />
    <path d="M 250.064 -206.23 L 250.064 -202.07" />
    <path d="M 250.064 -201.14 L 250.064 -200.88" />
    <path d="M 250.364 -206.1 L 250.364 -202.64" />
    <path d="M 250.484 -202.24 L 250.484 -202.07" />
    <path d="M 250.484 -201.14 L 250.484 -200.82" />
    <path d="M 250.029 -200.88 L 250.064 -200.88" />
    <path d="M 255.034 -202.61 L 255.034 -203.08" />
    <path d="M 255.034 -203.08 L 254.482 -203.08" />
    <path d="M 250.064 -201.14 L 250.484 -201.14" />
    <path d="M 250.064 -202.07 L 250.484 -202.07" />
    <path d="M 250.484 -200.82 L 250.484 -200.49" />
    <path d="M 250.484 -200.49 L 248.794 -200.49" />
    <path d="M 249.064 -200.49 L 249.064 -196.93" />
    <path d="M 248.794 -196.93 L 249.454 -196.93" />
    <path d="M 250.644 -196.93 L 251.744 -196.93" />
    <path d="M 252.934 -196.93 L 253.454 -196.93" />
    <path d="M 253.454 -196.93 L 253.454 -200.82" />
    <path d="M 252.409 -200.465 L 252.409 -200.59" />
    <path d="M 251.524 -200.465 L 251.524 -200.59" />
    <path d="M 253.454 -200.82 L 253.454 -201.14" />
    <path d="M 253.454 -202.07 L 253.454 -202.24" />
    <path d="M 253.754 -196.93 L 253.754 -201.14" />
    <path d="M 253.754 -202.07 L 253.754 -202.23" />
    <path d="M 253.454 -202.24 L 253.294 -202.24" />
    <path d="M 252.394 -202.24 L 251.364 -202.24" />
    <path d="M 250.634 -202.24 L 250.484 -202.24" />
    <path d="M 253.454 -202.07 L 253.754 -202.07" />
    <path d="M 253.454 -201.14 L 253.754 -201.14" />
    <path d="M 253.754 -202.23 L 257.484 -202.23" />
    <path d="M 253.754 -196.93 L 254.174 -196.93" />
    <path d="M 255.364 -196.93 L 255.944 -196.93" />
    <path d="M 255.944 -196.93 L 255.944 -196.38" />
    <path d="M 254.174 -196.93 L 254.174 -196.38" />
    <path d="M 255.364 -196.93 L 255.364 -196.38" />
    <path d="M 251.744 -196.93 L 251.744 -196.38" />
    <path d="M 252.934 -196.93 L 252.934 -196.38" />
    <path d="M 249.454 -196.93 L 249.454 -196.38" />
    <path d="M 250.644 -196.93 L 250.644 -196.38" />
    <path d="M 253.844 -202.64 L 253.294 -202.64" />
    <path d="M 252.394 -202.64 L 251.364 -202.64" />
    <path d="M 250.634 -202.64 L 250.364 -202.64" />
    <path d="M 252.394 -202.24 L 252.394 -202.64" />
    <path d="M 253.294 -202.24 L 253.294 -202.64" />
    <path d="M 250.634 -202.24 L 250.634 -202.64" />
    <path d="M 251.364 -202.24 L 251.364 -202.64" />
    <path d="M 253.844 -202.64 L 253.844 -203.01" />
    <path d="M 253.844 -203.01 L 254.482 -203.01" />
    <path d="M 255.944 -196.38 L 255.364 -196.38" />
    <path d="M 254.174 -196.38 L 252.934 -196.38" />
    <path d="M 251.744 -196.38 L 250.644 -196.38" />
    <path d="M 248.794 -200.49 L 248.794 -196.93" />
    <path d="M 248.369 -196.93 L 248.369 -196.38" />
    <path d="M 248.369 -196.93 L 248.794 -196.93" />
    <path d="M 248.369 -196.38 L 249.454 -196.38" />
    <path d="M 249.894 -206.23 L 250.064 -206.23" />
    <path d="M 256.574 -208.498 L 256.574 -207.53" />
    <path d="M 254.602 -206.1 L 254.602 -206.547" />
    <path d="M 256.002 -206 L 256.002 -206.402" />
    <path d="M 256.574 -206.79 L 256.018 -206.79" />
    <path d="M 256.574 -206.79 L 256.574 -206" />
    <path d="M 254.602 -206.1 L 253.716 -206.1" />
    <path d="M 252.566 -206.1 L 251.592 -206.1" />
    <path d="M 250.942 -206.1 L 250.364 -206.1" />
    <path d="M 253.716 -206.1 L 253.716 -206.55" />
    <path d="M 252.566 -206.1 L 252.566 -206.557" />
    <path d="M 253.716 -206.1 L 252.566 -206.1" />
    <path d="M 251.592 -206.1 L 251.592 -206.56" />
    <path d="M 250.942 -206.1 L 250.942 -206.558" />
    <path d="M 251.592 -206.1 L 250.942 -206.1" />
    <path d="M 250.636 -206.751 L 250.636 -206.559" />
    <path d="M 250.636 -206.559 L 250.942 -206.558" />
    <path d="M 255.906 -206.543 L 256.019 -206.542" />
    <path d="M 255.906 -206.543 L 255.906 -206.403" />
    <path d="M 255.874 -206.403 L 256.002 -206.402" />
    <path d="M 255.906 -206.403 L 255.692 -206.403" />
    <path d="M 255.692 -206.403 L 255.692 -206.543" />
    <path d="M 255.692 -206.543 L 255.906 -206.543" />
    <path d="M 251.592 -206.56 L 252.566 -206.557" />
    <path d="M 253.716 -206.55 L 254.602 -206.547" />
    <path d="M 250.99 -206.654 L 250.99 -206.794" />
    <path d="M 250.98 -206.786 L 250.864 -206.787" />
    <path d="M 250.94 -206.796 L 250.874 -206.797" />
    <path d="M 250.99 -206.794 L 250.94 -206.794" />
    <path d="M 250.98 -206.654 L 250.98 -206.786" />
    <path d="M 250.94 -206.794 L 250.94 -206.796" />
    <path d="M 250.875 -206.99 L 250.874 -206.797" />
    <path d="M 250.865 -206.98 L 250.864 -206.787" />
    <path d="M 251.516 -206.653 L 251.516 -206.792" />
    <path d="M 252.609 -206.789 L 252.559 -206.789" />
    <path d="M 251.526 -206.655 L 251.516 -206.655" />
    <path d="M 250.98 -206.657 L 250.99 -206.657" />
    <path d="M 251.526 -206.653 L 251.526 -206.784" />
    <path d="M 252.609 -206.649 L 252.609 -206.789" />
    <path d="M 251.566 -206.792 L 251.566 -206.794" />
    <path d="M 251.516 -206.792 L 251.566 -206.792" />
    <path d="M 251.526 -206.784 L 252.599 -206.781" />
    <path d="M 252.559 -206.789 L 252.559 -206.791" />
    <path d="M 253.675 -206.646 L 253.675 -206.778" />
    <path d="M 252.599 -206.649 L 252.599 -206.781" />
    <path d="M 253.665 -206.646 L 253.665 -206.786" />
    <path d="M 252.599 -206.652 L 252.609 -206.652" />
    <path d="M 253.665 -206.786 L 253.715 -206.786" />
    <path d="M 253.715 -206.786 L 253.715 -206.788" />
    <path d="M 253.675 -206.649 L 253.665 -206.649" />
    <path d="M 254.605 -206.783 L 254.655 -206.783" />
    <path d="M 254.605 -206.783 L 254.605 -206.785" />
    <path d="M 254.631 -206.784 L 254.631 -206.828" />
    <path d="M 254.631 -206.828 L 254.655 -206.828" />
    <path d="M 254.655 -206.828 L 254.655 -206.784" />
    <path d="M 254.628 -206.721 L 254.644 -206.721" />
    <path d="M 254.628 -206.721 L 254.628 -206.711" />
    <path d="M 254.627 -206.686 L 254.644 -206.686" />
    <path d="M 254.627 -206.686 L 254.628 -206.696" />
    <path d="M 254.646 -206.711 L 254.654 -206.715" />
    <path d="M 254.646 -206.696 L 254.654 -206.692" />
    <path d="M 254.654 -206.642 L 254.655 -206.783" />
    <path d="M 254.644 -206.642 L 254.645 -206.775" />
    <path d="M 254.654 -206.647 L 254.644 -206.647" />
    <path d="M 253.715 -206.788 L 254.605 -206.785" />
    <path d="M 253.715 -206.778 L 254.645 -206.775" />
    <path d="M 255.678 -206.779 L 255.628 -206.78" />
    <path d="M 255.678 -206.779 L 255.678 -206.781" />
    <path d="M 255.652 -206.78 L 255.653 -206.824" />
    <path d="M 255.653 -206.824 L 255.629 -206.824" />
    <path d="M 255.629 -206.824 L 255.628 -206.78" />
    <path d="M 255.655 -206.718 L 255.638 -206.718" />
    <path d="M 255.655 -206.718 L 255.655 -206.708" />
    <path d="M 255.655 -206.683 L 255.638 -206.683" />
    <path d="M 255.655 -206.683 L 255.655 -206.693" />
    <path d="M 255.636 -206.708 L 255.628 -206.712" />
    <path d="M 255.636 -206.693 L 255.628 -206.689" />
    <path d="M 255.628 -206.639 L 255.628 -206.78" />
    <path d="M 255.638 -206.639 L 255.638 -206.771" />
    <path d="M 255.628 -206.644 L 255.638 -206.644" />
    <path d="M 255.678 -206.781 L 255.743 -206.781" />
    <path d="M 255.638 -206.771 L 255.753 -206.771" />
    <path d="M 252.559 -206.791 L 251.566 -206.794" />
    <path d="M 254.655 -206.826 L 255.629 -206.822" />
    <path d="M 252.756 -206.623 L 253.019 -206.623" />
    <path d="M 253.254 -206.622 L 253.517 -206.621" />
    <path d="M 252.756 -206.831 L 253.518 -206.828" />
    <path d="M 251.137 -206.836 L 251.369 -206.835" />
    <path d="M 251.136 -206.58 L 251.368 -206.58" />
    <path d="M 251.137 -206.628 L 251.368 -206.628" />
    <path d="M 254.592 -206.567 L 254.592 -206.642 L 254.612 -206.642 L 254.612 -206.567" />
    <path d="M 255.689 -206.563 L 255.689 -206.639 L 255.67 -206.639 L 255.67 -206.563" />
    <path d="M 255.87 -206.552 L 255.87 -206.543" />
    <path d="M 255.26 -206.568 L 255.519 -206.567" />
    <path d="M 254.762 -206.569 L 255.025 -206.568" />
    <path d="M 255.26 -206.616 L 255.52 -206.615" />
    <path d="M 254.762 -206.617 L 255.025 -206.616" />
    <path d="M 255.943 -206.653 L 255.99 -206.654" />
    <path d="M 255.756 -207.538 L 255.755 -207.433" />
    <path d="M 255.746 -207.538 L 255.745 -207.473" />
    <path d="M 255.747 -207.473 L 255.747 -207.423" />
    <path d="M 255.755 -207.433 L 255.888 -207.432" />
    <path d="M 255.747 -207.423 L 255.888 -207.422" />
    <path d="M 255.745 -207.473 L 255.747 -207.473" />
    <path d="M 255.883 -207.432 L 255.883 -207.422" />
    <path d="M 255.761 -208.574 L 255.76 -208.397" />
    <path d="M 255.751 -208.534 L 255.75 -208.397" />
    <path d="M 255.753 -208.584 L 255.753 -208.534" />
    <path d="M 255.893 -208.573 L 255.761 -208.574" />
    <path d="M 255.893 -208.583 L 255.753 -208.584" />
    <path d="M 255.753 -208.534 L 255.751 -208.534" />
    <path d="M 255.746 -207.538 L 255.75 -208.397" />
    <path d="M 255.756 -207.538 L 255.76 -208.397" />
    <path d="M 255.747 -207.447 L 255.703 -207.447 L 255.703 -207.423 L 255.747 -207.423" />
    <path d="M 255.89 -208.573 L 255.89 -208.583" />
    <path d="M 255.964 -207.484 L 255.888 -207.484 L 255.888 -207.464 L 255.964 -207.464" />
    <path d="M 255.752 -206.771 L 255.752 -206.886" />
    <path d="M 255.742 -206.781 L 255.742 -206.846" />
    <path d="M 255.744 -206.846 L 255.744 -206.896" />
    <path d="M 255.752 -206.886 L 255.885 -206.886" />
    <path d="M 255.744 -206.896 L 255.885 -206.896" />
    <path d="M 255.742 -206.846 L 255.744 -206.846" />
    <path d="M 255.88 -206.886 L 255.88 -206.896" />
    <path d="M 255.744 -206.872 L 255.7 -206.873 L 255.7 -206.897 L 255.744 -206.896" />
    <path d="M 255.705 -207.423 L 255.702 -206.897" />
    <path d="M 255.961 -206.834 L 255.885 -206.834 L 255.885 -206.853 L 255.961 -206.853" />
    <path d="M 255.91 -207.004 L 255.912 -207.313" />
    <path d="M 255.958 -207.004 L 255.96 -207.313" />
    <path d="M 256.013 -208.5 L 256.574 -208.498" />
    <path d="M 248.329 -196.37 L 248.329 -196.15" />
    <path d="M 248.319 -196.376 L 248.319 -196.142" />
    <path d="M 248.349 -196.38 L 248.369 -196.38" />
    <path d="M 248.352 -196.456 L 248.369 -196.456" />
    <path d="M 248.352 -196.38 L 248.369 -196.38" />
    <path d="M 248.352 -196.456 L 248.352 -196.38" />
    <path d="M 250.604 -196.37 L 250.604 -196.15" />
    <path d="M 250.594 -196.376 L 250.594 -196.142" />
    <path d="M 250.624 -196.38 L 250.644 -196.38" />
    <path d="M 250.627 -196.456 L 250.644 -196.456" />
    <path d="M 250.627 -196.38 L 250.644 -196.38" />
    <path d="M 250.627 -196.456 L 250.627 -196.38" />
    <path d="M 252.894 -196.37 L 252.894 -196.15" />
    <path d="M 252.884 -196.376 L 252.884 -196.142" />
    <path d="M 252.914 -196.38 L 252.934 -196.38" />
    <path d="M 252.917 -196.456 L 252.934 -196.456" />
    <path d="M 252.917 -196.38 L 252.934 -196.38" />
    <path d="M 252.917 -196.456 L 252.917 -196.38" />
    <path d="M 255.324 -196.37 L 255.324 -196.15" />
    <path d="M 255.314 -196.376 L 255.314 -196.142" />
    <path d="M 255.344 -196.38 L 255.364 -196.38" />
    <path d="M 255.347 -196.456 L 255.364 -196.456" />
    <path d="M 255.347 -196.38 L 255.364 -196.38" />
    <path d="M 255.347 -196.456 L 255.347 -196.38" />
    <path d="M 249.473 -196.38 L 249.453 -196.38" />
    <path d="M 249.472 -196.456 L 249.454 -196.456" />
    <path d="M 249.472 -196.38 L 249.454 -196.38" />
    <path d="M 249.472 -196.456 L 249.472 -196.38" />
    <path d="M 249.494 -196.371 L 249.494 -196.15" />
    <path d="M 249.504 -196.376 L 249.504 -196.142" />
    <path d="M 251.763 -196.38 L 251.743 -196.38" />
    <path d="M 251.762 -196.456 L 251.744 -196.456" />
    <path d="M 251.762 -196.38 L 251.744 -196.38" />
    <path d="M 251.762 -196.456 L 251.762 -196.38" />
    <path d="M 251.784 -196.371 L 251.784 -196.15" />
    <path d="M 251.794 -196.376 L 251.794 -196.142" />
    <path d="M 254.193 -196.38 L 254.173 -196.38" />
    <path d="M 254.192 -196.456 L 254.174 -196.456" />
    <path d="M 254.192 -196.38 L 254.174 -196.38" />
    <path d="M 254.192 -196.456 L 254.192 -196.38" />
    <path d="M 254.214 -196.371 L 254.214 -196.15" />
    <path d="M 254.224 -196.376 L 254.224 -196.142" />
    <path d="M 255.963 -196.38 L 255.943 -196.38" />
    <path d="M 255.962 -196.456 L 255.944 -196.456" />
    <path d="M 255.962 -196.38 L 255.944 -196.38" />
    <path d="M 255.962 -196.456 L 255.962 -196.38" />
    <path d="M 255.984 -196.371 L 255.984 -196.15" />
    <path d="M 255.994 -196.376 L 255.994 -196.142" />
    <path d="M 256.574 -207.53 L 256.016 -207.53" />
    <path d="M 256.574 -206 L 256.002 -206" />
    <path d="M 249.622 -196.404 L 249.947 -196.404" />
    <path d="M 250.182 -196.404 L 250.477 -196.404" />
    <path d="M 249.622 -196.408 L 249.947 -196.408" />
    <path d="M 250.182 -196.408 L 250.477 -196.408" />
    <path d="M 249.622 -196.426 L 249.947 -196.426" />
    <path d="M 250.182 -196.426 L 250.477 -196.426" />
    <path d="M 249.622 -196.43 L 249.947 -196.43" />
    <path d="M 250.182 -196.43 L 250.477 -196.43" />
    <path d="M 249.622 -196.448 L 249.947 -196.448" />
    <path d="M 250.182 -196.448 L 250.477 -196.448" />
    <path d="M 249.622 -196.452 L 249.947 -196.452" />
    <path d="M 250.182 -196.452 L 250.477 -196.452" />
    <path d="M 251.912 -196.404 L 252.237 -196.404" />
    <path d="M 252.472 -196.404 L 252.767 -196.404" />
    <path d="M 251.912 -196.408 L 252.237 -196.408" />
    <path d="M 252.472 -196.408 L 252.767 -196.408" />
    <path d="M 251.912 -196.426 L 252.237 -196.426" />
    <path d="M 252.472 -196.426 L 252.767 -196.426" />
    <path d="M 251.912 -196.43 L 252.237 -196.43" />
    <path d="M 252.472 -196.43 L 252.767 -196.43" />
    <path d="M 251.912 -196.448 L 252.237 -196.448" />
    <path d="M 252.472 -196.448 L 252.767 -196.448" />
    <path d="M 251.912 -196.452 L 252.237 -196.452" />
    <path d="M 252.472 -196.452 L 252.767 -196.452" />
    <path d="M 254.342 -196.404 L 254.667 -196.404" />
    <path d="M 254.902 -196.404 L 255.197 -196.404" />
    <path d="M 254.342 -196.408 L 254.667 -196.408" />
    <path d="M 254.902 -196.408 L 255.197 -196.408" />
    <path d="M 254.342 -196.426 L 254.667 -196.426" />
    <path d="M 254.902 -196.426 L 255.197 -196.426" />
    <path d="M 254.342 -196.43 L 254.667 -196.43" />
    <path d="M 254.902 -196.43 L 255.197 -196.43" />
    <path d="M 254.342 -196.448 L 254.667 -196.448" />
    <path d="M 254.902 -196.448 L 255.197 -196.448" />
    <path d="M 254.342 -196.452 L 254.667 -196.452" />
    <path d="M 254.902 -196.452 L 255.197 -196.452" />
    <path d="M 256.112 -196.404 L 256.437 -196.404" />
    <path d="M 256.112 -196.408 L 256.437 -196.408" />
    <path d="M 256.112 -196.426 L 256.437 -196.426" />
    <path d="M 256.112 -196.43 L 256.437 -196.43" />
    <path d="M 256.112 -196.448 L 256.437 -196.448" />
    <path d="M 256.112 -196.452 L 256.437 -196.452" />
    <path d="M 256.019 -206.542 L 256.018 -206.79" />
    <path d="M 256.016 -207.53 L 256.013 -208.5" />
    <path d="M 249.064 -200.465 L 251.524 -200.465" />
    <path d="M 249.064 -200.49 L 251.524 -200.49" />
    <path d="M 252.409 -200.465 L 253.454 -200.465" />
    <path d="M 252.409 -200.49 L 253.454 -200.49" />
    <path d="M 250.484 -200.59 L 251.524 -200.59" />
    <path d="M 250.484 -200.565 L 251.524 -200.565" />
    <path d="M 252.409 -200.59 L 253.454 -200.59" />
    <path d="M 252.409 -200.565 L 253.454 -200.565" />
    <path d="M 252.394 -202.24 L 252.394 -202.64" />
    <path d="M 256.574 -207.53 L 256.574 -207.455" />
    <path d="M 255.964 -207.455 L 256.574 -207.455" />
    <path d="M 255.974 -208.553 L 256.574 -208.553" />
    <path d="M 256.574 -208.553 L 256.574 -208.498" />
    <path d="M 252.349 -202.64 L 252.349 -206.06" />
    <path d="M 252.349 -202.64 L 252.349 -206.1" />
    <path d="M 252.324 -202.64 L 252.324 -206.1" />
    <path d="M 252.154 -202.64 L 252.154 -203.4" />
    <path d="M 251.234 -203.525 L 251.234 -203.4" />
    <path d="M 252.199 -203.525 L 251.234 -203.525" />
    <path d="M 252.224 -203.5 L 251.234 -203.5" />
    <path d="M 252.324 -203.4 L 251.234 -203.4" />
    <path d="M 252.324 -203.425 L 251.234 -203.425" />
    <path d="M 250.474 -203.4 L 250.474 -203.525" />
    <path d="M 250.474 -203.4 L 250.364 -203.4" />
    <path d="M 250.474 -203.425 L 250.364 -203.425" />
    <path d="M 250.474 -203.525 L 250.364 -203.525" />
    <path d="M 250.474 -203.5 L 250.364 -203.5" />
    <path d="M 252.199 -203.525 L 252.199 -204.435" />
    <path d="M 252.224 -203.5 L 252.224 -204.46" />
    <path d="M 251.974 -204.535 L 251.289 -204.535" />
    <path d="M 251.999 -204.51 L 251.314 -204.51" />
    <path d="M 252.199 -204.435 L 251.289 -204.435" />
    <path d="M 252.224 -204.46 L 251.314 -204.46" />
    <path d="M 251.974 -204.535 L 251.974 -204.74" />
    <path d="M 251.999 -204.51 L 251.999 -204.715" />
    <path d="M 251.999 -205.215 L 251.999 -206.1" />
    <path d="M 251.289 -204.435 L 251.289 -203.525" />
    <path d="M 251.297 -204.435 L 251.297 -203.525" />
    <path d="M 251.289 -204.535 L 251.289 -204.435" />
    <path d="M 251.314 -204.535 L 251.314 -204.435" />
    <path d="M 252.199 -204.74 L 252.199 -205.19" />
    <path d="M 252.224 -204.715 L 252.224 -205.215" />
    <path d="M 251.974 -205.19 L 252.199 -205.19" />
    <path d="M 251.999 -205.215 L 252.224 -205.215" />
    <path d="M 251.974 -204.74 L 252.199 -204.74" />
    <path d="M 251.999 -204.715 L 252.224 -204.715" />
    <path d="M 251.974 -205.19 L 251.974 -206.1" />
    <path d="M 254.482 -203.08 L 254.482 -203.01" />
    <path d="M 254.447 -206.1 L 254.447 -203.01" />
    <path d="M 254.472 -206.1 L 254.472 -203.01" />
    <path d="M 254.602 -206.1 L 254.602 -203.08" />
    <path d="M 254.577 -206.1 L 254.577 -203.08" />
    <path d="M 249.914 -206.751 L 250.636 -206.751" />
    <path d="M 249.064 -206.837 L 249.064 -206.988" />
    <path d="M 249.014 -206.988 L 249.014 -206.99" />
    <path d="M 249.054 -206.837 L 249.054 -206.98" />
    <path d="M 249.844 -206.988 L 249.844 -206.835" />
    <path d="M 249.894 -206.99 L 249.894 -206.988" />
    <path d="M 249.854 -206.98 L 249.854 -206.835" />
    <path d="M 249.015 -206.761 L 249.015 -206.837 L 249.035 -206.837 L 249.035 -206.761" />
    <path d="M 249.185 -206.786 L 249.721 -206.785" />
    <path d="M 249.185 -206.79 L 249.721 -206.789" />
    <path d="M 249.185 -206.808 L 249.721 -206.807" />
    <path d="M 249.185 -206.812 L 249.721 -206.811" />
    <path d="M 249.014 -206.988 L 249.064 -206.988" />
    <path d="M 248.755 -206.99 L 249.014 -206.99" />
    <path d="M 248.765 -206.98 L 249.054 -206.98" />
    <path d="M 249.052 -207.028 L 249.052 -206.988" />
    <path d="M 249.052 -207.028 L 249.856 -207.028" />
    <path d="M 249.064 -206.988 L 249.064 -207.028" />
    <path d="M 249.844 -206.988 L 249.844 -207.028" />
    <path d="M 249.856 -206.988 L 249.856 -207.028" />
    <path d="M 249.054 -206.841 L 249.064 -206.841" />
    <path d="M 248.755 -206.75 L 249.034 -206.75" />
    <path d="M 249.893 -206.761 L 249.893 -206.837 L 249.874 -206.837 L 249.874 -206.761" />
    <path d="M 250.064 -206.23 L 250.064 -206.75" />
    <path d="M 249.894 -206.99 L 250.875 -206.99" />
    <path d="M 249.854 -206.98 L 250.865 -206.98" />
    <path d="M 249.844 -206.988 L 249.894 -206.988" />
    <path d="M 249.185 -206.764 L 249.721 -206.763" />
    <path d="M 249.185 -206.768 L 249.721 -206.767" />
    <path d="M 249.894 -206.75 L 249.894 -206.23" />
    <path d="M 249.894 -206.75 L 250.064 -206.75" />
    <path d="M 249.894 -206.23 L 250.064 -206.23 L 250.064 -206.75 L 249.894 -206.75" />
  </g>
</svg>
