<?xml version="1.0" encoding="UTF-8"?>
<svg xmlns="http://www.w3.org/2000/svg" viewBox="231.06 191.06 35.88 48.88" aria-hidden="true">
  <style>
    path,
    circle {
      fill: none;
      stroke: #007AFF;
      stroke-width: 1.55;
      stroke-linecap: round;
      stroke-linejoin: round;
      vector-effect: non-scaling-stroke;
    }
  </style>
  <g transform="scale(1 -1)">
    <path d="M 253.454 -196.93 L 253.754 -196.93" />
    <path d="M 249.15 -200.88 L 250.064 -200.88" />
    <path d="M 250.064 -206.23 L 250.064 -203.35" />
    <path d="M 250.064 -203.95 L 250.064 -202.07" />
    <path d="M 250.064 -201.14 L 250.064 -200.88" />
    <path d="M 250.364 -206.1 L 250.364 -203.35" />
    <path d="M 250.364 -203.95 L 250.364 -202.64" />
    <path d="M 250.484 -202.24 L 250.484 -202.07" />
    <path d="M 250.484 -201.14 L 250.484 -200.82" />
    <path d="M 250.029 -200.88 L 250.064 -200.88" />
    <path d="M 257.1 -202.61 L 255.034 -202.61" />
    <path d="M 255.034 -202.61 L 255.034 -203.08" />
    <path d="M 255.034 -203.08 L 254.482 -203.08" />
    <path d="M 250.064 -201.14 L 250.484 -201.14" />
    <path d="M 250.064 -202.07 L 250.484 -202.07" />
    <path d="M 250.484 -200.82 L 250.484 -200.49" />
    <path d="M 250.484 -200.49 L 249.15 -200.49" />
    <path d="M 249.064 -198.9 L 249.064 -196.93" />
    <path d="M 248.794 -196.93 L 249.454 -196.93" />
    <path d="M 250.644 -196.93 L 251.744 -196.93" />
    <path d="M 252.934 -196.93 L 253.454 -196.93" />
    <path d="M 253.454 -196.93 L 253.454 -200.82" />
    <path d="M 252.409 -200.465 L 252.409 -200.59" />
    <path d="M 251.524 -200.465 L 251.524 -200.59" />
    <path d="M 253.454 -200.82 L 253.454 -201.14" />
    <path d="M 253.454 -202.07 L 253.454 -202.24" />
    <path d="M 253.754 -196.93 L 253.754 -201.14" />
    <path d="M 253.754 -202.07 L 253.754 -202.23" />
    <path d="M 253.454 -202.24 L 253.294 -202.24" />
    <path d="M 252.394 -202.24 L 251.364 -202.24" />
    <path d="M 250.634 -202.24 L 250.484 -202.24" />
    <path d="M 253.454 -202.07 L 253.754 -202.07" />
    <path d="M 253.454 -201.14 L 253.754 -201.14" />
    <path d="M 253.754 -202.23 L 257.1 -202.23" />
    <path d="M 253.754 -196.93 L 254.174 -196.93" />
    <path d="M 255.364 -196.93 L 255.944 -196.93" />
    <path d="M 255.944 -196.93 L 255.944 -196.38" />
    <path d="M 254.174 -196.93 L 254.174 -196.38" />
    <path d="M 255.364 -196.93 L 255.364 -196.38" />
    <path d="M 251.744 -196.93 L 251.744 -196.38" />
    <path d="M 252.934 -196.93 L 252.934 -196.38" />
    <path d="M 249.454 -196.93 L 249.454 -196.38" />
    <path d="M 250.644 -196.93 L 250.644 -196.38" />
    <path d="M 253.844 -202.64 L 253.294 -202.64" />
    <path d="M 252.394 -202.64 L 251.364 -202.64" />
    <path d="M 250.634 -202.64 L 250.364 -202.64" />
    <path d="M 252.394 -202.24 L 252.394 -202.64" />
    <path d="M 253.294 -202.24 L 253.294 -202.64" />
    <path d="M 250.634 -202.24 L 250.634 -202.64" />
    <path d="M 251.364 -202.24 L 251.364 -202.64" />
    <path d="M 253.844 -202.64 L 253.844 -203.01" />
    <path d="M 253.844 -203.01 L 254.482 -203.01" />
    <path d="M 255.944 -196.38 L 255.364 -196.38" />
    <path d="M 254.174 -196.38 L 252.934 -196.38" />
    <path d="M 251.744 -196.38 L 250.644 -196.38" />
    <path d="M 248.75 -196.38 L 249.454 -196.38" />
    <path d="M 249.894 -206.23 L 250.064 -206.23" />
    <path d="M 254 -206.1 L 253.716 -206.1" />
    <path d="M 252.566 -206.1 L 251.592 -206.1" />
    <path d="M 250.942 -206.1 L 250.364 -206.1" />
    <path d="M 253.716 -206.1 L 253.716 -206.55" />
    <path d="M 252.566 -206.1 L 252.566 -206.557" />
    <path d="M 253.716 -206.1 L 252.566 -206.1" />
    <path d="M 251.592 -206.1 L 251.592 -206.56" />
    <path d="M 250.942 -206.1 L 250.942 -206.558" />
    <path d="M 251.592 -206.1 L 250.942 -206.1" />
    <path d="M 250.636 -206.751 L 250.636 -206.559" />
    <path d="M 250.636 -206.559 L 250.942 -206.558" />
    <path d="M 251.592 -206.56 L 252.566 -206.557" />
    <path d="M 253.716 -206.55 L 254 -206.549" />
    <path d="M 250.99 -206.654 L 250.99 -206.794" />
    <path d="M 250.98 -206.786 L 250.864 -206.787" />
    <path d="M 250.94 -206.796 L 250.874 -206.797" />
    <path d="M 250.99 -206.794 L 250.94 -206.794" />
    <path d="M 250.98 -206.654 L 250.98 -206.786" />
    <path d="M 250.94 -206.794 L 250.94 -206.796" />
    <path d="M 250.875 -206.99 L 250.874 -206.797" />
    <path d="M 250.865 -206.98 L 250.864 -206.787" />
    <path d="M 251.516 -206.653 L 251.516 -206.792" />
    <path d="M 252.609 -206.789 L 252.559 -206.789" />
    <path d="M 251.526 -206.655 L 251.516 -206.655" />
    <path d="M 250.98 -206.657 L 250.99 -206.657" />
    <path d="M 251.526 -206.653 L 251.526 -206.784" />
    <path d="M 252.609 -206.649 L 252.609 -206.789" />
    <path d="M 251.566 -206.792 L 251.566 -206.794" />
    <path d="M 251.516 -206.792 L 251.566 -206.792" />
    <path d="M 251.526 -206.784 L 252.599 -206.781" />
    <path d="M 252.559 -206.789 L 252.559 -206.791" />
    <path d="M 253.675 -206.646 L 253.675 -206.778" />
    <path d="M 252.599 -206.649 L 252.599 -206.781" />
    <path d="M 253.665 -206.646 L 253.665 -206.786" />
    <path d="M 252.599 -206.652 L 252.609 -206.652" />
    <path d="M 253.665 -206.786 L 253.715 -206.786" />
    <path d="M 253.715 -206.786 L 253.715 -206.788" />
    <path d="M 253.675 -206.649 L 253.665 -206.649" />
    <path d="M 253.715 -206.788 L 254 -206.787" />
    <path d="M 253.715 -206.778 L 254 -206.777" />
    <path d="M 252.559 -206.791 L 251.566 -206.794" />
    <path d="M 252.756 -206.623 L 253.019 -206.623" />
    <path d="M 253.254 -206.622 L 253.517 -206.621" />
    <path d="M 252.756 -206.831 L 253.518 -206.828" />
    <path d="M 251.137 -206.836 L 251.369 -206.835" />
    <path d="M 251.136 -206.58 L 251.368 -206.58" />
    <path d="M 251.137 -206.628 L 251.368 -206.628" />
    <path d="M 255.598 -195.98 L 255.598 -196.01" />
    <path d="M 255.614 -195.935 L 255.614 -195.994" />
    <path d="M 255.614 -195.994 L 255.629 -195.994" />
    <path d="M 255.629 -195.994 L 255.629 -195.935" />
    <path d="M 255.613 -195.982 L 255.598 -195.982" />
    <path d="M 255.598 -195.982 L 255.598 -195.952" />
    <path d="M 255.613 -195.952 L 255.613 -195.982" />
    <path d="M 255.613 -195.98 L 255.613 -196.01" />
    <path d="M 251.43 -195.98 L 251.43 -196.01" />
    <path d="M 251.414 -195.935 L 251.414 -195.994" />
    <path d="M 251.414 -195.994 L 251.399 -195.994" />
    <path d="M 251.399 -195.994 L 251.399 -195.935" />
    <path d="M 251.415 -195.982 L 251.43 -195.982" />
    <path d="M 251.415 -195.952 L 251.415 -195.982" />
    <path d="M 251.43 -195.982 L 251.43 -195.952" />
    <path d="M 251.415 -195.98 L 251.415 -196.01" />
    <path d="M 250.604 -196.37 L 250.604 -196.15" />
    <path d="M 250.594 -196.376 L 250.594 -196.142" />
    <path d="M 250.606 -196.09 L 250.606 -196.142" />
    <path d="M 250.594 -196.142 L 250.594 -196.09" />
    <path d="M 250.594 -196.142 L 250.644 -196.142" />
    <path d="M 250.644 -196.142 L 250.644 -196.14" />
    <path d="M 250.624 -196.38 L 250.644 -196.38" />
    <path d="M 250.627 -196.456 L 250.644 -196.456" />
    <path d="M 250.627 -196.38 L 250.644 -196.38" />
    <path d="M 250.627 -196.456 L 250.627 -196.38" />
    <path d="M 252.894 -196.37 L 252.894 -196.15" />
    <path d="M 252.884 -196.376 L 252.884 -196.142" />
    <path d="M 252.896 -196.09 L 252.896 -196.142" />
    <path d="M 252.884 -196.142 L 252.884 -196.09" />
    <path d="M 252.884 -196.142 L 252.934 -196.142" />
    <path d="M 252.934 -196.142 L 252.934 -196.14" />
    <path d="M 252.914 -196.38 L 252.934 -196.38" />
    <path d="M 252.917 -196.456 L 252.934 -196.456" />
    <path d="M 252.917 -196.38 L 252.934 -196.38" />
    <path d="M 252.917 -196.456 L 252.917 -196.38" />
    <path d="M 255.324 -196.37 L 255.324 -196.15" />
    <path d="M 255.314 -196.376 L 255.314 -196.142" />
    <path d="M 255.326 -196.09 L 255.326 -196.142" />
    <path d="M 255.314 -196.142 L 255.314 -196.09" />
    <path d="M 255.314 -196.142 L 255.364 -196.142" />
    <path d="M 255.364 -196.142 L 255.364 -196.14" />
    <path d="M 255.344 -196.38 L 255.364 -196.38" />
    <path d="M 255.347 -196.456 L 255.364 -196.456" />
    <path d="M 255.347 -196.38 L 255.364 -196.38" />
    <path d="M 255.347 -196.456 L 255.347 -196.38" />
    <path d="M 249.473 -196.38 L 249.453 -196.38" />
    <path d="M 249.472 -196.456 L 249.454 -196.456" />
    <path d="M 249.472 -196.38 L 249.454 -196.38" />
    <path d="M 249.472 -196.456 L 249.472 -196.38" />
    <path d="M 249.494 -196.371 L 249.494 -196.15" />
    <path d="M 249.504 -196.376 L 249.504 -196.142" />
    <path d="M 249.492 -196.09 L 249.492 -196.142" />
    <path d="M 249.504 -196.142 L 249.504 -196.09" />
    <path d="M 249.504 -196.142 L 249.454 -196.142" />
    <path d="M 249.454 -196.142 L 249.454 -196.14" />
    <path d="M 251.763 -196.38 L 251.743 -196.38" />
    <path d="M 251.762 -196.456 L 251.744 -196.456" />
    <path d="M 251.762 -196.38 L 251.744 -196.38" />
    <path d="M 251.762 -196.456 L 251.762 -196.38" />
    <path d="M 251.784 -196.371 L 251.784 -196.15" />
    <path d="M 251.794 -196.376 L 251.794 -196.142" />
    <path d="M 251.782 -196.09 L 251.782 -196.142" />
    <path d="M 251.794 -196.142 L 251.794 -196.09" />
    <path d="M 251.794 -196.142 L 251.744 -196.142" />
    <path d="M 251.744 -196.142 L 251.744 -196.14" />
    <path d="M 254.193 -196.38 L 254.173 -196.38" />
    <path d="M 254.192 -196.456 L 254.174 -196.456" />
    <path d="M 254.192 -196.38 L 254.174 -196.38" />
    <path d="M 254.192 -196.456 L 254.192 -196.38" />
    <path d="M 254.214 -196.371 L 254.214 -196.15" />
    <path d="M 254.224 -196.376 L 254.224 -196.142" />
    <path d="M 254.212 -196.09 L 254.212 -196.142" />
    <path d="M 254.224 -196.142 L 254.224 -196.09" />
    <path d="M 254.224 -196.142 L 254.174 -196.142" />
    <path d="M 254.174 -196.142 L 254.174 -196.14" />
    <path d="M 255.963 -196.38 L 255.943 -196.38" />
    <path d="M 255.962 -196.456 L 255.944 -196.456" />
    <path d="M 255.962 -196.38 L 255.944 -196.38" />
    <path d="M 255.962 -196.456 L 255.962 -196.38" />
    <path d="M 255.984 -196.371 L 255.984 -196.15" />
    <path d="M 255.994 -196.376 L 255.994 -196.142" />
    <path d="M 255.982 -196.09 L 255.982 -196.142" />
    <path d="M 255.994 -196.142 L 255.994 -196.09" />
    <path d="M 255.994 -196.142 L 255.944 -196.142" />
    <path d="M 255.944 -196.142 L 255.944 -196.14" />
    <path d="M 248.75 -196.14 L 249.454 -196.14" />
    <path d="M 248.75 -196.15 L 249.494 -196.15" />
    <path d="M 249.492 -196.09 L 250.606 -196.09" />
    <path d="M 250.644 -196.14 L 251.744 -196.14" />
    <path d="M 250.604 -196.15 L 251.784 -196.15" />
    <path d="M 251.782 -196.09 L 252.896 -196.09" />
    <path d="M 252.934 -196.14 L 254.174 -196.14" />
    <path d="M 254.214 -196.15 L 252.894 -196.15" />
    <path d="M 254.212 -196.09 L 255.326 -196.09" />
    <path d="M 255.364 -196.14 L 255.944 -196.14" />
    <path d="M 255.324 -196.15 L 255.984 -196.15" />
    <path d="M 255.982 -196.09 L 257.096 -196.09" />
    <path d="M 249.622 -196.404 L 249.947 -196.404" />
    <path d="M 250.182 -196.404 L 250.477 -196.404" />
    <path d="M 249.622 -196.408 L 249.947 -196.408" />
    <path d="M 250.182 -196.408 L 250.477 -196.408" />
    <path d="M 249.622 -196.426 L 249.947 -196.426" />
    <path d="M 250.182 -196.426 L 250.477 -196.426" />
    <path d="M 249.622 -196.43 L 249.947 -196.43" />
    <path d="M 250.182 -196.43 L 250.477 -196.43" />
    <path d="M 249.622 -196.448 L 249.947 -196.448" />
    <path d="M 250.182 -196.448 L 250.477 -196.448" />
    <path d="M 249.622 -196.452 L 249.947 -196.452" />
    <path d="M 250.182 -196.452 L 250.477 -196.452" />
    <path d="M 251.912 -196.404 L 252.237 -196.404" />
    <path d="M 252.472 -196.404 L 252.767 -196.404" />
    <path d="M 251.912 -196.408 L 252.237 -196.408" />
    <path d="M 252.472 -196.408 L 252.767 -196.408" />
    <path d="M 251.912 -196.426 L 252.237 -196.426" />
    <path d="M 252.472 -196.426 L 252.767 -196.426" />
    <path d="M 251.912 -196.43 L 252.237 -196.43" />
    <path d="M 252.472 -196.43 L 252.767 -196.43" />
    <path d="M 251.912 -196.448 L 252.237 -196.448" />
    <path d="M 252.472 -196.448 L 252.767 -196.448" />
    <path d="M 251.912 -196.452 L 252.237 -196.452" />
    <path d="M 252.472 -196.452 L 252.767 -196.452" />
    <path d="M 254.342 -196.404 L 254.667 -196.404" />
    <path d="M 254.902 -196.404 L 255.197 -196.404" />
    <path d="M 254.342 -196.408 L 254.667 -196.408" />
    <path d="M 254.902 -196.408 L 255.197 -196.408" />
    <path d="M 254.342 -196.426 L 254.667 -196.426" />
    <path d="M 254.902 -196.426 L 255.197 -196.426" />
    <path d="M 254.342 -196.43 L 254.667 -196.43" />
    <path d="M 254.902 -196.43 L 255.197 -196.43" />
    <path d="M 254.342 -196.448 L 254.667 -196.448" />
    <path d="M 254.902 -196.448 L 255.197 -196.448" />
    <path d="M 254.342 -196.452 L 254.667 -196.452" />
    <path d="M 254.902 -196.452 L 255.197 -196.452" />
    <path d="M 256.112 -196.404 L 256.437 -196.404" />
    <path d="M 256.672 -196.404 L 256.967 -196.404" />
    <path d="M 256.112 -196.408 L 256.437 -196.408" />
    <path d="M 256.672 -196.408 L 256.967 -196.408" />
    <path d="M 256.112 -196.426 L 256.437 -196.426" />
    <path d="M 256.672 -196.426 L 256.967 -196.426" />
    <path d="M 256.112 -196.43 L 256.437 -196.43" />
    <path d="M 256.672 -196.43 L 256.967 -196.43" />
    <path d="M 256.112 -196.448 L 256.437 -196.448" />
    <path d="M 256.672 -196.448 L 256.967 -196.448" />
    <path d="M 256.112 -196.452 L 256.437 -196.452" />
    <path d="M 256.672 -196.452 L 256.967 -196.452" />
    <path d="M 249.15 -200.465 L 251.524 -200.465" />
    <path d="M 249.15 -200.49 L 251.524 -200.49" />
    <path d="M 252.409 -200.465 L 253.454 -200.465" />
    <path d="M 252.409 -200.49 L 253.454 -200.49" />
    <path d="M 250.484 -200.59 L 251.524 -200.59" />
    <path d="M 250.484 -200.565 L 251.524 -200.565" />
    <path d="M 252.409 -200.59 L 253.454 -200.59" />
    <path d="M 252.409 -200.565 L 253.454 -200.565" />
    <path d="M 252.394 -202.24 L 252.394 -202.64" />
    <path d="M 252.349 -203.35 L 252.349 -206.06" />
    <path d="M 252.349 -202.64 L 252.349 -203.95" />
    <path d="M 252.349 -203.35 L 252.349 -206.1" />
    <path d="M 252.349 -202.64 L 252.349 -203.95" />
    <path d="M 252.324 -203.35 L 252.324 -206.1" />
    <path d="M 252.324 -202.64 L 252.324 -203.95" />
    <path d="M 252.154 -203.35 L 252.154 -203.4" />
    <path d="M 252.154 -202.64 L 252.154 -203.4" />
    <path d="M 251.234 -203.525 L 251.234 -203.4" />
    <path d="M 251.234 -203.525 L 251.234 -203.4" />
    <path d="M 252.199 -203.525 L 251.234 -203.525" />
    <path d="M 252.199 -203.525 L 251.234 -203.525" />
    <path d="M 252.224 -203.5 L 251.234 -203.5" />
    <path d="M 252.224 -203.5 L 251.234 -203.5" />
    <path d="M 252.324 -203.4 L 251.234 -203.4" />
    <path d="M 252.324 -203.4 L 251.234 -203.4" />
    <path d="M 252.324 -203.425 L 251.234 -203.425" />
    <path d="M 252.324 -203.425 L 251.234 -203.425" />
    <path d="M 250.474 -203.4 L 250.474 -203.525" />
    <path d="M 250.474 -203.4 L 250.474 -203.525" />
    <path d="M 250.474 -203.4 L 250.364 -203.4" />
    <path d="M 250.474 -203.4 L 250.364 -203.4" />
    <path d="M 250.474 -203.425 L 250.364 -203.425" />
    <path d="M 250.474 -203.425 L 250.364 -203.425" />
    <path d="M 250.474 -203.525 L 250.364 -203.525" />
    <path d="M 250.474 -203.525 L 250.364 -203.525" />
    <path d="M 250.474 -203.5 L 250.364 -203.5" />
    <path d="M 250.474 -203.5 L 250.364 -203.5" />
    <path d="M 252.199 -203.525 L 252.199 -204.435" />
    <path d="M 252.199 -203.525 L 252.199 -203.95" />
    <path d="M 252.224 -203.5 L 252.224 -204.46" />
    <path d="M 252.224 -203.5 L 252.224 -203.95" />
    <path d="M 251.974 -204.535 L 251.289 -204.535" />
    <path d="M 251.999 -204.51 L 251.314 -204.51" />
    <path d="M 252.199 -204.435 L 251.289 -204.435" />
    <path d="M 252.224 -204.46 L 251.314 -204.46" />
    <path d="M 251.974 -204.535 L 251.974 -204.74" />
    <path d="M 251.999 -204.51 L 251.999 -204.715" />
    <path d="M 251.999 -205.215 L 251.999 -206.1" />
    <path d="M 251.289 -204.535 L 251.289 -204.435" />
    <path d="M 251.314 -204.535 L 251.314 -204.435" />
    <path d="M 252.199 -204.74 L 252.199 -205.19" />
    <path d="M 252.224 -204.715 L 252.224 -205.215" />
    <path d="M 251.974 -205.19 L 252.199 -205.19" />
    <path d="M 251.999 -205.215 L 252.224 -205.215" />
    <path d="M 251.974 -204.74 L 252.199 -204.74" />
    <path d="M 251.999 -204.715 L 252.224 -204.715" />
    <path d="M 251.974 -205.19 L 251.974 -206.1" />
    <path d="M 254.482 -203.08 L 254.482 -203.01" />
    <path d="M 254.447 -203.95 L 254.447 -203.01" />
    <path d="M 254.472 -203.95 L 254.472 -203.01" />
    <path d="M 254.602 -203.95 L 254.602 -203.08" />
    <path d="M 254.577 -203.95 L 254.577 -203.08" />
    <path d="M 249.914 -206.751 L 250.636 -206.751" />
    <path d="M 249.064 -206.837 L 249.064 -206.988" />
    <path d="M 249.014 -206.988 L 249.014 -206.99" />
    <path d="M 249.054 -206.837 L 249.054 -206.98" />
    <path d="M 249.844 -206.988 L 249.844 -206.835" />
    <path d="M 249.894 -206.99 L 249.894 -206.988" />
    <path d="M 249.854 -206.98 L 249.854 -206.835" />
    <path d="M 249.015 -206.761 L 249.015 -206.837" />
    <path d="M 249.015 -206.837 L 249.035 -206.837" />
    <path d="M 249.035 -206.837 L 249.035 -206.761" />
    <path d="M 249.185 -206.786 L 249.721 -206.785" />
    <path d="M 249.185 -206.79 L 249.721 -206.789" />
    <path d="M 249.185 -206.808 L 249.721 -206.807" />
    <path d="M 249.185 -206.812 L 249.721 -206.811" />
    <path d="M 249.014 -206.988 L 249.064 -206.988" />
    <path d="M 248.755 -206.99 L 249.014 -206.99" />
    <path d="M 248.765 -206.98 L 249.054 -206.98" />
    <path d="M 249.052 -207.028 L 249.052 -206.988" />
    <path d="M 249.052 -207.028 L 249.856 -207.028" />
    <path d="M 249.064 -206.988 L 249.064 -207.028" />
    <path d="M 249.844 -206.988 L 249.844 -207.028" />
    <path d="M 249.856 -206.988 L 249.856 -207.028" />
    <path d="M 249.054 -206.841 L 249.064 -206.841" />
    <path d="M 248.755 -206.75 L 249.034 -206.75" />
    <path d="M 249.893 -206.761 L 249.893 -206.837" />
    <path d="M 249.893 -206.837 L 249.874 -206.837" />
    <path d="M 249.874 -206.837 L 249.874 -206.761" />
    <path d="M 250.064 -206.23 L 250.064 -206.75" />
    <path d="M 249.894 -206.99 L 250.875 -206.99" />
    <path d="M 249.854 -206.98 L 250.865 -206.98" />
    <path d="M 249.844 -206.988 L 249.894 -206.988" />
    <path d="M 249.185 -206.764 L 249.721 -206.763" />
    <path d="M 249.185 -206.768 L 249.721 -206.767" />
    <path d="M 249.894 -206.75 L 249.894 -206.23" />
    <path d="M 249.894 -206.75 L 250.064 -206.75" />
    <path d="M 249.894 -206.23 L 250.064 -206.23" />
    <path d="M 250.064 -206.23 L 250.064 -206.75" />
    <path d="M 250.064 -206.75 L 249.894 -206.75" />
  </g>
</svg>
