<?xml version="1.0" encoding="UTF-8"?>
<svg xmlns="http://www.w3.org/2000/svg" viewBox="231.06 191.06 35.88 48.88" aria-hidden="true">
  <style>
    path,
    circle {
      fill: none;
      stroke: #007AFF;
      stroke-width: 1.55;
      stroke-linecap: round;
      stroke-linejoin: round;
      vector-effect: non-scaling-stroke;
    }
  </style>
  <g transform="scale(1 -1)">
    <path d="M 256.339 -234.586 L 256.685 -234.586" />
    <path d="M 248.664 -233 L 248.664 -228.84" />
    <path d="M 252.985 -233.52 L 252.965 -233.52" />
    <path d="M 247.574 -225.52 L 247.574 -221.23" />
    <path d="M 247.574 -226.91 L 247.574 -226.665" />
    <path d="M 247.574 -226.91 L 248.014 -226.91" />
    <path d="M 249.754 -226.91 L 250.164 -226.91" />
    <path d="M 252.685 -233.63 L 252.685 -233.53" />
    <path d="M 252.965 -233.54 L 252.965 -233" />
    <path d="M 252.685 -234.866 L 252.685 -234.586" />
    <path d="M 252.685 -234.866 L 253.312 -234.866" />
    <path d="M 254.492 -234.866 L 255.16 -234.866" />
    <path d="M 256.339 -234.866 L 256.965 -234.866" />
    <path d="M 248.135 -233.53 L 249.587 -233.53" />
    <path d="M 251.957 -233.53 L 252.685 -233.53" />
    <path d="M 251.957 -233 L 251.957 -233.53" />
    <path d="M 249.587 -233 L 249.587 -233.53" />
    <path d="M 249.044 -233 L 249.044 -228.84" />
    <path d="M 250.714 -223.79 L 250.714 -224.56" />
    <path d="M 250.584 -223.79 L 250.584 -221.23" />
    <path d="M 249.044 -233 L 249.587 -233" />
    <path d="M 251.957 -233 L 252.644 -233" />
    <path d="M 250.584 -223.79 L 250.714 -223.79" />
    <path d="M 252.644 -233 L 252.644 -227.43" />
    <path d="M 250.194 -228.59 L 250.194 -227.43" />
    <path d="M 249.044 -228.59 L 250.194 -228.59" />
    <path d="M 257.114 -233 L 257.4 -233" />
    <path d="M 257.114 -226 L 257.4 -226" />
    <path d="M 256.965 -233.53 L 257.4 -233.53" />
    <path d="M 252.965 -233 L 252.714 -233" />
    <path d="M 254.492 -234.586 L 255.16 -234.586" />
    <path d="M 252.965 -233.54 L 252.825 -233.54" />
    <path d="M 252.685 -234.586 L 253.312 -234.586" />
    <path d="M 256.685 -233 L 256.874 -233" />
    <path d="M 256.685 -233 L 256.685 -233.55" />
    <path d="M 254.49 -234.586 L 254.49 -234.866" />
    <path d="M 256.685 -234.2 L 256.685 -234.586" />
    <path d="M 252.825 -233.54 L 252.825 -233.63" />
    <path d="M 252.825 -233.63 L 252.685 -233.63" />
    <path d="M 253.31 -234.866 L 253.31 -234.586" />
    <path d="M 255.159 -234.866 L 255.159 -234.586" />
    <path d="M 256.815 -233.65 L 256.965 -233.65" />
    <path d="M 256.685 -234.2 L 256.815 -234.2" />
    <path d="M 256.339 -234.586 L 256.339 -234.866" />
    <path d="M 256.685 -233.55 L 256.815 -233.55" />
    <path d="M 256.815 -233.55 L 256.815 -233.65" />
    <path d="M 256.965 -234.2 L 256.965 -234.866" />
    <path d="M 256.965 -233.65 L 256.965 -233.53" />
    <path d="M 250.964 -227.03 L 250.964 -227.43" />
    <path d="M 250.584 -227.03 L 250.584 -226.67" />
    <path d="M 250.584 -225.5 L 250.584 -224.56" />
    <path d="M 250.164 -226.91 L 250.164 -226.67" />
    <path d="M 250.164 -225.5 L 250.164 -221.23" />
    <path d="M 250.164 -225.5 L 250.584 -225.5" />
    <path d="M 250.164 -226.67 L 250.584 -226.67" />
    <path d="M 250.584 -224.56 L 250.714 -224.56" />
    <path d="M 251.894 -227.43 L 252.644 -227.43" />
    <path d="M 250.584 -227.03 L 250.964 -227.03" />
    <path d="M 251.894 -227.03 L 251.894 -227.43" />
    <path d="M 250.194 -227.43 L 250.964 -227.43" />
    <path d="M 251.894 -227.03 L 254.384 -227.03" />
    <path d="M 255.604 -227.03 L 256.714 -227.03" />
    <path d="M 255.604 -227.03 L 255.604 -227.43" />
    <path d="M 254.384 -227.03 L 254.384 -227.43" />
    <path d="M 252.714 -227.43 L 254.384 -227.43" />
    <path d="M 255.604 -227.43 L 256.874 -227.43" />
    <path d="M 252.714 -227.43 L 252.714 -233" />
    <path d="M 256.714 -226.08 L 256.714 -225.36" />
    <path d="M 256.714 -227.03 L 256.714 -227.01" />
    <path d="M 257.114 -226.08 L 257.114 -226" />
    <path d="M 257.114 -229.25 L 257.114 -227.01" />
    <path d="M 256.874 -227.43 L 256.874 -229.25" />
    <path d="M 256.874 -229.25 L 257.114 -229.25" />
    <path d="M 256.874 -231.18 L 256.874 -233" />
    <path d="M 257.114 -233 L 257.114 -231.18" />
    <path d="M 256.874 -231.18 L 257.114 -231.18" />
    <path d="M 256.714 -225.36 L 257.4 -225.36" />
    <path d="M 256.624 -218.32 L 257.4 -218.32" />
    <path d="M 256.614 -218.7 L 257.4 -218.7" />
    <path d="M 247.574 -225.52 L 247.514 -225.52" />
    <path d="M 247.514 -225.505 L 247.514 -225.52" />
    <path d="M 247.514 -225.505 L 247.35 -225.505" />
    <path d="M 247.574 -226.665 L 247.35 -226.665" />
    <path d="M 247.574 -225.655 L 247.35 -225.655" />
    <path d="M 248.135 -233.53 L 248.135 -233" />
    <path d="M 247.534 -228.63 L 247.534 -227.425" />
    <path d="M 247.35 -227.425 L 247.534 -227.425" />
    <path d="M 248.664 -233 L 248.135 -233" />
    <path d="M 248.014 -228.63 L 247.534 -228.63" />
    <path d="M 249.754 -226.91 L 249.754 -228.12" />
    <path d="M 248.014 -226.91 L 248.014 -228.12" />
    <path d="M 252.675 -234.606 L 252.59 -234.606" />
    <path d="M 252.825 -233.69 L 252.685 -233.69" />
    <path d="M 252.685 -233.69 L 252.685 -233.63" />
    <path d="M 252.825 -233.69 L 252.825 -233.63" />
    <path d="M 256.685 -234.2 L 256.965 -234.2" />
    <path d="M 256.965 -233.65 L 256.965 -233.69" />
    <path d="M 256.965 -233.69 L 256.815 -233.69" />
    <path d="M 256.815 -233.69 L 256.815 -233.65" />
    <path d="M 249.044 -228.59 L 250.194 -228.59" />
    <path d="M 249.044 -228.59 L 249.044 -228.84" />
    <path d="M 248.014 -228.63 L 248.664 -228.63" />
    <path d="M 248.664 -228.63 L 248.664 -228.84" />
    <path d="M 249.754 -227.01 L 249.754 -226.91" />
    <path d="M 248.014 -227.01 L 248.014 -226.91" />
    <path d="M 249.754 -228.12 L 248.014 -228.12" />
    <path d="M 248.116 -221.23 L 248.116 -220.83" />
    <path d="M 249.716 -221.23 L 249.716 -220.83" />
    <path d="M 247.574 -221.23 L 248.116 -221.23" />
    <path d="M 249.716 -221.23 L 250.164 -221.23" />
    <path d="M 252.324 -221.23 L 252.324 -220.709" />
    <path d="M 250.584 -221.23 L 251.144 -221.23" />
    <path d="M 252.324 -221.23 L 253.071 -221.23" />
    <path d="M 254.251 -221.23 L 255.027 -221.23" />
    <path d="M 251.144 -221.23 L 251.144 -220.709" />
    <path d="M 253.071 -220.709 L 253.071 -221.23" />
    <path d="M 254.251 -220.709 L 254.251 -221.23" />
    <path d="M 255.637 -221.23 L 255.637 -220.713" />
    <path d="M 255.027 -221.23 L 255.027 -220.709" />
    <path d="M 255.637 -221.23 L 256.694 -221.23" />
    <path d="M 256.304 -221.51 L 256.694 -221.51" />
    <path d="M 256.304 -221.51 L 256.304 -221.23" />
    <path d="M 256.244 -217.62 L 256.244 -217.75" />
    <path d="M 256.614 -218.7 L 256.614 -218.74" />
    <path d="M 256.244 -217.62 L 255.731 -217.62" />
    <path d="M 256.614 -218.74 L 256.132 -218.74" />
    <path d="M 256.694 -220.71 L 256.29 -220.71" />
    <path d="M 256.624 -218.32 L 257.4 -218.32" />
    <path d="M 256.624 -217.75 L 256.244 -217.75" />
    <path d="M 256.624 -217.75 L 256.624 -218.32" />
    <path d="M 256.614 -218.7 L 257.4 -218.7" />
    <path d="M 248.203 -220.83 L 248.203 -220.709" />
    <path d="M 249.659 -220.83 L 249.659 -220.709" />
    <path d="M 248.203 -220.83 L 248.116 -220.83" />
    <path d="M 249.659 -220.83 L 249.716 -220.83" />
    <path d="M 252.682 -227.156 L 252.932 -227.156" />
    <path d="M 252.932 -227.156 L 252.932 -227.286" />
    <path d="M 252.932 -227.286 L 252.682 -227.286" />
    <path d="M 252.682 -227.286 L 252.682 -227.156" />
    <path d="M 253.349 -227.156 L 253.599 -227.156" />
    <path d="M 253.599 -227.156 L 253.599 -227.286" />
    <path d="M 253.599 -227.286 L 253.349 -227.286" />
    <path d="M 253.349 -227.286 L 253.349 -227.156" />
    <path d="M 255.736 -218.224 L 256.127 -218.232" />
    <path d="M 256.132 -218.74 L 256.127 -218.232" />
    <path d="M 255.637 -220.713 L 256.15 -220.709" />
    <path d="M 256.149 -220.613 L 256.289 -220.612" />
    <path d="M 256.289 -220.612 L 256.29 -220.71" />
    <path d="M 256.149 -220.613 L 256.15 -220.709" />
    <path d="M 256.287 -220.389 L 256.289 -220.612" />
    <path d="M 256.147 -220.389 L 256.149 -220.613" />
    <path d="M 255.731 -217.62 L 255.736 -218.224" />
    <path d="M 255.502 -217.53 L 255.633 -217.529" />
    <path d="M 255.494 -217.521 L 255.633 -217.519" />
    <path d="M 255.492 -217.571 L 255.494 -217.571" />
    <path d="M 255.631 -217.529 L 255.631 -217.519" />
    <path d="M 255.494 -217.521 L 255.494 -217.571" />
    <path d="M 255.492 -217.571 L 255.5 -218.471" />
    <path d="M 255.502 -217.57 L 255.51 -218.461" />
    <path d="M 255.5 -218.471 L 255.883 -218.476" />
    <path d="M 255.51 -218.461 L 255.893 -218.466" />
    <path d="M 256.028 -218.78 L 255.895 -218.781" />
    <path d="M 256.028 -218.79 L 255.887 -218.791" />
    <path d="M 255.887 -218.741 L 255.885 -218.741" />
    <path d="M 255.949 -218.764 L 255.949 -218.78" />
    <path d="M 255.949 -218.764 L 255.959 -218.764" />
    <path d="M 255.984 -218.763 L 255.984 -218.78" />
    <path d="M 255.984 -218.763 L 255.974 -218.763" />
    <path d="M 255.959 -218.782 L 255.955 -218.79" />
    <path d="M 255.974 -218.782 L 255.978 -218.79" />
    <path d="M 255.883 -218.476 L 255.885 -218.741" />
    <path d="M 255.887 -218.741 L 255.887 -218.791" />
    <path d="M 255.893 -218.466 L 255.895 -218.781" />
    <path d="M 256.023 -218.78 L 256.023 -218.79" />
    <path d="M 256.287 -220.389 L 256.147 -220.389" />
    <path d="M 256.041 -220.35 L 255.908 -220.351" />
    <path d="M 256.041 -220.34 L 255.9 -220.341" />
    <path d="M 255.901 -220.391 L 255.899 -220.391" />
    <path d="M 255.962 -220.367 L 255.962 -220.351" />
    <path d="M 255.962 -220.367 L 255.972 -220.367" />
    <path d="M 255.997 -220.367 L 255.997 -220.35" />
    <path d="M 255.997 -220.367 L 255.987 -220.367" />
    <path d="M 255.972 -220.349 L 255.968 -220.341" />
    <path d="M 255.987 -220.349 L 255.991 -220.341" />
    <path d="M 255.899 -220.471 L 255.899 -220.391" />
    <path d="M 255.901 -220.391 L 255.9 -220.341" />
    <path d="M 255.909 -220.481 L 255.908 -220.351" />
    <path d="M 256.036 -220.35 L 256.036 -220.34" />
    <path d="M 256.101 -218.91 L 256.106 -219.447" />
    <path d="M 256.053 -218.91 L 256.058 -219.447" />
    <path d="M 256.108 -219.682 L 256.112 -220.219" />
    <path d="M 256.064 -220.219 L 256.06 -219.682" />
    <path d="M 256.104 -218.74 L 256.028 -218.74" />
    <path d="M 256.028 -218.74 L 256.028 -218.76" />
    <path d="M 256.028 -218.76 L 256.104 -218.76" />
    <path d="M 256.112 -218.619 L 256.131 -218.619" />
    <path d="M 256.117 -220.39 L 256.041 -220.39" />
    <path d="M 256.041 -220.39 L 256.041 -220.37" />
    <path d="M 256.041 -220.37 L 256.117 -220.37" />
    <path d="M 256.128 -220.57 L 256.149 -220.57" />
    <path d="M 248.203 -220.709 L 247.35 -220.709" />
    <path d="M 255.027 -220.709 L 254.25 -220.709" />
    <path d="M 253.071 -220.709 L 252.324 -220.709" />
    <path d="M 251.144 -220.709 L 249.659 -220.709" />
    <path d="M 255.901 -220.391 L 255.899 -220.391" />
    <path d="M 255.899 -220.471 L 255.899 -220.391" />
    <path d="M 255.901 -220.391 L 255.9 -220.341" />
    <path d="M 255.909 -220.481 L 255.908 -220.351" />
    <path d="M 255.619 -220.613 L 255.619 -220.481" />
    <path d="M 255.609 -220.613 L 255.609 -220.473" />
    <path d="M 255.659 -220.473 L 255.659 -220.471" />
    <path d="M 255.619 -220.61 L 255.609 -220.61" />
    <path d="M 255.899 -220.471 L 255.659 -220.471" />
    <path d="M 255.659 -220.473 L 255.609 -220.473" />
    <path d="M 255.909 -220.481 L 255.619 -220.481" />
    <path d="M 255.073 -220.613 L 255.073 -220.481" />
    <path d="M 255.083 -220.613 L 255.083 -220.473" />
    <path d="M 255.033 -220.473 L 255.033 -220.471" />
    <path d="M 255.073 -220.61 L 255.083 -220.61" />
    <path d="M 255.033 -220.473 L 255.083 -220.473" />
    <path d="M 255.462 -220.431 L 255.23 -220.431" />
    <path d="M 254.203 -220.613 L 254.203 -220.481" />
    <path d="M 254.193 -220.613 L 254.193 -220.473" />
    <path d="M 254.243 -220.473 L 254.243 -220.471" />
    <path d="M 254.203 -220.61 L 254.193 -220.61" />
    <path d="M 254.243 -220.473 L 254.193 -220.473" />
    <path d="M 255.033 -220.471 L 254.243 -220.471" />
    <path d="M 255.033 -220.481 L 254.203 -220.481" />
    <path d="M 253.127 -220.613 L 253.127 -220.481" />
    <path d="M 253.137 -220.613 L 253.137 -220.473" />
    <path d="M 253.087 -220.473 L 253.087 -220.471" />
    <path d="M 253.127 -220.61 L 253.137 -220.61" />
    <path d="M 253.087 -220.473 L 253.137 -220.473" />
    <path d="M 254.046 -220.431 L 253.284 -220.431" />
    <path d="M 252.277 -220.612 L 252.277 -220.481" />
    <path d="M 252.267 -220.612 L 252.267 -220.473" />
    <path d="M 252.317 -220.473 L 252.317 -220.471" />
    <path d="M 252.277 -220.61 L 252.267 -220.61" />
    <path d="M 252.317 -220.473 L 252.267 -220.473" />
    <path d="M 249.611 -220.611 L 249.611 -220.48" />
    <path d="M 249.601 -220.611 L 249.601 -220.472" />
    <path d="M 249.651 -220.472 L 249.651 -220.47" />
    <path d="M 249.611 -220.609 L 249.601 -220.609" />
    <path d="M 249.651 -220.472 L 249.601 -220.472" />
    <path d="M 251.201 -220.612 L 251.201 -220.48" />
    <path d="M 251.211 -220.612 L 251.211 -220.472" />
    <path d="M 251.161 -220.472 L 251.161 -220.47" />
    <path d="M 251.201 -220.609 L 251.211 -220.609" />
    <path d="M 251.161 -220.472 L 251.211 -220.472" />
    <path d="M 253.087 -220.471 L 252.317 -220.471" />
    <path d="M 252.277 -220.481 L 253.127 -220.481" />
    <path d="M 252.12 -220.431 L 251.359 -220.43" />
    <path d="M 249.651 -220.47 L 251.161 -220.47" />
    <path d="M 251.201 -220.48 L 249.611 -220.48" />
    <path d="M 248.265 -220.611 L 248.265 -220.479" />
    <path d="M 248.275 -220.611 L 248.275 -220.471" />
    <path d="M 248.225 -220.471 L 248.225 -220.469" />
    <path d="M 248.265 -220.608 L 248.275 -220.608" />
    <path d="M 248.225 -220.471 L 248.275 -220.471" />
    <path d="M 248.225 -220.469 L 247.35 -220.469" />
    <path d="M 247.35 -220.479 L 248.265 -220.479" />
    <path d="M 255.462 -220.686 L 255.23 -220.686" />
    <path d="M 255.462 -220.638 L 255.23 -220.638" />
    <path d="M 254.046 -220.686 L 253.782 -220.686" />
    <path d="M 254.046 -220.638 L 253.782 -220.638" />
    <path d="M 253.547 -220.686 L 253.284 -220.686" />
    <path d="M 253.547 -220.638 L 253.284 -220.638" />
    <path d="M 252.12 -220.686 L 251.857 -220.686" />
    <path d="M 252.12 -220.638 L 251.857 -220.638" />
    <path d="M 251.622 -220.686 L 251.358 -220.686" />
    <path d="M 251.622 -220.638 L 251.359 -220.638" />
    <path d="M 249.454 -220.685 L 248.422 -220.685" />
    <path d="M 248.422 -220.637 L 249.454 -220.637" />
    <path d="M 249.454 -220.43 L 248.422 -220.429" />
    <path d="M 252.448 -235.104 L 252.448 -234.416" />
    <path d="M 252.448 -233.72 L 252.448 -233.65" />
    <path d="M 252.458 -235.094 L 252.458 -234.426" />
    <path d="M 252.458 -233.71 L 252.458 -233.64" />
    <path d="M 248.071 -233.64 L 248.071 -233.53" />
    <path d="M 248.061 -233.53 L 248.061 -233.65" />
    <path d="M 247.544 -233.457 L 247.948 -233.457" />
    <path d="M 247.544 -233.505 L 247.948 -233.505" />
    <path d="M 251.898 -233.536 L 251.908 -233.536" />
    <path d="M 251.898 -233.53 L 251.898 -233.65" />
    <path d="M 251.908 -233.53 L 251.908 -233.64" />
    <path d="M 249.647 -233.64 L 249.647 -233.53" />
    <path d="M 249.657 -233.53 L 249.657 -233.65" />
    <path d="M 250.174 -233.457 L 249.77 -233.457" />
    <path d="M 250.174 -233.505 L 249.77 -233.505" />
    <path d="M 251.79 -233.457 L 251.386 -233.457" />
    <path d="M 251.79 -233.505 L 251.386 -233.505" />
    <path d="M 251.177 -233.457 L 250.378 -233.457" />
    <path d="M 251.177 -233.505 L 250.378 -233.505" />
    <path d="M 248.071 -233.64 L 249.647 -233.64" />
    <path d="M 248.061 -233.65 L 249.657 -233.65" />
    <path d="M 251.898 -233.65 L 252.448 -233.65" />
    <path d="M 251.908 -233.64 L 252.458 -233.64" />
    <path d="M 252.584 -233.72 L 252.584 -233.71" />
    <path d="M 252.666 -233.678 L 252.666 -233.658" />
    <path d="M 252.59 -233.678 L 252.59 -233.658" />
    <path d="M 252.666 -233.658 L 252.59 -233.658" />
    <path d="M 252.59 -233.678 L 252.666 -233.678" />
    <path d="M 252.59 -233.72 L 252.448 -233.72" />
    <path d="M 252.584 -234.416 L 252.584 -234.426" />
    <path d="M 252.666 -234.458 L 252.666 -234.477" />
    <path d="M 252.59 -234.458 L 252.59 -234.477" />
    <path d="M 252.666 -234.477 L 252.59 -234.477" />
    <path d="M 252.59 -234.458 L 252.666 -234.458" />
    <path d="M 252.59 -234.416 L 252.448 -234.416" />
    <path d="M 252.59 -234.426 L 252.458 -234.426" />
    <path d="M 252.59 -233.71 L 252.458 -233.71" />
    <path d="M 252.677 -234.477 L 252.686 -234.477" />
    <path d="M 252.677 -233.657 L 252.686 -233.657" />
    <path d="M 252.615 -233.818 L 252.615 -234.308" />
    <path d="M 252.663 -233.818 L 252.663 -234.308" />
    <path d="M 247.35 -235.184 L 252.458 -235.184" />
    <path d="M 254.434 -235.094 L 254.434 -234.962" />
    <path d="M 254.424 -234.967 L 254.434 -234.967" />
    <path d="M 254.424 -234.962 L 254.424 -235.104" />
    <path d="M 254.424 -235.104 L 255.218 -235.104" />
    <path d="M 253.368 -235.104 L 253.368 -234.962" />
    <path d="M 253.358 -235.094 L 253.358 -234.962" />
    <path d="M 252.448 -235.104 L 253.368 -235.104" />
    <path d="M 254.013 -234.889 L 254.277 -234.889" />
    <path d="M 254.013 -234.937 L 254.277 -234.937" />
    <path d="M 253.515 -235.184 L 254.277 -235.184" />
    <path d="M 256.284 -235.094 L 256.284 -234.962" />
    <path d="M 256.274 -235.104 L 257.201 -235.104" />
    <path d="M 255.218 -235.104 L 255.218 -234.962" />
    <path d="M 255.208 -235.094 L 255.208 -234.962" />
    <path d="M 255.863 -234.889 L 256.127 -234.889" />
    <path d="M 255.863 -234.937 L 256.127 -234.937" />
    <path d="M 252.458 -235.094 L 253.358 -235.094" />
    <path d="M 253.158 -235.184 L 253.158 -235.104" />
    <path d="M 253.515 -234.889 L 253.779 -234.889" />
    <path d="M 253.515 -234.937 L 253.779 -234.937" />
    <path d="M 254.434 -235.094 L 255.208 -235.094" />
    <path d="M 254.634 -235.184 L 254.634 -235.104" />
    <path d="M 255.008 -235.184 L 255.008 -235.104" />
    <path d="M 256.484 -235.184 L 256.484 -235.104" />
    <path d="M 255.365 -234.889 L 255.629 -234.889" />
    <path d="M 255.365 -234.937 L 255.629 -234.937" />
    <path d="M 256.284 -235.094 L 257.191 -235.094" />
    <path d="M 257.201 -235.104 L 257.201 -234.154" />
    <path d="M 257.281 -234.234 L 257.281 -233.848" />
    <path d="M 257.201 -233.823 L 257.201 -233.768" />
    <path d="M 257.191 -235.094 L 257.191 -234.164" />
    <path d="M 257.191 -233.813 L 257.191 -233.758" />
    <path d="M 257.29 -233.768 L 257.201 -233.768" />
    <path d="M 257.4 -233.758 L 257.191 -233.758" />
    <path d="M 257.055 -233.823 L 257.055 -233.813" />
    <path d="M 257.055 -234.154 L 257.055 -234.164" />
    <path d="M 256.973 -234.191 L 256.973 -234.211" />
    <path d="M 257.049 -234.191 L 257.049 -234.211" />
    <path d="M 256.973 -234.211 L 257.049 -234.211" />
    <path d="M 257.049 -234.191 L 256.973 -234.191" />
    <path d="M 257.025 -233.882 L 257.025 -234.041" />
    <path d="M 256.977 -233.882 L 256.977 -234.041" />
    <path d="M 257.049 -233.823 L 257.201 -233.823" />
    <path d="M 257.049 -233.813 L 257.191 -233.813" />
    <path d="M 257.191 -234.164 L 257.049 -234.164" />
    <path d="M 257.049 -234.154 L 257.201 -234.154" />
    <path d="M 257.201 -234.234 L 257.281 -234.234" />
    <path d="M 247.574 -225.655 L 247.574 -225.52" />
    <path d="M 250.584 -225.66 L 250.164 -225.66" />
    <path d="M 250.164 -225.66 L 250.164 -225.52" />
    <path d="M 250.584 -225.5 L 250.584 -225.66" />
    <path d="M 256.694 -221.23 L 256.694 -220.71" />
    <path d="M 256.714 -226.99 L 256.714 -227.01" />
    <path d="M 257.114 -226.99 L 257.114 -227.01" />
    <path d="M 256.118 -218.794 L 256.887 -218.794" />
    <path d="M 256.126 -220.334 L 256.89 -220.334" />
    <path d="M 256.89 -220.334 A 0.766 0.766 0 0 1 256.127 -219.567" />
    <path d="M 256.127 -219.562 A 0.768 0.768 0 0 1 256.887 -218.794" />
    <path d="M 255.365 -235.184 L 256.127 -235.184" />
    <path d="M 250.852 -224.385 L 250.852 -224.26" />
    <path d="M 251.612 -224.26 L 251.612 -224.385" />
    <path d="M 252.867 -221.23 L 252.867 -225.265" />
    <path d="M 252.842 -221.23 L 252.842 -225.265" />
    <path d="M 254.384 -225.265 L 254.384 -225.39" />
    <path d="M 254.359 -225.265 L 254.359 -225.39" />
    <path d="M 252.717 -224.26 L 251.612 -224.26" />
    <path d="M 252.717 -224.285 L 251.612 -224.285" />
    <path d="M 252.742 -224.385 L 251.612 -224.385" />
    <path d="M 252.717 -224.36 L 251.612 -224.36" />
    <path d="M 250.852 -224.26 L 250.714 -224.26" />
    <path d="M 250.852 -224.285 L 250.714 -224.285" />
    <path d="M 254.359 -225.29 L 251.907 -225.29" />
    <path d="M 250.852 -224.385 L 250.714 -224.385" />
    <path d="M 250.852 -224.36 L 250.714 -224.36" />
    <path d="M 250.882 -225.265 L 250.882 -225.39" />
    <path d="M 250.857 -225.265 L 250.857 -225.39" />
    <path d="M 250.882 -225.39 L 250.584 -225.39" />
    <path d="M 250.857 -225.365 L 250.584 -225.365" />
    <path d="M 250.882 -225.265 L 250.584 -225.265" />
    <path d="M 250.857 -225.29 L 250.584 -225.29" />
    <path d="M 254.384 -225.265 L 252.867 -225.265" />
    <path d="M 251.882 -225.39 L 254.384 -225.39" />
    <path d="M 251.907 -225.365 L 254.359 -225.365" />
    <path d="M 255.604 -225.265 L 255.604 -225.39" />
    <path d="M 255.629 -225.265 L 255.629 -225.39" />
    <path d="M 255.604 -225.39 L 256.569 -225.39" />
    <path d="M 255.629 -225.365 L 256.569 -225.365" />
    <path d="M 255.604 -225.265 L 256.569 -225.265" />
    <path d="M 255.629 -225.29 L 256.569 -225.29" />
    <path d="M 256.724 -220.71 L 256.724 -225.36" />
    <path d="M 256.699 -220.71 L 256.699 -225.385" />
    <path d="M 256.569 -221.23 L 256.569 -225.515" />
    <path d="M 256.594 -221.23 L 256.594 -225.49" />
    <path d="M 252.717 -221.23 L 252.717 -224.385" />
    <path d="M 252.742 -221.23 L 252.742 -224.385" />
    <path d="M 252.717 -223.35 L 251.807 -223.35" />
    <path d="M 252.717 -223.325 L 251.832 -223.325" />
    <path d="M 252.717 -223.25 L 251.807 -223.25" />
    <path d="M 252.717 -223.275 L 251.832 -223.275" />
    <path d="M 251.807 -223.35 L 251.807 -223.25" />
    <path d="M 251.832 -223.35 L 251.832 -223.25" />
    <path d="M 256.194 -221.23 L 256.194 -221.834" />
    <path d="M 256.219 -221.23 L 256.219 -221.809" />
    <path d="M 256.269 -221.23 L 256.269 -221.759" />
    <path d="M 256.269 -221.759 L 256.569 -221.759" />
    <path d="M 256.194 -221.834 L 256.569 -221.834" />
    <path d="M 256.219 -221.809 L 256.569 -221.809" />
    <path d="M 252.672 -224.385 L 252.672 -225.265" />
    <path d="M 251.882 -225.265 L 251.882 -225.39" />
    <path d="M 251.907 -225.265 L 251.907 -225.39" />
    <path d="M 251.882 -225.265 L 252.867 -225.265" />
    <path d="M 256.569 -225.515 L 256.714 -225.515" />
    <path d="M 256.594 -225.49 L 256.714 -225.49" />
    <path d="M 256.699 -225.385 L 256.714 -225.385" />
    <path d="M 256.694 -220.71 L 256.724 -220.71" />
    <path d="M 256.714 -226.08 L 257.114 -226.08" />
    <path d="M 256.714 -226.99 L 257.114 -226.99" />
  </g>
</svg>
