<?xml version="1.0" encoding="UTF-8"?>
<svg xmlns="http://www.w3.org/2000/svg" viewBox="231.06 191.06 35.88 48.88" aria-hidden="true">
  <style>
    path,
    circle {
      fill: none;
      stroke: #FF3B30;
      stroke-width: 1.55;
      stroke-linecap: round;
      stroke-linejoin: round;
      vector-effect: non-scaling-stroke;
    }
  </style>
  <g transform="scale(1 -1)">
    <path d="M 240.674 -196.38 L 239.924 -196.38" />
    <path d="M 238.754 -196.38 L 238.094 -196.38" />
    <path d="M 236.924 -196.38 L 236.264 -196.38" />
    <path d="M 236.394 -202.14 L 236.394 -196.91" />
    <path d="M 239.924 -196.91 L 239.924 -196.38" />
    <path d="M 238.754 -196.91 L 238.754 -196.38" />
    <path d="M 238.094 -196.91 L 238.094 -196.38" />
    <path d="M 236.924 -196.91 L 236.924 -196.38" />
    <path d="M 236.394 -203.75 L 236.394 -202.55" />
    <path d="M 242.874 -202.96 L 242.874 -202.55" />
    <path d="M 237.604 -202.55 L 242.874 -202.55" />
    <path d="M 242.874 -202.96 L 243.254 -202.96" />
    <path d="M 236.694 -202.55 L 236.394 -202.55" />
    <path d="M 236.694 -202.55 L 236.694 -202.14" />
    <path d="M 237.604 -202.55 L 237.604 -202.14" />
    <path d="M 240.154 -202.14 L 237.604 -202.14" />
    <path d="M 240.154 -196.91 L 239.924 -196.91" />
    <path d="M 238.754 -196.91 L 238.094 -196.91" />
    <path d="M 236.924 -196.91 L 236.394 -196.91" />
    <path d="M 236.694 -202.14 L 236.394 -202.14" />
    <path d="M 247.704 -200.88 L 248.55 -200.88" />
    <path d="M 247.704 -203.85 L 247.704 -202.02" />
    <path d="M 247.704 -206.23 L 247.704 -203.25" />
    <path d="M 247.704 -201.1 L 247.704 -200.88" />
    <path d="M 236.264 -196.51 L 236.264 -196.38" />
    <path d="M 236.264 -196.51 L 236.139 -196.51" />
    <path d="M 247.704 -201.1 L 247.284 -201.1" />
    <path d="M 247.704 -202.02 L 247.284 -202.02" />
    <path d="M 247.284 -201.1 L 247.284 -200.76" />
    <path d="M 244.234 -202.18 L 244.364 -202.18" />
    <path d="M 245.294 -202.18 L 246.372 -202.18" />
    <path d="M 247.152 -202.18 L 247.284 -202.18" />
    <path d="M 247.284 -202.18 L 247.284 -202.02" />
    <path d="M 247.284 -200.76 L 247.284 -200.49" />
    <path d="M 247.284 -200.49 L 248.55 -200.49" />
    <path d="M 247.179 -196.93 L 247.179 -196.38" />
    <path d="M 248.369 -196.93 L 248.369 -196.38" />
    <path d="M 244.819 -196.93 L 244.819 -196.38" />
    <path d="M 246.009 -196.93 L 246.009 -196.38" />
    <path d="M 242.504 -196.93 L 242.504 -196.38" />
    <path d="M 243.694 -196.93 L 243.694 -196.38" />
    <path d="M 240.674 -196.93 L 240.674 -196.38" />
    <path d="M 241.864 -196.93 L 241.864 -196.38" />
    <path d="M 248.369 -196.93 L 248.55 -196.93" />
    <path d="M 247.179 -196.93 L 246.009 -196.93" />
    <path d="M 244.819 -196.93 L 244.234 -196.93" />
    <path d="M 241.864 -196.38 L 242.504 -196.38" />
    <path d="M 243.694 -196.38 L 244.819 -196.38" />
    <path d="M 246.009 -196.38 L 247.179 -196.38" />
    <path d="M 241.864 -196.93 L 242.504 -196.93" />
    <path d="M 240.154 -202.22 L 244.024 -202.22" />
    <path d="M 243.694 -196.93 L 244.024 -196.93" />
    <path d="M 240.674 -196.93 L 240.154 -196.93" />
    <path d="M 244.024 -202.02 L 244.024 -202.22" />
    <path d="M 244.024 -202.02 L 244.234 -202.02" />
    <path d="M 244.024 -201.11 L 244.234 -201.11" />
    <path d="M 244.234 -200.76 L 244.234 -201.11" />
    <path d="M 244.234 -202.02 L 244.234 -202.18" />
    <path d="M 244.024 -196.93 L 244.024 -198.38" />
    <path d="M 244.024 -199.31 L 244.024 -201.11" />
    <path d="M 244.024 -198.38 L 244.234 -198.38" />
    <path d="M 244.024 -199.31 L 244.234 -199.31" />
    <path d="M 244.234 -200.76 L 244.234 -199.31" />
    <path d="M 244.234 -198.38 L 244.234 -196.93" />
    <path d="M 244.364 -202.18 L 244.364 -202.59" />
    <path d="M 245.294 -202.18 L 245.294 -202.59" />
    <path d="M 246.372 -202.59 L 245.294 -202.59" />
    <path d="M 244.364 -202.59 L 243.904 -202.59" />
    <path d="M 243.904 -202.59 L 243.904 -203.01" />
    <path d="M 243.904 -203.01 L 243.254 -203.01" />
    <path d="M 246.372 -202.18 L 246.372 -202.59" />
    <path d="M 247.152 -202.18 L 247.152 -202.59" />
    <path d="M 247.152 -202.59 L 247.414 -202.59" />
    <path d="M 247.414 -202.59 L 247.414 -203.85" />
    <path d="M 247.414 -203.25 L 247.414 -205.99" />
    <path d="M 248.369 -196.38 L 248.55 -196.38" />
    <path d="M 245.129 -205.99 L 245.129 -206.577" />
    <path d="M 243.959 -205.99 L 243.959 -206.58" />
    <path d="M 243.45 -205.99 L 243.959 -205.99" />
    <path d="M 245.129 -205.99 L 246.09 -205.99" />
    <path d="M 246.74 -205.99 L 247.414 -205.99" />
    <path d="M 246.09 -205.99 L 246.09 -206.574" />
    <path d="M 246.74 -205.99 L 246.74 -206.572" />
    <path d="M 247.704 -206.23 L 247.704 -206.751" />
    <path d="M 238.138 -202.26 L 238.388 -202.26" />
    <path d="M 238.388 -202.26 L 238.388 -202.39" />
    <path d="M 238.388 -202.39 L 238.138 -202.39" />
    <path d="M 238.138 -202.39 L 238.138 -202.26" />
    <path d="M 238.446 -202.26 L 238.696 -202.26" />
    <path d="M 238.696 -202.26 L 238.696 -202.39" />
    <path d="M 238.696 -202.39 L 238.446 -202.39" />
    <path d="M 238.446 -202.39 L 238.446 -202.26" />
    <path d="M 240.069 -202.286 L 240.319 -202.286" />
    <path d="M 240.319 -202.286 L 240.319 -202.416" />
    <path d="M 240.319 -202.416 L 240.069 -202.416" />
    <path d="M 240.069 -202.416 L 240.069 -202.286" />
    <path d="M 240.429 -202.293 L 240.679 -202.293" />
    <path d="M 240.679 -202.293 L 240.679 -202.423" />
    <path d="M 240.679 -202.423 L 240.429 -202.423" />
    <path d="M 240.429 -202.423 L 240.429 -202.293" />
    <path d="M 243.45 -206.582 L 243.959 -206.58" />
    <path d="M 246.74 -206.572 L 247.086 -206.57" />
    <path d="M 247.086 -206.57 L 247.087 -206.751" />
    <path d="M 245.129 -206.577 L 246.09 -206.574" />
    <path d="M 245.053 -206.676 L 245.043 -206.676" />
    <path d="M 244.027 -206.676 L 244.028 -206.808" />
    <path d="M 244.037 -206.676 L 244.038 -206.816" />
    <path d="M 243.988 -206.816 L 243.988 -206.818" />
    <path d="M 244.038 -206.816 L 243.988 -206.816" />
    <path d="M 244.027 -206.679 L 244.037 -206.679" />
    <path d="M 245.053 -206.673 L 245.054 -206.805" />
    <path d="M 245.043 -206.673 L 245.044 -206.813" />
    <path d="M 245.094 -206.813 L 245.094 -206.815" />
    <path d="M 245.044 -206.813 L 245.094 -206.813" />
    <path d="M 246.12 -206.81 L 246.12 -206.812" />
    <path d="M 246.746 -206.808 L 246.746 -206.81" />
    <path d="M 246.705 -206.668 L 246.706 -206.8" />
    <path d="M 246.696 -206.808 L 246.746 -206.808" />
    <path d="M 246.159 -206.67 L 246.16 -206.801" />
    <path d="M 246.169 -206.67 L 246.17 -206.809" />
    <path d="M 246.17 -206.809 L 246.12 -206.81" />
    <path d="M 246.706 -206.8 L 246.844 -206.799" />
    <path d="M 246.695 -206.668 L 246.696 -206.808" />
    <path d="M 246.159 -206.672 L 246.169 -206.672" />
    <path d="M 246.746 -206.81 L 246.834 -206.809" />
    <path d="M 246.705 -206.671 L 246.695 -206.671" />
    <path d="M 246.844 -206.799 L 246.843 -206.98" />
    <path d="M 246.834 -206.809 L 246.833 -206.99" />
    <path d="M 244.185 -206.858 L 244.897 -206.855" />
    <path d="M 244.184 -206.602 L 244.423 -206.602" />
    <path d="M 243.988 -206.818 L 243.45 -206.82" />
    <path d="M 243.45 -206.81 L 244.028 -206.808" />
    <path d="M 244.184 -206.65 L 244.423 -206.65" />
    <path d="M 244.658 -206.601 L 244.896 -206.6" />
    <path d="M 244.658 -206.649 L 244.896 -206.648" />
    <path d="M 246.12 -206.812 L 245.094 -206.815" />
    <path d="M 245.054 -206.805 L 246.16 -206.801" />
    <path d="M 246.317 -206.851 L 246.549 -206.85" />
    <path d="M 246.316 -206.596 L 246.548 -206.595" />
    <path d="M 246.316 -206.644 L 246.548 -206.643" />
    <path d="M 246.214 -194.695 L 242.314 -194.695" />
    <path d="M 246.214 -194.66 L 246.214 -194.695" />
    <path d="M 242.314 -194.66 L 246.214 -194.66" />
    <path d="M 246.354 -194.835 L 246.354 -195.935" />
    <path d="M 246.389 -194.835 L 246.354 -194.835" />
    <path d="M 246.389 -195.935 L 246.389 -194.835" />
    <path d="M 246.389 -195.935 L 246.354 -195.935" />
    <path d="M 242.314 -194.66 L 242.314 -194.695" />
    <path d="M 242.174 -194.835 L 242.174 -195.935" />
    <path d="M 242.139 -194.835 L 242.174 -194.835" />
    <path d="M 242.139 -195.935 L 242.139 -194.835" />
    <path d="M 242.139 -195.935 L 242.174 -195.935" />
    <path d="M 246.378 -195.973 L 246.375 -195.97" />
    <path d="M 242.188 -194.811 L 242.188 -194.805" />
    <path d="M 246.25 -194.674 L 246.247 -194.674" />
    <path d="M 246.238 -194.702 L 246.238 -194.709" />
    <path d="M 246.22 -194.701 L 246.237 -194.701" />
    <path d="M 246.253 -194.67 L 246.241 -194.67" />
    <path d="M 246.244 -194.709 L 246.25 -194.709" />
    <path d="M 246.259 -194.701 L 246.289 -194.701" />
    <path d="M 246.253 -194.67 L 246.253 -194.671" />
    <path d="M 246.253 -194.671 L 246.25 -194.674" />
    <path d="M 246.25 -194.676 L 246.25 -194.686" />
    <path d="M 246.214 -194.685 L 246.273 -194.685" />
    <path d="M 246.273 -194.685 L 246.273 -194.67" />
    <path d="M 246.273 -194.67 L 246.214 -194.67" />
    <path d="M 246.237 -194.686 L 246.22 -194.686" />
    <path d="M 246.244 -194.686 L 246.244 -194.676" />
    <path d="M 246.244 -194.674 L 246.241 -194.671" />
    <path d="M 246.241 -194.671 L 246.241 -194.67" />
    <path d="M 246.256 -194.702 L 246.25 -194.702" />
    <path d="M 246.25 -194.702 L 246.25 -194.709" />
    <path d="M 246.25 -194.709 L 246.256 -194.709" />
    <path d="M 246.256 -194.709 L 246.256 -194.702" />
    <path d="M 246.238 -194.709 L 246.244 -194.709" />
    <path d="M 246.244 -194.709 L 246.244 -194.702" />
    <path d="M 246.244 -194.702 L 246.238 -194.702" />
    <path d="M 246.262 -194.686 L 246.262 -194.701" />
    <path d="M 246.232 -194.701 L 246.232 -194.686" />
    <path d="M 246.262 -194.701 L 246.232 -194.701" />
    <path d="M 246.232 -194.686 L 246.262 -194.686" />
    <path d="M 246.241 -194.671 L 246.253 -194.671" />
    <path d="M 246.241 -194.67 L 246.241 -194.671" />
    <path d="M 246.253 -194.671 L 246.253 -194.67" />
    <path d="M 246.253 -194.671 L 246.25 -194.674" />
    <path d="M 246.25 -194.682 L 246.25 -194.706" />
    <path d="M 246.25 -194.707 L 246.249 -194.708" />
    <path d="M 246.249 -194.708 L 246.247 -194.708" />
    <path d="M 246.25 -194.676 L 246.247 -194.676" />
    <path d="M 246.25 -194.707 L 246.247 -194.707" />
    <path d="M 246.249 -194.707 L 246.249 -194.676" />
    <path d="M 246.249 -194.676 L 246.25 -194.674" />
    <path d="M 246.241 -194.671 L 246.244 -194.674" />
    <path d="M 246.244 -194.682 L 246.244 -194.706" />
    <path d="M 246.244 -194.707 L 246.245 -194.708" />
    <path d="M 246.245 -194.708 L 246.247 -194.708" />
    <path d="M 246.244 -194.707 L 246.247 -194.707" />
    <path d="M 246.245 -194.707 L 246.245 -194.676" />
    <path d="M 246.245 -194.676 L 246.244 -194.674" />
    <path d="M 246.244 -194.676 L 246.247 -194.676" />
    <path d="M 246.244 -194.674 L 246.247 -194.674" />
    <path d="M 246.253 -194.67 L 246.241 -194.67" />
    <path d="M 246.244 -194.702 L 246.25 -194.702" />
    <path d="M 246.259 -194.686 L 246.289 -194.686" />
    <path d="M 246.22 -194.701 L 246.22 -194.686" />
    <path d="M 246.348 -195.941 L 246.348 -195.957" />
    <path d="M 246.34 -195.976 L 246.347 -195.976" />
    <path d="M 246.347 -194.811 L 246.34 -194.811" />
    <path d="M 246.348 -194.829 L 246.348 -194.812" />
    <path d="M 246.379 -194.796 L 246.379 -194.808" />
    <path d="M 246.375 -194.799 L 246.375 -194.802" />
    <path d="M 246.34 -194.805 L 246.34 -194.799" />
    <path d="M 246.348 -194.79 L 246.348 -194.76" />
    <path d="M 246.379 -194.796 L 246.378 -194.796" />
    <path d="M 246.378 -194.796 L 246.375 -194.799" />
    <path d="M 246.373 -194.799 L 246.363 -194.799" />
    <path d="M 246.364 -194.835 L 246.364 -194.776" />
    <path d="M 246.364 -194.776 L 246.379 -194.776" />
    <path d="M 246.379 -194.776 L 246.379 -194.835" />
    <path d="M 246.363 -194.812 L 246.363 -194.829" />
    <path d="M 246.363 -194.805 L 246.373 -194.805" />
    <path d="M 246.375 -194.805 L 246.378 -194.808" />
    <path d="M 246.378 -194.808 L 246.379 -194.808" />
    <path d="M 246.347 -194.794 L 246.347 -194.799" />
    <path d="M 246.347 -194.799 L 246.34 -194.799" />
    <path d="M 246.34 -194.799 L 246.34 -194.794" />
    <path d="M 246.34 -194.794 L 246.347 -194.794" />
    <path d="M 246.34 -194.811 L 246.34 -194.805" />
    <path d="M 246.34 -194.805 L 246.347 -194.805" />
    <path d="M 246.347 -194.805 L 246.347 -194.811" />
    <path d="M 246.363 -194.787 L 246.348 -194.787" />
    <path d="M 246.348 -194.817 L 246.363 -194.817" />
    <path d="M 246.348 -194.787 L 246.348 -194.817" />
    <path d="M 246.363 -194.817 L 246.363 -194.787" />
    <path d="M 246.378 -194.808 L 246.378 -194.796" />
    <path d="M 246.379 -194.808 L 246.378 -194.808" />
    <path d="M 246.378 -194.796 L 246.379 -194.796" />
    <path d="M 246.378 -194.796 L 246.375 -194.799" />
    <path d="M 246.367 -194.799 L 246.343 -194.799" />
    <path d="M 246.342 -194.799 L 246.341 -194.8" />
    <path d="M 246.341 -194.8 L 246.341 -194.802" />
    <path d="M 246.373 -194.799 L 246.373 -194.802" />
    <path d="M 246.342 -194.799 L 246.342 -194.802" />
    <path d="M 246.342 -194.8 L 246.373 -194.8" />
    <path d="M 246.373 -194.8 L 246.375 -194.799" />
    <path d="M 246.378 -194.808 L 246.375 -194.805" />
    <path d="M 246.367 -194.805 L 246.343 -194.805" />
    <path d="M 246.342 -194.805 L 246.341 -194.804" />
    <path d="M 246.341 -194.804 L 246.341 -194.802" />
    <path d="M 246.342 -194.805 L 246.342 -194.802" />
    <path d="M 246.342 -194.804 L 246.373 -194.804" />
    <path d="M 246.373 -194.804 L 246.375 -194.805" />
    <path d="M 246.373 -194.805 L 246.373 -194.802" />
    <path d="M 246.375 -194.805 L 246.375 -194.802" />
    <path d="M 246.379 -194.796 L 246.379 -194.808" />
    <path d="M 246.347 -194.805 L 246.347 -194.799" />
    <path d="M 246.363 -194.79 L 246.363 -194.76" />
    <path d="M 246.348 -194.829 L 246.363 -194.829" />
    <path d="M 246.347 -195.959 L 246.34 -195.959" />
    <path d="M 246.34 -195.964 L 246.34 -195.97" />
    <path d="M 246.379 -195.973 L 246.379 -195.961" />
    <path d="M 246.375 -195.97 L 246.375 -195.967" />
    <path d="M 246.348 -195.98 L 246.348 -196.01" />
    <path d="M 246.379 -195.973 L 246.378 -195.973" />
    <path d="M 242.15 -194.808 L 242.149 -194.808" />
    <path d="M 246.373 -195.97 L 246.363 -195.97" />
    <path d="M 246.364 -195.935 L 246.364 -195.994" />
    <path d="M 246.364 -195.994 L 246.379 -195.994" />
    <path d="M 246.379 -195.994 L 246.379 -195.935" />
    <path d="M 246.363 -195.957 L 246.363 -195.941" />
    <path d="M 246.363 -195.964 L 246.373 -195.964" />
    <path d="M 246.375 -195.964 L 246.378 -195.961" />
    <path d="M 246.378 -195.961 L 246.379 -195.961" />
    <path d="M 246.347 -195.976 L 246.347 -195.97" />
    <path d="M 246.347 -195.97 L 246.34 -195.97" />
    <path d="M 246.34 -195.97 L 246.34 -195.976" />
    <path d="M 246.34 -195.964 L 246.347 -195.964" />
    <path d="M 246.34 -195.959 L 246.34 -195.964" />
    <path d="M 246.347 -195.964 L 246.347 -195.959" />
    <path d="M 246.363 -195.982 L 246.348 -195.982" />
    <path d="M 246.348 -195.952 L 246.363 -195.952" />
    <path d="M 242.188 -194.8 L 242.188 -194.802" />
    <path d="M 246.348 -195.982 L 246.348 -195.952" />
    <path d="M 246.363 -195.952 L 246.363 -195.982" />
    <path d="M 246.378 -195.961 L 246.378 -195.973" />
    <path d="M 246.379 -195.961 L 246.378 -195.961" />
    <path d="M 246.378 -195.973 L 246.379 -195.973" />
    <path d="M 246.378 -195.973 L 246.375 -195.97" />
    <path d="M 246.367 -195.97 L 246.343 -195.97" />
    <path d="M 246.342 -195.97 L 246.341 -195.969" />
    <path d="M 246.341 -195.969 L 246.341 -195.967" />
    <path d="M 246.373 -195.97 L 246.373 -195.967" />
    <path d="M 246.342 -195.97 L 246.342 -195.967" />
    <path d="M 246.342 -195.969 L 246.373 -195.969" />
    <path d="M 246.373 -195.969 L 246.375 -195.97" />
    <path d="M 246.378 -195.961 L 246.375 -195.964" />
    <path d="M 246.367 -195.964 L 246.343 -195.964" />
    <path d="M 246.342 -195.964 L 246.341 -195.965" />
    <path d="M 246.341 -195.965 L 246.341 -195.967" />
    <path d="M 246.342 -195.964 L 246.342 -195.967" />
    <path d="M 246.342 -195.965 L 246.373 -195.965" />
    <path d="M 246.373 -195.965 L 246.375 -195.964" />
    <path d="M 246.373 -195.964 L 246.373 -195.967" />
    <path d="M 246.375 -195.964 L 246.375 -195.967" />
    <path d="M 246.379 -195.973 L 246.379 -195.961" />
    <path d="M 246.347 -195.964 L 246.347 -195.97" />
    <path d="M 246.363 -195.98 L 246.363 -196.01" />
    <path d="M 246.348 -195.941 L 246.363 -195.941" />
    <path d="M 242.139 -194.835 L 242.174 -194.835" />
    <path d="M 242.181 -194.811 L 242.188 -194.811" />
    <path d="M 242.18 -194.829 L 242.18 -194.812" />
    <path d="M 242.149 -194.796 L 242.149 -194.808" />
    <path d="M 242.153 -194.799 L 242.153 -194.802" />
    <path d="M 242.188 -194.805 L 242.188 -194.799" />
    <path d="M 242.18 -194.79 L 242.18 -194.76" />
    <path d="M 242.149 -194.796 L 242.15 -194.796" />
    <path d="M 242.15 -194.796 L 242.153 -194.799" />
    <path d="M 242.156 -194.799 L 242.166 -194.799" />
    <path d="M 242.164 -194.835 L 242.164 -194.776" />
    <path d="M 242.164 -194.776 L 242.149 -194.776" />
    <path d="M 242.149 -194.776 L 242.149 -194.835" />
    <path d="M 242.165 -194.812 L 242.165 -194.829" />
    <path d="M 242.166 -194.805 L 242.156 -194.805" />
    <path d="M 242.153 -194.805 L 242.15 -194.808" />
    <path d="M 242.181 -194.794 L 242.181 -194.799" />
    <path d="M 242.181 -194.799 L 242.188 -194.799" />
    <path d="M 242.188 -194.799 L 242.188 -194.794" />
    <path d="M 242.188 -194.794 L 242.181 -194.794" />
    <path d="M 242.181 -194.805 L 242.181 -194.811" />
    <path d="M 242.188 -194.805 L 242.181 -194.805" />
    <path d="M 242.165 -194.787 L 242.18 -194.787" />
    <path d="M 242.18 -194.817 L 242.165 -194.817" />
    <path d="M 242.18 -194.787 L 242.18 -194.817" />
    <path d="M 242.165 -194.817 L 242.165 -194.787" />
    <path d="M 242.15 -194.796 L 242.149 -194.796" />
    <path d="M 242.15 -194.808 L 242.15 -194.796" />
    <path d="M 242.149 -194.808 L 242.15 -194.808" />
    <path d="M 242.15 -194.796 L 242.153 -194.799" />
    <path d="M 242.162 -194.799 L 242.186 -194.799" />
    <path d="M 242.187 -194.799 L 242.188 -194.8" />
    <path d="M 242.156 -194.799 L 242.156 -194.802" />
    <path d="M 242.187 -194.799 L 242.187 -194.802" />
    <path d="M 242.187 -194.8 L 242.156 -194.8" />
    <path d="M 242.187 -194.805 L 242.188 -194.804" />
    <path d="M 242.156 -194.8 L 242.153 -194.799" />
    <path d="M 242.15 -194.808 L 242.153 -194.805" />
    <path d="M 242.162 -194.805 L 242.186 -194.805" />
    <path d="M 242.188 -194.804 L 242.188 -194.802" />
    <path d="M 242.18 -195.952 L 242.165 -195.952" />
    <path d="M 242.187 -194.805 L 242.187 -194.802" />
    <path d="M 242.156 -194.804 L 242.153 -194.805" />
    <path d="M 242.187 -194.804 L 242.156 -194.804" />
    <path d="M 242.181 -194.805 L 242.181 -194.799" />
    <path d="M 242.156 -194.805 L 242.156 -194.802" />
    <path d="M 242.153 -194.805 L 242.153 -194.802" />
    <path d="M 242.149 -194.796 L 242.149 -194.808" />
    <path d="M 242.165 -194.79 L 242.165 -194.76" />
    <path d="M 242.181 -195.959 L 242.188 -195.959" />
    <path d="M 242.18 -194.829 L 242.165 -194.829" />
    <path d="M 242.149 -195.973 L 242.149 -195.961" />
    <path d="M 242.18 -195.941 L 242.18 -195.957" />
    <path d="M 242.153 -195.97 L 242.153 -195.967" />
    <path d="M 242.15 -195.961 L 242.153 -195.964" />
    <path d="M 242.188 -195.964 L 242.188 -195.97" />
    <path d="M 242.18 -195.98 L 242.18 -196.01" />
    <path d="M 242.149 -195.973 L 242.15 -195.973" />
    <path d="M 242.15 -195.973 L 242.153 -195.97" />
    <path d="M 242.156 -195.97 L 242.166 -195.97" />
    <path d="M 242.164 -195.935 L 242.164 -195.994" />
    <path d="M 242.164 -195.994 L 242.149 -195.994" />
    <path d="M 242.149 -195.994 L 242.149 -195.935" />
    <path d="M 242.165 -195.957 L 242.165 -195.941" />
    <path d="M 242.166 -195.964 L 242.156 -195.964" />
    <path d="M 242.153 -195.964 L 242.15 -195.961" />
    <path d="M 242.15 -195.961 L 242.149 -195.961" />
    <path d="M 242.181 -195.976 L 242.181 -195.97" />
    <path d="M 242.181 -195.97 L 242.188 -195.97" />
    <path d="M 242.188 -195.97 L 242.188 -195.976" />
    <path d="M 242.188 -195.976 L 242.181 -195.976" />
    <path d="M 242.188 -195.959 L 242.188 -195.964" />
    <path d="M 242.188 -195.964 L 242.181 -195.964" />
    <path d="M 242.181 -195.964 L 242.181 -195.959" />
    <path d="M 242.165 -195.982 L 242.18 -195.982" />
    <path d="M 242.165 -195.952 L 242.165 -195.982" />
    <path d="M 242.18 -195.982 L 242.18 -195.952" />
    <path d="M 242.15 -195.961 L 242.15 -195.973" />
    <path d="M 242.269 -194.701 L 242.239 -194.701" />
    <path d="M 242.149 -195.961 L 242.15 -195.961" />
    <path d="M 242.15 -195.973 L 242.149 -195.973" />
    <path d="M 242.15 -195.973 L 242.153 -195.97" />
    <path d="M 242.162 -195.97 L 242.186 -195.97" />
    <path d="M 242.187 -195.97 L 242.188 -195.969" />
    <path d="M 242.188 -195.969 L 242.188 -195.967" />
    <path d="M 242.156 -195.97 L 242.156 -195.967" />
    <path d="M 242.187 -195.97 L 242.187 -195.967" />
    <path d="M 242.187 -195.969 L 242.156 -195.969" />
    <path d="M 242.156 -195.969 L 242.153 -195.97" />
    <path d="M 242.187 -195.964 L 242.188 -195.965" />
    <path d="M 242.162 -195.964 L 242.186 -195.964" />
    <path d="M 242.188 -195.965 L 242.188 -195.967" />
    <path d="M 242.273 -194.709 L 242.273 -194.702" />
    <path d="M 242.187 -195.964 L 242.187 -195.967" />
    <path d="M 242.187 -195.965 L 242.156 -195.965" />
    <path d="M 242.156 -195.965 L 242.153 -195.964" />
    <path d="M 242.156 -195.964 L 242.156 -195.967" />
    <path d="M 242.153 -195.964 L 242.153 -195.967" />
    <path d="M 242.149 -195.973 L 242.149 -195.961" />
    <path d="M 242.181 -195.964 L 242.181 -195.97" />
    <path d="M 242.165 -195.98 L 242.165 -196.01" />
    <path d="M 242.18 -195.941 L 242.165 -195.941" />
    <path d="M 242.291 -194.702 L 242.291 -194.709" />
    <path d="M 242.308 -194.701 L 242.292 -194.701" />
    <path d="M 242.276 -194.67 L 242.288 -194.67" />
    <path d="M 242.279 -194.674 L 242.282 -194.674" />
    <path d="M 242.285 -194.709 L 242.279 -194.709" />
    <path d="M 242.276 -194.67 L 242.276 -194.671" />
    <path d="M 242.276 -194.671 L 242.279 -194.674" />
    <path d="M 242.279 -194.676 L 242.279 -194.686" />
    <path d="M 242.314 -194.685 L 242.255 -194.685" />
    <path d="M 242.255 -194.685 L 242.255 -194.67" />
    <path d="M 242.255 -194.67 L 242.314 -194.67" />
    <path d="M 242.292 -194.686 L 242.308 -194.686" />
    <path d="M 242.285 -194.686 L 242.285 -194.676" />
    <path d="M 242.285 -194.674 L 242.288 -194.671" />
    <path d="M 242.288 -194.671 L 242.288 -194.67" />
    <path d="M 242.273 -194.702 L 242.279 -194.702" />
    <path d="M 242.279 -194.702 L 242.279 -194.709" />
    <path d="M 242.279 -194.709 L 242.273 -194.709" />
    <path d="M 242.291 -194.709 L 242.285 -194.709" />
    <path d="M 242.285 -194.709 L 242.285 -194.702" />
    <path d="M 242.279 -194.707 L 242.282 -194.707" />
    <path d="M 242.285 -194.702 L 242.291 -194.702" />
    <path d="M 242.267 -194.686 L 242.267 -194.701" />
    <path d="M 242.267 -194.701 L 242.297 -194.701" />
    <path d="M 242.297 -194.701 L 242.297 -194.686" />
    <path d="M 242.297 -194.686 L 242.267 -194.686" />
    <path d="M 242.288 -194.671 L 242.276 -194.671" />
    <path d="M 242.288 -194.67 L 242.288 -194.671" />
    <path d="M 242.276 -194.671 L 242.276 -194.67" />
    <path d="M 242.276 -194.671 L 242.279 -194.674" />
    <path d="M 242.279 -194.682 L 242.279 -194.706" />
    <path d="M 242.279 -194.707 L 242.28 -194.708" />
    <path d="M 242.28 -194.708 L 242.282 -194.708" />
    <path d="M 242.285 -194.702 L 242.279 -194.702" />
    <path d="M 242.279 -194.676 L 242.282 -194.676" />
    <path d="M 242.28 -194.707 L 242.28 -194.676" />
    <path d="M 242.269 -194.686 L 242.239 -194.686" />
    <path d="M 242.28 -194.676 L 242.279 -194.674" />
    <path d="M 242.288 -194.671 L 242.285 -194.674" />
    <path d="M 242.285 -194.682 L 242.285 -194.706" />
    <path d="M 242.285 -194.707 L 242.284 -194.708" />
    <path d="M 242.284 -194.708 L 242.282 -194.708" />
    <path d="M 242.285 -194.707 L 242.282 -194.707" />
    <path d="M 242.284 -194.707 L 242.284 -194.676" />
    <path d="M 242.284 -194.676 L 242.285 -194.674" />
    <path d="M 242.285 -194.676 L 242.282 -194.676" />
    <path d="M 242.285 -194.674 L 242.282 -194.674" />
    <path d="M 242.276 -194.67 L 242.288 -194.67" />
    <path d="M 242.308 -194.701 L 242.308 -194.686" />
    <path d="M 237.948 -196.452 L 237.643 -196.452" />
    <path d="M 237.948 -196.448 L 237.643 -196.448" />
    <path d="M 237.948 -196.43 L 237.643 -196.43" />
    <path d="M 237.948 -196.426 L 237.643 -196.426" />
    <path d="M 237.948 -196.408 L 237.643 -196.408" />
    <path d="M 237.948 -196.404 L 237.643 -196.404" />
    <path d="M 237.407 -196.452 L 237.093 -196.452" />
    <path d="M 237.407 -196.448 L 237.093 -196.448" />
    <path d="M 237.407 -196.43 L 237.093 -196.43" />
    <path d="M 237.407 -196.408 L 237.093 -196.408" />
    <path d="M 237.407 -196.404 L 237.093 -196.404" />
    <path d="M 237.407 -196.426 L 237.093 -196.426" />
    <path d="M 236.966 -196.371 L 236.966 -196.15" />
    <path d="M 236.976 -196.376 L 236.976 -196.142" />
    <path d="M 238.054 -196.37 L 238.054 -196.15" />
    <path d="M 238.044 -196.376 L 238.044 -196.142" />
    <path d="M 238.056 -196.09 L 236.964 -196.09" />
    <path d="M 236.964 -196.09 L 236.964 -196.142" />
    <path d="M 236.976 -196.142 L 236.976 -196.09" />
    <path d="M 236.976 -196.142 L 236.926 -196.142" />
    <path d="M 236.926 -196.142 L 236.926 -196.14" />
    <path d="M 238.056 -196.09 L 238.056 -196.142" />
    <path d="M 238.044 -196.142 L 238.044 -196.09" />
    <path d="M 238.044 -196.142 L 238.094 -196.142" />
    <path d="M 238.094 -196.142 L 238.094 -196.14" />
    <path d="M 236.943 -196.38 L 236.923 -196.38" />
    <path d="M 236.942 -196.456 L 236.924 -196.456" />
    <path d="M 236.942 -196.38 L 236.924 -196.38" />
    <path d="M 236.942 -196.456 L 236.942 -196.38" />
    <path d="M 238.074 -196.38 L 238.094 -196.38" />
    <path d="M 238.077 -196.456 L 238.094 -196.456" />
    <path d="M 238.077 -196.38 L 238.094 -196.38" />
    <path d="M 238.077 -196.456 L 238.077 -196.38" />
    <path d="M 238.773 -196.38 L 238.753 -196.38" />
    <path d="M 238.772 -196.456 L 238.754 -196.456" />
    <path d="M 238.772 -196.38 L 238.754 -196.38" />
    <path d="M 238.772 -196.456 L 238.772 -196.38" />
    <path d="M 238.794 -196.371 L 238.794 -196.15" />
    <path d="M 238.804 -196.376 L 238.804 -196.142" />
    <path d="M 238.054 -196.15 L 238.794 -196.15" />
    <path d="M 238.094 -196.14 L 238.754 -196.14" />
    <path d="M 238.792 -196.09 L 238.792 -196.142" />
    <path d="M 238.804 -196.142 L 238.804 -196.09" />
    <path d="M 238.804 -196.142 L 238.754 -196.142" />
    <path d="M 238.754 -196.142 L 238.754 -196.14" />
    <path d="M 239.884 -196.37 L 239.884 -196.15" />
    <path d="M 239.874 -196.376 L 239.874 -196.142" />
    <path d="M 239.886 -196.09 L 239.886 -196.142" />
    <path d="M 239.874 -196.142 L 239.874 -196.09" />
    <path d="M 239.874 -196.142 L 239.924 -196.142" />
    <path d="M 239.924 -196.142 L 239.924 -196.14" />
    <path d="M 239.904 -196.38 L 239.924 -196.38" />
    <path d="M 239.907 -196.456 L 239.924 -196.456" />
    <path d="M 239.907 -196.38 L 239.924 -196.38" />
    <path d="M 239.907 -196.456 L 239.907 -196.38" />
    <path d="M 241.824 -196.37 L 241.824 -196.15" />
    <path d="M 241.814 -196.376 L 241.814 -196.142" />
    <path d="M 241.826 -196.09 L 241.826 -196.142" />
    <path d="M 241.814 -196.142 L 241.814 -196.09" />
    <path d="M 241.814 -196.142 L 241.864 -196.142" />
    <path d="M 241.864 -196.142 L 241.864 -196.14" />
    <path d="M 241.844 -196.38 L 241.864 -196.38" />
    <path d="M 241.847 -196.456 L 241.864 -196.456" />
    <path d="M 241.847 -196.38 L 241.864 -196.38" />
    <path d="M 241.847 -196.456 L 241.847 -196.38" />
    <path d="M 243.654 -196.37 L 243.654 -196.15" />
    <path d="M 243.644 -196.376 L 243.644 -196.142" />
    <path d="M 243.656 -196.09 L 243.656 -196.142" />
    <path d="M 243.644 -196.142 L 243.644 -196.09" />
    <path d="M 243.644 -196.142 L 243.694 -196.142" />
    <path d="M 243.694 -196.142 L 243.694 -196.14" />
    <path d="M 243.674 -196.38 L 243.694 -196.38" />
    <path d="M 243.677 -196.456 L 243.694 -196.456" />
    <path d="M 243.677 -196.38 L 243.694 -196.38" />
    <path d="M 243.677 -196.456 L 243.677 -196.38" />
    <path d="M 245.969 -196.37 L 245.969 -196.15" />
    <path d="M 245.959 -196.376 L 245.959 -196.142" />
    <path d="M 245.971 -196.09 L 245.971 -196.142" />
    <path d="M 245.959 -196.142 L 245.959 -196.09" />
    <path d="M 245.959 -196.142 L 246.009 -196.142" />
    <path d="M 246.009 -196.142 L 246.009 -196.14" />
    <path d="M 245.989 -196.38 L 246.009 -196.38" />
    <path d="M 245.992 -196.456 L 246.009 -196.456" />
    <path d="M 245.992 -196.38 L 246.009 -196.38" />
    <path d="M 245.992 -196.456 L 245.992 -196.38" />
    <path d="M 248.329 -196.37 L 248.329 -196.15" />
    <path d="M 248.319 -196.376 L 248.319 -196.142" />
    <path d="M 248.331 -196.09 L 248.331 -196.142" />
    <path d="M 248.319 -196.142 L 248.319 -196.09" />
    <path d="M 248.319 -196.142 L 248.369 -196.142" />
    <path d="M 248.369 -196.142 L 248.369 -196.14" />
    <path d="M 248.349 -196.38 L 248.369 -196.38" />
    <path d="M 248.352 -196.456 L 248.369 -196.456" />
    <path d="M 248.352 -196.38 L 248.369 -196.38" />
    <path d="M 248.352 -196.456 L 248.352 -196.38" />
    <path d="M 240.693 -196.38 L 240.673 -196.38" />
    <path d="M 240.692 -196.456 L 240.674 -196.456" />
    <path d="M 240.692 -196.38 L 240.674 -196.38" />
    <path d="M 240.692 -196.456 L 240.692 -196.38" />
    <path d="M 240.714 -196.371 L 240.714 -196.15" />
    <path d="M 240.724 -196.376 L 240.724 -196.142" />
    <path d="M 240.712 -196.09 L 240.712 -196.142" />
    <path d="M 240.724 -196.142 L 240.724 -196.09" />
    <path d="M 240.724 -196.142 L 240.674 -196.142" />
    <path d="M 240.674 -196.142 L 240.674 -196.14" />
    <path d="M 242.523 -196.38 L 242.503 -196.38" />
    <path d="M 242.522 -196.456 L 242.504 -196.456" />
    <path d="M 242.522 -196.38 L 242.504 -196.38" />
    <path d="M 242.522 -196.456 L 242.522 -196.38" />
    <path d="M 242.544 -196.371 L 242.544 -196.15" />
    <path d="M 242.554 -196.376 L 242.554 -196.142" />
    <path d="M 242.542 -196.09 L 242.542 -196.142" />
    <path d="M 242.554 -196.142 L 242.554 -196.09" />
    <path d="M 242.554 -196.142 L 242.504 -196.142" />
    <path d="M 242.504 -196.142 L 242.504 -196.14" />
    <path d="M 244.838 -196.38 L 244.818 -196.38" />
    <path d="M 244.837 -196.456 L 244.819 -196.456" />
    <path d="M 244.837 -196.38 L 244.819 -196.38" />
    <path d="M 244.837 -196.456 L 244.837 -196.38" />
    <path d="M 244.859 -196.371 L 244.859 -196.15" />
    <path d="M 244.869 -196.376 L 244.869 -196.142" />
    <path d="M 244.857 -196.09 L 244.857 -196.142" />
    <path d="M 244.869 -196.142 L 244.869 -196.09" />
    <path d="M 244.869 -196.142 L 244.819 -196.142" />
    <path d="M 244.819 -196.142 L 244.819 -196.14" />
    <path d="M 247.198 -196.38 L 247.178 -196.38" />
    <path d="M 247.197 -196.456 L 247.179 -196.456" />
    <path d="M 247.197 -196.38 L 247.179 -196.38" />
    <path d="M 247.197 -196.456 L 247.197 -196.38" />
    <path d="M 247.219 -196.371 L 247.219 -196.15" />
    <path d="M 247.229 -196.376 L 247.229 -196.142" />
    <path d="M 247.217 -196.09 L 247.217 -196.142" />
    <path d="M 247.229 -196.142 L 247.229 -196.09" />
    <path d="M 247.229 -196.142 L 247.179 -196.142" />
    <path d="M 247.179 -196.142 L 247.179 -196.14" />
    <path d="M 236.926 -196.14 L 236.129 -196.14" />
    <path d="M 236.966 -196.15 L 236.139 -196.15" />
    <path d="M 236.139 -196.51 L 236.139 -196.15" />
    <path d="M 236.129 -196.14 L 236.129 -196.95" />
    <path d="M 238.792 -196.09 L 239.886 -196.09" />
    <path d="M 239.924 -196.14 L 240.674 -196.14" />
    <path d="M 240.714 -196.15 L 239.884 -196.15" />
    <path d="M 240.712 -196.09 L 241.826 -196.09" />
    <path d="M 241.864 -196.14 L 242.504 -196.14" />
    <path d="M 242.544 -196.15 L 241.824 -196.15" />
    <path d="M 242.542 -196.09 L 243.656 -196.09" />
    <path d="M 243.694 -196.14 L 244.819 -196.14" />
    <path d="M 243.654 -196.15 L 244.859 -196.15" />
    <path d="M 244.857 -196.09 L 245.971 -196.09" />
    <path d="M 246.009 -196.14 L 247.179 -196.14" />
    <path d="M 245.969 -196.15 L 247.219 -196.15" />
    <path d="M 247.217 -196.09 L 248.331 -196.09" />
    <path d="M 248.369 -196.14 L 248.55 -196.14" />
    <path d="M 248.329 -196.15 L 248.55 -196.15" />
    <path d="M 238.922 -196.404 L 239.237 -196.404" />
    <path d="M 239.472 -196.404 L 239.757 -196.404" />
    <path d="M 238.922 -196.408 L 239.237 -196.408" />
    <path d="M 239.472 -196.408 L 239.757 -196.408" />
    <path d="M 238.922 -196.426 L 239.237 -196.426" />
    <path d="M 239.472 -196.426 L 239.757 -196.426" />
    <path d="M 238.922 -196.43 L 239.237 -196.43" />
    <path d="M 239.472 -196.43 L 239.757 -196.43" />
    <path d="M 238.922 -196.448 L 239.237 -196.448" />
    <path d="M 239.472 -196.448 L 239.757 -196.448" />
    <path d="M 238.922 -196.452 L 239.237 -196.452" />
    <path d="M 239.472 -196.452 L 239.757 -196.452" />
    <path d="M 240.842 -196.404 L 241.167 -196.404" />
    <path d="M 241.402 -196.404 L 241.697 -196.404" />
    <path d="M 240.842 -196.408 L 241.167 -196.408" />
    <path d="M 241.402 -196.408 L 241.697 -196.408" />
    <path d="M 240.842 -196.426 L 241.167 -196.426" />
    <path d="M 241.402 -196.426 L 241.697 -196.426" />
    <path d="M 240.842 -196.43 L 241.167 -196.43" />
    <path d="M 241.402 -196.43 L 241.697 -196.43" />
    <path d="M 240.842 -196.448 L 241.167 -196.448" />
    <path d="M 241.402 -196.448 L 241.697 -196.448" />
    <path d="M 240.842 -196.452 L 241.167 -196.452" />
    <path d="M 241.402 -196.452 L 241.697 -196.452" />
    <path d="M 242.672 -196.404 L 242.997 -196.404" />
    <path d="M 243.232 -196.404 L 243.527 -196.404" />
    <path d="M 242.672 -196.408 L 242.997 -196.408" />
    <path d="M 243.232 -196.408 L 243.527 -196.408" />
    <path d="M 242.672 -196.426 L 242.997 -196.426" />
    <path d="M 243.232 -196.426 L 243.527 -196.426" />
    <path d="M 242.672 -196.43 L 242.997 -196.43" />
    <path d="M 243.232 -196.43 L 243.527 -196.43" />
    <path d="M 242.672 -196.448 L 242.997 -196.448" />
    <path d="M 243.232 -196.448 L 243.527 -196.448" />
    <path d="M 242.672 -196.452 L 242.997 -196.452" />
    <path d="M 243.232 -196.452 L 243.527 -196.452" />
    <path d="M 244.987 -196.404 L 245.312 -196.404" />
    <path d="M 245.547 -196.404 L 245.842 -196.404" />
    <path d="M 244.987 -196.408 L 245.312 -196.408" />
    <path d="M 245.547 -196.408 L 245.842 -196.408" />
    <path d="M 244.987 -196.426 L 245.312 -196.426" />
    <path d="M 245.547 -196.426 L 245.842 -196.426" />
    <path d="M 244.987 -196.43 L 245.312 -196.43" />
    <path d="M 245.547 -196.43 L 245.842 -196.43" />
    <path d="M 244.987 -196.448 L 245.312 -196.448" />
    <path d="M 245.547 -196.448 L 245.842 -196.448" />
    <path d="M 244.987 -196.452 L 245.312 -196.452" />
    <path d="M 245.547 -196.452 L 245.842 -196.452" />
    <path d="M 247.347 -196.404 L 247.672 -196.404" />
    <path d="M 247.907 -196.404 L 248.202 -196.404" />
    <path d="M 247.347 -196.408 L 247.672 -196.408" />
    <path d="M 247.907 -196.408 L 248.202 -196.408" />
    <path d="M 247.347 -196.426 L 247.672 -196.426" />
    <path d="M 247.907 -196.426 L 248.202 -196.426" />
    <path d="M 247.347 -196.43 L 247.672 -196.43" />
    <path d="M 247.907 -196.43 L 248.202 -196.43" />
    <path d="M 247.347 -196.448 L 247.672 -196.448" />
    <path d="M 247.907 -196.448 L 248.202 -196.448" />
    <path d="M 247.347 -196.452 L 247.672 -196.452" />
    <path d="M 247.907 -196.452 L 248.202 -196.452" />
    <path d="M 240.124 -196.91 L 240.124 -201.11" />
    <path d="M 240.124 -201.995 L 240.124 -202.11" />
    <path d="M 240.149 -196.91 L 240.149 -201.11" />
    <path d="M 240.149 -201.995 L 240.149 -202.14" />
    <path d="M 240.249 -196.93 L 240.249 -201.11" />
    <path d="M 240.249 -201.995 L 240.249 -202.22" />
    <path d="M 240.224 -196.93 L 240.224 -201.11" />
    <path d="M 240.224 -201.995 L 240.224 -202.22" />
    <path d="M 240.154 -202.14 L 240.154 -202.22" />
    <path d="M 240.154 -196.93 L 240.154 -196.91" />
    <path d="M 243.254 -203.01 L 243.254 -202.96" />
    <path d="M 243.103 -203.75 L 243.103 -202.96" />
    <path d="M 243.128 -203.75 L 243.128 -202.96" />
    <path d="M 243.258 -203.75 L 243.258 -203.01" />
    <path d="M 243.233 -203.75 L 243.233 -202.96" />
    <path d="M 245.317 -200.465 L 245.317 -200.59" />
    <path d="M 246.202 -200.465 L 246.202 -200.59" />
    <path d="M 248.55 -200.465 L 246.202 -200.465" />
    <path d="M 248.55 -200.49 L 246.202 -200.49" />
    <path d="M 245.317 -200.465 L 244.234 -200.465" />
    <path d="M 245.317 -200.49 L 244.234 -200.49" />
    <path d="M 247.284 -200.59 L 246.202 -200.59" />
    <path d="M 247.284 -200.565 L 246.202 -200.565" />
    <path d="M 245.317 -200.59 L 244.234 -200.59" />
    <path d="M 245.317 -200.565 L 244.234 -200.565" />
    <path d="M 244.364 -202.18 L 244.364 -202.55" />
    <path d="M 243.994 -196.93 L 243.994 -201.11" />
    <path d="M 243.994 -202.02 L 243.994 -202.22" />
    <path d="M 244.019 -198.38 L 244.019 -201.11" />
    <path d="M 244.019 -202.02 L 244.019 -202.22" />
    <path d="M 244.264 -196.93 L 244.264 -200.46" />
    <path d="M 244.239 -198.38 L 244.239 -199.31" />
    <path d="M 245.419 -202.59 L 245.419 -203.85" />
    <path d="M 245.419 -203.25 L 245.419 -205.99" />
    <path d="M 245.444 -202.59 L 245.444 -203.85" />
    <path d="M 245.444 -203.25 L 245.444 -205.99" />
    <path d="M 245.614 -202.59 L 245.614 -203.33" />
    <path d="M 245.614 -203.25 L 245.614 -203.33" />
    <path d="M 245.544 -203.43 L 245.544 -203.85" />
    <path d="M 245.544 -203.43 L 245.544 -204.39" />
    <path d="M 246.524 -203.455 L 246.524 -203.33" />
    <path d="M 246.524 -203.455 L 246.524 -203.33" />
    <path d="M 245.569 -203.455 L 246.524 -203.455" />
    <path d="M 245.569 -203.455 L 246.524 -203.455" />
    <path d="M 245.544 -203.43 L 246.524 -203.43" />
    <path d="M 245.544 -203.43 L 246.524 -203.43" />
    <path d="M 245.444 -203.33 L 246.524 -203.33" />
    <path d="M 245.444 -203.33 L 246.524 -203.33" />
    <path d="M 245.444 -203.355 L 246.524 -203.355" />
    <path d="M 245.444 -203.355 L 246.524 -203.355" />
    <path d="M 247.284 -203.33 L 247.284 -203.455" />
    <path d="M 247.284 -203.33 L 247.284 -203.455" />
    <path d="M 247.284 -203.33 L 247.414 -203.33" />
    <path d="M 247.284 -203.33 L 247.414 -203.33" />
    <path d="M 247.284 -203.355 L 247.414 -203.355" />
    <path d="M 247.284 -203.355 L 247.414 -203.355" />
    <path d="M 247.284 -203.455 L 247.414 -203.455" />
    <path d="M 247.284 -203.455 L 247.414 -203.455" />
    <path d="M 247.284 -203.43 L 247.414 -203.43" />
    <path d="M 247.284 -203.43 L 247.414 -203.43" />
    <path d="M 245.569 -203.455 L 245.569 -203.85" />
    <path d="M 245.569 -203.455 L 245.569 -204.365" />
    <path d="M 245.794 -204.465 L 246.479 -204.465" />
    <path d="M 245.769 -204.44 L 246.479 -204.44" />
    <path d="M 245.569 -204.365 L 246.479 -204.365" />
    <path d="M 245.544 -204.39 L 246.479 -204.39" />
    <path d="M 245.794 -204.465 L 245.794 -204.665" />
    <path d="M 245.794 -205.115 L 245.794 -205.99" />
    <path d="M 245.769 -204.44 L 245.769 -204.64" />
    <path d="M 245.769 -205.14 L 245.769 -205.99" />
    <path d="M 246.479 -204.465 L 246.479 -204.365" />
    <path d="M 245.569 -204.67 L 245.569 -205.12" />
    <path d="M 245.544 -204.645 L 245.544 -205.145" />
    <path d="M 245.794 -205.12 L 245.569 -205.12" />
    <path d="M 245.769 -205.145 L 245.544 -205.145" />
    <path d="M 245.794 -204.67 L 245.569 -204.67" />
    <path d="M 245.769 -204.645 L 245.544 -204.645" />
    <path d="M 236.694 -202.14 L 237.604 -202.14" />
    <path d="M 236.394 -202.11 L 240.124 -202.11" />
    <path d="M 236.694 -202.55 L 237.604 -202.55" />
    <path d="M 236.394 -202.58 L 242.874 -202.58" />
    <path d="M 240.249 -201.11 L 240.124 -201.11" />
    <path d="M 240.249 -201.995 L 240.124 -201.995" />
    <path d="M 244.024 -201.11 L 243.994 -201.11" />
    <path d="M 244.024 -202.02 L 243.994 -202.02" />
    <path d="M 236.574 -202.11 L 236.574 -202.14" />
    <path d="M 246.833 -206.99 L 247.285 -206.99" />
    <path d="M 246.843 -206.98 L 247.275 -206.98" />
    <path d="M 247.704 -206.91 L 247.704 -206.75" />
    <path d="M 247.694 -206.9 L 247.694 -206.75" />
    <path d="M 247.285 -206.99 L 247.285 -206.91" />
    <path d="M 247.275 -206.98 L 247.275 -206.9" />
    <path d="M 247.285 -206.91 L 247.704 -206.91" />
    <path d="M 247.275 -206.9 L 247.694 -206.9" />
  </g>
</svg>
