<?xml version="1.0" encoding="UTF-8"?>
<svg xmlns="http://www.w3.org/2000/svg" viewBox="231.06 191.06 35.88 48.88" aria-hidden="true">
  <style>
    path,
    circle {
      fill: none;
      stroke: #007AFF;
      stroke-width: 1.55;
      stroke-linecap: round;
      stroke-linejoin: round;
      vector-effect: non-scaling-stroke;
    }
  </style>
  <g transform="scale(1 -1)">
    <path d="M 241.984 -221.785 L 242.134 -221.655" />
    <path d="M 247.574 -225.52 L 247.574 -221.23" />
    <path d="M 247.574 -226.91 L 247.574 -226.665" />
    <path d="M 247.154 -225.505 L 247.154 -225.385" />
    <path d="M 247.154 -227.005 L 247.154 -226.665" />
    <path d="M 243.074 -224.145 L 243.074 -225.385" />
    <path d="M 247.574 -226.91 L 248.014 -226.91" />
    <path d="M 238.325 -233.53 L 238.897 -233.53" />
    <path d="M 236.264 -233.53 L 236.934 -233.53" />
    <path d="M 240.799 -234.866 L 240.799 -234.2" />
    <path d="M 245.079 -233.63 L 245.079 -233.53" />
    <path d="M 240.799 -233.55 L 240.799 -233.53" />
    <path d="M 240.297 -233.53 L 240.799 -233.53" />
    <path d="M 245.079 -234.866 L 245.079 -234.586" />
    <path d="M 244.745 -233.54 L 244.939 -233.54" />
    <path d="M 243.249 -234.586 L 242.607 -234.586" />
    <path d="M 241.429 -234.586 L 241.045 -234.586" />
    <path d="M 236.355 -233 L 236.925 -233" />
    <path d="M 238.325 -233 L 238.897 -233" />
    <path d="M 236.925 -233 L 236.925 -233.53" />
    <path d="M 238.325 -233 L 238.325 -233.53" />
    <path d="M 238.897 -233 L 238.897 -233.53" />
    <path d="M 240.297 -233 L 240.297 -233.53" />
    <path d="M 241.045 -234.586 L 241.045 -234.2" />
    <path d="M 241.045 -233.55 L 241.045 -233" />
    <path d="M 243.249 -234.866 L 243.249 -234.586" />
    <path d="M 244.745 -233.54 L 244.745 -233" />
    <path d="M 241.045 -234.2 L 240.802 -234.2" />
    <path d="M 240.949 -233.55 L 240.949 -233.65" />
    <path d="M 244.939 -233.54 L 244.939 -233.63" />
    <path d="M 240.799 -234.866 L 241.429 -234.866" />
    <path d="M 242.607 -234.866 L 243.251 -234.866" />
    <path d="M 244.429 -234.866 L 245.079 -234.866" />
    <path d="M 240.949 -233.65 L 240.799 -233.65" />
    <path d="M 241.045 -233.55 L 240.949 -233.55" />
    <path d="M 244.939 -233.63 L 245.079 -233.63" />
    <path d="M 244.429 -234.586 L 244.429 -234.866" />
    <path d="M 241.427 -234.866 L 241.427 -234.586" />
    <path d="M 242.607 -234.586 L 242.607 -234.866" />
    <path d="M 245.755 -233.53 L 245.079 -233.53" />
    <path d="M 247.574 -225.52 L 247.514 -225.52" />
    <path d="M 247.514 -225.505 L 247.514 -225.52" />
    <path d="M 247.514 -225.505 L 247.154 -225.505" />
    <path d="M 247.034 -223.445 L 247.134 -223.445" />
    <path d="M 247.574 -226.665 L 247.154 -226.665" />
    <path d="M 247.574 -225.655 L 247.154 -225.655" />
    <path d="M 243.074 -225.385 L 244.424 -225.385" />
    <path d="M 245.334 -225.385 L 247.154 -225.385" />
    <path d="M 244.424 -225.385 L 244.424 -225.285" />
    <path d="M 243.174 -221.23 L 243.174 -225.285" />
    <path d="M 247.134 -221.23 L 247.134 -223.445" />
    <path d="M 247.034 -223.445 L 247.034 -225.285" />
    <path d="M 245.334 -225.385 L 245.334 -225.285" />
    <path d="M 243.174 -225.285 L 244.424 -225.285" />
    <path d="M 245.334 -225.285 L 247.034 -225.285" />
    <path d="M 246.784 -227.005 L 247.154 -227.005" />
    <path d="M 246.784 -227.005 L 246.784 -227.425" />
    <path d="M 245.874 -227.005 L 245.874 -227.425" />
    <path d="M 245.755 -233.53 L 245.755 -233" />
    <path d="M 248.135 -233.53 L 248.135 -233" />
    <path d="M 247.534 -228.63 L 247.534 -227.425" />
    <path d="M 245.104 -227.425 L 246.014 -227.425" />
    <path d="M 246.784 -227.425 L 247.534 -227.425" />
    <path d="M 245.755 -233 L 245.104 -233" />
    <path d="M 248.014 -228.63 L 247.534 -228.63" />
    <path d="M 245.104 -233 L 245.104 -230.67" />
    <path d="M 245.104 -229.75 L 245.104 -227.425" />
    <path d="M 245.104 -230.67 L 245.024 -230.67" />
    <path d="M 245.104 -229.75 L 245.024 -229.75" />
    <path d="M 245.024 -233 L 245.024 -230.67" />
    <path d="M 245.024 -229.75 L 245.024 -227.425" />
    <path d="M 240.844 -233 L 240.844 -227.425" />
    <path d="M 241.004 -227.005 L 242.174 -227.005" />
    <path d="M 243.384 -227.005 L 245.874 -227.005" />
    <path d="M 242.174 -227.005 L 242.174 -227.425" />
    <path d="M 243.384 -227.005 L 243.384 -227.425" />
    <path d="M 240.844 -227.425 L 242.174 -227.425" />
    <path d="M 240.835 -233 L 241.045 -233" />
    <path d="M 244.745 -233 L 245.024 -233" />
    <path d="M 243.384 -227.425 L 245.024 -227.425" />
    <path d="M 241.004 -224.145 L 241.874 -224.145" />
    <path d="M 242.594 -224.145 L 243.074 -224.145" />
    <path d="M 241.874 -224.145 L 241.874 -224.035" />
    <path d="M 242.594 -224.145 L 242.594 -224.035" />
    <path d="M 241.024 -224.035 L 241.874 -224.035" />
    <path d="M 241.024 -221.785 L 241.984 -221.785" />
    <path d="M 241.984 -221.785 L 242.134 -221.785" />
    <path d="M 242.594 -224.035 L 243.074 -224.035" />
    <path d="M 243.074 -224.035 L 243.074 -221.445" />
    <path d="M 241.024 -224.035 L 241.024 -221.785" />
    <path d="M 242.134 -221.785 L 242.134 -221.655" />
    <path d="M 242.134 -221.655 L 242.134 -221.235" />
    <path d="M 241.004 -226.065 L 241.004 -224.145" />
    <path d="M 241.004 -227.005 L 241.004 -226.975" />
    <path d="M 241.004 -226.065 L 240.584 -226.065" />
    <path d="M 241.004 -226.975 L 240.584 -226.975" />
    <path d="M 236.364 -233 L 236.364 -225.965" />
    <path d="M 236.364 -225.965 L 240.584 -225.965" />
    <path d="M 240.584 -233 L 240.584 -226.975" />
    <path d="M 240.584 -226.065 L 240.584 -225.965" />
    <path d="M 240.584 -225.39 L 240.584 -224.035" />
    <path d="M 240.584 -233 L 240.297 -233" />
    <path d="M 248.014 -226.91 L 248.014 -228.12" />
    <path d="M 241.004 -218.34 L 237.804 -218.34" />
    <path d="M 236.664 -218.34 L 236.534 -218.34" />
    <path d="M 236.264 -233.53 L 236.264 -233.38" />
    <path d="M 236.264 -233.38 L 236.014 -233.38" />
    <path d="M 236.014 -233.38 L 236.014 -233.53" />
    <path d="M 236.014 -233.53 L 235.914 -233.53" />
    <path d="M 236.484 -225.39 L 236.484 -218.69" />
    <path d="M 240.584 -225.39 L 236.484 -225.39" />
    <path d="M 236.664 -218.69 L 236.484 -218.69" />
    <path d="M 240.894 -224.035 L 240.584 -224.035" />
    <path d="M 236.664 -218.69 L 236.664 -218.34" />
    <path d="M 237.564 -218.69 L 237.564 -218.34" />
    <path d="M 240.799 -233.53 L 240.799 -233.65" />
    <path d="M 240.799 -233.65 L 240.799 -233.69" />
    <path d="M 240.799 -233.69 L 240.949 -233.69" />
    <path d="M 240.949 -233.69 L 240.949 -233.65" />
    <path d="M 244.429 -234.586 L 245.079 -234.586" />
    <path d="M 244.939 -233.69 L 245.079 -233.69" />
    <path d="M 245.079 -233.63 L 245.079 -233.69" />
    <path d="M 248.014 -228.63 L 248.664 -228.63" />
    <path d="M 248.014 -227.01 L 248.014 -226.91" />
    <path d="M 248.116 -221.23 L 248.116 -220.83" />
    <path d="M 247.574 -221.23 L 248.116 -221.23" />
    <path d="M 243.64 -221.23 L 243.64 -220.7" />
    <path d="M 244.82 -221.23 L 244.82 -220.709" />
    <path d="M 246.73 -221.23 L 246.73 -220.709" />
    <path d="M 245.55 -221.23 L 245.55 -220.709" />
    <path d="M 243.174 -221.23 L 243.64 -221.23" />
    <path d="M 244.82 -221.23 L 245.55 -221.23" />
    <path d="M 246.73 -221.23 L 247.134 -221.23" />
    <path d="M 241.024 -221.785 L 241.984 -221.785" />
    <path d="M 241.984 -221.785 L 242.134 -221.785" />
    <path d="M 242.279 -221.235 L 242.134 -221.235" />
    <path d="M 242.879 -221.445 L 243.074 -221.445" />
    <path d="M 242.879 -221.445 L 242.879 -220.709" />
    <path d="M 242.279 -221.235 L 242.279 -220.709" />
    <path d="M 241.024 -224.035 L 241.024 -221.785" />
    <path d="M 242.134 -221.785 L 242.134 -221.655" />
    <path d="M 242.134 -221.655 L 242.134 -221.235" />
    <path d="M 241.984 -221.785 L 242.134 -221.655" />
    <path d="M 248.203 -220.83 L 248.203 -220.709" />
    <path d="M 248.203 -220.83 L 248.116 -220.83" />
    <path d="M 241.004 -218.34 L 237.564 -218.34" />
    <path d="M 241.584 -217.607 L 241.584 -217.68" />
    <path d="M 241.004 -217.68 L 241.004 -218.34" />
    <path d="M 241.004 -217.68 L 241.584 -217.68" />
    <path d="M 241.585 -217.607 L 242.141 -217.607" />
    <path d="M 240.894 -218.69 L 237.564 -218.69" />
    <path d="M 240.894 -224.035 L 240.894 -220.709" />
    <path d="M 245.529 -227.091 L 245.779 -227.091 L 245.779 -227.221 L 245.529 -227.221 L 245.529 -227.091 Z" />
    <path d="M 245.177 -227.091 L 245.427 -227.091 L 245.427 -227.221 L 245.177 -227.221 L 245.177 -227.091 Z" />
    <path d="M 244.51 -227.119 L 244.76 -227.119 L 244.76 -227.249 L 244.51 -227.249 L 244.51 -227.119 Z" />
    <path d="M 244.11 -227.119 L 244.36 -227.119 L 244.36 -227.249 L 244.11 -227.249 L 244.11 -227.119 Z" />
    <path d="M 241.564 -220.645 L 241.564 -220.709" />
    <path d="M 242.193 -220.709 L 241.564 -220.709" />
    <path d="M 241.573 -218.762 L 241.576 -218.23" />
    <path d="M 241.576 -218.23 L 242.15 -218.222" />
    <path d="M 242.15 -218.222 L 242.141 -217.607" />
    <path d="M 241.564 -220.645 L 241.565 -220.417" />
    <path d="M 242.396 -218.476 L 242.379 -217.563" />
    <path d="M 242.406 -218.486 L 242.39 -217.603" />
    <path d="M 242.388 -217.613 L 242.387 -217.563" />
    <path d="M 242.38 -217.573 L 242.251 -217.575" />
    <path d="M 242.387 -217.563 L 242.251 -217.565" />
    <path d="M 242.39 -217.613 L 242.388 -217.613" />
    <path d="M 242.172 -217.598 L 242.173 -217.619" />
    <path d="M 241.873 -220.365 L 241.862 -218.815" />
    <path d="M 241.875 -220.389 L 241.875 -220.365" />
    <path d="M 241.774 -220.393 L 241.774 -220.376" />
    <path d="M 241.774 -220.393 L 241.764 -220.393" />
    <path d="M 241.739 -220.393 L 241.739 -220.376" />
    <path d="M 241.739 -220.393 L 241.749 -220.393" />
    <path d="M 241.764 -220.374 L 241.767 -220.366" />
    <path d="M 241.749 -220.374 L 241.745 -220.366" />
    <path d="M 241.62 -220.397 L 241.693 -220.396" />
    <path d="M 241.825 -220.477 L 241.825 -220.376" />
    <path d="M 241.695 -220.376 L 241.825 -220.376" />
    <path d="M 241.833 -220.415 L 241.835 -220.415" />
    <path d="M 241.695 -220.366 L 241.833 -220.365" />
    <path d="M 241.833 -220.365 L 241.833 -220.415" />
    <path d="M 241.763 -218.789 L 241.763 -218.806" />
    <path d="M 241.763 -218.789 L 241.753 -218.789" />
    <path d="M 241.728 -218.789 L 241.728 -218.806" />
    <path d="M 241.728 -218.789 L 241.738 -218.789" />
    <path d="M 241.753 -218.808 L 241.757 -218.816" />
    <path d="M 241.738 -218.808 L 241.735 -218.816" />
    <path d="M 241.684 -218.806 L 241.814 -218.806" />
    <path d="M 241.684 -218.816 L 241.822 -218.815" />
    <path d="M 241.822 -218.815 L 241.822 -218.765" />
    <path d="M 241.822 -218.765 L 241.824 -218.765" />
    <path d="M 241.812 -218.478 L 241.814 -218.806" />
    <path d="M 241.822 -218.488 L 241.824 -218.765" />
    <path d="M 242.406 -218.486 L 241.822 -218.488" />
    <path d="M 242.396 -218.476 L 241.812 -218.478" />
    <path d="M 241.833 -220.365 L 241.875 -220.365" />
    <path d="M 241.833 -220.389 L 241.875 -220.389" />
    <path d="M 241.864 -218.791 L 241.864 -218.815" />
    <path d="M 241.822 -218.815 L 241.864 -218.815" />
    <path d="M 241.822 -218.791 L 241.864 -218.791" />
    <path d="M 241.7 -220.376 L 241.7 -220.366" />
    <path d="M 241.689 -218.816 L 241.689 -218.806" />
    <path d="M 241.669 -220.246 L 241.666 -219.699" />
    <path d="M 241.835 -220.467 L 241.835 -220.415" />
    <path d="M 242.22 -217.414 L 242.215 -217.18" />
    <path d="M 242.172 -217.415 L 242.167 -217.181" />
    <path d="M 241.664 -219.474 L 241.661 -218.937" />
    <path d="M 241.616 -219.474 L 241.613 -218.937" />
    <path d="M 241.621 -220.246 L 241.618 -219.699" />
    <path d="M 241.618 -220.416 L 241.694 -220.416 L 241.694 -220.396 L 241.618 -220.396" />
    <path d="M 241.608 -218.767 L 241.684 -218.767 L 241.684 -218.786 L 241.608 -218.786" />
    <path d="M 248.203 -220.709 L 246.73 -220.709" />
    <path d="M 245.55 -220.709 L 244.82 -220.709" />
    <path d="M 243.643 -220.709 L 242.879 -220.709" />
    <path d="M 242.279 -220.709 L 241.564 -220.709" />
    <path d="M 246.682 -220.611 L 246.682 -220.479" />
    <path d="M 246.672 -220.611 L 246.672 -220.471" />
    <path d="M 246.722 -220.471 L 246.722 -220.469" />
    <path d="M 246.682 -220.608 L 246.672 -220.608" />
    <path d="M 246.722 -220.471 L 246.672 -220.471" />
    <path d="M 244.78 -220.61 L 244.78 -220.478" />
    <path d="M 244.77 -220.61 L 244.77 -220.47" />
    <path d="M 244.82 -220.47 L 244.82 -220.468" />
    <path d="M 244.78 -220.607 L 244.77 -220.607" />
    <path d="M 244.82 -220.47 L 244.77 -220.47" />
    <path d="M 242.852 -220.609 L 242.852 -220.478" />
    <path d="M 242.842 -220.609 L 242.842 -220.47" />
    <path d="M 242.892 -220.47 L 242.892 -220.468" />
    <path d="M 242.852 -220.607 L 242.842 -220.607" />
    <path d="M 242.892 -220.47 L 242.842 -220.47" />
    <path d="M 245.606 -220.61 L 245.606 -220.478" />
    <path d="M 245.616 -220.61 L 245.616 -220.47" />
    <path d="M 245.566 -220.47 L 245.566 -220.468" />
    <path d="M 245.606 -220.607 L 245.616 -220.607" />
    <path d="M 245.566 -220.47 L 245.616 -220.47" />
    <path d="M 243.704 -220.61 L 243.704 -220.478" />
    <path d="M 243.714 -220.61 L 243.714 -220.47" />
    <path d="M 243.664 -220.47 L 243.664 -220.468" />
    <path d="M 243.704 -220.607 L 243.714 -220.607" />
    <path d="M 243.664 -220.47 L 243.714 -220.47" />
    <path d="M 242.356 -220.609 L 242.356 -220.478" />
    <path d="M 242.366 -220.609 L 242.366 -220.47" />
    <path d="M 242.316 -220.47 L 242.316 -220.468" />
    <path d="M 242.356 -220.607 L 242.366 -220.607" />
    <path d="M 242.316 -220.47 L 242.366 -220.47" />
    <path d="M 245.566 -220.468 L 244.82 -220.468" />
    <path d="M 244.78 -220.478 L 245.606 -220.478" />
    <path d="M 243.664 -220.468 L 242.892 -220.468" />
    <path d="M 242.852 -220.478 L 243.704 -220.478" />
    <path d="M 248.265 -220.611 L 248.265 -220.479" />
    <path d="M 248.275 -220.611 L 248.275 -220.471" />
    <path d="M 248.225 -220.471 L 248.225 -220.469" />
    <path d="M 248.265 -220.608 L 248.275 -220.608" />
    <path d="M 248.225 -220.471 L 248.275 -220.471" />
    <path d="M 248.225 -220.469 L 246.722 -220.469" />
    <path d="M 246.682 -220.479 L 248.265 -220.479" />
    <path d="M 242.316 -220.468 L 241.835 -220.467" />
    <path d="M 242.316 -220.478 L 241.825 -220.477" />
    <path d="M 242.695 -220.683 L 242.513 -220.683" />
    <path d="M 242.695 -220.635 L 242.513 -220.635" />
    <path d="M 244.623 -220.428 L 243.861 -220.428" />
    <path d="M 246.525 -220.684 L 246.261 -220.684" />
    <path d="M 246.525 -220.636 L 246.261 -220.636" />
    <path d="M 246.525 -220.429 L 245.763 -220.429" />
    <path d="M 246.026 -220.684 L 245.763 -220.684" />
    <path d="M 246.026 -220.636 L 245.763 -220.636" />
    <path d="M 244.623 -220.684 L 244.359 -220.684" />
    <path d="M 244.623 -220.636 L 244.359 -220.636" />
    <path d="M 244.124 -220.684 L 243.861 -220.683" />
    <path d="M 243.861 -220.635 L 244.124 -220.636" />
    <path d="M 242.695 -220.428 L 242.513 -220.428" />
    <path d="M 241.608 -220.417 L 241.565 -220.417" />
    <path d="M 240.894 -220.709 L 241.424 -220.709" />
    <path d="M 241.573 -218.762 L 240.894 -218.762" />
    <path d="M 240.894 -218.762 L 240.894 -218.69" />
    <path d="M 241.425 -220.417 L 241.424 -220.645" />
    <path d="M 241.564 -220.645 L 241.424 -220.645" />
    <path d="M 241.424 -220.645 L 241.424 -220.709" />
    <path d="M 241.415 -220.679 L 240.784 -220.679" />
    <path d="M 241.415 -220.704 L 240.809 -220.704" />
    <path d="M 236.139 -233.38 L 236.139 -233.768" />
    <path d="M 236.149 -233.38 L 236.149 -233.758" />
    <path d="M 240.231 -233.768 L 240.542 -233.768" />
    <path d="M 238.955 -233.768 L 238.955 -233.626" />
    <path d="M 238.945 -233.758 L 238.945 -233.626" />
    <path d="M 240.241 -233.758 L 240.241 -233.626" />
    <path d="M 240.231 -233.626 L 240.231 -233.768" />
    <path d="M 236.995 -233.768 L 236.995 -233.626" />
    <path d="M 236.985 -233.758 L 236.985 -233.626" />
    <path d="M 238.281 -233.758 L 238.281 -233.626" />
    <path d="M 238.271 -233.631 L 238.281 -233.631" />
    <path d="M 238.271 -233.626 L 238.271 -233.768" />
    <path d="M 236.995 -233.768 L 236.139 -233.768" />
    <path d="M 236.985 -233.758 L 236.149 -233.758" />
    <path d="M 238.271 -233.768 L 238.955 -233.768" />
    <path d="M 237.142 -233.601 L 237.516 -233.601" />
    <path d="M 237.751 -233.601 L 238.124 -233.601" />
    <path d="M 239.102 -233.553 L 239.476 -233.553" />
    <path d="M 239.102 -233.601 L 239.476 -233.601" />
    <path d="M 239.711 -233.553 L 240.084 -233.553" />
    <path d="M 239.711 -233.601 L 240.084 -233.601" />
    <path d="M 240.542 -235.104 L 240.542 -234.154" />
    <path d="M 240.462 -234.234 L 240.462 -233.848" />
    <path d="M 240.542 -233.823 L 240.542 -233.768" />
    <path d="M 240.552 -235.094 L 240.552 -234.164" />
    <path d="M 240.552 -233.813 L 240.552 -233.758" />
    <path d="M 240.241 -233.758 L 240.552 -233.758" />
    <path d="M 238.281 -233.758 L 238.945 -233.758" />
    <path d="M 236.139 -233.38 L 236.139 -233.768" />
    <path d="M 236.149 -233.38 L 236.149 -233.758" />
    <path d="M 237.142 -233.553 L 237.516 -233.553" />
    <path d="M 237.751 -233.553 L 238.124 -233.553" />
    <path d="M 237.142 -233.848 L 238.124 -233.848" />
    <path d="M 238.945 -233.758 L 238.905 -233.758" />
    <path d="M 240.699 -233.823 L 240.699 -233.813" />
    <path d="M 240.552 -234.164 L 240.706 -234.164" />
    <path d="M 240.706 -234.154 L 240.542 -234.154" />
    <path d="M 240.542 -234.234 L 240.462 -234.234" />
    <path d="M 240.705 -233.781 L 240.705 -233.761" />
    <path d="M 240.781 -233.761 L 240.705 -233.761" />
    <path d="M 240.705 -233.781 L 240.781 -233.781" />
    <path d="M 240.781 -234.191 L 240.781 -234.211" />
    <path d="M 240.705 -234.191 L 240.705 -234.211" />
    <path d="M 240.781 -234.211 L 240.705 -234.211" />
    <path d="M 240.705 -234.191 L 240.781 -234.191" />
    <path d="M 240.706 -233.823 L 240.542 -233.823" />
    <path d="M 240.706 -233.813 L 240.552 -233.813" />
    <path d="M 236.785 -233.848 L 236.785 -233.768" />
    <path d="M 239.102 -233.848 L 240.084 -233.848" />
    <path d="M 238.745 -233.848 L 238.745 -233.768" />
    <path d="M 238.481 -233.848 L 238.481 -233.768" />
    <path d="M 240.73 -233.931 L 240.73 -234.041" />
    <path d="M 240.778 -233.931 L 240.778 -234.041" />
    <path d="M 242.555 -235.094 L 242.555 -234.962" />
    <path d="M 242.545 -234.967 L 242.555 -234.967" />
    <path d="M 242.545 -234.962 L 242.545 -235.104" />
    <path d="M 242.545 -235.104 L 243.311 -235.104" />
    <path d="M 243.311 -235.104 L 243.311 -234.962" />
    <path d="M 243.301 -235.094 L 243.301 -234.962" />
    <path d="M 244.377 -235.094 L 244.377 -234.962" />
    <path d="M 244.367 -234.962 L 244.367 -235.104" />
    <path d="M 244.367 -235.104 L 245.339 -235.104" />
    <path d="M 244.377 -235.094 L 245.329 -235.094" />
    <path d="M 241.636 -234.889 L 241.9 -234.889" />
    <path d="M 241.636 -234.937 L 241.9 -234.937" />
    <path d="M 242.135 -234.889 L 242.398 -234.889" />
    <path d="M 242.135 -234.937 L 242.398 -234.937" />
    <path d="M 243.458 -234.889 L 243.721 -234.889" />
    <path d="M 243.956 -234.889 L 244.22 -234.889" />
    <path d="M 243.458 -234.937 L 243.721 -234.937" />
    <path d="M 243.956 -234.937 L 244.22 -234.937" />
    <path d="M 240.542 -235.104 L 240.542 -234.154" />
    <path d="M 240.462 -234.234 L 240.462 -233.848" />
    <path d="M 240.542 -233.823 L 240.542 -233.768" />
    <path d="M 240.552 -235.094 L 240.552 -234.164" />
    <path d="M 240.552 -233.813 L 240.552 -233.758" />
    <path d="M 241.489 -235.104 L 241.489 -234.962" />
    <path d="M 241.479 -235.094 L 241.479 -234.962" />
    <path d="M 241.489 -235.104 L 240.542 -235.104" />
    <path d="M 241.489 -235.094 L 240.552 -235.094" />
    <path d="M 240.699 -233.823 L 240.699 -233.813" />
    <path d="M 240.552 -234.164 L 240.706 -234.164" />
    <path d="M 240.699 -234.154 L 240.699 -234.164" />
    <path d="M 240.706 -234.154 L 240.542 -234.154" />
    <path d="M 240.542 -234.234 L 240.462 -234.234" />
    <path d="M 240.781 -233.781 L 240.781 -233.761" />
    <path d="M 240.705 -233.781 L 240.705 -233.761" />
    <path d="M 240.781 -233.761 L 240.705 -233.761" />
    <path d="M 240.705 -233.781 L 240.781 -233.781" />
    <path d="M 240.781 -234.191 L 240.781 -234.211" />
    <path d="M 240.705 -234.191 L 240.705 -234.211" />
    <path d="M 240.781 -234.211 L 240.705 -234.211" />
    <path d="M 240.705 -234.191 L 240.781 -234.191" />
    <path d="M 240.706 -233.823 L 240.542 -233.823" />
    <path d="M 240.706 -233.813 L 240.552 -233.813" />
    <path d="M 240.73 -233.931 L 240.73 -234.041" />
    <path d="M 240.78 -233.761 L 240.78 -233.661" />
    <path d="M 241.279 -235.184 L 241.279 -235.104" />
    <path d="M 241.636 -235.184 L 242.398 -235.184" />
    <path d="M 242.755 -235.184 L 242.755 -235.104" />
    <path d="M 243.101 -235.184 L 243.101 -235.104" />
    <path d="M 244.577 -235.184 L 244.577 -235.104" />
    <path d="M 243.458 -235.184 L 244.22 -235.184" />
    <path d="M 245.339 -235.104 L 245.339 -234.416" />
    <path d="M 245.339 -233.72 L 245.339 -233.65" />
    <path d="M 245.329 -235.094 L 245.329 -234.426" />
    <path d="M 245.329 -233.71 L 245.329 -233.64" />
    <path d="M 245.081 -233.658 L 245.156 -233.658" />
    <path d="M 245.157 -233.72 L 245.339 -233.72" />
    <path d="M 245.162 -234.416 L 245.162 -234.426" />
    <path d="M 245.156 -234.458 L 245.156 -234.477" />
    <path d="M 245.081 -234.477 L 245.156 -234.477" />
    <path d="M 245.157 -234.416 L 245.339 -234.416" />
    <path d="M 245.157 -234.426 L 245.329 -234.426" />
    <path d="M 245.157 -233.71 L 245.329 -233.71" />
    <path d="M 245.07 -234.627 L 245.061 -234.627" />
    <path d="M 245.132 -233.818 L 245.132 -234.308" />
    <path d="M 245.084 -233.818 L 245.084 -234.308" />
    <path d="M 245.82 -233.536 L 245.81 -233.536" />
    <path d="M 245.778 -233.454 L 245.758 -233.454" />
    <path d="M 245.778 -233.53 L 245.758 -233.53" />
    <path d="M 245.778 -233.53 L 245.778 -233.454" />
    <path d="M 245.82 -233.53 L 245.82 -233.65" />
    <path d="M 245.81 -233.53 L 245.81 -233.64" />
    <path d="M 248.071 -233.64 L 248.071 -233.53" />
    <path d="M 248.061 -233.53 L 248.061 -233.65" />
    <path d="M 247.544 -233.457 L 247.948 -233.457" />
    <path d="M 247.544 -233.505 L 247.948 -233.505" />
    <path d="M 245.928 -233.457 L 246.332 -233.457" />
    <path d="M 245.928 -233.505 L 246.332 -233.505" />
    <path d="M 246.541 -233.457 L 247.34 -233.457" />
    <path d="M 246.541 -233.505 L 247.34 -233.505" />
    <path d="M 245.329 -233.64 L 245.81 -233.64" />
    <path d="M 245.339 -233.65 L 245.82 -233.65" />
    <path d="M 245.329 -235.184 L 245.329 -235.104" />
    <path d="M 247.154 -225.655 L 247.154 -225.505" />
    <path d="M 247.574 -225.655 L 247.574 -225.52" />
    <path d="M 241.425 -220.404 L 241.565 -220.404" />
    <path d="M 241.425 -220.417 L 241.425 -220.404" />
    <path d="M 241.565 -220.417 L 241.565 -220.404" />
    <path d="M 241.608 -220.597 L 241.564 -220.597" />
    <path d="M 237.949 -218.34 L 237.949 -218.131" />
    <path d="M 237.924 -218.34 L 237.924 -218.131" />
    <path d="M 237.824 -218.34 L 237.824 -218.131" />
    <path d="M 237.849 -218.34 L 237.849 -218.131" />
    <path d="M 237.849 -217.371 L 237.849 -217.076" />
    <path d="M 237.824 -218.131 L 237.949 -218.131" />
    <path d="M 237.824 -217.371 L 237.949 -217.371" />
    <path d="M 237.949 -217.151 L 237.949 -217.371" />
    <path d="M 237.924 -217.126 L 237.924 -217.371" />
    <path d="M 240.784 -220.679 L 240.784 -224.035" />
    <path d="M 240.809 -220.704 L 240.809 -224.035" />
    <path d="M 244.939 -233.69 L 244.939 -233.63" />
  </g>
</svg>
