<?xml version="1.0" encoding="UTF-8"?>
<svg xmlns="http://www.w3.org/2000/svg" viewBox="231.06 191.06 35.88 48.88" aria-hidden="true">
  <style>
    path,
    circle {
      fill: none;
      stroke: #007AFF;
      stroke-width: 1.55;
      stroke-linecap: round;
      stroke-linejoin: round;
      vector-effect: non-scaling-stroke;
    }
  </style>
  <g transform="scale(1 -1)">
    <path d="M 261.344 -218.7 L 261.344 -221.75" />
    <path d="M 255.854 -214.075 L 255.854 -213.855" />
    <path d="M 261.244 -213.39 L 261.244 -216.3" />
    <path d="M 260.004 -213.39 L 260.004 -213.65" />
    <path d="M 257.794 -213.65 L 260.004 -213.65" />
    <path d="M 257.794 -213.65 L 257.794 -213.38" />
    <path d="M 261.244 -216.3 L 261.244 -216.82" />
    <path d="M 261.244 -217.4 L 261.244 -218.3" />
    <path d="M 261.244 -217.4 L 261.244 -218" />
    <path d="M 256.624 -218.32 L 260.074 -218.32" />
    <path d="M 261.244 -216.82 L 261.444 -216.82" />
    <path d="M 261.244 -217.4 L 261.444 -217.4" />
    <path d="M 261.244 -216.82 L 261.244 -217.4" />
    <path d="M 260.074 -218.3 L 260.074 -218.32" />
    <path d="M 260.074 -218.3 L 260.294 -218.3" />
    <path d="M 261.204 -218.3 L 261.244 -218.3" />
    <path d="M 261.204 -218.3 L 261.204 -218.7" />
    <path d="M 260.294 -218.3 L 260.294 -218.7" />
    <path d="M 256.614 -218.7 L 260.294 -218.7" />
    <path d="M 261.204 -218.7 L 261.344 -218.7" />
    <path d="M 254.85 -221.23 L 255.027 -221.23" />
    <path d="M 255.637 -221.23 L 255.637 -220.713" />
    <path d="M 255.027 -221.23 L 255.027 -220.709" />
    <path d="M 255.637 -221.23 L 256.694 -221.23" />
    <path d="M 256.304 -221.51 L 256.694 -221.51" />
    <path d="M 256.304 -221.51 L 256.304 -221.23" />
    <path d="M 256.244 -214.3 L 256.244 -214.64" />
    <path d="M 256.244 -215.84 L 256.244 -216.497" />
    <path d="M 256.244 -217.62 L 256.244 -217.75" />
    <path d="M 256.244 -217.62 L 256.244 -217.75" />
    <path d="M 256.614 -218.7 L 256.614 -218.74" />
    <path d="M 256.244 -217.62 L 255.731 -217.62" />
    <path d="M 256.244 -217.62 L 255.731 -217.62" />
    <path d="M 256.244 -216.497 L 255.721 -216.497" />
    <path d="M 256.614 -218.74 L 256.132 -218.74" />
    <path d="M 256.694 -220.71 L 256.29 -220.71" />
    <path d="M 256.624 -218.32 L 260.074 -218.32" />
    <path d="M 256.624 -217.75 L 256.244 -217.75" />
    <path d="M 256.624 -217.75 L 256.244 -217.75" />
    <path d="M 256.624 -217.75 L 256.624 -218.32" />
    <path d="M 256.624 -217.75 L 256.624 -218" />
    <path d="M 256.614 -218.7 L 260.294 -218.7" />
    <path d="M 256.244 -214.64 L 255.705 -214.64" />
    <path d="M 256.244 -215.84 L 255.715 -215.84" />
    <path d="M 255.854 -214.17 L 256.244 -214.17" />
    <path d="M 255.854 -213.8 L 256.244 -213.8" />
    <path d="M 256.244 -214.3 L 256.244 -214.17" />
    <path d="M 256.244 -213.8 L 256.244 -213.38" />
    <path d="M 256.244 -214.17 L 256.244 -213.8" />
    <path d="M 255.854 -214.095 L 255.7 -214.095" />
    <path d="M 255.854 -213.875 L 255.698 -213.875" />
    <path d="M 255.854 -214.095 L 255.854 -214.17" />
    <path d="M 255.854 -213.875 L 255.854 -213.8" />
    <path d="M 255.854 -214.095 L 255.854 -213.875" />
    <path d="M 255.44 -213.1 L 255.44 -213.627" />
    <path d="M 255.44 -213.627 L 255.696 -213.629" />
    <path d="M 255.696 -213.629 L 255.698 -213.875" />
    <path d="M 255.7 -214.095 L 255.705 -214.64" />
    <path d="M 255.715 -215.84 L 255.721 -216.497" />
    <path d="M 255.736 -218.224 L 256.127 -218.232" />
    <path d="M 256.132 -218.74 L 256.127 -218.232" />
    <path d="M 255.637 -220.713 L 256.15 -220.709" />
    <path d="M 256.149 -220.613 L 256.289 -220.612" />
    <path d="M 256.289 -220.612 L 256.29 -220.71" />
    <path d="M 256.149 -220.613 L 256.15 -220.709" />
    <path d="M 256.287 -220.389 L 256.289 -220.612" />
    <path d="M 256.147 -220.389 L 256.149 -220.613" />
    <path d="M 255.731 -217.62 L 255.736 -218.224" />
    <path d="M 255.731 -217.62 L 255.734 -218" />
    <path d="M 255.198 -213.863 L 255.196 -213.1" />
    <path d="M 255.206 -213.1 L 255.208 -213.853" />
    <path d="M 255.198 -213.863 L 255.46 -213.865" />
    <path d="M 255.208 -213.853 L 255.47 -213.855" />
    <path d="M 255.477 -214.7 L 255.609 -214.699" />
    <path d="M 255.469 -214.71 L 255.609 -214.709" />
    <path d="M 255.467 -214.66 L 255.469 -214.66" />
    <path d="M 255.606 -214.699 L 255.606 -214.709" />
    <path d="M 255.467 -214.66 L 255.46 -213.865" />
    <path d="M 255.469 -214.71 L 255.469 -214.66" />
    <path d="M 255.477 -214.7 L 255.47 -213.855" />
    <path d="M 255.487 -215.776 L 255.618 -215.775" />
    <path d="M 255.478 -215.766 L 255.618 -215.765" />
    <path d="M 255.477 -215.816 L 255.479 -215.816" />
    <path d="M 255.616 -215.775 L 255.615 -215.765" />
    <path d="M 255.478 -215.766 L 255.479 -215.816" />
    <path d="M 255.429 -214.857 L 255.435 -215.619" />
    <path d="M 255.493 -216.554 L 255.625 -216.553" />
    <path d="M 255.485 -216.564 L 255.625 -216.563" />
    <path d="M 255.483 -216.514 L 255.485 -216.514" />
    <path d="M 255.622 -216.553 L 255.622 -216.563" />
    <path d="M 255.485 -216.564 L 255.485 -216.514" />
    <path d="M 255.487 -215.776 L 255.493 -216.554" />
    <path d="M 255.483 -216.514 L 255.477 -215.816" />
    <path d="M 255.502 -217.53 L 255.633 -217.529" />
    <path d="M 255.502 -217.53 L 255.633 -217.529" />
    <path d="M 255.494 -217.521 L 255.633 -217.519" />
    <path d="M 255.494 -217.521 L 255.633 -217.519" />
    <path d="M 255.492 -217.571 L 255.494 -217.571" />
    <path d="M 255.492 -217.571 L 255.494 -217.571" />
    <path d="M 255.631 -217.529 L 255.631 -217.519" />
    <path d="M 255.631 -217.529 L 255.631 -217.519" />
    <path d="M 255.494 -217.521 L 255.494 -217.571" />
    <path d="M 255.494 -217.521 L 255.494 -217.571" />
    <path d="M 255.445 -216.712 L 255.45 -217.374" />
    <path d="M 255.492 -217.571 L 255.5 -218.471" />
    <path d="M 255.492 -217.571 L 255.496 -218" />
    <path d="M 255.502 -217.57 L 255.51 -218.461" />
    <path d="M 255.502 -217.57 L 255.506 -218" />
    <path d="M 255.5 -218.471 L 255.883 -218.476" />
    <path d="M 255.51 -218.461 L 255.893 -218.466" />
    <path d="M 256.028 -218.78 L 255.895 -218.781" />
    <path d="M 256.028 -218.79 L 255.887 -218.791" />
    <path d="M 255.887 -218.741 L 255.885 -218.741" />
    <path d="M 255.949 -218.764 L 255.949 -218.78" />
    <path d="M 255.949 -218.764 L 255.959 -218.764" />
    <path d="M 255.984 -218.763 L 255.984 -218.78" />
    <path d="M 255.984 -218.763 L 255.974 -218.763" />
    <path d="M 255.959 -218.782 L 255.955 -218.79" />
    <path d="M 255.974 -218.782 L 255.978 -218.79" />
    <path d="M 255.883 -218.476 L 255.885 -218.741" />
    <path d="M 255.887 -218.741 L 255.887 -218.791" />
    <path d="M 255.893 -218.466 L 255.895 -218.781" />
    <path d="M 256.023 -218.78 L 256.023 -218.79" />
    <path d="M 256.287 -220.389 L 256.147 -220.389" />
    <path d="M 256.041 -220.35 L 255.908 -220.351" />
    <path d="M 256.041 -220.34 L 255.9 -220.341" />
    <path d="M 255.901 -220.391 L 255.899 -220.391" />
    <path d="M 255.962 -220.367 L 255.962 -220.351" />
    <path d="M 255.962 -220.367 L 255.972 -220.367" />
    <path d="M 255.997 -220.367 L 255.997 -220.35" />
    <path d="M 255.997 -220.367 L 255.987 -220.367" />
    <path d="M 255.972 -220.349 L 255.968 -220.341" />
    <path d="M 255.987 -220.349 L 255.991 -220.341" />
    <path d="M 255.899 -220.471 L 255.899 -220.391" />
    <path d="M 255.901 -220.391 L 255.9 -220.341" />
    <path d="M 255.909 -220.481 L 255.908 -220.351" />
    <path d="M 256.036 -220.35 L 256.036 -220.34" />
    <path d="M 255.684 -214.855 L 255.686 -215.119" />
    <path d="M 255.636 -214.856 L 255.638 -215.119" />
    <path d="M 255.688 -215.354 L 255.69 -215.617" />
    <path d="M 255.642 -215.617 L 255.64 -215.354" />
    <path d="M 255.7 -216.71 L 255.702 -216.923" />
    <path d="M 255.652 -216.71 L 255.654 -216.924" />
    <path d="M 255.704 -217.158 L 255.706 -217.372" />
    <path d="M 255.658 -217.372 L 255.656 -217.159" />
    <path d="M 256.101 -218.91 L 256.106 -219.447" />
    <path d="M 256.053 -218.91 L 256.058 -219.447" />
    <path d="M 256.108 -219.682 L 256.112 -220.219" />
    <path d="M 256.064 -220.219 L 256.06 -219.682" />
    <path d="M 256.104 -218.74 L 256.028 -218.74" />
    <path d="M 256.028 -218.74 L 256.028 -218.76" />
    <path d="M 256.028 -218.76 L 256.104 -218.76" />
    <path d="M 256.112 -218.619 L 256.131 -218.619" />
    <path d="M 256.117 -220.39 L 256.041 -220.39" />
    <path d="M 256.041 -220.39 L 256.041 -220.37" />
    <path d="M 256.041 -220.37 L 256.117 -220.37" />
    <path d="M 256.128 -220.57 L 256.149 -220.57" />
    <path d="M 255.027 -220.709 L 254.85 -220.709" />
    <path d="M 255.901 -220.391 L 255.899 -220.391" />
    <path d="M 255.899 -220.471 L 255.899 -220.391" />
    <path d="M 255.901 -220.391 L 255.9 -220.341" />
    <path d="M 255.909 -220.481 L 255.908 -220.351" />
    <path d="M 255.619 -220.613 L 255.619 -220.481" />
    <path d="M 255.609 -220.613 L 255.609 -220.473" />
    <path d="M 255.659 -220.473 L 255.659 -220.471" />
    <path d="M 255.619 -220.61 L 255.609 -220.61" />
    <path d="M 255.899 -220.471 L 255.659 -220.471" />
    <path d="M 255.659 -220.473 L 255.609 -220.473" />
    <path d="M 255.909 -220.481 L 255.619 -220.481" />
    <path d="M 255.073 -220.613 L 255.073 -220.481" />
    <path d="M 255.083 -220.613 L 255.083 -220.473" />
    <path d="M 255.033 -220.473 L 255.033 -220.471" />
    <path d="M 255.073 -220.61 L 255.083 -220.61" />
    <path d="M 255.033 -220.473 L 255.083 -220.473" />
    <path d="M 255.462 -220.431 L 255.23 -220.431" />
    <path d="M 255.033 -220.471 L 254.85 -220.471" />
    <path d="M 255.033 -220.481 L 254.85 -220.481" />
    <path d="M 255.462 -220.686 L 255.23 -220.686" />
    <path d="M 255.462 -220.638 L 255.23 -220.638" />
    <path d="M 255.7 -214.095 L 255.698 -213.875" />
    <path d="M 256.694 -221.23 L 256.694 -220.71" />
    <path d="M 256.118 -218.794 L 256.887 -218.794" />
    <path d="M 256.126 -220.334 L 256.89 -220.334" />
    <path d="M 261.444 -216.82 L 261.444 -217.4" />
    <path d="M 261.244 -213.11 L 261.244 -213.1" />
    <path d="M 261.064 -213.11 L 261.244 -213.11" />
    <path d="M 257.544 -213.38 L 257.794 -213.38" />
    <path d="M 260.134 -213.11 L 260.134 -213.39" />
    <path d="M 261.064 -213.11 L 261.064 -213.39" />
    <path d="M 261.064 -213.39 L 261.244 -213.39" />
    <path d="M 260.134 -213.39 L 260.004 -213.39" />
    <path d="M 256.974 -213.11 L 260.134 -213.11" />
    <path d="M 256.974 -213.11 L 256.974 -213.38" />
    <path d="M 256.974 -213.38 L 257.544 -213.38" />
    <path d="M 255.984 -213.11 L 255.984 -213.1" />
    <path d="M 255.984 -213.11 L 256.284 -213.11" />
    <path d="M 256.284 -213.11 L 256.284 -213.38" />
    <path d="M 256.974 -213.11 L 256.974 -213.38" />
    <path d="M 256.244 -213.38 L 256.284 -213.38" />
    <path d="M 256.974 -213.38 L 257.544 -213.38" />
    <path d="M 256.974 -213.11 L 256.284 -213.11" />
    <path d="M 256.974 -213.38 L 256.284 -213.38" />
    <path d="M 260.134 -213.11 L 260.134 -213.39" />
    <path d="M 256.724 -220.71 L 256.724 -221.75" />
    <path d="M 256.699 -220.71 L 256.699 -221.75" />
    <path d="M 256.569 -221.23 L 256.569 -221.75" />
    <path d="M 256.594 -221.23 L 256.594 -221.75" />
    <path d="M 256.194 -221.23 L 256.194 -221.75" />
    <path d="M 256.219 -221.23 L 256.219 -221.75" />
    <path d="M 256.269 -221.23 L 256.269 -221.75" />
    <path d="M 257.894 -216.494 L 257.894 -217.179" />
    <path d="M 257.919 -216.469 L 257.919 -217.154" />
    <path d="M 257.994 -216.269 L 257.994 -217.179" />
    <path d="M 257.969 -216.244 L 257.969 -217.154" />
    <path d="M 258.904 -216.269 L 258.904 -217.179" />
    <path d="M 258.929 -216.244 L 258.929 -217.154" />
    <path d="M 259.004 -216.269 L 259.004 -217.179" />
    <path d="M 258.979 -216.244 L 258.979 -217.154" />
    <path d="M 258.904 -216.269 L 257.994 -216.269" />
    <path d="M 258.929 -216.244 L 257.969 -216.244" />
    <path d="M 259.799 -218.32 L 259.799 -218.165" />
    <path d="M 259.824 -218.32 L 259.824 -218.165" />
    <path d="M 259.924 -218.32 L 259.924 -218.165" />
    <path d="M 259.899 -218.32 L 259.899 -218.165" />
    <path d="M 259.924 -216.269 L 259.924 -215.979" />
    <path d="M 259.899 -217.405 L 259.899 -217.4" />
    <path d="M 259.899 -217.405 L 259.899 -217.104" />
    <path d="M 259.899 -216.244 L 259.899 -215.979" />
    <path d="M 259.924 -215.094 L 259.924 -213.65" />
    <path d="M 259.704 -217.179 L 259.704 -216.269" />
    <path d="M 259.729 -217.154 L 259.729 -216.269" />
    <path d="M 259.924 -217.405 L 259.924 -217.4" />
    <path d="M 259.924 -217.405 L 259.924 -217.079" />
    <path d="M 259.899 -215.094 L 259.899 -213.65" />
    <path d="M 259.924 -218.165 L 259.799 -218.165" />
    <path d="M 259.924 -217.405 L 259.799 -217.405" />
    <path d="M 259.924 -217.405 L 259.799 -217.405" />
    <path d="M 257.894 -216.494 L 257.639 -216.494" />
    <path d="M 257.189 -216.494 L 256.244 -216.494" />
    <path d="M 257.919 -216.469 L 257.664 -216.469" />
    <path d="M 257.164 -216.469 L 256.244 -216.469" />
    <path d="M 259.799 -213.65 L 259.799 -215.094" />
    <path d="M 259.824 -213.65 L 259.824 -215.094" />
    <path d="M 259.799 -215.979 L 259.799 -216.119" />
    <path d="M 259.824 -215.979 L 259.824 -216.144" />
    <path d="M 259.799 -217.4 L 259.799 -217.405" />
    <path d="M 259.799 -217.179 L 259.799 -217.405" />
    <path d="M 259.824 -217.4 L 259.824 -217.405" />
    <path d="M 259.824 -217.154 L 259.824 -217.405" />
    <path d="M 257.639 -216.269 L 257.189 -216.269" />
    <path d="M 257.664 -216.244 L 257.164 -216.244" />
    <path d="M 259.799 -216.119 L 256.244 -216.119" />
    <path d="M 259.924 -216.269 L 259.004 -216.269" />
    <path d="M 259.899 -216.244 L 258.979 -216.244" />
    <path d="M 257.894 -217.179 L 257.994 -217.179" />
    <path d="M 257.894 -217.154 L 257.994 -217.154" />
    <path d="M 259.004 -217.179 L 258.904 -217.179" />
    <path d="M 259.004 -217.154 L 258.904 -217.154" />
    <path d="M 259.924 -215.979 L 259.799 -215.979" />
    <path d="M 259.924 -215.094 L 259.799 -215.094" />
    <path d="M 256.244 -216.119 L 259.799 -216.119" />
    <path d="M 256.244 -216.144 L 259.824 -216.144" />
    <path d="M 257.189 -216.494 L 257.189 -216.269" />
    <path d="M 257.164 -216.469 L 257.164 -216.244" />
    <path d="M 257.639 -216.494 L 257.639 -216.269" />
    <path d="M 257.664 -216.469 L 257.664 -216.244" />
    <path d="M 259.704 -217.179 L 259.754 -217.179" />
    <path d="M 259.754 -217.179 L 259.799 -217.179" />
    <path d="M 259.729 -217.154 L 259.824 -217.154" />
    <path d="M 259.729 -217.104 L 259.899 -217.104" />
    <path d="M 259.729 -217.079 L 259.924 -217.079" />
    <path d="M 256.694 -220.71 L 256.724 -220.71" />
  </g>
</svg>
