<?xml version="1.0" encoding="UTF-8"?>
<svg xmlns="http://www.w3.org/2000/svg" viewBox="231.06 191.06 35.88 48.88" aria-hidden="true">
  <style>
    path,
    circle {
      fill: none;
      stroke: #007AFF;
      stroke-width: 1.55;
      stroke-linecap: round;
      stroke-linejoin: round;
      vector-effect: non-scaling-stroke;
    }
  </style>
  <g transform="scale(1 -1)">
    <path d="M 236.689 -210.54 L 236.514 -210.54" />
    <path d="M 241.794 -210.82 L 237.609 -210.82" />
    <path d="M 236.689 -210.82 L 236.554 -210.82" />
    <path d="M 241.184 -210.54 L 239.984 -210.54" />
    <path d="M 237.764 -210.54 L 237.609 -210.54" />
    <path d="M 236.514 -205.94 L 236.394 -205.94" />
    <path d="M 236.689 -210.82 L 236.689 -210.54" />
    <path d="M 237.609 -210.82 L 237.609 -210.54" />
    <path d="M 236.514 -210.54 L 236.514 -207.3" />
    <path d="M 236.514 -207.9 L 236.514 -205.94" />
    <path d="M 236.394 -205.94 L 236.394 -203.35" />
    <path d="M 239.984 -210.54 L 239.984 -210.28" />
    <path d="M 239.984 -210.28 L 237.764 -210.28" />
    <path d="M 241.184 -209.579 L 241.718 -209.579" />
    <path d="M 241.184 -208.409 L 241.715 -208.409" />
    <path d="M 241.184 -207.395 L 241.715 -207.395" />
    <path d="M 241.184 -207.395 L 241.715 -207.395" />
    <path d="M 243.103 -205.99 L 243.103 -206.583" />
    <path d="M 241.184 -210.54 L 241.184 -209.579" />
    <path d="M 241.184 -208.409 L 241.184 -207.395" />
    <path d="M 241.184 -207.9 L 241.184 -207.395" />
    <path d="M 241.184 -206.725 L 241.184 -205.99" />
    <path d="M 242.198 -212.574 L 242.338 -212.574" />
    <path d="M 242.198 -212.574 L 242.198 -212.666" />
    <path d="M 241.794 -211.285 L 241.794 -210.82" />
    <path d="M 243.103 -205.99 L 243.55 -205.99" />
    <path d="M 241.794 -211.286 L 242.176 -211.286" />
    <path d="M 241.794 -212.666 L 242.198 -212.666" />
    <path d="M 241.703 -205.99 L 241.703 -206.437" />
    <path d="M 241.813 -206.587 L 241.714 -206.587" />
    <path d="M 241.585 -206.827 L 241.585 -206.725" />
    <path d="M 241.715 -206.827 L 241.714 -206.587" />
    <path d="M 241.585 -206.725 L 241.184 -206.725" />
    <path d="M 241.703 -206.437 L 241.813 -206.437" />
    <path d="M 241.813 -206.437 L 241.814 -206.587" />
    <path d="M 243.103 -206.583 L 243.55 -206.582" />
    <path d="M 241.82 -206.587 L 242.005 -206.587" />
    <path d="M 241.813 -206.437 L 242.005 -206.437" />
    <path d="M 242.005 -206.437 L 242.005 -206.587" />
    <path d="M 242.068 -206.866 L 242.067 -206.822" />
    <path d="M 243.077 -206.819 L 243.078 -206.863" />
    <path d="M 242.017 -206.822 L 242.067 -206.822" />
    <path d="M 242.017 -206.822 L 242.017 -206.824" />
    <path d="M 242.043 -206.822 L 242.044 -206.866" />
    <path d="M 242.044 -206.866 L 242.068 -206.866" />
    <path d="M 242.04 -206.761 L 242.057 -206.761" />
    <path d="M 242.04 -206.761 L 242.04 -206.751" />
    <path d="M 242.04 -206.726 L 242.057 -206.726" />
    <path d="M 242.04 -206.726 L 242.04 -206.736" />
    <path d="M 242.059 -206.751 L 242.067 -206.754" />
    <path d="M 242.059 -206.736 L 242.067 -206.732" />
    <path d="M 242.067 -206.682 L 242.067 -206.822" />
    <path d="M 242.057 -206.682 L 242.057 -206.814" />
    <path d="M 242.067 -206.687 L 242.057 -206.687" />
    <path d="M 243.103 -206.819 L 243.053 -206.819" />
    <path d="M 243.103 -206.819 L 243.103 -206.821" />
    <path d="M 243.078 -206.863 L 243.054 -206.863" />
    <path d="M 243.054 -206.863 L 243.053 -206.819" />
    <path d="M 243.08 -206.757 L 243.063 -206.758" />
    <path d="M 243.08 -206.757 L 243.08 -206.747" />
    <path d="M 243.08 -206.722 L 243.063 -206.723" />
    <path d="M 243.08 -206.722 L 243.08 -206.732" />
    <path d="M 243.061 -206.748 L 243.053 -206.751" />
    <path d="M 243.061 -206.733 L 243.053 -206.729" />
    <path d="M 243.053 -206.679 L 243.053 -206.819" />
    <path d="M 243.063 -206.679 L 243.063 -206.811" />
    <path d="M 243.053 -206.684 L 243.063 -206.684" />
    <path d="M 241.715 -206.891 L 241.715 -206.827" />
    <path d="M 241.715 -206.826 L 241.585 -206.827" />
    <path d="M 241.585 -206.891 L 241.585 -206.827" />
    <path d="M 241.953 -206.889 L 241.953 -206.825" />
    <path d="M 241.943 -206.929 L 241.943 -206.815" />
    <path d="M 241.811 -207.326 L 241.951 -207.326" />
    <path d="M 241.811 -207.326 L 241.951 -207.326" />
    <path d="M 241.811 -207.336 L 241.943 -207.336" />
    <path d="M 241.811 -207.336 L 241.943 -207.336" />
    <path d="M 241.724 -207.541 L 241.944 -207.541" />
    <path d="M 241.724 -207.541 L 241.944 -207.541" />
    <path d="M 241.951 -207.376 L 241.953 -207.376" />
    <path d="M 241.951 -207.376 L 241.953 -207.376" />
    <path d="M 241.951 -207.326 L 241.951 -207.376" />
    <path d="M 241.951 -207.326 L 241.951 -207.376" />
    <path d="M 241.813 -207.336 L 241.811 -207.336" />
    <path d="M 241.813 -207.336 L 241.811 -207.336" />
    <path d="M 241.814 -207.336 L 241.814 -207.326" />
    <path d="M 241.814 -207.336 L 241.814 -207.326" />
    <path d="M 241.951 -207.355 L 241.995 -207.355" />
    <path d="M 241.951 -207.355 L 241.995 -207.355" />
    <path d="M 241.995 -207.355 L 241.995 -207.331" />
    <path d="M 241.995 -207.355 L 241.995 -207.331" />
    <path d="M 241.995 -207.331 L 241.951 -207.331" />
    <path d="M 241.995 -207.331 L 241.951 -207.331" />
    <path d="M 241.715 -206.878 L 241.585 -206.878" />
    <path d="M 241.993 -207.331 L 241.993 -207.3" />
    <path d="M 241.993 -207.331 L 241.993 -206.934" />
    <path d="M 241.81 -206.939 L 241.951 -206.939" />
    <path d="M 241.81 -206.929 L 241.943 -206.929" />
    <path d="M 241.951 -206.889 L 241.953 -206.889" />
    <path d="M 241.951 -206.939 L 241.951 -206.889" />
    <path d="M 241.813 -206.929 L 241.81 -206.929" />
    <path d="M 241.814 -206.929 L 241.814 -206.939" />
    <path d="M 241.951 -206.91 L 241.995 -206.91" />
    <path d="M 241.995 -206.91 L 241.995 -206.934" />
    <path d="M 241.995 -206.934 L 241.951 -206.934" />
    <path d="M 242.017 -206.824 L 241.953 -206.825" />
    <path d="M 242.057 -206.814 L 241.943 -206.815" />
    <path d="M 242.175 -206.609 L 242.442 -206.608" />
    <path d="M 242.175 -206.657 L 242.443 -206.656" />
    <path d="M 242.677 -206.607 L 242.944 -206.606" />
    <path d="M 242.678 -206.655 L 242.945 -206.654" />
    <path d="M 241.738 -207.048 L 241.738 -207.217" />
    <path d="M 241.786 -207.048 L 241.786 -207.217" />
    <path d="M 241.953 -207.376 L 241.954 -208.09" />
    <path d="M 241.953 -207.376 L 241.954 -207.9" />
    <path d="M 241.943 -207.336 L 241.944 -208.09" />
    <path d="M 241.943 -207.336 L 241.944 -207.9" />
    <path d="M 243.55 -206.82 L 243.103 -206.821" />
    <path d="M 243.063 -206.811 L 243.55 -206.81" />
    <path d="M 242.068 -206.864 L 243.054 -206.861" />
    <path d="M 242.005 -206.605 L 242.005 -206.681" />
    <path d="M 242.005 -206.681 L 242.025 -206.681" />
    <path d="M 242.025 -206.681 L 242.025 -206.605" />
    <path d="M 243.115 -206.602 L 243.115 -206.678" />
    <path d="M 243.115 -206.678 L 243.095 -206.678" />
    <path d="M 243.095 -206.678 L 243.095 -206.602" />
    <path d="M 241.734 -206.878 L 241.81 -206.878" />
    <path d="M 241.81 -206.878 L 241.81 -206.897" />
    <path d="M 241.81 -206.897 L 241.734 -206.897" />
    <path d="M 241.734 -207.387 L 241.81 -207.387" />
    <path d="M 241.734 -207.387 L 241.81 -207.387" />
    <path d="M 241.81 -207.387 L 241.81 -207.368" />
    <path d="M 241.81 -207.387 L 241.81 -207.368" />
    <path d="M 241.81 -207.368 L 241.734 -207.368" />
    <path d="M 241.81 -207.368 L 241.734 -207.368" />
    <path d="M 241.715 -207.395 L 241.715 -208.409" />
    <path d="M 241.715 -207.395 L 241.715 -207.9" />
    <path d="M 242.176 -211.394 L 242.176 -211.286" />
    <path d="M 242.327 -211.274 L 242.319 -210.291" />
    <path d="M 242.319 -210.291 L 241.719 -210.288" />
    <path d="M 241.719 -210.288 L 241.718 -209.579" />
    <path d="M 242.328 -211.396 L 242.327 -211.274" />
    <path d="M 241.813 -208.474 L 241.953 -208.474" />
    <path d="M 241.953 -208.424 L 241.955 -208.424" />
    <path d="M 241.953 -208.474 L 241.953 -208.424" />
    <path d="M 241.816 -208.464 L 241.813 -208.464" />
    <path d="M 241.816 -208.464 L 241.816 -208.474" />
    <path d="M 241.814 -209.53 L 241.954 -209.53" />
    <path d="M 241.954 -209.58 L 241.956 -209.58" />
    <path d="M 241.956 -209.58 L 241.957 -210.039" />
    <path d="M 241.954 -209.53 L 241.954 -209.58" />
    <path d="M 241.817 -209.54 L 241.814 -209.54" />
    <path d="M 241.817 -209.54 L 241.817 -209.53" />
    <path d="M 242.555 -210.04 L 241.957 -210.039" />
    <path d="M 242.545 -210.05 L 241.947 -210.049" />
    <path d="M 242.573 -212.539 L 242.573 -212.489" />
    <path d="M 242.565 -212.499 L 242.436 -212.5" />
    <path d="M 242.573 -212.489 L 242.436 -212.49" />
    <path d="M 242.575 -212.539 L 242.573 -212.539" />
    <path d="M 242.545 -210.05 L 242.556 -211.443" />
    <path d="M 242.555 -210.04 L 242.566 -211.403" />
    <path d="M 242.564 -211.403 L 242.564 -211.453" />
    <path d="M 242.556 -211.443 L 242.427 -211.444" />
    <path d="M 242.564 -211.453 L 242.427 -211.454" />
    <path d="M 242.566 -211.403 L 242.564 -211.403" />
    <path d="M 242.359 -212.344 L 242.352 -211.602" />
    <path d="M 242.4 -211.602 L 242.407 -212.344" />
    <path d="M 242.614 -212.342 L 242.608 -211.6" />
    <path d="M 241.741 -209.383 L 241.74 -209.119" />
    <path d="M 241.789 -209.383 L 241.788 -209.119" />
    <path d="M 241.996 -209.383 L 241.995 -208.621" />
    <path d="M 241.74 -208.884 L 241.74 -208.621" />
    <path d="M 241.788 -208.884 L 241.788 -208.621" />
    <path d="M 241.954 -208.09 L 241.955 -208.424" />
    <path d="M 242.176 -211.394 L 242.328 -211.394" />
    <path d="M 243.103 -205.99 L 243.103 -203.35" />
    <path d="M 243.128 -205.99 L 243.128 -203.35" />
    <path d="M 243.258 -205.99 L 243.258 -203.35" />
    <path d="M 243.233 -205.99 L 243.233 -203.35" />
    <path d="M 241.703 -205.99 L 241.184 -205.99" />
    <path d="M 237.764 -210.28 L 237.764 -210.54" />
    <path d="M 239.984 -210.54 L 239.984 -210.28" />
    <path d="M 241.184 -209.63 L 239.984 -209.63" />
    <path d="M 238.649 -208.806 L 238.774 -208.806" />
    <path d="M 238.649 -209.566 L 238.774 -209.566" />
    <path d="M 238.774 -208.035 L 238.774 -208.806" />
    <path d="M 238.749 -208.01 L 238.749 -208.806" />
    <path d="M 238.774 -209.566 L 238.774 -210.28" />
    <path d="M 238.749 -209.566 L 238.749 -210.28" />
    <path d="M 238.649 -207.91 L 238.649 -208.806" />
    <path d="M 238.674 -207.91 L 238.674 -208.806" />
    <path d="M 238.649 -209.566 L 238.649 -210.28" />
    <path d="M 238.674 -209.566 L 238.674 -210.28" />
    <path d="M 239.974 -209.63 L 239.974 -210.28" />
    <path d="M 239.949 -209.655 L 239.949 -210.28" />
    <path d="M 239.824 -209.63 L 239.824 -210.28" />
    <path d="M 239.849 -209.655 L 239.849 -210.28" />
    <path d="M 239.974 -209.63 L 239.824 -209.63" />
    <path d="M 239.974 -209.655 L 239.824 -209.655" />
    <path d="M 241.184 -207.885 L 237.764 -207.885" />
    <path d="M 241.184 -207.885 L 237.764 -207.885" />
    <path d="M 238.649 -208.08 L 237.764 -208.08" />
    <path d="M 237.764 -208.68 L 237.639 -208.68" />
    <path d="M 237.764 -208.655 L 237.639 -208.655" />
    <path d="M 239.984 -208.035 L 238.774 -208.035" />
    <path d="M 241.184 -207.91 L 237.764 -207.91" />
    <path d="M 240.009 -208.01 L 238.749 -208.01" />
    <path d="M 237.764 -207.235 L 237.639 -207.235" />
    <path d="M 237.764 -207.26 L 237.639 -207.26" />
    <path d="M 237.639 -207.3 L 237.639 -208.68" />
    <path d="M 237.639 -207.235 L 237.639 -207.9" />
    <path d="M 237.664 -207.3 L 237.664 -208.655" />
    <path d="M 237.664 -207.26 L 237.664 -207.9" />
    <path d="M 237.764 -207.3 L 237.764 -208.68" />
    <path d="M 237.764 -207.235 L 237.764 -207.9" />
    <path d="M 237.739 -207.3 L 237.739 -208.655" />
    <path d="M 237.739 -207.26 L 237.739 -207.9" />
    <path d="M 239.984 -208.26 L 239.984 -208.035" />
    <path d="M 240.009 -208.235 L 240.009 -208.01" />
    <path d="M 241.184 -208.26 L 240.534 -208.26" />
    <path d="M 240.084 -208.26 L 239.984 -208.26" />
    <path d="M 240.059 -208.235 L 240.009 -208.235" />
    <path d="M 240.534 -208.035 L 240.084 -208.035" />
    <path d="M 240.559 -208.01 L 240.059 -208.01" />
    <path d="M 240.084 -208.26 L 240.084 -208.035" />
    <path d="M 240.059 -208.235 L 240.059 -208.01" />
    <path d="M 240.534 -208.26 L 240.534 -208.035" />
    <path d="M 240.559 -208.235 L 240.559 -208.01" />
    <path d="M 240.559 -208.235 L 241.184 -208.235" />
    <path d="M 241.184 -209.63 L 239.984 -209.63" />
    <path d="M 241.715 -206.891 L 241.585 -206.891" />
    <path d="M 242.341 -213 L 242.338 -212.574" />
    <path d="M 242.569 -213 L 242.565 -212.499" />
    <path d="M 242.579 -213 L 242.575 -212.539" />
    <path d="M 236.554 -213 L 236.554 -210.82" />
    <path d="M 241.794 -213 L 241.794 -212.666" />
  </g>
</svg>
