<?xml version="1.0" encoding="UTF-8"?>
<svg xmlns="http://www.w3.org/2000/svg" viewBox="231.06 191.06 35.88 48.88" aria-hidden="true">
  <style>
    path,
    circle {
      fill: none;
      stroke: #007AFF;
      stroke-width: 1.55;
      stroke-linecap: round;
      stroke-linejoin: round;
      vector-effect: non-scaling-stroke;
    }
  </style>
  <g transform="scale(1 -1)">
    <path d="M 257.794 -213.65 L 259.45 -213.65" />
    <path d="M 257.794 -213.65 L 257.794 -213.38" />
    <path d="M 256.8 -218.32 L 260.074 -218.32" />
    <path d="M 260.074 -218.3 L 260.074 -218.32" />
    <path d="M 260.074 -218.3 L 260.294 -218.3" />
    <path d="M 260.294 -218.3 L 260.294 -218.7" />
    <path d="M 256.8 -218.7 L 260.294 -218.7" />
    <path d="M 256.8 -218.32 L 260.074 -218.32" />
    <path d="M 256.8 -218.7 L 260.294 -218.7" />
    <path d="M 256.8 -218.794 L 256.887 -218.794" />
    <path d="M 256.8 -220.334 L 256.89 -220.334" />
    <path d="M 257.544 -213.38 L 257.794 -213.38" />
    <path d="M 260.134 -213.11 L 260.134 -213.2" />
    <path d="M 257 -213.11 L 260.134 -213.11" />
    <path d="M 257 -213.38 L 257.544 -213.38" />
    <path d="M 257 -213.38 L 257.544 -213.38" />
    <path d="M 260.134 -213.11 L 260.134 -213.2" />
  </g>
</svg>
