<?xml version="1.0" encoding="UTF-8"?>
<svg xmlns="http://www.w3.org/2000/svg" viewBox="231.06 191.06 35.88 48.88" aria-hidden="true">
  <style>
    path,
    circle {
      fill: none;
      stroke: #007AFF;
      stroke-width: 1.55;
      stroke-linecap: round;
      stroke-linejoin: round;
      vector-effect: non-scaling-stroke;
    }
  </style>
  <g transform="scale(1 -1)">
    <path d="M 253.454 -196.93 L 253.754 -196.93" />
    <path d="M 255.984 -210.82 L 260.164 -210.82" />
    <path d="M 261.084 -210.82 L 261.244 -210.82" />
    <path d="M 261.084 -210.82 L 261.084 -210.57" />
    <path d="M 260.164 -210.82 L 260.164 -210.57" />
    <path d="M 261.084 -210.57 L 261.244 -210.57" />
    <path d="M 261.244 -210.57 L 261.244 -206.04" />
    <path d="M 261.244 -206.04 L 261.384 -206.04" />
    <path d="M 261.384 -206.04 L 261.384 -202.61" />
    <path d="M 261.384 -202.61 L 261.094 -202.61" />
    <path d="M 260.174 -202.61 L 255.034 -202.61" />
    <path d="M 255.034 -202.61 L 255.034 -203.08" />
    <path d="M 255.034 -203.08 L 254.482 -203.08" />
    <path d="M 260.164 -210.57 L 260.054 -210.57" />
    <path d="M 260.054 -210.57 L 260.054 -210.32" />
    <path d="M 260.054 -210.32 L 257.804 -210.32" />
    <path d="M 257.804 -210.59 L 256.574 -210.59" />
    <path d="M 257.804 -210.59 L 257.804 -210.32" />
    <path d="M 260.174 -202.61 L 260.174 -202.19" />
    <path d="M 261.094 -202.61 L 261.094 -202.19" />
    <path d="M 261.094 -202.19 L 261.384 -202.19" />
    <path d="M 261.384 -202.19 L 261.384 -196.92" />
    <path d="M 257.484 -202.19 L 260.174 -202.19" />
    <path d="M 259.704 -196.38 L 259.054 -196.38" />
    <path d="M 259.054 -196.92 L 259.704 -196.92" />
    <path d="M 260.894 -196.92 L 261.384 -196.92" />
    <path d="M 260.894 -196.92 L 260.894 -196.38" />
    <path d="M 259.704 -196.92 L 259.704 -196.38" />
    <path d="M 261.639 -196.38 L 261.639 -195.35" />
    <path d="M 257.864 -196.92 L 257.864 -196.38" />
    <path d="M 259.054 -196.92 L 259.054 -196.38" />
    <path d="M 257.864 -196.92 L 257.614 -196.92" />
    <path d="M 260.894 -196.38 L 261.639 -196.38" />
    <path d="M 252.934 -196.93 L 253.454 -196.93" />
    <path d="M 253.454 -196.93 L 253.454 -200.82" />
    <path d="M 252.409 -200.465 L 252.409 -200.59" />
    <path d="M 253.454 -200.82 L 253.454 -201.14" />
    <path d="M 253.454 -202.07 L 253.454 -202.24" />
    <path d="M 253.754 -196.93 L 253.754 -201.14" />
    <path d="M 253.754 -202.07 L 253.754 -202.23" />
    <path d="M 253.454 -202.24 L 253.294 -202.24" />
    <path d="M 252.394 -202.24 L 251.364 -202.24" />
    <path d="M 253.454 -202.07 L 253.754 -202.07" />
    <path d="M 253.454 -201.14 L 253.754 -201.14" />
    <path d="M 253.754 -202.23 L 257.484 -202.23" />
    <path d="M 253.754 -196.93 L 254.174 -196.93" />
    <path d="M 255.364 -196.93 L 255.944 -196.93" />
    <path d="M 257.134 -196.93 L 257.614 -196.93" />
    <path d="M 255.944 -196.93 L 255.944 -196.38" />
    <path d="M 257.134 -196.93 L 257.134 -196.38" />
    <path d="M 254.174 -196.93 L 254.174 -196.38" />
    <path d="M 255.364 -196.93 L 255.364 -196.38" />
    <path d="M 252.934 -196.93 L 252.934 -196.38" />
    <path d="M 253.844 -202.64 L 253.294 -202.64" />
    <path d="M 252.394 -202.64 L 251.364 -202.64" />
    <path d="M 252.394 -202.24 L 252.394 -202.64" />
    <path d="M 253.294 -202.24 L 253.294 -202.64" />
    <path d="M 253.844 -202.64 L 253.844 -203.01" />
    <path d="M 253.844 -203.01 L 254.482 -203.01" />
    <path d="M 257.864 -196.38 L 257.134 -196.38" />
    <path d="M 255.944 -196.38 L 255.364 -196.38" />
    <path d="M 254.174 -196.38 L 252.934 -196.38" />
    <path d="M 260.778 -196.398 L 260.778 -197.356" />
    <path d="M 259.82 -196.398 A 0.958 0.958 0 0 1 260.778 -197.356" />
    <path d="M 255.984 -211.24 L 255.984 -210.82" />
    <path d="M 256.574 -210.59 L 256.574 -209.658" />
    <path d="M 256.574 -208.498 L 256.574 -207.53" />
    <path d="M 256.574 -209.658 L 256.01 -209.658" />
    <path d="M 254.602 -206.1 L 254.602 -206.547" />
    <path d="M 256.002 -206 L 256.002 -206.402" />
    <path d="M 256.574 -206.79 L 256.018 -206.79" />
    <path d="M 256.574 -206.79 L 256.574 -206" />
    <path d="M 254.602 -206.1 L 253.716 -206.1" />
    <path d="M 252.566 -206.1 L 251.592 -206.1" />
    <path d="M 253.716 -206.1 L 253.716 -206.55" />
    <path d="M 252.566 -206.1 L 252.566 -206.557" />
    <path d="M 253.716 -206.1 L 252.566 -206.1" />
    <path d="M 257.23 -202.355 L 257.48 -202.355 L 257.48 -202.485 L 257.23 -202.485 L 257.23 -202.355 Z" />
    <path d="M 257.58 -202.355 L 257.83 -202.355 L 257.83 -202.485 L 257.58 -202.485 L 257.58 -202.355 Z" />
    <path d="M 259.049 -202.355 L 259.299 -202.355 L 259.299 -202.485 L 259.049 -202.485 L 259.049 -202.355 Z" />
    <path d="M 259.398 -202.355 L 259.648 -202.355 L 259.648 -202.485 L 259.398 -202.485 L 259.398 -202.355 Z" />
    <path d="M 255.906 -206.543 L 256.019 -206.542" />
    <path d="M 255.906 -206.543 L 255.906 -206.403" />
    <path d="M 255.874 -206.403 L 256.002 -206.402" />
    <path d="M 255.906 -206.403 L 255.692 -206.403" />
    <path d="M 255.692 -206.403 L 255.692 -206.543" />
    <path d="M 255.692 -206.543 L 255.906 -206.543" />
    <path d="M 251.592 -206.56 L 252.566 -206.557" />
    <path d="M 253.716 -206.55 L 254.602 -206.547" />
    <path d="M 252.609 -206.789 L 252.559 -206.789" />
    <path d="M 252.609 -206.649 L 252.609 -206.789" />
    <path d="M 251.526 -206.784 L 252.599 -206.781" />
    <path d="M 252.559 -206.789 L 252.559 -206.791" />
    <path d="M 253.675 -206.646 L 253.675 -206.778" />
    <path d="M 252.599 -206.649 L 252.599 -206.781" />
    <path d="M 253.665 -206.646 L 253.665 -206.786" />
    <path d="M 252.599 -206.652 L 252.609 -206.652" />
    <path d="M 253.665 -206.786 L 253.715 -206.786" />
    <path d="M 253.715 -206.786 L 253.715 -206.788" />
    <path d="M 253.675 -206.649 L 253.665 -206.649" />
    <path d="M 254.605 -206.783 L 254.655 -206.783" />
    <path d="M 254.605 -206.783 L 254.605 -206.785" />
    <path d="M 254.631 -206.784 L 254.631 -206.828" />
    <path d="M 254.631 -206.828 L 254.655 -206.828" />
    <path d="M 254.655 -206.828 L 254.655 -206.784" />
    <path d="M 254.628 -206.721 L 254.644 -206.721" />
    <path d="M 254.628 -206.721 L 254.628 -206.711" />
    <path d="M 254.627 -206.686 L 254.644 -206.686" />
    <path d="M 254.627 -206.686 L 254.628 -206.696" />
    <path d="M 254.646 -206.711 L 254.654 -206.715" />
    <path d="M 254.646 -206.696 L 254.654 -206.692" />
    <path d="M 254.654 -206.642 L 254.655 -206.783" />
    <path d="M 254.644 -206.642 L 254.645 -206.775" />
    <path d="M 254.654 -206.647 L 254.644 -206.647" />
    <path d="M 253.715 -206.788 L 254.605 -206.785" />
    <path d="M 253.715 -206.778 L 254.645 -206.775" />
    <path d="M 255.678 -206.779 L 255.628 -206.78" />
    <path d="M 255.678 -206.779 L 255.678 -206.781" />
    <path d="M 255.652 -206.78 L 255.653 -206.824" />
    <path d="M 255.653 -206.824 L 255.629 -206.824" />
    <path d="M 255.629 -206.824 L 255.628 -206.78" />
    <path d="M 255.655 -206.718 L 255.638 -206.718" />
    <path d="M 255.655 -206.718 L 255.655 -206.708" />
    <path d="M 255.655 -206.683 L 255.638 -206.683" />
    <path d="M 255.655 -206.683 L 255.655 -206.693" />
    <path d="M 255.636 -206.708 L 255.628 -206.712" />
    <path d="M 255.636 -206.693 L 255.628 -206.689" />
    <path d="M 255.628 -206.639 L 255.628 -206.78" />
    <path d="M 255.638 -206.639 L 255.638 -206.771" />
    <path d="M 255.628 -206.644 L 255.638 -206.644" />
    <path d="M 255.678 -206.781 L 255.743 -206.781" />
    <path d="M 255.638 -206.771 L 255.753 -206.771" />
    <path d="M 252.559 -206.791 L 251.566 -206.794" />
    <path d="M 254.655 -206.826 L 255.629 -206.822" />
    <path d="M 252.756 -206.623 L 253.019 -206.623" />
    <path d="M 253.254 -206.622 L 253.517 -206.621" />
    <path d="M 252.756 -206.831 L 253.518 -206.828" />
    <path d="M 254.592 -206.567 L 254.592 -206.642 L 254.612 -206.642 L 254.612 -206.567" />
    <path d="M 255.689 -206.563 L 255.689 -206.639 L 255.67 -206.639 L 255.67 -206.563" />
    <path d="M 255.87 -206.552 L 255.87 -206.543" />
    <path d="M 255.26 -206.568 L 255.519 -206.567" />
    <path d="M 254.762 -206.569 L 255.025 -206.568" />
    <path d="M 255.26 -206.616 L 255.52 -206.615" />
    <path d="M 254.762 -206.617 L 255.025 -206.616" />
    <path d="M 255.943 -206.653 L 255.99 -206.654" />
    <path d="M 255.437 -210.281 L 255.438 -211.241" />
    <path d="M 255.578 -211.24 L 255.578 -211.34" />
    <path d="M 255.578 -211.34 L 255.438 -211.34" />
    <path d="M 255.438 -211.34 L 255.438 -211.241" />
    <path d="M 255.579 -212.621 L 255.579 -212.52" />
    <path d="M 255.579 -212.52 L 255.439 -212.52" />
    <path d="M 255.759 -209.59 L 255.759 -209.64" />
    <path d="M 255.898 -209.599 L 255.767 -209.6" />
    <path d="M 255.898 -209.589 L 255.759 -209.59" />
    <path d="M 255.759 -209.64 L 255.757 -209.64" />
    <path d="M 255.896 -209.599 L 255.896 -209.589" />
    <path d="M 255.712 -208.731 L 255.716 -209.443" />
    <path d="M 255.757 -209.64 L 255.759 -210.043" />
    <path d="M 255.767 -209.64 L 255.769 -210.053" />
    <path d="M 255.759 -210.043 L 255.188 -210.042" />
    <path d="M 255.769 -210.053 L 255.198 -210.052" />
    <path d="M 255.333 -211.395 L 255.202 -211.395" />
    <path d="M 255.333 -211.405 L 255.194 -211.405" />
    <path d="M 255.193 -211.355 L 255.191 -211.355" />
    <path d="M 255.188 -210.042 L 255.191 -211.355" />
    <path d="M 255.193 -211.355 L 255.194 -211.405" />
    <path d="M 255.202 -211.395 L 255.198 -210.052" />
    <path d="M 255.331 -211.395 L 255.331 -211.405" />
    <path d="M 255.152 -211.45 L 255.154 -212.392" />
    <path d="M 255.336 -212.451 L 255.204 -212.451" />
    <path d="M 255.336 -212.441 L 255.196 -212.441" />
    <path d="M 255.196 -212.491 L 255.194 -212.491" />
    <path d="M 255.196 -212.491 L 255.196 -212.441" />
    <path d="M 255.333 -212.451 L 255.333 -212.441" />
    <path d="M 255.922 -209.204 L 255.923 -209.442" />
    <path d="M 255.97 -209.203 L 255.971 -209.442" />
    <path d="M 255.359 -211.45 L 255.361 -212.392" />
    <path d="M 255.409 -212.391 L 255.407 -211.45" />
    <path d="M 255.756 -207.538 L 255.755 -207.433" />
    <path d="M 255.746 -207.538 L 255.745 -207.473" />
    <path d="M 255.747 -207.473 L 255.747 -207.423" />
    <path d="M 255.755 -207.433 L 255.888 -207.432" />
    <path d="M 255.747 -207.423 L 255.888 -207.422" />
    <path d="M 255.745 -207.473 L 255.747 -207.473" />
    <path d="M 255.883 -207.432 L 255.883 -207.422" />
    <path d="M 255.761 -208.574 L 255.76 -208.397" />
    <path d="M 255.751 -208.534 L 255.75 -208.397" />
    <path d="M 255.753 -208.584 L 255.753 -208.534" />
    <path d="M 255.893 -208.573 L 255.761 -208.574" />
    <path d="M 255.893 -208.583 L 255.753 -208.584" />
    <path d="M 255.753 -208.534 L 255.751 -208.534" />
    <path d="M 255.746 -207.538 L 255.75 -208.397" />
    <path d="M 255.756 -207.538 L 255.76 -208.397" />
    <path d="M 255.747 -207.447 L 255.703 -207.447 L 255.703 -207.423 L 255.747 -207.423" />
    <path d="M 255.89 -208.573 L 255.89 -208.583" />
    <path d="M 255.964 -207.484 L 255.888 -207.484 L 255.888 -207.464 L 255.964 -207.464" />
    <path d="M 255.752 -206.771 L 255.752 -206.886" />
    <path d="M 255.742 -206.781 L 255.742 -206.846" />
    <path d="M 255.744 -206.846 L 255.744 -206.896" />
    <path d="M 255.752 -206.886 L 255.885 -206.886" />
    <path d="M 255.744 -206.896 L 255.885 -206.896" />
    <path d="M 255.742 -206.846 L 255.744 -206.846" />
    <path d="M 255.88 -206.886 L 255.88 -206.896" />
    <path d="M 255.744 -206.872 L 255.7 -206.873 L 255.7 -206.897 L 255.744 -206.896" />
    <path d="M 255.705 -207.423 L 255.702 -206.897" />
    <path d="M 255.961 -206.834 L 255.885 -206.834 L 255.885 -206.853 L 255.961 -206.853" />
    <path d="M 255.91 -207.004 L 255.912 -207.313" />
    <path d="M 255.958 -207.004 L 255.96 -207.313" />
    <path d="M 256.013 -208.5 L 256.574 -208.498" />
    <path d="M 255.579 -212.62 L 255.984 -212.62" />
    <path d="M 255.578 -211.24 L 255.984 -211.24" />
    <path d="M 252.894 -196.37 L 252.894 -196.15" />
    <path d="M 252.884 -196.376 L 252.884 -196.142" />
    <path d="M 252.896 -196.09 L 252.896 -196.142" />
    <path d="M 252.884 -196.142 L 252.884 -196.09" />
    <path d="M 252.884 -196.142 L 252.934 -196.142" />
    <path d="M 252.934 -196.142 L 252.934 -196.14" />
    <path d="M 252.914 -196.38 L 252.934 -196.38" />
    <path d="M 252.917 -196.456 L 252.934 -196.456" />
    <path d="M 252.917 -196.38 L 252.934 -196.38" />
    <path d="M 252.917 -196.456 L 252.917 -196.38" />
    <path d="M 255.324 -196.37 L 255.324 -196.15" />
    <path d="M 255.314 -196.376 L 255.314 -196.142" />
    <path d="M 255.326 -196.09 L 255.326 -196.142" />
    <path d="M 255.314 -196.142 L 255.314 -196.09" />
    <path d="M 255.314 -196.142 L 255.364 -196.142" />
    <path d="M 255.364 -196.142 L 255.364 -196.14" />
    <path d="M 255.344 -196.38 L 255.364 -196.38" />
    <path d="M 255.347 -196.456 L 255.364 -196.456" />
    <path d="M 255.347 -196.38 L 255.364 -196.38" />
    <path d="M 255.347 -196.456 L 255.347 -196.38" />
    <path d="M 257.094 -196.37 L 257.094 -196.15" />
    <path d="M 257.084 -196.376 L 257.084 -196.142" />
    <path d="M 257.096 -196.09 L 257.096 -196.142" />
    <path d="M 257.084 -196.142 L 257.084 -196.09" />
    <path d="M 257.084 -196.142 L 257.134 -196.142" />
    <path d="M 257.134 -196.142 L 257.134 -196.14" />
    <path d="M 257.114 -196.38 L 257.134 -196.38" />
    <path d="M 257.117 -196.456 L 257.134 -196.456" />
    <path d="M 257.117 -196.38 L 257.134 -196.38" />
    <path d="M 257.117 -196.456 L 257.117 -196.38" />
    <path d="M 259.014 -196.37 L 259.014 -196.15" />
    <path d="M 259.004 -196.376 L 259.004 -196.142" />
    <path d="M 259.016 -196.09 L 259.016 -196.142" />
    <path d="M 259.004 -196.142 L 259.004 -196.09" />
    <path d="M 259.004 -196.142 L 259.054 -196.142" />
    <path d="M 259.054 -196.142 L 259.054 -196.14" />
    <path d="M 259.034 -196.38 L 259.054 -196.38" />
    <path d="M 259.037 -196.456 L 259.054 -196.456" />
    <path d="M 259.037 -196.38 L 259.054 -196.38" />
    <path d="M 259.037 -196.456 L 259.037 -196.38" />
    <path d="M 260.854 -196.37 L 260.854 -196.15" />
    <path d="M 260.844 -196.376 L 260.844 -196.142" />
    <path d="M 260.844 -196.142 L 260.894 -196.142" />
    <path d="M 260.894 -196.142 L 260.894 -196.14" />
    <path d="M 260.874 -196.38 L 260.894 -196.38" />
    <path d="M 260.877 -196.456 L 260.894 -196.456" />
    <path d="M 260.877 -196.38 L 260.894 -196.38" />
    <path d="M 260.877 -196.456 L 260.877 -196.38" />
    <path d="M 254.193 -196.38 L 254.173 -196.38" />
    <path d="M 254.192 -196.456 L 254.174 -196.456" />
    <path d="M 254.192 -196.38 L 254.174 -196.38" />
    <path d="M 254.192 -196.456 L 254.192 -196.38" />
    <path d="M 254.214 -196.371 L 254.214 -196.15" />
    <path d="M 254.224 -196.376 L 254.224 -196.142" />
    <path d="M 254.212 -196.09 L 254.212 -196.142" />
    <path d="M 254.224 -196.142 L 254.224 -196.09" />
    <path d="M 254.224 -196.142 L 254.174 -196.142" />
    <path d="M 254.174 -196.142 L 254.174 -196.14" />
    <path d="M 255.963 -196.38 L 255.943 -196.38" />
    <path d="M 255.962 -196.456 L 255.944 -196.456" />
    <path d="M 255.962 -196.38 L 255.944 -196.38" />
    <path d="M 255.962 -196.456 L 255.962 -196.38" />
    <path d="M 255.984 -196.371 L 255.984 -196.15" />
    <path d="M 255.994 -196.376 L 255.994 -196.142" />
    <path d="M 255.982 -196.09 L 255.982 -196.142" />
    <path d="M 255.994 -196.142 L 255.994 -196.09" />
    <path d="M 255.994 -196.142 L 255.944 -196.142" />
    <path d="M 255.944 -196.142 L 255.944 -196.14" />
    <path d="M 257.883 -196.38 L 257.863 -196.38" />
    <path d="M 257.882 -196.456 L 257.864 -196.456" />
    <path d="M 257.882 -196.38 L 257.864 -196.38" />
    <path d="M 257.882 -196.456 L 257.882 -196.38" />
    <path d="M 257.904 -196.371 L 257.904 -196.15" />
    <path d="M 257.914 -196.376 L 257.914 -196.142" />
    <path d="M 257.902 -196.09 L 257.902 -196.142" />
    <path d="M 257.914 -196.142 L 257.914 -196.09" />
    <path d="M 257.914 -196.142 L 257.864 -196.142" />
    <path d="M 257.864 -196.142 L 257.864 -196.14" />
    <path d="M 259.723 -196.38 L 259.703 -196.38" />
    <path d="M 259.722 -196.456 L 259.704 -196.456" />
    <path d="M 259.722 -196.38 L 259.704 -196.38" />
    <path d="M 259.722 -196.456 L 259.722 -196.38" />
    <path d="M 259.744 -196.371 L 259.744 -196.15" />
    <path d="M 259.754 -196.376 L 259.754 -196.142" />
    <path d="M 259.754 -196.142 L 259.704 -196.142" />
    <path d="M 259.704 -196.142 L 259.704 -196.14" />
    <path d="M 251.782 -196.09 L 252.896 -196.09" />
    <path d="M 252.934 -196.14 L 254.174 -196.14" />
    <path d="M 254.214 -196.15 L 252.894 -196.15" />
    <path d="M 254.212 -196.09 L 255.326 -196.09" />
    <path d="M 255.364 -196.14 L 255.944 -196.14" />
    <path d="M 255.324 -196.15 L 255.984 -196.15" />
    <path d="M 255.982 -196.09 L 257.096 -196.09" />
    <path d="M 257.134 -196.14 L 257.864 -196.14" />
    <path d="M 257.094 -196.15 L 257.902 -196.15" />
    <path d="M 257.902 -196.09 L 259.016 -196.09" />
    <path d="M 259.054 -196.14 L 259.704 -196.14" />
    <path d="M 259.014 -196.15 L 259.744 -196.15" />
    <path d="M 259.14 -196.15 L 259.744 -196.15" />
    <path d="M 261.328 -196.15 L 261.328 -195.326" />
    <path d="M 261.328 -195.302 L 261.328 -195.22" />
    <path d="M 261.318 -196.14 L 261.318 -195.325" />
    <path d="M 261.318 -195.302 L 261.318 -195.21" />
    <path d="M 261.639 -195.22 L 261.328 -195.22" />
    <path d="M 261.649 -195.21 L 261.318 -195.21" />
    <path d="M 261.458 -196.38 L 261.458 -195.35" />
    <path d="M 261.639 -195.35 L 261.639 -195.22" />
    <path d="M 261.649 -195.35 L 261.649 -195.21" />
    <path d="M 259.744 -196.351 L 259.744 -196.15" />
    <path d="M 259.754 -196.142 L 259.704 -196.142" />
    <path d="M 261.328 -196.15 L 260.854 -196.15" />
    <path d="M 259.754 -196.142 L 259.754 -196.359" />
    <path d="M 260.844 -196.142 L 260.894 -196.142" />
    <path d="M 261.318 -196.14 L 260.894 -196.14" />
    <path d="M 260.844 -196.356 L 260.844 -196.142" />
    <path d="M 260.894 -196.142 L 260.894 -196.14" />
    <path d="M 259.014 -196.351 L 259.014 -196.15" />
    <path d="M 259.004 -196.142 L 259.054 -196.142" />
    <path d="M 259.054 -196.142 L 259.054 -196.14" />
    <path d="M 259.004 -196.142 L 259.004 -196.359" />
    <path d="M 259.704 -196.14 L 259.144 -196.14" />
    <path d="M 261.458 -195.35 L 261.639 -195.35" />
    <path d="M 256.574 -207.53 L 256.016 -207.53" />
    <path d="M 256.574 -206 L 256.002 -206" />
    <path d="M 252.472 -196.404 L 252.767 -196.404" />
    <path d="M 252.472 -196.408 L 252.767 -196.408" />
    <path d="M 252.472 -196.426 L 252.767 -196.426" />
    <path d="M 252.472 -196.43 L 252.767 -196.43" />
    <path d="M 252.472 -196.448 L 252.767 -196.448" />
    <path d="M 252.472 -196.452 L 252.767 -196.452" />
    <path d="M 254.342 -196.404 L 254.667 -196.404" />
    <path d="M 254.902 -196.404 L 255.197 -196.404" />
    <path d="M 254.342 -196.408 L 254.667 -196.408" />
    <path d="M 254.902 -196.408 L 255.197 -196.408" />
    <path d="M 254.342 -196.426 L 254.667 -196.426" />
    <path d="M 254.902 -196.426 L 255.197 -196.426" />
    <path d="M 254.342 -196.43 L 254.667 -196.43" />
    <path d="M 254.902 -196.43 L 255.197 -196.43" />
    <path d="M 254.342 -196.448 L 254.667 -196.448" />
    <path d="M 254.902 -196.448 L 255.197 -196.448" />
    <path d="M 254.342 -196.452 L 254.667 -196.452" />
    <path d="M 254.902 -196.452 L 255.197 -196.452" />
    <path d="M 256.112 -196.404 L 256.437 -196.404" />
    <path d="M 256.672 -196.404 L 256.967 -196.404" />
    <path d="M 256.112 -196.408 L 256.437 -196.408" />
    <path d="M 256.672 -196.408 L 256.967 -196.408" />
    <path d="M 256.112 -196.426 L 256.437 -196.426" />
    <path d="M 256.672 -196.426 L 256.967 -196.426" />
    <path d="M 256.112 -196.43 L 256.437 -196.43" />
    <path d="M 256.672 -196.43 L 256.967 -196.43" />
    <path d="M 256.112 -196.448 L 256.437 -196.448" />
    <path d="M 256.672 -196.448 L 256.967 -196.448" />
    <path d="M 256.112 -196.452 L 256.437 -196.452" />
    <path d="M 256.672 -196.452 L 256.967 -196.452" />
    <path d="M 258.032 -196.404 L 258.357 -196.404" />
    <path d="M 258.592 -196.404 L 258.887 -196.404" />
    <path d="M 258.032 -196.408 L 258.357 -196.408" />
    <path d="M 258.592 -196.408 L 258.887 -196.408" />
    <path d="M 258.032 -196.426 L 258.357 -196.426" />
    <path d="M 258.592 -196.426 L 258.887 -196.426" />
    <path d="M 258.032 -196.43 L 258.357 -196.43" />
    <path d="M 258.592 -196.43 L 258.887 -196.43" />
    <path d="M 258.032 -196.448 L 258.357 -196.448" />
    <path d="M 258.592 -196.448 L 258.887 -196.448" />
    <path d="M 258.032 -196.452 L 258.357 -196.452" />
    <path d="M 258.592 -196.452 L 258.887 -196.452" />
    <path d="M 259.872 -196.404 L 260.182 -196.404" />
    <path d="M 260.417 -196.404 L 260.727 -196.404" />
    <path d="M 259.872 -196.408 L 260.182 -196.408" />
    <path d="M 260.417 -196.408 L 260.727 -196.408" />
    <path d="M 259.872 -196.426 L 260.182 -196.426" />
    <path d="M 260.417 -196.426 L 260.727 -196.426" />
    <path d="M 259.872 -196.43 L 260.182 -196.43" />
    <path d="M 260.417 -196.43 L 260.727 -196.43" />
    <path d="M 259.872 -196.448 L 260.182 -196.448" />
    <path d="M 260.417 -196.448 L 260.727 -196.448" />
    <path d="M 259.872 -196.452 L 260.182 -196.452" />
    <path d="M 260.417 -196.452 L 260.727 -196.452" />
    <path d="M 256.019 -206.542 L 256.018 -206.79" />
    <path d="M 256.016 -207.53 L 256.013 -208.5" />
    <path d="M 256.01 -209.658 L 256.008 -210.282" />
    <path d="M 255.437 -210.281 L 256.008 -210.282" />
    <path d="M 257.484 -196.93 L 257.484 -202.23" />
    <path d="M 257.459 -196.93 L 257.459 -202.23" />
    <path d="M 257.329 -196.93 L 257.329 -202.23" />
    <path d="M 257.354 -196.93 L 257.354 -202.23" />
    <path d="M 252.409 -200.465 L 253.454 -200.465" />
    <path d="M 252.409 -200.49 L 253.454 -200.49" />
    <path d="M 252.409 -200.59 L 253.454 -200.59" />
    <path d="M 252.409 -200.565 L 253.454 -200.565" />
    <path d="M 252.394 -202.24 L 252.394 -202.64" />
    <path d="M 256.574 -207.53 L 256.574 -207.455" />
    <path d="M 255.964 -207.455 L 256.574 -207.455" />
    <path d="M 255.974 -209.62 L 256.574 -209.62" />
    <path d="M 257.614 -196.93 L 257.614 -196.92" />
    <path d="M 256.574 -209.658 L 256.574 -209.62" />
    <path d="M 255.974 -208.553 L 256.574 -208.553" />
    <path d="M 256.574 -208.553 L 256.574 -208.498" />
    <path d="M 252.349 -202.64 L 252.349 -206.06" />
    <path d="M 252.349 -202.64 L 252.349 -206.1" />
    <path d="M 252.324 -202.64 L 252.324 -206.1" />
    <path d="M 252.324 -203.4 L 251.234 -203.4" />
    <path d="M 252.324 -203.425 L 251.234 -203.425" />
    <path d="M 254.482 -203.08 L 254.482 -203.01" />
    <path d="M 259.119 -208.846 L 258.994 -208.846" />
    <path d="M 259.119 -209.606 L 258.994 -209.606" />
    <path d="M 258.994 -208.035 L 258.994 -208.846" />
    <path d="M 259.019 -208.01 L 259.019 -208.846" />
    <path d="M 258.994 -209.606 L 258.994 -210.32" />
    <path d="M 259.019 -209.606 L 259.019 -210.32" />
    <path d="M 259.119 -207.91 L 259.119 -208.846" />
    <path d="M 259.094 -207.91 L 259.094 -208.846" />
    <path d="M 259.119 -209.606 L 259.119 -210.32" />
    <path d="M 259.094 -209.606 L 259.094 -210.32" />
    <path d="M 257.784 -209.67 L 257.784 -210.59" />
    <path d="M 257.809 -209.695 L 257.809 -210.32" />
    <path d="M 257.934 -209.67 L 257.934 -210.32" />
    <path d="M 257.909 -209.695 L 257.909 -210.32" />
    <path d="M 256.574 -207.885 L 260.004 -207.885" />
    <path d="M 259.119 -208.08 L 260.004 -208.08" />
    <path d="M 260.004 -208.68 L 260.129 -208.68" />
    <path d="M 260.004 -208.655 L 260.129 -208.655" />
    <path d="M 257.784 -208.035 L 258.994 -208.035" />
    <path d="M 256.574 -207.91 L 260.004 -207.91" />
    <path d="M 257.759 -208.01 L 259.019 -208.01" />
    <path d="M 260.004 -207.235 L 260.129 -207.235" />
    <path d="M 260.004 -207.26 L 260.129 -207.26" />
    <path d="M 260.129 -207.235 L 260.129 -208.68" />
    <path d="M 260.104 -207.26 L 260.104 -208.655" />
    <path d="M 260.004 -207.235 L 260.004 -208.68" />
    <path d="M 260.029 -207.26 L 260.029 -208.655" />
    <path d="M 257.784 -208.26 L 257.784 -208.035" />
    <path d="M 257.759 -208.235 L 257.759 -208.01" />
    <path d="M 256.574 -208.26 L 257.234 -208.26" />
    <path d="M 257.684 -208.26 L 257.784 -208.26" />
    <path d="M 257.709 -208.235 L 257.759 -208.235" />
    <path d="M 257.234 -208.035 L 257.684 -208.035" />
    <path d="M 257.209 -208.01 L 257.709 -208.01" />
    <path d="M 257.684 -208.26 L 257.684 -208.035" />
    <path d="M 257.709 -208.235 L 257.709 -208.01" />
    <path d="M 257.234 -208.26 L 257.234 -208.035" />
    <path d="M 257.209 -208.235 L 257.209 -208.01" />
    <path d="M 257.209 -208.235 L 256.574 -208.235" />
    <path d="M 257.784 -209.67 L 257.934 -209.67" />
    <path d="M 257.784 -209.695 L 257.934 -209.695" />
    <path d="M 256.574 -209.67 L 257.784 -209.67" />
    <path d="M 256.574 -209.678 L 257.784 -209.678" />
    <path d="M 254.447 -206.1 L 254.447 -203.01" />
    <path d="M 254.472 -206.1 L 254.472 -203.01" />
    <path d="M 254.602 -206.1 L 254.602 -203.08" />
    <path d="M 254.577 -206.1 L 254.577 -203.08" />
    <path d="M 255.439 -212.52 L 255.44 -213.627" />
    <path d="M 255.198 -213.863 L 255.194 -212.491" />
    <path d="M 255.204 -212.451 L 255.208 -213.853" />
    <path d="M 261.244 -213.11 L 261.244 -210.82" />
    <path d="M 255.984 -213.11 L 255.984 -212.62" />
  </g>
</svg>
