<?xml version="1.0" encoding="UTF-8"?>
<svg xmlns="http://www.w3.org/2000/svg" viewBox="231.06 191.06 35.88 48.88" aria-hidden="true">
  <style>
    path,
    circle {
      fill: none;
      stroke: #007AFF;
      stroke-width: 1.55;
      stroke-linecap: round;
      stroke-linejoin: round;
      vector-effect: non-scaling-stroke;
    }
  </style>
  <g transform="scale(1 -1)">
    <path d="M 240.674 -196.38 L 239.924 -196.38" />
    <path d="M 238.754 -196.38 L 238.094 -196.38" />
    <path d="M 236.924 -196.38 L 236.264 -196.38" />
    <path d="M 236.394 -202.14 L 236.394 -196.91" />
    <path d="M 239.924 -196.91 L 239.924 -196.38" />
    <path d="M 238.754 -196.91 L 238.754 -196.38" />
    <path d="M 238.094 -196.91 L 238.094 -196.38" />
    <path d="M 236.924 -196.91 L 236.924 -196.38" />
    <path d="M 236.514 -205.94 L 236.394 -205.94" />
    <path d="M 236.514 -210.54 L 236.514 -205.94" />
    <path d="M 236.394 -205.94 L 236.394 -202.55" />
    <path d="M 242.874 -202.96 L 242.874 -202.55" />
    <path d="M 237.604 -202.55 L 242.874 -202.55" />
    <path d="M 242.874 -202.96 L 243.254 -202.96" />
    <path d="M 236.694 -202.55 L 236.394 -202.55" />
    <path d="M 236.694 -202.55 L 236.694 -202.14" />
    <path d="M 237.604 -202.55 L 237.604 -202.14" />
    <path d="M 240.154 -202.14 L 237.604 -202.14" />
    <path d="M 240.154 -196.91 L 239.924 -196.91" />
    <path d="M 238.754 -196.91 L 238.094 -196.91" />
    <path d="M 236.924 -196.91 L 236.394 -196.91" />
    <path d="M 236.694 -202.14 L 236.394 -202.14" />
    <path d="M 247.704 -200.88 L 250.064 -200.88" />
    <path d="M 247.704 -206.23 L 247.704 -202.02" />
    <path d="M 247.704 -201.1 L 247.704 -200.88" />
    <path d="M 250.484 -200.49 L 248.794 -200.49" />
    <path d="M 249.064 -200.49 L 249.064 -196.93" />
    <path d="M 248.794 -196.93 L 249.454 -196.93" />
    <path d="M 236.264 -196.51 L 236.264 -196.38" />
    <path d="M 236.264 -196.51 L 236.139 -196.51" />
    <path d="M 247.704 -201.1 L 247.284 -201.1" />
    <path d="M 247.704 -202.02 L 247.284 -202.02" />
    <path d="M 247.284 -201.1 L 247.284 -200.76" />
    <path d="M 244.234 -202.18 L 244.364 -202.18" />
    <path d="M 245.294 -202.18 L 246.372 -202.18" />
    <path d="M 247.152 -202.18 L 247.284 -202.18" />
    <path d="M 247.284 -202.18 L 247.284 -202.02" />
    <path d="M 247.284 -200.76 L 247.284 -200.49" />
    <path d="M 247.284 -200.49 L 248.794 -200.49" />
    <path d="M 248.794 -200.49 L 248.794 -196.93" />
    <path d="M 247.179 -196.93 L 247.179 -196.38" />
    <path d="M 248.369 -196.93 L 248.369 -196.38" />
    <path d="M 244.819 -196.93 L 244.819 -196.38" />
    <path d="M 246.009 -196.93 L 246.009 -196.38" />
    <path d="M 242.504 -196.93 L 242.504 -196.38" />
    <path d="M 243.694 -196.93 L 243.694 -196.38" />
    <path d="M 240.674 -196.93 L 240.674 -196.38" />
    <path d="M 241.864 -196.93 L 241.864 -196.38" />
    <path d="M 248.369 -196.93 L 248.794 -196.93" />
    <path d="M 247.179 -196.93 L 246.009 -196.93" />
    <path d="M 244.819 -196.93 L 244.234 -196.93" />
    <path d="M 241.864 -196.38 L 242.504 -196.38" />
    <path d="M 243.694 -196.38 L 244.819 -196.38" />
    <path d="M 246.009 -196.38 L 247.179 -196.38" />
    <path d="M 241.864 -196.93 L 242.504 -196.93" />
    <path d="M 240.154 -202.22 L 244.024 -202.22" />
    <path d="M 243.694 -196.93 L 244.024 -196.93" />
    <path d="M 240.674 -196.93 L 240.154 -196.93" />
    <path d="M 244.024 -202.02 L 244.024 -202.22" />
    <path d="M 244.024 -202.02 L 244.234 -202.02" />
    <path d="M 244.024 -201.11 L 244.234 -201.11" />
    <path d="M 244.234 -200.76 L 244.234 -201.11" />
    <path d="M 244.234 -202.02 L 244.234 -202.18" />
    <path d="M 244.024 -196.93 L 244.024 -198.38" />
    <path d="M 244.024 -199.31 L 244.024 -201.11" />
    <path d="M 244.024 -198.38 L 244.234 -198.38" />
    <path d="M 244.024 -199.31 L 244.234 -199.31" />
    <path d="M 244.234 -200.76 L 244.234 -199.31" />
    <path d="M 244.234 -198.38 L 244.234 -196.93" />
    <path d="M 244.364 -202.18 L 244.364 -202.59" />
    <path d="M 245.294 -202.18 L 245.294 -202.59" />
    <path d="M 246.372 -202.59 L 245.294 -202.59" />
    <path d="M 244.364 -202.59 L 243.904 -202.59" />
    <path d="M 243.904 -202.59 L 243.904 -203.01" />
    <path d="M 243.904 -203.01 L 243.254 -203.01" />
    <path d="M 246.372 -202.18 L 246.372 -202.59" />
    <path d="M 247.152 -202.18 L 247.152 -202.59" />
    <path d="M 247.152 -202.59 L 247.414 -202.59" />
    <path d="M 247.414 -202.59 L 247.414 -205.99" />
    <path d="M 248.369 -196.38 L 249.454 -196.38" />
    <path d="M 241.184 -208.409 L 241.715 -208.409" />
    <path d="M 241.184 -207.395 L 241.715 -207.395" />
    <path d="M 243.103 -205.99 L 243.103 -206.583" />
    <path d="M 241.184 -208.409 L 241.184 -207.395" />
    <path d="M 241.184 -206.725 L 241.184 -205.99" />
    <path d="M 245.129 -205.99 L 245.129 -206.577" />
    <path d="M 243.959 -205.99 L 243.959 -206.58" />
    <path d="M 243.103 -205.99 L 243.959 -205.99" />
    <path d="M 245.129 -205.99 L 246.09 -205.99" />
    <path d="M 246.74 -205.99 L 247.414 -205.99" />
    <path d="M 246.09 -205.99 L 246.09 -206.574" />
    <path d="M 246.74 -205.99 L 246.74 -206.572" />
    <path d="M 247.704 -206.23 L 247.704 -206.751" />
    <path d="M 238.138 -202.26 L 238.388 -202.26 L 238.388 -202.39 L 238.138 -202.39 L 238.138 -202.26 Z" />
    <path d="M 238.446 -202.26 L 238.696 -202.26 L 238.696 -202.39 L 238.446 -202.39 L 238.446 -202.26 Z" />
    <path d="M 240.069 -202.286 L 240.319 -202.286 L 240.319 -202.416 L 240.069 -202.416 L 240.069 -202.286 Z" />
    <path d="M 240.429 -202.293 L 240.679 -202.293 L 240.679 -202.423 L 240.429 -202.423 L 240.429 -202.293 Z" />
    <path d="M 241.703 -205.99 L 241.703 -206.437" />
    <path d="M 241.813 -206.587 L 241.714 -206.587" />
    <path d="M 241.585 -206.827 L 241.585 -206.725" />
    <path d="M 241.715 -206.827 L 241.714 -206.587" />
    <path d="M 241.585 -206.725 L 241.184 -206.725" />
    <path d="M 241.703 -206.437 L 241.813 -206.437" />
    <path d="M 241.813 -206.437 L 241.814 -206.587" />
    <path d="M 243.103 -206.583 L 243.959 -206.58" />
    <path d="M 246.74 -206.572 L 247.086 -206.57" />
    <path d="M 247.086 -206.57 L 247.087 -206.751" />
    <path d="M 245.129 -206.577 L 246.09 -206.574" />
    <path d="M 241.82 -206.587 L 242.005 -206.587" />
    <path d="M 241.813 -206.437 L 242.005 -206.437" />
    <path d="M 242.005 -206.437 L 242.005 -206.587" />
    <path d="M 245.053 -206.676 L 245.043 -206.676" />
    <path d="M 242.068 -206.866 L 242.067 -206.822" />
    <path d="M 244.027 -206.676 L 244.028 -206.808" />
    <path d="M 244.037 -206.676 L 244.038 -206.816" />
    <path d="M 243.988 -206.816 L 243.988 -206.818" />
    <path d="M 244.038 -206.816 L 243.988 -206.816" />
    <path d="M 244.027 -206.679 L 244.037 -206.679" />
    <path d="M 245.053 -206.673 L 245.054 -206.805" />
    <path d="M 245.043 -206.673 L 245.044 -206.813" />
    <path d="M 245.094 -206.813 L 245.094 -206.815" />
    <path d="M 245.044 -206.813 L 245.094 -206.813" />
    <path d="M 243.077 -206.819 L 243.078 -206.863" />
    <path d="M 242.017 -206.822 L 242.067 -206.822" />
    <path d="M 242.017 -206.822 L 242.017 -206.824" />
    <path d="M 242.043 -206.822 L 242.044 -206.866" />
    <path d="M 242.044 -206.866 L 242.068 -206.866" />
    <path d="M 242.04 -206.761 L 242.057 -206.761" />
    <path d="M 242.04 -206.761 L 242.04 -206.751" />
    <path d="M 242.04 -206.726 L 242.057 -206.726" />
    <path d="M 242.04 -206.726 L 242.04 -206.736" />
    <path d="M 242.059 -206.751 L 242.067 -206.754" />
    <path d="M 242.059 -206.736 L 242.067 -206.732" />
    <path d="M 242.067 -206.682 L 242.067 -206.822" />
    <path d="M 242.057 -206.682 L 242.057 -206.814" />
    <path d="M 242.067 -206.687 L 242.057 -206.687" />
    <path d="M 243.103 -206.819 L 243.053 -206.819" />
    <path d="M 243.103 -206.819 L 243.103 -206.821" />
    <path d="M 243.078 -206.863 L 243.054 -206.863" />
    <path d="M 243.054 -206.863 L 243.053 -206.819" />
    <path d="M 243.08 -206.757 L 243.063 -206.758" />
    <path d="M 243.08 -206.757 L 243.08 -206.747" />
    <path d="M 243.08 -206.722 L 243.063 -206.723" />
    <path d="M 243.08 -206.722 L 243.08 -206.732" />
    <path d="M 243.061 -206.748 L 243.053 -206.751" />
    <path d="M 243.061 -206.733 L 243.053 -206.729" />
    <path d="M 243.053 -206.679 L 243.053 -206.819" />
    <path d="M 243.063 -206.679 L 243.063 -206.811" />
    <path d="M 243.053 -206.684 L 243.063 -206.684" />
    <path d="M 246.12 -206.81 L 246.12 -206.812" />
    <path d="M 246.746 -206.808 L 246.746 -206.81" />
    <path d="M 246.705 -206.668 L 246.706 -206.8" />
    <path d="M 246.696 -206.808 L 246.746 -206.808" />
    <path d="M 241.715 -206.891 L 241.715 -206.827" />
    <path d="M 241.715 -206.826 L 241.585 -206.827" />
    <path d="M 241.585 -206.891 L 241.585 -206.827" />
    <path d="M 241.953 -206.889 L 241.953 -206.825" />
    <path d="M 241.943 -206.929 L 241.943 -206.815" />
    <path d="M 241.811 -207.326 L 241.951 -207.326" />
    <path d="M 241.811 -207.336 L 241.943 -207.336" />
    <path d="M 241.724 -207.541 L 241.944 -207.541" />
    <path d="M 241.951 -207.376 L 241.953 -207.376" />
    <path d="M 241.951 -207.326 L 241.951 -207.376" />
    <path d="M 241.813 -207.336 L 241.811 -207.336" />
    <path d="M 241.814 -207.336 L 241.814 -207.326" />
    <path d="M 241.951 -207.355 L 241.995 -207.355" />
    <path d="M 241.995 -207.355 L 241.995 -207.331" />
    <path d="M 241.995 -207.331 L 241.951 -207.331" />
    <path d="M 241.715 -206.878 L 241.585 -206.878" />
    <path d="M 241.993 -207.331 L 241.993 -206.934" />
    <path d="M 241.81 -206.939 L 241.951 -206.939" />
    <path d="M 241.81 -206.929 L 241.943 -206.929" />
    <path d="M 241.951 -206.889 L 241.953 -206.889" />
    <path d="M 241.951 -206.939 L 241.951 -206.889" />
    <path d="M 241.813 -206.929 L 241.81 -206.929" />
    <path d="M 241.814 -206.929 L 241.814 -206.939" />
    <path d="M 241.951 -206.91 L 241.995 -206.91" />
    <path d="M 241.995 -206.91 L 241.995 -206.934" />
    <path d="M 241.995 -206.934 L 241.951 -206.934" />
    <path d="M 242.017 -206.824 L 241.953 -206.825" />
    <path d="M 242.057 -206.814 L 241.943 -206.815" />
    <path d="M 246.159 -206.67 L 246.16 -206.801" />
    <path d="M 246.169 -206.67 L 246.17 -206.809" />
    <path d="M 246.17 -206.809 L 246.12 -206.81" />
    <path d="M 246.706 -206.8 L 246.844 -206.799" />
    <path d="M 246.695 -206.668 L 246.696 -206.808" />
    <path d="M 246.159 -206.672 L 246.169 -206.672" />
    <path d="M 246.746 -206.81 L 246.834 -206.809" />
    <path d="M 246.705 -206.671 L 246.695 -206.671" />
    <path d="M 246.844 -206.799 L 246.843 -206.98" />
    <path d="M 246.834 -206.809 L 246.833 -206.99" />
    <path d="M 242.175 -206.609 L 242.442 -206.608" />
    <path d="M 242.175 -206.657 L 242.443 -206.656" />
    <path d="M 242.677 -206.607 L 242.944 -206.606" />
    <path d="M 242.678 -206.655 L 242.945 -206.654" />
    <path d="M 241.738 -207.048 L 241.738 -207.217" />
    <path d="M 241.786 -207.048 L 241.786 -207.217" />
    <path d="M 244.185 -206.858 L 244.897 -206.855" />
    <path d="M 244.184 -206.602 L 244.423 -206.602" />
    <path d="M 241.953 -207.376 L 241.954 -208.09" />
    <path d="M 241.943 -207.336 L 241.944 -208.09" />
    <path d="M 243.988 -206.818 L 243.103 -206.821" />
    <path d="M 243.063 -206.811 L 244.028 -206.808" />
    <path d="M 242.068 -206.864 L 243.054 -206.861" />
    <path d="M 244.184 -206.65 L 244.423 -206.65" />
    <path d="M 244.658 -206.601 L 244.896 -206.6" />
    <path d="M 244.658 -206.649 L 244.896 -206.648" />
    <path d="M 246.12 -206.812 L 245.094 -206.815" />
    <path d="M 245.054 -206.805 L 246.16 -206.801" />
    <path d="M 246.317 -206.851 L 246.549 -206.85" />
    <path d="M 246.316 -206.596 L 246.548 -206.595" />
    <path d="M 246.316 -206.644 L 246.548 -206.643" />
    <path d="M 242.005 -206.605 L 242.005 -206.681 L 242.025 -206.681 L 242.025 -206.605" />
    <path d="M 243.115 -206.602 L 243.115 -206.678 L 243.095 -206.678 L 243.095 -206.602" />
    <path d="M 241.734 -206.878 L 241.81 -206.878 L 241.81 -206.897 L 241.734 -206.897" />
    <path d="M 241.734 -207.387 L 241.81 -207.387 L 241.81 -207.368 L 241.734 -207.368" />
    <path d="M 241.715 -207.395 L 241.715 -208.409" />
    <path d="M 241.813 -208.474 L 241.953 -208.474" />
    <path d="M 241.953 -208.424 L 241.955 -208.424" />
    <path d="M 241.953 -208.474 L 241.953 -208.424" />
    <path d="M 241.816 -208.464 L 241.813 -208.464" />
    <path d="M 241.816 -208.464 L 241.816 -208.474" />
    <path d="M 241.741 -209.383 L 241.74 -209.119" />
    <path d="M 241.789 -209.383 L 241.788 -209.119" />
    <path d="M 241.996 -209.383 L 241.995 -208.621" />
    <path d="M 241.74 -208.884 L 241.74 -208.621" />
    <path d="M 241.788 -208.884 L 241.788 -208.621" />
    <path d="M 241.954 -208.09 L 241.955 -208.424" />
    <path d="M 237.948 -196.452 L 237.643 -196.452" />
    <path d="M 237.948 -196.448 L 237.643 -196.448" />
    <path d="M 237.948 -196.43 L 237.643 -196.43" />
    <path d="M 237.948 -196.426 L 237.643 -196.426" />
    <path d="M 237.948 -196.408 L 237.643 -196.408" />
    <path d="M 237.948 -196.404 L 237.643 -196.404" />
    <path d="M 237.407 -196.452 L 237.093 -196.452" />
    <path d="M 237.407 -196.448 L 237.093 -196.448" />
    <path d="M 237.407 -196.43 L 237.093 -196.43" />
    <path d="M 237.407 -196.408 L 237.093 -196.408" />
    <path d="M 237.407 -196.404 L 237.093 -196.404" />
    <path d="M 237.407 -196.426 L 237.093 -196.426" />
    <path d="M 236.966 -196.371 L 236.966 -196.15" />
    <path d="M 236.976 -196.376 L 236.976 -196.142" />
    <path d="M 238.054 -196.37 L 238.054 -196.15" />
    <path d="M 238.044 -196.376 L 238.044 -196.142" />
    <path d="M 238.056 -196.09 L 236.964 -196.09" />
    <path d="M 236.964 -196.09 L 236.964 -196.142" />
    <path d="M 236.976 -196.142 L 236.976 -196.09" />
    <path d="M 236.976 -196.142 L 236.926 -196.142" />
    <path d="M 236.926 -196.142 L 236.926 -196.14" />
    <path d="M 238.056 -196.09 L 238.056 -196.142" />
    <path d="M 238.044 -196.142 L 238.044 -196.09" />
    <path d="M 238.044 -196.142 L 238.094 -196.142" />
    <path d="M 238.094 -196.142 L 238.094 -196.14" />
    <path d="M 236.943 -196.38 L 236.923 -196.38" />
    <path d="M 236.942 -196.456 L 236.924 -196.456" />
    <path d="M 236.942 -196.38 L 236.924 -196.38" />
    <path d="M 236.942 -196.456 L 236.942 -196.38" />
    <path d="M 238.074 -196.38 L 238.094 -196.38" />
    <path d="M 238.077 -196.456 L 238.094 -196.456" />
    <path d="M 238.077 -196.38 L 238.094 -196.38" />
    <path d="M 238.077 -196.456 L 238.077 -196.38" />
    <path d="M 238.773 -196.38 L 238.753 -196.38" />
    <path d="M 238.772 -196.456 L 238.754 -196.456" />
    <path d="M 238.772 -196.38 L 238.754 -196.38" />
    <path d="M 238.772 -196.456 L 238.772 -196.38" />
    <path d="M 238.794 -196.371 L 238.794 -196.15" />
    <path d="M 238.804 -196.376 L 238.804 -196.142" />
    <path d="M 238.054 -196.15 L 238.794 -196.15" />
    <path d="M 238.094 -196.14 L 238.754 -196.14" />
    <path d="M 238.792 -196.09 L 238.792 -196.142" />
    <path d="M 238.804 -196.142 L 238.804 -196.09" />
    <path d="M 238.804 -196.142 L 238.754 -196.142" />
    <path d="M 238.754 -196.142 L 238.754 -196.14" />
    <path d="M 239.884 -196.37 L 239.884 -196.15" />
    <path d="M 239.874 -196.376 L 239.874 -196.142" />
    <path d="M 239.886 -196.09 L 239.886 -196.142" />
    <path d="M 239.874 -196.142 L 239.874 -196.09" />
    <path d="M 239.874 -196.142 L 239.924 -196.142" />
    <path d="M 239.924 -196.142 L 239.924 -196.14" />
    <path d="M 239.904 -196.38 L 239.924 -196.38" />
    <path d="M 239.907 -196.456 L 239.924 -196.456" />
    <path d="M 239.907 -196.38 L 239.924 -196.38" />
    <path d="M 239.907 -196.456 L 239.907 -196.38" />
    <path d="M 241.824 -196.37 L 241.824 -196.15" />
    <path d="M 241.814 -196.376 L 241.814 -196.142" />
    <path d="M 241.826 -196.09 L 241.826 -196.142" />
    <path d="M 241.814 -196.142 L 241.814 -196.09" />
    <path d="M 241.814 -196.142 L 241.864 -196.142" />
    <path d="M 241.864 -196.142 L 241.864 -196.14" />
    <path d="M 241.844 -196.38 L 241.864 -196.38" />
    <path d="M 241.847 -196.456 L 241.864 -196.456" />
    <path d="M 241.847 -196.38 L 241.864 -196.38" />
    <path d="M 241.847 -196.456 L 241.847 -196.38" />
    <path d="M 243.654 -196.37 L 243.654 -196.15" />
    <path d="M 243.644 -196.376 L 243.644 -196.142" />
    <path d="M 243.656 -196.09 L 243.656 -196.142" />
    <path d="M 243.644 -196.142 L 243.644 -196.09" />
    <path d="M 243.644 -196.142 L 243.694 -196.142" />
    <path d="M 243.694 -196.142 L 243.694 -196.14" />
    <path d="M 243.674 -196.38 L 243.694 -196.38" />
    <path d="M 243.677 -196.456 L 243.694 -196.456" />
    <path d="M 243.677 -196.38 L 243.694 -196.38" />
    <path d="M 243.677 -196.456 L 243.677 -196.38" />
    <path d="M 245.969 -196.37 L 245.969 -196.15" />
    <path d="M 245.959 -196.376 L 245.959 -196.142" />
    <path d="M 245.971 -196.09 L 245.971 -196.142" />
    <path d="M 245.959 -196.142 L 245.959 -196.09" />
    <path d="M 245.959 -196.142 L 246.009 -196.142" />
    <path d="M 246.009 -196.142 L 246.009 -196.14" />
    <path d="M 245.989 -196.38 L 246.009 -196.38" />
    <path d="M 245.992 -196.456 L 246.009 -196.456" />
    <path d="M 245.992 -196.38 L 246.009 -196.38" />
    <path d="M 245.992 -196.456 L 245.992 -196.38" />
    <path d="M 248.329 -196.37 L 248.329 -196.15" />
    <path d="M 248.319 -196.376 L 248.319 -196.142" />
    <path d="M 248.331 -196.09 L 248.331 -196.142" />
    <path d="M 248.319 -196.142 L 248.319 -196.09" />
    <path d="M 248.319 -196.142 L 248.369 -196.142" />
    <path d="M 248.369 -196.142 L 248.369 -196.14" />
    <path d="M 248.349 -196.38 L 248.369 -196.38" />
    <path d="M 248.352 -196.456 L 248.369 -196.456" />
    <path d="M 248.352 -196.38 L 248.369 -196.38" />
    <path d="M 248.352 -196.456 L 248.352 -196.38" />
    <path d="M 240.693 -196.38 L 240.673 -196.38" />
    <path d="M 240.692 -196.456 L 240.674 -196.456" />
    <path d="M 240.692 -196.38 L 240.674 -196.38" />
    <path d="M 240.692 -196.456 L 240.692 -196.38" />
    <path d="M 240.714 -196.371 L 240.714 -196.15" />
    <path d="M 240.724 -196.376 L 240.724 -196.142" />
    <path d="M 240.712 -196.09 L 240.712 -196.142" />
    <path d="M 240.724 -196.142 L 240.724 -196.09" />
    <path d="M 240.724 -196.142 L 240.674 -196.142" />
    <path d="M 240.674 -196.142 L 240.674 -196.14" />
    <path d="M 242.523 -196.38 L 242.503 -196.38" />
    <path d="M 242.522 -196.456 L 242.504 -196.456" />
    <path d="M 242.522 -196.38 L 242.504 -196.38" />
    <path d="M 242.522 -196.456 L 242.522 -196.38" />
    <path d="M 242.544 -196.371 L 242.544 -196.15" />
    <path d="M 242.554 -196.376 L 242.554 -196.142" />
    <path d="M 242.542 -196.09 L 242.542 -196.142" />
    <path d="M 242.554 -196.142 L 242.554 -196.09" />
    <path d="M 242.554 -196.142 L 242.504 -196.142" />
    <path d="M 242.504 -196.142 L 242.504 -196.14" />
    <path d="M 244.838 -196.38 L 244.818 -196.38" />
    <path d="M 244.837 -196.456 L 244.819 -196.456" />
    <path d="M 244.837 -196.38 L 244.819 -196.38" />
    <path d="M 244.837 -196.456 L 244.837 -196.38" />
    <path d="M 244.859 -196.371 L 244.859 -196.15" />
    <path d="M 244.869 -196.376 L 244.869 -196.142" />
    <path d="M 244.857 -196.09 L 244.857 -196.142" />
    <path d="M 244.869 -196.142 L 244.869 -196.09" />
    <path d="M 244.869 -196.142 L 244.819 -196.142" />
    <path d="M 244.819 -196.142 L 244.819 -196.14" />
    <path d="M 247.198 -196.38 L 247.178 -196.38" />
    <path d="M 247.197 -196.456 L 247.179 -196.456" />
    <path d="M 247.197 -196.38 L 247.179 -196.38" />
    <path d="M 247.197 -196.456 L 247.197 -196.38" />
    <path d="M 247.219 -196.371 L 247.219 -196.15" />
    <path d="M 247.229 -196.376 L 247.229 -196.142" />
    <path d="M 247.217 -196.09 L 247.217 -196.142" />
    <path d="M 247.229 -196.142 L 247.229 -196.09" />
    <path d="M 247.229 -196.142 L 247.179 -196.142" />
    <path d="M 247.179 -196.142 L 247.179 -196.14" />
    <path d="M 236.926 -196.14 L 236.129 -196.14" />
    <path d="M 236.966 -196.15 L 236.139 -196.15" />
    <path d="M 236.139 -196.51 L 236.139 -196.15" />
    <path d="M 236.129 -196.14 L 236.129 -196.95" />
    <path d="M 238.792 -196.09 L 239.886 -196.09" />
    <path d="M 239.924 -196.14 L 240.674 -196.14" />
    <path d="M 240.714 -196.15 L 239.884 -196.15" />
    <path d="M 240.712 -196.09 L 241.826 -196.09" />
    <path d="M 241.864 -196.14 L 242.504 -196.14" />
    <path d="M 242.544 -196.15 L 241.824 -196.15" />
    <path d="M 242.542 -196.09 L 243.656 -196.09" />
    <path d="M 243.694 -196.14 L 244.819 -196.14" />
    <path d="M 243.654 -196.15 L 244.859 -196.15" />
    <path d="M 244.857 -196.09 L 245.971 -196.09" />
    <path d="M 246.009 -196.14 L 247.179 -196.14" />
    <path d="M 245.969 -196.15 L 247.219 -196.15" />
    <path d="M 247.217 -196.09 L 248.331 -196.09" />
    <path d="M 248.369 -196.14 L 249.454 -196.14" />
    <path d="M 248.329 -196.15 L 249.494 -196.15" />
    <path d="M 238.922 -196.404 L 239.237 -196.404" />
    <path d="M 239.472 -196.404 L 239.757 -196.404" />
    <path d="M 238.922 -196.408 L 239.237 -196.408" />
    <path d="M 239.472 -196.408 L 239.757 -196.408" />
    <path d="M 238.922 -196.426 L 239.237 -196.426" />
    <path d="M 239.472 -196.426 L 239.757 -196.426" />
    <path d="M 238.922 -196.43 L 239.237 -196.43" />
    <path d="M 239.472 -196.43 L 239.757 -196.43" />
    <path d="M 238.922 -196.448 L 239.237 -196.448" />
    <path d="M 239.472 -196.448 L 239.757 -196.448" />
    <path d="M 238.922 -196.452 L 239.237 -196.452" />
    <path d="M 239.472 -196.452 L 239.757 -196.452" />
    <path d="M 240.842 -196.404 L 241.167 -196.404" />
    <path d="M 241.402 -196.404 L 241.697 -196.404" />
    <path d="M 240.842 -196.408 L 241.167 -196.408" />
    <path d="M 241.402 -196.408 L 241.697 -196.408" />
    <path d="M 240.842 -196.426 L 241.167 -196.426" />
    <path d="M 241.402 -196.426 L 241.697 -196.426" />
    <path d="M 240.842 -196.43 L 241.167 -196.43" />
    <path d="M 241.402 -196.43 L 241.697 -196.43" />
    <path d="M 240.842 -196.448 L 241.167 -196.448" />
    <path d="M 241.402 -196.448 L 241.697 -196.448" />
    <path d="M 240.842 -196.452 L 241.167 -196.452" />
    <path d="M 241.402 -196.452 L 241.697 -196.452" />
    <path d="M 242.672 -196.404 L 242.997 -196.404" />
    <path d="M 243.232 -196.404 L 243.527 -196.404" />
    <path d="M 242.672 -196.408 L 242.997 -196.408" />
    <path d="M 243.232 -196.408 L 243.527 -196.408" />
    <path d="M 242.672 -196.426 L 242.997 -196.426" />
    <path d="M 243.232 -196.426 L 243.527 -196.426" />
    <path d="M 242.672 -196.43 L 242.997 -196.43" />
    <path d="M 243.232 -196.43 L 243.527 -196.43" />
    <path d="M 242.672 -196.448 L 242.997 -196.448" />
    <path d="M 243.232 -196.448 L 243.527 -196.448" />
    <path d="M 242.672 -196.452 L 242.997 -196.452" />
    <path d="M 243.232 -196.452 L 243.527 -196.452" />
    <path d="M 244.987 -196.404 L 245.312 -196.404" />
    <path d="M 245.547 -196.404 L 245.842 -196.404" />
    <path d="M 244.987 -196.408 L 245.312 -196.408" />
    <path d="M 245.547 -196.408 L 245.842 -196.408" />
    <path d="M 244.987 -196.426 L 245.312 -196.426" />
    <path d="M 245.547 -196.426 L 245.842 -196.426" />
    <path d="M 244.987 -196.43 L 245.312 -196.43" />
    <path d="M 245.547 -196.43 L 245.842 -196.43" />
    <path d="M 244.987 -196.448 L 245.312 -196.448" />
    <path d="M 245.547 -196.448 L 245.842 -196.448" />
    <path d="M 244.987 -196.452 L 245.312 -196.452" />
    <path d="M 245.547 -196.452 L 245.842 -196.452" />
    <path d="M 247.347 -196.404 L 247.672 -196.404" />
    <path d="M 247.907 -196.404 L 248.202 -196.404" />
    <path d="M 247.347 -196.408 L 247.672 -196.408" />
    <path d="M 247.907 -196.408 L 248.202 -196.408" />
    <path d="M 247.347 -196.426 L 247.672 -196.426" />
    <path d="M 247.907 -196.426 L 248.202 -196.426" />
    <path d="M 247.347 -196.43 L 247.672 -196.43" />
    <path d="M 247.907 -196.43 L 248.202 -196.43" />
    <path d="M 247.347 -196.448 L 247.672 -196.448" />
    <path d="M 247.907 -196.448 L 248.202 -196.448" />
    <path d="M 247.347 -196.452 L 247.672 -196.452" />
    <path d="M 247.907 -196.452 L 248.202 -196.452" />
    <path d="M 249.064 -200.465 L 251.524 -200.465" />
    <path d="M 249.064 -200.49 L 251.524 -200.49" />
    <path d="M 240.124 -196.91 L 240.124 -201.11" />
    <path d="M 240.124 -201.995 L 240.124 -202.11" />
    <path d="M 240.149 -196.91 L 240.149 -201.11" />
    <path d="M 240.149 -201.995 L 240.149 -202.14" />
    <path d="M 240.249 -196.93 L 240.249 -201.11" />
    <path d="M 240.249 -201.995 L 240.249 -202.22" />
    <path d="M 240.224 -196.93 L 240.224 -201.11" />
    <path d="M 240.224 -201.995 L 240.224 -202.22" />
    <path d="M 240.154 -202.14 L 240.154 -202.22" />
    <path d="M 240.154 -196.93 L 240.154 -196.91" />
    <path d="M 243.254 -203.01 L 243.254 -202.96" />
    <path d="M 243.103 -205.99 L 243.103 -202.96" />
    <path d="M 243.128 -205.99 L 243.128 -202.96" />
    <path d="M 243.258 -205.99 L 243.258 -203.01" />
    <path d="M 243.233 -205.99 L 243.233 -202.96" />
    <path d="M 245.317 -200.465 L 245.317 -200.59" />
    <path d="M 246.202 -200.465 L 246.202 -200.59" />
    <path d="M 248.794 -200.465 L 246.202 -200.465" />
    <path d="M 248.794 -200.49 L 246.202 -200.49" />
    <path d="M 245.317 -200.465 L 244.234 -200.465" />
    <path d="M 245.317 -200.49 L 244.234 -200.49" />
    <path d="M 247.284 -200.59 L 246.202 -200.59" />
    <path d="M 247.284 -200.565 L 246.202 -200.565" />
    <path d="M 245.317 -200.59 L 244.234 -200.59" />
    <path d="M 245.317 -200.565 L 244.234 -200.565" />
    <path d="M 241.703 -205.99 L 241.184 -205.99" />
    <path d="M 244.364 -202.18 L 244.364 -202.55" />
    <path d="M 243.994 -196.93 L 243.994 -201.11" />
    <path d="M 243.994 -202.02 L 243.994 -202.22" />
    <path d="M 244.019 -198.38 L 244.019 -201.11" />
    <path d="M 244.019 -202.02 L 244.019 -202.22" />
    <path d="M 244.264 -196.93 L 244.264 -200.46" />
    <path d="M 244.239 -198.38 L 244.239 -199.31" />
    <path d="M 245.419 -202.59 L 245.419 -205.99" />
    <path d="M 245.444 -202.59 L 245.444 -205.99" />
    <path d="M 245.614 -202.59 L 245.614 -203.33" />
    <path d="M 245.544 -203.43 L 245.544 -204.39" />
    <path d="M 246.524 -203.455 L 246.524 -203.33" />
    <path d="M 245.569 -203.455 L 246.524 -203.455" />
    <path d="M 245.544 -203.43 L 246.524 -203.43" />
    <path d="M 245.444 -203.33 L 246.524 -203.33" />
    <path d="M 245.444 -203.355 L 246.524 -203.355" />
    <path d="M 247.284 -203.33 L 247.284 -203.455" />
    <path d="M 247.284 -203.33 L 247.414 -203.33" />
    <path d="M 247.284 -203.355 L 247.414 -203.355" />
    <path d="M 247.284 -203.455 L 247.414 -203.455" />
    <path d="M 247.284 -203.43 L 247.414 -203.43" />
    <path d="M 245.569 -203.455 L 245.569 -204.365" />
    <path d="M 245.794 -204.465 L 246.479 -204.465" />
    <path d="M 245.769 -204.44 L 246.479 -204.44" />
    <path d="M 245.569 -204.365 L 246.479 -204.365" />
    <path d="M 245.544 -204.39 L 246.479 -204.39" />
    <path d="M 245.794 -204.465 L 245.794 -204.665" />
    <path d="M 245.794 -205.115 L 245.794 -205.99" />
    <path d="M 245.769 -204.44 L 245.769 -204.64" />
    <path d="M 245.769 -205.14 L 245.769 -205.99" />
    <path d="M 246.479 -204.365 L 246.479 -203.455" />
    <path d="M 246.471 -204.365 L 246.471 -203.455" />
    <path d="M 246.479 -204.465 L 246.479 -204.365" />
    <path d="M 245.569 -204.67 L 245.569 -205.12" />
    <path d="M 245.544 -204.645 L 245.544 -205.145" />
    <path d="M 245.794 -205.12 L 245.569 -205.12" />
    <path d="M 245.769 -205.145 L 245.544 -205.145" />
    <path d="M 245.794 -204.67 L 245.569 -204.67" />
    <path d="M 245.769 -204.645 L 245.544 -204.645" />
    <path d="M 238.649 -208.806 L 238.774 -208.806" />
    <path d="M 238.774 -208.035 L 238.774 -208.806" />
    <path d="M 238.749 -208.01 L 238.749 -208.806" />
    <path d="M 238.649 -207.91 L 238.649 -208.806" />
    <path d="M 238.674 -207.91 L 238.674 -208.806" />
    <path d="M 241.184 -207.885 L 237.764 -207.885" />
    <path d="M 238.649 -208.08 L 237.764 -208.08" />
    <path d="M 237.764 -208.68 L 237.639 -208.68" />
    <path d="M 237.764 -208.655 L 237.639 -208.655" />
    <path d="M 239.984 -208.035 L 238.774 -208.035" />
    <path d="M 241.184 -207.91 L 237.764 -207.91" />
    <path d="M 240.009 -208.01 L 238.749 -208.01" />
    <path d="M 237.764 -207.235 L 237.639 -207.235" />
    <path d="M 237.764 -207.26 L 237.639 -207.26" />
    <path d="M 237.639 -207.235 L 237.639 -208.68" />
    <path d="M 237.664 -207.26 L 237.664 -208.655" />
    <path d="M 237.764 -207.235 L 237.764 -208.68" />
    <path d="M 237.739 -207.26 L 237.739 -208.655" />
    <path d="M 239.984 -208.26 L 239.984 -208.035" />
    <path d="M 240.009 -208.235 L 240.009 -208.01" />
    <path d="M 241.184 -208.26 L 240.534 -208.26" />
    <path d="M 240.084 -208.26 L 239.984 -208.26" />
    <path d="M 240.059 -208.235 L 240.009 -208.235" />
    <path d="M 240.534 -208.035 L 240.084 -208.035" />
    <path d="M 240.559 -208.01 L 240.059 -208.01" />
    <path d="M 240.084 -208.26 L 240.084 -208.035" />
    <path d="M 240.059 -208.235 L 240.059 -208.01" />
    <path d="M 240.534 -208.26 L 240.534 -208.035" />
    <path d="M 240.559 -208.235 L 240.559 -208.01" />
    <path d="M 240.559 -208.235 L 241.184 -208.235" />
    <path d="M 236.694 -202.14 L 237.604 -202.14" />
    <path d="M 236.394 -202.11 L 240.124 -202.11" />
    <path d="M 236.694 -202.55 L 237.604 -202.55" />
    <path d="M 236.394 -202.58 L 242.874 -202.58" />
    <path d="M 240.249 -201.11 L 240.124 -201.11" />
    <path d="M 240.249 -201.995 L 240.124 -201.995" />
    <path d="M 244.024 -201.11 L 243.994 -201.11" />
    <path d="M 244.024 -202.02 L 243.994 -202.02" />
    <path d="M 236.574 -202.11 L 236.574 -202.14" />
    <path d="M 241.715 -206.891 L 241.585 -206.891" />
    <path d="M 249.064 -206.837 L 249.064 -206.988" />
    <path d="M 249.014 -206.988 L 249.014 -206.99" />
    <path d="M 249.054 -206.837 L 249.054 -206.98" />
    <path d="M 249.015 -206.761 L 249.015 -206.837 L 249.035 -206.837 L 249.035 -206.761" />
    <path d="M 249.185 -206.786 L 249.721 -206.785" />
    <path d="M 249.185 -206.79 L 249.721 -206.789" />
    <path d="M 249.185 -206.808 L 249.721 -206.807" />
    <path d="M 249.185 -206.812 L 249.721 -206.811" />
    <path d="M 249.014 -206.988 L 249.064 -206.988" />
    <path d="M 246.833 -206.99 L 247.285 -206.99" />
    <path d="M 248.755 -206.99 L 249.014 -206.99" />
    <path d="M 246.843 -206.98 L 247.275 -206.98" />
    <path d="M 248.765 -206.98 L 249.054 -206.98" />
    <path d="M 249.052 -207.028 L 249.052 -206.988" />
    <path d="M 249.052 -207.028 L 249.856 -207.028" />
    <path d="M 249.064 -206.988 L 249.064 -207.028" />
    <path d="M 249.054 -206.841 L 249.064 -206.841" />
    <path d="M 248.755 -206.75 L 249.034 -206.75" />
    <path d="M 247.704 -206.91 L 247.704 -206.75" />
    <path d="M 247.694 -206.9 L 247.694 -206.75" />
    <path d="M 247.285 -206.99 L 247.285 -206.91" />
    <path d="M 247.275 -206.98 L 247.275 -206.9" />
    <path d="M 247.285 -206.91 L 247.704 -206.91" />
    <path d="M 247.275 -206.9 L 247.694 -206.9" />
    <path d="M 249.185 -206.764 L 249.721 -206.763" />
    <path d="M 249.185 -206.768 L 249.721 -206.767" />
  </g>
</svg>
