<?xml version="1.0" encoding="UTF-8"?>
<svg xmlns="http://www.w3.org/2000/svg" viewBox="231.06 191.06 35.88 48.88" aria-hidden="true">
  <style>
    path,
    circle {
      fill: none;
      stroke: #007AFF;
      stroke-width: 1.55;
      stroke-linecap: round;
      stroke-linejoin: round;
      vector-effect: non-scaling-stroke;
    }
  </style>
  <g transform="scale(1 -1)">
    <path d="M 241.914 -214.045 L 241.914 -213.825" />
    <path d="M 241.004 -218.34 L 237.804 -218.34" />
    <path d="M 236.664 -218.34 L 236.534 -218.34" />
    <path d="M 236.534 -213.39 L 236.534 -218.34" />
    <path d="M 237.704 -213.39 L 237.704 -213.63" />
    <path d="M 240.344 -213.63 L 237.704 -213.63" />
    <path d="M 236.664 -218.69 L 236.484 -218.69" />
    <path d="M 236.664 -218.69 L 236.664 -218.34" />
    <path d="M 237.564 -218.69 L 237.564 -218.34" />
    <path d="M 243.64 -221.23 L 243.64 -220.7" />
    <path d="M 244.82 -221.23 L 244.82 -220.709" />
    <path d="M 243.174 -221.23 L 243.64 -221.23" />
    <path d="M 242.279 -221.235 L 242.134 -221.235" />
    <path d="M 242.879 -221.445 L 242.879 -220.709" />
    <path d="M 242.279 -221.235 L 242.279 -220.709" />
    <path d="M 241.004 -218.34 L 237.564 -218.34" />
    <path d="M 241.494 -213.39 L 241.494 -213.77" />
    <path d="M 241.494 -214.14 L 241.494 -214.16" />
    <path d="M 241.494 -214.14 L 241.494 -214.624" />
    <path d="M 242.095 -214.624 L 241.494 -214.624" />
    <path d="M 242.112 -215.825 L 241.564 -215.825" />
    <path d="M 241.564 -215.825 L 241.564 -216.27" />
    <path d="M 241.614 -216.27 L 241.614 -216.539" />
    <path d="M 241.614 -216.539 L 242.124 -216.539" />
    <path d="M 241.564 -216.27 L 241.614 -216.27" />
    <path d="M 241.584 -217.607 L 241.584 -217.68" />
    <path d="M 241.004 -217.68 L 241.004 -218.34" />
    <path d="M 241.004 -217.68 L 241.584 -217.68" />
    <path d="M 241.585 -217.607 L 242.141 -217.607" />
    <path d="M 241.914 -214.14 L 241.494 -214.14" />
    <path d="M 241.914 -213.77 L 241.494 -213.77" />
    <path d="M 241.914 -214.065 L 242.086 -214.065" />
    <path d="M 241.914 -213.845 L 242.083 -213.845" />
    <path d="M 241.914 -214.065 L 241.914 -214.14" />
    <path d="M 241.914 -213.845 L 241.914 -213.77" />
    <path d="M 240.894 -218.69 L 237.564 -218.69" />
    <path d="M 242.074 -213.845 L 242.074 -213.77" />
    <path d="M 241.914 -214.065 L 241.914 -213.845" />
    <path d="M 241.564 -220.645 L 241.564 -220.709" />
    <path d="M 242.193 -220.709 L 241.564 -220.709" />
    <path d="M 241.573 -218.762 L 241.576 -218.23" />
    <path d="M 241.576 -218.23 L 242.15 -218.222" />
    <path d="M 242.15 -218.222 L 242.141 -217.607" />
    <path d="M 242.079 -213.625 L 242.346 -213.63" />
    <path d="M 242.124 -216.539 L 242.113 -215.824" />
    <path d="M 242.095 -214.624 L 242.086 -214.065" />
    <path d="M 242.083 -213.845 L 242.079 -213.625" />
    <path d="M 242.346 -213.63 L 242.338 -212.574" />
    <path d="M 241.564 -220.645 L 241.565 -220.417" />
    <path d="M 242.586 -213.872 L 242.324 -213.877" />
    <path d="M 242.576 -213.862 L 242.314 -213.867" />
    <path d="M 242.35 -215.933 L 242.347 -215.756" />
    <path d="M 242.36 -215.932 L 242.358 -215.796" />
    <path d="M 242.356 -215.796 L 242.355 -215.746" />
    <path d="M 242.347 -215.756 L 242.218 -215.758" />
    <path d="M 242.355 -215.746 L 242.218 -215.748" />
    <path d="M 242.358 -215.796 L 242.356 -215.796" />
    <path d="M 242.576 -213.862 L 242.565 -212.499" />
    <path d="M 242.586 -213.872 L 242.575 -212.539" />
    <path d="M 242.325 -214.503 L 242.328 -214.679" />
    <path d="M 242.324 -213.877 L 242.337 -214.639" />
    <path d="M 242.335 -214.639 L 242.336 -214.689" />
    <path d="M 242.328 -214.679 L 242.199 -214.682" />
    <path d="M 242.336 -214.689 L 242.199 -214.692" />
    <path d="M 242.337 -214.639 L 242.335 -214.639" />
    <path d="M 242.119 -214.631 L 242.12 -214.651" />
    <path d="M 242.14 -215.791 L 242.141 -215.811" />
    <path d="M 242.396 -218.476 L 242.379 -217.563" />
    <path d="M 242.406 -218.486 L 242.39 -217.603" />
    <path d="M 242.388 -217.613 L 242.387 -217.563" />
    <path d="M 242.38 -217.573 L 242.251 -217.575" />
    <path d="M 242.387 -217.563 L 242.251 -217.565" />
    <path d="M 242.39 -217.613 L 242.388 -217.613" />
    <path d="M 242.172 -217.598 L 242.173 -217.619" />
    <path d="M 242.359 -216.42 L 242.362 -216.597" />
    <path d="M 242.369 -216.42 L 242.372 -216.557" />
    <path d="M 242.37 -216.557 L 242.37 -216.607" />
    <path d="M 242.362 -216.597 L 242.233 -216.599" />
    <path d="M 242.37 -216.607 L 242.233 -216.609" />
    <path d="M 242.372 -216.557 L 242.37 -216.557" />
    <path d="M 241.873 -220.365 L 241.862 -218.815" />
    <path d="M 241.875 -220.389 L 241.875 -220.365" />
    <path d="M 241.774 -220.393 L 241.774 -220.376" />
    <path d="M 241.774 -220.393 L 241.764 -220.393" />
    <path d="M 241.739 -220.393 L 241.739 -220.376" />
    <path d="M 241.739 -220.393 L 241.749 -220.393" />
    <path d="M 241.764 -220.374 L 241.767 -220.366" />
    <path d="M 241.749 -220.374 L 241.745 -220.366" />
    <path d="M 241.62 -220.397 L 241.693 -220.396" />
    <path d="M 241.825 -220.477 L 241.825 -220.376" />
    <path d="M 241.695 -220.376 L 241.825 -220.376" />
    <path d="M 241.833 -220.415 L 241.835 -220.415" />
    <path d="M 241.695 -220.366 L 241.833 -220.365" />
    <path d="M 241.833 -220.365 L 241.833 -220.415" />
    <path d="M 241.763 -218.789 L 241.763 -218.806" />
    <path d="M 241.763 -218.789 L 241.753 -218.789" />
    <path d="M 241.728 -218.789 L 241.728 -218.806" />
    <path d="M 241.728 -218.789 L 241.738 -218.789" />
    <path d="M 241.753 -218.808 L 241.757 -218.816" />
    <path d="M 241.738 -218.808 L 241.735 -218.816" />
    <path d="M 241.684 -218.806 L 241.814 -218.806" />
    <path d="M 241.684 -218.816 L 241.822 -218.815" />
    <path d="M 241.822 -218.815 L 241.822 -218.765" />
    <path d="M 241.822 -218.765 L 241.824 -218.765" />
    <path d="M 241.812 -218.478 L 241.814 -218.806" />
    <path d="M 241.822 -218.488 L 241.824 -218.765" />
    <path d="M 242.406 -218.486 L 241.822 -218.488" />
    <path d="M 242.396 -218.476 L 241.812 -218.478" />
    <path d="M 241.833 -220.365 L 241.875 -220.365" />
    <path d="M 241.833 -220.389 L 241.875 -220.389" />
    <path d="M 241.864 -218.791 L 241.864 -218.815" />
    <path d="M 241.822 -218.815 L 241.864 -218.815" />
    <path d="M 241.822 -218.791 L 241.864 -218.791" />
    <path d="M 241.7 -220.376 L 241.7 -220.366" />
    <path d="M 241.689 -218.816 L 241.689 -218.806" />
    <path d="M 241.669 -220.246 L 241.666 -219.699" />
    <path d="M 241.835 -220.467 L 241.835 -220.415" />
    <path d="M 242.369 -216.42 L 242.36 -215.932" />
    <path d="M 242.359 -216.42 L 242.35 -215.933" />
    <path d="M 242.22 -217.414 L 242.215 -217.18" />
    <path d="M 242.172 -217.415 L 242.167 -217.181" />
    <path d="M 242.427 -217.41 L 242.415 -216.753" />
    <path d="M 242.211 -216.945 L 242.208 -216.757" />
    <path d="M 242.163 -216.946 L 242.16 -216.758" />
    <path d="M 242.394 -215.598 L 242.381 -214.836" />
    <path d="M 242.187 -215.601 L 242.183 -215.338" />
    <path d="M 242.135 -215.338 L 242.139 -215.602" />
    <path d="M 242.126 -214.84 L 242.13 -215.104" />
    <path d="M 242.174 -214.839 L 242.178 -215.103" />
    <path d="M 241.664 -219.474 L 241.661 -218.937" />
    <path d="M 241.616 -219.474 L 241.613 -218.937" />
    <path d="M 241.621 -220.246 L 241.618 -219.699" />
    <path d="M 242.325 -214.506 L 242.314 -213.867" />
    <path d="M 241.618 -220.416 L 241.694 -220.416 L 241.694 -220.396 L 241.618 -220.396" />
    <path d="M 241.608 -218.767 L 241.684 -218.767 L 241.684 -218.786 L 241.608 -218.786" />
    <path d="M 243.643 -220.709 L 242.879 -220.709" />
    <path d="M 242.279 -220.709 L 241.564 -220.709" />
    <path d="M 244.78 -220.61 L 244.78 -220.478" />
    <path d="M 244.77 -220.61 L 244.77 -220.47" />
    <path d="M 244.82 -220.47 L 244.82 -220.468" />
    <path d="M 244.78 -220.607 L 244.77 -220.607" />
    <path d="M 244.82 -220.47 L 244.77 -220.47" />
    <path d="M 242.852 -220.609 L 242.852 -220.478" />
    <path d="M 242.842 -220.609 L 242.842 -220.47" />
    <path d="M 242.892 -220.47 L 242.892 -220.468" />
    <path d="M 242.852 -220.607 L 242.842 -220.607" />
    <path d="M 242.892 -220.47 L 242.842 -220.47" />
    <path d="M 243.704 -220.61 L 243.704 -220.478" />
    <path d="M 243.714 -220.61 L 243.714 -220.47" />
    <path d="M 243.664 -220.47 L 243.664 -220.468" />
    <path d="M 243.704 -220.607 L 243.714 -220.607" />
    <path d="M 243.664 -220.47 L 243.714 -220.47" />
    <path d="M 242.356 -220.609 L 242.356 -220.478" />
    <path d="M 242.366 -220.609 L 242.366 -220.47" />
    <path d="M 242.316 -220.47 L 242.316 -220.468" />
    <path d="M 242.356 -220.607 L 242.366 -220.607" />
    <path d="M 242.316 -220.47 L 242.366 -220.47" />
    <path d="M 243.664 -220.468 L 242.892 -220.468" />
    <path d="M 242.852 -220.478 L 243.704 -220.478" />
    <path d="M 242.316 -220.468 L 241.835 -220.467" />
    <path d="M 242.316 -220.478 L 241.825 -220.477" />
    <path d="M 242.695 -220.683 L 242.513 -220.683" />
    <path d="M 242.695 -220.635 L 242.513 -220.635" />
    <path d="M 244.623 -220.428 L 243.861 -220.428" />
    <path d="M 244.623 -220.684 L 244.359 -220.684" />
    <path d="M 244.623 -220.636 L 244.359 -220.636" />
    <path d="M 244.124 -220.684 L 243.861 -220.683" />
    <path d="M 243.861 -220.635 L 244.124 -220.636" />
    <path d="M 242.695 -220.428 L 242.513 -220.428" />
    <path d="M 241.608 -220.417 L 241.565 -220.417" />
    <path d="M 240.894 -220.709 L 241.424 -220.709" />
    <path d="M 241.573 -218.762 L 240.894 -218.762" />
    <path d="M 240.894 -218.762 L 240.894 -218.69" />
    <path d="M 241.425 -220.417 L 241.424 -220.645" />
    <path d="M 241.564 -220.645 L 241.424 -220.645" />
    <path d="M 241.424 -220.645 L 241.424 -220.709" />
    <path d="M 241.415 -220.679 L 240.784 -220.679" />
    <path d="M 241.415 -220.704 L 240.809 -220.704" />
    <path d="M 240.344 -213.63 L 240.344 -213.39" />
    <path d="M 241.425 -220.404 L 241.565 -220.404" />
    <path d="M 241.425 -220.417 L 241.425 -220.404" />
    <path d="M 241.565 -220.417 L 241.565 -220.404" />
    <path d="M 241.608 -220.597 L 241.564 -220.597" />
    <path d="M 241.794 -213.11 L 237.614 -213.11" />
    <path d="M 236.694 -213.11 L 236.554 -213.11" />
    <path d="M 237.704 -213.39 L 237.614 -213.39" />
    <path d="M 236.694 -213.39 L 236.534 -213.39" />
    <path d="M 236.694 -213.11 L 236.694 -213.39" />
    <path d="M 237.614 -213.11 L 237.614 -213.39" />
    <path d="M 241.494 -213.39 L 240.344 -213.39" />
    <path d="M 241.794 -213.11 L 241.794 -212.666" />
    <path d="M 237.614 -213.39 L 237.614 -213.11" />
    <path d="M 239.854 -216.466 L 239.854 -217.151" />
    <path d="M 239.829 -216.441 L 239.829 -217.126" />
    <path d="M 239.754 -216.241 L 239.754 -217.151" />
    <path d="M 239.779 -216.216 L 239.779 -217.126" />
    <path d="M 238.844 -216.241 L 238.844 -217.151" />
    <path d="M 238.819 -216.216 L 238.819 -217.126" />
    <path d="M 238.744 -216.241 L 238.744 -217.151" />
    <path d="M 238.769 -216.216 L 238.769 -217.126" />
    <path d="M 238.844 -216.241 L 239.754 -216.241" />
    <path d="M 238.819 -216.216 L 239.779 -216.216" />
    <path d="M 237.949 -218.34 L 237.949 -218.131" />
    <path d="M 237.924 -218.34 L 237.924 -218.131" />
    <path d="M 237.824 -218.34 L 237.824 -218.131" />
    <path d="M 237.849 -218.34 L 237.849 -218.131" />
    <path d="M 237.824 -216.241 L 237.824 -215.951" />
    <path d="M 237.849 -217.371 L 237.849 -217.076" />
    <path d="M 237.849 -216.216 L 237.849 -215.951" />
    <path d="M 237.824 -215.066 L 237.824 -213.63" />
    <path d="M 238.044 -217.151 L 238.044 -216.241" />
    <path d="M 238.019 -217.126 L 238.019 -216.241" />
    <path d="M 237.824 -217.371 L 237.824 -217.051" />
    <path d="M 237.849 -215.066 L 237.849 -213.63" />
    <path d="M 237.824 -218.131 L 237.949 -218.131" />
    <path d="M 237.824 -217.371 L 237.949 -217.371" />
    <path d="M 239.854 -216.466 L 240.059 -216.466" />
    <path d="M 239.829 -216.441 L 240.034 -216.441" />
    <path d="M 237.949 -213.63 L 237.949 -215.066" />
    <path d="M 237.924 -213.63 L 237.924 -215.066" />
    <path d="M 237.949 -215.951 L 237.949 -216.091" />
    <path d="M 237.924 -215.951 L 237.924 -216.116" />
    <path d="M 237.949 -217.151 L 237.949 -217.371" />
    <path d="M 237.924 -217.126 L 237.924 -217.371" />
    <path d="M 240.059 -216.241 L 240.509 -216.241" />
    <path d="M 240.034 -216.216 L 240.534 -216.216" />
    <path d="M 237.949 -216.091 L 241.469 -216.091" />
    <path d="M 237.824 -216.241 L 238.744 -216.241" />
    <path d="M 237.849 -216.216 L 238.769 -216.216" />
    <path d="M 239.854 -217.151 L 239.754 -217.151" />
    <path d="M 239.854 -217.126 L 239.754 -217.126" />
    <path d="M 238.744 -217.151 L 238.844 -217.151" />
    <path d="M 238.744 -217.126 L 238.844 -217.126" />
    <path d="M 237.824 -215.951 L 237.949 -215.951" />
    <path d="M 237.824 -215.066 L 237.949 -215.066" />
    <path d="M 241.564 -216.091 L 237.949 -216.091" />
    <path d="M 241.564 -216.116 L 237.924 -216.116" />
    <path d="M 240.509 -216.466 L 240.509 -216.241" />
    <path d="M 240.534 -216.441 L 240.534 -216.216" />
    <path d="M 240.059 -216.466 L 240.059 -216.241" />
    <path d="M 240.034 -216.441 L 240.034 -216.216" />
    <path d="M 238.044 -217.151 L 237.994 -217.151" />
    <path d="M 237.994 -217.151 L 237.949 -217.151" />
    <path d="M 238.019 -217.126 L 237.924 -217.126" />
    <path d="M 238.019 -217.076 L 237.849 -217.076" />
    <path d="M 238.019 -217.051 L 237.824 -217.051" />
    <path d="M 240.534 -216.441 L 241.614 -216.441" />
    <path d="M 240.509 -216.466 L 241.614 -216.466" />
    <path d="M 241.494 -214.14 L 241.494 -213.77" />
    <path d="M 242.083 -213.845 L 242.086 -214.065" />
  </g>
</svg>
