<?xml version="1.0" encoding="UTF-8"?>
<svg xmlns="http://www.w3.org/2000/svg" viewBox="169.06 255.06 36.88 48.88" aria-hidden="true">
  <style>
    path,
    circle {
      fill: none;
      stroke: #007AFF;
      stroke-width: 1.55;
      stroke-linecap: round;
      stroke-linejoin: round;
      vector-effect: non-scaling-stroke;
    }
  </style>
  <g transform="scale(1 -1)">
    <path d="M 179.586 -270.474 L 179.69 -270.474" />
    <path d="M 180.985 -270.474 L 181.863 -270.474" />
    <path d="M 182.953 -270.474 L 183.977 -270.474" />
    <path d="M 184.625 -270.474 L 184.956 -270.474" />
    <path d="M 184.956 -270.664 L 186.149 -270.664" />
    <path d="M 180.187 -275.293 L 180.187 -274.213" />
    <path d="M 179.767 -275.203 L 179.767 -274.734" />
    <path d="M 179.586 -274.213 L 179.586 -273.51" />
    <path d="M 179.586 -272.34 L 179.586 -271.277" />
    <path d="M 179.586 -270.751 L 179.586 -270.474" />
    <path d="M 185.606 -264.744 L 187.966 -264.744" />
    <path d="M 185.606 -270.244 L 185.606 -265.874" />
    <path d="M 185.606 -264.964 L 185.606 -264.744" />
    <path d="M 179.586 -274.213 L 180.187 -274.213" />
    <path d="M 184.956 -270.664 L 184.956 -270.474" />
    <path d="M 179.796 -274.734 L 175.516 -274.734" />
    <path d="M 174.596 -274.734 L 174.416 -274.734" />
    <path d="M 186.276 -260.634 L 187.316 -260.634" />
    <path d="M 187.316 -260.294 L 186.276 -260.294" />
    <path d="M 185.076 -260.294 L 183.916 -260.294" />
    <path d="M 182.716 -260.294 L 181.576 -260.294" />
    <path d="M 180.426 -260.294 L 179.771 -260.294" />
    <path d="M 178.571 -260.294 L 177.836 -260.294" />
    <path d="M 176.636 -260.294 L 175.996 -260.294" />
    <path d="M 174.796 -260.294 L 174.166 -260.294" />
    <path d="M 185.606 -270.244 L 186.049 -270.244" />
    <path d="M 186.049 -270.244 L 186.049 -270.524" />
    <path d="M 186.049 -270.524 L 186.149 -270.524" />
    <path d="M 186.149 -270.524 L 186.149 -270.664" />
    <path d="M 174.041 -260.424 L 174.166 -260.424" />
    <path d="M 174.166 -260.424 L 174.166 -260.294" />
    <path d="M 185.606 -264.964 L 185.186 -264.964" />
    <path d="M 185.606 -265.874 L 185.186 -265.874" />
    <path d="M 185.186 -264.964 L 185.186 -264.324" />
    <path d="M 185.186 -265.874 L 185.186 -266.064" />
    <path d="M 174.596 -274.454 L 174.596 -274.734" />
    <path d="M 175.516 -274.454 L 175.516 -274.734" />
    <path d="M 175.516 -274.454 L 175.696 -274.454" />
    <path d="M 174.286 -269.904 L 174.286 -266.484" />
    <path d="M 174.416 -274.454 L 174.416 -269.904" />
    <path d="M 174.596 -274.454 L 174.416 -274.454" />
    <path d="M 174.416 -269.904 L 174.286 -269.904" />
    <path d="M 179.196 -274.454 L 179.196 -273.51" />
    <path d="M 179.196 -272.34 L 179.196 -271.308" />
    <path d="M 177.906 -274.454 L 177.906 -274.184" />
    <path d="M 175.696 -274.184 L 177.906 -274.184" />
    <path d="M 177.906 -274.454 L 179.196 -274.454" />
    <path d="M 179.196 -273.51 L 179.586 -273.51" />
    <path d="M 179.196 -272.34 L 179.586 -272.34" />
    <path d="M 179.586 -270.751 L 179.456 -270.751" />
    <path d="M 179.196 -271.308 L 179.586 -271.308" />
    <path d="M 179.056 -270.658 L 179.456 -270.658" />
    <path d="M 179.456 -270.751 L 179.456 -270.658" />
    <path d="M 179.056 -270.658 L 179.056 -269.904" />
    <path d="M 181.196 -269.904 L 180.985 -269.904" />
    <path d="M 179.726 -266.484 L 175.516 -266.484" />
    <path d="M 181.126 -266.894 L 181.126 -266.064" />
    <path d="M 179.69 -270.474 L 179.69 -270.324" />
    <path d="M 180.985 -269.904 L 180.985 -270.474" />
    <path d="M 179.69 -270.324 L 179.586 -270.324" />
    <path d="M 174.286 -266.484 L 174.586 -266.484" />
    <path d="M 175.516 -266.484 L 175.516 -266.064" />
    <path d="M 174.586 -266.484 L 174.586 -266.064" />
    <path d="M 174.286 -266.064 L 174.586 -266.064" />
    <path d="M 174.286 -260.694 L 174.796 -260.694" />
    <path d="M 175.996 -260.694 L 176.636 -260.694" />
    <path d="M 175.516 -266.064 L 179.726 -266.064" />
    <path d="M 174.286 -266.064 L 174.286 -260.694" />
    <path d="M 175.996 -260.694 L 175.996 -260.294" />
    <path d="M 174.796 -260.694 L 174.796 -260.294" />
    <path d="M 177.836 -260.694 L 177.836 -260.294" />
    <path d="M 176.636 -260.694 L 176.636 -260.294" />
    <path d="M 177.836 -260.694 L 178.571 -260.694" />
    <path d="M 179.771 -260.694 L 180.426 -260.694" />
    <path d="M 181.576 -260.694 L 181.916 -260.694" />
    <path d="M 179.771 -260.694 L 179.771 -260.294" />
    <path d="M 178.571 -260.694 L 178.571 -260.294" />
    <path d="M 181.576 -260.694 L 181.576 -260.294" />
    <path d="M 180.426 -260.694 L 180.426 -260.294" />
    <path d="M 181.916 -266.064 L 181.916 -265.894" />
    <path d="M 181.916 -264.984 L 181.916 -263.224" />
    <path d="M 181.916 -262.224 L 181.916 -260.694" />
    <path d="M 181.916 -264.984 L 182.176 -264.984" />
    <path d="M 181.916 -265.894 L 182.176 -265.894" />
    <path d="M 182.176 -266.064 L 182.176 -265.894" />
    <path d="M 182.176 -264.984 L 182.176 -263.224" />
    <path d="M 182.176 -262.224 L 182.176 -260.634" />
    <path d="M 182.176 -266.064 L 182.326 -266.064" />
    <path d="M 182.326 -266.064 L 182.326 -266.484" />
    <path d="M 183.236 -266.064 L 183.236 -266.484" />
    <path d="M 181.846 -266.484 L 182.326 -266.484" />
    <path d="M 183.236 -266.484 L 183.776 -266.484" />
    <path d="M 181.846 -266.484 L 181.846 -266.894" />
    <path d="M 181.846 -266.894 L 181.126 -266.894" />
    <path d="M 185.326 -270.054 L 184.625 -270.054" />
    <path d="M 183.945 -270.054 L 182.953 -270.054" />
    <path d="M 181.863 -270.054 L 181.196 -270.054" />
    <path d="M 181.863 -270.474 L 181.863 -270.054" />
    <path d="M 182.953 -270.054 L 182.953 -270.474" />
    <path d="M 183.945 -270.474 L 183.945 -270.054" />
    <path d="M 184.625 -270.474 L 184.625 -270.054" />
    <path d="M 185.186 -264.324 L 188.386 -264.324" />
    <path d="M 185.076 -260.634 L 183.916 -260.634" />
    <path d="M 182.716 -260.634 L 182.176 -260.634" />
    <path d="M 183.916 -260.634 L 183.916 -260.294" />
    <path d="M 182.716 -260.634 L 182.716 -260.294" />
    <path d="M 186.276 -260.634 L 186.276 -260.294" />
    <path d="M 185.076 -260.634 L 185.076 -260.294" />
    <path d="M 183.236 -266.064 L 183.776 -266.064" />
    <path d="M 185.026 -266.064 L 185.186 -266.064" />
    <path d="M 185.026 -266.064 L 185.026 -266.224" />
    <path d="M 185.026 -266.224 L 185.051 -266.224" />
    <path d="M 185.051 -266.484 L 185.326 -266.484" />
    <path d="M 185.051 -266.224 L 185.051 -266.484" />
    <path d="M 185.326 -270.054 L 185.326 -266.484" />
    <path d="M 176.04 -266.174 L 176.29 -266.174 L 176.29 -266.304 L 176.04 -266.304 L 176.04 -266.174 Z" />
    <path d="M 176.348 -266.174 L 176.598 -266.174 L 176.598 -266.304 L 176.348 -266.304 L 176.348 -266.174 Z" />
    <path d="M 177.971 -266.2 L 178.221 -266.2 L 178.221 -266.33 L 177.971 -266.33 L 177.971 -266.2 Z" />
    <path d="M 178.331 -266.207 L 178.581 -266.207 L 178.581 -266.337 L 178.331 -266.337 L 178.331 -266.207 Z" />
    <path d="M 179.586 -269.904 L 179.586 -270.324" />
    <path d="M 179.616 -269.889 L 179.616 -270.314" />
    <path d="M 179.586 -270.792 L 179.586 -270.751" />
    <path d="M 179.456 -270.792 L 179.456 -270.751" />
    <path d="M 174.815 -260.294 L 174.795 -260.294" />
    <path d="M 174.814 -260.37 L 174.796 -260.37" />
    <path d="M 174.814 -260.294 L 174.796 -260.294" />
    <path d="M 174.814 -260.37 L 174.814 -260.294" />
    <path d="M 174.836 -260.285 L 174.836 -260.064" />
    <path d="M 174.846 -260.29 L 174.846 -260.056" />
    <path d="M 175.958 -260.004 L 174.834 -260.004" />
    <path d="M 174.834 -260.004 L 174.834 -260.056" />
    <path d="M 174.846 -260.056 L 174.846 -260.004" />
    <path d="M 174.846 -260.056 L 174.796 -260.056" />
    <path d="M 174.041 -260.424 L 174.041 -260.294" />
    <path d="M 174.166 -260.294 L 174.041 -260.294" />
    <path d="M 174.041 -260.064 L 174.836 -260.064" />
    <path d="M 174.031 -260.054 L 174.796 -260.054" />
    <path d="M 174.041 -260.294 L 174.041 -260.064" />
    <path d="M 174.031 -260.054 L 174.031 -260.864" />
    <path d="M 174.796 -260.056 L 174.796 -260.054" />
    <path d="M 175.996 -260.054 L 176.636 -260.054" />
    <path d="M 175.976 -260.294 L 175.996 -260.294" />
    <path d="M 175.979 -260.37 L 175.996 -260.37" />
    <path d="M 175.979 -260.294 L 175.996 -260.294" />
    <path d="M 175.979 -260.37 L 175.979 -260.294" />
    <path d="M 175.956 -260.284 L 175.956 -260.064" />
    <path d="M 175.946 -260.29 L 175.946 -260.056" />
    <path d="M 175.958 -260.004 L 175.958 -260.056" />
    <path d="M 175.946 -260.056 L 175.946 -260.004" />
    <path d="M 175.946 -260.056 L 175.996 -260.056" />
    <path d="M 175.996 -260.056 L 175.996 -260.054" />
    <path d="M 177.796 -260.064 L 178.556 -260.064" />
    <path d="M 177.836 -260.054 L 178.571 -260.054" />
    <path d="M 177.816 -260.294 L 177.836 -260.294" />
    <path d="M 177.819 -260.37 L 177.836 -260.37" />
    <path d="M 177.819 -260.294 L 177.836 -260.294" />
    <path d="M 177.819 -260.37 L 177.819 -260.294" />
    <path d="M 177.796 -260.284 L 177.796 -260.064" />
    <path d="M 177.786 -260.29 L 177.786 -260.056" />
    <path d="M 177.798 -260.004 L 177.798 -260.056" />
    <path d="M 177.786 -260.056 L 177.786 -260.004" />
    <path d="M 177.786 -260.056 L 177.836 -260.056" />
    <path d="M 177.836 -260.056 L 177.836 -260.054" />
    <path d="M 179.771 -260.054 L 180.426 -260.054" />
    <path d="M 179.751 -260.294 L 179.771 -260.294" />
    <path d="M 179.754 -260.37 L 179.771 -260.37" />
    <path d="M 179.754 -260.294 L 179.771 -260.294" />
    <path d="M 179.754 -260.37 L 179.754 -260.294" />
    <path d="M 179.731 -260.284 L 179.731 -260.064" />
    <path d="M 179.721 -260.29 L 179.721 -260.056" />
    <path d="M 179.733 -260.004 L 179.733 -260.056" />
    <path d="M 179.721 -260.056 L 179.721 -260.004" />
    <path d="M 179.721 -260.056 L 179.771 -260.056" />
    <path d="M 179.771 -260.056 L 179.771 -260.054" />
    <path d="M 181.536 -260.064 L 182.756 -260.064" />
    <path d="M 181.576 -260.054 L 182.716 -260.054" />
    <path d="M 181.556 -260.294 L 181.576 -260.294" />
    <path d="M 181.559 -260.37 L 181.576 -260.37" />
    <path d="M 181.559 -260.294 L 181.576 -260.294" />
    <path d="M 181.559 -260.37 L 181.559 -260.294" />
    <path d="M 181.536 -260.284 L 181.536 -260.064" />
    <path d="M 181.526 -260.29 L 181.526 -260.056" />
    <path d="M 181.538 -260.004 L 181.538 -260.056" />
    <path d="M 181.526 -260.056 L 181.526 -260.004" />
    <path d="M 181.526 -260.056 L 181.576 -260.056" />
    <path d="M 181.576 -260.056 L 181.576 -260.054" />
    <path d="M 183.876 -260.064 L 185.116 -260.064" />
    <path d="M 183.916 -260.054 L 185.076 -260.054" />
    <path d="M 183.896 -260.294 L 183.916 -260.294" />
    <path d="M 183.899 -260.37 L 183.916 -260.37" />
    <path d="M 183.899 -260.294 L 183.916 -260.294" />
    <path d="M 183.899 -260.37 L 183.899 -260.294" />
    <path d="M 183.876 -260.284 L 183.876 -260.064" />
    <path d="M 183.866 -260.29 L 183.866 -260.056" />
    <path d="M 183.878 -260.004 L 183.878 -260.056" />
    <path d="M 183.866 -260.056 L 183.866 -260.004" />
    <path d="M 183.866 -260.056 L 183.916 -260.056" />
    <path d="M 183.916 -260.056 L 183.916 -260.054" />
    <path d="M 186.236 -260.064 L 187.356 -260.064" />
    <path d="M 186.276 -260.054 L 187.316 -260.054" />
    <path d="M 186.256 -260.294 L 186.276 -260.294" />
    <path d="M 186.259 -260.37 L 186.276 -260.37" />
    <path d="M 186.259 -260.294 L 186.276 -260.294" />
    <path d="M 186.259 -260.37 L 186.259 -260.294" />
    <path d="M 186.236 -260.284 L 186.236 -260.064" />
    <path d="M 186.226 -260.29 L 186.226 -260.056" />
    <path d="M 186.238 -260.004 L 186.238 -260.056" />
    <path d="M 186.226 -260.056 L 186.226 -260.004" />
    <path d="M 186.226 -260.056 L 186.276 -260.056" />
    <path d="M 186.276 -260.056 L 186.276 -260.054" />
    <path d="M 176.655 -260.294 L 176.635 -260.294" />
    <path d="M 176.654 -260.37 L 176.636 -260.37" />
    <path d="M 176.654 -260.294 L 176.636 -260.294" />
    <path d="M 176.654 -260.37 L 176.654 -260.294" />
    <path d="M 176.676 -260.285 L 176.676 -260.064" />
    <path d="M 176.686 -260.29 L 176.686 -260.056" />
    <path d="M 176.674 -260.004 L 176.674 -260.056" />
    <path d="M 176.686 -260.056 L 176.686 -260.004" />
    <path d="M 176.686 -260.056 L 176.636 -260.056" />
    <path d="M 175.956 -260.064 L 176.676 -260.064" />
    <path d="M 176.636 -260.056 L 176.636 -260.054" />
    <path d="M 178.59 -260.294 L 178.57 -260.294" />
    <path d="M 178.589 -260.37 L 178.571 -260.37" />
    <path d="M 178.589 -260.294 L 178.571 -260.294" />
    <path d="M 178.589 -260.37 L 178.589 -260.294" />
    <path d="M 178.611 -260.285 L 178.611 -260.064" />
    <path d="M 178.621 -260.29 L 178.621 -260.056" />
    <path d="M 178.609 -260.004 L 178.609 -260.056" />
    <path d="M 178.621 -260.056 L 178.621 -260.004" />
    <path d="M 178.621 -260.056 L 178.571 -260.056" />
    <path d="M 177.816 -260.064 L 178.611 -260.064" />
    <path d="M 178.571 -260.056 L 178.571 -260.054" />
    <path d="M 180.445 -260.294 L 180.425 -260.294" />
    <path d="M 180.444 -260.37 L 180.426 -260.37" />
    <path d="M 180.444 -260.294 L 180.426 -260.294" />
    <path d="M 180.444 -260.37 L 180.444 -260.294" />
    <path d="M 180.466 -260.285 L 180.466 -260.064" />
    <path d="M 180.476 -260.29 L 180.476 -260.056" />
    <path d="M 180.464 -260.004 L 180.464 -260.056" />
    <path d="M 180.476 -260.056 L 180.476 -260.004" />
    <path d="M 180.476 -260.056 L 180.426 -260.056" />
    <path d="M 179.731 -260.064 L 180.466 -260.064" />
    <path d="M 180.426 -260.056 L 180.426 -260.054" />
    <path d="M 176.674 -260.004 L 177.798 -260.004" />
    <path d="M 178.609 -260.004 L 179.733 -260.004" />
    <path d="M 180.464 -260.004 L 181.538 -260.004" />
    <path d="M 182.735 -260.294 L 182.715 -260.294" />
    <path d="M 182.734 -260.37 L 182.716 -260.37" />
    <path d="M 182.734 -260.294 L 182.716 -260.294" />
    <path d="M 182.734 -260.37 L 182.734 -260.294" />
    <path d="M 182.756 -260.285 L 182.756 -260.064" />
    <path d="M 182.766 -260.29 L 182.766 -260.056" />
    <path d="M 182.754 -260.004 L 182.754 -260.056" />
    <path d="M 182.766 -260.056 L 182.766 -260.004" />
    <path d="M 182.766 -260.056 L 182.716 -260.056" />
    <path d="M 182.716 -260.056 L 182.716 -260.054" />
    <path d="M 182.754 -260.004 L 183.878 -260.004" />
    <path d="M 185.095 -260.294 L 185.075 -260.294" />
    <path d="M 185.094 -260.37 L 185.076 -260.37" />
    <path d="M 185.094 -260.294 L 185.076 -260.294" />
    <path d="M 185.094 -260.37 L 185.094 -260.294" />
    <path d="M 185.116 -260.285 L 185.116 -260.064" />
    <path d="M 185.126 -260.29 L 185.126 -260.056" />
    <path d="M 185.114 -260.004 L 185.114 -260.056" />
    <path d="M 185.126 -260.056 L 185.126 -260.004" />
    <path d="M 185.126 -260.056 L 185.076 -260.056" />
    <path d="M 185.076 -260.056 L 185.076 -260.054" />
    <path d="M 185.114 -260.004 L 186.238 -260.004" />
    <path d="M 174.964 -260.318 L 175.279 -260.318" />
    <path d="M 175.514 -260.318 L 175.829 -260.318" />
    <path d="M 174.964 -260.322 L 175.279 -260.322" />
    <path d="M 175.514 -260.322 L 175.829 -260.322" />
    <path d="M 174.964 -260.344 L 175.279 -260.344" />
    <path d="M 175.514 -260.344 L 175.829 -260.344" />
    <path d="M 174.964 -260.362 L 175.279 -260.362" />
    <path d="M 175.514 -260.362 L 175.829 -260.362" />
    <path d="M 174.964 -260.366 L 175.279 -260.366" />
    <path d="M 175.514 -260.366 L 175.829 -260.366" />
    <path d="M 174.964 -260.34 L 175.279 -260.34" />
    <path d="M 175.514 -260.34 L 175.829 -260.34" />
    <path d="M 176.804 -260.318 L 177.119 -260.318" />
    <path d="M 177.354 -260.318 L 177.669 -260.318" />
    <path d="M 176.804 -260.322 L 177.119 -260.322" />
    <path d="M 177.354 -260.322 L 177.669 -260.322" />
    <path d="M 176.804 -260.344 L 177.119 -260.344" />
    <path d="M 177.354 -260.344 L 177.669 -260.344" />
    <path d="M 176.804 -260.362 L 177.119 -260.362" />
    <path d="M 177.354 -260.362 L 177.669 -260.362" />
    <path d="M 176.804 -260.366 L 177.119 -260.366" />
    <path d="M 177.354 -260.366 L 177.669 -260.366" />
    <path d="M 176.804 -260.34 L 177.119 -260.34" />
    <path d="M 177.354 -260.34 L 177.669 -260.34" />
    <path d="M 178.739 -260.318 L 179.054 -260.318" />
    <path d="M 179.289 -260.318 L 179.604 -260.318" />
    <path d="M 178.739 -260.322 L 179.054 -260.322" />
    <path d="M 179.289 -260.322 L 179.604 -260.322" />
    <path d="M 178.739 -260.344 L 179.054 -260.344" />
    <path d="M 179.289 -260.344 L 179.604 -260.344" />
    <path d="M 178.739 -260.362 L 179.054 -260.362" />
    <path d="M 179.289 -260.362 L 179.604 -260.362" />
    <path d="M 178.739 -260.366 L 179.054 -260.366" />
    <path d="M 179.289 -260.366 L 179.604 -260.366" />
    <path d="M 178.739 -260.34 L 179.054 -260.34" />
    <path d="M 179.289 -260.34 L 179.604 -260.34" />
    <path d="M 180.569 -260.318 L 180.884 -260.318" />
    <path d="M 181.119 -260.318 L 181.434 -260.318" />
    <path d="M 180.569 -260.322 L 180.884 -260.322" />
    <path d="M 181.119 -260.322 L 181.434 -260.322" />
    <path d="M 180.569 -260.344 L 180.884 -260.344" />
    <path d="M 181.119 -260.344 L 181.434 -260.344" />
    <path d="M 180.569 -260.362 L 180.884 -260.362" />
    <path d="M 181.119 -260.362 L 181.434 -260.362" />
    <path d="M 180.569 -260.366 L 180.884 -260.366" />
    <path d="M 181.119 -260.366 L 181.434 -260.366" />
    <path d="M 180.569 -260.34 L 180.884 -260.34" />
    <path d="M 181.119 -260.34 L 181.434 -260.34" />
    <path d="M 182.884 -260.318 L 183.199 -260.318" />
    <path d="M 183.434 -260.318 L 183.749 -260.318" />
    <path d="M 182.884 -260.322 L 183.199 -260.322" />
    <path d="M 183.434 -260.322 L 183.749 -260.322" />
    <path d="M 182.884 -260.344 L 183.199 -260.344" />
    <path d="M 183.434 -260.344 L 183.749 -260.344" />
    <path d="M 182.884 -260.362 L 183.199 -260.362" />
    <path d="M 183.434 -260.362 L 183.749 -260.362" />
    <path d="M 182.884 -260.366 L 183.199 -260.366" />
    <path d="M 183.434 -260.366 L 183.749 -260.366" />
    <path d="M 182.884 -260.34 L 183.199 -260.34" />
    <path d="M 183.434 -260.34 L 183.749 -260.34" />
    <path d="M 185.244 -260.318 L 185.559 -260.318" />
    <path d="M 185.794 -260.318 L 186.109 -260.318" />
    <path d="M 185.244 -260.322 L 185.559 -260.322" />
    <path d="M 185.794 -260.322 L 186.109 -260.322" />
    <path d="M 185.244 -260.344 L 185.559 -260.344" />
    <path d="M 185.794 -260.344 L 186.109 -260.344" />
    <path d="M 185.244 -260.362 L 185.559 -260.362" />
    <path d="M 185.794 -260.362 L 186.109 -260.362" />
    <path d="M 185.244 -260.366 L 185.559 -260.366" />
    <path d="M 185.794 -260.366 L 186.109 -260.366" />
    <path d="M 185.244 -260.34 L 185.559 -260.34" />
    <path d="M 185.794 -260.34 L 186.109 -260.34" />
    <path d="M 182.922 -270.59 L 182.912 -270.59" />
    <path d="M 179.936 -270.78 L 179.936 -270.736" />
    <path d="M 181.896 -270.59 L 181.896 -270.722" />
    <path d="M 181.906 -270.59 L 181.906 -270.73" />
    <path d="M 181.856 -270.73 L 181.856 -270.732" />
    <path d="M 181.906 -270.73 L 181.856 -270.73" />
    <path d="M 181.896 -270.593 L 181.906 -270.593" />
    <path d="M 182.922 -270.587 L 182.922 -270.719" />
    <path d="M 182.912 -270.587 L 182.912 -270.727" />
    <path d="M 182.962 -270.727 L 182.962 -270.729" />
    <path d="M 182.912 -270.727 L 182.962 -270.727" />
    <path d="M 180.946 -270.733 L 180.946 -270.777" />
    <path d="M 179.886 -270.737 L 179.936 -270.736" />
    <path d="M 179.912 -270.736 L 179.912 -270.78" />
    <path d="M 179.912 -270.78 L 179.936 -270.78" />
    <path d="M 179.909 -270.675 L 179.925 -270.675" />
    <path d="M 179.909 -270.675 L 179.909 -270.665" />
    <path d="M 179.909 -270.64 L 179.925 -270.64" />
    <path d="M 179.909 -270.64 L 179.909 -270.65" />
    <path d="M 179.927 -270.665 L 179.935 -270.669" />
    <path d="M 179.927 -270.65 L 179.935 -270.646" />
    <path d="M 179.935 -270.596 L 179.936 -270.736" />
    <path d="M 179.925 -270.596 L 179.926 -270.728" />
    <path d="M 179.935 -270.601 L 179.925 -270.601" />
    <path d="M 180.972 -270.733 L 180.922 -270.733" />
    <path d="M 180.972 -270.733 L 180.972 -270.735" />
    <path d="M 180.946 -270.777 L 180.922 -270.777" />
    <path d="M 180.922 -270.777 L 180.922 -270.733" />
    <path d="M 180.948 -270.672 L 180.932 -270.672" />
    <path d="M 180.948 -270.672 L 180.948 -270.662" />
    <path d="M 180.948 -270.637 L 180.931 -270.637" />
    <path d="M 180.948 -270.637 L 180.948 -270.647" />
    <path d="M 180.93 -270.662 L 180.922 -270.665" />
    <path d="M 180.93 -270.647 L 180.921 -270.643" />
    <path d="M 180.921 -270.593 L 180.922 -270.733" />
    <path d="M 180.931 -270.593 L 180.932 -270.725" />
    <path d="M 180.921 -270.598 L 180.931 -270.598" />
    <path d="M 183.988 -270.724 L 183.988 -270.726" />
    <path d="M 184.614 -270.722 L 184.614 -270.724" />
    <path d="M 184.574 -270.582 L 184.574 -270.714" />
    <path d="M 184.564 -270.722 L 184.614 -270.722" />
    <path d="M 179.926 -270.728 L 179.811 -270.729" />
    <path d="M 184.028 -270.584 L 184.028 -270.715" />
    <path d="M 184.038 -270.584 L 184.038 -270.723" />
    <path d="M 184.038 -270.723 L 183.988 -270.724" />
    <path d="M 184.574 -270.714 L 184.712 -270.713" />
    <path d="M 184.564 -270.582 L 184.564 -270.722" />
    <path d="M 184.028 -270.586 L 184.038 -270.586" />
    <path d="M 184.614 -270.724 L 184.702 -270.723" />
    <path d="M 184.574 -270.585 L 184.564 -270.585" />
    <path d="M 184.712 -270.713 L 184.712 -270.894" />
    <path d="M 184.702 -270.723 L 184.702 -270.904" />
    <path d="M 180.044 -270.571 L 180.311 -270.57" />
    <path d="M 180.546 -270.569 L 180.813 -270.568" />
    <path d="M 182.053 -270.772 L 182.765 -270.769" />
    <path d="M 181.856 -270.732 L 180.972 -270.735" />
    <path d="M 180.932 -270.725 L 181.896 -270.722" />
    <path d="M 179.936 -270.778 L 180.922 -270.775" />
    <path d="M 182.053 -270.564 L 182.291 -270.564" />
    <path d="M 182.526 -270.563 L 182.764 -270.562" />
    <path d="M 183.988 -270.726 L 182.962 -270.729" />
    <path d="M 182.922 -270.719 L 184.028 -270.715" />
    <path d="M 184.185 -270.765 L 184.417 -270.764" />
    <path d="M 184.185 -270.558 L 184.416 -270.557" />
    <path d="M 179.874 -270.519 L 179.874 -270.595 L 179.893 -270.595 L 179.893 -270.519" />
    <path d="M 180.983 -270.516 L 180.983 -270.592 L 180.963 -270.592 L 180.963 -270.516" />
    <path d="M 179.821 -270.803 L 179.821 -270.739" />
    <path d="M 179.811 -270.843 L 179.811 -270.729" />
    <path d="M 179.679 -271.24 L 179.82 -271.24" />
    <path d="M 179.679 -271.25 L 179.812 -271.25" />
    <path d="M 179.592 -271.456 L 179.812 -271.455" />
    <path d="M 179.82 -271.29 L 179.822 -271.29" />
    <path d="M 179.82 -271.24 L 179.82 -271.29" />
    <path d="M 179.682 -271.25 L 179.679 -271.25" />
    <path d="M 179.683 -271.25 L 179.683 -271.24" />
    <path d="M 179.82 -271.269 L 179.864 -271.269" />
    <path d="M 179.864 -271.269 L 179.864 -271.245" />
    <path d="M 179.864 -271.245 L 179.82 -271.245" />
    <path d="M 179.586 -270.792 L 179.456 -270.792" />
    <path d="M 179.862 -271.245 L 179.861 -270.848" />
    <path d="M 179.678 -270.853 L 179.819 -270.853" />
    <path d="M 179.678 -270.843 L 179.811 -270.843" />
    <path d="M 179.819 -270.853 L 179.819 -270.803" />
    <path d="M 179.681 -270.843 L 179.678 -270.843" />
    <path d="M 179.682 -270.843 L 179.682 -270.853" />
    <path d="M 179.863 -270.824 L 179.863 -270.848" />
    <path d="M 179.863 -270.848 L 179.819 -270.848" />
    <path d="M 179.606 -270.962 L 179.606 -271.131" />
    <path d="M 179.654 -270.962 L 179.654 -271.131" />
    <path d="M 179.822 -271.29 L 179.823 -272.004" />
    <path d="M 179.812 -271.25 L 179.813 -272.004" />
    <path d="M 179.603 -270.792 L 179.679 -270.792 L 179.679 -270.812 L 179.603 -270.812" />
    <path d="M 179.603 -271.301 L 179.678 -271.301 L 179.678 -271.282 L 179.603 -271.282" />
    <path d="M 179.681 -272.388 L 179.821 -272.388" />
    <path d="M 179.821 -272.338 L 179.823 -272.338" />
    <path d="M 179.821 -272.388 L 179.821 -272.338" />
    <path d="M 179.684 -272.378 L 179.681 -272.378" />
    <path d="M 179.684 -272.378 L 179.684 -272.388" />
    <path d="M 179.683 -273.444 L 179.822 -273.444" />
    <path d="M 179.822 -273.494 L 179.824 -273.494" />
    <path d="M 179.824 -273.494 L 179.825 -273.953" />
    <path d="M 179.822 -273.444 L 179.822 -273.494" />
    <path d="M 179.685 -273.454 L 179.683 -273.454" />
    <path d="M 179.685 -273.454 L 179.685 -273.444" />
    <path d="M 180.423 -273.955 L 179.825 -273.953" />
    <path d="M 180.413 -273.965 L 179.815 -273.963" />
    <path d="M 180.413 -273.965 L 180.425 -275.357" />
    <path d="M 180.423 -273.955 L 180.434 -275.317" />
    <path d="M 179.609 -273.297 L 179.609 -273.033" />
    <path d="M 179.657 -273.297 L 179.657 -273.033" />
    <path d="M 179.864 -273.297 L 179.863 -272.535" />
    <path d="M 179.608 -272.798 L 179.608 -272.535" />
    <path d="M 179.656 -272.798 L 179.656 -272.535" />
    <path d="M 179.823 -272.004 L 179.823 -272.338" />
    <path d="M 179.819 -270.803 L 179.821 -270.803" />
    <path d="M 179.863 -270.824 L 179.819 -270.824" />
    <path d="M 179.821 -270.739 L 179.886 -270.739" />
    <path d="M 179.886 -270.739 L 179.886 -270.737" />
    <path d="M 179.873 -270.324 L 179.873 -270.474" />
    <path d="M 179.69 -270.324 L 179.893 -270.324" />
    <path d="M 179.69 -270.474 L 179.893 -270.474" />
    <path d="M 180.043 -270.523 L 180.311 -270.522" />
    <path d="M 180.546 -270.521 L 180.813 -270.52" />
    <path d="M 179.056 -269.904 L 179.586 -269.904" />
    <path d="M 176.09 -274.269 L 176.34 -274.269 L 176.34 -274.399 L 176.09 -274.399 L 176.09 -274.269 Z" />
    <path d="M 175.72 -274.269 L 175.97 -274.269 L 175.97 -274.399 L 175.72 -274.399 L 175.72 -274.269 Z" />
    <path d="M 176.46 -274.269 L 176.71 -274.269 L 176.71 -274.399 L 176.46 -274.399 L 176.46 -274.269 Z" />
    <path d="M 176.83 -274.269 L 177.08 -274.269 L 177.08 -274.399 L 176.83 -274.399 L 176.83 -274.269 Z" />
    <path d="M 177.2 -274.269 L 177.45 -274.269 L 177.45 -274.399 L 177.2 -274.399 L 177.2 -274.269 Z" />
    <path d="M 177.57 -274.269 L 177.82 -274.269 L 177.82 -274.399 L 177.57 -274.399 L 177.57 -274.269 Z" />
    <path d="M 175.696 -274.454 L 175.696 -274.184" />
    <path d="M 183.261 -264.294 L 183.261 -264.419" />
    <path d="M 184.146 -264.294 L 184.146 -264.419" />
    <path d="M 186.748 -264.294 L 184.146 -264.294" />
    <path d="M 186.748 -264.319 L 184.146 -264.319" />
    <path d="M 183.261 -264.294 L 182.176 -264.294" />
    <path d="M 183.261 -264.319 L 182.176 -264.319" />
    <path d="M 185.186 -264.419 L 184.146 -264.419" />
    <path d="M 185.186 -264.394 L 184.146 -264.394" />
    <path d="M 183.261 -264.419 L 182.176 -264.419" />
    <path d="M 183.261 -264.394 L 182.176 -264.394" />
    <path d="M 184.636 -268.529 L 184.636 -268.404" />
    <path d="M 183.876 -268.529 L 183.876 -268.404" />
    <path d="M 183.776 -266.484 L 183.776 -267.544" />
    <path d="M 183.751 -266.484 L 183.751 -267.544" />
    <path d="M 183.776 -268.304 L 183.776 -268.404" />
    <path d="M 183.751 -268.304 L 183.751 -268.429" />
    <path d="M 183.776 -268.529 L 183.776 -270.054" />
    <path d="M 183.751 -268.504 L 183.751 -270.054" />
    <path d="M 183.651 -266.484 L 183.651 -267.544" />
    <path d="M 183.676 -266.484 L 183.676 -267.544" />
    <path d="M 183.651 -268.304 L 183.651 -270.054" />
    <path d="M 183.676 -268.304 L 183.676 -270.054" />
    <path d="M 183.651 -267.544 L 183.776 -267.544" />
    <path d="M 183.651 -268.304 L 183.776 -268.304" />
    <path d="M 183.776 -268.404 L 183.876 -268.404" />
    <path d="M 183.751 -268.429 L 183.876 -268.429" />
    <path d="M 184.636 -268.404 L 185.326 -268.404" />
    <path d="M 184.636 -268.429 L 185.326 -268.429" />
    <path d="M 183.776 -268.529 L 183.876 -268.529" />
    <path d="M 183.751 -268.504 L 183.876 -268.504" />
    <path d="M 184.636 -268.529 L 185.326 -268.529" />
    <path d="M 184.636 -268.504 L 185.326 -268.504" />
    <path d="M 185.051 -266.484 L 184.676 -266.484" />
    <path d="M 184.676 -266.484 L 184.676 -266.064" />
    <path d="M 184.676 -266.064 L 185.026 -266.064" />
    <path d="M 183.776 -266.484 L 183.776 -266.064" />
    <path d="M 186.903 -264.324 L 186.903 -260.634" />
    <path d="M 186.828 -264.324 L 186.828 -260.634" />
    <path d="M 186.823 -264.324 L 186.823 -260.634" />
    <path d="M 186.748 -264.324 L 186.748 -260.634" />
    <path d="M 186.903 -264.294 L 189.426 -264.294" />
    <path d="M 186.903 -264.319 L 189.426 -264.319" />
    <path d="M 179.726 -266.064 L 179.726 -266.484" />
    <path d="M 181.126 -266.064 L 181.916 -266.064" />
    <path d="M 178.076 -260.694 L 178.076 -266.064" />
    <path d="M 178.101 -260.694 L 178.101 -266.064" />
    <path d="M 178.201 -260.694 L 178.201 -266.064" />
    <path d="M 178.176 -260.694 L 178.176 -266.064" />
    <path d="M 182.326 -266.484 L 183.236 -266.484" />
    <path d="M 182.326 -266.459 L 183.236 -266.459" />
    <path d="M 182.326 -266.359 L 183.236 -266.359" />
    <path d="M 179.893 -270.324 L 179.893 -270.474" />
    <path d="M 180.956 -270.517 L 180.956 -269.889" />
    <path d="M 182.052 -270.516 L 182.291 -270.516" />
    <path d="M 182.526 -270.515 L 182.764 -270.514" />
    <path d="M 184.185 -270.51 L 184.416 -270.509" />
    <path d="M 175.516 -274.734 L 175.516 -274.454" />
    <path d="M 181.916 -262.224 L 182.176 -262.224" />
    <path d="M 181.916 -263.224 L 182.176 -263.224" />
    <path d="M 181.916 -262.224 L 181.916 -263.224" />
    <path d="M 182.176 -262.224 L 182.176 -263.224" />
    <path d="M 181.491 -266.894 L 181.491 -270.054" />
    <path d="M 181.466 -266.894 L 181.466 -270.054" />
    <path d="M 181.341 -266.894 L 181.341 -270.054" />
    <path d="M 181.366 -266.894 L 181.366 -270.054" />
    <path d="M 182.816 -267.394 L 182.816 -267.494" />
    <path d="M 182.791 -267.394 L 182.791 -267.494" />
    <path d="M 181.906 -267.394 L 182.816 -267.394" />
    <path d="M 181.881 -267.419 L 182.791 -267.419" />
    <path d="M 181.781 -267.494 L 182.816 -267.494" />
    <path d="M 181.806 -267.469 L 182.791 -267.469" />
    <path d="M 181.906 -266.484 L 181.906 -267.394" />
    <path d="M 181.806 -267.044 L 181.806 -267.469" />
    <path d="M 181.781 -267.044 L 181.781 -267.494" />
    <path d="M 181.881 -266.484 L 181.881 -267.019" />
    <path d="M 181.881 -267.044 L 181.881 -267.419" />
    <path d="M 183.396 -269.429 L 183.651 -269.429" />
    <path d="M 183.351 -269.334 L 183.351 -270.054" />
    <path d="M 183.376 -269.359 L 183.376 -270.054" />
    <path d="M 183.426 -270.054 L 183.426 -269.429" />
    <path d="M 183.351 -269.334 L 183.651 -269.334" />
    <path d="M 183.376 -269.359 L 183.651 -269.359" />
    <path d="M 181.491 -270.029 L 181.893 -270.029" />
    <path d="M 182.953 -270.029 L 183.351 -270.029" />
    <path d="M 181.893 -270.515 L 181.893 -270.029" />
    <path d="M 179.566 -269.904 L 179.056 -269.904" />
    <path d="M 179.616 -269.889 L 175.601 -269.889" />
    <path d="M 179.056 -270.014 L 176.611 -270.014" />
    <path d="M 179.056 -269.914 L 175.626 -269.914" />
    <path d="M 179.056 -269.989 L 176.586 -269.989" />
    <path d="M 176.511 -269.989 L 175.626 -269.989" />
    <path d="M 176.486 -270.014 L 175.601 -270.014" />
    <path d="M 175.601 -269.889 L 175.601 -270.014" />
    <path d="M 175.626 -269.889 L 175.626 -270.014" />
    <path d="M 179.196 -272.174 L 176.486 -272.174" />
    <path d="M 176.611 -270.164 L 176.486 -270.164" />
    <path d="M 177.621 -271.114 L 177.521 -271.114" />
    <path d="M 177.621 -271.139 L 177.521 -271.139" />
    <path d="M 177.521 -272.024 L 176.611 -272.024" />
    <path d="M 179.196 -272.149 L 176.511 -272.149" />
    <path d="M 177.621 -271.799 L 177.621 -271.114" />
    <path d="M 177.546 -272.049 L 176.586 -272.049" />
    <path d="M 177.596 -271.824 L 177.596 -271.139" />
    <path d="M 177.521 -272.024 L 177.521 -271.114" />
    <path d="M 176.486 -271.474 L 176.486 -270.924" />
    <path d="M 177.546 -272.049 L 177.546 -271.139" />
    <path d="M 176.611 -272.024 L 176.611 -270.924" />
    <path d="M 176.586 -272.049 L 176.586 -270.924" />
    <path d="M 176.486 -272.174 L 176.486 -271.474" />
    <path d="M 176.511 -272.149 L 176.511 -271.474" />
    <path d="M 176.511 -271.474 L 176.511 -270.924" />
    <path d="M 176.486 -271.474 L 175.451 -271.474" />
    <path d="M 176.611 -270.924 L 176.486 -270.924" />
    <path d="M 176.486 -271.499 L 175.451 -271.499" />
    <path d="M 175.676 -271.304 L 175.601 -271.304" />
    <path d="M 174.566 -271.474 L 174.416 -271.474" />
    <path d="M 175.676 -271.329 L 175.601 -271.329" />
    <path d="M 174.566 -271.499 L 174.416 -271.499" />
    <path d="M 175.626 -271.399 L 175.451 -271.399" />
    <path d="M 175.601 -271.374 L 175.451 -271.374" />
    <path d="M 174.566 -271.374 L 174.416 -271.374" />
    <path d="M 174.566 -271.399 L 174.416 -271.399" />
    <path d="M 174.566 -271.374 L 174.566 -271.499" />
    <path d="M 178.286 -271.799 L 179.196 -271.799" />
    <path d="M 177.621 -271.799 L 177.836 -271.799" />
    <path d="M 176.586 -270.164 L 176.586 -269.989" />
    <path d="M 177.596 -271.824 L 177.811 -271.824" />
    <path d="M 178.311 -271.824 L 179.196 -271.824" />
    <path d="M 176.611 -270.164 L 176.611 -270.014" />
    <path d="M 176.486 -270.164 L 176.486 -270.014" />
    <path d="M 176.511 -270.164 L 176.511 -269.989" />
    <path d="M 174.566 -271.374 L 174.566 -271.499" />
    <path d="M 175.451 -271.374 L 175.451 -271.499" />
    <path d="M 175.601 -271.304 L 175.601 -271.374" />
    <path d="M 175.626 -271.329 L 175.626 -271.399" />
    <path d="M 175.676 -271.304 L 175.676 -271.474" />
    <path d="M 175.676 -271.304 L 176.486 -271.304" />
    <path d="M 178.286 -272.024 L 177.836 -272.024" />
    <path d="M 178.311 -272.049 L 177.811 -272.049" />
    <path d="M 177.836 -271.799 L 177.836 -272.024" />
    <path d="M 177.811 -271.824 L 177.811 -272.049" />
    <path d="M 178.286 -271.799 L 178.286 -272.024" />
    <path d="M 178.311 -271.824 L 178.311 -272.049" />
    <path d="M 181.196 -269.904 L 181.196 -270.054" />
    <path d="M 180.956 -269.889 L 181.341 -269.889" />
    <path d="M 181.196 -269.914 L 181.341 -269.914" />
    <path d="M 181.491 -267.044 L 181.906 -267.044" />
    <path d="M 181.491 -267.019 L 181.881 -267.019" />
    <path d="M 182.953 -270.054 L 182.953 -270.029" />
    <path d="M 185.606 -270.244 L 185.606 -270.664" />
    <path d="M 186.936 -270.244 L 186.936 -270.664" />
    <path d="M 186.986 -270.751 L 186.986 -270.902" />
    <path d="M 186.936 -270.902 L 186.936 -270.904" />
    <path d="M 186.976 -270.751 L 186.976 -270.894" />
    <path d="M 186.937 -270.664 L 186.937 -270.74 L 186.957 -270.74 L 186.957 -270.664" />
    <path d="M 186.936 -270.902 L 186.986 -270.902" />
    <path d="M 184.702 -270.904 L 186.936 -270.904" />
    <path d="M 184.712 -270.894 L 186.976 -270.894" />
    <path d="M 186.974 -270.942 L 186.974 -270.902" />
    <path d="M 186.974 -270.942 L 187.778 -270.942" />
    <path d="M 186.986 -270.902 L 186.986 -270.942" />
    <path d="M 186.976 -270.744 L 186.986 -270.744" />
    <path d="M 186.049 -270.244 L 186.936 -270.244" />
    <path d="M 186.149 -270.664 L 186.936 -270.664" />
    <path d="M 187.107 -270.667 L 187.645 -270.667" />
    <path d="M 187.107 -270.715 L 187.645 -270.715" />
    <path d="M 174.416 -277.024 L 174.416 -274.734" />
  </g>
</svg>
