<?xml version="1.0" encoding="UTF-8"?>
<svg xmlns="http://www.w3.org/2000/svg" viewBox="169.06 255.06 36.88 48.88" aria-hidden="true">
  <style>
    path,
    circle {
      fill: none;
      stroke: #007AFF;
      stroke-width: 1.55;
      stroke-linecap: round;
      stroke-linejoin: round;
      vector-effect: non-scaling-stroke;
    }
  </style>
  <g transform="scale(1 -1)">
    <path d="M 179.767 -276.563 L 180.047 -276.563" />
    <path d="M 180.047 -276.563 L 180.047 -276.471" />
    <path d="M 180.047 -276.471 L 180.187 -276.471" />
    <path d="M 180.442 -276.453 L 180.441 -276.403" />
    <path d="M 180.433 -276.413 L 180.304 -276.414" />
    <path d="M 180.441 -276.403 L 180.304 -276.404" />
    <path d="M 180.444 -276.453 L 180.442 -276.453" />
    <path d="M 180.227 -276.258 L 180.222 -275.7" />
    <path d="M 180.27 -275.7 L 180.275 -276.258" />
    <path d="M 180.447 -299.018 L 181.213 -299.018" />
    <path d="M 182.269 -299.018 L 183.241 -299.018" />
    <path d="M 179.391 -299.018 L 178.444 -299.018" />
    <path d="M 183.231 -299.098 L 186.65 -299.098" />
    <path d="M 179.181 -299.098 L 179.181 -299.018" />
    <path d="M 179.538 -299.098 L 180.3 -299.098" />
    <path d="M 180.657 -299.098 L 180.657 -299.018" />
    <path d="M 181.003 -299.098 L 181.003 -299.018" />
    <path d="M 182.479 -299.098 L 182.479 -299.018" />
    <path d="M 181.36 -299.098 L 182.122 -299.098" />
    <path d="M 183.231 -299.098 L 183.231 -299.018" />
    <path d="M 185.476 -290.824 L 185.916 -290.824" />
    <path d="M 185.476 -285.043 L 185.995 -285.043" />
    <path d="M 180.187 -277.55 L 180.187 -276.471" />
    <path d="M 179.767 -277.024 L 179.767 -276.563" />
    <path d="M 179.466 -284.623 L 180.196 -284.623" />
    <path d="M 180.796 -284.623 L 181.553 -284.623" />
    <path d="M 182.747 -284.623 L 183.453 -284.623" />
    <path d="M 184.653 -284.623 L 186.105 -284.623" />
    <path d="M 174.416 -277.024 L 174.416 -275.7" />
    <path d="M 175.696 -277.304 L 175.516 -277.304" />
    <path d="M 178.986 -282.234 L 175.396 -282.234" />
    <path d="M 179.556 -281.664 L 178.986 -281.664" />
    <path d="M 174.596 -277.304 L 174.436 -277.304" />
    <path d="M 185.476 -290.824 L 185.476 -290.624" />
    <path d="M 185.476 -289.594 L 185.476 -285.043" />
    <path d="M 185.476 -290.624 L 185.056 -290.624" />
    <path d="M 185.476 -289.594 L 185.056 -289.594" />
    <path d="M 185.056 -290.934 L 185.056 -290.624" />
    <path d="M 174.326 -296.914 L 174.326 -289.674" />
    <path d="M 185.056 -289.594 L 185.056 -289.324" />
    <path d="M 183.453 -285.043 L 182.747 -285.043" />
    <path d="M 181.553 -285.043 L 180.796 -285.043" />
    <path d="M 185.056 -289.324 L 184.916 -289.324" />
    <path d="M 181.553 -285.043 L 181.553 -284.623" />
    <path d="M 182.747 -285.043 L 182.747 -284.623" />
    <path d="M 185.056 -287.304 L 184.916 -287.304" />
    <path d="M 184.916 -289.324 L 184.916 -287.304" />
    <path d="M 185.056 -287.304 L 185.056 -285.043" />
    <path d="M 184.653 -285.043 L 185.056 -285.043" />
    <path d="M 183.453 -285.043 L 183.453 -284.623" />
    <path d="M 184.653 -285.043 L 184.653 -284.623" />
    <path d="M 180.796 -285.043 L 180.796 -284.623" />
    <path d="M 180.196 -285.014 L 180.196 -284.623" />
    <path d="M 180.006 -285.014 L 180.006 -285.704" />
    <path d="M 180.196 -285.014 L 180.006 -285.014" />
    <path d="M 180.006 -285.704 L 178.951 -285.704" />
    <path d="M 185.056 -290.934 L 184.696 -290.934" />
    <path d="M 183.816 -290.934 L 183.816 -291.334" />
    <path d="M 185.446 -292.504 L 185.446 -291.334" />
    <path d="M 184.696 -290.934 L 184.696 -291.334" />
    <path d="M 185.446 -291.334 L 184.696 -291.334" />
    <path d="M 186.606 -292.504 L 185.446 -292.504" />
    <path d="M 186.65 -292.034 L 185.916 -292.034" />
    <path d="M 178.956 -290.934 L 178.956 -290.894" />
    <path d="M 178.956 -290.014 L 178.956 -289.234" />
    <path d="M 178.956 -290.014 L 178.536 -290.014" />
    <path d="M 174.326 -289.674 L 178.536 -289.674" />
    <path d="M 178.956 -290.894 L 178.536 -290.894" />
    <path d="M 178.536 -290.014 L 178.536 -289.674" />
    <path d="M 183.816 -290.934 L 180.986 -290.934" />
    <path d="M 180.106 -290.934 L 178.956 -290.934" />
    <path d="M 180.106 -290.934 L 180.106 -291.334" />
    <path d="M 180.986 -290.934 L 180.986 -291.334" />
    <path d="M 183.816 -291.334 L 182.866 -291.334" />
    <path d="M 182.786 -291.334 L 180.986 -291.334" />
    <path d="M 180.106 -291.334 L 178.616 -291.334" />
    <path d="M 182.786 -296.914 L 182.786 -292.444" />
    <path d="M 182.786 -291.754 L 182.786 -291.334" />
    <path d="M 182.786 -291.754 L 182.866 -291.754" />
    <path d="M 182.786 -292.444 L 182.866 -292.444" />
    <path d="M 182.866 -296.914 L 182.866 -292.444" />
    <path d="M 182.866 -291.754 L 182.866 -291.334" />
    <path d="M 178.616 -296.914 L 178.616 -295.684" />
    <path d="M 178.616 -294.164 L 178.616 -291.334" />
    <path d="M 178.616 -294.184 L 178.536 -294.184" />
    <path d="M 178.616 -295.684 L 178.536 -295.684" />
    <path d="M 178.536 -296.914 L 178.536 -295.684" />
    <path d="M 178.536 -294.164 L 178.536 -290.894" />
    <path d="M 178.536 -294.164 L 178.536 -294.184" />
    <path d="M 178.616 -294.184 L 178.616 -294.164" />
    <path d="M 185.995 -285.043 L 185.995 -284.793" />
    <path d="M 185.995 -284.793 L 186.105 -284.793" />
    <path d="M 186.105 -284.793 L 186.105 -284.623" />
    <path d="M 179.796 -277.024 L 175.516 -277.024" />
    <path d="M 174.596 -277.024 L 174.416 -277.024" />
    <path d="M 174.596 -277.304 L 174.596 -277.024" />
    <path d="M 175.516 -277.304 L 175.516 -277.024" />
    <path d="M 174.436 -282.234 L 174.436 -280.914" />
    <path d="M 174.436 -280.334 L 174.436 -277.304" />
    <path d="M 174.296 -280.914 L 174.296 -280.334" />
    <path d="M 179.556 -279.742 L 179.979 -279.742" />
    <path d="M 179.556 -278.542 L 179.958 -278.542" />
    <path d="M 179.556 -278.542 L 179.556 -277.304" />
    <path d="M 179.556 -279.742 L 179.556 -280.442" />
    <path d="M 175.696 -277.554 L 179.556 -277.554" />
    <path d="M 174.436 -280.914 L 174.296 -280.914" />
    <path d="M 174.436 -280.914 L 174.436 -280.334" />
    <path d="M 179.556 -281.542 L 179.556 -281.664" />
    <path d="M 179.556 -281.542 L 180.011 -281.542" />
    <path d="M 179.556 -280.442 L 179.992 -280.442" />
    <path d="M 178.986 -281.664 L 178.986 -282.234" />
    <path d="M 174.466 -282.234 L 174.436 -282.234" />
    <path d="M 174.466 -282.234 L 174.466 -282.634" />
    <path d="M 175.396 -282.234 L 175.396 -282.634" />
    <path d="M 178.986 -282.634 L 175.396 -282.634" />
    <path d="M 174.466 -282.634 L 174.316 -282.634" />
    <path d="M 174.316 -282.634 L 174.316 -289.234" />
    <path d="M 178.986 -284.64 L 179.316 -284.64" />
    <path d="M 178.986 -282.678 L 179.459 -282.678" />
    <path d="M 178.985 -284.64 L 178.951 -285.704" />
    <path d="M 178.986 -282.678 L 178.986 -282.634" />
    <path d="M 174.316 -289.234 L 178.956 -289.234" />
    <path d="M 185.916 -290.824 L 185.916 -292.034" />
    <path d="M 173.816 -297.444 L 173.916 -297.444" />
    <path d="M 173.916 -297.444 L 173.916 -297.294" />
    <path d="M 174.166 -297.294 L 174.166 -297.444" />
    <path d="M 173.916 -297.294 L 174.166 -297.294" />
    <path d="M 183.482 -291.005 L 183.732 -291.005" />
    <path d="M 183.732 -291.005 L 183.732 -291.135" />
    <path d="M 183.732 -291.135 L 183.482 -291.135" />
    <path d="M 183.482 -291.135 L 183.482 -291.005" />
    <path d="M 183.13 -291.005 L 183.38 -291.005" />
    <path d="M 183.38 -291.005 L 183.38 -291.135" />
    <path d="M 183.38 -291.135 L 183.13 -291.135" />
    <path d="M 183.13 -291.135 L 183.13 -291.005" />
    <path d="M 182.412 -291.033 L 182.662 -291.033" />
    <path d="M 182.662 -291.033 L 182.662 -291.163" />
    <path d="M 182.662 -291.163 L 182.412 -291.163" />
    <path d="M 182.412 -291.163 L 182.412 -291.033" />
    <path d="M 182.012 -291.033 L 182.262 -291.033" />
    <path d="M 182.262 -291.033 L 182.262 -291.163" />
    <path d="M 182.262 -291.163 L 182.012 -291.163" />
    <path d="M 182.012 -291.163 L 182.012 -291.033" />
    <path d="M 179.466 -284.578 L 179.316 -284.578" />
    <path d="M 179.466 -284.578 L 179.466 -284.623" />
    <path d="M 179.467 -284.331 L 179.316 -284.331" />
    <path d="M 179.316 -284.578 L 179.316 -284.331" />
    <path d="M 179.466 -284.578 L 179.467 -284.331" />
    <path d="M 179.316 -284.578 L 179.466 -284.578" />
    <path d="M 179.316 -284.318 L 179.487 -284.318" />
    <path d="M 179.316 -284.578 L 179.316 -284.64" />
    <path d="M 179.94 -277.549 L 180.187 -277.55" />
    <path d="M 180.022 -282.141 L 180.011 -281.542" />
    <path d="M 179.992 -280.442 L 179.979 -279.742" />
    <path d="M 179.958 -278.542 L 179.94 -277.549" />
    <path d="M 179.455 -282.142 L 180.022 -282.142" />
    <path d="M 179.455 -282.142 L 179.459 -282.678" />
    <path d="M 180.455 -277.786 L 180.192 -277.791" />
    <path d="M 180.445 -277.776 L 180.182 -277.781" />
    <path d="M 180.219 -279.847 L 180.216 -279.67" />
    <path d="M 180.229 -279.846 L 180.226 -279.71" />
    <path d="M 180.224 -279.71 L 180.223 -279.66" />
    <path d="M 180.216 -279.67 L 180.087 -279.672" />
    <path d="M 180.223 -279.66 L 180.086 -279.662" />
    <path d="M 180.226 -279.71 L 180.224 -279.71" />
    <path d="M 180.445 -277.776 L 180.433 -276.413" />
    <path d="M 180.455 -277.786 L 180.444 -276.453" />
    <path d="M 180.193 -278.417 L 180.196 -278.593" />
    <path d="M 180.192 -277.791 L 180.206 -278.553" />
    <path d="M 180.204 -278.553 L 180.205 -278.603" />
    <path d="M 180.196 -278.593 L 180.067 -278.596" />
    <path d="M 180.205 -278.603 L 180.068 -278.606" />
    <path d="M 180.206 -278.553 L 180.204 -278.553" />
    <path d="M 180.009 -279.705 L 180.009 -279.725" />
    <path d="M 180.264 -282.39 L 180.248 -281.477" />
    <path d="M 180.274 -282.4 L 180.259 -281.517" />
    <path d="M 180.257 -281.527 L 180.256 -281.477" />
    <path d="M 180.248 -281.487 L 180.119 -281.489" />
    <path d="M 180.256 -281.477 L 180.119 -281.479" />
    <path d="M 180.259 -281.527 L 180.257 -281.527" />
    <path d="M 180.227 -280.334 L 180.231 -280.511" />
    <path d="M 180.237 -280.334 L 180.24 -280.471" />
    <path d="M 180.238 -280.471 L 180.239 -280.521" />
    <path d="M 180.231 -280.511 L 180.102 -280.513" />
    <path d="M 180.239 -280.521 L 180.102 -280.523" />
    <path d="M 180.24 -280.471 L 180.238 -280.471" />
    <path d="M 179.741 -284.279 L 179.731 -282.729" />
    <path d="M 179.743 -284.303 L 179.743 -284.279" />
    <path d="M 179.642 -284.307 L 179.642 -284.29" />
    <path d="M 179.642 -284.307 L 179.632 -284.307" />
    <path d="M 179.607 -284.307 L 179.607 -284.29" />
    <path d="M 179.607 -284.307 L 179.617 -284.307" />
    <path d="M 179.632 -284.288 L 179.636 -284.28" />
    <path d="M 179.617 -284.288 L 179.613 -284.28" />
    <path d="M 179.489 -284.311 L 179.561 -284.31" />
    <path d="M 179.694 -284.391 L 179.693 -284.29" />
    <path d="M 179.563 -284.29 L 179.693 -284.29" />
    <path d="M 179.701 -284.33 L 179.703 -284.33" />
    <path d="M 179.563 -284.28 L 179.701 -284.28" />
    <path d="M 179.701 -284.28 L 179.701 -284.33" />
    <path d="M 179.632 -282.703 L 179.632 -282.72" />
    <path d="M 179.632 -282.703 L 179.622 -282.703" />
    <path d="M 179.597 -282.703 L 179.597 -282.72" />
    <path d="M 179.597 -282.703 L 179.607 -282.703" />
    <path d="M 179.622 -282.722 L 179.626 -282.73" />
    <path d="M 179.607 -282.722 L 179.603 -282.73" />
    <path d="M 179.553 -282.72 L 179.683 -282.72" />
    <path d="M 179.553 -282.73 L 179.691 -282.73" />
    <path d="M 179.691 -282.73 L 179.69 -282.68" />
    <path d="M 179.69 -282.68 L 179.692 -282.68" />
    <path d="M 179.681 -282.392 L 179.683 -282.72" />
    <path d="M 179.691 -282.402 L 179.692 -282.68" />
    <path d="M 180.274 -282.4 L 179.691 -282.402" />
    <path d="M 180.264 -282.39 L 179.681 -282.392" />
    <path d="M 179.701 -284.28 L 179.743 -284.279" />
    <path d="M 179.701 -284.304 L 179.743 -284.303" />
    <path d="M 179.733 -282.705 L 179.733 -282.729" />
    <path d="M 179.691 -282.73 L 179.733 -282.729" />
    <path d="M 179.691 -282.706 L 179.733 -282.705" />
    <path d="M 179.568 -284.29 L 179.568 -284.28" />
    <path d="M 179.558 -282.73 L 179.558 -282.72" />
    <path d="M 179.538 -284.16 L 179.534 -283.613" />
    <path d="M 179.704 -284.381 L 179.703 -284.33" />
    <path d="M 180.237 -280.334 L 180.229 -279.846" />
    <path d="M 180.227 -280.334 L 180.219 -279.847" />
    <path d="M 180.088 -281.328 L 180.084 -281.094" />
    <path d="M 180.04 -281.329 L 180.036 -281.095" />
    <path d="M 180.295 -281.324 L 180.283 -280.667" />
    <path d="M 180.08 -280.859 L 180.076 -280.671" />
    <path d="M 180.032 -280.86 L 180.028 -280.672" />
    <path d="M 180.263 -279.512 L 180.249 -278.75" />
    <path d="M 180.056 -279.515 L 180.051 -279.252" />
    <path d="M 180.003 -279.253 L 180.008 -279.516" />
    <path d="M 179.994 -278.754 L 179.999 -279.018" />
    <path d="M 180.042 -278.753 L 180.047 -279.017" />
    <path d="M 179.533 -283.388 L 179.529 -282.851" />
    <path d="M 179.485 -283.388 L 179.481 -282.851" />
    <path d="M 179.49 -284.16 L 179.486 -283.613" />
    <path d="M 180.193 -278.42 L 180.182 -277.781" />
    <path d="M 179.487 -284.33 L 179.563 -284.33" />
    <path d="M 179.563 -284.33 L 179.563 -284.31" />
    <path d="M 179.563 -284.31 L 179.487 -284.31" />
    <path d="M 179.476 -282.681 L 179.552 -282.681" />
    <path d="M 179.552 -282.681 L 179.552 -282.7" />
    <path d="M 179.552 -282.7 L 179.476 -282.7" />
    <path d="M 184.55 -284.525 L 184.55 -284.393" />
    <path d="M 184.54 -284.525 L 184.54 -284.385" />
    <path d="M 184.59 -284.385 L 184.59 -284.383" />
    <path d="M 184.55 -284.522 L 184.54 -284.522" />
    <path d="M 184.59 -284.385 L 184.54 -284.385" />
    <path d="M 182.648 -284.524 L 182.648 -284.392" />
    <path d="M 182.638 -284.524 L 182.638 -284.384" />
    <path d="M 182.688 -284.384 L 182.688 -284.382" />
    <path d="M 182.648 -284.521 L 182.638 -284.521" />
    <path d="M 182.688 -284.384 L 182.638 -284.384" />
    <path d="M 180.72 -284.523 L 180.72 -284.392" />
    <path d="M 180.71 -284.523 L 180.71 -284.384" />
    <path d="M 180.76 -284.384 L 180.76 -284.382" />
    <path d="M 180.72 -284.521 L 180.71 -284.521" />
    <path d="M 180.76 -284.384 L 180.71 -284.384" />
    <path d="M 183.474 -284.524 L 183.474 -284.393" />
    <path d="M 183.484 -284.524 L 183.484 -284.385" />
    <path d="M 183.434 -284.385 L 183.434 -284.383" />
    <path d="M 183.474 -284.522 L 183.484 -284.522" />
    <path d="M 183.434 -284.385 L 183.484 -284.385" />
    <path d="M 181.572 -284.524 L 181.572 -284.392" />
    <path d="M 181.582 -284.524 L 181.582 -284.384" />
    <path d="M 181.532 -284.384 L 181.532 -284.382" />
    <path d="M 181.572 -284.521 L 181.582 -284.521" />
    <path d="M 181.532 -284.384 L 181.582 -284.384" />
    <path d="M 180.224 -284.523 L 180.224 -284.392" />
    <path d="M 180.234 -284.523 L 180.234 -284.384" />
    <path d="M 180.184 -284.384 L 180.184 -284.382" />
    <path d="M 180.224 -284.521 L 180.234 -284.521" />
    <path d="M 180.184 -284.384 L 180.234 -284.384" />
    <path d="M 183.434 -284.383 L 182.688 -284.382" />
    <path d="M 182.648 -284.392 L 183.474 -284.393" />
    <path d="M 181.532 -284.382 L 180.76 -284.382" />
    <path d="M 180.72 -284.392 L 181.572 -284.392" />
    <path d="M 186.134 -284.525 L 186.134 -284.393" />
    <path d="M 186.144 -284.525 L 186.144 -284.385" />
    <path d="M 186.094 -284.385 L 186.094 -284.383" />
    <path d="M 186.134 -284.522 L 186.144 -284.522" />
    <path d="M 186.094 -284.385 L 186.144 -284.385" />
    <path d="M 186.094 -284.383 L 184.59 -284.383" />
    <path d="M 184.55 -284.393 L 186.134 -284.393" />
    <path d="M 180.184 -284.382 L 179.704 -284.381" />
    <path d="M 180.184 -284.392 L 179.694 -284.391" />
    <path d="M 180.563 -284.597 L 180.381 -284.597" />
    <path d="M 180.563 -284.549 L 180.381 -284.549" />
    <path d="M 182.491 -284.342 L 181.729 -284.342" />
    <path d="M 186.65 -284.599 L 186.291 -284.599" />
    <path d="M 186.291 -284.551 L 186.65 -284.551" />
    <path d="M 186.65 -284.344 L 186.291 -284.343" />
    <path d="M 184.393 -284.598 L 184.13 -284.598" />
    <path d="M 184.393 -284.55 L 184.13 -284.55" />
    <path d="M 184.393 -284.343 L 183.631 -284.343" />
    <path d="M 183.894 -284.598 L 183.631 -284.598" />
    <path d="M 183.894 -284.55 L 183.631 -284.55" />
    <path d="M 182.491 -284.598 L 182.228 -284.598" />
    <path d="M 182.491 -284.55 L 182.228 -284.55" />
    <path d="M 181.993 -284.598 L 181.729 -284.597" />
    <path d="M 181.729 -284.549 L 181.993 -284.55" />
    <path d="M 180.563 -284.342 L 180.381 -284.342" />
    <path d="M 179.431 -285.543 L 179.791 -285.543" />
    <path d="M 179.791 -285.543 L 179.791 -285.183" />
    <path d="M 179.791 -285.183 L 179.431 -285.183" />
    <path d="M 179.431 -285.183 L 179.431 -285.543" />
    <path d="M 182.647 -298.5 L 182.33 -298.5" />
    <path d="M 176.228 -297.444 L 176.786 -297.444" />
    <path d="M 174.166 -297.444 L 174.828 -297.444" />
    <path d="M 178.682 -298.78 L 178.682 -298.12" />
    <path d="M 178.682 -297.464 L 178.682 -297.444" />
    <path d="M 178.186 -297.444 L 178.682 -297.444" />
    <path d="M 182.963 -298.78 L 182.963 -298.382" />
    <path d="M 182.963 -297.544 L 182.963 -297.444" />
    <path d="M 182.647 -297.482 L 182.823 -297.482" />
    <path d="M 186.032 -297.444 L 186.65 -297.444" />
    <path d="M 181.15 -298.5 L 180.513 -298.5" />
    <path d="M 179.333 -298.5 L 178.966 -298.5" />
    <path d="M 174.326 -296.914 L 174.828 -296.914" />
    <path d="M 176.228 -296.914 L 176.786 -296.914" />
    <path d="M 174.828 -296.914 L 174.828 -297.444" />
    <path d="M 176.228 -296.914 L 176.228 -297.444" />
    <path d="M 176.786 -296.914 L 176.786 -297.444" />
    <path d="M 178.186 -296.914 L 178.186 -297.444" />
    <path d="M 178.966 -298.5 L 178.966 -298.12" />
    <path d="M 178.966 -297.481 L 178.966 -296.914" />
    <path d="M 182.647 -298.5 L 182.647 -298.382" />
    <path d="M 181.15 -298.78 L 181.15 -298.5" />
    <path d="M 182.647 -297.482 L 182.647 -296.914" />
    <path d="M 178.966 -298.12 L 178.682 -298.12" />
    <path d="M 178.824 -297.481 L 178.824 -297.575" />
    <path d="M 182.823 -297.482 L 182.823 -297.572" />
    <path d="M 178.682 -298.78 L 179.333 -298.78" />
    <path d="M 180.513 -298.78 L 181.15 -298.78" />
    <path d="M 182.33 -298.78 L 182.963 -298.78" />
    <path d="M 178.824 -297.575 L 178.682 -297.575" />
    <path d="M 178.824 -297.675 L 178.682 -297.675" />
    <path d="M 182.33 -298.5 L 182.33 -298.78" />
    <path d="M 179.333 -298.78 L 179.333 -298.5" />
    <path d="M 180.513 -298.5 L 180.513 -298.78" />
    <path d="M 182.823 -297.572 L 182.963 -297.572" />
    <path d="M 182.647 -298.382 L 182.963 -298.382" />
    <path d="M 183.652 -297.444 L 182.963 -297.444" />
    <path d="M 183.652 -297.444 L 183.652 -296.914" />
    <path d="M 186.032 -297.444 L 186.032 -296.914" />
    <path d="M 186.606 -296.914 L 186.032 -296.914" />
    <path d="M 183.652 -296.914 L 182.866 -296.914" />
    <path d="M 178.616 -296.914 L 178.966 -296.914" />
    <path d="M 182.647 -296.914 L 182.786 -296.914" />
    <path d="M 178.536 -296.914 L 178.186 -296.914" />
    <path d="M 174.166 -297.444 L 174.166 -297.294" />
    <path d="M 174.166 -297.294 L 173.916 -297.294" />
    <path d="M 173.916 -297.294 L 173.916 -297.444" />
    <path d="M 173.916 -297.444 L 173.816 -297.444" />
    <path d="M 178.682 -297.444 L 178.682 -297.575" />
    <path d="M 174.041 -297.294 L 174.041 -297.682" />
    <path d="M 174.051 -297.294 L 174.051 -297.672" />
    <path d="M 182.963 -297.464 L 182.963 -297.444" />
    <path d="M 182.963 -297.444 L 182.963 -297.572" />
    <path d="M 178.966 -297.481 L 178.824 -297.481" />
    <path d="M 178.824 -297.675 L 178.824 -297.575" />
    <path d="M 178.133 -297.682 L 178.444 -297.682" />
    <path d="M 176.857 -297.682 L 176.857 -297.54" />
    <path d="M 176.847 -297.672 L 176.847 -297.54" />
    <path d="M 178.143 -297.672 L 178.143 -297.54" />
    <path d="M 178.133 -297.545 L 178.143 -297.545" />
    <path d="M 178.133 -297.54 L 178.133 -297.682" />
    <path d="M 174.897 -297.682 L 174.897 -297.54" />
    <path d="M 174.887 -297.672 L 174.887 -297.54" />
    <path d="M 174.897 -297.545 L 174.887 -297.545" />
    <path d="M 176.183 -297.672 L 176.183 -297.54" />
    <path d="M 176.173 -297.545 L 176.183 -297.545" />
    <path d="M 176.173 -297.54 L 176.173 -297.682" />
    <path d="M 174.897 -297.682 L 174.041 -297.682" />
    <path d="M 174.887 -297.672 L 174.051 -297.672" />
    <path d="M 176.173 -297.682 L 176.857 -297.682" />
    <path d="M 180.457 -299.008 L 180.457 -298.876" />
    <path d="M 180.447 -298.881 L 180.457 -298.881" />
    <path d="M 180.447 -298.876 L 180.447 -299.018" />
    <path d="M 181.213 -299.018 L 181.213 -298.876" />
    <path d="M 181.203 -299.008 L 181.203 -298.876" />
    <path d="M 181.213 -298.881 L 181.203 -298.881" />
    <path d="M 182.279 -299.008 L 182.279 -298.876" />
    <path d="M 182.269 -298.876 L 182.269 -299.018" />
    <path d="M 182.279 -299.008 L 183.231 -299.008" />
    <path d="M 175.044 -297.515 L 175.418 -297.515" />
    <path d="M 175.653 -297.515 L 176.026 -297.515" />
    <path d="M 177.004 -297.467 L 177.378 -297.467" />
    <path d="M 177.004 -297.515 L 177.378 -297.515" />
    <path d="M 177.613 -297.467 L 177.986 -297.467" />
    <path d="M 177.613 -297.515 L 177.986 -297.515" />
    <path d="M 179.538 -298.803 L 179.802 -298.803" />
    <path d="M 179.538 -298.851 L 179.802 -298.851" />
    <path d="M 180.037 -298.803 L 180.3 -298.803" />
    <path d="M 180.037 -298.851 L 180.3 -298.851" />
    <path d="M 181.36 -298.803 L 181.623 -298.803" />
    <path d="M 181.858 -298.803 L 182.122 -298.803" />
    <path d="M 181.36 -298.851 L 181.623 -298.851" />
    <path d="M 181.858 -298.851 L 182.122 -298.851" />
    <path d="M 178.444 -299.018 L 178.444 -298.068" />
    <path d="M 178.364 -298.148 L 178.364 -297.762" />
    <path d="M 178.444 -297.737 L 178.444 -297.682" />
    <path d="M 178.454 -299.008 L 178.454 -298.078" />
    <path d="M 178.454 -297.727 L 178.454 -297.672" />
    <path d="M 179.391 -299.018 L 179.391 -298.876" />
    <path d="M 179.381 -299.008 L 179.381 -298.876" />
    <path d="M 179.391 -299.008 L 178.454 -299.008" />
    <path d="M 178.143 -297.672 L 178.454 -297.672" />
    <path d="M 176.183 -297.672 L 176.847 -297.672" />
    <path d="M 174.041 -297.294 L 174.041 -297.682" />
    <path d="M 174.051 -297.294 L 174.051 -297.672" />
    <path d="M 175.044 -297.467 L 175.418 -297.467" />
    <path d="M 175.653 -297.467 L 176.026 -297.467" />
    <path d="M 175.044 -297.762 L 176.026 -297.762" />
    <path d="M 176.847 -297.672 L 176.807 -297.672" />
    <path d="M 178.601 -297.737 L 178.601 -297.727" />
    <path d="M 178.454 -298.078 L 178.608 -298.078" />
    <path d="M 178.601 -298.068 L 178.601 -298.078" />
    <path d="M 178.608 -298.068 L 178.444 -298.068" />
    <path d="M 178.444 -298.148 L 178.364 -298.148" />
    <path d="M 178.683 -297.695 L 178.683 -297.675" />
    <path d="M 178.607 -297.695 L 178.607 -297.675" />
    <path d="M 178.683 -297.675 L 178.607 -297.675" />
    <path d="M 178.607 -297.695 L 178.683 -297.695" />
    <path d="M 178.683 -298.105 L 178.683 -298.125" />
    <path d="M 178.607 -298.105 L 178.607 -298.125" />
    <path d="M 178.683 -298.125 L 178.607 -298.125" />
    <path d="M 178.607 -298.105 L 178.683 -298.105" />
    <path d="M 178.608 -297.737 L 178.444 -297.737" />
    <path d="M 178.608 -297.727 L 178.454 -297.727" />
    <path d="M 174.687 -297.762 L 174.687 -297.682" />
    <path d="M 177.004 -297.762 L 177.986 -297.762" />
    <path d="M 176.647 -297.762 L 176.647 -297.682" />
    <path d="M 176.383 -297.762 L 176.383 -297.682" />
    <path d="M 178.343 -297.762 L 178.364 -297.762" />
    <path d="M 178.632 -297.845 L 178.632 -297.955" />
    <path d="M 178.682 -297.675 L 178.682 -297.575" />
    <path d="M 183.241 -299.018 L 183.241 -298.33" />
    <path d="M 183.241 -297.634 L 183.241 -297.564" />
    <path d="M 183.231 -299.008 L 183.231 -298.34" />
    <path d="M 183.231 -297.624 L 183.231 -297.554" />
    <path d="M 183.065 -297.634 L 183.065 -297.624" />
    <path d="M 183.059 -297.592 L 183.059 -297.572" />
    <path d="M 182.983 -297.572 L 183.059 -297.572" />
    <path d="M 183.059 -297.592 L 182.983 -297.592" />
    <path d="M 183.059 -297.634 L 183.241 -297.634" />
    <path d="M 183.065 -298.33 L 183.065 -298.34" />
    <path d="M 183.059 -298.372 L 183.059 -298.391" />
    <path d="M 182.983 -298.391 L 183.059 -298.391" />
    <path d="M 183.059 -298.372 L 182.983 -298.372" />
    <path d="M 183.059 -298.33 L 183.241 -298.33" />
    <path d="M 183.059 -298.34 L 183.231 -298.34" />
    <path d="M 183.059 -297.624 L 183.231 -297.624" />
    <path d="M 182.972 -298.541 L 182.963 -298.541" />
    <path d="M 183.034 -297.732 L 183.034 -298.222" />
    <path d="M 182.986 -297.732 L 182.986 -298.222" />
    <path d="M 183.722 -297.45 L 183.712 -297.45" />
    <path d="M 183.68 -297.368 L 183.66 -297.368" />
    <path d="M 183.68 -297.444 L 183.66 -297.444" />
    <path d="M 183.68 -297.444 L 183.68 -297.368" />
    <path d="M 183.722 -297.444 L 183.722 -297.564" />
    <path d="M 183.712 -297.444 L 183.712 -297.554" />
    <path d="M 185.973 -297.554 L 185.973 -297.444" />
    <path d="M 185.963 -297.45 L 185.973 -297.45" />
    <path d="M 185.963 -297.444 L 185.963 -297.564" />
    <path d="M 185.446 -297.371 L 185.85 -297.371" />
    <path d="M 185.446 -297.419 L 185.85 -297.419" />
    <path d="M 183.83 -297.371 L 184.234 -297.371" />
    <path d="M 183.83 -297.419 L 184.234 -297.419" />
    <path d="M 184.443 -297.371 L 185.242 -297.371" />
    <path d="M 184.443 -297.419 L 185.242 -297.419" />
    <path d="M 183.231 -297.554 L 183.712 -297.554" />
    <path d="M 183.241 -297.564 L 183.722 -297.564" />
    <path d="M 185.973 -297.554 L 186.65 -297.554" />
    <path d="M 185.963 -297.564 L 186.65 -297.564" />
    <path d="M 178.68 -297.845 L 178.68 -297.955" />
    <path d="M 182.983 -298.372 L 182.983 -298.391" />
    <path d="M 182.983 -297.592 L 182.983 -297.572" />
    <path d="M 182.786 -291.754 L 182.786 -292.444" />
    <path d="M 182.866 -291.754 L 182.866 -292.444" />
    <path d="M 183.206 -288.584 L 183.206 -285.043" />
    <path d="M 183.181 -288.609 L 183.181 -285.043" />
    <path d="M 183.056 -288.584 L 183.056 -287.674" />
    <path d="M 183.081 -288.609 L 183.081 -287.649" />
    <path d="M 184.706 -288.709 L 184.706 -288.584" />
    <path d="M 183.821 -288.709 L 183.821 -288.584" />
    <path d="M 179.866 -288.109 L 179.866 -287.984" />
    <path d="M 179.841 -288.109 L 179.841 -287.984" />
    <path d="M 184.916 -288.584 L 184.706 -288.584" />
    <path d="M 184.916 -288.609 L 184.706 -288.609" />
    <path d="M 183.821 -288.584 L 183.206 -288.584" />
    <path d="M 183.821 -288.609 L 183.181 -288.609" />
    <path d="M 183.056 -288.584 L 181.116 -288.584" />
    <path d="M 183.081 -288.609 L 181.091 -288.609" />
    <path d="M 184.916 -288.709 L 184.706 -288.709" />
    <path d="M 184.916 -288.684 L 184.706 -288.684" />
    <path d="M 183.821 -288.709 L 180.991 -288.709" />
    <path d="M 183.821 -288.684 L 181.016 -288.684" />
    <path d="M 180.696 -286.559 L 180.696 -286.684" />
    <path d="M 179.936 -286.559 L 179.936 -286.684" />
    <path d="M 180.991 -288.709 L 180.991 -288.109" />
    <path d="M 181.016 -288.684 L 181.016 -288.084" />
    <path d="M 180.991 -287.984 L 180.991 -287.594" />
    <path d="M 181.016 -288.009 L 181.016 -287.594" />
    <path d="M 180.991 -286.834 L 180.991 -286.684" />
    <path d="M 181.016 -286.834 L 181.016 -286.659" />
    <path d="M 180.991 -286.559 L 180.991 -285.043" />
    <path d="M 181.016 -286.584 L 181.016 -285.043" />
    <path d="M 181.116 -288.584 L 181.116 -287.594" />
    <path d="M 181.091 -288.609 L 181.091 -287.594" />
    <path d="M 181.116 -286.834 L 181.116 -285.043" />
    <path d="M 181.091 -286.834 L 181.091 -285.043" />
    <path d="M 181.711 -285.046 L 181.711 -285.043" />
    <path d="M 181.116 -287.594 L 180.991 -287.594" />
    <path d="M 181.116 -286.834 L 180.991 -286.834" />
    <path d="M 180.991 -286.684 L 180.696 -286.684" />
    <path d="M 181.016 -286.659 L 180.696 -286.659" />
    <path d="M 180.991 -286.559 L 180.696 -286.559" />
    <path d="M 181.016 -286.584 L 180.696 -286.584" />
    <path d="M 179.866 -287.984 L 179.046 -287.984" />
    <path d="M 179.841 -288.009 L 179.021 -288.009" />
    <path d="M 179.866 -288.109 L 178.921 -288.109" />
    <path d="M 179.841 -288.084 L 178.946 -288.084" />
    <path d="M 179.936 -286.559 L 179.046 -286.559" />
    <path d="M 179.936 -286.584 L 179.021 -286.584" />
    <path d="M 179.936 -286.684 L 179.046 -286.684" />
    <path d="M 179.936 -286.659 L 179.021 -286.659" />
    <path d="M 180.766 -288.109 L 180.766 -287.984" />
    <path d="M 180.791 -288.109 L 180.791 -287.984" />
    <path d="M 180.766 -287.984 L 180.991 -287.984" />
    <path d="M 180.791 -288.009 L 181.016 -288.009" />
    <path d="M 180.766 -288.109 L 180.991 -288.109" />
    <path d="M 180.791 -288.084 L 181.016 -288.084" />
    <path d="M 178.921 -284.61 L 178.921 -288.109" />
    <path d="M 178.946 -284.61 L 178.946 -288.084" />
    <path d="M 179.046 -287.984 L 179.046 -286.684" />
    <path d="M 179.021 -288.009 L 179.021 -286.659" />
    <path d="M 179.046 -286.559 L 179.046 -285.704" />
    <path d="M 179.021 -286.584 L 179.021 -285.704" />
    <path d="M 175.696 -277.554 L 175.696 -277.304" />
    <path d="M 174.586 -279.954 L 174.586 -280.079" />
    <path d="M 175.471 -279.954 L 175.471 -280.079" />
    <path d="M 174.296 -280.334 L 174.436 -280.334" />
    <path d="M 179.467 -284.331 L 179.467 -284.318" />
    <path d="M 179.316 -284.331 L 179.316 -284.318" />
    <path d="M 179.306 -284.61 L 178.921 -284.61" />
    <path d="M 175.516 -277.304 L 175.516 -277.024" />
    <path d="M 185.456 -290.624 L 185.056 -290.624" />
    <path d="M 182.146 -287.674 L 183.056 -287.674" />
    <path d="M 182.171 -287.649 L 183.081 -287.649" />
    <path d="M 182.146 -287.574 L 182.831 -287.574" />
    <path d="M 182.171 -287.599 L 182.856 -287.599" />
    <path d="M 182.146 -287.674 L 182.146 -287.574" />
    <path d="M 182.171 -287.674 L 182.171 -287.574" />
    <path d="M 182.831 -285.043 L 182.831 -285.957" />
    <path d="M 182.831 -286.407 L 182.831 -287.574" />
    <path d="M 182.856 -285.043 L 182.856 -285.932" />
    <path d="M 182.856 -286.432 L 182.856 -287.599" />
    <path d="M 179.556 -277.304 L 177.946 -277.304" />
    <path d="M 177.946 -277.304 L 177.946 -277.554" />
    <path d="M 176.671 -280.079 L 177.631 -280.079" />
    <path d="M 175.626 -282.084 L 175.751 -282.084" />
    <path d="M 177.706 -280.329 L 177.706 -281.014" />
    <path d="M 177.681 -280.304 L 177.681 -280.989" />
    <path d="M 177.631 -280.079 L 177.631 -280.989" />
    <path d="M 177.606 -280.104 L 177.606 -281.014" />
    <path d="M 176.696 -280.104 L 176.696 -281.014" />
    <path d="M 176.596 -280.104 L 176.596 -281.014" />
    <path d="M 176.671 -280.079 L 176.671 -280.989" />
    <path d="M 176.621 -280.079 L 176.621 -280.989" />
    <path d="M 176.696 -280.104 L 177.606 -280.104" />
    <path d="M 175.751 -282.234 L 175.751 -282.084" />
    <path d="M 175.626 -282.234 L 175.626 -282.084" />
    <path d="M 175.726 -282.234 L 175.726 -282.084" />
    <path d="M 175.821 -280.989 L 175.821 -280.079" />
    <path d="M 175.651 -282.234 L 175.651 -282.084" />
    <path d="M 175.651 -281.324 L 175.651 -280.939" />
    <path d="M 175.846 -281.014 L 175.846 -280.104" />
    <path d="M 175.626 -281.324 L 175.626 -280.939" />
    <path d="M 175.626 -281.324 L 175.751 -281.324" />
    <path d="M 177.706 -280.329 L 177.939 -280.329" />
    <path d="M 177.681 -280.304 L 177.914 -280.304" />
    <path d="M 175.751 -281.014 L 175.751 -281.324" />
    <path d="M 175.726 -280.989 L 175.726 -281.324" />
    <path d="M 177.914 -280.079 L 178.414 -280.079" />
    <path d="M 175.821 -280.079 L 176.671 -280.079" />
    <path d="M 177.939 -280.104 L 178.389 -280.104" />
    <path d="M 177.706 -281.014 L 177.606 -281.014" />
    <path d="M 176.596 -281.014 L 176.696 -281.014" />
    <path d="M 178.389 -280.329 L 178.389 -280.104" />
    <path d="M 177.706 -280.989 L 177.606 -280.989" />
    <path d="M 176.596 -280.989 L 176.696 -280.989" />
    <path d="M 177.939 -280.329 L 177.939 -280.104" />
    <path d="M 177.914 -280.304 L 177.914 -280.079" />
    <path d="M 178.414 -280.304 L 178.414 -280.079" />
    <path d="M 175.846 -281.014 L 175.796 -281.014" />
    <path d="M 175.821 -280.989 L 175.726 -280.989" />
    <path d="M 175.796 -281.014 L 175.751 -281.014" />
    <path d="M 175.821 -280.939 L 175.626 -280.939" />
    <path d="M 178.389 -280.329 L 179.556 -280.329" />
    <path d="M 178.414 -280.304 L 179.556 -280.304" />
    <path d="M 179.556 -279.954 L 175.471 -279.954" />
    <path d="M 175.851 -279.954 L 179.321 -279.954" />
    <path d="M 179.556 -279.979 L 175.471 -279.979" />
    <path d="M 175.626 -280.079 L 175.471 -280.079" />
    <path d="M 175.651 -280.129 L 175.626 -280.129" />
    <path d="M 175.651 -280.054 L 175.471 -280.054" />
    <path d="M 175.651 -280.939 L 175.626 -280.939" />
    <path d="M 175.626 -280.129 L 175.626 -280.079" />
    <path d="M 175.651 -280.129 L 175.651 -280.054" />
    <path d="M 175.846 -280.104 L 176.596 -280.104" />
    <path d="M 175.651 -280.129 L 175.821 -280.129" />
    <path d="M 174.586 -279.954 L 174.436 -279.954" />
    <path d="M 174.586 -280.079 L 174.436 -280.079" />
    <path d="M 174.586 -280.054 L 174.436 -280.054" />
    <path d="M 174.586 -279.979 L 174.436 -279.979" />
    <path d="M 183.056 -285.957 L 183.056 -286.407" />
    <path d="M 183.081 -285.932 L 183.081 -286.432" />
    <path d="M 182.831 -286.407 L 183.056 -286.407" />
    <path d="M 182.856 -286.432 L 183.081 -286.432" />
    <path d="M 182.831 -285.957 L 183.056 -285.957" />
    <path d="M 182.856 -285.932 L 183.081 -285.932" />
    <path d="M 174.511 -282.234 L 174.511 -282.634" />
    <path d="M 174.466 -282.234 L 174.511 -282.234" />
    <path d="M 174.466 -282.634 L 174.511 -282.634" />
  </g>
</svg>
