<?xml version="1.0" encoding="UTF-8"?>
<svg xmlns="http://www.w3.org/2000/svg" viewBox="169.06 255.06 36.88 48.88" aria-hidden="true">
  <style>
    path,
    circle {
      fill: none;
      stroke: #007AFF;
      stroke-width: 1.55;
      stroke-linecap: round;
      stroke-linejoin: round;
      vector-effect: non-scaling-stroke;
    }
  </style>
  <g transform="scale(1 -1)">
    <path d="M 187.816 -270.244 L 187.966 -270.244" />
    <path d="M 187.966 -270.244 L 187.966 -270.664" />
    <path d="M 187.966 -270.664 L 187.816 -270.664" />
    <path d="M 186.05 -270.664 L 186.149 -270.664" />
    <path d="M 187.816 -270.664 L 188.496 -270.664" />
    <path d="M 194.311 -274.454 L 194.311 -273.556" />
    <path d="M 194.311 -272.446 L 194.311 -271.375" />
    <path d="M 188.496 -270.664 L 188.496 -270.458" />
    <path d="M 193.336 -275.243 L 193.336 -274.19" />
    <path d="M 193.746 -275.143 L 193.746 -274.734" />
    <path d="M 186.05 -264.744 L 187.966 -264.744" />
    <path d="M 193.746 -275.143 L 193.476 -275.143" />
    <path d="M 193.476 -275.143 L 193.476 -275.243" />
    <path d="M 193.476 -275.243 L 193.336 -275.243" />
    <path d="M 199.541 -260.294 L 198.796 -260.294" />
    <path d="M 197.606 -260.294 L 196.956 -260.294" />
    <path d="M 195.766 -260.294 L 195.006 -260.294" />
    <path d="M 193.816 -260.294 L 193.236 -260.294" />
    <path d="M 191.584 -270.064 L 191.584 -270.453" />
    <path d="M 190.414 -270.064 L 190.414 -270.455" />
    <path d="M 192.463 -269.914 L 192.463 -270.451" />
    <path d="M 193.863 -269.914 L 193.863 -270.308" />
    <path d="M 193.863 -270.308 L 193.763 -270.308" />
    <path d="M 193.766 -270.308 L 193.766 -270.449" />
    <path d="M 198.796 -260.634 L 198.796 -260.294" />
    <path d="M 197.606 -260.634 L 197.606 -260.294" />
    <path d="M 195.766 -260.634 L 195.766 -260.294" />
    <path d="M 196.956 -260.634 L 196.956 -260.294" />
    <path d="M 193.816 -260.634 L 193.816 -260.294" />
    <path d="M 195.006 -260.634 L 195.006 -260.294" />
    <path d="M 192.046 -260.634 L 192.046 -260.294" />
    <path d="M 193.236 -260.634 L 193.236 -260.294" />
    <path d="M 187.966 -270.244 L 187.966 -265.874" />
    <path d="M 187.966 -264.964 L 187.966 -264.744" />
    <path d="M 187.966 -264.964 L 188.386 -264.964" />
    <path d="M 187.966 -265.874 L 188.386 -265.874" />
    <path d="M 188.386 -266.064 L 188.386 -265.874" />
    <path d="M 188.386 -264.964 L 188.386 -264.324" />
    <path d="M 191.186 -266.064 L 191.366 -266.064" />
    <path d="M 191.186 -266.064 L 191.186 -266.484" />
    <path d="M 192.276 -269.914 L 192.276 -270.064" />
    <path d="M 191.726 -266.484 L 191.726 -266.874" />
    <path d="M 190.276 -266.064 L 190.276 -266.484" />
    <path d="M 191.186 -266.484 L 191.726 -266.484" />
    <path d="M 191.726 -266.874 L 192.706 -266.874" />
    <path d="M 189.706 -270.064 L 190.414 -270.064" />
    <path d="M 191.584 -270.064 L 192.276 -270.064" />
    <path d="M 190.276 -266.484 L 191.186 -266.484" />
    <path d="M 188.806 -270.044 L 188.806 -270.458" />
    <path d="M 189.456 -270.044 L 189.456 -270.457" />
    <path d="M 189.706 -270.044 L 189.706 -270.064" />
    <path d="M 188.236 -270.044 L 188.806 -270.044" />
    <path d="M 189.456 -270.044 L 189.706 -270.044" />
    <path d="M 188.236 -266.484 L 188.236 -270.044" />
    <path d="M 191.366 -266.064 L 191.366 -265.854" />
    <path d="M 191.366 -264.944 L 191.646 -264.944" />
    <path d="M 191.366 -265.854 L 191.646 -265.854" />
    <path d="M 191.646 -266.024 L 191.646 -265.854" />
    <path d="M 186.276 -260.634 L 187.316 -260.634" />
    <path d="M 188.506 -260.634 L 189.626 -260.634" />
    <path d="M 190.816 -260.634 L 191.366 -260.634" />
    <path d="M 191.646 -260.634 L 192.046 -260.634" />
    <path d="M 193.236 -260.634 L 193.816 -260.634" />
    <path d="M 195.006 -260.634 L 195.306 -260.634" />
    <path d="M 195.406 -260.634 L 195.766 -260.634" />
    <path d="M 196.956 -260.634 L 197.606 -260.634" />
    <path d="M 198.796 -260.634 L 199.176 -260.634" />
    <path d="M 191.646 -266.024 L 192.706 -266.024" />
    <path d="M 194.106 -266.024 L 195.306 -266.024" />
    <path d="M 189.626 -260.634 L 189.626 -260.294" />
    <path d="M 190.816 -260.634 L 190.816 -260.294" />
    <path d="M 187.316 -260.634 L 187.316 -260.294" />
    <path d="M 188.506 -260.634 L 188.506 -260.294" />
    <path d="M 190.816 -260.294 L 192.046 -260.294" />
    <path d="M 189.626 -260.294 L 188.506 -260.294" />
    <path d="M 187.316 -260.294 L 186.276 -260.294" />
    <path d="M 191.646 -264.944 L 191.646 -263.144" />
    <path d="M 191.646 -262.104 L 191.646 -260.634" />
    <path d="M 191.366 -264.944 L 191.366 -263.144" />
    <path d="M 191.366 -262.104 L 191.366 -260.634" />
    <path d="M 188.236 -266.484 L 188.546 -266.484" />
    <path d="M 189.786 -266.484 L 190.276 -266.484" />
    <path d="M 188.546 -266.484 L 188.546 -266.064" />
    <path d="M 188.386 -266.064 L 188.546 -266.064" />
    <path d="M 189.786 -266.064 L 190.276 -266.064" />
    <path d="M 193.746 -274.734 L 198.076 -274.734" />
    <path d="M 198.961 -274.734 L 199.146 -274.734" />
    <path d="M 198.961 -274.484 L 199.146 -274.484" />
    <path d="M 198.076 -274.734 L 198.076 -274.484" />
    <path d="M 198.961 -274.734 L 198.961 -274.484" />
    <path d="M 199.146 -269.914 L 199.146 -274.484" />
    <path d="M 194.311 -274.454 L 195.646 -274.454" />
    <path d="M 197.876 -274.184 L 197.876 -274.484" />
    <path d="M 195.646 -274.184 L 197.876 -274.184" />
    <path d="M 195.646 -274.184 L 195.646 -274.454" />
    <path d="M 194.311 -273.556 L 193.887 -273.556" />
    <path d="M 194.311 -272.446 L 193.881 -272.446" />
    <path d="M 194.436 -270.705 L 193.871 -270.705" />
    <path d="M 194.001 -270.705 L 194.001 -270.79" />
    <path d="M 198.076 -274.484 L 197.876 -274.484" />
    <path d="M 194.311 -271.375 L 193.875 -271.375" />
    <path d="M 194.436 -269.914 L 194.436 -270.705" />
    <path d="M 194.001 -270.79 L 193.871 -270.79" />
    <path d="M 199.176 -260.634 L 199.176 -266.064" />
    <path d="M 199.176 -266.484 L 199.176 -269.914" />
    <path d="M 195.406 -260.634 L 195.406 -266.024" />
    <path d="M 195.306 -260.634 L 195.306 -266.024" />
    <path d="M 194.436 -269.914 L 193.863 -269.914" />
    <path d="M 192.463 -269.914 L 192.276 -269.914" />
    <path d="M 197.796 -266.434 L 194.106 -266.434" />
    <path d="M 192.706 -266.874 L 192.706 -266.024" />
    <path d="M 195.406 -266.024 L 195.406 -266.064" />
    <path d="M 197.796 -266.484 L 197.966 -266.484" />
    <path d="M 198.876 -266.484 L 199.176 -266.484" />
    <path d="M 198.876 -266.484 L 198.876 -266.064" />
    <path d="M 197.966 -266.484 L 197.966 -266.064" />
    <path d="M 195.406 -266.064 L 197.966 -266.064" />
    <path d="M 198.876 -266.064 L 199.176 -266.064" />
    <path d="M 187.816 -270.244 L 187.966 -270.244" />
    <path d="M 186.05 -270.524 L 186.149 -270.524" />
    <path d="M 186.149 -270.524 L 186.149 -270.664" />
    <path d="M 199.501 -260.294 L 199.501 -259.774" />
    <path d="M 199.501 -259.774 L 200.106 -259.774" />
    <path d="M 186.05 -264.324 L 188.386 -264.324" />
    <path d="M 186.276 -260.634 L 186.276 -260.294" />
    <path d="M 195.132 -266.237 L 195.382 -266.237" />
    <path d="M 195.382 -266.237 L 195.382 -266.367" />
    <path d="M 195.382 -266.367 L 195.132 -266.367" />
    <path d="M 195.132 -266.367 L 195.132 -266.237" />
    <path d="M 195.482 -266.237 L 195.732 -266.237" />
    <path d="M 195.732 -266.237 L 195.732 -266.367" />
    <path d="M 195.732 -266.367 L 195.482 -266.367" />
    <path d="M 195.482 -266.367 L 195.482 -266.237" />
    <path d="M 196.951 -266.237 L 197.201 -266.237" />
    <path d="M 197.201 -266.237 L 197.201 -266.367" />
    <path d="M 197.201 -266.367 L 196.951 -266.367" />
    <path d="M 196.951 -266.367 L 196.951 -266.237" />
    <path d="M 197.3 -266.237 L 197.55 -266.237" />
    <path d="M 197.55 -266.237 L 197.55 -266.367" />
    <path d="M 197.55 -266.367 L 197.3 -266.367" />
    <path d="M 197.3 -266.367 L 197.3 -266.237" />
    <path d="M 189.456 -270.457 L 190.414 -270.455" />
    <path d="M 191.584 -270.453 L 192.463 -270.451" />
    <path d="M 188.806 -270.458 L 188.496 -270.458" />
    <path d="M 193.763 -270.449 L 193.879 -270.449" />
    <path d="M 193.552 -270.308 L 193.552 -270.449" />
    <path d="M 193.766 -270.449 L 193.552 -270.449" />
    <path d="M 193.766 -270.308 L 193.552 -270.308" />
    <path d="M 193.218 -260.004 L 193.218 -260.056" />
    <path d="M 193.206 -260.056 L 193.206 -260.004" />
    <path d="M 193.206 -260.056 L 193.256 -260.056" />
    <path d="M 193.256 -260.056 L 193.256 -260.054" />
    <path d="M 186.236 -260.064 L 187.356 -260.064" />
    <path d="M 186.276 -260.054 L 187.316 -260.054" />
    <path d="M 186.256 -260.294 L 186.276 -260.294" />
    <path d="M 186.259 -260.37 L 186.276 -260.37" />
    <path d="M 186.259 -260.294 L 186.276 -260.294" />
    <path d="M 186.259 -260.37 L 186.259 -260.294" />
    <path d="M 186.236 -260.284 L 186.236 -260.064" />
    <path d="M 186.226 -260.29 L 186.226 -260.056" />
    <path d="M 186.238 -260.004 L 186.238 -260.056" />
    <path d="M 186.226 -260.056 L 186.226 -260.004" />
    <path d="M 186.226 -260.056 L 186.276 -260.056" />
    <path d="M 186.276 -260.056 L 186.276 -260.054" />
    <path d="M 188.466 -260.064 L 189.666 -260.064" />
    <path d="M 188.506 -260.054 L 189.626 -260.054" />
    <path d="M 188.486 -260.294 L 188.506 -260.294" />
    <path d="M 188.489 -260.37 L 188.506 -260.37" />
    <path d="M 188.489 -260.294 L 188.506 -260.294" />
    <path d="M 188.489 -260.37 L 188.489 -260.294" />
    <path d="M 188.466 -260.284 L 188.466 -260.064" />
    <path d="M 188.456 -260.29 L 188.456 -260.056" />
    <path d="M 188.468 -260.004 L 188.468 -260.056" />
    <path d="M 188.456 -260.056 L 188.456 -260.004" />
    <path d="M 188.456 -260.056 L 188.506 -260.056" />
    <path d="M 188.506 -260.056 L 188.506 -260.054" />
    <path d="M 190.776 -260.064 L 192.086 -260.064" />
    <path d="M 190.816 -260.054 L 192.046 -260.054" />
    <path d="M 190.796 -260.294 L 190.816 -260.294" />
    <path d="M 190.799 -260.37 L 190.816 -260.37" />
    <path d="M 190.799 -260.294 L 190.816 -260.294" />
    <path d="M 190.799 -260.37 L 190.799 -260.294" />
    <path d="M 190.776 -260.284 L 190.776 -260.064" />
    <path d="M 190.766 -260.29 L 190.766 -260.056" />
    <path d="M 190.778 -260.004 L 190.778 -260.056" />
    <path d="M 190.766 -260.056 L 190.766 -260.004" />
    <path d="M 190.766 -260.056 L 190.816 -260.056" />
    <path d="M 190.816 -260.056 L 190.816 -260.054" />
    <path d="M 193.196 -260.064 L 193.856 -260.064" />
    <path d="M 193.236 -260.054 L 193.816 -260.054" />
    <path d="M 193.216 -260.294 L 193.236 -260.294" />
    <path d="M 193.219 -260.37 L 193.236 -260.37" />
    <path d="M 193.219 -260.294 L 193.236 -260.294" />
    <path d="M 193.219 -260.37 L 193.219 -260.294" />
    <path d="M 193.196 -260.284 L 193.196 -260.064" />
    <path d="M 193.186 -260.29 L 193.186 -260.056" />
    <path d="M 193.198 -260.004 L 193.198 -260.056" />
    <path d="M 193.186 -260.056 L 193.186 -260.004" />
    <path d="M 193.186 -260.056 L 193.236 -260.056" />
    <path d="M 193.236 -260.056 L 193.236 -260.054" />
    <path d="M 194.966 -260.064 L 195.806 -260.064" />
    <path d="M 195.006 -260.054 L 195.766 -260.054" />
    <path d="M 194.986 -260.294 L 195.006 -260.294" />
    <path d="M 194.989 -260.37 L 195.006 -260.37" />
    <path d="M 194.989 -260.294 L 195.006 -260.294" />
    <path d="M 194.989 -260.37 L 194.989 -260.294" />
    <path d="M 194.966 -260.284 L 194.966 -260.064" />
    <path d="M 194.956 -260.29 L 194.956 -260.056" />
    <path d="M 194.968 -260.004 L 194.968 -260.056" />
    <path d="M 194.956 -260.056 L 194.956 -260.004" />
    <path d="M 194.956 -260.056 L 195.006 -260.056" />
    <path d="M 195.006 -260.056 L 195.006 -260.054" />
    <path d="M 196.916 -260.064 L 197.646 -260.064" />
    <path d="M 196.956 -260.054 L 197.606 -260.054" />
    <path d="M 196.936 -260.294 L 196.956 -260.294" />
    <path d="M 196.939 -260.37 L 196.956 -260.37" />
    <path d="M 196.939 -260.294 L 196.956 -260.294" />
    <path d="M 196.939 -260.37 L 196.939 -260.294" />
    <path d="M 196.916 -260.284 L 196.916 -260.064" />
    <path d="M 196.906 -260.29 L 196.906 -260.056" />
    <path d="M 196.918 -260.004 L 196.918 -260.056" />
    <path d="M 196.906 -260.056 L 196.906 -260.004" />
    <path d="M 196.906 -260.056 L 196.956 -260.056" />
    <path d="M 196.956 -260.056 L 196.956 -260.054" />
    <path d="M 198.756 -260.064 L 199.516 -260.064" />
    <path d="M 198.796 -260.054 L 199.476 -260.054" />
    <path d="M 198.776 -260.294 L 198.796 -260.294" />
    <path d="M 198.779 -260.37 L 198.796 -260.37" />
    <path d="M 198.779 -260.294 L 198.796 -260.294" />
    <path d="M 198.779 -260.37 L 198.779 -260.294" />
    <path d="M 198.756 -260.284 L 198.756 -260.064" />
    <path d="M 198.746 -260.29 L 198.746 -260.056" />
    <path d="M 198.758 -260.004 L 198.758 -260.056" />
    <path d="M 198.746 -260.056 L 198.746 -260.004" />
    <path d="M 198.746 -260.056 L 198.796 -260.056" />
    <path d="M 198.796 -260.056 L 198.796 -260.054" />
    <path d="M 186.05 -260.004 L 186.238 -260.004" />
    <path d="M 187.335 -260.294 L 187.315 -260.294" />
    <path d="M 187.334 -260.37 L 187.316 -260.37" />
    <path d="M 187.334 -260.294 L 187.316 -260.294" />
    <path d="M 187.334 -260.37 L 187.334 -260.294" />
    <path d="M 187.356 -260.285 L 187.356 -260.064" />
    <path d="M 187.366 -260.29 L 187.366 -260.056" />
    <path d="M 187.354 -260.004 L 187.354 -260.056" />
    <path d="M 187.366 -260.056 L 187.366 -260.004" />
    <path d="M 187.366 -260.056 L 187.316 -260.056" />
    <path d="M 187.316 -260.056 L 187.316 -260.054" />
    <path d="M 187.354 -260.004 L 188.468 -260.004" />
    <path d="M 189.645 -260.294 L 189.625 -260.294" />
    <path d="M 189.644 -260.37 L 189.626 -260.37" />
    <path d="M 189.644 -260.294 L 189.626 -260.294" />
    <path d="M 189.644 -260.37 L 189.644 -260.294" />
    <path d="M 189.666 -260.285 L 189.666 -260.064" />
    <path d="M 189.676 -260.29 L 189.676 -260.056" />
    <path d="M 189.664 -260.004 L 189.664 -260.056" />
    <path d="M 189.676 -260.056 L 189.676 -260.004" />
    <path d="M 189.676 -260.056 L 189.626 -260.056" />
    <path d="M 189.626 -260.056 L 189.626 -260.054" />
    <path d="M 189.664 -260.004 L 190.778 -260.004" />
    <path d="M 192.065 -260.294 L 192.045 -260.294" />
    <path d="M 192.064 -260.37 L 192.046 -260.37" />
    <path d="M 192.064 -260.294 L 192.046 -260.294" />
    <path d="M 192.064 -260.37 L 192.064 -260.294" />
    <path d="M 192.086 -260.285 L 192.086 -260.064" />
    <path d="M 192.096 -260.29 L 192.096 -260.056" />
    <path d="M 192.084 -260.004 L 192.084 -260.056" />
    <path d="M 192.096 -260.056 L 192.096 -260.004" />
    <path d="M 192.096 -260.056 L 192.046 -260.056" />
    <path d="M 192.046 -260.056 L 192.046 -260.054" />
    <path d="M 192.084 -260.004 L 193.208 -260.004" />
    <path d="M 193.835 -260.294 L 193.815 -260.294" />
    <path d="M 193.834 -260.37 L 193.816 -260.37" />
    <path d="M 193.834 -260.294 L 193.816 -260.294" />
    <path d="M 193.834 -260.37 L 193.834 -260.294" />
    <path d="M 193.856 -260.285 L 193.856 -260.064" />
    <path d="M 193.866 -260.29 L 193.866 -260.056" />
    <path d="M 193.854 -260.004 L 193.854 -260.056" />
    <path d="M 193.866 -260.056 L 193.866 -260.004" />
    <path d="M 193.866 -260.056 L 193.816 -260.056" />
    <path d="M 193.816 -260.056 L 193.816 -260.054" />
    <path d="M 193.854 -260.004 L 194.968 -260.004" />
    <path d="M 195.785 -260.294 L 195.765 -260.294" />
    <path d="M 195.784 -260.37 L 195.766 -260.37" />
    <path d="M 195.784 -260.294 L 195.766 -260.294" />
    <path d="M 195.784 -260.37 L 195.784 -260.294" />
    <path d="M 195.806 -260.285 L 195.806 -260.064" />
    <path d="M 195.816 -260.29 L 195.816 -260.056" />
    <path d="M 195.804 -260.004 L 195.804 -260.056" />
    <path d="M 195.816 -260.056 L 195.816 -260.004" />
    <path d="M 195.816 -260.056 L 195.766 -260.056" />
    <path d="M 195.766 -260.056 L 195.766 -260.054" />
    <path d="M 195.804 -260.004 L 196.918 -260.004" />
    <path d="M 197.625 -260.294 L 197.605 -260.294" />
    <path d="M 197.624 -260.37 L 197.606 -260.37" />
    <path d="M 197.624 -260.294 L 197.606 -260.294" />
    <path d="M 197.624 -260.37 L 197.624 -260.294" />
    <path d="M 197.646 -260.285 L 197.646 -260.064" />
    <path d="M 197.656 -260.29 L 197.656 -260.056" />
    <path d="M 197.644 -260.004 L 197.644 -260.056" />
    <path d="M 197.656 -260.056 L 197.656 -260.004" />
    <path d="M 197.656 -260.056 L 197.606 -260.056" />
    <path d="M 197.606 -260.056 L 197.606 -260.054" />
    <path d="M 197.644 -260.004 L 198.758 -260.004" />
    <path d="M 187.484 -260.318 L 187.799 -260.318" />
    <path d="M 188.034 -260.318 L 188.349 -260.318" />
    <path d="M 187.484 -260.322 L 187.799 -260.322" />
    <path d="M 188.034 -260.322 L 188.349 -260.322" />
    <path d="M 187.484 -260.344 L 187.799 -260.344" />
    <path d="M 188.034 -260.344 L 188.349 -260.344" />
    <path d="M 187.484 -260.362 L 187.799 -260.362" />
    <path d="M 188.034 -260.362 L 188.349 -260.362" />
    <path d="M 187.484 -260.366 L 187.799 -260.366" />
    <path d="M 188.034 -260.366 L 188.349 -260.366" />
    <path d="M 187.484 -260.34 L 187.799 -260.34" />
    <path d="M 188.034 -260.34 L 188.349 -260.34" />
    <path d="M 192.214 -260.318 L 192.529 -260.318" />
    <path d="M 192.764 -260.318 L 193.079 -260.318" />
    <path d="M 192.214 -260.322 L 192.529 -260.322" />
    <path d="M 192.764 -260.322 L 193.079 -260.322" />
    <path d="M 192.214 -260.344 L 192.529 -260.344" />
    <path d="M 192.764 -260.344 L 193.079 -260.344" />
    <path d="M 192.214 -260.362 L 192.529 -260.362" />
    <path d="M 192.764 -260.362 L 193.079 -260.362" />
    <path d="M 192.214 -260.366 L 192.529 -260.366" />
    <path d="M 192.764 -260.366 L 193.079 -260.366" />
    <path d="M 192.214 -260.34 L 192.529 -260.34" />
    <path d="M 192.764 -260.34 L 193.079 -260.34" />
    <path d="M 193.984 -260.318 L 194.299 -260.318" />
    <path d="M 194.534 -260.318 L 194.849 -260.318" />
    <path d="M 193.984 -260.322 L 194.299 -260.322" />
    <path d="M 194.534 -260.322 L 194.849 -260.322" />
    <path d="M 193.984 -260.344 L 194.299 -260.344" />
    <path d="M 194.534 -260.344 L 194.849 -260.344" />
    <path d="M 193.984 -260.362 L 194.299 -260.362" />
    <path d="M 194.534 -260.362 L 194.849 -260.362" />
    <path d="M 193.984 -260.366 L 194.299 -260.366" />
    <path d="M 194.534 -260.366 L 194.849 -260.366" />
    <path d="M 193.984 -260.34 L 194.299 -260.34" />
    <path d="M 194.534 -260.34 L 194.849 -260.34" />
    <path d="M 195.934 -260.318 L 196.249 -260.318" />
    <path d="M 196.484 -260.318 L 196.799 -260.318" />
    <path d="M 195.934 -260.322 L 196.249 -260.322" />
    <path d="M 196.484 -260.322 L 196.799 -260.322" />
    <path d="M 195.934 -260.344 L 196.249 -260.344" />
    <path d="M 196.484 -260.344 L 196.799 -260.344" />
    <path d="M 195.934 -260.362 L 196.249 -260.362" />
    <path d="M 196.484 -260.362 L 196.799 -260.362" />
    <path d="M 195.934 -260.366 L 196.249 -260.366" />
    <path d="M 196.484 -260.366 L 196.799 -260.366" />
    <path d="M 195.934 -260.34 L 196.249 -260.34" />
    <path d="M 196.484 -260.34 L 196.799 -260.34" />
    <path d="M 197.774 -260.318 L 198.089 -260.318" />
    <path d="M 198.324 -260.318 L 198.639 -260.318" />
    <path d="M 197.774 -260.322 L 198.089 -260.322" />
    <path d="M 198.324 -260.322 L 198.639 -260.322" />
    <path d="M 197.774 -260.344 L 198.089 -260.344" />
    <path d="M 198.324 -260.344 L 198.639 -260.344" />
    <path d="M 197.774 -260.362 L 198.089 -260.362" />
    <path d="M 198.324 -260.362 L 198.639 -260.362" />
    <path d="M 197.774 -260.366 L 198.089 -260.366" />
    <path d="M 198.324 -260.366 L 198.639 -260.366" />
    <path d="M 197.774 -260.34 L 198.089 -260.34" />
    <path d="M 198.324 -260.34 L 198.639 -260.34" />
    <path d="M 189.789 -260.318 L 190.104 -260.318" />
    <path d="M 190.339 -260.318 L 190.654 -260.318" />
    <path d="M 189.789 -260.322 L 190.104 -260.322" />
    <path d="M 190.339 -260.322 L 190.654 -260.322" />
    <path d="M 189.789 -260.344 L 190.104 -260.344" />
    <path d="M 190.339 -260.344 L 190.654 -260.344" />
    <path d="M 189.789 -260.362 L 190.104 -260.362" />
    <path d="M 190.339 -260.362 L 190.654 -260.362" />
    <path d="M 189.789 -260.366 L 190.104 -260.366" />
    <path d="M 190.339 -260.366 L 190.654 -260.366" />
    <path d="M 189.789 -260.34 L 190.104 -260.34" />
    <path d="M 190.339 -260.34 L 190.654 -260.34" />
    <path d="M 193.891 -274.19 L 193.336 -274.19" />
    <path d="M 193.875 -271.375 L 193.881 -272.446" />
    <path d="M 193.887 -273.556 L 193.891 -274.19" />
    <path d="M 193.62 -270.685 L 193.621 -270.8" />
    <path d="M 193.61 -270.695 L 193.61 -270.76" />
    <path d="M 188.858 -270.569 L 188.858 -270.708" />
    <path d="M 188.848 -270.7 L 188.733 -270.701" />
    <path d="M 188.808 -270.71 L 188.743 -270.711" />
    <path d="M 188.858 -270.708 L 188.808 -270.708" />
    <path d="M 188.848 -270.569 L 188.848 -270.7" />
    <path d="M 188.808 -270.708 L 188.808 -270.71" />
    <path d="M 188.743 -270.912 L 188.743 -270.711" />
    <path d="M 188.733 -270.902 L 188.733 -270.701" />
    <path d="M 189.384 -270.567 L 189.384 -270.707" />
    <path d="M 190.477 -270.703 L 190.427 -270.703" />
    <path d="M 189.394 -270.57 L 189.384 -270.57" />
    <path d="M 188.848 -270.571 L 188.858 -270.571" />
    <path d="M 189.394 -270.567 L 189.394 -270.699" />
    <path d="M 190.477 -270.563 L 190.477 -270.703" />
    <path d="M 189.434 -270.706 L 189.434 -270.708" />
    <path d="M 189.384 -270.707 L 189.434 -270.706" />
    <path d="M 189.394 -270.699 L 190.467 -270.695" />
    <path d="M 190.427 -270.703 L 190.427 -270.705" />
    <path d="M 191.543 -270.56 L 191.543 -270.692" />
    <path d="M 190.467 -270.563 L 190.467 -270.695" />
    <path d="M 191.533 -270.56 L 191.533 -270.7" />
    <path d="M 190.467 -270.566 L 190.477 -270.566" />
    <path d="M 191.533 -270.7 L 191.583 -270.7" />
    <path d="M 191.583 -270.7 L 191.583 -270.702" />
    <path d="M 191.543 -270.563 L 191.533 -270.563" />
    <path d="M 192.473 -270.697 L 192.523 -270.697" />
    <path d="M 192.473 -270.697 L 192.473 -270.699" />
    <path d="M 192.499 -270.698 L 192.499 -270.742" />
    <path d="M 192.523 -270.742 L 192.523 -270.698" />
    <path d="M 192.514 -270.625 L 192.523 -270.629" />
    <path d="M 192.514 -270.61 L 192.523 -270.606" />
    <path d="M 192.522 -270.556 L 192.523 -270.697" />
    <path d="M 192.512 -270.556 L 192.513 -270.689" />
    <path d="M 192.522 -270.561 L 192.512 -270.561" />
    <path d="M 191.583 -270.702 L 192.473 -270.699" />
    <path d="M 191.583 -270.692 L 192.513 -270.689" />
    <path d="M 193.547 -270.693 L 193.497 -270.694" />
    <path d="M 193.521 -270.738 L 193.497 -270.739" />
    <path d="M 193.497 -270.739 L 193.497 -270.695" />
    <path d="M 193.505 -270.622 L 193.497 -270.626" />
    <path d="M 193.505 -270.607 L 193.496 -270.603" />
    <path d="M 193.496 -270.553 L 193.497 -270.694" />
    <path d="M 193.506 -270.553 L 193.507 -270.686" />
    <path d="M 193.496 -270.558 L 193.506 -270.558" />
    <path d="M 193.507 -270.686 L 193.62 -270.685" />
    <path d="M 193.547 -270.695 L 193.61 -270.695" />
    <path d="M 190.427 -270.705 L 189.434 -270.708" />
    <path d="M 192.523 -270.74 L 193.497 -270.736" />
    <path d="M 190.624 -270.537 L 190.888 -270.537" />
    <path d="M 191.123 -270.536 L 191.386 -270.535" />
    <path d="M 190.625 -270.745 L 191.386 -270.742" />
    <path d="M 189.006 -270.75 L 189.237 -270.749" />
    <path d="M 189.005 -270.543 L 189.237 -270.542" />
    <path d="M 192.46 -270.481 L 192.46 -270.556" />
    <path d="M 192.46 -270.556 L 192.48 -270.556" />
    <path d="M 192.48 -270.556 L 192.48 -270.481" />
    <path d="M 193.558 -270.477 L 193.558 -270.553" />
    <path d="M 193.558 -270.553 L 193.538 -270.553" />
    <path d="M 193.538 -270.553 L 193.538 -270.477" />
    <path d="M 193.128 -270.53 L 193.388 -270.529" />
    <path d="M 192.631 -270.531 L 192.893 -270.53" />
    <path d="M 193.547 -270.695 L 193.547 -270.693" />
    <path d="M 193.521 -270.738 L 193.521 -270.693" />
    <path d="M 193.627 -273.504 L 193.627 -273.554" />
    <path d="M 193.627 -273.554 L 193.625 -273.554" />
    <path d="M 193.58 -272.645 L 193.584 -273.357" />
    <path d="M 193.625 -273.554 L 193.627 -273.957" />
    <path d="M 193.635 -273.554 L 193.637 -273.967" />
    <path d="M 193.627 -273.957 L 193.056 -273.956" />
    <path d="M 193.637 -273.967 L 193.066 -273.966" />
    <path d="M 193.202 -275.309 L 193.07 -275.309" />
    <path d="M 193.202 -275.319 L 193.062 -275.319" />
    <path d="M 193.062 -275.269 L 193.06 -275.269" />
    <path d="M 193.056 -273.956 L 193.06 -275.269" />
    <path d="M 193.062 -275.269 L 193.062 -275.319" />
    <path d="M 193.07 -275.309 L 193.066 -273.966" />
    <path d="M 193.79 -273.118 L 193.791 -273.356" />
    <path d="M 193.838 -273.117 L 193.839 -273.356" />
    <path d="M 193.624 -271.452 L 193.623 -271.347" />
    <path d="M 193.614 -271.452 L 193.614 -271.387" />
    <path d="M 193.616 -271.387 L 193.615 -271.337" />
    <path d="M 193.623 -271.347 L 193.756 -271.346" />
    <path d="M 193.615 -271.337 L 193.756 -271.336" />
    <path d="M 193.614 -271.387 L 193.616 -271.387" />
    <path d="M 193.751 -271.346 L 193.751 -271.336" />
    <path d="M 193.629 -272.488 L 193.629 -272.311" />
    <path d="M 193.619 -272.448 L 193.619 -272.311" />
    <path d="M 193.622 -272.498 L 193.621 -272.448" />
    <path d="M 193.761 -272.487 L 193.629 -272.488" />
    <path d="M 193.761 -272.497 L 193.622 -272.498" />
    <path d="M 193.621 -272.448 L 193.619 -272.448" />
    <path d="M 193.614 -271.452 L 193.619 -272.311" />
    <path d="M 193.624 -271.452 L 193.629 -272.311" />
    <path d="M 193.616 -271.361 L 193.572 -271.361" />
    <path d="M 193.572 -271.361 L 193.571 -271.337" />
    <path d="M 193.571 -271.337 L 193.615 -271.337" />
    <path d="M 193.833 -271.398 L 193.757 -271.398" />
    <path d="M 193.757 -271.398 L 193.757 -271.378" />
    <path d="M 193.757 -271.378 L 193.833 -271.378" />
    <path d="M 193.62 -270.685 L 193.621 -270.8" />
    <path d="M 193.61 -270.695 L 193.61 -270.76" />
    <path d="M 193.612 -270.76 L 193.613 -270.81" />
    <path d="M 193.621 -270.8 L 193.753 -270.8" />
    <path d="M 193.613 -270.81 L 193.753 -270.81" />
    <path d="M 193.61 -270.76 L 193.612 -270.76" />
    <path d="M 193.748 -270.8 L 193.748 -270.81" />
    <path d="M 193.613 -270.786 L 193.569 -270.787" />
    <path d="M 193.569 -270.787 L 193.569 -270.811" />
    <path d="M 193.569 -270.811 L 193.613 -270.81" />
    <path d="M 193.573 -271.337 L 193.571 -270.811" />
    <path d="M 193.778 -270.918 L 193.78 -271.227" />
    <path d="M 193.826 -270.918 L 193.828 -271.227" />
    <path d="M 193.789 -272.883 L 193.787 -272.644" />
    <path d="M 193.811 -270.567 L 193.858 -270.568" />
    <path d="M 193.829 -270.748 L 193.753 -270.748" />
    <path d="M 193.753 -270.748 L 193.753 -270.768" />
    <path d="M 193.753 -270.768 L 193.829 -270.768" />
    <path d="M 192.523 -270.742 L 192.499 -270.742" />
    <path d="M 186.748 -264.294 L 186.05 -264.294" />
    <path d="M 186.748 -264.319 L 186.05 -264.319" />
    <path d="M 186.903 -264.324 L 186.903 -260.634" />
    <path d="M 186.828 -264.324 L 186.828 -260.634" />
    <path d="M 186.823 -264.324 L 186.823 -260.634" />
    <path d="M 186.748 -264.324 L 186.748 -260.634" />
    <path d="M 190.311 -264.294 L 190.311 -264.419" />
    <path d="M 189.426 -264.294 L 189.426 -264.419" />
    <path d="M 186.903 -264.294 L 189.426 -264.294" />
    <path d="M 186.903 -264.319 L 189.426 -264.319" />
    <path d="M 190.311 -264.294 L 191.366 -264.294" />
    <path d="M 190.311 -264.319 L 191.366 -264.319" />
    <path d="M 188.386 -264.419 L 189.426 -264.419" />
    <path d="M 188.386 -264.394 L 189.426 -264.394" />
    <path d="M 190.311 -264.419 L 191.366 -264.419" />
    <path d="M 190.311 -264.394 L 191.366 -264.394" />
    <path d="M 188.546 -266.484 L 188.886 -266.484" />
    <path d="M 188.886 -266.484 L 188.886 -266.064" />
    <path d="M 188.886 -266.064 L 188.546 -266.064" />
    <path d="M 188.926 -268.529 L 188.926 -268.404" />
    <path d="M 189.686 -268.529 L 189.686 -268.404" />
    <path d="M 188.926 -268.404 L 188.236 -268.404" />
    <path d="M 188.926 -268.429 L 188.236 -268.429" />
    <path d="M 188.926 -268.529 L 188.236 -268.529" />
    <path d="M 188.926 -268.504 L 188.236 -268.504" />
    <path d="M 194.106 -266.434 L 194.106 -266.024" />
    <path d="M 191.366 -262.104 L 191.646 -262.104" />
    <path d="M 191.646 -263.144 L 191.366 -263.144" />
    <path d="M 197.796 -266.484 L 197.796 -266.434" />
    <path d="M 192.517 -269.884 L 192.221 -269.884" />
    <path d="M 193.863 -269.884 L 197.946 -269.884" />
    <path d="M 193.863 -269.909 L 197.921 -269.909" />
    <path d="M 194.436 -270.009 L 196.891 -270.009" />
    <path d="M 194.436 -269.984 L 196.921 -269.984" />
    <path d="M 197.021 -270.009 L 197.946 -270.009" />
    <path d="M 196.996 -269.984 L 197.921 -269.984" />
    <path d="M 198.991 -271.494 L 199.146 -271.494" />
    <path d="M 198.991 -271.469 L 199.146 -271.469" />
    <path d="M 198.991 -271.369 L 199.146 -271.369" />
    <path d="M 198.991 -271.394 L 199.146 -271.394" />
    <path d="M 198.991 -271.369 L 198.991 -271.494" />
    <path d="M 197.946 -270.009 L 197.946 -269.884" />
    <path d="M 197.921 -270.009 L 197.921 -269.884" />
    <path d="M 189.786 -266.484 L 189.786 -266.064" />
    <path d="M 190.276 -266.359 L 191.186 -266.359" />
    <path d="M 199.146 -269.914 L 199.176 -269.914" />
    <path d="M 189.005 -270.495 L 189.237 -270.494" />
    <path d="M 190.624 -270.489 L 190.887 -270.489" />
    <path d="M 191.122 -270.488 L 191.386 -270.487" />
    <path d="M 193.128 -270.482 L 193.388 -270.481" />
    <path d="M 192.631 -270.483 L 192.893 -270.482" />
    <path d="M 193.837 -272.882 L 193.835 -272.644" />
    <path d="M 192.276 -269.914 L 192.221 -269.914" />
    <path d="M 191.366 -262.104 L 191.366 -263.144" />
    <path d="M 191.646 -262.104 L 191.646 -263.144" />
    <path d="M 190.756 -267.494 L 191.766 -267.494" />
    <path d="M 192.096 -270.064 L 192.096 -266.874" />
    <path d="M 192.221 -266.874 L 192.221 -270.064" />
    <path d="M 189.786 -268.529 L 189.786 -270.064" />
    <path d="M 189.786 -266.484 L 189.786 -267.544" />
    <path d="M 189.811 -266.484 L 189.811 -267.544" />
    <path d="M 189.786 -268.304 L 189.786 -268.404" />
    <path d="M 189.811 -268.304 L 189.811 -268.429" />
    <path d="M 189.911 -266.484 L 189.911 -267.544" />
    <path d="M 189.811 -268.504 L 189.811 -270.064" />
    <path d="M 189.911 -268.304 L 189.911 -270.064" />
    <path d="M 189.886 -266.484 L 189.886 -267.544" />
    <path d="M 189.911 -267.544 L 189.786 -267.544" />
    <path d="M 189.886 -268.304 L 189.886 -270.064" />
    <path d="M 189.911 -268.304 L 189.786 -268.304" />
    <path d="M 190.756 -267.394 L 191.666 -267.394" />
    <path d="M 190.781 -267.419 L 191.691 -267.419" />
    <path d="M 190.781 -267.469 L 191.741 -267.469" />
    <path d="M 190.211 -270.064 L 190.211 -269.319" />
    <path d="M 192.071 -270.064 L 192.071 -266.874" />
    <path d="M 190.186 -270.064 L 190.186 -269.344" />
    <path d="M 192.221 -266.874 L 192.221 -270.064" />
    <path d="M 192.196 -266.874 L 192.196 -270.064" />
    <path d="M 191.776 -267.059 L 191.776 -267.494" />
    <path d="M 191.691 -266.484 L 191.691 -267.419" />
    <path d="M 191.666 -266.484 L 191.666 -267.394" />
    <path d="M 191.751 -267.059 L 191.751 -267.469" />
    <path d="M 189.686 -268.429 L 189.811 -268.429" />
    <path d="M 189.686 -268.504 L 189.811 -268.504" />
    <path d="M 189.686 -268.529 L 189.786 -268.529" />
    <path d="M 189.686 -268.404 L 189.786 -268.404" />
    <path d="M 190.756 -267.394 L 190.756 -267.494" />
    <path d="M 190.781 -267.394 L 190.781 -267.494" />
    <path d="M 191.701 -267.059 L 192.071 -267.059" />
    <path d="M 191.701 -267.034 L 192.071 -267.034" />
    <path d="M 192.517 -270.463 L 192.517 -269.884" />
    <path d="M 193.532 -270.308 L 193.532 -270.477" />
    <path d="M 190.211 -269.319 L 189.911 -269.319" />
    <path d="M 193.552 -270.308 L 193.532 -270.308" />
    <path d="M 193.863 -269.914 L 193.863 -269.884" />
    <path d="M 190.186 -269.344 L 189.911 -269.344" />
    <path d="M 194.311 -272.169 L 197.021 -272.169" />
    <path d="M 196.896 -270.159 L 197.021 -270.159" />
    <path d="M 195.886 -271.109 L 195.986 -271.109" />
    <path d="M 195.886 -271.134 L 195.986 -271.134" />
    <path d="M 194.311 -272.144 L 196.996 -272.144" />
    <path d="M 195.986 -272.019 L 196.896 -272.019" />
    <path d="M 195.961 -272.044 L 196.921 -272.044" />
    <path d="M 195.886 -271.794 L 195.886 -271.109" />
    <path d="M 195.911 -271.819 L 195.911 -271.134" />
    <path d="M 195.986 -272.019 L 195.986 -271.109" />
    <path d="M 195.961 -272.044 L 195.961 -271.134" />
    <path d="M 196.921 -272.044 L 196.921 -270.919" />
    <path d="M 196.896 -272.019 L 196.896 -270.919" />
    <path d="M 196.996 -272.144 L 196.996 -271.469" />
    <path d="M 197.021 -272.169 L 197.021 -271.469" />
    <path d="M 197.021 -271.469 L 197.021 -270.919" />
    <path d="M 196.896 -270.919 L 197.021 -270.919" />
    <path d="M 196.996 -271.469 L 196.996 -270.919" />
    <path d="M 197.021 -271.494 L 198.106 -271.494" />
    <path d="M 197.871 -271.324 L 197.946 -271.324" />
    <path d="M 197.021 -271.469 L 198.106 -271.469" />
    <path d="M 197.946 -271.369 L 198.106 -271.369" />
    <path d="M 197.871 -271.299 L 197.946 -271.299" />
    <path d="M 195.886 -271.794 L 195.671 -271.794" />
    <path d="M 195.221 -271.794 L 194.311 -271.794" />
    <path d="M 197.921 -271.394 L 198.106 -271.394" />
    <path d="M 195.196 -271.819 L 194.311 -271.819" />
    <path d="M 195.911 -271.819 L 195.696 -271.819" />
    <path d="M 196.896 -270.159 L 196.896 -270.009" />
    <path d="M 196.921 -270.159 L 196.921 -269.984" />
    <path d="M 197.021 -270.159 L 197.021 -270.009" />
    <path d="M 196.996 -270.159 L 196.996 -269.984" />
    <path d="M 198.106 -271.369 L 198.106 -271.494" />
    <path d="M 197.946 -271.299 L 197.946 -271.369" />
    <path d="M 197.921 -271.324 L 197.921 -271.394" />
    <path d="M 197.871 -271.299 L 197.871 -271.469" />
    <path d="M 197.871 -271.299 L 197.021 -271.299" />
    <path d="M 195.221 -272.019 L 195.671 -272.019" />
    <path d="M 195.196 -272.044 L 195.696 -272.044" />
    <path d="M 195.671 -271.794 L 195.671 -272.019" />
    <path d="M 195.696 -271.819 L 195.696 -272.044" />
    <path d="M 195.221 -271.794 L 195.221 -272.019" />
    <path d="M 195.196 -271.819 L 195.196 -272.044" />
    <path d="M 187.966 -270.244 L 187.966 -270.664" />
    <path d="M 186.936 -270.244 L 186.936 -270.664" />
    <path d="M 186.986 -270.751 L 186.986 -270.902" />
    <path d="M 186.936 -270.902 L 186.936 -270.904" />
    <path d="M 186.976 -270.751 L 186.976 -270.894" />
    <path d="M 187.766 -270.911 L 187.766 -270.75" />
    <path d="M 187.816 -270.913 L 187.816 -270.911" />
    <path d="M 187.776 -270.903 L 187.776 -270.749" />
    <path d="M 188.733 -270.902 L 187.776 -270.903" />
    <path d="M 188.743 -270.912 L 187.816 -270.913" />
    <path d="M 187.816 -270.911 L 187.766 -270.911" />
    <path d="M 186.937 -270.664 L 186.937 -270.74" />
    <path d="M 186.937 -270.74 L 186.957 -270.74" />
    <path d="M 186.957 -270.74 L 186.957 -270.664" />
    <path d="M 187.816 -270.664 L 187.816 -270.74" />
    <path d="M 187.816 -270.74 L 187.796 -270.74" />
    <path d="M 187.796 -270.74 L 187.796 -270.664" />
    <path d="M 186.936 -270.902 L 186.986 -270.902" />
    <path d="M 186.05 -270.904 L 186.936 -270.904" />
    <path d="M 186.05 -270.894 L 186.976 -270.894" />
    <path d="M 186.974 -270.942 L 186.974 -270.902" />
    <path d="M 186.974 -270.942 L 187.778 -270.942" />
    <path d="M 186.986 -270.902 L 186.986 -270.942" />
    <path d="M 187.766 -270.911 L 187.766 -270.942" />
    <path d="M 187.778 -270.911 L 187.778 -270.942" />
    <path d="M 186.976 -270.744 L 186.986 -270.744" />
    <path d="M 187.766 -270.755 L 187.776 -270.755" />
    <path d="M 187.816 -270.664 L 187.816 -270.244" />
    <path d="M 186.05 -270.244 L 186.936 -270.244" />
    <path d="M 186.149 -270.664 L 186.936 -270.664" />
    <path d="M 187.107 -270.667 L 187.645 -270.667" />
    <path d="M 187.107 -270.715 L 187.645 -270.715" />
    <path d="M 199.146 -275.4 L 199.146 -274.734" />
  </g>
</svg>
