<?xml version="1.0" encoding="UTF-8"?>
<svg xmlns="http://www.w3.org/2000/svg" viewBox="169.06 255.06 36.88 48.88" aria-hidden="true">
  <style>
    path,
    circle {
      fill: none;
      stroke: #007AFF;
      stroke-width: 1.55;
      stroke-linecap: round;
      stroke-linejoin: round;
      vector-effect: non-scaling-stroke;
    }
  </style>
  <g transform="scale(1 -1)">
    <path d="M 193.746 -276.523 L 193.476 -276.523" />
    <path d="M 193.476 -276.523 L 193.476 -276.423" />
    <path d="M 193.476 -276.423 L 193.336 -276.423" />
    <path d="M 199.246 -296.914 L 199.246 -289.754" />
    <path d="M 193.204 -276.365 L 193.073 -276.365" />
    <path d="M 193.204 -276.355 L 193.065 -276.355" />
    <path d="M 193.065 -276.405 L 193.063 -276.405" />
    <path d="M 193.065 -276.405 L 193.065 -276.355" />
    <path d="M 193.202 -276.365 L 193.202 -276.355" />
    <path d="M 186.05 -299.098 L 190.36 -299.098" />
    <path d="M 192.326 -299.018 L 193.12 -299.018" />
    <path d="M 190.35 -299.018 L 191.27 -299.018" />
    <path d="M 191.417 -299.098 L 192.179 -299.098" />
    <path d="M 194.176 -299.018 L 195.103 -299.018" />
    <path d="M 190.36 -299.018 L 190.36 -299.098" />
    <path d="M 191.06 -299.098 L 191.06 -299.018" />
    <path d="M 192.536 -299.098 L 192.536 -299.018" />
    <path d="M 192.91 -299.098 L 192.91 -299.018" />
    <path d="M 194.386 -299.098 L 194.386 -299.018" />
    <path d="M 193.267 -299.098 L 194.029 -299.098" />
    <path d="M 193.022 -276.208 L 193.021 -275.7" />
    <path d="M 193.277 -276.207 L 193.276 -275.7" />
    <path d="M 193.229 -276.208 L 193.228 -275.7" />
    <path d="M 187.656 -290.824 L 188.066 -290.824" />
    <path d="M 187.645 -285.043 L 188.066 -285.043" />
    <path d="M 199.146 -277.024 L 199.146 -275.7" />
    <path d="M 187.531 -284.623 L 189.024 -284.623" />
    <path d="M 190.204 -284.623 L 190.966 -284.623" />
    <path d="M 192.146 -284.623 L 192.919 -284.623" />
    <path d="M 193.336 -277.533 L 193.336 -276.423" />
    <path d="M 186.606 -296.914 L 186.606 -292.504" />
    <path d="M 186.606 -292.504 L 186.05 -292.504" />
    <path d="M 187.656 -292.034 L 186.05 -292.034" />
    <path d="M 187.645 -285.043 L 187.645 -284.793" />
    <path d="M 187.645 -284.793 L 187.531 -284.793" />
    <path d="M 187.531 -284.793 L 187.531 -284.623" />
    <path d="M 193.746 -277.024 L 193.746 -276.523" />
    <path d="M 193.746 -277.024 L 194.186 -277.024" />
    <path d="M 194.876 -277.024 L 198.066 -277.024" />
    <path d="M 198.951 -277.024 L 199.146 -277.024" />
    <path d="M 198.066 -277.024 L 198.066 -277.304" />
    <path d="M 198.951 -277.024 L 198.951 -277.304" />
    <path d="M 197.866 -277.304 L 198.066 -277.304" />
    <path d="M 198.951 -277.304 L 199.146 -277.304" />
    <path d="M 197.866 -277.304 L 197.866 -277.564" />
    <path d="M 195.696 -277.564 L 197.866 -277.564" />
    <path d="M 195.326 -277.294 L 195.696 -277.294" />
    <path d="M 195.696 -277.564 L 195.696 -277.294" />
    <path d="M 199.146 -277.304 L 199.146 -280.214" />
    <path d="M 194.016 -277.294 L 194.016 -277.714" />
    <path d="M 194.016 -278.214 L 194.016 -278.563" />
    <path d="M 194.016 -279.753 L 194.016 -280.418" />
    <path d="M 194.017 -278.563 L 193.747 -278.563" />
    <path d="M 194.016 -279.753 L 193.617 -279.753" />
    <path d="M 194.016 -278.563 L 193.607 -278.563" />
    <path d="M 188.066 -290.824 L 188.066 -290.624" />
    <path d="M 188.066 -289.594 L 188.066 -285.043" />
    <path d="M 188.066 -290.624 L 188.486 -290.624" />
    <path d="M 188.066 -289.594 L 188.486 -289.594" />
    <path d="M 188.486 -290.934 L 188.486 -290.624" />
    <path d="M 188.486 -289.594 L 188.486 -288.614" />
    <path d="M 188.486 -287.704 L 188.486 -285.043" />
    <path d="M 188.486 -285.043 L 189.024 -285.043" />
    <path d="M 190.204 -285.043 L 190.966 -285.043" />
    <path d="M 188.486 -288.614 L 188.616 -288.614" />
    <path d="M 188.616 -287.704 L 188.616 -288.614" />
    <path d="M 188.486 -287.704 L 188.616 -287.704" />
    <path d="M 189.024 -285.043 L 189.024 -284.623" />
    <path d="M 190.204 -285.043 L 190.204 -284.623" />
    <path d="M 190.966 -284.623 L 190.966 -285.043" />
    <path d="M 192.146 -284.623 L 192.146 -285.053" />
    <path d="M 188.486 -290.934 L 188.886 -290.934" />
    <path d="M 189.766 -290.934 L 192.596 -290.934" />
    <path d="M 193.476 -290.934 L 194.566 -290.934" />
    <path d="M 188.886 -290.934 L 188.886 -291.334" />
    <path d="M 189.766 -290.934 L 189.766 -291.334" />
    <path d="M 190.666 -296.914 L 190.666 -291.334" />
    <path d="M 188.096 -292.504 L 188.096 -291.334" />
    <path d="M 186.946 -296.914 L 186.946 -292.504" />
    <path d="M 188.096 -291.334 L 188.886 -291.334" />
    <path d="M 186.946 -292.504 L 188.096 -292.504" />
    <path d="M 189.766 -291.334 L 190.666 -291.334" />
    <path d="M 194.566 -290.934 L 194.567 -290.893" />
    <path d="M 194.589 -290.014 L 194.608 -289.274" />
    <path d="M 194.589 -290.014 L 194.989 -290.024" />
    <path d="M 194.567 -290.893 L 194.967 -290.903" />
    <path d="M 194.816 -296.914 L 194.877 -294.515" />
    <path d="M 194.902 -293.515 L 194.967 -290.903" />
    <path d="M 194.746 -296.914 L 194.807 -294.513" />
    <path d="M 194.832 -293.513 L 194.886 -291.334" />
    <path d="M 194.989 -290.024 L 194.996 -289.754" />
    <path d="M 194.996 -289.754 L 196.016 -289.754" />
    <path d="M 197.946 -289.754 L 199.246 -289.754" />
    <path d="M 192.146 -285.053 L 192.919 -285.053" />
    <path d="M 193.549 -285.053 L 194.516 -285.053" />
    <path d="M 193.549 -285.053 L 193.549 -284.623" />
    <path d="M 192.919 -285.053 L 192.919 -284.623" />
    <path d="M 190.736 -291.334 L 192.596 -291.334" />
    <path d="M 193.476 -291.334 L 194.886 -291.334" />
    <path d="M 192.596 -290.934 L 192.596 -291.334" />
    <path d="M 190.736 -296.914 L 190.736 -291.334" />
    <path d="M 193.476 -290.934 L 193.476 -291.334" />
    <path d="M 194.416 -282.234 L 198.036 -282.234" />
    <path d="M 194.016 -281.744 L 194.416 -281.744" />
    <path d="M 199.146 -280.214 L 199.146 -282.174" />
    <path d="M 194.016 -281.498 L 194.016 -281.744" />
    <path d="M 194.416 -281.744 L 194.416 -282.234" />
    <path d="M 194.516 -282.614 L 194.516 -282.669" />
    <path d="M 199.246 -282.614 L 199.246 -289.274" />
    <path d="M 194.016 -281.498 L 193.632 -281.498" />
    <path d="M 194.016 -280.418 L 193.623 -280.418" />
    <path d="M 198.036 -282.174 L 198.156 -282.174" />
    <path d="M 199.086 -282.174 L 199.146 -282.174" />
    <path d="M 198.156 -282.174 L 198.156 -282.614" />
    <path d="M 199.041 -282.174 L 199.041 -282.614" />
    <path d="M 199.086 -282.174 L 199.086 -282.614" />
    <path d="M 194.516 -282.614 L 198.156 -282.614" />
    <path d="M 194.608 -289.274 L 196.016 -289.274" />
    <path d="M 197.946 -289.274 L 199.246 -289.274" />
    <path d="M 199.086 -282.614 L 199.246 -282.614" />
    <path d="M 194.516 -282.669 L 193.983 -282.669" />
    <path d="M 194.516 -284.624 L 194.178 -284.624" />
    <path d="M 187.656 -290.824 L 187.656 -292.034" />
    <path d="M 194.876 -277.024 L 194.876 -277.294" />
    <path d="M 194.876 -277.294 L 195.326 -277.294" />
    <path d="M 194.186 -277.024 L 194.186 -277.294" />
    <path d="M 193.756 -278.084 L 194.016 -278.084" />
    <path d="M 194.016 -277.294 L 194.186 -277.294" />
    <path d="M 193.756 -277.714 L 194.016 -277.714" />
    <path d="M 193.756 -278.009 L 193.602 -278.009" />
    <path d="M 193.756 -278.009 L 193.756 -277.789" />
    <path d="M 193.756 -277.789 L 193.6 -277.789" />
    <path d="M 193.756 -278.009 L 193.756 -278.084" />
    <path d="M 193.756 -277.789 L 193.756 -277.714" />
    <path d="M 190.584 -291.07 L 190.834 -291.07" />
    <path d="M 190.834 -291.07 L 190.834 -291.2" />
    <path d="M 190.834 -291.2 L 190.584 -291.2" />
    <path d="M 190.584 -291.2 L 190.584 -291.07" />
    <path d="M 191.251 -291.07 L 191.501 -291.07" />
    <path d="M 191.501 -291.07 L 191.501 -291.2" />
    <path d="M 191.501 -291.2 L 191.251 -291.2" />
    <path d="M 191.251 -291.2 L 191.251 -291.07" />
    <path d="M 193.983 -282.669 L 193.978 -282.15" />
    <path d="M 194 -284.526 L 194.177 -284.524" />
    <path d="M 194.177 -284.524 L 194.178 -284.624" />
    <path d="M 194 -284.526 L 194.001 -284.623" />
    <path d="M 194.175 -284.282 L 194.177 -284.524" />
    <path d="M 193.998 -284.282 L 194 -284.526" />
    <path d="M 194.175 -284.302 L 193.998 -284.302" />
    <path d="M 194.175 -284.282 L 193.998 -284.282" />
    <path d="M 193.598 -277.533 L 193.6 -277.789" />
    <path d="M 193.6 -277.789 L 193.602 -278.009" />
    <path d="M 193.602 -278.009 L 193.607 -278.563" />
    <path d="M 193.617 -279.753 L 193.623 -280.418" />
    <path d="M 193.632 -281.498 L 193.638 -282.15" />
    <path d="M 193.549 -284.623 L 194.001 -284.623" />
    <path d="M 193.598 -277.533 L 193.336 -277.533" />
    <path d="M 193.978 -282.15 L 193.638 -282.15" />
    <path d="M 193.83 -284.282 L 193.83 -284.265" />
    <path d="M 193.83 -284.282 L 193.84 -284.281" />
    <path d="M 193.865 -284.281 L 193.865 -284.265" />
    <path d="M 193.865 -284.281 L 193.855 -284.281" />
    <path d="M 193.84 -284.263 L 193.836 -284.255" />
    <path d="M 193.855 -284.263 L 193.859 -284.255" />
    <path d="M 193.488 -284.527 L 193.488 -284.395" />
    <path d="M 193.478 -284.527 L 193.478 -284.387" />
    <path d="M 193.528 -284.387 L 193.528 -284.385" />
    <path d="M 193.488 -284.524 L 193.478 -284.524" />
    <path d="M 193.767 -284.385 L 193.528 -284.385" />
    <path d="M 193.528 -284.387 L 193.478 -284.387" />
    <path d="M 193.777 -284.395 L 193.488 -284.395" />
    <path d="M 192.942 -284.527 L 192.942 -284.395" />
    <path d="M 192.952 -284.527 L 192.952 -284.387" />
    <path d="M 192.902 -284.387 L 192.902 -284.385" />
    <path d="M 192.942 -284.524 L 192.952 -284.524" />
    <path d="M 192.902 -284.387 L 192.952 -284.387" />
    <path d="M 193.331 -284.345 L 193.099 -284.345" />
    <path d="M 192.071 -284.527 L 192.071 -284.395" />
    <path d="M 192.061 -284.527 L 192.062 -284.387" />
    <path d="M 192.112 -284.387 L 192.112 -284.385" />
    <path d="M 192.071 -284.524 L 192.061 -284.524" />
    <path d="M 192.112 -284.387 L 192.062 -284.387" />
    <path d="M 192.902 -284.385 L 192.112 -284.385" />
    <path d="M 192.902 -284.395 L 192.072 -284.395" />
    <path d="M 190.996 -284.527 L 190.996 -284.395" />
    <path d="M 191.006 -284.527 L 191.006 -284.387" />
    <path d="M 190.956 -284.387 L 190.956 -284.385" />
    <path d="M 190.956 -284.387 L 191.006 -284.387" />
    <path d="M 191.914 -284.345 L 191.153 -284.345" />
    <path d="M 190.146 -284.526 L 190.146 -284.395" />
    <path d="M 190.136 -284.526 L 190.136 -284.387" />
    <path d="M 190.186 -284.387 L 190.186 -284.385" />
    <path d="M 190.186 -284.387 L 190.136 -284.387" />
    <path d="M 187.48 -284.526 L 187.48 -284.394" />
    <path d="M 187.47 -284.525 L 187.47 -284.386" />
    <path d="M 187.52 -284.386 L 187.52 -284.384" />
    <path d="M 187.48 -284.523 L 187.47 -284.523" />
    <path d="M 187.52 -284.386 L 187.47 -284.386" />
    <path d="M 189.07 -284.526 L 189.07 -284.394" />
    <path d="M 189.08 -284.526 L 189.08 -284.386" />
    <path d="M 189.03 -284.386 L 189.03 -284.384" />
    <path d="M 189.07 -284.523 L 189.08 -284.523" />
    <path d="M 189.03 -284.386 L 189.08 -284.386" />
    <path d="M 190.956 -284.385 L 190.186 -284.385" />
    <path d="M 190.146 -284.395 L 190.996 -284.395" />
    <path d="M 189.989 -284.345 L 189.227 -284.344" />
    <path d="M 187.52 -284.384 L 189.03 -284.384" />
    <path d="M 189.07 -284.394 L 187.48 -284.394" />
    <path d="M 186.134 -284.525 L 186.134 -284.393" />
    <path d="M 186.144 -284.525 L 186.144 -284.385" />
    <path d="M 186.134 -284.522 L 186.144 -284.522" />
    <path d="M 186.094 -284.385 L 186.144 -284.385" />
    <path d="M 186.05 -284.393 L 186.134 -284.393" />
    <path d="M 193.331 -284.6 L 193.099 -284.6" />
    <path d="M 193.331 -284.552 L 193.099 -284.552" />
    <path d="M 191.914 -284.6 L 191.651 -284.6" />
    <path d="M 191.914 -284.552 L 191.651 -284.552" />
    <path d="M 191.416 -284.6 L 191.153 -284.6" />
    <path d="M 191.416 -284.552 L 191.153 -284.552" />
    <path d="M 189.989 -284.6 L 189.725 -284.6" />
    <path d="M 189.989 -284.552 L 189.725 -284.552" />
    <path d="M 189.49 -284.6 L 189.227 -284.6" />
    <path d="M 189.49 -284.552 L 189.227 -284.552" />
    <path d="M 187.322 -284.599 L 186.291 -284.599" />
    <path d="M 186.291 -284.551 L 187.322 -284.551" />
    <path d="M 187.323 -284.344 L 186.291 -284.343" />
    <path d="M 193.909 -284.264 L 193.777 -284.265" />
    <path d="M 193.909 -284.254 L 193.768 -284.255" />
    <path d="M 193.769 -284.305 L 193.767 -284.305" />
    <path d="M 193.83 -284.282 L 193.83 -284.265" />
    <path d="M 193.83 -284.282 L 193.84 -284.281" />
    <path d="M 193.865 -284.281 L 193.865 -284.265" />
    <path d="M 193.865 -284.281 L 193.855 -284.281" />
    <path d="M 193.84 -284.263 L 193.836 -284.255" />
    <path d="M 193.855 -284.263 L 193.859 -284.255" />
    <path d="M 193.769 -284.305 L 193.768 -284.255" />
    <path d="M 193.904 -284.264 L 193.904 -284.254" />
    <path d="M 193.986 -284.304 L 193.91 -284.304" />
    <path d="M 193.91 -284.304 L 193.91 -284.284" />
    <path d="M 193.91 -284.284 L 193.986 -284.284" />
    <path d="M 193.368 -282.385 L 193.751 -282.39" />
    <path d="M 193.378 -282.375 L 193.761 -282.38" />
    <path d="M 193.896 -282.694 L 193.764 -282.695" />
    <path d="M 193.896 -282.704 L 193.756 -282.705" />
    <path d="M 193.755 -282.655 L 193.753 -282.655" />
    <path d="M 193.817 -282.678 L 193.817 -282.694" />
    <path d="M 193.817 -282.678 L 193.827 -282.678" />
    <path d="M 193.852 -282.677 L 193.852 -282.694" />
    <path d="M 193.852 -282.677 L 193.842 -282.678" />
    <path d="M 193.827 -282.696 L 193.823 -282.704" />
    <path d="M 193.842 -282.696 L 193.846 -282.704" />
    <path d="M 193.751 -282.39 L 193.753 -282.655" />
    <path d="M 193.755 -282.655 L 193.756 -282.705" />
    <path d="M 193.761 -282.38 L 193.764 -282.695" />
    <path d="M 193.891 -282.694 L 193.891 -282.704" />
    <path d="M 193.97 -282.824 L 193.974 -283.361" />
    <path d="M 193.922 -282.824 L 193.926 -283.361" />
    <path d="M 193.976 -283.596 L 193.981 -284.133" />
    <path d="M 193.933 -284.133 L 193.928 -283.596" />
    <path d="M 193.972 -282.654 L 193.896 -282.654" />
    <path d="M 193.896 -282.654 L 193.896 -282.674" />
    <path d="M 193.896 -282.674 L 193.972 -282.674" />
    <path d="M 193.98 -282.533 L 193.999 -282.533" />
    <path d="M 193.986 -284.304 L 193.91 -284.304" />
    <path d="M 193.91 -284.304 L 193.91 -284.284" />
    <path d="M 193.91 -284.284 L 193.986 -284.284" />
    <path d="M 193.066 -277.777 L 193.063 -276.405" />
    <path d="M 193.073 -276.365 L 193.076 -277.768" />
    <path d="M 193.066 -277.777 L 193.328 -277.779" />
    <path d="M 193.076 -277.768 L 193.338 -277.769" />
    <path d="M 193.335 -278.574 L 193.337 -278.574" />
    <path d="M 193.335 -278.574 L 193.328 -277.779" />
    <path d="M 193.338 -278.624 L 193.337 -278.574" />
    <path d="M 193.346 -278.614 L 193.338 -277.769" />
    <path d="M 193.355 -279.69 L 193.487 -279.689" />
    <path d="M 193.347 -279.68 L 193.487 -279.679" />
    <path d="M 193.345 -279.73 L 193.347 -279.73" />
    <path d="M 193.484 -279.689 L 193.484 -279.679" />
    <path d="M 193.347 -279.68 L 193.347 -279.73" />
    <path d="M 193.297 -278.771 L 193.304 -279.533" />
    <path d="M 193.362 -280.468 L 193.493 -280.467" />
    <path d="M 193.354 -280.478 L 193.493 -280.477" />
    <path d="M 193.351 -280.429 L 193.353 -280.428" />
    <path d="M 193.354 -280.478 L 193.353 -280.428" />
    <path d="M 193.355 -279.69 L 193.362 -280.468" />
    <path d="M 193.351 -280.429 L 193.345 -279.73" />
    <path d="M 193.37 -281.445 L 193.502 -281.443" />
    <path d="M 193.362 -281.435 L 193.502 -281.433" />
    <path d="M 193.36 -281.485 L 193.362 -281.485" />
    <path d="M 193.499 -281.443 L 193.499 -281.433" />
    <path d="M 193.362 -281.435 L 193.362 -281.485" />
    <path d="M 193.313 -280.626 L 193.319 -281.288" />
    <path d="M 193.36 -281.485 L 193.368 -282.385" />
    <path d="M 193.37 -281.485 L 193.378 -282.375" />
    <path d="M 193.552 -278.769 L 193.554 -279.033" />
    <path d="M 193.504 -278.77 L 193.506 -279.033" />
    <path d="M 193.556 -279.268 L 193.559 -279.531" />
    <path d="M 193.511 -279.531 L 193.508 -279.268" />
    <path d="M 193.568 -280.624 L 193.57 -280.837" />
    <path d="M 193.52 -280.624 L 193.522 -280.838" />
    <path d="M 193.572 -281.072 L 193.574 -281.286" />
    <path d="M 193.526 -281.286 L 193.524 -281.073" />
    <path d="M 194.016 -278.214 L 194.016 -278.084" />
    <path d="M 194.016 -277.714 L 194.016 -277.564" />
    <path d="M 190.837 -297.47 L 190.837 -296.914" />
    <path d="M 190.588 -298.78 L 190.588 -298.37" />
    <path d="M 190.588 -297.56 L 190.588 -297.444" />
    <path d="M 190.588 -298.78 L 191.208 -298.78" />
    <path d="M 192.388 -298.78 L 193.068 -298.78" />
    <path d="M 190.868 -298.5 L 190.868 -298.37" />
    <path d="M 194.248 -298.78 L 194.864 -298.78" />
    <path d="M 186.05 -297.444 L 187.486 -297.444" />
    <path d="M 189.856 -297.444 L 190.588 -297.444" />
    <path d="M 189.856 -296.914 L 189.856 -297.444" />
    <path d="M 187.486 -296.914 L 187.486 -297.444" />
    <path d="M 194.248 -298.5 L 194.555 -298.5" />
    <path d="M 186.946 -296.914 L 187.486 -296.914" />
    <path d="M 189.856 -296.914 L 190.666 -296.914" />
    <path d="M 194.816 -296.914 L 195.336 -296.914" />
    <path d="M 196.736 -296.914 L 197.328 -296.914" />
    <path d="M 198.728 -296.914 L 199.246 -296.914" />
    <path d="M 196.736 -297.444 L 197.328 -297.444" />
    <path d="M 194.864 -297.444 L 195.336 -297.444" />
    <path d="M 198.728 -297.444 L 199.356 -297.444" />
    <path d="M 192.388 -298.5 L 193.068 -298.5" />
    <path d="M 190.868 -298.5 L 191.208 -298.5" />
    <path d="M 194.555 -296.914 L 194.746 -296.914" />
    <path d="M 194.555 -296.914 L 194.555 -297.473" />
    <path d="M 190.837 -296.914 L 190.736 -296.914" />
    <path d="M 194.555 -298.123 L 194.555 -298.5" />
    <path d="M 190.728 -297.47 L 190.728 -297.56" />
    <path d="M 190.728 -297.56 L 190.588 -297.56" />
    <path d="M 192.388 -298.5 L 192.388 -298.78" />
    <path d="M 190.837 -297.47 L 190.728 -297.47" />
    <path d="M 190.868 -298.37 L 190.588 -298.37" />
    <path d="M 191.208 -298.78 L 191.208 -298.5" />
    <path d="M 193.068 -298.78 L 193.068 -298.5" />
    <path d="M 194.248 -298.5 L 194.248 -298.78" />
    <path d="M 194.685 -297.473 L 194.685 -297.56" />
    <path d="M 194.685 -297.56 L 194.864 -297.56" />
    <path d="M 194.555 -297.473 L 194.685 -297.473" />
    <path d="M 194.864 -297.56 L 194.864 -297.444" />
    <path d="M 194.864 -298.123 L 194.864 -298.78" />
    <path d="M 198.728 -296.914 L 198.728 -297.444" />
    <path d="M 197.328 -296.914 L 197.328 -297.444" />
    <path d="M 196.736 -296.914 L 196.736 -297.444" />
    <path d="M 195.336 -296.914 L 195.336 -297.444" />
    <path d="M 186.606 -296.914 L 186.05 -296.914" />
    <path d="M 199.606 -297.444 L 199.606 -297.294" />
    <path d="M 199.606 -297.444 L 199.831 -297.444" />
    <path d="M 199.356 -297.294 L 199.606 -297.294" />
    <path d="M 199.356 -297.294 L 199.356 -297.444" />
    <path d="M 194.555 -298.123 L 194.864 -298.123" />
    <path d="M 199.481 -297.544 L 199.301 -297.544" />
    <path d="M 199.301 -297.544 L 199.301 -297.664" />
    <path d="M 194.864 -297.56 L 194.864 -297.675" />
    <path d="M 194.685 -297.56 L 194.685 -297.675" />
    <path d="M 194.685 -297.675 L 194.865 -297.675" />
    <path d="M 190.588 -298.264 L 190.588 -297.544" />
    <path d="M 190.35 -299.018 L 190.35 -298.33" />
    <path d="M 190.35 -297.634 L 190.35 -297.564" />
    <path d="M 190.36 -299.008 L 190.36 -298.34" />
    <path d="M 190.36 -297.624 L 190.36 -297.554" />
    <path d="M 189.8 -297.45 L 189.81 -297.45" />
    <path d="M 189.8 -297.444 L 189.8 -297.564" />
    <path d="M 189.81 -297.444 L 189.81 -297.554" />
    <path d="M 187.549 -297.554 L 187.549 -297.444" />
    <path d="M 187.559 -297.444 L 187.559 -297.564" />
    <path d="M 188.076 -297.371 L 187.672 -297.371" />
    <path d="M 188.076 -297.419 L 187.672 -297.419" />
    <path d="M 189.692 -297.371 L 189.288 -297.371" />
    <path d="M 189.692 -297.419 L 189.288 -297.419" />
    <path d="M 189.079 -297.371 L 188.28 -297.371" />
    <path d="M 189.079 -297.419 L 188.28 -297.419" />
    <path d="M 186.05 -297.554 L 187.549 -297.554" />
    <path d="M 186.05 -297.564 L 187.559 -297.564" />
    <path d="M 189.8 -297.564 L 190.35 -297.564" />
    <path d="M 189.81 -297.554 L 190.36 -297.554" />
    <path d="M 190.486 -297.634 L 190.486 -297.624" />
    <path d="M 190.568 -297.592 L 190.568 -297.572" />
    <path d="M 190.492 -297.592 L 190.492 -297.572" />
    <path d="M 190.568 -297.572 L 190.492 -297.572" />
    <path d="M 190.492 -297.592 L 190.568 -297.592" />
    <path d="M 190.492 -297.634 L 190.35 -297.634" />
    <path d="M 190.486 -298.33 L 190.486 -298.34" />
    <path d="M 190.568 -298.372 L 190.568 -298.391" />
    <path d="M 190.492 -298.372 L 190.492 -298.391" />
    <path d="M 190.568 -298.391 L 190.492 -298.391" />
    <path d="M 190.492 -298.372 L 190.568 -298.372" />
    <path d="M 190.492 -298.33 L 190.35 -298.33" />
    <path d="M 190.492 -298.34 L 190.36 -298.34" />
    <path d="M 190.492 -297.624 L 190.36 -297.624" />
    <path d="M 190.579 -298.391 L 190.588 -298.391" />
    <path d="M 190.579 -297.571 L 190.588 -297.571" />
    <path d="M 190.517 -297.732 L 190.517 -298.222" />
    <path d="M 190.565 -297.732 L 190.565 -298.222" />
    <path d="M 192.336 -299.008 L 192.336 -298.876" />
    <path d="M 192.326 -298.881 L 192.336 -298.881" />
    <path d="M 192.326 -298.876 L 192.326 -299.018" />
    <path d="M 191.27 -299.018 L 191.27 -298.876" />
    <path d="M 191.26 -299.008 L 191.26 -298.876" />
    <path d="M 191.915 -298.803 L 192.179 -298.803" />
    <path d="M 191.915 -298.851 L 192.179 -298.851" />
    <path d="M 194.186 -299.008 L 194.186 -298.876" />
    <path d="M 193.12 -299.018 L 193.12 -298.876" />
    <path d="M 193.11 -299.008 L 193.11 -298.876" />
    <path d="M 193.12 -298.881 L 193.11 -298.881" />
    <path d="M 193.765 -298.803 L 194.029 -298.803" />
    <path d="M 193.765 -298.851 L 194.029 -298.851" />
    <path d="M 190.36 -299.008 L 191.26 -299.008" />
    <path d="M 191.417 -298.803 L 191.681 -298.803" />
    <path d="M 191.417 -298.851 L 191.681 -298.851" />
    <path d="M 192.336 -299.008 L 193.11 -299.008" />
    <path d="M 193.267 -298.803 L 193.531 -298.803" />
    <path d="M 193.267 -298.851 L 193.531 -298.851" />
    <path d="M 194.186 -299.008 L 195.093 -299.008" />
    <path d="M 195.392 -297.672 L 195.352 -297.672" />
    <path d="M 195.402 -297.682 L 195.402 -297.54" />
    <path d="M 195.392 -297.672 L 195.392 -297.54" />
    <path d="M 195.549 -297.467 L 195.923 -297.467" />
    <path d="M 195.549 -297.515 L 195.923 -297.515" />
    <path d="M 196.158 -297.467 L 196.531 -297.467" />
    <path d="M 196.158 -297.515 L 196.531 -297.515" />
    <path d="M 195.549 -297.762 L 196.531 -297.762" />
    <path d="M 197.38 -297.682 L 197.38 -297.54" />
    <path d="M 197.37 -297.672 L 197.37 -297.54" />
    <path d="M 197.38 -297.545 L 197.37 -297.545" />
    <path d="M 197.527 -297.467 L 197.9 -297.467" />
    <path d="M 197.527 -297.515 L 197.9 -297.515" />
    <path d="M 198.135 -297.467 L 198.509 -297.467" />
    <path d="M 198.135 -297.515 L 198.509 -297.515" />
    <path d="M 195.103 -299.018 L 195.103 -298.068" />
    <path d="M 195.183 -298.148 L 195.183 -297.762" />
    <path d="M 195.103 -297.737 L 195.103 -297.682" />
    <path d="M 195.093 -299.008 L 195.093 -298.078" />
    <path d="M 195.093 -297.727 L 195.093 -297.672" />
    <path d="M 198.866 -297.682 L 199.541 -297.682" />
    <path d="M 198.866 -297.672 L 199.541 -297.672" />
    <path d="M 199.541 -297.444 L 199.541 -297.682" />
    <path d="M 199.531 -297.294 L 199.531 -297.682" />
    <path d="M 195.192 -297.682 L 195.103 -297.682" />
    <path d="M 195.392 -297.672 L 195.093 -297.672" />
    <path d="M 194.865 -297.564 L 194.865 -297.675" />
    <path d="M 194.957 -297.737 L 194.957 -297.727" />
    <path d="M 194.957 -298.068 L 194.957 -298.078" />
    <path d="M 194.875 -297.695 L 194.875 -297.675" />
    <path d="M 194.951 -297.695 L 194.951 -297.675" />
    <path d="M 194.875 -297.675 L 194.951 -297.675" />
    <path d="M 194.951 -297.695 L 194.875 -297.695" />
    <path d="M 194.875 -298.105 L 194.875 -298.125" />
    <path d="M 194.951 -298.105 L 194.951 -298.125" />
    <path d="M 194.875 -298.125 L 194.951 -298.125" />
    <path d="M 194.951 -298.105 L 194.875 -298.105" />
    <path d="M 194.927 -297.796 L 194.927 -297.955" />
    <path d="M 194.879 -297.796 L 194.879 -297.955" />
    <path d="M 194.951 -297.737 L 195.103 -297.737" />
    <path d="M 194.951 -297.727 L 195.093 -297.727" />
    <path d="M 195.093 -298.078 L 194.951 -298.078" />
    <path d="M 194.951 -298.068 L 195.103 -298.068" />
    <path d="M 195.103 -298.148 L 195.183 -298.148" />
    <path d="M 196.888 -297.682 L 197.17 -297.682" />
    <path d="M 196.688 -297.672 L 197.37 -297.672" />
    <path d="M 196.888 -297.762 L 196.888 -297.682" />
    <path d="M 197.17 -297.762 L 197.17 -297.682" />
    <path d="M 198.866 -297.762 L 198.866 -297.682" />
    <path d="M 197.527 -297.762 L 198.509 -297.762" />
    <path d="M 195.192 -297.762 L 195.183 -297.762" />
    <path d="M 194.876 -277.294 L 194.186 -277.294" />
    <path d="M 194.186 -277.024 L 194.876 -277.024" />
    <path d="M 188.616 -288.264 L 188.766 -288.264" />
    <path d="M 188.616 -288.239 L 188.766 -288.239" />
    <path d="M 188.616 -288.139 L 188.766 -288.139" />
    <path d="M 188.616 -288.164 L 188.766 -288.164" />
    <path d="M 189.651 -288.264 L 191.176 -288.264" />
    <path d="M 189.651 -288.239 L 191.176 -288.239" />
    <path d="M 191.936 -288.264 L 192.481 -288.264" />
    <path d="M 191.936 -288.239 L 192.481 -288.239" />
    <path d="M 193.241 -288.264 L 194.531 -288.264" />
    <path d="M 193.241 -288.239 L 194.506 -288.239" />
    <path d="M 190.426 -286.849 L 192.231 -286.849" />
    <path d="M 190.401 -286.824 L 192.256 -286.824" />
    <path d="M 191.176 -288.264 L 191.176 -288.139" />
    <path d="M 191.936 -288.264 L 191.936 -288.139" />
    <path d="M 190.426 -286.699 L 192.231 -286.699" />
    <path d="M 190.401 -286.724 L 192.256 -286.724" />
    <path d="M 192.231 -285.944 L 192.231 -286.699" />
    <path d="M 192.256 -285.969 L 192.256 -286.724" />
    <path d="M 192.231 -286.849 L 192.231 -288.139" />
    <path d="M 192.256 -286.824 L 192.256 -288.164" />
    <path d="M 192.356 -285.944 L 192.356 -288.139" />
    <path d="M 192.331 -285.969 L 192.331 -288.164" />
    <path d="M 190.426 -285.043 L 190.426 -286.699" />
    <path d="M 190.401 -285.043 L 190.401 -286.724" />
    <path d="M 190.426 -286.849 L 190.426 -288.139" />
    <path d="M 190.401 -286.824 L 190.401 -288.164" />
    <path d="M 190.301 -285.043 L 190.301 -288.139" />
    <path d="M 190.326 -285.043 L 190.326 -288.164" />
    <path d="M 188.766 -288.264 L 188.766 -288.139" />
    <path d="M 189.651 -288.264 L 189.651 -288.139" />
    <path d="M 192.231 -285.944 L 192.356 -285.944" />
    <path d="M 192.231 -285.969 L 192.356 -285.969" />
    <path d="M 189.651 -288.139 L 190.301 -288.139" />
    <path d="M 189.651 -288.164 L 190.326 -288.164" />
    <path d="M 190.426 -288.139 L 191.176 -288.139" />
    <path d="M 190.401 -288.164 L 191.176 -288.164" />
    <path d="M 191.936 -288.139 L 192.231 -288.139" />
    <path d="M 191.936 -288.164 L 192.256 -288.164" />
    <path d="M 192.356 -288.139 L 192.481 -288.139" />
    <path d="M 192.331 -288.164 L 192.481 -288.164" />
    <path d="M 193.241 -288.139 L 194.381 -288.139" />
    <path d="M 193.241 -288.164 L 194.406 -288.164" />
    <path d="M 193.241 -288.264 L 193.241 -288.139" />
    <path d="M 192.481 -288.264 L 192.481 -288.139" />
    <path d="M 189.651 -288.264 L 189.651 -288.139" />
    <path d="M 194.531 -284.609 L 194.531 -288.264" />
    <path d="M 194.506 -285.053 L 194.506 -288.239" />
    <path d="M 194.516 -285.053 L 194.516 -284.624" />
    <path d="M 193.767 -284.305 L 193.767 -284.385" />
    <path d="M 193.777 -284.265 L 193.777 -284.395" />
    <path d="M 198.111 -280.033 L 194.831 -280.033" />
    <path d="M 198.111 -280.058 L 194.806 -280.058" />
    <path d="M 198.111 -280.133 L 198.016 -280.133" />
    <path d="M 199.086 -282.174 L 199.086 -282.594" />
    <path d="M 194.187 -284.609 L 194.531 -284.609" />
    <path d="M 196.016 -289.754 L 196.016 -289.274" />
    <path d="M 197.946 -289.754 L 197.946 -289.274" />
    <path d="M 194.832 -293.513 L 194.902 -293.515" />
    <path d="M 194.807 -294.513 L 194.877 -294.515" />
    <path d="M 196.016 -289.274 L 197.946 -289.274" />
    <path d="M 196.016 -289.754 L 197.946 -289.754" />
    <path d="M 194.381 -288.139 L 194.381 -287.129" />
    <path d="M 194.406 -288.164 L 194.406 -287.104" />
    <path d="M 193.371 -287.129 L 194.381 -287.129" />
    <path d="M 193.396 -287.104 L 194.406 -287.104" />
    <path d="M 193.371 -287.029 L 194.096 -287.029" />
    <path d="M 193.396 -287.054 L 194.121 -287.054" />
    <path d="M 193.371 -287.144 L 193.371 -287.029" />
    <path d="M 193.396 -287.129 L 193.396 -287.029" />
    <path d="M 194.096 -285.053 L 194.096 -286.316" />
    <path d="M 194.096 -286.766 L 194.096 -287.029" />
    <path d="M 194.121 -285.053 L 194.121 -286.291" />
    <path d="M 194.121 -286.791 L 194.121 -287.054" />
    <path d="M 197.741 -280.183 L 196.941 -280.183" />
    <path d="M 197.766 -280.158 L 196.916 -280.158" />
    <path d="M 196.841 -280.183 L 195.931 -280.183" />
    <path d="M 196.866 -280.158 L 195.906 -280.158" />
    <path d="M 196.941 -281.093 L 196.841 -281.093" />
    <path d="M 195.931 -281.093 L 195.831 -281.093" />
    <path d="M 196.941 -280.183 L 196.941 -281.093" />
    <path d="M 196.916 -280.158 L 196.916 -281.093" />
    <path d="M 196.841 -280.183 L 196.841 -281.093" />
    <path d="M 196.866 -280.158 L 196.866 -281.093" />
    <path d="M 195.931 -280.183 L 195.931 -281.093" />
    <path d="M 195.906 -280.158 L 195.906 -281.093" />
    <path d="M 195.831 -280.408 L 195.831 -281.093" />
    <path d="M 195.856 -280.383 L 195.856 -281.093" />
    <path d="M 195.831 -280.408 L 195.596 -280.408" />
    <path d="M 195.146 -280.408 L 194.016 -280.408" />
    <path d="M 195.856 -280.383 L 195.621 -280.383" />
    <path d="M 195.121 -280.383 L 194.016 -280.383" />
    <path d="M 194.831 -280.033 L 194.016 -280.033" />
    <path d="M 194.806 -280.058 L 194.016 -280.058" />
    <path d="M 194.306 -286.316 L 194.306 -286.766" />
    <path d="M 194.121 -286.791 L 194.331 -286.791" />
    <path d="M 194.331 -286.291 L 194.331 -286.791" />
    <path d="M 194.096 -286.766 L 194.306 -286.766" />
    <path d="M 194.096 -286.316 L 194.306 -286.316" />
    <path d="M 194.121 -286.291 L 194.331 -286.291" />
    <path d="M 197.836 -282.234 L 197.836 -282.044" />
    <path d="M 197.861 -282.234 L 197.861 -282.044" />
    <path d="M 197.961 -282.234 L 197.961 -282.044" />
    <path d="M 197.936 -282.234 L 197.936 -282.044" />
    <path d="M 197.936 -281.284 L 197.936 -281.018" />
    <path d="M 197.741 -281.093 L 197.741 -280.183" />
    <path d="M 197.766 -281.068 L 197.766 -280.158" />
    <path d="M 197.961 -281.284 L 197.961 -280.939" />
    <path d="M 197.961 -282.044 L 197.836 -282.044" />
    <path d="M 197.961 -281.284 L 197.836 -281.284" />
    <path d="M 197.836 -281.093 L 197.836 -281.284" />
    <path d="M 197.861 -281.068 L 197.861 -281.284" />
    <path d="M 197.741 -281.093 L 197.836 -281.093" />
    <path d="M 197.766 -281.068 L 197.861 -281.068" />
    <path d="M 197.936 -280.208 L 197.961 -280.208" />
    <path d="M 197.961 -280.208 L 197.961 -280.158" />
    <path d="M 197.936 -280.208 L 197.936 -280.133" />
    <path d="M 197.936 -280.058 L 197.766 -280.058" />
    <path d="M 198.996 -280.033 L 198.996 -280.158" />
    <path d="M 198.111 -280.033 L 198.111 -280.158" />
    <path d="M 197.961 -280.158 L 198.111 -280.158" />
    <path d="M 197.936 -280.133 L 198.111 -280.133" />
    <path d="M 198.996 -280.033 L 199.146 -280.033" />
    <path d="M 198.996 -280.158 L 199.146 -280.158" />
    <path d="M 198.996 -280.133 L 199.146 -280.133" />
    <path d="M 198.996 -280.058 L 199.146 -280.058" />
    <path d="M 197.936 -280.208 L 197.766 -280.208" />
    <path d="M 199.041 -282.174 L 199.086 -282.174" />
    <path d="M 199.086 -282.614 L 199.041 -282.614" />
    <path d="M 198.036 -282.174 L 198.036 -282.234" />
    <path d="M 195.146 -280.183 L 195.596 -280.183" />
    <path d="M 195.121 -280.158 L 195.621 -280.158" />
    <path d="M 195.596 -280.408 L 195.596 -280.183" />
    <path d="M 195.621 -280.383 L 195.621 -280.158" />
    <path d="M 195.146 -280.408 L 195.146 -280.183" />
    <path d="M 195.121 -280.383 L 195.121 -280.158" />
    <path d="M 197.961 -281.018 L 197.766 -281.018" />
    <path d="M 198.036 -282.174 L 197.961 -282.174" />
  </g>
</svg>
