<?xml version="1.0" encoding="UTF-8"?>
<svg xmlns="http://www.w3.org/2000/svg" viewBox="231.06 255.06 36.88 48.88" aria-hidden="true">
  <style>
    path,
    circle {
      fill: none;
      stroke: #007AFF;
      stroke-width: 1.55;
      stroke-linecap: round;
      stroke-linejoin: round;
      vector-effect: non-scaling-stroke;
    }
  </style>
  <g transform="scale(1 -1)">
    <path d="M 247.704 -264.794 L 248.75 -264.794" />
    <path d="M 236.514 -275.4 L 236.514 -274.734" />
    <path d="M 241.894 -274.734 L 237.614 -274.734" />
    <path d="M 236.694 -274.734 L 236.514 -274.734" />
    <path d="M 248.427 -260.724 L 248.75 -260.724" />
    <path d="M 248.75 -260.294 L 248.427 -260.294" />
    <path d="M 247.237 -260.294 L 246.014 -260.294" />
    <path d="M 244.824 -260.294 L 243.674 -260.294" />
    <path d="M 242.484 -260.294 L 241.834 -260.294" />
    <path d="M 240.644 -260.294 L 239.914 -260.294" />
    <path d="M 238.724 -260.294 L 238.044 -260.294" />
    <path d="M 236.854 -260.294 L 236.139 -260.294" />
    <path d="M 241.894 -275.199 L 241.894 -274.734" />
    <path d="M 241.894 -275.199 L 242.176 -275.199" />
    <path d="M 236.694 -274.734 L 236.694 -274.674" />
    <path d="M 237.614 -274.734 L 237.614 -274.674" />
    <path d="M 236.694 -274.674 L 236.694 -274.454" />
    <path d="M 237.614 -274.674 L 237.614 -274.454" />
    <path d="M 236.694 -274.454 L 236.514 -274.454" />
    <path d="M 236.514 -274.454 L 236.514 -269.894" />
    <path d="M 236.514 -269.894 L 236.384 -269.894" />
    <path d="M 236.384 -269.894 L 236.384 -266.504" />
    <path d="M 237.614 -274.454 L 237.764 -274.454" />
    <path d="M 236.714 -266.504 L 236.384 -266.504" />
    <path d="M 236.714 -266.504 L 236.714 -266.104" />
    <path d="M 237.624 -266.504 L 237.624 -266.104" />
    <path d="M 240.174 -266.104 L 237.624 -266.104" />
    <path d="M 236.714 -266.104 L 236.384 -266.104" />
    <path d="M 236.384 -266.104 L 236.384 -260.724" />
    <path d="M 236.384 -260.724 L 236.854 -260.724" />
    <path d="M 240.114 -260.724 L 239.914 -260.724" />
    <path d="M 236.854 -260.724 L 236.854 -260.294" />
    <path d="M 238.044 -260.724 L 238.044 -260.294" />
    <path d="M 238.724 -260.724 L 238.724 -260.294" />
    <path d="M 239.914 -260.724 L 239.914 -260.294" />
    <path d="M 238.044 -260.724 L 238.724 -260.724" />
    <path d="M 240.174 -266.104 L 241.544 -266.104" />
    <path d="M 242.944 -266.104 L 243.974 -266.104" />
    <path d="M 239.914 -260.724 L 240.644 -260.724" />
    <path d="M 243.974 -260.724 L 243.674 -260.724" />
    <path d="M 242.484 -260.724 L 242.484 -260.294" />
    <path d="M 243.674 -260.724 L 243.674 -260.294" />
    <path d="M 240.644 -260.724 L 240.644 -260.294" />
    <path d="M 241.834 -260.724 L 241.834 -260.294" />
    <path d="M 241.834 -260.724 L 242.484 -260.724" />
    <path d="M 243.974 -266.104 L 243.974 -265.914" />
    <path d="M 243.974 -265.004 L 243.974 -260.724" />
    <path d="M 243.974 -265.914 L 244.274 -265.914" />
    <path d="M 243.974 -265.004 L 244.274 -265.004" />
    <path d="M 244.274 -266.104 L 244.274 -265.914" />
    <path d="M 244.274 -265.004 L 244.274 -264.724" />
    <path d="M 244.274 -266.104 L 244.444 -266.104" />
    <path d="M 244.444 -266.104 L 244.444 -266.504" />
    <path d="M 245.354 -266.104 L 245.354 -266.504" />
    <path d="M 244.444 -266.504 L 244.024 -266.504" />
    <path d="M 244.024 -266.504 L 244.024 -266.934" />
    <path d="M 244.024 -266.934 L 242.944 -266.934" />
    <path d="M 243.364 -266.934 L 243.364 -270.054" />
    <path d="M 245.354 -266.504 L 245.932 -266.504" />
    <path d="M 243.966 -270.054 L 243.108 -270.054" />
    <path d="M 245.096 -270.054 L 246.082 -270.054" />
    <path d="M 246.792 -270.054 L 247.482 -270.054" />
    <path d="M 243.214 -266.934 L 243.214 -270.054" />
    <path d="M 242.944 -266.504 L 242.944 -266.934" />
    <path d="M 237.624 -266.504 L 241.544 -266.504" />
    <path d="M 241.764 -270.054 L 241.764 -270.352" />
    <path d="M 237.764 -274.184 L 240.024 -274.184" />
    <path d="M 240.024 -274.184 L 240.024 -274.454" />
    <path d="M 240.024 -274.454 L 241.354 -274.454" />
    <path d="M 241.354 -274.454 L 241.354 -273.501" />
    <path d="M 241.354 -273.501 L 241.718 -273.501" />
    <path d="M 241.354 -272.331 L 241.715 -272.331" />
    <path d="M 241.354 -271.286 L 241.354 -272.331" />
    <path d="M 241.254 -270.623 L 241.254 -270.054" />
    <path d="M 241.764 -270.054 L 241.254 -270.054" />
    <path d="M 241.354 -271.286 L 241.715 -271.286" />
    <path d="M 247.704 -270.664 L 247.704 -265.884" />
    <path d="M 247.704 -264.964 L 247.704 -264.794" />
    <path d="M 247.704 -264.964 L 247.284 -264.964" />
    <path d="M 247.704 -265.884 L 247.284 -265.884" />
    <path d="M 247.284 -265.884 L 247.284 -266.104" />
    <path d="M 247.284 -266.104 L 247.117 -266.104" />
    <path d="M 245.614 -266.104 L 245.354 -266.104" />
    <path d="M 247.284 -264.964 L 247.284 -264.724" />
    <path d="M 244.274 -264.724 L 244.274 -260.724" />
    <path d="M 247.284 -264.724 L 247.284 -264.404" />
    <path d="M 248.75 -264.404 L 247.284 -264.404" />
    <path d="M 244.274 -260.724 L 244.824 -260.724" />
    <path d="M 247.237 -260.724 L 247.237 -260.294" />
    <path d="M 248.427 -260.724 L 248.427 -260.294" />
    <path d="M 244.824 -260.724 L 244.824 -260.294" />
    <path d="M 246.014 -260.724 L 246.014 -260.294" />
    <path d="M 246.014 -260.724 L 247.237 -260.724" />
    <path d="M 247.117 -266.104 L 247.117 -266.204" />
    <path d="M 247.117 -266.204 L 247.142 -266.204" />
    <path d="M 247.142 -266.204 L 247.142 -266.504" />
    <path d="M 245.614 -266.234 L 245.932 -266.234" />
    <path d="M 245.614 -266.234 L 245.614 -266.104" />
    <path d="M 247.142 -266.504 L 247.482 -266.504" />
    <path d="M 247.482 -266.504 L 247.482 -270.054" />
    <path d="M 236.139 -260.424 L 236.264 -260.424" />
    <path d="M 236.264 -260.424 L 236.264 -260.294" />
    <path d="M 238.138 -266.174 L 238.388 -266.174" />
    <path d="M 238.388 -266.174 L 238.388 -266.304" />
    <path d="M 238.388 -266.304 L 238.138 -266.304" />
    <path d="M 238.138 -266.304 L 238.138 -266.174" />
    <path d="M 238.446 -266.174 L 238.696 -266.174" />
    <path d="M 238.696 -266.174 L 238.696 -266.304" />
    <path d="M 238.696 -266.304 L 238.446 -266.304" />
    <path d="M 238.446 -266.304 L 238.446 -266.174" />
    <path d="M 240.069 -266.2 L 240.319 -266.2" />
    <path d="M 240.319 -266.2 L 240.319 -266.33" />
    <path d="M 240.319 -266.33 L 240.069 -266.33" />
    <path d="M 240.069 -266.33 L 240.069 -266.2" />
    <path d="M 240.429 -266.207 L 240.679 -266.207" />
    <path d="M 240.679 -266.207 L 240.679 -266.337" />
    <path d="M 240.679 -266.337 L 240.429 -266.337" />
    <path d="M 240.429 -266.337 L 240.429 -266.207" />
    <path d="M 238.208 -274.269 L 238.458 -274.269" />
    <path d="M 238.458 -274.269 L 238.458 -274.399" />
    <path d="M 238.458 -274.399 L 238.208 -274.399" />
    <path d="M 238.208 -274.399 L 238.208 -274.269" />
    <path d="M 237.838 -274.269 L 238.088 -274.269" />
    <path d="M 238.088 -274.269 L 238.088 -274.399" />
    <path d="M 238.088 -274.399 L 237.838 -274.399" />
    <path d="M 237.838 -274.399 L 237.838 -274.269" />
    <path d="M 238.578 -274.269 L 238.828 -274.269" />
    <path d="M 238.828 -274.269 L 238.828 -274.399" />
    <path d="M 238.828 -274.399 L 238.578 -274.399" />
    <path d="M 238.578 -274.399 L 238.578 -274.269" />
    <path d="M 238.948 -274.269 L 239.198 -274.269" />
    <path d="M 239.198 -274.269 L 239.198 -274.399" />
    <path d="M 239.198 -274.399 L 238.948 -274.399" />
    <path d="M 238.948 -274.399 L 238.948 -274.269" />
    <path d="M 239.318 -274.269 L 239.568 -274.269" />
    <path d="M 239.568 -274.269 L 239.568 -274.399" />
    <path d="M 239.568 -274.399 L 239.318 -274.399" />
    <path d="M 239.318 -274.399 L 239.318 -274.269" />
    <path d="M 239.688 -274.269 L 239.938 -274.269" />
    <path d="M 239.938 -274.269 L 239.938 -274.399" />
    <path d="M 239.938 -274.399 L 239.688 -274.399" />
    <path d="M 239.688 -274.399 L 239.688 -274.269" />
    <path d="M 243.064 -266.504 L 243.374 -266.504" />
    <path d="M 243.374 -266.504 L 243.374 -266.814" />
    <path d="M 243.374 -266.814 L 243.064 -266.814" />
    <path d="M 243.594 -266.504 L 243.904 -266.504" />
    <path d="M 243.904 -266.504 L 243.904 -266.814" />
    <path d="M 243.904 -266.814 L 243.594 -266.814" />
    <path d="M 243.654 -260.294 L 243.674 -260.294" />
    <path d="M 243.507 -260.366 L 243.201 -260.366" />
    <path d="M 243.507 -260.362 L 243.201 -260.362" />
    <path d="M 243.507 -260.344 L 243.201 -260.344" />
    <path d="M 243.507 -260.34 L 243.201 -260.34" />
    <path d="M 243.507 -260.322 L 243.201 -260.322" />
    <path d="M 243.507 -260.318 L 243.201 -260.318" />
    <path d="M 242.966 -260.366 L 242.652 -260.366" />
    <path d="M 242.966 -260.362 L 242.652 -260.362" />
    <path d="M 242.966 -260.344 L 242.652 -260.344" />
    <path d="M 242.966 -260.322 L 242.652 -260.322" />
    <path d="M 242.966 -260.318 L 242.652 -260.318" />
    <path d="M 242.503 -260.294 L 242.483 -260.294" />
    <path d="M 242.502 -260.37 L 242.484 -260.37" />
    <path d="M 242.502 -260.294 L 242.484 -260.294" />
    <path d="M 242.502 -260.37 L 242.502 -260.294" />
    <path d="M 243.652 -260.294 L 243.673 -260.294" />
    <path d="M 243.657 -260.37 L 243.674 -260.37" />
    <path d="M 243.657 -260.294 L 243.674 -260.294" />
    <path d="M 243.657 -260.37 L 243.657 -260.294" />
    <path d="M 242.966 -260.34 L 242.652 -260.34" />
    <path d="M 242.524 -260.285 L 242.524 -260.064" />
    <path d="M 242.534 -260.29 L 242.534 -260.056" />
    <path d="M 243.634 -260.284 L 243.634 -260.064" />
    <path d="M 243.624 -260.29 L 243.624 -260.056" />
    <path d="M 241.794 -260.064 L 242.524 -260.064" />
    <path d="M 241.834 -260.054 L 242.484 -260.054" />
    <path d="M 243.636 -260.004 L 242.522 -260.004" />
    <path d="M 242.522 -260.004 L 242.522 -260.056" />
    <path d="M 242.534 -260.056 L 242.534 -260.004" />
    <path d="M 242.534 -260.056 L 242.484 -260.056" />
    <path d="M 242.484 -260.056 L 242.484 -260.054" />
    <path d="M 244.864 -260.064 L 243.634 -260.064" />
    <path d="M 244.824 -260.054 L 243.674 -260.054" />
    <path d="M 243.636 -260.004 L 243.636 -260.056" />
    <path d="M 243.624 -260.056 L 243.624 -260.004" />
    <path d="M 243.624 -260.056 L 243.674 -260.056" />
    <path d="M 243.674 -260.056 L 243.674 -260.054" />
    <path d="M 245.994 -260.294 L 246.014 -260.294" />
    <path d="M 245.842 -260.366 L 245.537 -260.366" />
    <path d="M 245.842 -260.362 L 245.537 -260.362" />
    <path d="M 245.842 -260.344 L 245.537 -260.344" />
    <path d="M 245.842 -260.34 L 245.537 -260.34" />
    <path d="M 245.842 -260.322 L 245.537 -260.322" />
    <path d="M 245.842 -260.318 L 245.537 -260.318" />
    <path d="M 245.301 -260.366 L 244.988 -260.366" />
    <path d="M 245.301 -260.362 L 244.988 -260.362" />
    <path d="M 245.301 -260.344 L 244.988 -260.344" />
    <path d="M 245.301 -260.322 L 244.988 -260.322" />
    <path d="M 245.301 -260.318 L 244.988 -260.318" />
    <path d="M 244.843 -260.294 L 244.823 -260.294" />
    <path d="M 244.837 -260.37 L 244.824 -260.37" />
    <path d="M 244.837 -260.294 L 244.824 -260.294" />
    <path d="M 244.837 -260.37 L 244.837 -260.294" />
    <path d="M 245.992 -260.294 L 246.013 -260.294" />
    <path d="M 245.993 -260.37 L 246.013 -260.37" />
    <path d="M 245.993 -260.294 L 246.013 -260.294" />
    <path d="M 245.993 -260.37 L 245.993 -260.294" />
    <path d="M 245.301 -260.34 L 244.988 -260.34" />
    <path d="M 244.864 -260.285 L 244.864 -260.064" />
    <path d="M 244.874 -260.29 L 244.874 -260.056" />
    <path d="M 245.974 -260.284 L 245.974 -260.064" />
    <path d="M 245.964 -260.29 L 245.964 -260.056" />
    <path d="M 245.976 -260.004 L 244.862 -260.004" />
    <path d="M 244.862 -260.004 L 244.862 -260.056" />
    <path d="M 244.874 -260.056 L 244.874 -260.004" />
    <path d="M 244.874 -260.056 L 244.824 -260.056" />
    <path d="M 244.824 -260.056 L 244.824 -260.054" />
    <path d="M 245.976 -260.004 L 245.976 -260.056" />
    <path d="M 245.964 -260.056 L 245.964 -260.004" />
    <path d="M 245.964 -260.056 L 246.014 -260.056" />
    <path d="M 246.014 -260.056 L 246.014 -260.054" />
    <path d="M 241.814 -260.294 L 241.834 -260.294" />
    <path d="M 241.667 -260.366 L 241.361 -260.366" />
    <path d="M 241.667 -260.362 L 241.361 -260.362" />
    <path d="M 241.667 -260.344 L 241.361 -260.344" />
    <path d="M 241.667 -260.34 L 241.361 -260.34" />
    <path d="M 241.667 -260.322 L 241.361 -260.322" />
    <path d="M 241.667 -260.318 L 241.361 -260.318" />
    <path d="M 241.126 -260.366 L 240.812 -260.366" />
    <path d="M 241.126 -260.362 L 240.812 -260.362" />
    <path d="M 241.126 -260.344 L 240.812 -260.344" />
    <path d="M 241.126 -260.322 L 240.812 -260.322" />
    <path d="M 241.126 -260.318 L 240.812 -260.318" />
    <path d="M 240.663 -260.294 L 240.643 -260.294" />
    <path d="M 240.662 -260.37 L 240.644 -260.37" />
    <path d="M 240.662 -260.294 L 240.644 -260.294" />
    <path d="M 240.662 -260.37 L 240.662 -260.294" />
    <path d="M 241.817 -260.37 L 241.834 -260.37" />
    <path d="M 241.817 -260.294 L 241.834 -260.294" />
    <path d="M 241.817 -260.37 L 241.817 -260.294" />
    <path d="M 241.126 -260.34 L 240.812 -260.34" />
    <path d="M 240.684 -260.285 L 240.684 -260.064" />
    <path d="M 240.694 -260.29 L 240.694 -260.056" />
    <path d="M 241.794 -260.284 L 241.794 -260.064" />
    <path d="M 241.784 -260.29 L 241.784 -260.056" />
    <path d="M 239.874 -260.064 L 240.684 -260.064" />
    <path d="M 239.914 -260.054 L 240.644 -260.054" />
    <path d="M 241.796 -260.004 L 240.682 -260.004" />
    <path d="M 240.682 -260.004 L 240.682 -260.056" />
    <path d="M 240.694 -260.056 L 240.694 -260.004" />
    <path d="M 240.694 -260.056 L 240.644 -260.056" />
    <path d="M 240.644 -260.056 L 240.644 -260.054" />
    <path d="M 241.796 -260.004 L 241.796 -260.056" />
    <path d="M 241.784 -260.056 L 241.784 -260.004" />
    <path d="M 241.784 -260.056 L 241.834 -260.056" />
    <path d="M 241.834 -260.056 L 241.834 -260.054" />
    <path d="M 239.894 -260.294 L 239.914 -260.294" />
    <path d="M 239.747 -260.366 L 239.441 -260.366" />
    <path d="M 239.747 -260.362 L 239.441 -260.362" />
    <path d="M 239.747 -260.344 L 239.441 -260.344" />
    <path d="M 239.747 -260.34 L 239.441 -260.34" />
    <path d="M 239.747 -260.322 L 239.441 -260.322" />
    <path d="M 239.747 -260.318 L 239.441 -260.318" />
    <path d="M 239.206 -260.366 L 238.892 -260.366" />
    <path d="M 239.206 -260.362 L 238.892 -260.362" />
    <path d="M 239.206 -260.344 L 238.892 -260.344" />
    <path d="M 239.206 -260.322 L 238.892 -260.322" />
    <path d="M 239.206 -260.318 L 238.892 -260.318" />
    <path d="M 238.743 -260.294 L 238.723 -260.294" />
    <path d="M 238.742 -260.37 L 238.724 -260.37" />
    <path d="M 238.742 -260.294 L 238.724 -260.294" />
    <path d="M 238.742 -260.37 L 238.742 -260.294" />
    <path d="M 239.897 -260.37 L 239.914 -260.37" />
    <path d="M 239.897 -260.294 L 239.914 -260.294" />
    <path d="M 239.897 -260.37 L 239.897 -260.294" />
    <path d="M 239.206 -260.34 L 238.892 -260.34" />
    <path d="M 238.764 -260.285 L 238.764 -260.064" />
    <path d="M 238.774 -260.29 L 238.774 -260.056" />
    <path d="M 239.874 -260.284 L 239.874 -260.064" />
    <path d="M 239.864 -260.29 L 239.864 -260.056" />
    <path d="M 238.004 -260.064 L 238.764 -260.064" />
    <path d="M 238.044 -260.054 L 238.724 -260.054" />
    <path d="M 239.876 -260.004 L 238.762 -260.004" />
    <path d="M 238.762 -260.004 L 238.762 -260.056" />
    <path d="M 238.774 -260.056 L 238.774 -260.004" />
    <path d="M 238.774 -260.056 L 238.724 -260.056" />
    <path d="M 238.724 -260.056 L 238.724 -260.054" />
    <path d="M 239.876 -260.004 L 239.876 -260.056" />
    <path d="M 239.864 -260.056 L 239.864 -260.004" />
    <path d="M 239.864 -260.056 L 239.914 -260.056" />
    <path d="M 239.914 -260.056 L 239.914 -260.054" />
    <path d="M 238.024 -260.294 L 238.044 -260.294" />
    <path d="M 237.877 -260.366 L 237.571 -260.366" />
    <path d="M 237.877 -260.362 L 237.571 -260.362" />
    <path d="M 237.877 -260.344 L 237.571 -260.344" />
    <path d="M 237.877 -260.34 L 237.571 -260.34" />
    <path d="M 237.877 -260.322 L 237.571 -260.322" />
    <path d="M 237.877 -260.318 L 237.571 -260.318" />
    <path d="M 237.336 -260.366 L 237.022 -260.366" />
    <path d="M 237.336 -260.362 L 237.022 -260.362" />
    <path d="M 237.336 -260.344 L 237.022 -260.344" />
    <path d="M 237.336 -260.322 L 237.022 -260.322" />
    <path d="M 237.336 -260.318 L 237.022 -260.318" />
    <path d="M 236.873 -260.294 L 236.853 -260.294" />
    <path d="M 236.872 -260.37 L 236.854 -260.37" />
    <path d="M 236.872 -260.294 L 236.854 -260.294" />
    <path d="M 236.872 -260.37 L 236.872 -260.294" />
    <path d="M 238.027 -260.37 L 238.044 -260.37" />
    <path d="M 238.027 -260.294 L 238.044 -260.294" />
    <path d="M 238.027 -260.37 L 238.027 -260.294" />
    <path d="M 237.336 -260.34 L 237.022 -260.34" />
    <path d="M 236.894 -260.285 L 236.894 -260.064" />
    <path d="M 236.904 -260.29 L 236.904 -260.056" />
    <path d="M 238.004 -260.284 L 238.004 -260.064" />
    <path d="M 237.994 -260.29 L 237.994 -260.056" />
    <path d="M 236.139 -260.064 L 236.894 -260.064" />
    <path d="M 236.129 -260.054 L 236.854 -260.054" />
    <path d="M 238.006 -260.004 L 236.892 -260.004" />
    <path d="M 236.892 -260.004 L 236.892 -260.056" />
    <path d="M 236.904 -260.056 L 236.904 -260.004" />
    <path d="M 236.904 -260.056 L 236.854 -260.056" />
    <path d="M 236.854 -260.056 L 236.854 -260.054" />
    <path d="M 238.006 -260.004 L 238.006 -260.056" />
    <path d="M 237.994 -260.056 L 237.994 -260.004" />
    <path d="M 237.994 -260.056 L 238.044 -260.056" />
    <path d="M 238.044 -260.056 L 238.044 -260.054" />
    <path d="M 236.139 -260.424 L 236.139 -260.294" />
    <path d="M 236.139 -260.294 L 236.139 -260.064" />
    <path d="M 248.406 -260.294 L 248.427 -260.294" />
    <path d="M 248.259 -260.366 L 247.954 -260.366" />
    <path d="M 248.259 -260.362 L 247.954 -260.362" />
    <path d="M 248.259 -260.344 L 247.954 -260.344" />
    <path d="M 248.259 -260.34 L 247.954 -260.34" />
    <path d="M 248.259 -260.322 L 247.954 -260.322" />
    <path d="M 248.259 -260.318 L 247.954 -260.318" />
    <path d="M 247.718 -260.366 L 247.405 -260.366" />
    <path d="M 247.718 -260.362 L 247.405 -260.362" />
    <path d="M 247.718 -260.344 L 247.405 -260.344" />
    <path d="M 247.718 -260.322 L 247.405 -260.322" />
    <path d="M 247.718 -260.318 L 247.405 -260.318" />
    <path d="M 247.256 -260.294 L 247.235 -260.294" />
    <path d="M 247.254 -260.37 L 247.237 -260.37" />
    <path d="M 247.254 -260.294 L 247.237 -260.294" />
    <path d="M 247.254 -260.37 L 247.254 -260.294" />
    <path d="M 248.41 -260.37 L 248.427 -260.37" />
    <path d="M 248.41 -260.294 L 248.427 -260.294" />
    <path d="M 248.41 -260.37 L 248.41 -260.294" />
    <path d="M 247.718 -260.34 L 247.405 -260.34" />
    <path d="M 247.277 -260.285 L 247.277 -260.064" />
    <path d="M 247.287 -260.29 L 247.287 -260.056" />
    <path d="M 248.387 -260.284 L 248.387 -260.064" />
    <path d="M 248.377 -260.29 L 248.377 -260.056" />
    <path d="M 245.974 -260.064 L 247.277 -260.064" />
    <path d="M 246.014 -260.054 L 247.237 -260.054" />
    <path d="M 248.389 -260.004 L 247.275 -260.004" />
    <path d="M 247.275 -260.004 L 247.275 -260.056" />
    <path d="M 247.287 -260.056 L 247.287 -260.004" />
    <path d="M 247.287 -260.056 L 247.237 -260.056" />
    <path d="M 247.237 -260.056 L 247.237 -260.054" />
    <path d="M 248.389 -260.004 L 248.389 -260.056" />
    <path d="M 248.377 -260.056 L 248.377 -260.004" />
    <path d="M 248.377 -260.056 L 248.427 -260.056" />
    <path d="M 248.427 -260.056 L 248.427 -260.054" />
    <path d="M 248.387 -260.064 L 248.75 -260.064" />
    <path d="M 248.427 -260.054 L 248.75 -260.054" />
    <path d="M 236.129 -260.054 L 236.129 -260.864" />
    <path d="M 236.129 -260.864 L 236.139 -260.864" />
    <path d="M 241.82 -270.501 L 241.714 -270.501" />
    <path d="M 241.585 -270.728 L 241.584 -270.623" />
    <path d="M 241.715 -270.727 L 241.714 -270.501" />
    <path d="M 241.584 -270.623 L 241.254 -270.623" />
    <path d="M 243.108 -270.497 L 243.108 -270.054" />
    <path d="M 241.764 -270.352 L 241.82 -270.352" />
    <path d="M 241.82 -270.352 L 241.821 -270.501" />
    <path d="M 243.108 -270.497 L 243.967 -270.494" />
    <path d="M 243.967 -270.494 L 243.966 -270.054" />
    <path d="M 245.097 -270.491 L 245.096 -270.054" />
    <path d="M 246.792 -270.485 L 247.086 -270.485" />
    <path d="M 247.086 -270.485 L 247.087 -270.673" />
    <path d="M 245.097 -270.491 L 246.082 -270.488" />
    <path d="M 241.82 -270.501 L 242.005 -270.501" />
    <path d="M 241.82 -270.352 L 242.005 -270.352" />
    <path d="M 241.764 -270.342 L 242.027 -270.342" />
    <path d="M 242.005 -270.352 L 242.005 -270.501" />
    <path d="M 242.027 -270.342 L 242.027 -270.52" />
    <path d="M 245.053 -270.59 L 245.043 -270.59" />
    <path d="M 242.068 -270.78 L 242.067 -270.736" />
    <path d="M 244.027 -270.59 L 244.028 -270.722" />
    <path d="M 244.037 -270.59 L 244.038 -270.73" />
    <path d="M 243.988 -270.73 L 243.988 -270.732" />
    <path d="M 244.038 -270.73 L 243.988 -270.73" />
    <path d="M 244.027 -270.593 L 244.037 -270.593" />
    <path d="M 245.053 -270.587 L 245.054 -270.719" />
    <path d="M 245.043 -270.587 L 245.044 -270.727" />
    <path d="M 245.094 -270.727 L 245.094 -270.729" />
    <path d="M 245.044 -270.727 L 245.094 -270.727" />
    <path d="M 243.077 -270.733 L 243.078 -270.777" />
    <path d="M 242.017 -270.737 L 242.067 -270.736" />
    <path d="M 242.017 -270.737 L 242.017 -270.739" />
    <path d="M 242.043 -270.736 L 242.044 -270.78" />
    <path d="M 242.044 -270.78 L 242.068 -270.78" />
    <path d="M 242.04 -270.675 L 242.057 -270.675" />
    <path d="M 242.04 -270.675 L 242.04 -270.665" />
    <path d="M 242.04 -270.64 L 242.057 -270.64" />
    <path d="M 242.04 -270.64 L 242.04 -270.65" />
    <path d="M 242.059 -270.665 L 242.067 -270.669" />
    <path d="M 242.059 -270.65 L 242.067 -270.646" />
    <path d="M 242.067 -270.596 L 242.067 -270.736" />
    <path d="M 242.057 -270.596 L 242.057 -270.728" />
    <path d="M 242.067 -270.601 L 242.057 -270.601" />
    <path d="M 243.103 -270.733 L 243.053 -270.733" />
    <path d="M 243.103 -270.733 L 243.103 -270.735" />
    <path d="M 243.078 -270.777 L 243.054 -270.777" />
    <path d="M 243.054 -270.777 L 243.053 -270.733" />
    <path d="M 243.08 -270.672 L 243.063 -270.672" />
    <path d="M 243.08 -270.672 L 243.08 -270.662" />
    <path d="M 243.08 -270.637 L 243.063 -270.637" />
    <path d="M 243.08 -270.637 L 243.08 -270.647" />
    <path d="M 243.061 -270.662 L 243.053 -270.665" />
    <path d="M 243.061 -270.647 L 243.053 -270.643" />
    <path d="M 243.053 -270.593 L 243.053 -270.733" />
    <path d="M 243.063 -270.593 L 243.063 -270.725" />
    <path d="M 243.053 -270.598 L 243.063 -270.598" />
    <path d="M 246.12 -270.724 L 246.12 -270.726" />
    <path d="M 246.746 -270.722 L 246.746 -270.724" />
    <path d="M 246.705 -270.582 L 246.706 -270.714" />
    <path d="M 246.696 -270.722 L 246.746 -270.722" />
    <path d="M 241.715 -270.792 L 241.715 -270.728" />
    <path d="M 241.715 -270.727 L 241.585 -270.728" />
    <path d="M 241.585 -270.792 L 241.585 -270.728" />
    <path d="M 241.953 -270.803 L 241.953 -270.739" />
    <path d="M 241.943 -270.843 L 241.943 -270.729" />
    <path d="M 241.811 -271.24 L 241.951 -271.24" />
    <path d="M 241.811 -271.25 L 241.943 -271.25" />
    <path d="M 241.724 -271.456 L 241.944 -271.455" />
    <path d="M 241.951 -271.29 L 241.953 -271.29" />
    <path d="M 241.951 -271.24 L 241.951 -271.29" />
    <path d="M 241.813 -271.25 L 241.811 -271.25" />
    <path d="M 241.814 -271.25 L 241.814 -271.24" />
    <path d="M 241.951 -271.269 L 241.995 -271.269" />
    <path d="M 241.995 -271.269 L 241.995 -271.245" />
    <path d="M 241.995 -271.245 L 241.951 -271.245" />
    <path d="M 241.715 -270.792 L 241.585 -270.792" />
    <path d="M 241.993 -271.245 L 241.993 -270.848" />
    <path d="M 241.81 -270.853 L 241.951 -270.853" />
    <path d="M 241.81 -270.843 L 241.943 -270.843" />
    <path d="M 241.951 -270.803 L 241.953 -270.803" />
    <path d="M 241.951 -270.853 L 241.951 -270.803" />
    <path d="M 241.813 -270.843 L 241.81 -270.843" />
    <path d="M 241.814 -270.843 L 241.814 -270.853" />
    <path d="M 241.951 -270.824 L 241.995 -270.824" />
    <path d="M 241.995 -270.824 L 241.995 -270.848" />
    <path d="M 241.995 -270.848 L 241.951 -270.848" />
    <path d="M 242.017 -270.739 L 241.953 -270.739" />
    <path d="M 242.057 -270.728 L 241.943 -270.729" />
    <path d="M 246.159 -270.584 L 246.16 -270.715" />
    <path d="M 246.169 -270.584 L 246.17 -270.723" />
    <path d="M 246.17 -270.723 L 246.12 -270.724" />
    <path d="M 246.706 -270.714 L 246.844 -270.713" />
    <path d="M 246.695 -270.582 L 246.696 -270.722" />
    <path d="M 246.159 -270.586 L 246.169 -270.586" />
    <path d="M 246.746 -270.724 L 246.834 -270.723" />
    <path d="M 246.705 -270.585 L 246.695 -270.585" />
    <path d="M 246.844 -270.713 L 246.843 -270.894" />
    <path d="M 246.834 -270.723 L 246.833 -270.904" />
    <path d="M 242.175 -270.523 L 242.442 -270.522" />
    <path d="M 242.175 -270.571 L 242.443 -270.57" />
    <path d="M 242.677 -270.521 L 242.944 -270.52" />
    <path d="M 242.678 -270.569 L 242.945 -270.568" />
    <path d="M 241.738 -270.962 L 241.738 -271.131" />
    <path d="M 241.786 -270.962 L 241.786 -271.131" />
    <path d="M 244.185 -270.772 L 244.897 -270.769" />
    <path d="M 244.184 -270.516 L 244.423 -270.516" />
    <path d="M 241.953 -271.29 L 241.954 -272.004" />
    <path d="M 241.943 -271.25 L 241.944 -272.004" />
    <path d="M 243.988 -270.732 L 243.103 -270.735" />
    <path d="M 243.063 -270.725 L 244.028 -270.722" />
    <path d="M 242.068 -270.778 L 243.054 -270.775" />
    <path d="M 244.184 -270.564 L 244.423 -270.564" />
    <path d="M 244.658 -270.515 L 244.896 -270.514" />
    <path d="M 244.658 -270.563 L 244.896 -270.562" />
    <path d="M 246.12 -270.726 L 245.094 -270.729" />
    <path d="M 245.054 -270.719 L 246.16 -270.715" />
    <path d="M 246.317 -270.765 L 246.549 -270.764" />
    <path d="M 246.316 -270.51 L 246.548 -270.509" />
    <path d="M 246.316 -270.558 L 246.548 -270.557" />
    <path d="M 246.757 -270.197 L 246.757 -270.494" />
    <path d="M 246.107 -270.197 L 246.107 -270.496" />
    <path d="M 245.105 -270.197 L 245.105 -270.499" />
    <path d="M 242.005 -270.519 L 242.005 -270.595" />
    <path d="M 242.005 -270.595 L 242.025 -270.595" />
    <path d="M 242.025 -270.595 L 242.025 -270.519" />
    <path d="M 243.115 -270.516 L 243.115 -270.592" />
    <path d="M 243.115 -270.592 L 243.095 -270.592" />
    <path d="M 243.095 -270.592 L 243.095 -270.516" />
    <path d="M 241.734 -270.792 L 241.81 -270.792" />
    <path d="M 241.81 -270.792 L 241.81 -270.812" />
    <path d="M 241.81 -270.812 L 241.734 -270.812" />
    <path d="M 241.734 -271.301 L 241.81 -271.301" />
    <path d="M 241.81 -271.301 L 241.81 -271.282" />
    <path d="M 241.81 -271.282 L 241.734 -271.282" />
    <path d="M 241.715 -271.286 L 241.715 -272.331" />
    <path d="M 242.336 -275.307 L 241.838 -275.307" />
    <path d="M 241.511 -273.506 L 241.726 -273.506" />
    <path d="M 241.511 -272.326 L 241.725 -272.326" />
    <path d="M 242.328 -275.31 L 242.176 -275.31" />
    <path d="M 242.176 -275.31 L 242.176 -275.199" />
    <path d="M 242.327 -275.188 L 242.319 -274.205" />
    <path d="M 242.319 -274.205 L 241.719 -274.202" />
    <path d="M 241.719 -274.202 L 241.718 -273.501" />
    <path d="M 242.328 -275.31 L 242.327 -275.188" />
    <path d="M 241.813 -272.388 L 241.953 -272.388" />
    <path d="M 241.953 -272.338 L 241.955 -272.338" />
    <path d="M 241.953 -272.388 L 241.953 -272.338" />
    <path d="M 241.816 -272.378 L 241.813 -272.378" />
    <path d="M 241.816 -272.378 L 241.816 -272.388" />
    <path d="M 241.814 -273.444 L 241.954 -273.444" />
    <path d="M 241.954 -273.494 L 241.956 -273.494" />
    <path d="M 241.956 -273.494 L 241.957 -273.953" />
    <path d="M 241.954 -273.444 L 241.954 -273.494" />
    <path d="M 241.817 -273.454 L 241.814 -273.454" />
    <path d="M 241.817 -273.454 L 241.817 -273.444" />
    <path d="M 242.555 -273.955 L 241.957 -273.953" />
    <path d="M 242.545 -273.965 L 241.947 -273.963" />
    <path d="M 242.545 -273.965 L 242.556 -275.357" />
    <path d="M 242.555 -273.955 L 242.566 -275.317" />
    <path d="M 241.741 -273.297 L 241.74 -273.033" />
    <path d="M 241.789 -273.297 L 241.788 -273.033" />
    <path d="M 241.996 -273.297 L 241.995 -272.535" />
    <path d="M 241.74 -272.798 L 241.74 -272.535" />
    <path d="M 241.788 -272.798 L 241.788 -272.535" />
    <path d="M 241.954 -272.004 L 241.955 -272.338" />
    <path d="M 246.082 -270.488 L 246.082 -270.054" />
    <path d="M 246.792 -270.485 L 246.792 -270.054" />
    <path d="M 242.944 -266.504 L 242.944 -266.104" />
    <path d="M 237.764 -274.184 L 237.764 -274.454" />
    <path d="M 241.764 -270.039 L 237.714 -270.039" />
    <path d="M 241.254 -270.064 L 237.739 -270.064" />
    <path d="M 241.254 -270.164 L 238.769 -270.164" />
    <path d="M 241.254 -270.139 L 238.744 -270.139" />
    <path d="M 238.644 -270.164 L 237.714 -270.164" />
    <path d="M 238.669 -270.139 L 237.739 -270.139" />
    <path d="M 238.769 -270.279 L 238.644 -270.279" />
    <path d="M 239.779 -271.149 L 239.679 -271.149" />
    <path d="M 239.779 -271.174 L 239.679 -271.174" />
    <path d="M 241.354 -272.209 L 238.644 -272.209" />
    <path d="M 241.354 -272.184 L 238.669 -272.184" />
    <path d="M 239.679 -272.059 L 238.769 -272.059" />
    <path d="M 239.704 -272.084 L 238.744 -272.084" />
    <path d="M 239.779 -271.834 L 239.779 -271.149" />
    <path d="M 239.754 -271.859 L 239.754 -271.174" />
    <path d="M 239.679 -272.059 L 239.679 -271.149" />
    <path d="M 239.704 -272.084 L 239.704 -271.174" />
    <path d="M 238.769 -272.059 L 238.769 -271.039" />
    <path d="M 238.744 -272.084 L 238.744 -271.039" />
    <path d="M 238.644 -272.209 L 238.644 -271.509" />
    <path d="M 238.669 -272.184 L 238.669 -271.509" />
    <path d="M 238.644 -271.509 L 238.644 -271.039" />
    <path d="M 238.669 -271.509 L 238.669 -271.039" />
    <path d="M 238.769 -271.039 L 238.644 -271.039" />
    <path d="M 238.644 -271.534 L 237.557 -271.534" />
    <path d="M 238.644 -271.509 L 237.557 -271.509" />
    <path d="M 237.789 -271.339 L 237.714 -271.339" />
    <path d="M 237.789 -271.364 L 237.714 -271.364" />
    <path d="M 236.672 -271.534 L 236.514 -271.534" />
    <path d="M 236.672 -271.509 L 236.514 -271.509" />
    <path d="M 237.714 -271.409 L 237.557 -271.409" />
    <path d="M 237.739 -271.434 L 237.557 -271.434" />
    <path d="M 236.672 -271.409 L 236.514 -271.409" />
    <path d="M 236.672 -271.434 L 236.514 -271.434" />
    <path d="M 236.672 -271.409 L 236.672 -271.534" />
    <path d="M 239.779 -271.834 L 239.984 -271.834" />
    <path d="M 240.434 -271.834 L 241.354 -271.834" />
    <path d="M 239.754 -271.859 L 239.959 -271.859" />
    <path d="M 240.459 -271.859 L 241.354 -271.859" />
    <path d="M 238.769 -270.279 L 238.769 -270.164" />
    <path d="M 238.744 -270.279 L 238.744 -270.139" />
    <path d="M 238.644 -270.279 L 238.644 -270.164" />
    <path d="M 238.669 -270.279 L 238.669 -270.139" />
    <path d="M 237.714 -270.039 L 237.714 -270.164" />
    <path d="M 237.739 -270.039 L 237.739 -270.164" />
    <path d="M 244.274 -265.004 L 243.974 -265.004" />
    <path d="M 244.274 -265.914 L 243.974 -265.914" />
    <path d="M 236.672 -271.409 L 236.672 -271.534" />
    <path d="M 237.557 -271.409 L 237.557 -271.534" />
    <path d="M 246.782 -268.429 L 246.782 -268.304" />
    <path d="M 246.022 -268.429 L 246.022 -268.304" />
    <path d="M 245.932 -266.504 L 245.932 -267.364" />
    <path d="M 245.907 -266.504 L 245.907 -267.364" />
    <path d="M 245.932 -268.124 L 245.932 -268.304" />
    <path d="M 245.907 -268.124 L 245.907 -268.329" />
    <path d="M 245.932 -268.429 L 245.932 -270.054" />
    <path d="M 245.907 -268.404 L 245.907 -270.054" />
    <path d="M 245.807 -266.504 L 245.807 -267.364" />
    <path d="M 245.832 -266.504 L 245.832 -267.364" />
    <path d="M 245.807 -268.124 L 245.807 -270.054" />
    <path d="M 245.832 -268.124 L 245.832 -270.054" />
    <path d="M 247.142 -266.504 L 246.832 -266.504" />
    <path d="M 246.832 -266.504 L 246.832 -266.104" />
    <path d="M 246.832 -266.104 L 247.117 -266.104" />
    <path d="M 245.807 -267.364 L 245.932 -267.364" />
    <path d="M 245.807 -268.124 L 245.932 -268.124" />
    <path d="M 245.932 -268.304 L 246.022 -268.304" />
    <path d="M 245.907 -268.329 L 246.022 -268.329" />
    <path d="M 246.782 -268.304 L 247.482 -268.304" />
    <path d="M 246.782 -268.329 L 247.482 -268.329" />
    <path d="M 245.932 -268.429 L 246.022 -268.429" />
    <path d="M 245.907 -268.404 L 246.022 -268.404" />
    <path d="M 246.782 -268.429 L 247.482 -268.429" />
    <path d="M 246.782 -268.404 L 247.482 -268.404" />
    <path d="M 243.078 -270.517 L 243.078 -270.054" />
    <path d="M 243.108 -270.054 L 243.078 -270.054" />
    <path d="M 245.932 -266.504 L 245.932 -266.234" />
    <path d="M 241.544 -266.504 L 241.544 -266.104" />
    <path d="M 245.359 -264.374 L 245.359 -264.499" />
    <path d="M 246.244 -264.374 L 246.244 -264.499" />
    <path d="M 248.75 -264.374 L 246.244 -264.374" />
    <path d="M 248.75 -264.399 L 246.244 -264.399" />
    <path d="M 245.359 -264.374 L 244.274 -264.374" />
    <path d="M 245.359 -264.399 L 244.274 -264.399" />
    <path d="M 247.284 -264.499 L 246.244 -264.499" />
    <path d="M 247.284 -264.474 L 246.244 -264.474" />
    <path d="M 245.359 -264.499 L 244.274 -264.499" />
    <path d="M 245.359 -264.474 L 244.274 -264.474" />
    <path d="M 240.174 -260.724 L 240.174 -266.104" />
    <path d="M 240.199 -260.724 L 240.199 -266.104" />
    <path d="M 240.299 -260.724 L 240.299 -266.104" />
    <path d="M 240.274 -260.724 L 240.274 -266.104" />
    <path d="M 244.444 -266.504 L 245.354 -266.504" />
    <path d="M 244.444 -266.479 L 245.354 -266.479" />
    <path d="M 244.444 -266.379 L 245.354 -266.379" />
    <path d="M 245.507 -269.354 L 245.507 -270.054" />
    <path d="M 245.532 -269.379 L 245.532 -270.054" />
    <path d="M 244.994 -267.414 L 244.994 -267.514" />
    <path d="M 244.969 -267.414 L 244.969 -267.514" />
    <path d="M 244.084 -267.414 L 244.994 -267.414" />
    <path d="M 244.059 -267.439 L 244.969 -267.439" />
    <path d="M 243.934 -267.514 L 244.994 -267.514" />
    <path d="M 243.959 -267.489 L 244.969 -267.489" />
    <path d="M 244.084 -266.504 L 244.084 -267.414" />
    <path d="M 243.934 -266.934 L 243.934 -267.514" />
    <path d="M 243.959 -266.934 L 243.959 -267.489" />
    <path d="M 244.059 -266.504 L 244.059 -267.439" />
    <path d="M 237.714 -271.339 L 237.714 -271.409" />
    <path d="M 237.739 -271.364 L 237.739 -271.434" />
    <path d="M 237.789 -271.339 L 237.789 -271.509" />
    <path d="M 237.789 -271.339 L 238.644 -271.339" />
    <path d="M 240.434 -272.059 L 239.984 -272.059" />
    <path d="M 240.459 -272.084 L 239.959 -272.084" />
    <path d="M 239.984 -271.834 L 239.984 -272.059" />
    <path d="M 239.959 -271.859 L 239.959 -272.084" />
    <path d="M 240.434 -271.834 L 240.434 -272.059" />
    <path d="M 240.459 -271.859 L 240.459 -272.084" />
    <path d="M 241.764 -270.054 L 241.764 -270.039" />
    <path d="M 245.507 -269.354 L 245.807 -269.354" />
    <path d="M 245.532 -269.379 L 245.807 -269.379" />
    <path d="M 243.996 -270.515 L 243.996 -270.054" />
    <path d="M 245.048 -270.494 L 245.048 -270.054" />
    <path d="M 243.966 -270.054 L 243.996 -270.054" />
    <path d="M 245.096 -270.054 L 245.048 -270.054" />
    <path d="M 247.482 -270.054 L 247.704 -270.054" />
    <path d="M 247.087 -270.664 L 247.704 -270.664" />
    <path d="M 247.704 -270.824 L 247.704 -270.664" />
    <path d="M 247.694 -270.814 L 247.694 -270.664" />
    <path d="M 247.285 -270.824 L 247.704 -270.824" />
    <path d="M 247.275 -270.814 L 247.694 -270.814" />
    <path d="M 246.833 -270.904 L 247.285 -270.904" />
    <path d="M 246.843 -270.894 L 247.275 -270.894" />
    <path d="M 247.285 -270.904 L 247.285 -270.824" />
    <path d="M 247.275 -270.894 L 247.275 -270.814" />
    <path d="M 242.564 -275.317 L 242.564 -275.367" />
    <path d="M 242.566 -275.317 L 242.564 -275.317" />
  </g>
</svg>
