<?xml version="1.0" encoding="UTF-8"?>
<svg xmlns="http://www.w3.org/2000/svg" viewBox="231.06 255.06 36.88 48.88" aria-hidden="true">
  <style>
    path,
    circle {
      fill: none;
      stroke: #007AFF;
      stroke-width: 1.55;
      stroke-linecap: round;
      stroke-linejoin: round;
      vector-effect: non-scaling-stroke;
    }
  </style>
  <g transform="scale(1 -1)">
    <path d="M 236.514 -277.024 L 236.514 -275.7" />
    <path d="M 236.474 -297.024 L 236.139 -297.024" />
    <path d="M 240.834 -297.024 L 240.684 -297.024" />
    <path d="M 247.574 -290.824 L 248.014 -290.824" />
    <path d="M 241.894 -277.024 L 237.594 -277.024" />
    <path d="M 236.674 -277.024 L 236.514 -277.024" />
    <path d="M 241.654 -277.304 L 240.044 -277.304" />
    <path d="M 237.724 -277.304 L 237.594 -277.304" />
    <path d="M 236.674 -277.304 L 236.534 -277.304" />
    <path d="M 237.594 -277.024 L 237.594 -277.304" />
    <path d="M 236.534 -277.304 L 236.534 -282.254" />
    <path d="M 241.654 -277.304 L 241.654 -278.538" />
    <path d="M 241.654 -279.738 L 241.654 -280.469" />
    <path d="M 240.044 -277.304 L 240.044 -277.554" />
    <path d="M 237.724 -277.304 L 237.724 -277.554" />
    <path d="M 240.044 -277.554 L 237.724 -277.554" />
    <path d="M 241.084 -282.194 L 237.774 -282.254" />
    <path d="M 241.084 -282.594 L 237.768 -282.654" />
    <path d="M 241.654 -281.664 L 241.084 -281.664" />
    <path d="M 241.654 -281.537 L 241.654 -281.664" />
    <path d="M 241.084 -281.664 L 241.084 -282.194" />
    <path d="M 237.704 -282.254 L 237.494 -282.254" />
    <path d="M 236.564 -282.254 L 236.534 -282.254" />
    <path d="M 236.564 -282.254 L 236.564 -282.654" />
    <path d="M 237.494 -282.254 L 237.494 -282.654" />
    <path d="M 237.768 -282.654 L 237.494 -282.654" />
    <path d="M 236.564 -282.654 L 236.414 -282.654" />
    <path d="M 236.414 -282.654 L 236.414 -289.206" />
    <path d="M 241.084 -282.594 L 241.084 -282.671" />
    <path d="M 241.084 -284.637 L 241.084 -285.684" />
    <path d="M 241.084 -284.637 L 241.414 -284.637" />
    <path d="M 240.834 -291.414 L 242.244 -291.414" />
    <path d="M 247.294 -285.034 L 246.74 -285.034" />
    <path d="M 245.56 -285.034 L 244.863 -285.034" />
    <path d="M 243.643 -285.034 L 242.917 -285.034" />
    <path d="M 247.574 -290.824 L 247.574 -290.634" />
    <path d="M 247.574 -289.604 L 247.574 -285.034" />
    <path d="M 247.574 -290.634 L 247.154 -290.634" />
    <path d="M 247.574 -289.604 L 247.154 -289.604" />
    <path d="M 247.154 -290.994 L 247.154 -290.634" />
    <path d="M 247.154 -289.604 L 247.154 -289.254" />
    <path d="M 247.154 -289.254 L 247.024 -289.254" />
    <path d="M 247.024 -289.254 L 247.024 -288.344" />
    <path d="M 247.024 -288.344 L 247.024 -287.314" />
    <path d="M 247.294 -287.314 L 247.294 -285.034" />
    <path d="M 245.289 -288.584 L 245.289 -285.034" />
    <path d="M 245.264 -288.609 L 245.264 -285.034" />
    <path d="M 246.814 -288.709 L 246.814 -288.584" />
    <path d="M 245.929 -288.709 L 245.929 -288.584" />
    <path d="M 241.204 -289.403 L 241.204 -289.263" />
    <path d="M 241.974 -288.109 L 241.974 -287.984" />
    <path d="M 241.949 -288.109 L 241.949 -287.984" />
    <path d="M 242.104 -285.584 L 242.104 -285.294" />
    <path d="M 242.917 -285.034 L 242.917 -284.623" />
    <path d="M 247.294 -287.314 L 247.024 -287.314" />
    <path d="M 242.004 -285.684 L 241.084 -285.684" />
    <path d="M 247.024 -288.584 L 246.814 -288.584" />
    <path d="M 247.024 -288.609 L 246.814 -288.609" />
    <path d="M 245.929 -288.584 L 245.289 -288.584" />
    <path d="M 245.929 -288.609 L 245.264 -288.609" />
    <path d="M 245.139 -288.584 L 243.219 -288.584" />
    <path d="M 245.164 -288.609 L 243.194 -288.609" />
    <path d="M 247.024 -288.709 L 246.814 -288.709" />
    <path d="M 247.024 -288.684 L 246.814 -288.684" />
    <path d="M 245.929 -288.709 L 243.094 -288.709" />
    <path d="M 245.929 -288.684 L 243.119 -288.684" />
    <path d="M 242.104 -285.294 L 242.316 -285.294" />
    <path d="M 242.244 -290.994 L 241.804 -290.994" />
    <path d="M 241.504 -290.994 L 241.104 -290.994" />
    <path d="M 241.804 -291.234 L 241.504 -291.234" />
    <path d="M 242.244 -290.994 L 242.244 -291.414" />
    <path d="M 240.834 -297.024 L 240.834 -291.414" />
    <path d="M 245.054 -297.024 L 245.114 -291.414" />
    <path d="M 245.134 -297.025 L 245.194 -291.414" />
    <path d="M 243.134 -290.994 L 243.134 -291.414" />
    <path d="M 245.114 -291.414 L 243.544 -291.414" />
    <path d="M 242.104 -285.584 L 242.004 -285.684" />
    <path d="M 241.104 -290.994 L 241.104 -290.954" />
    <path d="M 241.504 -291.234 L 241.504 -290.994" />
    <path d="M 241.804 -291.234 L 241.804 -290.994" />
    <path d="M 241.104 -290.064 L 241.104 -289.402" />
    <path d="M 241.104 -290.954 L 240.684 -290.954" />
    <path d="M 241.104 -290.064 L 240.684 -290.064" />
    <path d="M 240.684 -297.024 L 240.684 -290.954" />
    <path d="M 240.684 -290.064 L 240.684 -289.754" />
    <path d="M 236.474 -297.024 L 236.474 -289.703" />
    <path d="M 236.474 -289.703 L 240.684 -289.754" />
    <path d="M 236.414 -289.206 L 241.204 -289.263" />
    <path d="M 241.104 -289.402 L 241.204 -289.403" />
    <path d="M 248.75 -292.034 L 248.014 -292.034" />
    <path d="M 248.014 -290.824 L 248.014 -292.034" />
    <path d="M 247.574 -285.034 L 248.141 -285.034" />
    <path d="M 247.154 -290.994 L 246.814 -290.994" />
    <path d="M 245.934 -290.994 L 243.544 -290.994" />
    <path d="M 246.814 -290.994 L 246.814 -291.414" />
    <path d="M 245.934 -290.994 L 245.934 -291.414" />
    <path d="M 245.194 -291.414 L 245.934 -291.414" />
    <path d="M 246.814 -291.414 L 247.574 -291.414" />
    <path d="M 247.574 -292.584 L 248.744 -292.584" />
    <path d="M 247.574 -292.584 L 247.574 -291.414" />
    <path d="M 241.894 -277.024 L 241.894 -276.559" />
    <path d="M 241.894 -276.559 L 242.18 -276.559" />
    <path d="M 235.914 -297.444 L 236.014 -297.444" />
    <path d="M 236.014 -297.444 L 236.014 -297.294" />
    <path d="M 236.014 -297.294 L 236.264 -297.294" />
    <path d="M 236.264 -297.294 L 236.264 -297.444" />
    <path d="M 244.378 -291.114 L 244.628 -291.114" />
    <path d="M 244.628 -291.114 L 244.628 -291.244" />
    <path d="M 244.628 -291.244 L 244.378 -291.244" />
    <path d="M 244.378 -291.244 L 244.378 -291.114" />
    <path d="M 244.02 -291.114 L 244.27 -291.114" />
    <path d="M 244.27 -291.114 L 244.27 -291.244" />
    <path d="M 244.27 -291.244 L 244.02 -291.244" />
    <path d="M 244.02 -291.244 L 244.02 -291.114" />
    <path d="M 244.719 -291.114 L 244.969 -291.114" />
    <path d="M 244.969 -291.114 L 244.969 -291.244" />
    <path d="M 244.969 -291.244 L 244.719 -291.244" />
    <path d="M 244.719 -291.244 L 244.719 -291.114" />
    <path d="M 238.199 -277.3 L 238.449 -277.3" />
    <path d="M 238.449 -277.3 L 238.449 -277.43" />
    <path d="M 238.449 -277.43 L 238.199 -277.43" />
    <path d="M 238.199 -277.43 L 238.199 -277.3" />
    <path d="M 237.829 -277.3 L 238.079 -277.3" />
    <path d="M 238.079 -277.3 L 238.079 -277.43" />
    <path d="M 238.079 -277.43 L 237.829 -277.43" />
    <path d="M 237.829 -277.43 L 237.829 -277.3" />
    <path d="M 238.569 -277.3 L 238.819 -277.3" />
    <path d="M 238.819 -277.3 L 238.819 -277.43" />
    <path d="M 238.819 -277.43 L 238.569 -277.43" />
    <path d="M 238.569 -277.43 L 238.569 -277.3" />
    <path d="M 238.939 -277.3 L 239.189 -277.3" />
    <path d="M 239.189 -277.3 L 239.189 -277.43" />
    <path d="M 239.189 -277.43 L 238.939 -277.43" />
    <path d="M 238.939 -277.43 L 238.939 -277.3" />
    <path d="M 239.309 -277.3 L 239.559 -277.3" />
    <path d="M 239.559 -277.3 L 239.559 -277.43" />
    <path d="M 239.559 -277.43 L 239.309 -277.43" />
    <path d="M 239.309 -277.43 L 239.309 -277.3" />
    <path d="M 239.679 -277.3 L 239.929 -277.3" />
    <path d="M 239.929 -277.3 L 239.929 -277.43" />
    <path d="M 239.929 -277.43 L 239.679 -277.43" />
    <path d="M 239.679 -277.43 L 239.679 -277.3" />
    <circle cx="239.805" cy="-277.363" r="0.053" />
    <circle cx="238.32" cy="-277.365" r="0.053" />
    <circle cx="239.428" cy="-277.363" r="0.053" />
    <path d="M 247.151 -287.683 L 247.151 -287.433" />
    <path d="M 247.151 -287.433 L 247.281 -287.433" />
    <path d="M 247.281 -287.433 L 247.281 -287.683" />
    <path d="M 247.281 -287.683 L 247.151 -287.683" />
    <path d="M 247.151 -288.025 L 247.151 -287.775" />
    <path d="M 247.151 -287.775 L 247.281 -287.775" />
    <path d="M 247.281 -287.775 L 247.281 -288.025" />
    <path d="M 247.281 -288.025 L 247.151 -288.025" />
    <path d="M 247.151 -288.367 L 247.151 -288.117" />
    <path d="M 247.151 -288.117 L 247.281 -288.117" />
    <path d="M 247.281 -288.117 L 247.281 -288.367" />
    <path d="M 247.281 -288.367 L 247.151 -288.367" />
    <path d="M 247.151 -288.709 L 247.151 -288.459" />
    <path d="M 247.151 -288.459 L 247.281 -288.459" />
    <path d="M 247.281 -288.459 L 247.281 -288.709" />
    <path d="M 247.281 -288.709 L 247.151 -288.709" />
    <path d="M 247.151 -289.052 L 247.151 -288.802" />
    <path d="M 247.151 -288.802 L 247.281 -288.802" />
    <path d="M 247.281 -288.802 L 247.281 -289.052" />
    <path d="M 247.281 -289.052 L 247.151 -289.052" />
    <circle cx="247.218" cy="-287.542" r="0.053" />
    <path d="M 241.564 -285.543 L 241.924 -285.543" />
    <path d="M 241.924 -285.543 L 241.924 -285.183" />
    <path d="M 241.924 -285.183 L 241.564 -285.183" />
    <path d="M 241.564 -285.183 L 241.564 -285.543" />
    <path d="M 242.345 -276.467 L 241.838 -276.467" />
    <path d="M 242.095 -278.538 L 241.654 -278.538" />
    <path d="M 242.113 -279.738 L 241.654 -279.738" />
    <path d="M 241.654 -280.469 L 242.125 -280.469" />
    <path d="M 241.654 -281.537 L 242.141 -281.537" />
    <path d="M 241.564 -284.578 L 241.414 -284.578" />
    <path d="M 242.338 -276.467 L 242.18 -276.467" />
    <path d="M 242.18 -276.467 L 242.18 -276.559" />
    <path d="M 241.737 -280.463 L 242.141 -280.463" />
    <path d="M 241.737 -281.543 L 242.161 -281.543" />
    <path d="M 241.564 -284.578 L 241.564 -284.623" />
    <path d="M 242.193 -284.623 L 241.564 -284.623" />
    <path d="M 241.573 -282.671 L 241.576 -282.144" />
    <path d="M 241.414 -284.637 L 241.414 -284.578" />
    <path d="M 241.576 -282.144 L 242.15 -282.137" />
    <path d="M 242.15 -282.137 L 242.141 -281.537" />
    <path d="M 242.079 -277.539 L 242.346 -277.544" />
    <path d="M 242.139 -281.417 L 242.126 -280.549" />
    <path d="M 242.125 -280.469 L 242.113 -279.738" />
    <path d="M 242.095 -278.538 L 242.087 -278.043" />
    <path d="M 242.084 -277.823 L 242.079 -277.539" />
    <path d="M 242.346 -277.544 L 242.338 -276.568" />
    <path d="M 241.565 -284.331 L 241.415 -284.331" />
    <path d="M 241.414 -284.578 L 241.414 -284.331" />
    <path d="M 241.564 -284.578 L 241.565 -284.331" />
    <path d="M 242.337 -276.467 L 242.338 -276.568" />
    <path d="M 242.586 -277.786 L 242.324 -277.791" />
    <path d="M 242.576 -277.776 L 242.314 -277.781" />
    <path d="M 242.35 -279.847 L 242.347 -279.67" />
    <path d="M 242.36 -279.846 L 242.358 -279.71" />
    <path d="M 242.356 -279.71 L 242.355 -279.66" />
    <path d="M 242.347 -279.67 L 242.218 -279.672" />
    <path d="M 242.355 -279.66 L 242.218 -279.662" />
    <path d="M 242.358 -279.71 L 242.356 -279.71" />
    <path d="M 242.576 -277.776 L 242.565 -276.413" />
    <path d="M 242.586 -277.786 L 242.575 -276.453" />
    <path d="M 242.573 -276.453 L 242.573 -276.403" />
    <path d="M 242.565 -276.413 L 242.436 -276.414" />
    <path d="M 242.573 -276.403 L 242.436 -276.404" />
    <path d="M 242.575 -276.453 L 242.573 -276.453" />
    <path d="M 242.325 -278.417 L 242.328 -278.593" />
    <path d="M 242.324 -277.791 L 242.337 -278.553" />
    <path d="M 242.335 -278.553 L 242.336 -278.603" />
    <path d="M 242.328 -278.593 L 242.199 -278.596" />
    <path d="M 242.336 -278.603 L 242.199 -278.606" />
    <path d="M 242.337 -278.553 L 242.335 -278.553" />
    <path d="M 242.119 -278.545 L 242.12 -278.566" />
    <path d="M 242.14 -279.705 L 242.141 -279.725" />
    <path d="M 242.396 -282.39 L 242.379 -281.477" />
    <path d="M 242.406 -282.4 L 242.39 -281.517" />
    <path d="M 242.388 -281.527 L 242.387 -281.477" />
    <path d="M 242.38 -281.487 L 242.251 -281.489" />
    <path d="M 242.387 -281.477 L 242.251 -281.479" />
    <path d="M 242.39 -281.527 L 242.388 -281.527" />
    <path d="M 242.172 -281.513 L 242.173 -281.533" />
    <path d="M 242.359 -280.334 L 242.362 -280.511" />
    <path d="M 242.369 -280.334 L 242.372 -280.471" />
    <path d="M 242.37 -280.471 L 242.37 -280.521" />
    <path d="M 242.362 -280.511 L 242.233 -280.513" />
    <path d="M 242.37 -280.521 L 242.233 -280.523" />
    <path d="M 242.372 -280.471 L 242.37 -280.471" />
    <path d="M 241.873 -284.279 L 241.862 -282.729" />
    <path d="M 241.875 -284.303 L 241.875 -284.279" />
    <path d="M 241.774 -284.307 L 241.774 -284.29" />
    <path d="M 241.774 -284.307 L 241.764 -284.307" />
    <path d="M 241.739 -284.307 L 241.739 -284.29" />
    <path d="M 241.739 -284.307 L 241.749 -284.307" />
    <path d="M 241.764 -284.288 L 241.767 -284.28" />
    <path d="M 241.749 -284.288 L 241.745 -284.28" />
    <path d="M 241.62 -284.311 L 241.693 -284.31" />
    <path d="M 241.825 -284.391 L 241.825 -284.29" />
    <path d="M 241.695 -284.29 L 241.825 -284.29" />
    <path d="M 241.833 -284.33 L 241.835 -284.33" />
    <path d="M 241.695 -284.28 L 241.833 -284.28" />
    <path d="M 241.833 -284.28 L 241.833 -284.33" />
    <path d="M 241.586 -282.682 L 241.586 -282.661" />
    <path d="M 241.763 -282.703 L 241.763 -282.72" />
    <path d="M 241.763 -282.703 L 241.753 -282.703" />
    <path d="M 241.728 -282.703 L 241.728 -282.72" />
    <path d="M 241.728 -282.703 L 241.738 -282.703" />
    <path d="M 241.753 -282.722 L 241.757 -282.73" />
    <path d="M 241.738 -282.722 L 241.735 -282.73" />
    <path d="M 241.684 -282.72 L 241.814 -282.72" />
    <path d="M 241.684 -282.73 L 241.822 -282.73" />
    <path d="M 241.822 -282.73 L 241.822 -282.68" />
    <path d="M 241.822 -282.68 L 241.824 -282.68" />
    <path d="M 241.812 -282.392 L 241.814 -282.72" />
    <path d="M 241.822 -282.402 L 241.824 -282.68" />
    <path d="M 242.406 -282.4 L 241.822 -282.402" />
    <path d="M 242.396 -282.39 L 241.812 -282.392" />
    <path d="M 241.833 -284.28 L 241.875 -284.279" />
    <path d="M 241.833 -284.304 L 241.875 -284.303" />
    <path d="M 241.864 -282.705 L 241.864 -282.729" />
    <path d="M 241.822 -282.73 L 241.864 -282.729" />
    <path d="M 241.822 -282.706 L 241.864 -282.705" />
    <path d="M 241.7 -284.29 L 241.7 -284.28" />
    <path d="M 241.689 -282.73 L 241.689 -282.72" />
    <path d="M 241.669 -284.16 L 241.666 -283.613" />
    <path d="M 241.835 -284.381 L 241.835 -284.33" />
    <path d="M 242.369 -280.334 L 242.36 -279.846" />
    <path d="M 242.359 -280.334 L 242.35 -279.847" />
    <path d="M 242.22 -281.328 L 242.215 -281.094" />
    <path d="M 242.172 -281.329 L 242.167 -281.095" />
    <path d="M 242.427 -281.324 L 242.415 -280.667" />
    <path d="M 242.211 -280.859 L 242.208 -280.671" />
    <path d="M 242.163 -280.86 L 242.16 -280.672" />
    <path d="M 242.394 -279.512 L 242.381 -278.75" />
    <path d="M 242.187 -279.515 L 242.183 -279.252" />
    <path d="M 242.135 -279.253 L 242.139 -279.516" />
    <path d="M 242.126 -278.754 L 242.13 -279.018" />
    <path d="M 242.174 -278.753 L 242.178 -279.017" />
    <path d="M 242.359 -276.258 L 242.354 -275.7" />
    <path d="M 242.402 -275.7 L 242.407 -276.258" />
    <path d="M 242.614 -276.256 L 242.609 -275.7" />
    <path d="M 241.664 -283.388 L 241.661 -282.851" />
    <path d="M 241.616 -283.388 L 241.613 -282.851" />
    <path d="M 241.621 -284.16 L 241.618 -283.613" />
    <path d="M 242.325 -278.42 L 242.314 -277.781" />
    <path d="M 241.618 -284.33 L 241.694 -284.33" />
    <path d="M 241.694 -284.33 L 241.694 -284.31" />
    <path d="M 241.694 -284.31 L 241.618 -284.31" />
    <path d="M 241.608 -284.511 L 241.564 -284.511" />
    <path d="M 241.608 -282.681 L 241.684 -282.681" />
    <path d="M 241.684 -282.681 L 241.684 -282.7" />
    <path d="M 241.684 -282.7 L 241.608 -282.7" />
    <path d="M 248.141 -285.034 L 248.141 -284.763" />
    <path d="M 245.56 -285.034 L 245.56 -284.623" />
    <path d="M 242.316 -285.294 L 242.316 -284.623" />
    <path d="M 246.74 -285.034 L 246.74 -284.623" />
    <path d="M 242.904 -284.612 L 242.904 -285.008" />
    <path d="M 242.304 -284.611 L 242.304 -285.008" />
    <path d="M 246.734 -285.008 L 246.734 -284.613" />
    <path d="M 245.554 -285.008 L 245.554 -284.613" />
    <path d="M 248.141 -284.623 L 246.74 -284.623" />
    <path d="M 248.141 -284.763 L 248.214 -284.763" />
    <path d="M 248.214 -284.763 L 248.213 -284.623" />
    <path d="M 248.213 -284.623 L 248.141 -284.623" />
    <path d="M 245.56 -284.623 L 244.863 -284.623" />
    <path d="M 243.643 -284.623 L 242.917 -284.623" />
    <path d="M 242.316 -284.623 L 241.564 -284.623" />
    <path d="M 246.682 -284.525 L 246.682 -284.393" />
    <path d="M 246.672 -284.525 L 246.672 -284.385" />
    <path d="M 246.722 -284.385 L 246.722 -284.383" />
    <path d="M 246.682 -284.522 L 246.672 -284.522" />
    <path d="M 246.722 -284.385 L 246.672 -284.385" />
    <path d="M 244.78 -284.524 L 244.78 -284.392" />
    <path d="M 244.77 -284.524 L 244.77 -284.384" />
    <path d="M 244.82 -284.384 L 244.82 -284.382" />
    <path d="M 244.78 -284.521 L 244.77 -284.521" />
    <path d="M 244.82 -284.384 L 244.77 -284.384" />
    <path d="M 242.852 -284.523 L 242.852 -284.392" />
    <path d="M 242.842 -284.523 L 242.842 -284.384" />
    <path d="M 242.892 -284.384 L 242.892 -284.382" />
    <path d="M 242.852 -284.521 L 242.842 -284.521" />
    <path d="M 242.892 -284.384 L 242.842 -284.384" />
    <path d="M 245.606 -284.524 L 245.606 -284.393" />
    <path d="M 245.616 -284.524 L 245.616 -284.385" />
    <path d="M 245.566 -284.385 L 245.566 -284.383" />
    <path d="M 245.606 -284.522 L 245.616 -284.522" />
    <path d="M 245.566 -284.385 L 245.616 -284.385" />
    <path d="M 243.704 -284.524 L 243.704 -284.392" />
    <path d="M 243.714 -284.524 L 243.714 -284.384" />
    <path d="M 243.664 -284.384 L 243.664 -284.382" />
    <path d="M 243.704 -284.521 L 243.714 -284.521" />
    <path d="M 243.664 -284.384 L 243.714 -284.384" />
    <path d="M 242.356 -284.523 L 242.356 -284.392" />
    <path d="M 242.366 -284.523 L 242.366 -284.384" />
    <path d="M 242.316 -284.384 L 242.316 -284.382" />
    <path d="M 242.356 -284.521 L 242.366 -284.521" />
    <path d="M 242.316 -284.384 L 242.366 -284.384" />
    <path d="M 245.566 -284.383 L 244.82 -284.382" />
    <path d="M 244.78 -284.392 L 245.606 -284.393" />
    <path d="M 243.664 -284.382 L 242.892 -284.382" />
    <path d="M 242.852 -284.392 L 243.704 -284.392" />
    <path d="M 248.265 -284.525 L 248.265 -284.393" />
    <path d="M 248.275 -284.525 L 248.275 -284.385" />
    <path d="M 248.225 -284.385 L 248.225 -284.383" />
    <path d="M 248.265 -284.522 L 248.275 -284.522" />
    <path d="M 248.225 -284.385 L 248.275 -284.385" />
    <path d="M 248.225 -284.383 L 246.722 -284.383" />
    <path d="M 246.682 -284.393 L 248.265 -284.393" />
    <path d="M 242.316 -284.382 L 241.835 -284.381" />
    <path d="M 242.316 -284.392 L 241.825 -284.391" />
    <path d="M 242.695 -284.597 L 242.513 -284.597" />
    <path d="M 242.695 -284.549 L 242.513 -284.549" />
    <path d="M 244.623 -284.342 L 243.861 -284.342" />
    <path d="M 248.75 -284.599 L 248.422 -284.599" />
    <path d="M 248.422 -284.551 L 248.75 -284.551" />
    <path d="M 248.75 -284.344 L 248.422 -284.343" />
    <path d="M 246.525 -284.598 L 246.261 -284.598" />
    <path d="M 246.525 -284.55 L 246.261 -284.55" />
    <path d="M 246.525 -284.343 L 245.763 -284.343" />
    <path d="M 246.026 -284.598 L 245.763 -284.598" />
    <path d="M 246.026 -284.55 L 245.763 -284.55" />
    <path d="M 244.623 -284.598 L 244.359 -284.598" />
    <path d="M 244.623 -284.55 L 244.359 -284.55" />
    <path d="M 244.124 -284.598 L 243.861 -284.597" />
    <path d="M 243.861 -284.549 L 244.124 -284.55" />
    <path d="M 242.695 -284.342 L 242.513 -284.342" />
    <path d="M 241.573 -282.671 L 241.084 -282.671" />
    <path d="M 241.414 -284.578 L 241.564 -284.578" />
    <path d="M 241.608 -284.331 L 241.565 -284.331" />
    <path d="M 243.643 -284.623 L 243.643 -285.034" />
    <path d="M 244.863 -284.623 L 244.863 -285.034" />
    <path d="M 242.804 -286.659 L 242.804 -286.784" />
    <path d="M 242.044 -286.659 L 242.044 -286.784" />
    <path d="M 245.139 -287.674 L 245.139 -288.584" />
    <path d="M 245.164 -287.649 L 245.164 -288.609" />
    <path d="M 243.094 -288.709 L 243.094 -288.109" />
    <path d="M 243.119 -288.684 L 243.119 -288.084" />
    <path d="M 243.094 -287.984 L 243.094 -287.694" />
    <path d="M 243.119 -288.009 L 243.119 -287.694" />
    <path d="M 243.094 -286.934 L 243.094 -286.784" />
    <path d="M 243.119 -286.934 L 243.119 -286.759" />
    <path d="M 243.094 -286.659 L 243.094 -285.034" />
    <path d="M 243.119 -286.684 L 243.119 -285.034" />
    <path d="M 243.219 -288.584 L 243.219 -287.694" />
    <path d="M 243.194 -288.609 L 243.194 -287.694" />
    <path d="M 243.219 -286.934 L 243.219 -285.034" />
    <path d="M 243.194 -286.934 L 243.194 -285.034" />
    <path d="M 243.219 -287.694 L 243.094 -287.694" />
    <path d="M 243.219 -286.934 L 243.094 -286.934" />
    <path d="M 243.094 -286.784 L 242.804 -286.784" />
    <path d="M 243.119 -286.759 L 242.804 -286.759" />
    <path d="M 243.094 -286.659 L 242.804 -286.659" />
    <path d="M 243.119 -286.684 L 242.804 -286.684" />
    <path d="M 241.974 -287.984 L 241.209 -287.984" />
    <path d="M 241.949 -288.009 L 241.184 -288.009" />
    <path d="M 241.974 -288.109 L 241.209 -288.109" />
    <path d="M 241.949 -288.084 L 241.184 -288.084" />
    <path d="M 242.044 -286.659 L 241.209 -286.659" />
    <path d="M 242.044 -286.684 L 241.184 -286.684" />
    <path d="M 242.044 -286.784 L 241.209 -286.784" />
    <path d="M 242.044 -286.759 L 241.184 -286.759" />
    <path d="M 242.874 -288.109 L 242.874 -287.984" />
    <path d="M 242.899 -288.109 L 242.899 -287.984" />
    <path d="M 242.874 -287.984 L 243.094 -287.984" />
    <path d="M 242.899 -288.009 L 243.119 -288.009" />
    <path d="M 242.874 -288.109 L 243.094 -288.109" />
    <path d="M 242.899 -288.084 L 243.119 -288.084" />
    <path d="M 243.134 -290.994 L 243.544 -290.994" />
    <path d="M 243.134 -291.414 L 243.544 -291.414" />
    <path d="M 237.774 -282.254 L 237.704 -282.254" />
    <path d="M 241.209 -286.659 L 241.209 -285.684" />
    <path d="M 241.184 -286.684 L 241.184 -285.684" />
    <path d="M 241.084 -285.684 L 241.084 -288.252" />
    <path d="M 241.109 -285.684 L 241.109 -288.227" />
    <path d="M 241.084 -288.252 L 241.209 -288.252" />
    <path d="M 241.084 -288.227 L 241.209 -288.227" />
    <path d="M 241.209 -288.252 L 241.209 -288.109" />
    <path d="M 241.184 -288.227 L 241.184 -288.084" />
    <path d="M 241.209 -287.984 L 241.209 -286.784" />
    <path d="M 241.184 -288.009 L 241.184 -286.759" />
    <path d="M 240.284 -297.444 L 240.892 -297.444" />
    <path d="M 242.601 -297.384 L 243.242 -297.384" />
    <path d="M 245.016 -297.444 L 245.763 -297.444" />
    <path d="M 248.113 -297.444 L 248.75 -297.444" />
    <path d="M 236.474 -297.024 L 236.933 -297.024" />
    <path d="M 238.333 -297.024 L 238.884 -297.024" />
    <path d="M 240.284 -297.024 L 240.684 -297.024" />
    <path d="M 240.834 -297.024 L 241.421 -297.024" />
    <path d="M 242.601 -297.024 L 243.242 -297.024" />
    <path d="M 244.433 -297.024 L 245.054 -297.024" />
    <path d="M 241.421 -297.384 L 241.421 -297.024" />
    <path d="M 242.601 -297.384 L 242.601 -297.024" />
    <path d="M 244.433 -297.384 L 244.433 -297.024" />
    <path d="M 243.242 -297.384 L 243.242 -297.024" />
    <path d="M 238.333 -297.444 L 238.884 -297.444" />
    <path d="M 236.933 -297.024 L 236.933 -297.444" />
    <path d="M 238.333 -297.024 L 238.333 -297.444" />
    <path d="M 238.884 -297.024 L 238.884 -297.444" />
    <path d="M 240.284 -297.024 L 240.284 -297.444" />
    <path d="M 236.933 -297.444 L 236.264 -297.444" />
    <path d="M 245.134 -297.025 L 245.763 -297.025" />
    <path d="M 245.763 -297.025 L 245.763 -297.444" />
    <path d="M 248.113 -297.444 L 248.113 -297.025" />
    <path d="M 248.113 -297.025 L 248.744 -297.025" />
    <path d="M 235.914 -297.444 L 236.014 -297.444" />
    <path d="M 236.014 -297.444 L 236.014 -297.294" />
    <path d="M 236.014 -297.294 L 236.264 -297.294" />
    <path d="M 236.264 -297.294 L 236.264 -297.444" />
    <path d="M 236.139 -297.294 L 236.139 -297.682" />
    <path d="M 236.995 -297.545 L 236.985 -297.545" />
    <path d="M 236.952 -297.463 L 236.933 -297.463" />
    <path d="M 236.952 -297.539 L 236.933 -297.539" />
    <path d="M 236.933 -297.463 L 236.933 -297.539" />
    <path d="M 236.952 -297.539 L 236.952 -297.463" />
    <path d="M 236.995 -297.539 L 236.995 -297.682" />
    <path d="M 236.985 -297.539 L 236.985 -297.672" />
    <path d="M 236.995 -297.682 L 236.139 -297.682" />
    <path d="M 236.985 -297.672 L 236.149 -297.672" />
    <path d="M 238.281 -297.672 L 238.281 -297.539" />
    <path d="M 238.271 -297.545 L 238.281 -297.545" />
    <path d="M 238.271 -297.539 L 238.271 -297.682" />
    <path d="M 238.313 -297.463 L 238.333 -297.463" />
    <path d="M 238.313 -297.531 L 238.333 -297.531" />
    <path d="M 238.333 -297.463 L 238.333 -297.539" />
    <path d="M 238.313 -297.531 L 238.313 -297.455" />
    <path d="M 238.955 -297.545 L 238.945 -297.545" />
    <path d="M 238.912 -297.463 L 238.893 -297.463" />
    <path d="M 238.912 -297.539 L 238.893 -297.539" />
    <path d="M 238.912 -297.539 L 238.912 -297.463" />
    <path d="M 238.955 -297.539 L 238.955 -297.682" />
    <path d="M 238.945 -297.539 L 238.945 -297.672" />
    <path d="M 238.955 -297.682 L 238.271 -297.682" />
    <path d="M 238.945 -297.672 L 238.281 -297.672" />
    <path d="M 241.489 -297.39 L 241.479 -297.39" />
    <path d="M 241.446 -297.308 L 241.427 -297.308" />
    <path d="M 241.446 -297.384 L 241.427 -297.384" />
    <path d="M 241.446 -297.384 L 241.446 -297.308" />
    <path d="M 241.489 -297.384 L 241.489 -297.504" />
    <path d="M 241.479 -297.384 L 241.479 -297.494" />
    <path d="M 241.489 -297.504 L 241.13 -297.504" />
    <path d="M 241.479 -297.494 L 241.12 -297.494" />
    <path d="M 243.311 -297.39 L 243.301 -297.39" />
    <path d="M 243.268 -297.308 L 243.249 -297.308" />
    <path d="M 243.268 -297.384 L 243.249 -297.384" />
    <path d="M 243.268 -297.384 L 243.268 -297.308" />
    <path d="M 243.311 -297.384 L 243.311 -297.504" />
    <path d="M 243.301 -297.384 L 243.301 -297.494" />
    <path d="M 243.311 -297.504 L 242.545 -297.504" />
    <path d="M 243.301 -297.494 L 242.555 -297.494" />
    <path d="M 245.82 -297.682 L 244.778 -297.682" />
    <path d="M 245.81 -297.672 L 244.788 -297.672" />
    <path d="M 248.75 -297.682 L 248.061 -297.682" />
    <path d="M 248.75 -297.672 L 248.071 -297.672" />
    <path d="M 240.241 -297.672 L 240.241 -297.539" />
    <path d="M 240.231 -297.545 L 240.241 -297.545" />
    <path d="M 240.231 -297.539 L 240.231 -297.682" />
    <path d="M 240.273 -297.463 L 240.293 -297.463" />
    <path d="M 240.273 -297.539 L 240.293 -297.539" />
    <path d="M 240.293 -297.463 L 240.293 -297.539" />
    <path d="M 240.273 -297.539 L 240.273 -297.463" />
    <path d="M 242.555 -297.494 L 242.555 -297.384" />
    <path d="M 242.545 -297.39 L 242.555 -297.39" />
    <path d="M 242.545 -297.384 L 242.545 -297.504" />
    <path d="M 242.587 -297.308 L 242.607 -297.308" />
    <path d="M 242.587 -297.384 L 242.607 -297.384" />
    <path d="M 242.607 -297.308 L 242.607 -297.384" />
    <path d="M 242.587 -297.384 L 242.587 -297.308" />
    <path d="M 244.377 -297.494 L 244.377 -297.384" />
    <path d="M 244.367 -297.39 L 244.377 -297.39" />
    <path d="M 244.367 -297.384 L 244.367 -297.504" />
    <path d="M 244.413 -297.308 L 244.433 -297.308" />
    <path d="M 244.413 -297.384 L 244.433 -297.384" />
    <path d="M 244.433 -297.308 L 244.433 -297.384" />
    <path d="M 244.413 -297.384 L 244.413 -297.308" />
    <path d="M 241.421 -297.384 L 240.892 -297.384" />
    <path d="M 240.892 -297.384 L 240.892 -297.444" />
    <path d="M 241.13 -297.504 L 241.13 -297.682" />
    <path d="M 241.12 -297.494 L 241.12 -297.672" />
    <path d="M 245.016 -297.384 L 245.016 -297.444" />
    <path d="M 244.778 -297.504 L 244.778 -297.682" />
    <path d="M 244.788 -297.494 L 244.788 -297.672" />
    <path d="M 244.433 -297.384 L 245.016 -297.384" />
    <path d="M 236.149 -297.294 L 236.149 -297.672" />
    <path d="M 238.163 -297.467 L 237.751 -297.467" />
    <path d="M 238.163 -297.515 L 237.751 -297.515" />
    <path d="M 237.516 -297.515 L 237.104 -297.515" />
    <path d="M 237.516 -297.467 L 237.104 -297.467" />
    <path d="M 240.123 -297.467 L 239.711 -297.467" />
    <path d="M 240.123 -297.515 L 239.711 -297.515" />
    <path d="M 239.476 -297.515 L 239.064 -297.515" />
    <path d="M 239.476 -297.467 L 239.064 -297.467" />
    <path d="M 240.231 -297.682 L 241.13 -297.682" />
    <path d="M 240.241 -297.672 L 241.12 -297.672" />
    <path d="M 244.367 -297.504 L 244.778 -297.504" />
    <path d="M 244.377 -297.494 L 244.788 -297.494" />
    <path d="M 241.597 -297.311 L 241.9 -297.311" />
    <path d="M 241.597 -297.359 L 241.9 -297.359" />
    <path d="M 242.135 -297.311 L 242.438 -297.311" />
    <path d="M 242.135 -297.359 L 242.438 -297.359" />
    <path d="M 243.418 -297.311 L 243.721 -297.311" />
    <path d="M 243.418 -297.359 L 243.721 -297.359" />
    <path d="M 243.956 -297.311 L 244.259 -297.311" />
    <path d="M 243.956 -297.359 L 244.259 -297.359" />
    <path d="M 245.82 -297.545 L 245.81 -297.545" />
    <path d="M 245.778 -297.463 L 245.758 -297.463" />
    <path d="M 245.778 -297.539 L 245.758 -297.539" />
    <path d="M 245.778 -297.539 L 245.778 -297.463" />
    <path d="M 245.82 -297.539 L 245.82 -297.682" />
    <path d="M 245.81 -297.539 L 245.81 -297.672" />
    <path d="M 248.071 -297.672 L 248.071 -297.539" />
    <path d="M 248.061 -297.545 L 248.071 -297.545" />
    <path d="M 248.061 -297.539 L 248.061 -297.682" />
    <path d="M 248.098 -297.463 L 248.118 -297.463" />
    <path d="M 248.098 -297.539 L 248.118 -297.539" />
    <path d="M 248.118 -297.463 L 248.118 -297.539" />
    <path d="M 248.098 -297.539 L 248.098 -297.463" />
    <path d="M 247.544 -297.467 L 247.948 -297.467" />
    <path d="M 247.544 -297.515 L 247.948 -297.515" />
    <path d="M 245.928 -297.467 L 246.332 -297.467" />
    <path d="M 245.928 -297.515 L 246.332 -297.515" />
    <path d="M 246.541 -297.467 L 247.34 -297.467" />
    <path d="M 246.541 -297.515 L 247.34 -297.515" />
    <path d="M 237.142 -297.762 L 238.123 -297.762" />
    <path d="M 236.785 -297.762 L 236.785 -297.682" />
    <path d="M 238.481 -297.762 L 238.481 -297.682" />
    <path d="M 239.102 -297.762 L 240.084 -297.762" />
    <path d="M 238.745 -297.762 L 238.745 -297.682" />
    <path d="M 240.441 -297.762 L 240.441 -297.682" />
    <path d="M 245.61 -297.762 L 245.61 -297.682" />
    <path d="M 248.271 -297.762 L 248.271 -297.682" />
    <path d="M 247.914 -297.762 L 245.967 -297.762" />
    <path d="M 240.462 -299.098 L 240.462 -297.682" />
    <path d="M 245.419 -299.098 L 240.462 -299.098" />
    <path d="M 245.419 -299.098 L 245.419 -297.682" />
    <path d="M 244.229 -287.674 L 245.139 -287.674" />
    <path d="M 244.254 -287.649 L 245.164 -287.649" />
    <path d="M 244.229 -287.574 L 244.929 -287.574" />
    <path d="M 244.254 -287.599 L 244.954 -287.599" />
    <path d="M 244.229 -287.674 L 244.229 -287.574" />
    <path d="M 244.254 -287.674 L 244.254 -287.574" />
    <path d="M 244.929 -285.034 L 244.929 -285.957" />
    <path d="M 244.954 -285.034 L 244.954 -285.932" />
    <path d="M 236.684 -279.954 L 236.684 -280.079" />
    <path d="M 237.569 -279.954 L 237.569 -280.079" />
    <path d="M 238.769 -280.079 L 239.729 -280.079" />
    <path d="M 237.724 -282.084 L 237.849 -282.084" />
    <path d="M 239.804 -280.329 L 239.804 -281.014" />
    <path d="M 239.779 -280.304 L 239.779 -280.989" />
    <path d="M 239.729 -280.079 L 239.729 -280.989" />
    <path d="M 239.704 -280.104 L 239.704 -281.014" />
    <path d="M 238.794 -280.104 L 238.794 -281.014" />
    <path d="M 238.694 -280.104 L 238.694 -281.014" />
    <path d="M 238.769 -280.079 L 238.769 -280.989" />
    <path d="M 238.719 -280.079 L 238.719 -280.989" />
    <path d="M 238.794 -280.104 L 239.704 -280.104" />
    <path d="M 237.849 -282.252 L 237.849 -282.084" />
    <path d="M 237.724 -282.254 L 237.724 -282.084" />
    <path d="M 237.824 -282.253 L 237.824 -282.084" />
    <path d="M 237.919 -280.989 L 237.919 -280.079" />
    <path d="M 237.749 -282.254 L 237.749 -282.084" />
    <path d="M 237.749 -281.324 L 237.749 -280.939" />
    <path d="M 237.944 -281.014 L 237.944 -280.104" />
    <path d="M 237.724 -281.324 L 237.724 -280.939" />
    <path d="M 237.724 -281.324 L 237.849 -281.324" />
    <path d="M 239.804 -280.329 L 240.037 -280.329" />
    <path d="M 239.779 -280.304 L 240.012 -280.304" />
    <path d="M 237.849 -281.014 L 237.849 -281.324" />
    <path d="M 237.824 -280.989 L 237.824 -281.324" />
    <path d="M 240.012 -280.079 L 240.512 -280.079" />
    <path d="M 237.919 -280.079 L 238.769 -280.079" />
    <path d="M 240.037 -280.104 L 240.487 -280.104" />
    <path d="M 239.804 -281.014 L 239.704 -281.014" />
    <path d="M 238.694 -281.014 L 238.794 -281.014" />
    <path d="M 240.487 -280.329 L 240.487 -280.104" />
    <path d="M 239.804 -280.989 L 239.704 -280.989" />
    <path d="M 238.694 -280.989 L 238.794 -280.989" />
    <path d="M 240.037 -280.329 L 240.037 -280.104" />
    <path d="M 240.012 -280.304 L 240.012 -280.079" />
    <path d="M 240.512 -280.304 L 240.512 -280.079" />
    <path d="M 237.944 -281.014 L 237.894 -281.014" />
    <path d="M 237.919 -280.989 L 237.824 -280.989" />
    <path d="M 237.894 -281.014 L 237.849 -281.014" />
    <path d="M 237.919 -280.939 L 237.724 -280.939" />
    <path d="M 240.487 -280.329 L 241.654 -280.329" />
    <path d="M 240.512 -280.304 L 241.654 -280.304" />
    <path d="M 241.654 -279.954 L 237.569 -279.954" />
    <path d="M 237.949 -279.954 L 241.419 -279.954" />
    <path d="M 241.654 -279.979 L 237.569 -279.979" />
    <path d="M 237.724 -280.079 L 237.569 -280.079" />
    <path d="M 237.749 -280.129 L 237.724 -280.129" />
    <path d="M 237.749 -280.054 L 237.569 -280.054" />
    <path d="M 237.749 -280.939 L 237.724 -280.939" />
    <path d="M 237.724 -280.129 L 237.724 -280.079" />
    <path d="M 237.749 -280.129 L 237.749 -280.054" />
    <path d="M 237.944 -280.104 L 238.694 -280.104" />
    <path d="M 237.749 -280.129 L 237.919 -280.129" />
    <path d="M 236.684 -279.954 L 236.534 -279.954" />
    <path d="M 236.684 -280.079 L 236.534 -280.079" />
    <path d="M 236.684 -280.054 L 236.534 -280.054" />
    <path d="M 236.684 -279.979 L 236.534 -279.979" />
    <path d="M 244.929 -286.407 L 244.929 -287.574" />
    <path d="M 244.954 -286.432 L 244.954 -287.599" />
    <path d="M 245.139 -285.957 L 245.139 -286.407" />
    <path d="M 245.164 -285.932 L 245.164 -286.432" />
    <path d="M 244.929 -286.407 L 245.139 -286.407" />
    <path d="M 244.954 -286.432 L 245.164 -286.432" />
    <path d="M 244.929 -285.957 L 245.139 -285.957" />
    <path d="M 244.954 -285.932 L 245.164 -285.932" />
  </g>
</svg>
