<?xml version="1.0" encoding="UTF-8"?>
<svg xmlns="http://www.w3.org/2000/svg" viewBox="231.06 255.06 36.88 48.88" aria-hidden="true">
  <style>
    path,
    circle {
      fill: none;
      stroke: #007AFF;
      stroke-width: 1.55;
      stroke-linecap: round;
      stroke-linejoin: round;
      vector-effect: non-scaling-stroke;
    }
  </style>
  <g transform="scale(1 -1)">
    <path d="M 261.244 -277.024 L 261.244 -275.7" />
    <path d="M 248.744 -297.025 L 249.044 -297.025" />
    <path d="M 252.634 -296.964 L 252.724 -296.964" />
    <path d="M 249.754 -290.824 L 250.164 -290.824" />
    <path d="M 250.164 -290.824 L 250.164 -290.624" />
    <path d="M 250.164 -289.594 L 250.164 -285.034" />
    <path d="M 250.164 -290.624 L 250.584 -290.624" />
    <path d="M 250.164 -289.594 L 250.584 -289.594" />
    <path d="M 250.584 -290.934 L 250.584 -290.624" />
    <path d="M 250.584 -289.594 L 250.584 -288.554" />
    <path d="M 250.714 -288.554 L 250.714 -288.264" />
    <path d="M 256.464 -289.794 L 256.464 -289.144" />
    <path d="M 250.584 -290.934 L 250.984 -290.934" />
    <path d="M 251.864 -290.934 L 254.694 -290.934" />
    <path d="M 255.574 -290.934 L 256.684 -290.934" />
    <path d="M 250.584 -288.554 L 250.714 -288.554" />
    <path d="M 252.169 -284.614 L 253.119 -284.614" />
    <path d="M 250.444 -285.034 L 251.15 -285.034" />
    <path d="M 252.337 -285.034 L 253.063 -285.034" />
    <path d="M 250.984 -290.934 L 250.984 -291.334" />
    <path d="M 251.864 -290.934 L 251.864 -291.334" />
    <path d="M 250.194 -292.504 L 250.194 -291.334" />
    <path d="M 249.044 -297.024 L 249.044 -292.504" />
    <path d="M 250.194 -291.334 L 250.984 -291.334" />
    <path d="M 249.044 -292.504 L 250.194 -292.504" />
    <path d="M 251.864 -291.334 L 252.634 -291.334" />
    <path d="M 257.104 -289.724 L 258.724 -289.724" />
    <path d="M 260.324 -289.724 L 261.344 -289.724" />
    <path d="M 261.344 -296.914 L 261.344 -289.724" />
    <path d="M 254.25 -285.034 L 255.031 -285.034" />
    <path d="M 255.671 -285.034 L 256.644 -285.034" />
    <path d="M 252.724 -291.334 L 254.694 -291.334" />
    <path d="M 255.574 -291.334 L 256.974 -291.334" />
    <path d="M 254.694 -290.934 L 254.694 -291.334" />
    <path d="M 255.574 -290.934 L 255.574 -291.334" />
    <path d="M 255.524 -284.614 L 256.074 -284.614" />
    <path d="M 250.714 -288.264 L 250.984 -288.264" />
    <path d="M 250.714 -288.239 L 250.984 -288.239" />
    <path d="M 250.714 -288.139 L 250.984 -288.139" />
    <path d="M 250.714 -288.164 L 250.984 -288.164" />
    <path d="M 251.869 -288.264 L 253.274 -288.264" />
    <path d="M 251.869 -288.239 L 253.274 -288.239" />
    <path d="M 250.444 -287.734 L 250.714 -287.734" />
    <path d="M 250.714 -288.184 L 250.714 -287.734" />
    <path d="M 250.444 -287.734 L 250.444 -285.034" />
    <path d="M 254.034 -288.264 L 254.694 -288.264" />
    <path d="M 254.034 -288.239 L 254.694 -288.239" />
    <path d="M 255.454 -288.264 L 256.644 -288.264" />
    <path d="M 255.454 -288.239 L 256.619 -288.239" />
    <path d="M 256.464 -289.794 L 256.684 -289.794" />
    <path d="M 252.634 -296.964 L 252.634 -295.269" />
    <path d="M 252.634 -293.759 L 252.634 -293.334" />
    <path d="M 252.634 -292.404 L 252.634 -291.334" />
    <path d="M 252.634 -292.404 L 252.724 -292.404" />
    <path d="M 252.724 -296.964 L 252.724 -295.269" />
    <path d="M 252.724 -293.759 L 252.724 -293.334" />
    <path d="M 252.724 -292.404 L 252.724 -291.334" />
    <path d="M 256.684 -290.934 L 256.684 -290.894" />
    <path d="M 256.684 -290.014 L 256.684 -289.794" />
    <path d="M 256.684 -290.894 L 257.104 -290.894" />
    <path d="M 256.684 -290.014 L 257.104 -290.014" />
    <path d="M 257.104 -290.014 L 257.104 -289.724" />
    <path d="M 257.104 -296.914 L 257.104 -296.264" />
    <path d="M 257.104 -295.534 L 257.104 -294.879" />
    <path d="M 257.104 -293.369 L 257.104 -290.894" />
    <path d="M 257.104 -296.264 L 256.974 -296.264" />
    <path d="M 257.104 -295.534 L 256.974 -295.534" />
    <path d="M 256.974 -296.914 L 256.974 -296.264" />
    <path d="M 256.974 -295.534 L 256.974 -294.879" />
    <path d="M 256.974 -293.369 L 256.974 -291.334" />
    <path d="M 256.974 -296.264 L 256.974 -295.534" />
    <path d="M 257.104 -296.264 L 257.104 -295.534" />
    <path d="M 255.844 -277.024 L 260.184 -277.024" />
    <path d="M 261.064 -277.024 L 261.244 -277.024" />
    <path d="M 249.754 -292.034 L 248.15 -292.034" />
    <path d="M 249.754 -290.824 L 249.754 -292.034" />
    <path d="M 249.741 -285.034 L 250.164 -285.034" />
    <path d="M 248.15 -292.584 L 248.744 -292.584" />
    <path d="M 248.744 -292.584 L 248.744 -297.025" />
    <path d="M 249.044 -296.914 L 249.044 -292.504" />
    <path d="M 256.114 -280.454 L 256.114 -279.772" />
    <path d="M 256.114 -278.572 L 256.114 -278.054" />
    <path d="M 256.114 -277.684 L 256.114 -277.274" />
    <path d="M 257.664 -277.544 L 257.664 -277.274" />
    <path d="M 260.004 -277.274 L 260.004 -277.544" />
    <path d="M 256.114 -277.274 L 257.664 -277.274" />
    <path d="M 260.004 -277.274 L 260.184 -277.274" />
    <path d="M 257.664 -277.544 L 260.004 -277.544" />
    <path d="M 261.064 -277.274 L 261.244 -277.274" />
    <path d="M 261.064 -277.274 L 261.064 -277.024" />
    <path d="M 260.184 -277.274 L 260.184 -277.024" />
    <path d="M 256.114 -280.454 L 255.721 -280.454" />
    <path d="M 256.494 -282.194 L 260.014 -282.194" />
    <path d="M 261.244 -277.274 L 261.244 -282.174" />
    <path d="M 256.494 -281.754 L 256.494 -282.194" />
    <path d="M 256.494 -281.754 L 256.094 -281.754" />
    <path d="M 256.094 -281.754 L 256.094 -281.492" />
    <path d="M 261.184 -282.174 L 261.244 -282.174" />
    <path d="M 260.254 -282.174 L 260.254 -282.594" />
    <path d="M 261.184 -282.174 L 261.184 -282.594" />
    <path d="M 256.644 -282.594 L 260.254 -282.594" />
    <path d="M 256.464 -289.144 L 258.724 -289.144" />
    <path d="M 260.324 -289.144 L 261.344 -289.144" />
    <path d="M 261.184 -282.594 L 261.344 -282.594" />
    <path d="M 261.344 -289.144 L 261.344 -282.594" />
    <path d="M 256.644 -285.034 L 256.644 -284.622" />
    <path d="M 256.644 -282.654 L 256.644 -282.594" />
    <path d="M 256.644 -282.654 L 256.214 -282.654" />
    <path d="M 255.844 -277.024 L 255.844 -276.535" />
    <path d="M 259.724 -289.724 L 259.724 -289.144" />
    <path d="M 258.724 -289.724 L 258.724 -289.144" />
    <path d="M 252.89 -291.07 L 253.14 -291.07" />
    <path d="M 253.14 -291.07 L 253.14 -291.2" />
    <path d="M 253.14 -291.2 L 252.89 -291.2" />
    <path d="M 252.89 -291.2 L 252.89 -291.07" />
    <path d="M 253.283 -291.07 L 253.533 -291.07" />
    <path d="M 253.533 -291.07 L 253.533 -291.2" />
    <path d="M 253.533 -291.2 L 253.283 -291.2" />
    <path d="M 253.283 -291.2 L 253.283 -291.07" />
    <path d="M 258.14 -277.317 L 258.39 -277.317" />
    <path d="M 258.39 -277.317 L 258.39 -277.447" />
    <path d="M 258.39 -277.447 L 258.14 -277.447" />
    <path d="M 258.14 -277.447 L 258.14 -277.317" />
    <path d="M 257.77 -277.317 L 258.02 -277.317" />
    <path d="M 258.02 -277.317 L 258.02 -277.447" />
    <path d="M 258.02 -277.447 L 257.77 -277.447" />
    <path d="M 257.77 -277.447 L 257.77 -277.317" />
    <path d="M 258.51 -277.317 L 258.76 -277.317" />
    <path d="M 258.76 -277.317 L 258.76 -277.447" />
    <path d="M 258.76 -277.447 L 258.51 -277.447" />
    <path d="M 258.51 -277.447 L 258.51 -277.317" />
    <path d="M 258.88 -277.317 L 259.13 -277.317" />
    <path d="M 259.13 -277.317 L 259.13 -277.447" />
    <path d="M 259.13 -277.447 L 258.88 -277.447" />
    <path d="M 258.88 -277.447 L 258.88 -277.317" />
    <path d="M 259.25 -277.317 L 259.5 -277.317" />
    <path d="M 259.5 -277.317 L 259.5 -277.447" />
    <path d="M 259.5 -277.447 L 259.25 -277.447" />
    <path d="M 259.25 -277.447 L 259.25 -277.317" />
    <path d="M 259.62 -277.317 L 259.87 -277.317" />
    <path d="M 259.87 -277.317 L 259.87 -277.447" />
    <path d="M 259.87 -277.447 L 259.62 -277.447" />
    <path d="M 259.62 -277.447 L 259.62 -277.317" />
    <circle cx="257.901" cy="-277.383" r="0.053" />
    <circle cx="259.013" cy="-277.383" r="0.053" />
    <circle cx="259.373" cy="-277.383" r="0.053" />
    <circle cx="259.741" cy="-277.383" r="0.053" />
    <path d="M 250.441 -288.442 L 250.441 -288.192" />
    <path d="M 250.441 -288.192 L 250.571 -288.192" />
    <path d="M 250.571 -288.192 L 250.571 -288.442" />
    <path d="M 250.571 -288.442 L 250.441 -288.442" />
    <path d="M 250.441 -288.094 L 250.441 -287.844" />
    <path d="M 250.441 -287.844 L 250.571 -287.844" />
    <path d="M 250.571 -287.844 L 250.571 -288.094" />
    <path d="M 250.571 -288.094 L 250.441 -288.094" />
    <path d="M 255.85 -278.054 L 256.114 -278.054" />
    <path d="M 255.847 -277.684 L 256.114 -277.684" />
    <path d="M 255.698 -277.76 L 255.848 -277.759" />
    <path d="M 255.7 -277.979 L 255.849 -277.979" />
    <path d="M 255.848 -277.759 L 255.847 -277.684" />
    <path d="M 255.85 -278.054 L 255.849 -277.979" />
    <path d="M 256.115 -282.653 L 256.406 -282.653" />
    <path d="M 255.439 -276.434 L 255.44 -277.541" />
    <path d="M 255.579 -276.535 L 255.844 -276.535" />
    <path d="M 255.579 -276.535 L 255.579 -276.434" />
    <path d="M 255.579 -276.434 L 255.439 -276.434" />
    <path d="M 255.44 -277.541 L 255.696 -277.543" />
    <path d="M 255.696 -277.543 L 255.698 -277.76" />
    <path d="M 255.698 -277.76 L 255.7 -277.979" />
    <path d="M 255.7 -277.979 L 255.705 -278.572" />
    <path d="M 255.73 -281.495 L 256.094 -281.492" />
    <path d="M 255.715 -279.772 L 255.721 -280.454" />
    <path d="M 255.736 -282.139 L 256.127 -282.146" />
    <path d="M 256.132 -282.653 L 256.127 -282.146" />
    <path d="M 255.671 -284.627 L 256.15 -284.623" />
    <path d="M 256.149 -284.527 L 256.289 -284.526" />
    <path d="M 256.289 -284.526 L 256.29 -284.622" />
    <path d="M 256.149 -284.527 L 256.15 -284.623" />
    <path d="M 256.287 -284.303 L 256.289 -284.526" />
    <path d="M 256.147 -284.303 L 256.149 -284.527" />
    <path d="M 255.73 -281.495 L 255.736 -282.139" />
    <path d="M 255.153 -275.7 L 255.154 -276.306" />
    <path d="M 255.336 -276.365 L 255.204 -276.365" />
    <path d="M 255.336 -276.355 L 255.196 -276.355" />
    <path d="M 255.196 -276.405 L 255.194 -276.405" />
    <path d="M 255.198 -277.777 L 255.194 -276.405" />
    <path d="M 255.196 -276.405 L 255.196 -276.355" />
    <path d="M 255.204 -276.365 L 255.208 -277.768" />
    <path d="M 255.333 -276.365 L 255.333 -276.355" />
    <path d="M 255.198 -277.777 L 255.46 -277.779" />
    <path d="M 255.208 -277.768 L 255.47 -277.769" />
    <path d="M 255.477 -278.614 L 255.609 -278.613" />
    <path d="M 255.469 -278.624 L 255.609 -278.623" />
    <path d="M 255.467 -278.574 L 255.469 -278.574" />
    <path d="M 255.606 -278.613 L 255.606 -278.623" />
    <path d="M 255.467 -278.574 L 255.46 -277.779" />
    <path d="M 255.469 -278.624 L 255.469 -278.574" />
    <path d="M 255.477 -278.614 L 255.47 -277.769" />
    <path d="M 255.487 -279.69 L 255.618 -279.689" />
    <path d="M 255.478 -279.68 L 255.618 -279.679" />
    <path d="M 255.477 -279.73 L 255.479 -279.73" />
    <path d="M 255.616 -279.689 L 255.615 -279.679" />
    <path d="M 255.478 -279.68 L 255.479 -279.73" />
    <path d="M 255.429 -278.771 L 255.435 -279.533" />
    <path d="M 255.493 -280.468 L 255.625 -280.467" />
    <path d="M 255.485 -280.478 L 255.625 -280.477" />
    <path d="M 255.483 -280.429 L 255.485 -280.428" />
    <path d="M 255.622 -280.467 L 255.622 -280.477" />
    <path d="M 255.485 -280.478 L 255.485 -280.428" />
    <path d="M 255.487 -279.69 L 255.493 -280.468" />
    <path d="M 255.483 -280.429 L 255.477 -279.73" />
    <path d="M 255.502 -281.445 L 255.633 -281.443" />
    <path d="M 255.494 -281.435 L 255.633 -281.433" />
    <path d="M 255.492 -281.485 L 255.494 -281.485" />
    <path d="M 255.631 -281.443 L 255.631 -281.433" />
    <path d="M 255.494 -281.435 L 255.494 -281.485" />
    <path d="M 255.445 -280.626 L 255.45 -281.288" />
    <path d="M 255.492 -281.485 L 255.5 -282.385" />
    <path d="M 255.502 -281.485 L 255.51 -282.375" />
    <path d="M 255.5 -282.385 L 255.883 -282.39" />
    <path d="M 255.51 -282.375 L 255.893 -282.38" />
    <path d="M 256.028 -282.694 L 255.895 -282.695" />
    <path d="M 256.028 -282.704 L 255.887 -282.705" />
    <path d="M 255.887 -282.655 L 255.885 -282.655" />
    <path d="M 255.949 -282.678 L 255.949 -282.694" />
    <path d="M 255.949 -282.678 L 255.959 -282.678" />
    <path d="M 255.984 -282.677 L 255.984 -282.694" />
    <path d="M 255.984 -282.677 L 255.974 -282.678" />
    <path d="M 255.959 -282.696 L 255.955 -282.704" />
    <path d="M 255.974 -282.696 L 255.978 -282.704" />
    <path d="M 255.883 -282.39 L 255.885 -282.655" />
    <path d="M 255.887 -282.655 L 255.887 -282.705" />
    <path d="M 255.893 -282.38 L 255.895 -282.695" />
    <path d="M 256.023 -282.694 L 256.023 -282.704" />
    <path d="M 256.287 -284.303 L 256.147 -284.303" />
    <path d="M 256.041 -284.264 L 255.908 -284.265" />
    <path d="M 256.041 -284.254 L 255.9 -284.255" />
    <path d="M 255.901 -284.305 L 255.899 -284.305" />
    <path d="M 255.962 -284.282 L 255.962 -284.265" />
    <path d="M 255.962 -284.282 L 255.972 -284.281" />
    <path d="M 255.997 -284.281 L 255.997 -284.265" />
    <path d="M 255.997 -284.281 L 255.987 -284.281" />
    <path d="M 255.972 -284.263 L 255.968 -284.255" />
    <path d="M 255.987 -284.263 L 255.991 -284.255" />
    <path d="M 255.899 -284.385 L 255.899 -284.305" />
    <path d="M 255.901 -284.305 L 255.9 -284.255" />
    <path d="M 255.909 -284.395 L 255.908 -284.265" />
    <path d="M 256.036 -284.264 L 256.036 -284.254" />
    <path d="M 256.29 -284.622 L 256.644 -284.622" />
    <path d="M 256.115 -284.303 L 256.406 -284.303" />
    <path d="M 255.684 -278.769 L 255.686 -279.033" />
    <path d="M 255.36 -275.7 L 255.361 -276.306" />
    <path d="M 255.409 -276.305 L 255.408 -275.7" />
    <path d="M 255.636 -278.77 L 255.638 -279.033" />
    <path d="M 255.688 -279.268 L 255.69 -279.531" />
    <path d="M 255.642 -279.531 L 255.64 -279.268" />
    <path d="M 255.7 -280.624 L 255.702 -280.837" />
    <path d="M 255.652 -280.624 L 255.654 -280.838" />
    <path d="M 255.704 -281.072 L 255.706 -281.286" />
    <path d="M 255.658 -281.286 L 255.656 -281.073" />
    <path d="M 256.101 -282.824 L 256.106 -283.361" />
    <path d="M 256.053 -282.824 L 256.058 -283.361" />
    <path d="M 256.108 -283.596 L 256.112 -284.133" />
    <path d="M 256.064 -284.133 L 256.06 -283.596" />
    <path d="M 256.104 -282.654 L 256.028 -282.654" />
    <path d="M 256.028 -282.654 L 256.028 -282.674" />
    <path d="M 256.028 -282.674 L 256.104 -282.674" />
    <path d="M 256.112 -282.533 L 256.131 -282.533" />
    <path d="M 256.117 -284.304 L 256.041 -284.304" />
    <path d="M 256.041 -284.304 L 256.041 -284.284" />
    <path d="M 256.041 -284.284 L 256.117 -284.284" />
    <path d="M 256.128 -284.485 L 256.149 -284.484" />
    <path d="M 249.741 -285.034 L 249.741 -284.763" />
    <path d="M 252.337 -285.034 L 252.337 -284.623" />
    <path d="M 251.15 -285.034 L 251.15 -284.623" />
    <path d="M 253.063 -284.623 L 253.063 -285.034" />
    <path d="M 254.25 -284.623 L 254.25 -285.034" />
    <path d="M 255.021 -285.008 L 255.021 -284.615" />
    <path d="M 255.671 -285.008 L 255.671 -284.615" />
    <path d="M 252.329 -285.008 L 252.329 -284.615" />
    <path d="M 251.149 -285.008 L 251.149 -284.614" />
    <path d="M 253.075 -285.008 L 253.075 -284.615" />
    <path d="M 255.031 -284.623 L 254.25 -284.623" />
    <path d="M 249.741 -284.623 L 249.669 -284.623" />
    <path d="M 249.669 -284.623 L 249.669 -284.763" />
    <path d="M 249.669 -284.763 L 249.741 -284.763" />
    <path d="M 253.063 -284.623 L 252.334 -284.623" />
    <path d="M 251.15 -284.623 L 249.741 -284.623" />
    <path d="M 255.901 -284.305 L 255.899 -284.305" />
    <path d="M 255.899 -284.385 L 255.899 -284.305" />
    <path d="M 255.901 -284.305 L 255.9 -284.255" />
    <path d="M 255.909 -284.395 L 255.908 -284.265" />
    <path d="M 255.619 -284.527 L 255.619 -284.395" />
    <path d="M 255.609 -284.527 L 255.609 -284.387" />
    <path d="M 255.659 -284.387 L 255.659 -284.385" />
    <path d="M 255.619 -284.524 L 255.609 -284.524" />
    <path d="M 255.899 -284.385 L 255.659 -284.385" />
    <path d="M 255.659 -284.387 L 255.609 -284.387" />
    <path d="M 255.909 -284.395 L 255.619 -284.395" />
    <path d="M 255.073 -284.527 L 255.073 -284.395" />
    <path d="M 255.083 -284.527 L 255.083 -284.387" />
    <path d="M 255.033 -284.387 L 255.033 -284.385" />
    <path d="M 255.073 -284.524 L 255.083 -284.524" />
    <path d="M 255.033 -284.387 L 255.083 -284.387" />
    <path d="M 255.462 -284.345 L 255.23 -284.345" />
    <path d="M 254.203 -284.527 L 254.203 -284.395" />
    <path d="M 254.193 -284.527 L 254.193 -284.387" />
    <path d="M 254.243 -284.387 L 254.243 -284.385" />
    <path d="M 254.203 -284.524 L 254.193 -284.524" />
    <path d="M 254.243 -284.387 L 254.193 -284.387" />
    <path d="M 255.033 -284.385 L 254.243 -284.385" />
    <path d="M 255.033 -284.395 L 254.203 -284.395" />
    <path d="M 253.127 -284.527 L 253.127 -284.395" />
    <path d="M 253.137 -284.527 L 253.137 -284.387" />
    <path d="M 253.087 -284.387 L 253.087 -284.385" />
    <path d="M 253.127 -284.524 L 253.137 -284.524" />
    <path d="M 253.087 -284.387 L 253.137 -284.387" />
    <path d="M 254.046 -284.345 L 253.284 -284.345" />
    <path d="M 252.277 -284.526 L 252.277 -284.395" />
    <path d="M 252.267 -284.526 L 252.267 -284.387" />
    <path d="M 252.317 -284.387 L 252.317 -284.385" />
    <path d="M 252.277 -284.524 L 252.267 -284.524" />
    <path d="M 252.317 -284.387 L 252.267 -284.387" />
    <path d="M 249.611 -284.526 L 249.611 -284.394" />
    <path d="M 249.601 -284.525 L 249.601 -284.386" />
    <path d="M 249.651 -284.386 L 249.651 -284.384" />
    <path d="M 249.611 -284.523 L 249.601 -284.523" />
    <path d="M 249.651 -284.386 L 249.601 -284.386" />
    <path d="M 251.201 -284.526 L 251.201 -284.394" />
    <path d="M 251.211 -284.526 L 251.211 -284.386" />
    <path d="M 251.161 -284.386 L 251.161 -284.384" />
    <path d="M 251.201 -284.523 L 251.211 -284.523" />
    <path d="M 251.161 -284.386 L 251.211 -284.386" />
    <path d="M 253.087 -284.385 L 252.317 -284.385" />
    <path d="M 252.277 -284.395 L 253.127 -284.395" />
    <path d="M 252.12 -284.345 L 251.359 -284.344" />
    <path d="M 249.651 -284.384 L 251.161 -284.384" />
    <path d="M 251.201 -284.394 L 249.611 -284.394" />
    <path d="M 248.265 -284.525 L 248.265 -284.393" />
    <path d="M 248.275 -284.525 L 248.275 -284.385" />
    <path d="M 248.265 -284.522 L 248.275 -284.522" />
    <path d="M 248.225 -284.385 L 248.275 -284.385" />
    <path d="M 248.15 -284.393 L 248.265 -284.393" />
    <path d="M 255.462 -284.6 L 255.23 -284.6" />
    <path d="M 255.462 -284.552 L 255.23 -284.552" />
    <path d="M 254.046 -284.6 L 253.782 -284.6" />
    <path d="M 254.046 -284.552 L 253.782 -284.552" />
    <path d="M 253.547 -284.6 L 253.284 -284.6" />
    <path d="M 253.547 -284.552 L 253.284 -284.552" />
    <path d="M 252.12 -284.6 L 251.857 -284.6" />
    <path d="M 252.12 -284.552 L 251.857 -284.552" />
    <path d="M 251.622 -284.6 L 251.358 -284.6" />
    <path d="M 251.622 -284.552 L 251.359 -284.552" />
    <path d="M 249.454 -284.599 L 248.422 -284.599" />
    <path d="M 248.422 -284.551 L 249.454 -284.551" />
    <path d="M 249.454 -284.344 L 248.422 -284.343" />
    <path d="M 255.671 -285.034 L 255.671 -284.627" />
    <path d="M 255.031 -285.034 L 255.031 -284.623" />
    <path d="M 256.114 -278.054 L 256.114 -277.684" />
    <path d="M 255.715 -279.772 L 256.114 -279.772" />
    <path d="M 255.705 -278.572 L 256.114 -278.572" />
    <path d="M 252.524 -286.859 L 254.344 -286.859" />
    <path d="M 252.499 -286.834 L 254.369 -286.834" />
    <path d="M 253.274 -288.264 L 253.274 -288.139" />
    <path d="M 254.034 -288.264 L 254.034 -288.139" />
    <path d="M 252.524 -286.734 L 254.344 -286.734" />
    <path d="M 252.499 -286.759 L 254.369 -286.759" />
    <path d="M 254.344 -285.944 L 254.344 -286.734" />
    <path d="M 254.369 -285.969 L 254.369 -286.759" />
    <path d="M 254.344 -286.859 L 254.344 -288.139" />
    <path d="M 254.369 -286.834 L 254.369 -288.164" />
    <path d="M 254.469 -285.944 L 254.469 -288.139" />
    <path d="M 254.444 -285.969 L 254.444 -288.164" />
    <path d="M 252.524 -285.034 L 252.524 -286.734" />
    <path d="M 252.499 -285.034 L 252.499 -286.759" />
    <path d="M 252.524 -286.859 L 252.524 -288.139" />
    <path d="M 252.499 -286.834 L 252.499 -288.164" />
    <path d="M 252.399 -285.034 L 252.399 -288.139" />
    <path d="M 252.424 -285.034 L 252.424 -288.164" />
    <path d="M 250.984 -288.264 L 250.984 -288.139" />
    <path d="M 251.869 -288.264 L 251.869 -288.139" />
    <path d="M 254.344 -285.944 L 254.469 -285.944" />
    <path d="M 254.344 -285.969 L 254.469 -285.969" />
    <path d="M 252.634 -293.334 L 252.724 -293.334" />
    <path d="M 260.324 -289.144 L 259.724 -289.144" />
    <path d="M 260.324 -289.724 L 259.724 -289.724" />
    <path d="M 258.724 -289.144 L 259.724 -289.144" />
    <path d="M 258.724 -289.724 L 259.724 -289.724" />
    <path d="M 250.714 -287.734 L 250.714 -288.554" />
    <path d="M 251.869 -288.139 L 252.399 -288.139" />
    <path d="M 251.869 -288.164 L 252.424 -288.164" />
    <path d="M 252.524 -288.139 L 253.274 -288.139" />
    <path d="M 252.499 -288.164 L 253.274 -288.164" />
    <path d="M 254.034 -288.139 L 254.344 -288.139" />
    <path d="M 254.034 -288.164 L 254.369 -288.164" />
    <path d="M 254.469 -288.139 L 254.694 -288.139" />
    <path d="M 254.444 -288.164 L 254.694 -288.164" />
    <path d="M 255.454 -288.139 L 256.494 -288.139" />
    <path d="M 255.454 -288.164 L 256.519 -288.164" />
    <path d="M 252.634 -292.404 L 252.634 -293.334" />
    <path d="M 252.724 -292.404 L 252.724 -293.334" />
    <path d="M 255.454 -288.264 L 255.454 -288.139" />
    <path d="M 254.694 -288.264 L 254.694 -288.139" />
    <path d="M 251.869 -288.264 L 251.869 -288.139" />
    <path d="M 256.974 -293.369 L 256.974 -294.879" />
    <path d="M 257.104 -293.369 L 257.104 -294.879" />
    <path d="M 256.644 -285.034 L 256.644 -288.264" />
    <path d="M 256.619 -285.034 L 256.619 -288.239" />
    <path d="M 256.494 -287.229 L 256.494 -288.139" />
    <path d="M 256.519 -287.204 L 256.519 -288.164" />
    <path d="M 252.634 -295.269 L 252.724 -295.269" />
    <path d="M 252.634 -293.759 L 252.724 -293.759" />
    <path d="M 248.15 -297.444 L 249.579 -297.444" />
    <path d="M 251.979 -297.444 L 252.686 -297.444" />
    <path d="M 256.873 -297.444 L 257.428 -297.444" />
    <path d="M 251.979 -296.964 L 252.634 -296.964" />
    <path d="M 251.979 -296.964 L 251.979 -297.444" />
    <path d="M 249.579 -297.024 L 249.579 -297.444" />
    <path d="M 256.272 -296.914 L 256.974 -296.914" />
    <path d="M 257.104 -296.914 L 257.428 -296.914" />
    <path d="M 258.828 -296.914 L 259.416 -296.914" />
    <path d="M 260.816 -296.914 L 261.344 -296.914" />
    <path d="M 260.816 -296.914 L 260.816 -297.444" />
    <path d="M 259.416 -296.914 L 259.416 -297.444" />
    <path d="M 258.828 -297.444 L 259.416 -297.444" />
    <path d="M 260.816 -297.444 L 261.48 -297.444" />
    <path d="M 258.828 -296.914 L 258.828 -297.444" />
    <path d="M 257.428 -296.914 L 257.428 -297.444" />
    <path d="M 252.724 -296.964 L 253.295 -296.964" />
    <path d="M 254.475 -296.964 L 255.092 -296.964" />
    <path d="M 252.686 -297.384 L 253.295 -297.384" />
    <path d="M 256.272 -297.384 L 256.873 -297.384" />
    <path d="M 252.924 -297.682 L 252.924 -297.504" />
    <path d="M 252.914 -297.672 L 252.914 -297.494" />
    <path d="M 252.686 -297.444 L 252.686 -297.384" />
    <path d="M 256.873 -297.444 L 256.873 -297.384" />
    <path d="M 256.635 -297.682 L 256.635 -297.504" />
    <path d="M 256.645 -297.672 L 256.645 -297.494" />
    <path d="M 255.092 -296.964 L 255.092 -297.384" />
    <path d="M 254.475 -296.964 L 254.475 -297.384" />
    <path d="M 253.295 -296.964 L 253.295 -297.384" />
    <path d="M 249.044 -297.024 L 249.579 -297.024" />
    <path d="M 248.15 -297.025 L 248.744 -297.025" />
    <path d="M 261.48 -297.444 L 261.48 -297.294" />
    <path d="M 261.48 -297.294 L 261.73 -297.294" />
    <path d="M 261.73 -297.294 L 261.73 -297.444" />
    <path d="M 261.73 -297.444 L 261.955 -297.444" />
    <path d="M 255.092 -297.384 L 254.475 -297.384" />
    <path d="M 249.661 -297.682 L 248.15 -297.682" />
    <path d="M 249.651 -297.672 L 248.15 -297.672" />
    <path d="M 253.368 -297.39 L 253.358 -297.39" />
    <path d="M 253.368 -297.384 L 253.368 -297.504" />
    <path d="M 253.358 -297.384 L 253.358 -297.494" />
    <path d="M 253.368 -297.504 L 252.924 -297.504" />
    <path d="M 253.358 -297.494 L 252.914 -297.494" />
    <path d="M 255.154 -297.39 L 255.144 -297.39" />
    <path d="M 255.111 -297.308 L 255.092 -297.308" />
    <path d="M 255.111 -297.384 L 255.092 -297.384" />
    <path d="M 255.111 -297.384 L 255.111 -297.308" />
    <path d="M 255.154 -297.384 L 255.154 -297.504" />
    <path d="M 255.144 -297.384 L 255.144 -297.494" />
    <path d="M 255.154 -297.504 L 254.424 -297.504" />
    <path d="M 255.144 -297.494 L 254.434 -297.494" />
    <path d="M 257.5 -297.545 L 257.49 -297.545" />
    <path d="M 257.457 -297.463 L 257.438 -297.463" />
    <path d="M 257.457 -297.539 L 257.438 -297.539" />
    <path d="M 257.457 -297.539 L 257.457 -297.463" />
    <path d="M 257.5 -297.539 L 257.5 -297.682" />
    <path d="M 257.49 -297.539 L 257.49 -297.672" />
    <path d="M 257.5 -297.682 L 256.635 -297.682" />
    <path d="M 257.49 -297.672 L 256.645 -297.672" />
    <path d="M 259.478 -297.545 L 259.468 -297.545" />
    <path d="M 259.435 -297.463 L 259.416 -297.463" />
    <path d="M 259.435 -297.539 L 259.416 -297.539" />
    <path d="M 259.435 -297.539 L 259.435 -297.463" />
    <path d="M 259.478 -297.539 L 259.478 -297.682" />
    <path d="M 259.468 -297.539 L 259.468 -297.672" />
    <path d="M 259.478 -297.682 L 258.776 -297.682" />
    <path d="M 259.468 -297.672 L 258.786 -297.672" />
    <path d="M 254.434 -297.494 L 254.434 -297.384" />
    <path d="M 254.424 -297.39 L 254.434 -297.39" />
    <path d="M 254.424 -297.384 L 254.424 -297.504" />
    <path d="M 254.466 -297.308 L 254.486 -297.308" />
    <path d="M 254.465 -297.384 L 254.485 -297.384" />
    <path d="M 254.466 -297.384 L 254.466 -297.308" />
    <path d="M 256.225 -297.494 L 256.225 -297.384" />
    <path d="M 256.215 -297.39 L 256.225 -297.39" />
    <path d="M 256.215 -297.384 L 256.215 -297.504" />
    <path d="M 256.252 -297.308 L 256.272 -297.308" />
    <path d="M 256.252 -297.375 L 256.272 -297.375" />
    <path d="M 256.272 -297.308 L 256.272 -297.384" />
    <path d="M 256.252 -297.375 L 256.252 -297.299" />
    <path d="M 258.786 -297.672 L 258.786 -297.539" />
    <path d="M 258.776 -297.545 L 258.786 -297.545" />
    <path d="M 258.776 -297.539 L 258.776 -297.682" />
    <path d="M 258.818 -297.463 L 258.838 -297.463" />
    <path d="M 258.813 -297.531 L 258.833 -297.531" />
    <path d="M 258.838 -297.463 L 258.838 -297.539" />
    <path d="M 258.817 -297.531 L 258.817 -297.455" />
    <path d="M 260.764 -297.672 L 260.764 -297.539" />
    <path d="M 260.754 -297.545 L 260.764 -297.545" />
    <path d="M 260.754 -297.539 L 260.754 -297.682" />
    <path d="M 260.796 -297.463 L 260.816 -297.463" />
    <path d="M 260.795 -297.531 L 260.815 -297.531" />
    <path d="M 260.816 -297.463 L 260.816 -297.539" />
    <path d="M 260.795 -297.531 L 260.795 -297.455" />
    <path d="M 253.476 -297.359 L 253.779 -297.359" />
    <path d="M 254.014 -297.359 L 254.316 -297.359" />
    <path d="M 253.476 -297.311 L 253.779 -297.311" />
    <path d="M 254.014 -297.311 L 254.316 -297.311" />
    <path d="M 255.262 -297.359 L 255.565 -297.359" />
    <path d="M 255.8 -297.359 L 256.102 -297.359" />
    <path d="M 255.262 -297.311 L 255.565 -297.311" />
    <path d="M 255.8 -297.311 L 256.102 -297.311" />
    <path d="M 257.608 -297.515 L 258.021 -297.515" />
    <path d="M 258.256 -297.515 L 258.667 -297.515" />
    <path d="M 257.608 -297.467 L 258.021 -297.467" />
    <path d="M 258.256 -297.467 L 258.667 -297.467" />
    <path d="M 259.585 -297.467 L 259.998 -297.467" />
    <path d="M 259.585 -297.515 L 259.998 -297.515" />
    <path d="M 260.233 -297.467 L 260.645 -297.467" />
    <path d="M 260.645 -297.515 L 260.233 -297.515" />
    <path d="M 261.639 -297.294 L 261.639 -297.682" />
    <path d="M 261.629 -297.294 L 261.629 -297.672" />
    <path d="M 260.754 -297.682 L 261.639 -297.682" />
    <path d="M 260.764 -297.672 L 261.629 -297.672" />
    <path d="M 253.326 -297.384 L 253.306 -297.384" />
    <path d="M 253.306 -297.308 L 253.306 -297.384" />
    <path d="M 253.326 -297.384 L 253.326 -297.308" />
    <path d="M 253.306 -297.308 L 253.326 -297.308" />
    <path d="M 251.902 -297.682 L 252.924 -297.682" />
    <path d="M 251.912 -297.672 L 252.914 -297.672" />
    <path d="M 256.215 -297.504 L 256.635 -297.504" />
    <path d="M 256.225 -297.494 L 256.645 -297.494" />
    <path d="M 256.272 -296.914 L 256.272 -297.384" />
    <path d="M 249.661 -297.545 L 249.651 -297.545" />
    <path d="M 249.619 -297.463 L 249.599 -297.463" />
    <path d="M 249.619 -297.539 L 249.599 -297.539" />
    <path d="M 249.619 -297.539 L 249.619 -297.463" />
    <path d="M 249.661 -297.539 L 249.661 -297.682" />
    <path d="M 249.651 -297.539 L 249.651 -297.672" />
    <path d="M 251.912 -297.672 L 251.912 -297.539" />
    <path d="M 251.902 -297.545 L 251.912 -297.545" />
    <path d="M 251.902 -297.539 L 251.902 -297.682" />
    <path d="M 251.939 -297.463 L 251.959 -297.463" />
    <path d="M 251.939 -297.539 L 251.959 -297.539" />
    <path d="M 251.959 -297.463 L 251.959 -297.539" />
    <path d="M 251.939 -297.539 L 251.939 -297.463" />
    <path d="M 250.174 -297.467 L 249.77 -297.467" />
    <path d="M 250.174 -297.515 L 249.77 -297.515" />
    <path d="M 251.79 -297.467 L 251.386 -297.467" />
    <path d="M 251.79 -297.515 L 251.386 -297.515" />
    <path d="M 251.177 -297.467 L 250.378 -297.467" />
    <path d="M 251.177 -297.515 L 250.378 -297.515" />
    <path d="M 257.647 -297.762 L 258.629 -297.762" />
    <path d="M 257.29 -297.762 L 257.29 -297.682" />
    <path d="M 258.986 -297.762 L 258.986 -297.682" />
    <path d="M 259.625 -297.762 L 260.607 -297.762" />
    <path d="M 259.268 -297.762 L 259.268 -297.682" />
    <path d="M 260.964 -297.762 L 260.964 -297.682" />
    <path d="M 249.451 -297.762 L 249.451 -297.682" />
    <path d="M 248.271 -297.762 L 248.271 -297.682" />
    <path d="M 252.112 -297.762 L 252.112 -297.682" />
    <path d="M 251.755 -297.762 L 249.808 -297.762" />
    <path d="M 252.368 -299.098 L 252.368 -297.682" />
    <path d="M 257.281 -299.098 L 252.368 -299.098" />
    <path d="M 257.281 -299.098 L 257.281 -297.682" />
    <path d="M 255.584 -287.229 L 256.494 -287.229" />
    <path d="M 255.609 -287.204 L 256.519 -287.204" />
    <path d="M 255.584 -287.129 L 256.199 -287.129" />
    <path d="M 255.609 -287.154 L 256.224 -287.154" />
    <path d="M 255.584 -287.229 L 255.584 -287.129" />
    <path d="M 255.609 -287.229 L 255.609 -287.129" />
    <path d="M 256.199 -285.034 L 256.199 -286.319" />
    <path d="M 256.224 -285.034 L 256.224 -286.294" />
    <path d="M 256.199 -286.769 L 256.199 -287.129" />
    <path d="M 256.224 -286.794 L 256.224 -287.154" />
    <path d="M 260.209 -280.033 L 256.929 -280.033" />
    <path d="M 260.209 -280.058 L 256.904 -280.058" />
    <path d="M 260.209 -280.133 L 260.114 -280.133" />
    <path d="M 259.839 -280.183 L 259.039 -280.183" />
    <path d="M 259.864 -280.158 L 259.014 -280.158" />
    <path d="M 258.939 -280.183 L 258.029 -280.183" />
    <path d="M 258.964 -280.158 L 258.004 -280.158" />
    <path d="M 259.039 -281.093 L 258.939 -281.093" />
    <path d="M 258.029 -281.093 L 257.929 -281.093" />
    <path d="M 259.039 -280.183 L 259.039 -281.093" />
    <path d="M 259.014 -280.158 L 259.014 -281.093" />
    <path d="M 258.939 -280.183 L 258.939 -281.093" />
    <path d="M 258.964 -280.158 L 258.964 -281.093" />
    <path d="M 258.029 -280.183 L 258.029 -281.093" />
    <path d="M 258.004 -280.158 L 258.004 -281.093" />
    <path d="M 257.929 -280.408 L 257.929 -281.093" />
    <path d="M 257.954 -280.383 L 257.954 -281.093" />
    <path d="M 257.929 -280.408 L 257.694 -280.408" />
    <path d="M 257.244 -280.408 L 256.114 -280.408" />
    <path d="M 257.954 -280.383 L 257.719 -280.383" />
    <path d="M 257.219 -280.383 L 256.114 -280.383" />
    <path d="M 256.929 -280.033 L 256.114 -280.033" />
    <path d="M 256.904 -280.058 L 256.114 -280.058" />
    <path d="M 259.934 -282.194 L 259.934 -282.044" />
    <path d="M 259.959 -282.194 L 259.959 -282.044" />
    <path d="M 260.059 -282.174 L 260.059 -282.044" />
    <path d="M 260.034 -282.174 L 260.034 -282.044" />
    <path d="M 260.034 -281.284 L 260.034 -281.018" />
    <path d="M 259.839 -281.093 L 259.839 -280.183" />
    <path d="M 259.864 -281.068 L 259.864 -280.158" />
    <path d="M 260.059 -281.284 L 260.059 -280.939" />
    <path d="M 260.059 -282.044 L 259.934 -282.044" />
    <path d="M 260.059 -281.284 L 259.934 -281.284" />
    <path d="M 259.934 -281.093 L 259.934 -281.284" />
    <path d="M 259.959 -281.068 L 259.959 -281.284" />
    <path d="M 259.839 -281.093 L 259.934 -281.093" />
    <path d="M 259.864 -281.068 L 259.959 -281.068" />
    <path d="M 260.034 -280.208 L 260.059 -280.208" />
    <path d="M 260.059 -280.208 L 260.059 -280.158" />
    <path d="M 260.034 -280.208 L 260.034 -280.133" />
    <path d="M 260.034 -280.058 L 259.864 -280.058" />
    <path d="M 261.094 -280.033 L 261.094 -280.158" />
    <path d="M 260.209 -280.033 L 260.209 -280.158" />
    <path d="M 260.059 -280.158 L 260.209 -280.158" />
    <path d="M 260.034 -280.133 L 260.209 -280.133" />
    <path d="M 261.094 -280.033 L 261.244 -280.033" />
    <path d="M 261.094 -280.158 L 261.244 -280.158" />
    <path d="M 261.094 -280.133 L 261.244 -280.133" />
    <path d="M 261.094 -280.058 L 261.244 -280.058" />
    <path d="M 260.034 -280.208 L 259.864 -280.208" />
    <path d="M 257.244 -280.183 L 257.694 -280.183" />
    <path d="M 257.219 -280.158 L 257.719 -280.158" />
    <path d="M 257.694 -280.408 L 257.694 -280.183" />
    <path d="M 257.719 -280.383 L 257.719 -280.158" />
    <path d="M 257.244 -280.408 L 257.244 -280.183" />
    <path d="M 257.219 -280.383 L 257.219 -280.158" />
    <path d="M 260.059 -281.018 L 259.864 -281.018" />
    <path d="M 260.254 -282.174 L 260.014 -282.174" />
    <path d="M 260.014 -282.174 L 260.014 -282.194" />
    <path d="M 256.484 -286.319 L 256.484 -286.769" />
    <path d="M 256.224 -286.794 L 256.509 -286.794" />
    <path d="M 256.509 -286.294 L 256.509 -286.794" />
    <path d="M 256.199 -286.769 L 256.484 -286.769" />
    <path d="M 256.194 -286.319 L 256.484 -286.319" />
    <path d="M 256.219 -286.294 L 256.509 -286.294" />
  </g>
</svg>
