<?xml version="1.0" encoding="UTF-8"?>
<svg xmlns="http://www.w3.org/2000/svg" viewBox="231.06 255.06 36.88 48.88" aria-hidden="true">
  <style>
    path,
    circle {
      fill: none;
      stroke: #007AFF;
      stroke-width: 1.55;
      stroke-linecap: round;
      stroke-linejoin: round;
      vector-effect: non-scaling-stroke;
    }
  </style>
  <g transform="scale(1 -1)">
    <path d="M 249.894 -270.234 L 250.064 -270.234" />
    <path d="M 247.704 -264.794 L 250.064 -264.794" />
    <path d="M 250.064 -270.234 L 250.064 -265.924" />
    <path d="M 250.064 -265.004 L 250.064 -264.794" />
    <path d="M 250.064 -265.004 L 250.484 -265.004" />
    <path d="M 250.064 -265.924 L 250.484 -265.924" />
    <path d="M 250.484 -266.104 L 250.484 -265.924" />
    <path d="M 250.484 -265.004 L 250.484 -264.724" />
    <path d="M 251.894 -266.234 L 252.104 -266.234" />
    <path d="M 248.427 -260.724 L 249.414 -260.724" />
    <path d="M 250.604 -260.724 L 251.704 -260.724" />
    <path d="M 261.599 -260.294 L 260.894 -260.294" />
    <path d="M 257.864 -260.294 L 257.104 -260.294" />
    <path d="M 255.914 -260.294 L 255.354 -260.294" />
    <path d="M 254.124 -260.294 L 252.934 -260.294" />
    <path d="M 251.704 -260.294 L 250.604 -260.294" />
    <path d="M 249.414 -260.294 L 248.427 -260.294" />
    <path d="M 247.237 -260.294 L 246.014 -260.294" />
    <path d="M 250.484 -264.724 L 250.484 -264.404" />
    <path d="M 253.484 -264.724 L 253.484 -260.724" />
    <path d="M 249.414 -260.724 L 249.414 -260.294" />
    <path d="M 250.604 -260.724 L 250.604 -260.294" />
    <path d="M 251.704 -260.724 L 251.704 -260.294" />
    <path d="M 252.934 -260.724 L 252.934 -260.294" />
    <path d="M 252.934 -260.724 L 253.484 -260.724" />
    <path d="M 255.914 -260.724 L 255.914 -260.294" />
    <path d="M 257.104 -260.724 L 257.104 -260.294" />
    <path d="M 251.584 -270.054 L 252.542 -270.054" />
    <path d="M 253.692 -270.054 L 254.598 -270.054" />
    <path d="M 253.484 -266.104 L 253.484 -265.934" />
    <path d="M 252.104 -266.234 L 252.104 -266.104" />
    <path d="M 253.484 -265.014 L 253.484 -264.724" />
    <path d="M 253.484 -265.014 L 253.784 -265.014" />
    <path d="M 253.484 -265.934 L 253.784 -265.934" />
    <path d="M 253.784 -266.104 L 253.784 -265.934" />
    <path d="M 253.784 -265.014 L 253.784 -260.724" />
    <path d="M 257.494 -266.104 L 257.494 -265.904" />
    <path d="M 257.494 -265.004 L 257.494 -260.724" />
    <path d="M 253.784 -260.724 L 254.124 -260.724" />
    <path d="M 255.354 -260.724 L 255.914 -260.724" />
    <path d="M 253.784 -266.104 L 254.914 -266.104" />
    <path d="M 256.314 -266.104 L 257.494 -266.104" />
    <path d="M 257.104 -260.724 L 257.494 -260.724" />
    <path d="M 254.124 -260.724 L 254.124 -260.294" />
    <path d="M 255.354 -260.724 L 255.354 -260.294" />
    <path d="M 252.104 -266.104 L 252.394 -266.104" />
    <path d="M 253.314 -266.104 L 253.484 -266.104" />
    <path d="M 253.314 -266.104 L 253.314 -266.504" />
    <path d="M 252.394 -266.104 L 252.394 -266.504" />
    <path d="M 251.894 -266.504 L 252.394 -266.504" />
    <path d="M 253.314 -266.504 L 253.844 -266.504" />
    <path d="M 253.844 -266.964 L 254.534 -266.964" />
    <path d="M 253.844 -266.504 L 253.844 -266.964" />
    <path d="M 250.344 -270.054 L 250.344 -266.504" />
    <path d="M 250.934 -270.054 L 250.934 -270.472" />
    <path d="M 251.584 -270.054 L 251.584 -270.47" />
    <path d="M 250.934 -270.054 L 250.344 -270.054" />
    <path d="M 254.534 -266.964 L 254.534 -266.874" />
    <path d="M 254.914 -266.874 L 254.914 -266.504" />
    <path d="M 254.534 -266.874 L 254.914 -266.874" />
    <path d="M 256.314 -266.504 L 260.134 -266.504" />
    <path d="M 254.534 -270.054 L 254.598 -270.054" />
    <path d="M 256.001 -270.054 L 256.584 -270.054" />
    <path d="M 250.484 -266.104 L 250.664 -266.104" />
    <path d="M 250.664 -266.104 L 250.664 -266.204" />
    <path d="M 250.639 -266.204 L 250.664 -266.204" />
    <path d="M 250.639 -266.204 L 250.639 -266.504" />
    <path d="M 250.344 -266.504 L 250.639 -266.504" />
    <path d="M 255.844 -274.734 L 260.164 -274.734" />
    <path d="M 261.084 -274.734 L 261.244 -274.734" />
    <path d="M 261.244 -277.024 L 261.244 -274.734" />
    <path d="M 255.844 -275.155 L 255.844 -274.734" />
    <path d="M 246.792 -270.054 L 247.482 -270.054" />
    <path d="M 247.704 -270.664 L 247.704 -265.884" />
    <path d="M 247.704 -264.964 L 247.704 -264.794" />
    <path d="M 247.704 -264.964 L 247.284 -264.964" />
    <path d="M 247.704 -265.884 L 247.284 -265.884" />
    <path d="M 247.284 -265.884 L 247.284 -266.104" />
    <path d="M 247.284 -266.104 L 247.117 -266.104" />
    <path d="M 247.284 -264.964 L 247.284 -264.724" />
    <path d="M 247.284 -264.724 L 247.284 -264.404" />
    <path d="M 250.484 -264.404 L 247.284 -264.404" />
    <path d="M 247.237 -260.724 L 247.237 -260.294" />
    <path d="M 248.427 -260.724 L 248.427 -260.294" />
    <path d="M 246.014 -260.724 L 247.237 -260.724" />
    <path d="M 247.117 -266.104 L 247.117 -266.204" />
    <path d="M 247.117 -266.204 L 247.142 -266.204" />
    <path d="M 247.142 -266.204 L 247.142 -266.504" />
    <path d="M 247.142 -266.504 L 247.482 -266.504" />
    <path d="M 247.482 -266.504 L 247.482 -270.054" />
    <path d="M 259.704 -260.294 L 259.054 -260.294" />
    <path d="M 260.894 -260.714 L 260.894 -260.294" />
    <path d="M 259.704 -260.714 L 259.704 -260.294" />
    <path d="M 257.864 -260.714 L 257.864 -260.294" />
    <path d="M 259.054 -260.714 L 259.054 -260.294" />
    <path d="M 259.054 -260.714 L 259.704 -260.714" />
    <path d="M 260.894 -260.714 L 261.374 -260.714" />
    <path d="M 261.374 -260.714 L 261.374 -266.104" />
    <path d="M 261.374 -266.104 L 261.054 -266.104" />
    <path d="M 260.134 -266.104 L 257.644 -266.104" />
    <path d="M 257.644 -266.104 L 257.644 -265.904" />
    <path d="M 257.644 -265.004 L 257.644 -260.714" />
    <path d="M 257.644 -260.714 L 257.864 -260.714" />
    <path d="M 261.054 -266.104 L 261.054 -266.504" />
    <path d="M 260.134 -266.104 L 260.134 -266.504" />
    <path d="M 261.054 -266.504 L 261.374 -266.504" />
    <path d="M 261.374 -266.504 L 261.374 -269.944" />
    <path d="M 261.374 -269.944 L 261.244 -269.944" />
    <path d="M 261.244 -269.944 L 261.244 -274.454" />
    <path d="M 261.244 -274.454 L 261.084 -274.454" />
    <path d="M 261.084 -274.454 L 261.084 -274.734" />
    <path d="M 260.164 -274.454 L 260.164 -274.734" />
    <path d="M 260.164 -274.454 L 259.984 -274.454" />
    <path d="M 259.984 -274.454 L 259.984 -274.174" />
    <path d="M 259.984 -274.174 L 257.594 -274.174" />
    <path d="M 257.594 -274.174 L 257.594 -274.434" />
    <path d="M 257.594 -274.434 L 256.454 -274.434" />
    <path d="M 256.454 -274.434 L 256.454 -273.562" />
    <path d="M 256.454 -271.41 L 256.454 -272.412" />
    <path d="M 256.584 -270.698 L 256.584 -270.054" />
    <path d="M 256.826 -266.269 L 257.076 -266.269 L 257.076 -266.399 L 256.826 -266.399 L 256.826 -266.269 Z" />
    <path d="M 257.175 -266.269 L 257.425 -266.269 L 257.425 -266.399 L 257.175 -266.399 L 257.175 -266.269 Z" />
    <path d="M 259.049 -266.269 L 259.299 -266.269 L 259.299 -266.399 L 259.049 -266.399 L 259.049 -266.269 Z" />
    <path d="M 259.398 -266.269 L 259.648 -266.269 L 259.648 -266.399 L 259.398 -266.399 L 259.398 -266.269 Z" />
    <path d="M 258.14 -274.288 L 258.39 -274.288 L 258.39 -274.418 L 258.14 -274.418 L 258.14 -274.288 Z" />
    <path d="M 257.77 -274.288 L 258.02 -274.288 L 258.02 -274.418 L 257.77 -274.418 L 257.77 -274.288 Z" />
    <path d="M 258.51 -274.288 L 258.76 -274.288 L 258.76 -274.418 L 258.51 -274.418 L 258.51 -274.288 Z" />
    <path d="M 258.88 -274.288 L 259.13 -274.288 L 259.13 -274.418 L 258.88 -274.418 L 258.88 -274.288 Z" />
    <path d="M 259.25 -274.288 L 259.5 -274.288 L 259.5 -274.418 L 259.25 -274.418 L 259.25 -274.288 Z" />
    <path d="M 259.62 -274.288 L 259.87 -274.288 L 259.87 -274.418 L 259.62 -274.418 L 259.62 -274.288 Z" />
    <path d="M 257.594 -274.454 L 257.594 -274.174" />
    <path d="M 253.931 -266.504 L 254.241 -266.504 L 254.241 -266.814 L 253.931 -266.814" />
    <path d="M 254.461 -266.504 L 254.771 -266.504 L 254.771 -266.814 L 254.461 -266.814" />
    <circle cx="254.075" cy="-266.659" r="0.053" />
    <path d="M 254.143 -260.294 L 254.123 -260.294" />
    <path d="M 254.142 -260.37 L 254.124 -260.37" />
    <path d="M 254.142 -260.294 L 254.124 -260.294" />
    <path d="M 254.142 -260.37 L 254.142 -260.294" />
    <path d="M 257.084 -260.294 L 257.104 -260.294" />
    <path d="M 256.937 -260.366 L 256.631 -260.366" />
    <path d="M 256.937 -260.362 L 256.631 -260.362" />
    <path d="M 256.937 -260.344 L 256.631 -260.344" />
    <path d="M 256.937 -260.34 L 256.631 -260.34" />
    <path d="M 256.937 -260.322 L 256.631 -260.322" />
    <path d="M 256.937 -260.318 L 256.631 -260.318" />
    <path d="M 256.396 -260.366 L 256.082 -260.366" />
    <path d="M 256.396 -260.362 L 256.082 -260.362" />
    <path d="M 256.396 -260.344 L 256.082 -260.344" />
    <path d="M 256.396 -260.322 L 256.082 -260.322" />
    <path d="M 256.396 -260.318 L 256.082 -260.318" />
    <path d="M 255.933 -260.294 L 255.913 -260.294" />
    <path d="M 255.932 -260.37 L 255.914 -260.37" />
    <path d="M 255.932 -260.294 L 255.914 -260.294" />
    <path d="M 255.932 -260.37 L 255.932 -260.294" />
    <path d="M 257.087 -260.37 L 257.104 -260.37" />
    <path d="M 257.087 -260.294 L 257.104 -260.294" />
    <path d="M 257.087 -260.37 L 257.087 -260.294" />
    <path d="M 256.396 -260.34 L 256.082 -260.34" />
    <path d="M 255.954 -260.285 L 255.954 -260.064" />
    <path d="M 255.964 -260.29 L 255.964 -260.056" />
    <path d="M 257.064 -260.284 L 257.064 -260.064" />
    <path d="M 257.054 -260.29 L 257.054 -260.056" />
    <path d="M 257.066 -260.004 L 255.952 -260.004" />
    <path d="M 255.952 -260.004 L 255.952 -260.056" />
    <path d="M 255.964 -260.056 L 255.964 -260.004" />
    <path d="M 255.964 -260.056 L 255.914 -260.056" />
    <path d="M 255.914 -260.056 L 255.914 -260.054" />
    <path d="M 257.066 -260.004 L 257.066 -260.056" />
    <path d="M 257.054 -260.056 L 257.054 -260.004" />
    <path d="M 257.054 -260.056 L 257.104 -260.056" />
    <path d="M 257.104 -260.056 L 257.104 -260.054" />
    <path d="M 259.034 -260.294 L 259.054 -260.294" />
    <path d="M 258.887 -260.366 L 258.581 -260.366" />
    <path d="M 258.887 -260.362 L 258.581 -260.362" />
    <path d="M 258.887 -260.344 L 258.581 -260.344" />
    <path d="M 258.887 -260.34 L 258.581 -260.34" />
    <path d="M 258.887 -260.322 L 258.581 -260.322" />
    <path d="M 258.887 -260.318 L 258.581 -260.318" />
    <path d="M 258.346 -260.366 L 258.032 -260.366" />
    <path d="M 258.346 -260.362 L 258.032 -260.362" />
    <path d="M 258.346 -260.344 L 258.032 -260.344" />
    <path d="M 258.346 -260.322 L 258.032 -260.322" />
    <path d="M 258.346 -260.318 L 258.032 -260.318" />
    <path d="M 257.883 -260.294 L 257.863 -260.294" />
    <path d="M 257.882 -260.37 L 257.864 -260.37" />
    <path d="M 257.882 -260.294 L 257.864 -260.294" />
    <path d="M 257.882 -260.37 L 257.882 -260.294" />
    <path d="M 259.037 -260.37 L 259.054 -260.37" />
    <path d="M 259.037 -260.294 L 259.054 -260.294" />
    <path d="M 259.037 -260.37 L 259.037 -260.294" />
    <path d="M 258.346 -260.34 L 258.032 -260.34" />
    <path d="M 257.904 -260.285 L 257.904 -260.064" />
    <path d="M 257.914 -260.29 L 257.914 -260.056" />
    <path d="M 259.014 -260.284 L 259.014 -260.064" />
    <path d="M 259.004 -260.29 L 259.004 -260.056" />
    <path d="M 257.064 -260.064 L 257.904 -260.064" />
    <path d="M 257.104 -260.054 L 257.864 -260.054" />
    <path d="M 259.016 -260.004 L 257.902 -260.004" />
    <path d="M 257.902 -260.004 L 257.902 -260.056" />
    <path d="M 257.914 -260.056 L 257.914 -260.004" />
    <path d="M 257.914 -260.056 L 257.864 -260.056" />
    <path d="M 257.864 -260.056 L 257.864 -260.054" />
    <path d="M 259.016 -260.004 L 259.016 -260.056" />
    <path d="M 259.004 -260.056 L 259.004 -260.004" />
    <path d="M 259.004 -260.056 L 259.054 -260.056" />
    <path d="M 259.054 -260.056 L 259.054 -260.054" />
    <path d="M 260.874 -260.294 L 260.894 -260.294" />
    <path d="M 260.727 -260.366 L 260.421 -260.366" />
    <path d="M 260.727 -260.362 L 260.421 -260.362" />
    <path d="M 260.727 -260.344 L 260.421 -260.344" />
    <path d="M 260.727 -260.34 L 260.421 -260.34" />
    <path d="M 260.727 -260.322 L 260.421 -260.322" />
    <path d="M 260.727 -260.318 L 260.421 -260.318" />
    <path d="M 260.186 -260.366 L 259.872 -260.366" />
    <path d="M 260.186 -260.362 L 259.872 -260.362" />
    <path d="M 260.186 -260.344 L 259.872 -260.344" />
    <path d="M 260.186 -260.322 L 259.872 -260.322" />
    <path d="M 260.186 -260.318 L 259.872 -260.318" />
    <path d="M 259.723 -260.294 L 259.703 -260.294" />
    <path d="M 259.722 -260.37 L 259.704 -260.37" />
    <path d="M 259.722 -260.294 L 259.704 -260.294" />
    <path d="M 259.722 -260.37 L 259.722 -260.294" />
    <path d="M 260.877 -260.37 L 260.894 -260.37" />
    <path d="M 260.877 -260.294 L 260.894 -260.294" />
    <path d="M 260.877 -260.37 L 260.877 -260.294" />
    <path d="M 260.186 -260.34 L 259.872 -260.34" />
    <path d="M 259.744 -260.285 L 259.744 -260.064" />
    <path d="M 259.754 -260.29 L 259.754 -260.056" />
    <path d="M 260.854 -260.284 L 260.854 -260.064" />
    <path d="M 260.844 -260.29 L 260.844 -260.056" />
    <path d="M 259.014 -260.064 L 259.744 -260.064" />
    <path d="M 259.054 -260.054 L 259.704 -260.054" />
    <path d="M 260.856 -260.004 L 259.742 -260.004" />
    <path d="M 259.742 -260.004 L 259.742 -260.056" />
    <path d="M 259.754 -260.056 L 259.754 -260.004" />
    <path d="M 259.754 -260.056 L 259.704 -260.056" />
    <path d="M 259.704 -260.056 L 259.704 -260.054" />
    <path d="M 260.856 -260.004 L 260.856 -260.056" />
    <path d="M 260.844 -260.056 L 260.844 -260.004" />
    <path d="M 260.844 -260.056 L 260.894 -260.056" />
    <path d="M 260.894 -260.056 L 260.894 -260.054" />
    <path d="M 248.406 -260.294 L 248.427 -260.294" />
    <path d="M 248.259 -260.366 L 247.954 -260.366" />
    <path d="M 248.259 -260.362 L 247.954 -260.362" />
    <path d="M 248.259 -260.344 L 247.954 -260.344" />
    <path d="M 248.259 -260.34 L 247.954 -260.34" />
    <path d="M 248.259 -260.322 L 247.954 -260.322" />
    <path d="M 248.259 -260.318 L 247.954 -260.318" />
    <path d="M 247.718 -260.366 L 247.405 -260.366" />
    <path d="M 247.718 -260.362 L 247.405 -260.362" />
    <path d="M 247.718 -260.344 L 247.405 -260.344" />
    <path d="M 247.718 -260.322 L 247.405 -260.322" />
    <path d="M 247.718 -260.318 L 247.405 -260.318" />
    <path d="M 247.256 -260.294 L 247.235 -260.294" />
    <path d="M 247.254 -260.37 L 247.237 -260.37" />
    <path d="M 247.254 -260.294 L 247.237 -260.294" />
    <path d="M 247.254 -260.37 L 247.254 -260.294" />
    <path d="M 248.41 -260.37 L 248.427 -260.37" />
    <path d="M 248.41 -260.294 L 248.427 -260.294" />
    <path d="M 248.41 -260.37 L 248.41 -260.294" />
    <path d="M 247.718 -260.34 L 247.405 -260.34" />
    <path d="M 247.277 -260.285 L 247.277 -260.064" />
    <path d="M 247.287 -260.29 L 247.287 -260.056" />
    <path d="M 248.387 -260.284 L 248.387 -260.064" />
    <path d="M 248.377 -260.29 L 248.377 -260.056" />
    <path d="M 245.974 -260.064 L 247.277 -260.064" />
    <path d="M 246.014 -260.054 L 247.237 -260.054" />
    <path d="M 248.389 -260.004 L 247.275 -260.004" />
    <path d="M 247.275 -260.004 L 247.275 -260.056" />
    <path d="M 247.287 -260.056 L 247.287 -260.004" />
    <path d="M 247.287 -260.056 L 247.237 -260.056" />
    <path d="M 247.237 -260.056 L 247.237 -260.054" />
    <path d="M 248.389 -260.004 L 248.389 -260.056" />
    <path d="M 248.377 -260.056 L 248.377 -260.004" />
    <path d="M 248.377 -260.056 L 248.427 -260.056" />
    <path d="M 248.427 -260.056 L 248.427 -260.054" />
    <path d="M 250.584 -260.294 L 250.604 -260.294" />
    <path d="M 250.437 -260.366 L 250.131 -260.366" />
    <path d="M 250.437 -260.362 L 250.131 -260.362" />
    <path d="M 250.437 -260.344 L 250.131 -260.344" />
    <path d="M 250.437 -260.34 L 250.131 -260.34" />
    <path d="M 250.437 -260.322 L 250.131 -260.322" />
    <path d="M 250.437 -260.318 L 250.131 -260.318" />
    <path d="M 249.896 -260.366 L 249.582 -260.366" />
    <path d="M 249.896 -260.362 L 249.582 -260.362" />
    <path d="M 249.896 -260.344 L 249.582 -260.344" />
    <path d="M 249.896 -260.322 L 249.582 -260.322" />
    <path d="M 249.896 -260.318 L 249.582 -260.318" />
    <path d="M 249.433 -260.294 L 249.413 -260.294" />
    <path d="M 249.432 -260.37 L 249.414 -260.37" />
    <path d="M 249.432 -260.294 L 249.414 -260.294" />
    <path d="M 249.432 -260.37 L 249.432 -260.294" />
    <path d="M 250.587 -260.37 L 250.604 -260.37" />
    <path d="M 250.587 -260.294 L 250.604 -260.294" />
    <path d="M 250.587 -260.37 L 250.587 -260.294" />
    <path d="M 249.896 -260.34 L 249.582 -260.34" />
    <path d="M 249.454 -260.285 L 249.454 -260.064" />
    <path d="M 249.464 -260.29 L 249.464 -260.056" />
    <path d="M 250.564 -260.284 L 250.564 -260.064" />
    <path d="M 250.554 -260.29 L 250.554 -260.056" />
    <path d="M 248.387 -260.064 L 249.454 -260.064" />
    <path d="M 248.427 -260.054 L 249.414 -260.054" />
    <path d="M 250.566 -260.004 L 249.452 -260.004" />
    <path d="M 249.452 -260.004 L 249.452 -260.056" />
    <path d="M 249.464 -260.056 L 249.464 -260.004" />
    <path d="M 249.464 -260.056 L 249.414 -260.056" />
    <path d="M 249.414 -260.056 L 249.414 -260.054" />
    <path d="M 250.566 -260.004 L 250.566 -260.056" />
    <path d="M 250.554 -260.056 L 250.554 -260.004" />
    <path d="M 250.554 -260.056 L 250.604 -260.056" />
    <path d="M 250.604 -260.056 L 250.604 -260.054" />
    <path d="M 260.854 -260.064 L 261.599 -260.064" />
    <path d="M 260.894 -260.054 L 261.599 -260.054" />
    <path d="M 251.723 -260.294 L 251.703 -260.294" />
    <path d="M 251.717 -260.37 L 251.697 -260.37" />
    <path d="M 251.717 -260.294 L 251.697 -260.294" />
    <path d="M 251.717 -260.37 L 251.717 -260.294" />
    <path d="M 251.744 -260.285 L 251.744 -260.064" />
    <path d="M 251.754 -260.29 L 251.754 -260.056" />
    <path d="M 251.742 -260.004 L 251.742 -260.056" />
    <path d="M 251.754 -260.056 L 251.754 -260.004" />
    <path d="M 251.754 -260.056 L 251.704 -260.056" />
    <path d="M 251.704 -260.056 L 251.704 -260.054" />
    <path d="M 254.143 -260.294 L 254.123 -260.294" />
    <path d="M 254.137 -260.37 L 254.124 -260.37" />
    <path d="M 254.137 -260.294 L 254.124 -260.294" />
    <path d="M 254.164 -260.285 L 254.164 -260.064" />
    <path d="M 254.174 -260.29 L 254.174 -260.056" />
    <path d="M 254.162 -260.004 L 254.162 -260.056" />
    <path d="M 254.174 -260.056 L 254.174 -260.004" />
    <path d="M 254.174 -260.056 L 254.124 -260.056" />
    <path d="M 254.124 -260.056 L 254.124 -260.054" />
    <path d="M 252.914 -260.294 L 252.934 -260.294" />
    <path d="M 252.912 -260.294 L 252.933 -260.294" />
    <path d="M 252.913 -260.37 L 252.933 -260.37" />
    <path d="M 252.913 -260.294 L 252.933 -260.294" />
    <path d="M 252.913 -260.37 L 252.913 -260.294" />
    <path d="M 252.894 -260.284 L 252.894 -260.064" />
    <path d="M 252.884 -260.29 L 252.884 -260.056" />
    <path d="M 252.896 -260.004 L 252.896 -260.056" />
    <path d="M 252.884 -260.056 L 252.884 -260.004" />
    <path d="M 252.884 -260.056 L 252.934 -260.056" />
    <path d="M 252.934 -260.056 L 252.934 -260.054" />
    <path d="M 252.894 -260.064 L 254.164 -260.064" />
    <path d="M 252.934 -260.054 L 254.124 -260.054" />
    <path d="M 255.334 -260.294 L 255.354 -260.294" />
    <path d="M 255.332 -260.294 L 255.353 -260.294" />
    <path d="M 255.333 -260.37 L 255.353 -260.37" />
    <path d="M 255.333 -260.294 L 255.353 -260.294" />
    <path d="M 255.333 -260.37 L 255.333 -260.294" />
    <path d="M 255.314 -260.284 L 255.314 -260.064" />
    <path d="M 255.304 -260.29 L 255.304 -260.056" />
    <path d="M 255.316 -260.004 L 255.316 -260.056" />
    <path d="M 255.304 -260.056 L 255.304 -260.004" />
    <path d="M 255.304 -260.056 L 255.354 -260.056" />
    <path d="M 255.354 -260.056 L 255.354 -260.054" />
    <path d="M 255.314 -260.064 L 255.954 -260.064" />
    <path d="M 255.354 -260.054 L 255.914 -260.054" />
    <path d="M 254.162 -260.004 L 255.316 -260.004" />
    <path d="M 251.742 -260.004 L 252.896 -260.004" />
    <path d="M 251.868 -260.318 L 252.206 -260.318" />
    <path d="M 252.441 -260.318 L 252.762 -260.318" />
    <path d="M 250.604 -260.054 L 251.704 -260.054" />
    <path d="M 251.744 -260.064 L 250.564 -260.064" />
    <path d="M 251.868 -260.322 L 252.206 -260.322" />
    <path d="M 252.441 -260.322 L 252.762 -260.322" />
    <path d="M 251.868 -260.34 L 252.206 -260.34" />
    <path d="M 252.441 -260.34 L 252.762 -260.34" />
    <path d="M 251.868 -260.344 L 252.206 -260.344" />
    <path d="M 252.441 -260.344 L 252.762 -260.344" />
    <path d="M 251.868 -260.362 L 252.206 -260.362" />
    <path d="M 252.441 -260.362 L 252.762 -260.362" />
    <path d="M 251.868 -260.366 L 252.206 -260.366" />
    <path d="M 252.441 -260.366 L 252.762 -260.366" />
    <path d="M 254.288 -260.318 L 254.626 -260.318" />
    <path d="M 254.861 -260.318 L 255.182 -260.318" />
    <path d="M 254.288 -260.322 L 254.626 -260.322" />
    <path d="M 254.861 -260.322 L 255.182 -260.322" />
    <path d="M 254.288 -260.34 L 254.626 -260.34" />
    <path d="M 254.861 -260.34 L 255.182 -260.34" />
    <path d="M 254.288 -260.344 L 254.626 -260.344" />
    <path d="M 254.861 -260.344 L 255.182 -260.344" />
    <path d="M 254.288 -260.362 L 254.626 -260.362" />
    <path d="M 254.861 -260.362 L 255.182 -260.362" />
    <path d="M 254.288 -260.366 L 254.626 -260.366" />
    <path d="M 254.861 -260.366 L 255.182 -260.366" />
    <path d="M 255.994 -271.41 L 256.454 -271.41" />
    <path d="M 246.792 -270.485 L 247.086 -270.485" />
    <path d="M 247.086 -270.485 L 247.087 -270.673" />
    <path d="M 250.636 -270.664 L 250.636 -270.473" />
    <path d="M 250.636 -270.473 L 250.934 -270.472" />
    <path d="M 252.543 -270.467 L 252.542 -270.054" />
    <path d="M 253.693 -270.464 L 253.692 -270.054" />
    <path d="M 256.002 -270.316 L 256.001 -270.054" />
    <path d="M 255.906 -270.457 L 255.989 -270.456" />
    <path d="M 255.906 -270.457 L 255.906 -270.317" />
    <path d="M 255.906 -270.317 L 256.002 -270.316" />
    <path d="M 254.598 -270.054 L 254.598 -270.461" />
    <path d="M 255.692 -270.465 L 255.692 -270.197" />
    <path d="M 254.592 -270.469 L 254.592 -270.197" />
    <path d="M 255.906 -270.317 L 255.692 -270.317" />
    <path d="M 255.692 -270.317 L 255.692 -270.457" />
    <path d="M 255.692 -270.457 L 255.906 -270.457" />
    <path d="M 251.584 -270.47 L 252.543 -270.467" />
    <path d="M 253.693 -270.464 L 254.598 -270.461" />
    <path d="M 250.99 -270.569 L 250.99 -270.708" />
    <path d="M 251.577 -270.197 L 251.577 -270.478" />
    <path d="M 250.98 -270.7 L 250.864 -270.701" />
    <path d="M 250.927 -270.197 L 250.927 -270.48" />
    <path d="M 250.94 -270.71 L 250.874 -270.711" />
    <path d="M 253.726 -270.197 L 253.726 -270.472" />
    <path d="M 250.99 -270.708 L 250.94 -270.708" />
    <path d="M 250.98 -270.569 L 250.98 -270.7" />
    <path d="M 250.94 -270.708 L 250.94 -270.71" />
    <path d="M 250.875 -270.904 L 250.874 -270.711" />
    <path d="M 250.865 -270.894 L 250.864 -270.701" />
    <path d="M 251.516 -270.567 L 251.516 -270.707" />
    <path d="M 252.609 -270.703 L 252.559 -270.703" />
    <path d="M 251.526 -270.57 L 251.516 -270.57" />
    <path d="M 250.98 -270.571 L 250.99 -270.571" />
    <path d="M 251.526 -270.567 L 251.526 -270.699" />
    <path d="M 252.609 -270.563 L 252.609 -270.703" />
    <path d="M 251.566 -270.706 L 251.566 -270.708" />
    <path d="M 251.516 -270.707 L 251.566 -270.706" />
    <path d="M 251.526 -270.699 L 252.599 -270.695" />
    <path d="M 252.559 -270.703 L 252.559 -270.705" />
    <path d="M 253.675 -270.56 L 253.675 -270.692" />
    <path d="M 252.599 -270.563 L 252.599 -270.695" />
    <path d="M 253.665 -270.56 L 253.665 -270.7" />
    <path d="M 252.599 -270.566 L 252.609 -270.566" />
    <path d="M 253.665 -270.7 L 253.715 -270.7" />
    <path d="M 253.715 -270.7 L 253.715 -270.702" />
    <path d="M 253.675 -270.563 L 253.665 -270.563" />
    <path d="M 254.605 -270.697 L 254.655 -270.697" />
    <path d="M 254.605 -270.697 L 254.605 -270.699" />
    <path d="M 254.631 -270.698 L 254.631 -270.742" />
    <path d="M 254.631 -270.742 L 254.655 -270.742" />
    <path d="M 254.655 -270.742 L 254.655 -270.698" />
    <path d="M 254.628 -270.635 L 254.644 -270.635" />
    <path d="M 254.628 -270.635 L 254.628 -270.625" />
    <path d="M 254.627 -270.6 L 254.644 -270.6" />
    <path d="M 254.627 -270.6 L 254.628 -270.61" />
    <path d="M 254.646 -270.625 L 254.654 -270.629" />
    <path d="M 254.646 -270.61 L 254.654 -270.606" />
    <path d="M 254.654 -270.556 L 254.655 -270.697" />
    <path d="M 254.644 -270.556 L 254.645 -270.689" />
    <path d="M 254.654 -270.561 L 254.644 -270.561" />
    <path d="M 253.715 -270.702 L 254.605 -270.699" />
    <path d="M 253.715 -270.692 L 254.645 -270.689" />
    <path d="M 255.678 -270.693 L 255.628 -270.694" />
    <path d="M 255.678 -270.693 L 255.678 -270.695" />
    <path d="M 255.652 -270.694 L 255.653 -270.738" />
    <path d="M 255.653 -270.738 L 255.629 -270.739" />
    <path d="M 255.629 -270.739 L 255.628 -270.695" />
    <path d="M 255.655 -270.632 L 255.638 -270.632" />
    <path d="M 255.655 -270.632 L 255.655 -270.622" />
    <path d="M 255.655 -270.597 L 255.638 -270.597" />
    <path d="M 255.655 -270.597 L 255.655 -270.607" />
    <path d="M 255.636 -270.622 L 255.628 -270.626" />
    <path d="M 255.636 -270.607 L 255.628 -270.603" />
    <path d="M 255.628 -270.553 L 255.628 -270.694" />
    <path d="M 255.638 -270.553 L 255.638 -270.686" />
    <path d="M 255.628 -270.558 L 255.638 -270.558" />
    <path d="M 255.678 -270.695 L 255.742 -270.695" />
    <path d="M 255.638 -270.686 L 255.752 -270.685" />
    <path d="M 252.559 -270.705 L 251.566 -270.708" />
    <path d="M 254.655 -270.74 L 255.629 -270.736" />
    <path d="M 252.756 -270.537 L 253.019 -270.537" />
    <path d="M 253.254 -270.536 L 253.517 -270.535" />
    <path d="M 252.756 -270.745 L 253.518 -270.742" />
    <path d="M 251.137 -270.75 L 251.369 -270.749" />
    <path d="M 251.136 -270.495 L 251.368 -270.494" />
    <path d="M 251.137 -270.543 L 251.368 -270.542" />
    <path d="M 255.99 -270.747 L 256.125 -270.747" />
    <path d="M 254.592 -270.481 L 254.592 -270.556 L 254.612 -270.556 L 254.612 -270.481" />
    <path d="M 255.689 -270.477 L 255.689 -270.553 L 255.67 -270.553 L 255.67 -270.477" />
    <path d="M 255.87 -270.466 L 255.87 -270.457" />
    <path d="M 255.26 -270.482 L 255.519 -270.481" />
    <path d="M 254.762 -270.483 L 255.025 -270.482" />
    <path d="M 255.26 -270.53 L 255.52 -270.529" />
    <path d="M 254.762 -270.531 L 255.025 -270.53" />
    <path d="M 255.943 -270.567 L 255.99 -270.568" />
    <path d="M 256.008 -274.202 L 255.437 -274.195" />
    <path d="M 255.437 -274.195 L 255.438 -275.156" />
    <path d="M 255.578 -275.155 L 255.844 -275.155" />
    <path d="M 255.578 -275.155 L 255.578 -275.254" />
    <path d="M 255.578 -275.254 L 255.438 -275.254" />
    <path d="M 255.438 -275.254 L 255.438 -275.156" />
    <path d="M 255.759 -273.504 L 255.759 -273.554" />
    <path d="M 255.898 -273.513 L 255.767 -273.514" />
    <path d="M 255.898 -273.503 L 255.759 -273.504" />
    <path d="M 255.759 -273.554 L 255.757 -273.554" />
    <path d="M 255.896 -273.513 L 255.896 -273.503" />
    <path d="M 255.712 -272.645 L 255.716 -273.357" />
    <path d="M 255.757 -273.554 L 255.759 -273.957" />
    <path d="M 255.767 -273.554 L 255.769 -273.967" />
    <path d="M 255.759 -273.957 L 255.188 -273.956" />
    <path d="M 255.769 -273.967 L 255.198 -273.966" />
    <path d="M 255.333 -275.309 L 255.202 -275.309" />
    <path d="M 255.193 -275.269 L 255.191 -275.269" />
    <path d="M 255.188 -273.956 L 255.191 -275.269" />
    <path d="M 255.193 -275.269 L 255.194 -275.319" />
    <path d="M 255.202 -275.309 L 255.198 -273.966" />
    <path d="M 255.331 -275.309 L 255.331 -275.319" />
    <path d="M 255.922 -273.118 L 255.923 -273.356" />
    <path d="M 255.97 -273.117 L 255.971 -273.356" />
    <path d="M 255.756 -271.452 L 255.755 -271.347" />
    <path d="M 255.746 -271.452 L 255.745 -271.387" />
    <path d="M 255.747 -271.387 L 255.747 -271.337" />
    <path d="M 255.755 -271.347 L 255.888 -271.346" />
    <path d="M 255.747 -271.337 L 255.888 -271.336" />
    <path d="M 255.745 -271.387 L 255.747 -271.387" />
    <path d="M 255.883 -271.346 L 255.883 -271.336" />
    <path d="M 255.761 -272.488 L 255.76 -272.311" />
    <path d="M 255.751 -272.448 L 255.75 -272.311" />
    <path d="M 255.753 -272.498 L 255.753 -272.448" />
    <path d="M 255.893 -272.487 L 255.761 -272.488" />
    <path d="M 255.893 -272.497 L 255.753 -272.498" />
    <path d="M 255.753 -272.448 L 255.751 -272.448" />
    <path d="M 255.746 -271.452 L 255.75 -272.311" />
    <path d="M 255.756 -271.452 L 255.76 -272.311" />
    <path d="M 255.747 -271.361 L 255.703 -271.361 L 255.703 -271.337 L 255.747 -271.337" />
    <path d="M 255.89 -272.487 L 255.89 -272.497" />
    <path d="M 255.964 -271.398 L 255.888 -271.398 L 255.888 -271.378 L 255.964 -271.378" />
    <path d="M 255.752 -270.685 L 255.752 -270.8" />
    <path d="M 255.742 -270.695 L 255.742 -270.76" />
    <path d="M 255.744 -270.76 L 255.744 -270.81" />
    <path d="M 255.752 -270.8 L 255.885 -270.8" />
    <path d="M 255.744 -270.81 L 255.885 -270.81" />
    <path d="M 255.742 -270.76 L 255.744 -270.76" />
    <path d="M 255.88 -270.8 L 255.88 -270.81" />
    <path d="M 255.744 -270.786 L 255.7 -270.787 L 255.7 -270.811 L 255.744 -270.81" />
    <path d="M 255.705 -271.337 L 255.702 -270.811" />
    <path d="M 255.961 -270.748 L 255.885 -270.748 L 255.885 -270.768 L 255.961 -270.768" />
    <path d="M 256.008 -274.202 L 256.005 -273.565" />
    <path d="M 255.999 -272.415 L 255.994 -271.41" />
    <path d="M 255.91 -270.918 L 255.912 -271.227" />
    <path d="M 255.958 -270.918 L 255.96 -271.227" />
    <path d="M 256.584 -270.698 L 256.125 -270.7" />
    <path d="M 255.99 -270.747 L 255.989 -270.456" />
    <path d="M 256.125 -270.747 L 256.125 -270.7" />
    <path d="M 255.999 -272.415 L 256.454 -272.412" />
    <path d="M 256.005 -273.565 L 256.454 -273.562" />
    <path d="M 251.044 -268.429 L 251.044 -268.304" />
    <path d="M 251.804 -268.429 L 251.804 -268.304" />
    <path d="M 256.001 -270.039 L 260.044 -270.039" />
    <path d="M 256.584 -270.064 L 260.019 -270.064" />
    <path d="M 256.584 -270.164 L 259.039 -270.164" />
    <path d="M 256.584 -270.139 L 259.064 -270.139" />
    <path d="M 259.139 -270.139 L 260.019 -270.139" />
    <path d="M 259.164 -270.164 L 260.044 -270.164" />
    <path d="M 259.039 -270.279 L 259.164 -270.279" />
    <path d="M 258.029 -271.149 L 258.129 -271.149" />
    <path d="M 256.454 -272.209 L 259.164 -272.209" />
    <path d="M 256.454 -272.184 L 259.139 -272.184" />
    <path d="M 258.129 -272.059 L 259.039 -272.059" />
    <path d="M 258.104 -272.084 L 259.064 -272.084" />
    <path d="M 258.029 -271.834 L 258.029 -271.149" />
    <path d="M 258.054 -271.859 L 258.054 -271.149" />
    <path d="M 258.129 -272.059 L 258.129 -271.149" />
    <path d="M 258.104 -272.084 L 258.104 -271.149" />
    <path d="M 259.039 -272.059 L 259.039 -271.039" />
    <path d="M 259.064 -272.084 L 259.064 -271.039" />
    <path d="M 259.164 -272.209 L 259.164 -271.534" />
    <path d="M 259.139 -272.184 L 259.139 -271.509" />
    <path d="M 259.164 -271.509 L 259.164 -271.039" />
    <path d="M 259.139 -271.509 L 259.139 -271.039" />
    <path d="M 259.039 -271.039 L 259.164 -271.039" />
    <path d="M 254.148 -266.964 L 254.148 -270.054" />
    <path d="M 259.164 -271.534 L 260.204 -271.534" />
    <path d="M 259.164 -271.509 L 260.204 -271.509" />
    <path d="M 261.089 -271.534 L 261.244 -271.534" />
    <path d="M 261.089 -271.509 L 261.244 -271.509" />
    <path d="M 260.044 -271.409 L 260.204 -271.409" />
    <path d="M 260.019 -271.434 L 260.204 -271.434" />
    <path d="M 261.089 -271.409 L 261.244 -271.409" />
    <path d="M 261.089 -271.434 L 261.244 -271.434" />
    <path d="M 261.089 -271.409 L 261.089 -271.534" />
    <path d="M 260.204 -271.409 L 260.204 -271.534" />
    <path d="M 251.894 -266.504 L 251.894 -267.364" />
    <path d="M 251.919 -266.504 L 251.919 -267.364" />
    <path d="M 251.894 -268.124 L 251.894 -268.304" />
    <path d="M 251.919 -268.124 L 251.919 -268.329" />
    <path d="M 251.894 -268.429 L 251.894 -270.054" />
    <path d="M 251.919 -268.404 L 251.919 -270.054" />
    <path d="M 252.019 -266.504 L 252.019 -267.364" />
    <path d="M 251.994 -266.504 L 251.994 -267.364" />
    <path d="M 252.019 -268.124 L 252.019 -270.054" />
    <path d="M 251.994 -268.124 L 251.994 -270.054" />
    <path d="M 252.394 -266.504 L 253.314 -266.504" />
    <path d="M 250.639 -266.504 L 250.994 -266.504" />
    <path d="M 250.994 -266.504 L 250.994 -266.104" />
    <path d="M 250.994 -266.104 L 250.664 -266.104" />
    <path d="M 252.019 -267.364 L 251.894 -267.364" />
    <path d="M 252.019 -268.124 L 251.894 -268.124" />
    <path d="M 251.894 -268.304 L 251.804 -268.304" />
    <path d="M 251.919 -268.329 L 251.804 -268.329" />
    <path d="M 251.044 -268.304 L 250.344 -268.304" />
    <path d="M 251.044 -268.329 L 250.344 -268.329" />
    <path d="M 251.894 -268.429 L 251.804 -268.429" />
    <path d="M 251.919 -268.404 L 251.804 -268.404" />
    <path d="M 251.044 -268.429 L 250.344 -268.429" />
    <path d="M 251.044 -268.404 L 250.344 -268.404" />
    <path d="M 259.039 -270.279 L 259.039 -270.164" />
    <path d="M 259.064 -270.279 L 259.064 -270.139" />
    <path d="M 259.164 -270.279 L 259.164 -270.164" />
    <path d="M 259.139 -270.279 L 259.139 -270.139" />
    <path d="M 252.394 -266.504 L 253.314 -266.504" />
    <path d="M 252.394 -266.379 L 253.314 -266.379" />
    <path d="M 260.044 -270.164 L 260.044 -270.039" />
    <path d="M 260.019 -270.164 L 260.019 -270.039" />
    <path d="M 251.894 -266.234 L 251.894 -266.504" />
    <path d="M 254.914 -266.504 L 254.914 -266.104" />
    <path d="M 256.314 -266.504 L 256.314 -266.104" />
    <path d="M 247.142 -266.504 L 246.832 -266.504" />
    <path d="M 246.832 -266.104 L 247.117 -266.104" />
    <path d="M 246.782 -268.304 L 247.482 -268.304" />
    <path d="M 246.782 -268.329 L 247.482 -268.329" />
    <path d="M 246.782 -268.429 L 247.482 -268.429" />
    <path d="M 246.782 -268.404 L 247.482 -268.404" />
    <path d="M 249.001 -264.404 L 249.001 -260.724" />
    <path d="M 248.926 -264.404 L 248.926 -260.724" />
    <path d="M 248.921 -264.404 L 248.921 -260.724" />
    <path d="M 248.846 -264.404 L 248.846 -260.724" />
    <path d="M 257.494 -265.904 L 257.644 -265.904" />
    <path d="M 257.494 -265.004 L 257.644 -265.004" />
    <path d="M 257.494 -265.004 L 257.494 -265.904" />
    <path d="M 257.644 -265.004 L 257.644 -265.904" />
    <path d="M 252.409 -264.374 L 252.409 -264.499" />
    <path d="M 251.524 -264.374 L 251.524 -264.499" />
    <path d="M 249.001 -264.374 L 251.524 -264.374" />
    <path d="M 249.001 -264.399 L 251.524 -264.399" />
    <path d="M 252.409 -264.374 L 253.484 -264.374" />
    <path d="M 252.409 -264.399 L 253.484 -264.399" />
    <path d="M 250.484 -264.499 L 251.524 -264.499" />
    <path d="M 250.484 -264.474 L 251.524 -264.474" />
    <path d="M 252.409 -264.499 L 253.484 -264.499" />
    <path d="M 252.409 -264.474 L 253.484 -264.474" />
    <path d="M 248.846 -264.374 L 246.244 -264.374" />
    <path d="M 248.846 -264.399 L 246.244 -264.399" />
    <path d="M 247.284 -264.499 L 246.244 -264.499" />
    <path d="M 247.284 -264.474 L 246.244 -264.474" />
    <path d="M 252.884 -267.414 L 253.784 -267.414" />
    <path d="M 252.899 -267.439 L 253.809 -267.439" />
    <path d="M 252.884 -267.514 L 253.998 -267.514" />
    <path d="M 252.899 -267.489 L 254.023 -267.489" />
    <path d="M 252.288 -269.354 L 252.019 -269.354" />
    <path d="M 252.263 -269.379 L 252.019 -269.379" />
    <path d="M 253.998 -270.054 L 253.998 -267.514" />
    <path d="M 252.288 -270.054 L 252.288 -269.354" />
    <path d="M 252.263 -270.054 L 252.263 -269.379" />
    <path d="M 254.023 -270.054 L 254.023 -267.489" />
    <path d="M 254.148 -266.964 L 254.148 -270.054" />
    <path d="M 254.123 -266.964 L 254.123 -270.054" />
    <path d="M 253.702 -270.054 L 253.702 -270.464" />
    <path d="M 253.784 -266.504 L 253.784 -267.414" />
    <path d="M 253.809 -266.504 L 253.809 -267.439" />
    <path d="M 252.874 -267.414 L 252.874 -267.514" />
    <path d="M 252.899 -267.414 L 252.899 -267.514" />
    <path d="M 256.454 -271.859 L 257.349 -271.859" />
    <path d="M 256.454 -271.834 L 257.374 -271.834" />
    <path d="M 257.824 -271.834 L 258.029 -271.834" />
    <path d="M 257.849 -271.859 L 258.054 -271.859" />
    <path d="M 257.824 -272.059 L 257.374 -272.059" />
    <path d="M 257.849 -272.084 L 257.349 -272.084" />
    <path d="M 257.374 -271.834 L 257.374 -272.059" />
    <path d="M 257.349 -271.859 L 257.349 -272.084" />
    <path d="M 257.824 -271.834 L 257.824 -272.059" />
    <path d="M 257.849 -271.859 L 257.849 -272.084" />
    <path d="M 259.969 -271.339 L 260.044 -271.339" />
    <path d="M 259.969 -271.364 L 260.044 -271.364" />
    <path d="M 260.044 -271.339 L 260.044 -271.409" />
    <path d="M 260.019 -271.364 L 260.019 -271.434" />
    <path d="M 259.969 -271.339 L 259.969 -271.509" />
    <path d="M 259.969 -271.339 L 259.164 -271.339" />
    <path d="M 256.001 -270.054 L 256.001 -270.039" />
    <path d="M 249.894 -270.234 L 249.894 -270.664" />
    <path d="M 249.014 -270.234 L 248.735 -270.234" />
    <path d="M 247.482 -270.054 L 247.704 -270.054" />
    <path d="M 250.064 -270.054 L 250.344 -270.054" />
    <path d="M 247.087 -270.664 L 247.704 -270.664" />
    <path d="M 249.914 -270.664 L 250.636 -270.664" />
    <path d="M 248.735 -270.234 L 248.735 -270.664" />
    <path d="M 249.014 -270.234 L 249.014 -270.664" />
    <path d="M 249.084 -270.751 L 249.084 -270.902" />
    <path d="M 249.034 -270.902 L 249.034 -270.904" />
    <path d="M 249.074 -270.751 L 249.074 -270.894" />
    <path d="M 249.864 -270.902 L 249.864 -270.75" />
    <path d="M 249.914 -270.904 L 249.914 -270.902" />
    <path d="M 249.874 -270.894 L 249.874 -270.75" />
    <path d="M 249.015 -270.675 L 249.015 -270.751 L 249.035 -270.751 L 249.035 -270.675" />
    <path d="M 249.034 -270.902 L 249.084 -270.902" />
    <path d="M 248.755 -270.904 L 249.034 -270.904" />
    <path d="M 248.765 -270.894 L 249.074 -270.894" />
    <path d="M 249.072 -270.942 L 249.072 -270.902" />
    <path d="M 249.072 -270.942 L 249.876 -270.942" />
    <path d="M 249.084 -270.902 L 249.084 -270.942" />
    <path d="M 249.864 -270.902 L 249.864 -270.942" />
    <path d="M 249.876 -270.902 L 249.876 -270.942" />
    <path d="M 249.054 -270.755 L 249.064 -270.755" />
    <path d="M 247.704 -270.824 L 247.704 -270.664" />
    <path d="M 247.694 -270.814 L 247.694 -270.664" />
    <path d="M 248.755 -270.664 L 248.755 -270.904" />
    <path d="M 248.765 -270.894 L 248.765 -270.664" />
    <path d="M 247.285 -270.824 L 247.704 -270.824" />
    <path d="M 247.275 -270.814 L 247.694 -270.814" />
    <path d="M 249.893 -270.675 L 249.893 -270.751 L 249.874 -270.751 L 249.874 -270.675" />
    <path d="M 249.914 -270.904 L 250.875 -270.904" />
    <path d="M 249.874 -270.894 L 250.865 -270.894" />
    <path d="M 249.864 -270.902 L 249.914 -270.902" />
    <path d="M 246.833 -270.904 L 247.285 -270.904" />
    <path d="M 246.843 -270.894 L 247.275 -270.894" />
    <path d="M 247.285 -270.904 L 247.285 -270.824" />
    <path d="M 247.275 -270.894 L 247.275 -270.814" />
    <path d="M 249.034 -270.664 L 248.755 -270.664" />
    <path d="M 249.185 -270.678 L 249.725 -270.678" />
    <path d="M 249.185 -270.726 L 249.725 -270.726" />
    <path d="M 255.333 -275.319 L 255.194 -275.319" />
    <path d="M 255.152 -275.364 L 255.154 -276.306" />
    <path d="M 255.359 -275.364 L 255.361 -276.306" />
    <path d="M 255.409 -276.305 L 255.407 -275.364" />
  </g>
</svg>
